<?xml version="1.0" standalone="no"?>
<!DOCTYPE svg PUBLIC "-//W3C//DTD SVG 1.1//EN" "http://www.w3.org/Graphics/SVG/1.1/DTD/svg11.dtd" >
<svg xmlns="http://www.w3.org/2000/svg" xmlns:xlink="http://www.w3.org/1999/xlink" version="1.1">
<metadata>
Created by FontForge 20201107 at Mon Jun 19 17:26:20 2023
 By 
(c) 2023 Microsoft Corporation. All Rights Reserved.
</metadata>
<defs>
<font id="Aptos-Black" horiz-adv-x="1186" >
  <font-face 
    font-family="Aptos Black"
    font-weight="900"
    font-stretch="normal"
    units-per-em="2048"
    panose-1="2 11 0 4 2 2 2 2 2 4"
    ascent="1638"
    descent="-410"
    x-height="979"
    cap-height="1346"
    bbox="-1206 -563 2920 2068"
    underline-thickness="50"
    underline-position="-125"
    unicode-range="U+000D-FDFC"
  />
<missing-glyph horiz-adv-x="965" 
d="M0 0v1354h965v-1354h-965zM463 221q-64 0 -105 39t-41 94q0 63 41 101.5t105 38.5q66 0 106.5 -38.5t40.5 -101.5q0 -55 -40.5 -94t-106.5 -39zM102 102h760v1147h-760v-1147zM346 569q-7 89 13 132.5t81 80.5q54 32 77.5 54.5t23.5 54.5q0 25 -15.5 38t-50.5 13
q-37 0 -54.5 -20.5t-17.5 -51.5h-256q0 131 86.5 201t241.5 70q152 0 246 -65t94 -185q0 -75 -37 -127.5t-125 -101.5q-37 -20 -54 -39t-24 -54h-229z" />
    <glyph glyph-name="uniFB01" unicode="fi" horiz-adv-x="1360" 
d="M172 0v696h-160v283h160v8q0 106 23 176t76 110t143.5 56.5t226.5 16.5h92v-259h-86q-61 0 -81.5 -19.5t-20.5 -82.5v-6h190v-283h-190v-696h-373zM875 0v979h372v-979h-372zM1061 1047q-101 0 -150 46.5t-49 116.5q0 73 49 118.5t150 45.5t150 -45.5t49 -118.5
q0 -70 -49 -116.5t-150 -46.5z" />
    <glyph glyph-name="uniFB02" unicode="fl" horiz-adv-x="1452" 
d="M172 0v696h-160v283h160v8q0 106 23 176t76 110t143.5 56.5t226.5 16.5h92v-259h-86q-61 0 -81.5 -19.5t-20.5 -82.5v-6h190v-283h-190v-696h-373zM1346 0q-181 0 -283 33t-143 113t-41 221v979h370v-955q0 -61 19 -83.5t82 -22.5h78v-285h-82z" />
    <glyph glyph-name="f_f.liga" unicode="ff" horiz-adv-x="1528" 
d="M172 0v696h-160v283h160v8q0 106 23 176t76 110t143.5 56.5t226.5 16.5h92v-259h-86q-61 0 -81.5 -19.5t-20.5 -82.5v-6h190v-283h-190v-696h-373zM936 0v696h-160v283h160v8q0 106 23 176t76 110t143.5 56.5t226.5 16.5h92v-259h-86q-61 0 -81.5 -19.5t-20.5 -82.5v-6
h190v-283h-190v-696h-373z" />
    <glyph glyph-name="uniFDFC" unicode="&#xfdfc;" horiz-adv-x="2113" arabic-form="isolated" 
d="M418 86q-181 0 -265.5 92t-84.5 252q0 50 9 103t25 96h238q-9 -37 -16 -86t-7 -97q0 -64 28 -95.5t89 -31.5q106 0 154.5 56t48.5 180v602h270v-622q0 -232 -124 -340.5t-365 -108.5zM989 -41q-44 0 -74 31t-30 76q0 44 30 75t74 31q45 0 76 -31t31 -75q0 -45 -31 -76
t-76 -31zM1276 -41q-44 0 -75.5 31t-31.5 76q0 44 31.5 75t75.5 31t74 -31t30 -75q0 -45 -30 -76t-74 -31zM1554 -16v231h15q110 0 169.5 37t59.5 137q0 51 -9 106t-34 132h240q25 -64 38 -123t13 -131q0 -198 -115.5 -293.5t-359.5 -95.5h-17zM1348 221q-174 0 -260.5 85.5
t-86.5 252.5v598h271v-598q0 -52 18.5 -79t63.5 -27q41 0 66.5 19t25.5 65q0 40 -5.5 83.5t-19.5 98.5h238q15 -52 25 -99.5t10 -103.5q0 -135 -82.5 -215t-263.5 -80z" />
    <glyph glyph-name=".notdef" horiz-adv-x="965" 
d="M0 0v1354h965v-1354h-965zM463 221q-64 0 -105 39t-41 94q0 63 41 101.5t105 38.5q66 0 106.5 -38.5t40.5 -101.5q0 -55 -40.5 -94t-106.5 -39zM102 102h760v1147h-760v-1147zM346 569q-7 89 13 132.5t81 80.5q54 32 77.5 54.5t23.5 54.5q0 25 -15.5 38t-50.5 13
q-37 0 -54.5 -20.5t-17.5 -51.5h-256q0 131 86.5 201t241.5 70q152 0 246 -65t94 -185q0 -75 -37 -127.5t-125 -101.5q-37 -20 -54 -39t-24 -54h-229z" />
    <glyph glyph-name=".null" horiz-adv-x="0" 
 />
    <glyph glyph-name="uni000D" unicode="&#xd;" horiz-adv-x="0" 
 />
    <glyph glyph-name="space" unicode=" " horiz-adv-x="416" 
 />
    <glyph glyph-name="exclam" unicode="!" horiz-adv-x="645" 
d="M225 506q-26 89 -59 236t-33 333v271h381v-271q0 -189 -33 -332t-59 -237h-197zM326 -18q-100 0 -160 59t-60 143q0 95 60 150t160 55q98 0 156.5 -55t58.5 -150q0 -84 -58.5 -143t-156.5 -59z" />
    <glyph glyph-name="quotedbl" unicode="&#x22;" horiz-adv-x="974" 
d="M602 778q-22 95 -34.5 183.5t-12.5 195.5v189h313v-189q0 -109 -14.5 -195t-34.5 -184h-217zM152 778q-22 95 -34 183.5t-12 195.5v189h308v-189q0 -109 -12 -195t-33 -184h-217z" />
    <glyph glyph-name="numbersign" unicode="#" horiz-adv-x="1223" 
d="M205 0l47 344h-205v223h238l26 189h-205v225h238l47 334h244l-43 -334h131l47 334h248l-47 -334h205v-225h-238l-25 -189h203v-223h-233l-47 -344h-248l47 344h-135l-47 -344h-248zM532 567h136l22 189h-131z" />
    <glyph glyph-name="dollar" unicode="$" 
d="M600 -18q-153 0 -276 43t-195 136.5t-72 246.5h355q4 -59 26.5 -93.5t63.5 -48.5t100 -14q58 0 96.5 12.5t58 39t19.5 67.5q0 33 -15.5 59t-65 51t-152.5 54v-3q-136 37 -240 88.5t-162.5 133t-58.5 207.5q0 135 68 216.5t182 118.5t252 37t254.5 -40.5t187 -125.5
t70.5 -221h-355q3 63 -36.5 96t-120.5 33q-74 0 -114 -22.5t-40 -75.5q0 -44 46 -76t161 -63v6q91 -26 178.5 -58t158.5 -81t113.5 -125.5t42.5 -192.5q0 -153 -70.5 -241.5t-190.5 -126t-269 -37.5zM524 -217v1745h140v-1745h-140z" />
    <glyph glyph-name="percent" unicode="%" horiz-adv-x="1792" 
d="M371 0l798 1315h250l-801 -1315h-247zM401 516q-91 0 -163.5 36t-115 125.5t-42.5 248.5q0 156 42.5 244t115 124.5t163.5 36.5q94 0 167.5 -37t116 -125.5t42.5 -244.5q0 -158 -43 -247t-116.5 -125t-166.5 -36zM401 715q30 0 50 22.5t30.5 68.5t10.5 118
q0 73 -10.5 119.5t-30.5 69t-50 22.5q-28 0 -47.5 -22.5t-29 -69t-9.5 -119.5q0 -72 9.5 -118t29 -68.5t47.5 -22.5zM1391 -10q-92 0 -165 36.5t-115 125.5t-42 245q0 158 42 247t115 125t165 36q93 0 166 -36.5t115 -126t42 -247.5q0 -156 -43 -244t-116 -124.5t-164 -36.5
zM1391 186q30 0 50 22.5t30 69t10 117.5q0 73 -10 119.5t-30 69t-50 22.5t-49.5 -22.5t-29 -69t-9.5 -119.5q0 -71 9.5 -117.5t29 -69t49.5 -22.5z" />
    <glyph glyph-name="ampersand" unicode="&#x26;" horiz-adv-x="1415" 
d="M580 -14q-137 0 -254 42t-187.5 130t-70.5 225q0 131 60.5 214.5t160 138.5t217.5 100h31q59 26 107 55.5t76 65.5t28 79q0 34 -20.5 55t-63.5 21t-68 -22t-25 -60q0 -37 22 -80.5t91 -120.5l748 -829h-437l-575 645q-83 94 -138 188.5t-55 204.5q0 93 48 166.5
t145.5 116.5t243.5 43q135 0 222.5 -41.5t130 -113t42.5 -162.5q0 -102 -45 -173t-115 -119.5t-145 -86.5l-29 6q-101 -49 -165.5 -91t-95 -84t-30.5 -93q0 -63 48 -99.5t136 -36.5q86 0 150.5 32t105.5 69q59 50 98.5 126t39.5 197h356q0 -139 -38.5 -235t-106.5 -161.5
t-158 -115.5q-91 -104 -205 -150t-280 -46z" />
    <glyph glyph-name="quotesingle" unicode="'" horiz-adv-x="524" 
d="M152 780q-22 95 -34 183.5t-12 195.5v187h312v-187q0 -109 -14 -195t-35 -184h-217z" />
    <glyph glyph-name="parenleft" unicode="(" horiz-adv-x="786" 
d="M397 -346q-72 149 -123.5 277t-78.5 259.5t-27 288.5q0 171 23.5 308.5t74.5 271.5t131 295h318q-94 -203 -148.5 -421.5t-54.5 -440.5q0 -224 56 -434t147 -404h-318z" />
    <glyph glyph-name="parenright" unicode=")" horiz-adv-x="786" 
d="M71 -346q91 203 144.5 423.5t53.5 444.5q0 221 -53.5 429t-144.5 403h313q74 -148 125 -276t77.5 -257.5t26.5 -285.5q0 -172 -23.5 -311t-74 -273.5t-131.5 -296.5h-313z" />
    <glyph glyph-name="asterisk" unicode="*" horiz-adv-x="987" 
d="M330 539l-193 110l180 250l-280 70l76 223l262 -86v258h237v-258l267 86l71 -223l-276 -70l186 -250l-192 -110l-176 241z" />
    <glyph glyph-name="plus" unicode="+" 
d="M86 807h1016v-283h-1016v283zM451 156v1020h284v-1020h-284z" />
    <glyph glyph-name="comma" unicode="," horiz-adv-x="645" 
d="M152 -344l-31 170q83 18 127 58t53 116l25 -18q-100 0 -160 59t-60 143q0 95 60 150t160 55q98 0 155.5 -67.5t57.5 -198.5q0 -153 -60.5 -256.5t-150 -156t-176.5 -54.5z" />
    <glyph glyph-name="hyphen" unicode="-" horiz-adv-x="782" 
d="M84 356v310h614v-310h-614z" />
    <glyph glyph-name="period" unicode="." horiz-adv-x="645" 
d="M326 -18q-100 0 -160 59t-60 143q0 95 60 150t160 55q98 0 155.5 -55t57.5 -150q0 -84 -57.5 -143t-155.5 -59z" />
    <glyph glyph-name="slash" unicode="/" horiz-adv-x="842" 
d="M18 0l490 1346h315l-489 -1346h-316z" />
    <glyph glyph-name="zero" unicode="0" 
d="M594 -18q-111 0 -205 36t-163.5 115t-107.5 208.5t-38 315.5t38 315t107.5 208t163.5 115t205 36t204.5 -36t163 -115t108 -208t38.5 -315t-38.5 -315.5t-108 -208.5t-163 -115t-204.5 -36zM594 305q33 0 58 23t41.5 67.5t25 110t8.5 151.5q0 87 -8.5 152.5t-25 110
t-41.5 66.5t-58 22t-58 -22t-41.5 -66.5t-25 -110t-8.5 -152.5q0 -86 8.5 -151.5t25 -110t41.5 -67.5t58 -23z" />
    <glyph glyph-name="one" unicode="1" 
d="M510 0v897q-37 -37 -80.5 -69.5t-108 -56.5t-163.5 -38v342q102 28 168.5 58.5t116.5 74t102 107.5h360v-1315h-395z" />
    <glyph glyph-name="two" unicode="2" 
d="M74 0v242l553 473q53 46 79.5 88t26.5 100q0 60 -35 89.5t-100 29.5q-86 0 -127 -49.5t-41 -136.5h-342q0 167 65 276t180 163t265 54q146 0 260 -45.5t180 -137t66 -228.5q0 -117 -46 -198t-117 -143t-146 -122l-181 -144h494v-311h-1034z" />
    <glyph glyph-name="three" unicode="3" 
d="M596 -16q-262 0 -394 114t-132 332h342q0 -72 53 -109.5t131 -37.5q72 0 113 34t41 103q0 62 -45.5 94.5t-131.5 32.5h-100v276h113q86 0 121.5 31t35.5 80q0 44 -35 71t-110 27q-72 0 -111 -29.5t-41 -89.5h-342q0 146 68 237.5t180.5 135t245.5 43.5q126 0 237.5 -36.5
t181.5 -115t70 -204.5q0 -114 -59 -185.5t-164 -97.5q110 -23 183 -97.5t73 -209.5q0 -125 -63 -214.5t-180.5 -137t-280.5 -47.5z" />
    <glyph glyph-name="four" unicode="4" 
d="M596 0v215h-555v307l559 791h367v-801h168v-297h-168v-215h-371zM375 512h231v336z" />
    <glyph glyph-name="five" unicode="5" 
d="M598 -18q-147 0 -268 44t-192.5 140.5t-71.5 255.5h368q0 -69 47.5 -105t116.5 -36q60 0 105 39.5t45 142.5q0 98 -47.5 136t-110.5 38q-57 0 -92 -23.5t-54 -48.5h-333l57 750h862v-309h-557l-10 -170q32 26 87.5 42.5t131.5 16.5q111 0 210.5 -40.5t162.5 -134.5
t63 -257q0 -176 -70.5 -281.5t-188.5 -152.5t-261 -47z" />
    <glyph glyph-name="six" unicode="6" 
d="M627 -18q-160 0 -284.5 70t-195.5 221t-71 393q0 228 71.5 375t195.5 218.5t280 71.5q221 0 338.5 -108t140.5 -293h-344q-14 50 -46.5 76t-88.5 26q-95 0 -138 -96t-43 -287v-71q0 -102 23.5 -168t65.5 -97.5t96 -31.5q78 0 117.5 40.5t39.5 106.5q0 62 -39 94.5
t-116 32.5q-92 0 -159 -38t-105 -109l-15 256q48 54 96.5 95.5t114.5 65t164 23.5q112 0 203 -47.5t145.5 -140.5t54.5 -232q0 -135 -57.5 -235.5t-169 -155.5t-274.5 -55z" />
    <glyph glyph-name="seven" unicode="7" 
d="M174 0l541 983h-637v332h1014v-295l-517 -1020h-401z" />
    <glyph glyph-name="eight" unicode="8" 
d="M596 -18q-93 0 -186 21t-170 68t-123.5 124t-46.5 188q0 123 68.5 196t185.5 107q-88 32 -143.5 104.5t-55.5 184.5q0 131 65 209.5t172 113.5t234 35t234 -35.5t172 -114t65 -208.5q0 -111 -58 -186t-135 -103q116 -34 181 -107.5t65 -195.5q0 -111 -46 -188
t-122.5 -124t-169 -68t-186.5 -21zM594 272q36 0 70.5 15.5t56.5 47.5t22 79q0 44 -19 74t-52 45.5t-76 15.5q-39 0 -74.5 -15.5t-57.5 -45.5t-22 -74q0 -71 47.5 -106.5t104.5 -35.5zM596 821q40 0 71.5 14.5t49.5 42t18 66.5q0 62 -42.5 91.5t-96.5 29.5q-37 0 -69 -13
t-52 -40t-20 -68q0 -39 17.5 -66.5t49.5 -42t74 -14.5z" />
    <glyph glyph-name="nine" unicode="9" 
d="M561 -18q-148 0 -250 48.5t-160 137.5t-75 211h346q14 -52 49 -75t90 -23q98 0 145.5 76.5t47.5 258.5v138q0 107 -22.5 167.5t-62 85.5t-91.5 25q-74 0 -116 -39t-42 -104q0 -61 39.5 -95t97.5 -34q59 0 106.5 15.5t90 44.5t84.5 69l10 -258q-36 -33 -82.5 -70.5
t-116 -63.5t-174.5 -26q-112 0 -202.5 47.5t-143.5 141.5t-53 231q0 128 59 227.5t171.5 156t273.5 56.5q155 0 277 -67.5t192.5 -211.5t70.5 -376q0 -249 -72.5 -402t-198.5 -222.5t-288 -69.5z" />
    <glyph glyph-name="colon" unicode=":" horiz-adv-x="645" 
d="M326 -18q-100 0 -160 59t-60 143q0 95 60 150t160 55q98 0 155.5 -55t57.5 -150q0 -84 -57.5 -143t-155.5 -59zM326 572q-100 0 -160 59t-60 143q0 95 60 150t160 55q98 0 155.5 -55t57.5 -150q0 -84 -57.5 -143t-155.5 -59z" />
    <glyph glyph-name="semicolon" unicode=";" horiz-adv-x="645" 
d="M152 -344l-31 170q83 18 127 58t53 116l25 -18q-100 0 -160 59t-60 143q0 95 60 150t160 55q98 0 155.5 -67.5t57.5 -198.5q0 -153 -60.5 -256.5t-150 -156t-176.5 -54.5zM326 572q-100 0 -160 59t-60 143q0 95 60 150t160 55q98 0 155.5 -55t57.5 -150q0 -84 -57.5 -143
t-155.5 -59z" />
    <glyph glyph-name="less" unicode="&#x3c;" 
d="M84 844l1016 354v-280l-1016 -326v252zM84 487v254l1016 -350v-282z" />
    <glyph glyph-name="equal" unicode="=" 
d="M86 289v284h1016v-284h-1016zM86 762v280h1016v-280h-1016z" />
    <glyph glyph-name="greater" unicode="&#x3e;" 
d="M1102 844v-252l-1016 326v280zM1102 487l-1016 -378v282l1016 350v-254z" />
    <glyph glyph-name="question" unicode="?" horiz-adv-x="1081" 
d="M339 506q-2 18 -3.5 36t-1.5 36q0 90 34.5 146t112.5 103q88 53 119 85t31 73q0 38 -23 58t-69 20q-63 0 -88 -29.5t-27 -77.5h-383q0 131 58.5 221t170 136.5t269.5 46.5q149 0 261.5 -43t176 -126.5t63.5 -205.5q0 -79 -24 -138.5t-72 -105t-119 -82.5
q-53 -27 -81.5 -49t-41.5 -46t-18 -58h-345zM514 -18q-100 0 -159.5 59t-59.5 143q0 95 59.5 150t159.5 55q98 0 157.5 -55t59.5 -150q0 -84 -59.5 -143t-157.5 -59z" />
    <glyph glyph-name="at" unicode="@" horiz-adv-x="1852" 
d="M946 -215q-257 0 -452.5 86.5t-305.5 262t-110 441.5q0 185 62 331t176 248t272 156t350 54q229 0 388.5 -64.5t258 -171.5t144 -236.5t45.5 -260.5q0 -132 -43.5 -237.5t-131 -167.5t-221.5 -62q-113 0 -189.5 34.5t-107.5 106.5q-34 -64 -99.5 -102.5t-154.5 -38.5
q-97 0 -179 47.5t-131.5 137.5t-49.5 218q0 130 49 219t131 135t180 46q85 0 140 -25.5t86 -62.5l12 73h289v-428q0 -53 19.5 -74.5t47.5 -21.5q31 0 52.5 23.5t33 67t11.5 102.5q0 147 -61.5 257.5t-189.5 172t-329 61.5q-189 0 -325 -63t-208.5 -182.5t-72.5 -291.5
q0 -193 73 -311.5t208 -172.5t319 -54q113 0 217 16.5t176 48.5v-260q-76 -28 -173.5 -42.5t-205.5 -14.5zM924 418q44 0 67 23.5t31 58t8 67.5q0 32 -8 65t-31 55t-67 22t-67.5 -22t-32.5 -55t-9 -65q0 -33 9 -67.5t32.5 -58t67.5 -23.5z" />
    <glyph glyph-name="A" unicode="A" horiz-adv-x="1303" 
d="M-20 0l462 1346h412l469 -1346h-410l-59 205h-408l-59 -205h-407zM524 512h246l-123 446z" />
    <glyph glyph-name="B" unicode="B" horiz-adv-x="1282" 
d="M133 0v1346h504q233 0 367.5 -80.5t134.5 -255.5q0 -108 -57.5 -179t-149.5 -106q151 -34 220 -118.5t69 -207.5q0 -142 -69.5 -230t-190.5 -128.5t-277 -40.5h-551zM526 293h144q47 0 82 14.5t54 43.5t19 73q0 63 -41 89t-116 26h-142v-246zM526 831h105q46 0 79 29.5
t33 87.5q0 40 -17 63t-42.5 32.5t-52.5 9.5h-105v-222z" />
    <glyph glyph-name="C" unicode="C" horiz-adv-x="1458" 
d="M748 -18q-198 0 -349 82.5t-236 237t-85 370.5q0 217 85 372t236 237.5t349 82.5q179 0 323.5 -61.5t230.5 -177t87 -277.5h-406q-9 60 -38 101.5t-78 63t-119 21.5q-97 0 -156 -48.5t-85 -130.5t-26 -183t26 -183t85 -130t156 -48q112 0 169.5 59.5t63.5 159.5h405
q-8 -170 -81 -293t-211.5 -189t-345.5 -66z" />
    <glyph glyph-name="D" unicode="D" horiz-adv-x="1475" 
d="M133 0v1346h557q220 0 378.5 -76t243.5 -225.5t85 -370.5q0 -229 -86.5 -378.5t-245 -222.5t-375.5 -73h-557zM526 326h133q110 0 184 34.5t111 111t37 202.5q0 121 -43.5 197t-118.5 112.5t-170 36.5h-133v-694z" />
    <glyph glyph-name="E" unicode="E" horiz-adv-x="1190" 
d="M133 0v1346h954v-324h-561v-188h496v-312h-496v-198h561v-324h-954z" />
    <glyph glyph-name="F" unicode="F" horiz-adv-x="1106" 
d="M133 0v1346h928v-324h-535v-188h473v-312h-473v-522h-393z" />
    <glyph glyph-name="G" unicode="G" horiz-adv-x="1467" 
d="M758 -18q-203 0 -356 81.5t-238.5 236t-85.5 372.5q0 219 85.5 373.5t238.5 236.5t356 82q114 0 222 -28t196 -87.5t143 -153t63 -223.5h-405q-8 50 -35.5 86t-75.5 56t-118 20q-97 0 -156 -48t-85 -129.5t-26 -184.5q0 -102 26.5 -185t87.5 -131.5t163 -48.5
q71 0 120 20t78.5 55.5t40.5 82.5h-266v299h658v-154q0 -191 -71.5 -332.5t-212 -218.5t-347.5 -77z" />
    <glyph glyph-name="H" unicode="H" horiz-adv-x="1526" 
d="M133 0v1346h393v-484h471v484h396v-1346h-396v514h-471v-514h-393z" />
    <glyph glyph-name="I" unicode="I" horiz-adv-x="659" 
d="M133 0v1346h393v-1346h-393z" />
    <glyph glyph-name="J" unicode="J" horiz-adv-x="810" 
d="M20 -10v336h132q63 0 109 41t46 145v834h383v-836q0 -176 -56.5 -291.5t-169.5 -172t-284 -56.5h-160z" />
    <glyph glyph-name="K" unicode="K" horiz-adv-x="1376" 
d="M133 0v1346h393v-637l406 637h428l-432 -627l448 -719h-438l-412 688v-688h-393z" />
    <glyph glyph-name="L" unicode="L" horiz-adv-x="1051" 
d="M133 0v1346h393v-1022h500v-324h-893z" />
    <glyph glyph-name="M" unicode="M" horiz-adv-x="1730" 
d="M133 0v1346h463l350 -625h-137l340 625h448v-1346h-385v1196h174l-405 -778h-233l-410 778h172v-1196h-377z" />
    <glyph glyph-name="N" unicode="N" horiz-adv-x="1499" 
d="M133 0v1346h379l485 -736v736h369v-1346h-377l-489 745v-745h-367z" />
    <glyph glyph-name="O" unicode="O" horiz-adv-x="1497" 
d="M748 -18q-210 0 -360 82.5t-230 237t-80 370.5q0 217 80 372t230 237.5t360 82.5q211 0 361 -82.5t230 -237.5t80 -372q0 -216 -80 -370.5t-230 -237t-361 -82.5zM748 311q97 0 156 50t85.5 132.5t26.5 178.5q0 97 -26.5 179.5t-85.5 132.5t-156 50t-156 -48.5
t-85 -130.5t-26 -183q0 -102 26 -184t85 -129.5t156 -47.5z" />
    <glyph glyph-name="P" unicode="P" horiz-adv-x="1280" 
d="M133 0v1346h576q141 0 261 -46t192.5 -146.5t72.5 -264.5q0 -167 -72.5 -270t-192.5 -150t-261 -47h-183v-422h-393zM526 731h146q71 0 115 41t44 117q0 72 -46.5 107.5t-112.5 35.5h-146v-301z" />
    <glyph glyph-name="Q" unicode="Q" horiz-adv-x="1497" 
d="M1335 -354q-172 0 -285.5 27.5t-187 76t-122.5 112.5t-91 136l252 190q35 -55 67.5 -95t77.5 -65.5t117 -38t187 -12.5h53v-331h-68zM748 -18q-210 0 -360 82.5t-230 237t-80 370.5q0 217 80 372t230 237.5t360 82.5q211 0 361 -82.5t230 -237.5t80 -372
q0 -216 -80 -370.5t-230 -237t-361 -82.5zM748 311q97 0 156 50t85.5 132.5t26.5 178.5q0 97 -26.5 179.5t-85.5 132.5t-156 50t-156 -48.5t-85 -130.5t-26 -183q0 -102 26 -184t85 -129.5t156 -47.5z" />
    <glyph glyph-name="R" unicode="R" horiz-adv-x="1333" 
d="M133 0v1346h586q149 0 263.5 -35.5t179.5 -119.5t65 -230q0 -127 -72 -215.5t-201 -133.5q100 -15 153 -54.5t82 -105.5t56 -159l88 -293h-401l-53 207q-26 98 -50.5 152t-66 75t-117.5 21h-119v-455h-393zM526 764h131q54 0 90 17.5t54 49.5t18 76q0 71 -40 100t-87 29
h-166v-272z" />
    <glyph glyph-name="S" unicode="S" horiz-adv-x="1272" 
d="M635 -18q-162 0 -291 44.5t-204.5 142t-78.5 257.5h406q4 -49 24 -78t57 -42t91 -13q56 0 91.5 9.5t53 28.5t17.5 46q0 28 -18 49t-71.5 44.5t-162.5 57.5q-125 40 -231 89t-170 131t-64 219q0 149 74 235t197.5 123t271.5 37q152 0 276 -42t197.5 -132t73.5 -234h-406
q0 53 -38 81t-103 28q-58 0 -96.5 -18t-38.5 -50q0 -21 18 -39.5t77 -42.5t181 -63q150 -47 248 -99.5t146 -134t48 -217.5q0 -154 -78 -245.5t-208.5 -131.5t-288.5 -40z" />
    <glyph glyph-name="T" unicode="T" horiz-adv-x="1087" 
d="M348 0v1022h-334v324h1059v-324h-332v-1022h-393z" />
    <glyph glyph-name="U" unicode="U" horiz-adv-x="1483" 
d="M740 -20q-215 0 -352 61.5t-202.5 192.5t-65.5 339v773h405v-762q0 -140 53 -207.5t166 -67.5t163 67.5t50 207.5v762h406v-773q0 -208 -66 -339t-204 -192.5t-353 -61.5z" />
    <glyph glyph-name="V" unicode="V" horiz-adv-x="1298" 
d="M408 0l-428 1346h421l244 -930l248 930h426l-445 -1346h-466z" />
    <glyph glyph-name="W" unicode="W" horiz-adv-x="1991" 
d="M395 0l-405 1346h403l203 -869l213 869h373l211 -869l202 869h406l-412 -1346h-407l-191 858l-188 -858h-408z" />
    <glyph glyph-name="X" unicode="X" horiz-adv-x="1311" 
d="M-14 0l456 711l-415 635h458l170 -345l185 345h442l-408 -635l451 -711h-471l-199 383l-223 -383h-446z" />
    <glyph glyph-name="Y" unicode="Y" horiz-adv-x="1264" 
d="M430 0v467l-450 879h440l211 -512l213 512h440l-448 -879v-467h-406z" />
    <glyph glyph-name="Z" unicode="Z" horiz-adv-x="1167" 
d="M45 0v309l524 711h-469v326h971v-289l-541 -731h592v-326h-1077z" />
    <glyph glyph-name="bracketleft" unicode="[" horiz-adv-x="786" 
d="M104 -360v1714h611v-314h-266v-1085h266v-315h-611z" />
    <glyph glyph-name="backslash" unicode="\" horiz-adv-x="842" 
d="M509 0l-490 1346h316l489 -1346h-315z" />
    <glyph glyph-name="bracketright" unicode="]" horiz-adv-x="786" 
d="M71 -360v315h262v1085h-262v314h606v-1714h-606z" />
    <glyph glyph-name="asciicircum" unicode="^" horiz-adv-x="1075" 
d="M57 780l338 566h285l338 -566h-307l-174 310l-170 -310h-310z" />
    <glyph glyph-name="underscore" unicode="_" horiz-adv-x="942" 
d="M0 -236v95h942v-95h-942z" />
    <glyph glyph-name="grave" unicode="`" horiz-adv-x="1130" 
d="M479 1102l-307 284h387l189 -284h-269z" />
    <glyph glyph-name="a" unicode="a" horiz-adv-x="1158" 
d="M395 -16q-79 0 -154.5 32t-124 99t-48.5 170q0 139 79 208t219.5 94t325.5 31v33q0 60 -28 82.5t-74 22.5q-55 0 -85 -22.5t-30 -76.5h-344q0 126 57 199t160.5 104t241.5 31q114 0 200.5 -17.5t145 -57t88 -102.5t29.5 -155v-659h-348l-11 106q-57 -59 -127.5 -90.5
t-171.5 -31.5zM522 227q59 0 100.5 26t63.5 54v125q-148 -3 -198 -31.5t-50 -87.5q0 -43 23.5 -64.5t60.5 -21.5z" />
    <glyph glyph-name="b" unicode="b" horiz-adv-x="1238" 
d="M754 -18q-88 0 -155 35.5t-130 111.5l-10 -129h-348v1346h372v-494q53 68 124 104.5t169 36.5q117 0 206 -54.5t139 -166.5t50 -287q0 -172 -54.5 -283.5t-148.5 -165.5t-214 -54zM649 258q68 0 109 56.5t41 177.5q0 124 -40.5 176.5t-109.5 52.5q-64 0 -108 -42.5
t-58 -80.5v-223q22 -40 62.5 -78.5t103.5 -38.5z" />
    <glyph glyph-name="c" unicode="c" horiz-adv-x="1159" 
d="M596 -18q-162 0 -280.5 58t-183 169t-64.5 270q0 163 65.5 278t184 175.5t278.5 60.5q147 0 256 -45t169.5 -134t59.5 -222h-360q0 53 -30 87t-95 34q-91 0 -124.5 -60t-33.5 -174q0 -70 14.5 -119t49 -74.5t94.5 -25.5q68 0 102.5 40.5t34.5 111.5h359
q-3 -136 -61.5 -232.5t-168 -147t-266.5 -50.5z" />
    <glyph glyph-name="d" unicode="d" horiz-adv-x="1239" 
d="M463 -16q-123 0 -211.5 54.5t-136 166.5t-47.5 284q0 170 51.5 282.5t145 168t218.5 55.5q105 0 170.5 -40t102.5 -97v488h372v-1346h-360l-14 135q-52 -72 -119.5 -111.5t-171.5 -39.5zM588 256q68 0 111 42.5t57 82.5v223q-19 40 -62.5 78.5t-105.5 38.5
q-64 0 -106 -59t-42 -179q0 -123 41 -175t107 -52z" />
    <glyph glyph-name="e" unicode="e" horiz-adv-x="1183" 
d="M604 -18q-154 0 -275.5 54t-191 168t-69.5 292q0 161 68 271t187.5 167t272.5 57q238 0 379 -132.5t141 -387.5q0 -10 -1 -26t-3 -27h-674q2 -49 19 -92t54.5 -69t98.5 -26q66 0 109.5 23.5t46.5 77.5h346q-8 -127 -73.5 -204t-177 -111.5t-257.5 -34.5zM446 618h302
q-5 74 -50 106t-102 32q-58 0 -100.5 -35.5t-49.5 -102.5z" />
    <glyph glyph-name="f" unicode="f" horiz-adv-x="764" 
d="M172 0v696h-160v283h160v8q0 106 23 176t76 110t143.5 56.5t226.5 16.5h92v-259h-86q-61 0 -81.5 -19.5t-20.5 -82.5v-6h190v-283h-190v-696h-373z" />
    <glyph glyph-name="g" unicode="g" horiz-adv-x="1108" 
d="M555 -377q-193 0 -305.5 35.5t-160.5 92t-48 118.5q0 85 85.5 145t279.5 82l57 137h162q238 0 352.5 -71t114.5 -215q0 -149 -139.5 -236.5t-397.5 -87.5zM551 -162q100 0 140 22t40 54q0 22 -14.5 35.5t-42.5 20.5t-68 7h-190q-22 -13 -32.5 -29.5t-10.5 -35.5
q0 -23 35.5 -48.5t142.5 -25.5zM418 -20q-118 14 -194 45.5t-113 75.5t-37 94q0 68 52.5 111t152.5 81l153 -47q-25 -6 -58.5 -20.5t-33.5 -40.5q0 -19 26 -29t92.5 -13.5t188.5 -3.5zM530 307q-146 0 -248.5 47.5t-156 125.5t-53.5 169q0 96 54 174.5t158 125t253 46.5
q154 0 255.5 -46.5t152 -125t50.5 -174.5q0 -93 -51.5 -170.5t-155 -124.5t-258.5 -47zM539 516q49 0 80.5 33.5t31.5 99.5q0 69 -31.5 103t-80.5 34q-51 0 -85 -34t-34 -103q0 -66 34 -99.5t85 -33.5zM838 801l-90 139q35 116 129.5 158.5t214.5 42.5v-252
q-85 0 -156.5 -14.5t-97.5 -73.5z" />
    <glyph glyph-name="h" unicode="h" horiz-adv-x="1229" 
d="M111 0v1346h364v-508q53 66 128 110.5t198 44.5q146 0 234.5 -83.5t88.5 -266.5v-643h-372v598q0 34 -12 57t-34.5 35t-54.5 12q-46 0 -86.5 -23t-81.5 -71v-608h-372z" />
    <glyph glyph-name="i" unicode="i" horiz-adv-x="596" 
d="M111 0v979h372v-979h-372zM297 1047q-101 0 -150 46.5t-49 116.5q0 73 49 118.5t150 45.5t150 -45.5t49 -118.5q0 -70 -49 -116.5t-150 -46.5z" />
    <glyph glyph-name="j" unicode="j" horiz-adv-x="596" 
d="M-72 -358v288h74q56 0 82.5 28.5t26.5 82.5v938h372v-911q0 -205 -108 -315.5t-328 -110.5h-119zM299 1047q-101 0 -151 46.5t-50 116.5q0 73 50 118.5t151 45.5t149 -45.5t48 -118.5q0 -70 -48 -116.5t-149 -46.5z" />
    <glyph glyph-name="k" unicode="k" horiz-adv-x="1202" 
d="M111 0v1346h372v-807l316 440h389l-326 -442l340 -537h-405l-314 524v-524h-372z" />
    <glyph glyph-name="l" unicode="l" horiz-adv-x="688" 
d="M582 0q-181 0 -283 33t-143 113t-41 221v979h370v-955q0 -61 19 -83.5t82 -22.5h78v-285h-82z" />
    <glyph glyph-name="m" unicode="m" horiz-adv-x="1829" 
d="M111 0v979h360l4 -141q51 66 124.5 110.5t193.5 44.5q140 0 225.5 -85t85.5 -265v-643h-373v598q0 34 -10 57t-29.5 35t-48.5 12q-43 0 -84 -23.5t-76 -70.5v-608h-372zM1352 0v598q0 34 -10 57t-29.5 35t-48.5 12q-43 0 -84 -23.5t-76 -70.5l-37 215q72 77 149 123.5
t197 46.5q140 0 225.5 -85t85.5 -265v-643h-372z" />
    <glyph glyph-name="n" unicode="n" horiz-adv-x="1229" 
d="M111 0v979h360l4 -141q53 66 128.5 110.5t199.5 44.5q144 0 232.5 -85t88.5 -265v-643h-372v598q0 34 -11.5 57t-33.5 35t-54 12q-46 0 -88.5 -23.5t-81.5 -70.5v-608h-372z" />
    <glyph glyph-name="o" unicode="o" horiz-adv-x="1204" 
d="M604 -20q-155 0 -276.5 57.5t-190.5 170.5t-69 277q0 167 69 281.5t190.5 173.5t276.5 59q153 0 273.5 -59t190 -173.5t69.5 -281.5q0 -164 -69.5 -277t-190 -170.5t-273.5 -57.5zM604 260q64 0 98.5 32.5t48 84t13.5 108.5q0 59 -13.5 112.5t-48 87.5t-98.5 34
q-65 0 -101.5 -34t-50.5 -87.5t-14 -112.5q0 -57 14 -108.5t50.5 -84t101.5 -32.5z" />
    <glyph glyph-name="p" unicode="p" horiz-adv-x="1238" 
d="M111 -358v1337h348l24 -127q53 68 124 104.5t169 36.5q118 0 207 -55t138.5 -167.5t49.5 -285.5q0 -169 -55 -280.5t-149 -167t-213 -55.5q-88 0 -154.5 35.5t-116.5 95.5v-471h-372zM649 258q68 0 109 56.5t41 177.5q0 124 -40.5 176.5t-109.5 52.5q-64 0 -108 -42.5
t-58 -80.5v-223q22 -40 62.5 -78.5t103.5 -38.5z" />
    <glyph glyph-name="q" unicode="q" horiz-adv-x="1237" 
d="M754 -358v493q-52 -72 -119.5 -111.5t-171.5 -39.5q-123 0 -211.5 54.5t-136 166.5t-47.5 284q0 170 51.5 282.5t145 168t218.5 55.5q105 0 169.5 -40t101.5 -97l10 121h362v-1337h-372zM588 256q68 0 111 42.5t57 82.5v223q-19 40 -62.5 78.5t-105.5 38.5
q-64 0 -106 -59t-42 -179q0 -123 41 -175t107 -52z" />
    <glyph glyph-name="r" unicode="r" horiz-adv-x="823" 
d="M111 0v979h362l4 -172q34 100 112.5 143t178.5 43h18v-301h-24q-45 0 -97.5 -7t-101 -29t-80.5 -68v-588h-372z" />
    <glyph glyph-name="s" unicode="s" horiz-adv-x="1083" 
d="M535 -20q-90 0 -173 12.5t-148.5 46t-103.5 95t-38 159.5h338q0 -46 34.5 -62t87.5 -16q51 0 85 12.5t34 44.5q0 34 -41 53t-170 48q-95 21 -178 57t-134.5 99.5t-51.5 164.5q0 92 40 150.5t106 90.5t145.5 45t158.5 13q85 0 165 -14t143.5 -48t101 -93t37.5 -148h-338
q0 38 -30 56t-75 18q-46 0 -72 -10.5t-26 -32.5q0 -13 17 -27t70.5 -32.5t160.5 -45.5q103 -25 177 -58.5t114.5 -91t40.5 -157.5q0 -90 -38.5 -152.5t-105 -101.5t-152.5 -57t-181 -18z" />
    <glyph glyph-name="t" unicode="t" horiz-adv-x="793" 
d="M641 0q-181 0 -283 33t-144 113t-42 221v329h-160v283h160v240h373v-240h186v-283h-186v-305q0 -61 20.5 -83.5t81.5 -22.5h80v-285h-86z" />
    <glyph glyph-name="u" unicode="u" horiz-adv-x="1230" 
d="M427 -14q-145 0 -233.5 85t-88.5 265v643h373v-598q0 -34 11.5 -57.5t33.5 -35.5t53 -12q47 0 89.5 24.5t80.5 70.5v608h373v-979h-360l-4 141q-52 -66 -127.5 -110.5t-200.5 -44.5z" />
    <glyph glyph-name="v" unicode="v" horiz-adv-x="1065" 
d="M313 0l-333 979h385l167 -641l177 641h376l-340 -979h-432z" />
    <glyph glyph-name="w" unicode="w" horiz-adv-x="1651" 
d="M299 0l-303 979h373l143 -584l137 584h381l141 -582l138 582h346l-303 -979h-375l-150 602l-155 -602h-373z" />
    <glyph glyph-name="x" unicode="x" horiz-adv-x="1133" 
d="M-4 0l414 600l137 59l164 320h399l-367 -563l-145 -58l-205 -358h-397zM737 0l-202 358l-125 52l-379 569h397l170 -317l119 -64l420 -598h-400z" />
    <glyph glyph-name="y" unicode="y" horiz-adv-x="1065" 
d="M102 -358v299h97q72 0 113.5 11.5t47.5 33.5l5 14l-385 979h385l188 -637l156 637h376l-333 -979l-35 -98q-31 -87 -79.5 -144.5t-140 -86.5t-253.5 -29h-142z" />
    <glyph glyph-name="z" unicode="z" horiz-adv-x="983" 
d="M61 0v262l381 436h-342v281h785v-258l-381 -438h418v-283h-861z" />
    <glyph glyph-name="braceleft" unicode="{" horiz-adv-x="786" 
d="M500 -362q-85 0 -156 32.5t-113.5 106.5t-42.5 198v254q0 56 -27 82.5t-69 34.5t-88 8v283q46 0 88 11t69 34.5t27 58.5v291q0 126 42.5 196t113.5 98t156 28h215v-256h-88q-51 0 -73 -34.5t-22 -80.5v-252q0 -65 -18 -110.5t-58 -72.5t-108 -38q68 -15 108 -53t58 -88.5
t18 -106.5v-252q0 -46 22 -80t73 -34h88v-258h-215z" />
    <glyph glyph-name="bar" unicode="|" horiz-adv-x="590" 
d="M152 -358v1704h286v-1704h-286z" />
    <glyph glyph-name="braceright" unicode="}" horiz-adv-x="786" 
d="M71 -362v258h86q49 0 70.5 34t21.5 80v252q0 56 18 106.5t59.5 88.5t110.5 53q-69 11 -110.5 38t-59.5 72.5t-18 110.5v252q0 46 -21.5 80.5t-70.5 34.5h-86v256h215q83 0 153.5 -28t113 -98t42.5 -196v-291q0 -35 26.5 -58.5t69 -34.5t90.5 -11v-283q-48 0 -90.5 -8
t-69 -34.5t-26.5 -82.5v-254q0 -124 -42.5 -198t-113 -106.5t-153.5 -32.5h-215z" />
    <glyph glyph-name="asciitilde" unicode="~" 
d="M813 481q-61 0 -108.5 13.5t-124.5 48.5q-61 29 -90.5 40t-49.5 11q-29 0 -42.5 -21.5t-16.5 -83.5h-295q6 174 81 282t210 108q63 0 112.5 -14t124.5 -48q65 -29 94.5 -41t49.5 -12q23 0 35.5 22.5t15.5 83.5h295q-7 -173 -81.5 -281t-209.5 -108z" />
    <glyph glyph-name="uni00A0" unicode="&#xa0;" horiz-adv-x="416" 
 />
    <glyph glyph-name="exclamdown" unicode="&#xa1;" horiz-adv-x="645" 
d="M131 -369v271q0 188 33 334t59 235h197q26 -92 59 -236t33 -333v-271h-381zM324 588q-100 0 -160 55t-60 150q0 84 60 143t160 59q98 0 156.5 -59t58.5 -143q0 -95 -58.5 -150t-156.5 -55z" />
    <glyph glyph-name="cent" unicode="&#xa2;" 
d="M530 -217v1393h140v-1393h-140zM612 -18q-144 0 -267 54t-198 165t-75 282q0 174 71.5 288.5t194 171t274.5 56.5q139 0 251 -45t178 -134.5t65 -223.5h-340q0 53 -37 87t-117 34q-110 0 -150 -60t-40 -174q0 -106 40 -162.5t150 -56.5q83 0 124.5 41t41.5 111h338
q-3 -137 -67 -234.5t-176 -148.5t-261 -51z" />
    <glyph glyph-name="sterling" unicode="&#xa3;" 
d="M96 0v289q123 25 166 85t43 126q0 50 -26 98.5t-52 89.5q-32 50 -63 120t-31 167q0 163 126 259.5t359 96.5q143 0 255 -41.5t176.5 -136.5t64.5 -256h-340q0 62 -20 94t-55 44t-81 12q-67 0 -98 -26.5t-31 -70.5q0 -41 20.5 -84.5t55.5 -93.5q48 -64 72.5 -127
t24.5 -135q0 -59 -24.5 -108.5t-75 -79t-128.5 -29.5v43h680v-336h-1018zM55 530v158h885v-158h-885z" />
    <glyph glyph-name="currency" unicode="&#xa4;" 
d="M254 137l-180 180l154 152q-22 43 -34 90.5t-12 97.5q0 51 11.5 98t33.5 89l-153 153l180 179l153 -153q42 23 89.5 34.5t97.5 11.5t97.5 -11.5t89.5 -33.5l153 152l178 -179l-151 -152q22 -42 33.5 -89.5t11.5 -98.5t-11.5 -98.5t-34.5 -89.5l152 -152l-178 -180
l-152 152q-43 -22 -90.5 -33.5t-97.5 -11.5t-97.5 12t-90.5 34zM594 496q44 0 81 21.5t59 58t22 81.5q0 44 -22 80.5t-59 58t-81 21.5q-45 0 -81.5 -21.5t-58.5 -58t-22 -80.5q0 -45 22 -81.5t58.5 -58t81.5 -21.5z" />
    <glyph glyph-name="yen" unicode="&#xa5;" 
d="M125 410v155h936v-155h-936zM125 135v160h936v-160h-936zM395 0v457l-407 858h424l180 -506l182 506h424l-407 -858v-457h-396z" />
    <glyph glyph-name="brokenbar" unicode="&#xa6;" horiz-adv-x="590" 
d="M152 301h286v-659h-286v659zM152 1346h286v-660h-286v660z" />
    <glyph glyph-name="section" unicode="&#xa7;" horiz-adv-x="1010" 
d="M489 -20q-73 0 -147 13t-135 46.5t-98 93t-37 152.5h284q0 -61 39 -84t99 -23q61 0 99 18.5t38 59.5q0 44 -44.5 66.5t-154.5 48.5q-60 15 -121.5 33.5t-113.5 48.5t-83.5 78.5t-31.5 123.5q0 113 78 178.5t229 65.5l113 -108q-70 0 -98.5 -20.5t-28.5 -51.5
q0 -52 62 -76.5t181 -52.5q82 -18 155 -45.5t119 -83.5t46 -162q0 -94 -38.5 -156t-103 -98t-144.5 -50.5t-163 -14.5zM580 465l-86 110q66 0 108.5 21t42.5 70q0 43 -48 67.5t-165 46.5q-61 12 -123 30.5t-113.5 49.5t-82.5 83t-31 132q0 86 37 142t98.5 88t135.5 45.5
t149 13.5q71 0 142 -13t131 -46t96 -92.5t36 -151.5h-284q0 60 -37 82t-84 22q-51 0 -82 -13.5t-31 -47.5q0 -22 25.5 -39t76.5 -32t127 -34q82 -19 155 -45.5t119 -79t46 -151.5q0 -94 -46 -150.5t-127 -82t-185 -25.5z" />
    <glyph glyph-name="dieresis" unicode="&#xa8;" horiz-adv-x="1130" 
d="M774 1063q-63 0 -106 41.5t-43 106.5q0 64 43 105.5t106 41.5q65 0 108.5 -41.5t43.5 -106.5q0 -64 -43.5 -105.5t-108.5 -41.5zM356 1063q-64 0 -107.5 41.5t-43.5 106.5q0 64 43.5 105.5t107.5 41.5q63 0 106.5 -41.5t43.5 -106.5q0 -64 -43.5 -105.5t-106.5 -41.5z
" />
    <glyph glyph-name="copyright" unicode="&#xa9;" horiz-adv-x="1534" 
d="M766 -18q-143 0 -268 53.5t-220 148.5t-148.5 220t-53.5 268q0 144 53.5 269.5t148.5 220.5t220 148.5t268 53.5q144 0 269.5 -53.5t220.5 -148.5t148.5 -220.5t53.5 -269.5q0 -143 -53.5 -268t-148.5 -220t-220.5 -148.5t-269.5 -53.5zM766 193q100 0 187 37.5t153 103
t103.5 152.5t37.5 186q0 100 -37.5 187t-103.5 153t-153 103.5t-187 37.5q-99 0 -186 -37.5t-152.5 -103.5t-103 -153t-37.5 -187q0 -99 37.5 -186t103 -152.5t152.5 -103t186 -37.5zM776 317q-155 0 -247.5 97t-92.5 258q0 163 92.5 259.5t247.5 96.5q148 0 234.5 -80.5
t87.5 -206.5h-213q-1 45 -28.5 74t-80.5 29q-60 0 -93.5 -44.5t-33.5 -127.5q0 -82 33.5 -126t93.5 -44q56 0 81 35t26 84h217q-3 -146 -87.5 -225t-236.5 -79z" />
    <glyph glyph-name="ordfeminine" unicode="&#xaa;" horiz-adv-x="952" 
d="M322 559q-64 0 -124.5 26t-99.5 80t-39 138q0 112 64 166.5t178.5 74.5t263.5 27v25q0 34 -17.5 52.5t-58.5 18.5t-61 -15.5t-20 -55.5h-295q0 144 101.5 206t274.5 62q144 0 225.5 -31.5t115.5 -90.5t34 -142v-527h-291l-8 80q-46 -63 -105.5 -78.5t-137.5 -15.5z
M446 766q57 0 92 34.5t35 82.5v26q-119 0 -157.5 -20.5t-38.5 -67.5q0 -35 23.5 -45t45.5 -10z" />
    <glyph glyph-name="guillemotleft" unicode="&#xab;" horiz-adv-x="964" 
d="M893 82l-383 295v260l383 295v-279l-168 -147l168 -144v-280zM459 82l-387 295v260l387 295v-279l-170 -147l170 -144v-280z" />
    <glyph glyph-name="logicalnot" unicode="&#xac;" 
d="M86 1022h1016v-281h-1016v281zM819 309v713h283v-713h-283z" />
    <glyph glyph-name="uni00AD" unicode="&#xad;" horiz-adv-x="782" 
d="M84 356v310h614v-310h-614z" />
    <glyph glyph-name="registered" unicode="&#xae;" horiz-adv-x="882" 
d="M440 602q-102 0 -186.5 51t-135 136.5t-50.5 187.5q0 104 50.5 189t135 135.5t186.5 50.5q104 0 189 -50.5t135.5 -135.5t50.5 -189q0 -102 -50.5 -187.5t-135.5 -136.5t-189 -51zM440 700q77 0 140.5 37.5t101 100.5t37.5 139t-37.5 139t-101 101t-140.5 38
q-75 0 -138 -38t-100.5 -101t-37.5 -139t37.5 -139t100.5 -100.5t138 -37.5zM291 809v348h166q68 0 102.5 -25t34.5 -75q0 -34 -21 -58.5t-59 -35.5v16q34 -6 52 -24.5t30 -59.5l27 -86h-111l-16 65q-10 38 -24 47t-34 9h-39v-121h-108zM399 1012h39q23 0 33 8t10 24
q0 27 -35 27h-47v-59z" />
    <glyph glyph-name="macron" unicode="&#xaf;" horiz-adv-x="1130" 
d="M274 1128v185h582v-185h-582z" />
    <glyph glyph-name="degree" unicode="&#xb0;" horiz-adv-x="805" 
d="M403 643q-96 0 -174.5 46t-125 124t-46.5 174t46.5 174t125 124t174.5 46t174 -46t124.5 -124t46.5 -174t-46.5 -174t-124.5 -124t-174 -46zM403 874q47 0 80 33.5t33 79.5q0 47 -33 80t-80 33q-46 0 -79 -33t-33 -80q0 -46 33 -79.5t79 -33.5z" />
    <glyph glyph-name="plusminus" unicode="&#xb1;" 
d="M86 950h1016v-256h-1016v256zM451 440v764h284v-764h-284zM86 383h1016v-256h-1016v256z" />
    <glyph glyph-name="uni00B2" unicode="&#xb2;" horiz-adv-x="772" 
d="M55 979v160l336 266q35 28 56.5 58t21.5 61q0 28 -19.5 45.5t-60.5 17.5q-52 0 -75 -36t-23 -95h-230q0 163 88 244.5t240 81.5q146 0 235 -63t89 -185q0 -69 -26 -118t-68.5 -86t-92.5 -72l-100 -72h289v-207h-660z" />
    <glyph glyph-name="uni00B3" unicode="&#xb3;" horiz-adv-x="772" 
d="M389 969q-154 0 -248 64.5t-94 209.5h225q0 -43 29.5 -61.5t83.5 -18.5q48 0 69 19t21 53q0 37 -28 53.5t-74 16.5h-56v172h64q47 0 72.5 15.5t25.5 41.5t-20.5 39.5t-67.5 13.5t-71.5 -16.5t-24.5 -50.5h-225q0 102 49 159t123.5 80t148.5 23q75 0 148 -21t120.5 -69
t47.5 -129q0 -67 -36 -110t-98 -60q62 -14 105 -61.5t43 -121.5q0 -118 -93.5 -179.5t-238.5 -61.5z" />
    <glyph glyph-name="acute" unicode="&#xb4;" horiz-adv-x="1130" 
d="M373 1102l190 284h387l-309 -284h-268z" />
    <glyph glyph-name="mu" unicode="&#xb5;" horiz-adv-x="1244" 
d="M111 -358v1337h372v-598q0 -33 14.5 -56.5t38.5 -36t52 -12.5q47 0 90 25t84 68v610h371v-979h-359l-4 135q-31 -57 -84.5 -102t-130.5 -45t-146 45.5t-112 129t-43 195.5h207v-716h-350z" />
    <glyph glyph-name="paragraph" unicode="&#xb6;" horiz-adv-x="1362" 
d="M508 -197v826h-74q-163 0 -260.5 97.5t-97.5 260.5t97.5 261t260.5 98h817v-1543h-299v1250h-143v-1250h-301z" />
    <glyph glyph-name="periodcentered" unicode="&#xb7;" horiz-adv-x="616" 
d="M326 312q-100 0 -160 59t-60 143q0 95 60 150t160 55q98 0 155.5 -55t57.5 -150q0 -84 -57.5 -143t-155.5 -59z" />
    <glyph glyph-name="cedilla" unicode="&#xb8;" horiz-adv-x="1130" 
d="M582 -377q-88 0 -142.5 13t-103.5 32l45 144q44 -20 89 -29.5t91 -9.5q32 0 48 11.5t16 33.5q0 20 -24 36.5t-99 32.5l-45 11l143 165l121 -36l-55 -66l-70 14q97 0 166 -42.5t69 -133.5q0 -58 -35.5 -97t-92 -59t-121.5 -20z" />
    <glyph glyph-name="uni00B9" unicode="&#xb9;" horiz-adv-x="772" 
d="M328 979v516q-35 -31 -80.5 -58.5t-147.5 -39.5v229q67 18 109 34.5t73.5 41.5t65.5 65h240v-788h-260z" />
    <glyph glyph-name="ordmasculine" unicode="&#xba;" horiz-adv-x="989" 
d="M496 559q-124 0 -223 46t-156.5 136.5t-57.5 223.5q0 129 57.5 218t156.5 135t223 46t222.5 -46t156 -135t57.5 -218q0 -133 -57.5 -223.5t-156 -136.5t-222.5 -46zM496 801q72 0 94 51.5t22 112.5q0 37 -9 73.5t-34 61t-73 24.5q-71 0 -95 -51.5t-24 -107.5
q0 -63 24 -113.5t95 -50.5z" />
    <glyph glyph-name="guillemotright" unicode="&#xbb;" horiz-adv-x="964" 
d="M510 82v280l166 144l-166 147v279l383 -295v-260zM72 82v280l168 144l-168 147v279l387 -295v-260z" />
    <glyph glyph-name="onequarter" unicode="&#xbc;" horiz-adv-x="1696" 
d="M258 532v516q-35 -31 -80.5 -58.5t-147.5 -39.5v229q67 18 109 34.5t73.5 41.5t65.5 65h240v-788h-260zM287 0l801 1315h251l-800 -1315h-252zM1255 0v123h-350v205l354 460h242v-466h108v-199h-108v-123h-246zM1126 322h137v178z" />
    <glyph glyph-name="onehalf" unicode="&#xbd;" horiz-adv-x="1720" 
d="M258 532v516q-35 -31 -80.5 -58.5t-147.5 -39.5v229q67 18 109 34.5t73.5 41.5t65.5 65h240v-788h-260zM277 0l801 1315h251l-800 -1315h-252zM1009 0v160l336 266q35 28 56.5 58t21.5 61q0 28 -19.5 45.5t-60.5 17.5q-52 0 -75 -36t-23 -95h-230q0 163 88 244.5
t240 81.5q146 0 235 -63t89 -185q0 -69 -26 -118t-68.5 -86t-92.5 -72l-100 -72h289v-207h-660z" />
    <glyph glyph-name="threequarters" unicode="&#xbe;" horiz-adv-x="1731" 
d="M389 522q-154 0 -248 64.5t-94 209.5h225q0 -43 29.5 -61.5t83.5 -18.5q48 0 69 19t21 53q0 37 -28 53.5t-74 16.5h-56v172h64q47 0 72.5 15.5t25.5 41.5t-20.5 39.5t-67.5 13.5t-71.5 -16.5t-24.5 -50.5h-225q0 102 49 159t123.5 80t148.5 23q75 0 148 -21t120.5 -69
t47.5 -129q0 -67 -36 -110t-98 -60q62 -14 105 -61.5t43 -121.5q0 -118 -93.5 -179.5t-238.5 -61.5zM377 0l801 1315h251l-800 -1315h-252zM1325 0v123h-350v205l354 460h242v-466h108v-199h-108v-123h-246zM1196 322h137v178z" />
    <glyph glyph-name="questiondown" unicode="&#xbf;" horiz-adv-x="1081" 
d="M742 471q2 -18 3.5 -36t1.5 -36q0 -90 -34.5 -146t-112.5 -103q-88 -53 -119 -85t-31 -73q0 -38 23 -58t69 -20q63 0 88 29.5t27 77.5h383q0 -131 -58.5 -221t-170 -136.5t-269.5 -46.5q-149 0 -261.5 43t-176 126.5t-63.5 205.5q0 79 24 138.5t72 105t119 82.5
q53 27 81.5 49t41.5 46t18 58h345zM567 995q100 0 159.5 -59t59.5 -143q0 -95 -59.5 -150t-159.5 -55q-98 0 -157.5 55t-59.5 150q0 84 59.5 143t157.5 59z" />
    <glyph glyph-name="Agrave" unicode="&#xc0;" horiz-adv-x="1303" 
d="M-20 0l462 1346h412l469 -1346h-410l-59 205h-408l-59 -205h-407zM524 512h246l-123 446zM555 1446l-299 285h385l182 -285h-268z" />
    <glyph glyph-name="Aacute" unicode="&#xc1;" horiz-adv-x="1303" 
d="M-20 0l462 1346h412l469 -1346h-410l-59 205h-408l-59 -205h-407zM524 512h246l-123 446zM473 1446l182 285h385l-297 -285h-270z" />
    <glyph glyph-name="Acircumflex" unicode="&#xc2;" horiz-adv-x="1303" 
d="M-20 0l462 1346h412l469 -1346h-410l-59 205h-408l-59 -205h-407zM524 512h246l-123 446zM277 1446l210 285h326l209 -285h-270l-101 141l-100 -141h-274z" />
    <glyph glyph-name="Atilde" unicode="&#xc3;" horiz-adv-x="1303" 
d="M-20 0l462 1346h412l469 -1346h-410l-59 205h-408l-59 -205h-407zM524 512h246l-123 446zM289 1440q12 138 75.5 206t168.5 68q47 0 84.5 -14.5t66.5 -26.5t53 -22.5t43 -10.5q22 0 33 14.5t14 57.5h185q-14 -139 -67.5 -199.5t-160.5 -60.5q-43 0 -78.5 10.5t-70.5 26.5
q-32 14 -57 22.5t-43 8.5q-28 0 -43 -17t-21 -63h-182z" />
    <glyph glyph-name="Adieresis" unicode="&#xc4;" horiz-adv-x="1303" 
d="M-20 0l462 1346h412l469 -1346h-410l-59 205h-408l-59 -205h-407zM524 512h246l-123 446zM858 1409q-63 0 -106 41.5t-43 105.5q0 65 43 106.5t106 41.5q65 0 108.5 -41.5t43.5 -106.5q0 -64 -43.5 -105.5t-108.5 -41.5zM440 1409q-64 0 -107.5 41.5t-43.5 105.5
q0 65 43.5 106.5t107.5 41.5q63 0 106.5 -41.5t43.5 -106.5q0 -64 -43.5 -105.5t-106.5 -41.5z" />
    <glyph glyph-name="Aring" unicode="&#xc5;" horiz-adv-x="1303" 
d="M-20 0l462 1346h412l469 -1346h-410l-59 205h-408l-59 -205h-407zM524 512h246l-123 446zM649 1384q-94 0 -156.5 54.5t-62.5 148.5t62.5 147.5t156.5 53.5q95 0 158 -53.5t63 -147.5t-63 -148.5t-158 -54.5zM649 1517q29 0 49.5 20.5t20.5 49.5t-20.5 48.5t-49.5 19.5
t-49 -19.5t-20 -48.5t20 -49.5t49 -20.5z" />
    <glyph glyph-name="AE" unicode="&#xc6;" horiz-adv-x="2016" 
d="M-43 0l782 1346h357l14 -349h-188l-322 -598v-22l-199 -377h-444zM395 205v325h799v-325h-799zM958 0v1346h955v-324h-561v-188h495v-312h-495v-198h561v-324h-955z" />
    <glyph glyph-name="Ccedilla" unicode="&#xc7;" horiz-adv-x="1458" 
d="M748 -18q-198 0 -349 82.5t-236 237t-85 370.5q0 217 85 372t236 237.5t349 82.5q179 0 323.5 -61.5t230.5 -177t87 -277.5h-406q-9 60 -38 101.5t-78 63t-119 21.5q-97 0 -156 -48.5t-85 -130.5t-26 -183t26 -183t85 -130t156 -48q112 0 169.5 59.5t63.5 159.5h405
q-8 -170 -81 -293t-211.5 -189t-345.5 -66zM750 -377q-88 0 -142.5 13t-103.5 32l45 144q44 -20 89 -29.5t91 -9.5q32 0 48 11.5t16 33.5q0 20 -24 36.5t-99 32.5l-45 11l143 165l121 -36l-55 -66l-70 14q97 0 166 -42.5t69 -133.5q0 -58 -35.5 -97t-92 -59t-121.5 -20z" />
    <glyph glyph-name="Egrave" unicode="&#xc8;" horiz-adv-x="1190" 
d="M133 0v1346h954v-324h-561v-188h496v-312h-496v-198h561v-324h-954zM516 1446l-299 285h385l182 -285h-268z" />
    <glyph glyph-name="Eacute" unicode="&#xc9;" horiz-adv-x="1190" 
d="M133 0v1346h954v-324h-561v-188h496v-312h-496v-198h561v-324h-954zM434 1446l182 285h385l-297 -285h-270z" />
    <glyph glyph-name="Ecircumflex" unicode="&#xca;" horiz-adv-x="1190" 
d="M133 0v1346h954v-324h-561v-188h496v-312h-496v-198h561v-324h-954zM238 1446l210 285h326l209 -285h-270l-101 141l-100 -141h-274z" />
    <glyph glyph-name="Edieresis" unicode="&#xcb;" horiz-adv-x="1190" 
d="M133 0v1346h954v-324h-561v-188h496v-312h-496v-198h561v-324h-954zM819 1409q-63 0 -106 41.5t-43 105.5q0 65 43 106.5t106 41.5q65 0 108.5 -41.5t43.5 -106.5q0 -64 -43.5 -105.5t-108.5 -41.5zM401 1409q-64 0 -107.5 41.5t-43.5 105.5q0 65 43.5 106.5t107.5 41.5
q63 0 106.5 -41.5t43.5 -106.5q0 -64 -43.5 -105.5t-106.5 -41.5z" />
    <glyph glyph-name="Igrave" unicode="&#xcc;" horiz-adv-x="659" 
d="M133 0v1346h393v-1346h-393zM236 1446l-299 285h385l182 -285h-268z" />
    <glyph glyph-name="Iacute" unicode="&#xcd;" horiz-adv-x="659" 
d="M133 0v1346h393v-1346h-393zM154 1446l182 285h385l-297 -285h-270z" />
    <glyph glyph-name="Icircumflex" unicode="&#xce;" horiz-adv-x="659" 
d="M133 0v1346h393v-1346h-393zM-42 1446l210 285h326l209 -285h-270l-101 141l-100 -141h-274z" />
    <glyph glyph-name="Idieresis" unicode="&#xcf;" horiz-adv-x="659" 
d="M133 0v1346h393v-1346h-393zM539 1409q-63 0 -106 41.5t-43 105.5q0 65 43 106.5t106 41.5q65 0 108.5 -41.5t43.5 -106.5q0 -64 -43.5 -105.5t-108.5 -41.5zM121 1409q-64 0 -107.5 41.5t-43.5 105.5q0 65 43.5 106.5t107.5 41.5q63 0 106.5 -41.5t43.5 -106.5
q0 -64 -43.5 -105.5t-106.5 -41.5z" />
    <glyph glyph-name="Eth" unicode="&#xd0;" horiz-adv-x="1475" 
d="M0 512v313h791v-313h-791zM133 0v1346h557q220 0 378.5 -76t243.5 -225.5t85 -370.5q0 -229 -86.5 -378.5t-245 -222.5t-375.5 -73h-557zM526 326h133q110 0 184 34.5t111 111t37 202.5q0 121 -43.5 197t-118.5 112.5t-170 36.5h-133v-694z" />
    <glyph glyph-name="Ntilde" unicode="&#xd1;" horiz-adv-x="1499" 
d="M133 0v1346h379l485 -736v736h369v-1346h-377l-489 745v-745h-367zM375 1440q12 138 75.5 206t168.5 68q47 0 84.5 -14.5t66.5 -26.5t53 -22.5t43 -10.5q22 0 33 14.5t14 57.5h185q-14 -139 -67.5 -199.5t-160.5 -60.5q-43 0 -78.5 10.5t-70.5 26.5q-32 14 -57 22.5
t-43 8.5q-28 0 -43 -17t-21 -63h-182z" />
    <glyph glyph-name="Ograve" unicode="&#xd2;" horiz-adv-x="1497" 
d="M748 -18q-210 0 -360 82.5t-230 237t-80 370.5q0 217 80 372t230 237.5t360 82.5q211 0 361 -82.5t230 -237.5t80 -372q0 -216 -80 -370.5t-230 -237t-361 -82.5zM748 311q97 0 156 50t85.5 132.5t26.5 178.5q0 97 -26.5 179.5t-85.5 132.5t-156 50t-156 -48.5
t-85 -130.5t-26 -183q0 -102 26 -184t85 -129.5t156 -47.5zM654 1446l-299 285h385l182 -285h-268z" />
    <glyph glyph-name="Oacute" unicode="&#xd3;" horiz-adv-x="1497" 
d="M748 -18q-210 0 -360 82.5t-230 237t-80 370.5q0 217 80 372t230 237.5t360 82.5q211 0 361 -82.5t230 -237.5t80 -372q0 -216 -80 -370.5t-230 -237t-361 -82.5zM748 311q97 0 156 50t85.5 132.5t26.5 178.5q0 97 -26.5 179.5t-85.5 132.5t-156 50t-156 -48.5
t-85 -130.5t-26 -183q0 -102 26 -184t85 -129.5t156 -47.5zM572 1446l182 285h385l-297 -285h-270z" />
    <glyph glyph-name="Ocircumflex" unicode="&#xd4;" horiz-adv-x="1497" 
d="M748 -18q-210 0 -360 82.5t-230 237t-80 370.5q0 217 80 372t230 237.5t360 82.5q211 0 361 -82.5t230 -237.5t80 -372q0 -216 -80 -370.5t-230 -237t-361 -82.5zM748 311q97 0 156 50t85.5 132.5t26.5 178.5q0 97 -26.5 179.5t-85.5 132.5t-156 50t-156 -48.5
t-85 -130.5t-26 -183q0 -102 26 -184t85 -129.5t156 -47.5zM376 1446l210 285h326l209 -285h-270l-101 141l-100 -141h-274z" />
    <glyph glyph-name="Otilde" unicode="&#xd5;" horiz-adv-x="1497" 
d="M748 -18q-210 0 -360 82.5t-230 237t-80 370.5q0 217 80 372t230 237.5t360 82.5q211 0 361 -82.5t230 -237.5t80 -372q0 -216 -80 -370.5t-230 -237t-361 -82.5zM748 311q97 0 156 50t85.5 132.5t26.5 178.5q0 97 -26.5 179.5t-85.5 132.5t-156 50t-156 -48.5
t-85 -130.5t-26 -183q0 -102 26 -184t85 -129.5t156 -47.5zM388 1440q12 138 75.5 206t168.5 68q47 0 84.5 -14.5t66.5 -26.5t53 -22.5t43 -10.5q22 0 33 14.5t14 57.5h185q-14 -139 -67.5 -199.5t-160.5 -60.5q-43 0 -78.5 10.5t-70.5 26.5q-32 14 -57 22.5t-43 8.5
q-28 0 -43 -17t-21 -63h-182z" />
    <glyph glyph-name="Odieresis" unicode="&#xd6;" horiz-adv-x="1497" 
d="M748 -18q-210 0 -360 82.5t-230 237t-80 370.5q0 217 80 372t230 237.5t360 82.5q211 0 361 -82.5t230 -237.5t80 -372q0 -216 -80 -370.5t-230 -237t-361 -82.5zM748 311q97 0 156 50t85.5 132.5t26.5 178.5q0 97 -26.5 179.5t-85.5 132.5t-156 50t-156 -48.5
t-85 -130.5t-26 -183q0 -102 26 -184t85 -129.5t156 -47.5zM957 1409q-63 0 -106 41.5t-43 105.5q0 65 43 106.5t106 41.5q65 0 108.5 -41.5t43.5 -106.5q0 -64 -43.5 -105.5t-108.5 -41.5zM539 1409q-64 0 -107.5 41.5t-43.5 105.5q0 65 43.5 106.5t107.5 41.5
q63 0 106.5 -41.5t43.5 -106.5q0 -64 -43.5 -105.5t-106.5 -41.5z" />
    <glyph glyph-name="multiply" unicode="&#xd7;" 
d="M133 408l719 718l201 -196l-719 -723zM334 1126l721 -718l-199 -201l-719 719z" />
    <glyph glyph-name="Oslash" unicode="&#xd8;" horiz-adv-x="1497" 
d="M248 -90l-170 141l1171 1385l170 -142zM748 -18q-210 0 -360 82.5t-230 237t-80 370.5q0 217 80 372t230 237.5t360 82.5q211 0 361 -82.5t230 -237.5t80 -372q0 -216 -80 -370.5t-230 -237t-361 -82.5zM748 301q100 0 160 51.5t87 136.5t27 183q0 100 -27 184.5t-87 136
t-160 51.5q-99 0 -160 -51.5t-89 -136t-28 -184.5q0 -98 28 -183t89 -136.5t160 -51.5z" />
    <glyph glyph-name="Ugrave" unicode="&#xd9;" horiz-adv-x="1483" 
d="M740 -20q-215 0 -352 61.5t-202.5 192.5t-65.5 339v773h405v-762q0 -140 53 -207.5t166 -67.5t163 67.5t50 207.5v762h406v-773q0 -208 -66 -339t-204 -192.5t-353 -61.5zM646 1446l-299 285h385l182 -285h-268z" />
    <glyph glyph-name="Uacute" unicode="&#xda;" horiz-adv-x="1483" 
d="M740 -20q-215 0 -352 61.5t-202.5 192.5t-65.5 339v773h405v-762q0 -140 53 -207.5t166 -67.5t163 67.5t50 207.5v762h406v-773q0 -208 -66 -339t-204 -192.5t-353 -61.5zM564 1446l182 285h385l-297 -285h-270z" />
    <glyph glyph-name="Ucircumflex" unicode="&#xdb;" horiz-adv-x="1483" 
d="M740 -20q-215 0 -352 61.5t-202.5 192.5t-65.5 339v773h405v-762q0 -140 53 -207.5t166 -67.5t163 67.5t50 207.5v762h406v-773q0 -208 -66 -339t-204 -192.5t-353 -61.5zM368 1446l210 285h326l209 -285h-270l-101 141l-100 -141h-274z" />
    <glyph glyph-name="Udieresis" unicode="&#xdc;" horiz-adv-x="1483" 
d="M740 -20q-215 0 -352 61.5t-202.5 192.5t-65.5 339v773h405v-762q0 -140 53 -207.5t166 -67.5t163 67.5t50 207.5v762h406v-773q0 -208 -66 -339t-204 -192.5t-353 -61.5zM949 1409q-63 0 -106 41.5t-43 105.5q0 65 43 106.5t106 41.5q65 0 108.5 -41.5t43.5 -106.5
q0 -64 -43.5 -105.5t-108.5 -41.5zM531 1409q-64 0 -107.5 41.5t-43.5 105.5q0 65 43.5 106.5t107.5 41.5q63 0 106.5 -41.5t43.5 -106.5q0 -64 -43.5 -105.5t-106.5 -41.5z" />
    <glyph glyph-name="Yacute" unicode="&#xdd;" horiz-adv-x="1264" 
d="M430 0v467l-450 879h440l211 -512l213 512h440l-448 -879v-467h-406zM455 1446l182 285h385l-297 -285h-270z" />
    <glyph glyph-name="Thorn" unicode="&#xde;" horiz-adv-x="1280" 
d="M133 209v313h537q71 0 115 40.5t44 113.5q0 72 -46.5 109.5t-112.5 37.5h-537v312h576q141 0 261 -45.5t192.5 -146.5t72.5 -267q0 -165 -72.5 -268t-192.5 -151t-261 -48h-576zM133 0v1346h393v-1346h-393z" />
    <glyph glyph-name="germandbls" unicode="&#xdf;" horiz-adv-x="1202" 
d="M700 -12q-38 0 -71.5 3t-65.5 9v254q20 -4 36.5 -5t27.5 -1q68 0 103.5 38.5t35.5 110.5q0 86 -54 124t-139 38h-10v252h17q53 0 97 37.5t44 120.5q0 62 -26.5 99.5t-86.5 37.5q-53 0 -89 -42t-36 -142v-922h-368v915q0 167 64.5 265.5t176 141t252.5 42.5
q151 0 252 -40.5t152 -117.5t51 -188q0 -91 -44.5 -165t-143 -123.5t-259.5 -67.5l-36 120q197 0 320.5 -48t182 -137.5t58.5 -213.5q0 -129 -60 -217t-160 -133t-221 -45z" />
    <glyph glyph-name="agrave" unicode="&#xe0;" horiz-adv-x="1158" 
d="M395 -16q-79 0 -154.5 32t-124 99t-48.5 170q0 139 79 208t219.5 94t325.5 31v33q0 60 -28 82.5t-74 22.5q-55 0 -85 -22.5t-30 -76.5h-344q0 126 57 199t160.5 104t241.5 31q114 0 200.5 -17.5t145 -57t88 -102.5t29.5 -155v-659h-348l-11 106q-57 -59 -127.5 -90.5
t-171.5 -31.5zM522 227q59 0 100.5 26t63.5 54v125q-148 -3 -198 -31.5t-50 -87.5q0 -43 23.5 -64.5t60.5 -21.5zM520 1102l-307 284h387l189 -284h-269z" />
    <glyph glyph-name="aacute" unicode="&#xe1;" horiz-adv-x="1158" 
d="M395 -16q-79 0 -154.5 32t-124 99t-48.5 170q0 139 79 208t219.5 94t325.5 31v33q0 60 -28 82.5t-74 22.5q-55 0 -85 -22.5t-30 -76.5h-344q0 126 57 199t160.5 104t241.5 31q114 0 200.5 -17.5t145 -57t88 -102.5t29.5 -155v-659h-348l-11 106q-57 -59 -127.5 -90.5
t-171.5 -31.5zM522 227q59 0 100.5 26t63.5 54v125q-148 -3 -198 -31.5t-50 -87.5q0 -43 23.5 -64.5t60.5 -21.5zM414 1102l190 284h387l-309 -284h-268z" />
    <glyph glyph-name="acircumflex" unicode="&#xe2;" horiz-adv-x="1158" 
d="M395 -16q-79 0 -154.5 32t-124 99t-48.5 170q0 139 79 208t219.5 94t325.5 31v33q0 60 -28 82.5t-74 22.5q-55 0 -85 -22.5t-30 -76.5h-344q0 126 57 199t160.5 104t241.5 31q114 0 200.5 -17.5t145 -57t88 -102.5t29.5 -155v-659h-348l-11 106q-57 -59 -127.5 -90.5
t-171.5 -31.5zM522 227q59 0 100.5 26t63.5 54v125q-148 -3 -198 -31.5t-50 -87.5q0 -43 23.5 -64.5t60.5 -21.5zM234 1102l208 284h328l209 -284h-264l-109 121l-108 -121h-264z" />
    <glyph glyph-name="atilde" unicode="&#xe3;" horiz-adv-x="1158" 
d="M395 -16q-79 0 -154.5 32t-124 99t-48.5 170q0 139 79 208t219.5 94t325.5 31v33q0 60 -28 82.5t-74 22.5q-55 0 -85 -22.5t-30 -76.5h-344q0 126 57 199t160.5 104t241.5 31q114 0 200.5 -17.5t145 -57t88 -102.5t29.5 -155v-659h-348l-11 106q-57 -59 -127.5 -90.5
t-171.5 -31.5zM522 227q59 0 100.5 26t63.5 54v125q-148 -3 -198 -31.5t-50 -87.5q0 -43 23.5 -64.5t60.5 -21.5zM246 1094q12 138 75.5 206t168.5 68q47 0 84.5 -14.5t66.5 -26.5t53 -22.5t43 -10.5q22 0 33 14.5t14 57.5h185q-14 -139 -67.5 -199.5t-160.5 -60.5
q-43 0 -78.5 10.5t-70.5 26.5q-32 14 -57 22.5t-43 8.5q-28 0 -43 -17t-21 -63h-182z" />
    <glyph glyph-name="adieresis" unicode="&#xe4;" horiz-adv-x="1158" 
d="M395 -16q-79 0 -154.5 32t-124 99t-48.5 170q0 139 79 208t219.5 94t325.5 31v33q0 60 -28 82.5t-74 22.5q-55 0 -85 -22.5t-30 -76.5h-344q0 126 57 199t160.5 104t241.5 31q114 0 200.5 -17.5t145 -57t88 -102.5t29.5 -155v-659h-348l-11 106q-57 -59 -127.5 -90.5
t-171.5 -31.5zM522 227q59 0 100.5 26t63.5 54v125q-148 -3 -198 -31.5t-50 -87.5q0 -43 23.5 -64.5t60.5 -21.5zM815 1063q-63 0 -106 41.5t-43 106.5q0 64 43 105.5t106 41.5q65 0 108.5 -41.5t43.5 -106.5q0 -64 -43.5 -105.5t-108.5 -41.5zM397 1063q-64 0 -107.5 41.5
t-43.5 106.5q0 64 43.5 105.5t107.5 41.5q63 0 106.5 -41.5t43.5 -106.5q0 -64 -43.5 -105.5t-106.5 -41.5z" />
    <glyph glyph-name="aring" unicode="&#xe5;" horiz-adv-x="1158" 
d="M395 -16q-79 0 -154.5 32t-124 99t-48.5 170q0 139 79 208t219.5 94t325.5 31v33q0 60 -28 82.5t-74 22.5q-55 0 -85 -22.5t-30 -76.5h-344q0 126 57 199t160.5 104t241.5 31q114 0 200.5 -17.5t145 -57t88 -102.5t29.5 -155v-659h-348l-11 106q-57 -59 -127.5 -90.5
t-171.5 -31.5zM522 227q59 0 100.5 26t63.5 54v125q-148 -3 -198 -31.5t-50 -87.5q0 -43 23.5 -64.5t60.5 -21.5zM606 1079q-94 0 -156.5 54.5t-62.5 148.5t62.5 147.5t156.5 53.5q95 0 158 -53.5t63 -147.5t-63 -148.5t-158 -54.5zM606 1212q29 0 49.5 20.5t20.5 49.5
t-20.5 48.5t-49.5 19.5t-49 -19.5t-20 -48.5t20 -49.5t49 -20.5z" />
    <glyph glyph-name="ae" unicode="&#xe6;" horiz-adv-x="1816" 
d="M1227 -18q-160 0 -278.5 54t-183.5 168t-65 292q0 161 64 271t182.5 167t282.5 57q238 0 379 -132.5t141 -387.5q0 -10 -1 -25.5t-3 -27.5h-674q4 -47 21 -90t53.5 -70t97.5 -27q66 0 111 23.5t45 77.5h346q-8 -127 -74 -204t-179.5 -111.5t-264.5 -34.5zM449 -16
q-196 0 -288.5 83t-92.5 214q0 133 76.5 203.5t219.5 97t343 28.5v41q0 40 -13 63t-38.5 32.5t-61.5 9.5q-55 0 -87 -22.5t-32 -76.5h-344q0 171 112 251.5t347 80.5q126 0 201.5 -25t113.5 -67.5t51 -95.5l-190 -373q-130 4 -201 -7t-99 -37.5t-28 -68.5q0 -49 28.5 -68.5
t68.5 -19.5q49 0 92.5 20.5t79 57t59.5 84.5l133 -96q-28 -107 -93.5 -175.5t-157 -101t-199.5 -32.5zM1079 618h301q-3 76 -48.5 106t-102.5 30q-58 0 -101 -34.5t-49 -101.5z" />
    <glyph glyph-name="ccedilla" unicode="&#xe7;" horiz-adv-x="1159" 
d="M596 -18q-162 0 -280.5 58t-183 169t-64.5 270q0 163 65.5 278t184 175.5t278.5 60.5q147 0 256 -45t169.5 -134t59.5 -222h-360q0 53 -30 87t-95 34q-91 0 -124.5 -60t-33.5 -174q0 -70 14.5 -119t49 -74.5t94.5 -25.5q68 0 102.5 40.5t34.5 111.5h359
q-3 -136 -61.5 -232.5t-168 -147t-266.5 -50.5zM597 -377q-88 0 -142.5 13t-103.5 32l45 144q44 -20 89 -29.5t91 -9.5q32 0 48 11.5t16 33.5q0 20 -24 36.5t-99 32.5l-45 11l143 165l121 -36l-55 -66l-70 14q97 0 166 -42.5t69 -133.5q0 -58 -35.5 -97t-92 -59t-121.5 -20z
" />
    <glyph glyph-name="egrave" unicode="&#xe8;" horiz-adv-x="1183" 
d="M604 -18q-154 0 -275.5 54t-191 168t-69.5 292q0 161 68 271t187.5 167t272.5 57q238 0 379 -132.5t141 -387.5q0 -10 -1 -26t-3 -27h-674q2 -49 19 -92t54.5 -69t98.5 -26q66 0 109.5 23.5t46.5 77.5h346q-8 -127 -73.5 -204t-177 -111.5t-257.5 -34.5zM446 618h302
q-5 74 -50 106t-102 32q-58 0 -100.5 -35.5t-49.5 -102.5zM508 1102l-307 284h387l189 -284h-269z" />
    <glyph glyph-name="eacute" unicode="&#xe9;" horiz-adv-x="1183" 
d="M604 -18q-154 0 -275.5 54t-191 168t-69.5 292q0 161 68 271t187.5 167t272.5 57q238 0 379 -132.5t141 -387.5q0 -10 -1 -26t-3 -27h-674q2 -49 19 -92t54.5 -69t98.5 -26q66 0 109.5 23.5t46.5 77.5h346q-8 -127 -73.5 -204t-177 -111.5t-257.5 -34.5zM446 618h302
q-5 74 -50 106t-102 32q-58 0 -100.5 -35.5t-49.5 -102.5zM402 1102l190 284h387l-309 -284h-268z" />
    <glyph glyph-name="ecircumflex" unicode="&#xea;" horiz-adv-x="1183" 
d="M604 -18q-154 0 -275.5 54t-191 168t-69.5 292q0 161 68 271t187.5 167t272.5 57q238 0 379 -132.5t141 -387.5q0 -10 -1 -26t-3 -27h-674q2 -49 19 -92t54.5 -69t98.5 -26q66 0 109.5 23.5t46.5 77.5h346q-8 -127 -73.5 -204t-177 -111.5t-257.5 -34.5zM446 618h302
q-5 74 -50 106t-102 32q-58 0 -100.5 -35.5t-49.5 -102.5zM222 1102l208 284h328l209 -284h-264l-109 121l-108 -121h-264z" />
    <glyph glyph-name="edieresis" unicode="&#xeb;" horiz-adv-x="1183" 
d="M604 -18q-154 0 -275.5 54t-191 168t-69.5 292q0 161 68 271t187.5 167t272.5 57q238 0 379 -132.5t141 -387.5q0 -10 -1 -26t-3 -27h-674q2 -49 19 -92t54.5 -69t98.5 -26q66 0 109.5 23.5t46.5 77.5h346q-8 -127 -73.5 -204t-177 -111.5t-257.5 -34.5zM446 618h302
q-5 74 -50 106t-102 32q-58 0 -100.5 -35.5t-49.5 -102.5zM803 1063q-63 0 -106 41.5t-43 106.5q0 64 43 105.5t106 41.5q65 0 108.5 -41.5t43.5 -106.5q0 -64 -43.5 -105.5t-108.5 -41.5zM385 1063q-64 0 -107.5 41.5t-43.5 106.5q0 64 43.5 105.5t107.5 41.5
q63 0 106.5 -41.5t43.5 -106.5q0 -64 -43.5 -105.5t-106.5 -41.5z" />
    <glyph glyph-name="igrave" unicode="&#xec;" horiz-adv-x="594" 
d="M111 0v979h372v-979h-372zM211 1102l-307 284h387l189 -284h-269z" />
    <glyph glyph-name="iacute" unicode="&#xed;" horiz-adv-x="594" 
d="M111 0v979h372v-979h-372zM105 1102l190 284h387l-309 -284h-268z" />
    <glyph glyph-name="icircumflex" unicode="&#xee;" horiz-adv-x="594" 
d="M111 0v979h372v-979h-372zM-75 1102l208 284h328l209 -284h-264l-109 121l-108 -121h-264z" />
    <glyph glyph-name="idieresis" unicode="&#xef;" horiz-adv-x="594" 
d="M111 0v979h372v-979h-372zM469 1063q-64 0 -106.5 41.5t-42.5 106.5q0 64 42.5 105.5t106.5 41.5q65 0 107.5 -41.5t42.5 -106.5q0 -64 -42.5 -105.5t-107.5 -41.5zM126 1063q-65 0 -107.5 41.5t-42.5 106.5q0 64 42.5 105.5t107.5 41.5q64 0 106.5 -41.5t42.5 -106.5
q0 -64 -42.5 -105.5t-106.5 -41.5z" />
    <glyph glyph-name="eth" unicode="&#xf0;" horiz-adv-x="1204" 
d="M598 -18q-152 0 -272 54.5t-189 161.5t-69 265q0 157 67.5 263.5t181 161t250.5 54.5q122 0 173 -48.5t65 -145.5l-39 2q2 41 -26.5 90.5t-76.5 103t-106.5 106.5t-116.5 101l-233 195h424l139 -117q122 -102 203.5 -217.5t122.5 -240t41 -253.5q0 -182 -70 -301
t-191.5 -177t-277.5 -58zM604 262q64 0 98.5 31t48 77.5t13.5 92.5q0 44 -13.5 90t-48 77.5t-98.5 31.5q-65 0 -101.5 -31.5t-50.5 -77.5t-14 -90q0 -46 14 -92.5t50.5 -77.5t101.5 -31zM213 948v203l399 106v-6l402 103v-205l-402 -102v6z" />
    <glyph glyph-name="ntilde" unicode="&#xf1;" horiz-adv-x="1229" 
d="M111 0v979h360l4 -141q53 66 128.5 110.5t199.5 44.5q144 0 232.5 -85t88.5 -265v-643h-372v598q0 34 -11.5 57t-33.5 35t-54 12q-46 0 -88.5 -23.5t-81.5 -70.5v-608h-372zM283 1094q12 138 75.5 206t168.5 68q47 0 84.5 -14.5t66.5 -26.5t53 -22.5t43 -10.5
q22 0 33 14.5t14 57.5h185q-14 -139 -67.5 -199.5t-160.5 -60.5q-43 0 -78.5 10.5t-70.5 26.5q-32 14 -57 22.5t-43 8.5q-28 0 -43 -17t-21 -63h-182z" />
    <glyph glyph-name="ograve" unicode="&#xf2;" horiz-adv-x="1204" 
d="M604 -20q-155 0 -276.5 57.5t-190.5 170.5t-69 277q0 167 69 281.5t190.5 173.5t276.5 59q153 0 273.5 -59t190 -173.5t69.5 -281.5q0 -164 -69.5 -277t-190 -170.5t-273.5 -57.5zM604 260q64 0 98.5 32.5t48 84t13.5 108.5q0 59 -13.5 112.5t-48 87.5t-98.5 34
q-65 0 -101.5 -34t-50.5 -87.5t-14 -112.5q0 -57 14 -108.5t50.5 -84t101.5 -32.5zM516 1102l-307 284h387l189 -284h-269z" />
    <glyph glyph-name="oacute" unicode="&#xf3;" horiz-adv-x="1204" 
d="M604 -20q-155 0 -276.5 57.5t-190.5 170.5t-69 277q0 167 69 281.5t190.5 173.5t276.5 59q153 0 273.5 -59t190 -173.5t69.5 -281.5q0 -164 -69.5 -277t-190 -170.5t-273.5 -57.5zM604 260q64 0 98.5 32.5t48 84t13.5 108.5q0 59 -13.5 112.5t-48 87.5t-98.5 34
q-65 0 -101.5 -34t-50.5 -87.5t-14 -112.5q0 -57 14 -108.5t50.5 -84t101.5 -32.5zM410 1102l190 284h387l-309 -284h-268z" />
    <glyph glyph-name="ocircumflex" unicode="&#xf4;" horiz-adv-x="1204" 
d="M604 -20q-155 0 -276.5 57.5t-190.5 170.5t-69 277q0 167 69 281.5t190.5 173.5t276.5 59q153 0 273.5 -59t190 -173.5t69.5 -281.5q0 -164 -69.5 -277t-190 -170.5t-273.5 -57.5zM604 260q64 0 98.5 32.5t48 84t13.5 108.5q0 59 -13.5 112.5t-48 87.5t-98.5 34
q-65 0 -101.5 -34t-50.5 -87.5t-14 -112.5q0 -57 14 -108.5t50.5 -84t101.5 -32.5zM230 1102l208 284h328l209 -284h-264l-109 121l-108 -121h-264z" />
    <glyph glyph-name="otilde" unicode="&#xf5;" horiz-adv-x="1204" 
d="M604 -20q-155 0 -276.5 57.5t-190.5 170.5t-69 277q0 167 69 281.5t190.5 173.5t276.5 59q153 0 273.5 -59t190 -173.5t69.5 -281.5q0 -164 -69.5 -277t-190 -170.5t-273.5 -57.5zM604 260q64 0 98.5 32.5t48 84t13.5 108.5q0 59 -13.5 112.5t-48 87.5t-98.5 34
q-65 0 -101.5 -34t-50.5 -87.5t-14 -112.5q0 -57 14 -108.5t50.5 -84t101.5 -32.5zM242 1094q12 138 75.5 206t168.5 68q47 0 84.5 -14.5t66.5 -26.5t53 -22.5t43 -10.5q22 0 33 14.5t14 57.5h185q-14 -139 -67.5 -199.5t-160.5 -60.5q-43 0 -78.5 10.5t-70.5 26.5
q-32 14 -57 22.5t-43 8.5q-28 0 -43 -17t-21 -63h-182z" />
    <glyph glyph-name="odieresis" unicode="&#xf6;" horiz-adv-x="1204" 
d="M604 -20q-155 0 -276.5 57.5t-190.5 170.5t-69 277q0 167 69 281.5t190.5 173.5t276.5 59q153 0 273.5 -59t190 -173.5t69.5 -281.5q0 -164 -69.5 -277t-190 -170.5t-273.5 -57.5zM604 260q64 0 98.5 32.5t48 84t13.5 108.5q0 59 -13.5 112.5t-48 87.5t-98.5 34
q-65 0 -101.5 -34t-50.5 -87.5t-14 -112.5q0 -57 14 -108.5t50.5 -84t101.5 -32.5zM811 1063q-63 0 -106 41.5t-43 106.5q0 64 43 105.5t106 41.5q65 0 108.5 -41.5t43.5 -106.5q0 -64 -43.5 -105.5t-108.5 -41.5zM393 1063q-64 0 -107.5 41.5t-43.5 106.5q0 64 43.5 105.5
t107.5 41.5q63 0 106.5 -41.5t43.5 -106.5q0 -64 -43.5 -105.5t-106.5 -41.5z" />
    <glyph glyph-name="divide" unicode="&#xf7;" 
d="M86 807h1016v-283h-1016v283zM596 66q-91 0 -145 55.5t-54 130.5q0 85 54 134.5t145 49.5q89 0 143 -49.5t54 -134.5q0 -75 -54 -130.5t-143 -55.5zM596 895q-91 0 -145 54t-54 130q0 86 54 136.5t145 50.5q89 0 143 -50.5t54 -136.5q0 -76 -54 -130t-143 -54z" />
    <glyph glyph-name="oslash" unicode="&#xf8;" horiz-adv-x="1204" 
d="M207 -119l-135 119l925 1087l133 -118zM604 -18q-155 0 -276.5 57t-190.5 169t-69 275t69 275t190.5 169.5t276.5 57.5q153 0 273.5 -57.5t190 -169.5t69.5 -275t-69.5 -275t-190 -169t-273.5 -57zM604 244q70 0 108 34.5t53 89.5t15 115t-15 115.5t-53 91t-108 35.5
q-71 0 -110.5 -35.5t-54.5 -91t-15 -115.5t15 -115t54.5 -89.5t110.5 -34.5z" />
    <glyph glyph-name="ugrave" unicode="&#xf9;" horiz-adv-x="1230" 
d="M427 -14q-145 0 -233.5 85t-88.5 265v643h373v-598q0 -34 11.5 -57.5t33.5 -35.5t53 -12q47 0 89.5 24.5t80.5 70.5v608h373v-979h-360l-4 141q-52 -66 -127.5 -110.5t-200.5 -44.5zM531 1102l-307 284h387l189 -284h-269z" />
    <glyph glyph-name="uacute" unicode="&#xfa;" horiz-adv-x="1230" 
d="M427 -14q-145 0 -233.5 85t-88.5 265v643h373v-598q0 -34 11.5 -57.5t33.5 -35.5t53 -12q47 0 89.5 24.5t80.5 70.5v608h373v-979h-360l-4 141q-52 -66 -127.5 -110.5t-200.5 -44.5zM425 1102l190 284h387l-309 -284h-268z" />
    <glyph glyph-name="ucircumflex" unicode="&#xfb;" horiz-adv-x="1230" 
d="M427 -14q-145 0 -233.5 85t-88.5 265v643h373v-598q0 -34 11.5 -57.5t33.5 -35.5t53 -12q47 0 89.5 24.5t80.5 70.5v608h373v-979h-360l-4 141q-52 -66 -127.5 -110.5t-200.5 -44.5zM245 1102l208 284h328l209 -284h-264l-109 121l-108 -121h-264z" />
    <glyph glyph-name="udieresis" unicode="&#xfc;" horiz-adv-x="1230" 
d="M427 -14q-145 0 -233.5 85t-88.5 265v643h373v-598q0 -34 11.5 -57.5t33.5 -35.5t53 -12q47 0 89.5 24.5t80.5 70.5v608h373v-979h-360l-4 141q-52 -66 -127.5 -110.5t-200.5 -44.5zM826 1063q-63 0 -106 41.5t-43 106.5q0 64 43 105.5t106 41.5q65 0 108.5 -41.5
t43.5 -106.5q0 -64 -43.5 -105.5t-108.5 -41.5zM408 1063q-64 0 -107.5 41.5t-43.5 106.5q0 64 43.5 105.5t107.5 41.5q63 0 106.5 -41.5t43.5 -106.5q0 -64 -43.5 -105.5t-106.5 -41.5z" />
    <glyph glyph-name="yacute" unicode="&#xfd;" horiz-adv-x="1065" 
d="M102 -358v299h97q72 0 113.5 11.5t47.5 33.5l5 14l-385 979h385l188 -637l156 637h376l-333 -979l-35 -98q-31 -87 -79.5 -144.5t-140 -86.5t-253.5 -29h-142zM345 1102l190 284h387l-309 -284h-268z" />
    <glyph glyph-name="thorn" unicode="&#xfe;" horiz-adv-x="1238" 
d="M111 -358v1704h372v-494q53 68 124 104.5t169 36.5q123 0 211.5 -50.5t136 -162t47.5 -295.5q0 -179 -51.5 -290t-145.5 -162t-220 -51q-88 0 -154.5 35.5t-116.5 95.5v-471h-372zM649 258q68 0 109 56.5t41 177.5q0 124 -40.5 176.5t-109.5 52.5q-64 0 -108 -42.5
t-58 -80.5v-223q22 -40 62.5 -78.5t103.5 -38.5z" />
    <glyph glyph-name="ydieresis" unicode="&#xff;" horiz-adv-x="1065" 
d="M102 -358v299h97q72 0 113.5 11.5t47.5 33.5l5 14l-385 979h385l188 -637l156 637h376l-333 -979l-35 -98q-31 -87 -79.5 -144.5t-140 -86.5t-253.5 -29h-142zM746 1063q-63 0 -106 41.5t-43 106.5q0 64 43 105.5t106 41.5q65 0 108.5 -41.5t43.5 -106.5
q0 -64 -43.5 -105.5t-108.5 -41.5zM328 1063q-64 0 -107.5 41.5t-43.5 106.5q0 64 43.5 105.5t107.5 41.5q63 0 106.5 -41.5t43.5 -106.5q0 -64 -43.5 -105.5t-106.5 -41.5z" />
    <glyph glyph-name="Amacron" unicode="&#x100;" horiz-adv-x="1303" 
d="M-20 0l462 1346h412l469 -1346h-410l-59 205h-408l-59 -205h-407zM524 512h246l-123 446zM358 1474v185h582v-185h-582z" />
    <glyph glyph-name="amacron" unicode="&#x101;" horiz-adv-x="1158" 
d="M395 -16q-79 0 -154.5 32t-124 99t-48.5 170q0 139 79 208t219.5 94t325.5 31v33q0 60 -28 82.5t-74 22.5q-55 0 -85 -22.5t-30 -76.5h-344q0 126 57 199t160.5 104t241.5 31q114 0 200.5 -17.5t145 -57t88 -102.5t29.5 -155v-659h-348l-11 106q-57 -59 -127.5 -90.5
t-171.5 -31.5zM522 227q59 0 100.5 26t63.5 54v125q-148 -3 -198 -31.5t-50 -87.5q0 -43 23.5 -64.5t60.5 -21.5zM315 1128v185h582v-185h-582z" />
    <glyph glyph-name="Abreve" unicode="&#x102;" horiz-adv-x="1303" 
d="M-20 0l462 1346h412l469 -1346h-410l-59 205h-408l-59 -205h-407zM524 512h246l-123 446zM651 1430q-100 0 -178 37.5t-122.5 105.5t-43.5 158h195q7 -54 31 -80t56 -33.5t62 -7.5t61.5 7.5t55.5 33.5t29 80h194q3 -90 -41 -158t-121.5 -105.5t-177.5 -37.5z" />
    <glyph glyph-name="abreve" unicode="&#x103;" horiz-adv-x="1158" 
d="M395 -16q-79 0 -154.5 32t-124 99t-48.5 170q0 139 79 208t219.5 94t325.5 31v33q0 60 -28 82.5t-74 22.5q-55 0 -85 -22.5t-30 -76.5h-344q0 126 57 199t160.5 104t241.5 31q114 0 200.5 -17.5t145 -57t88 -102.5t29.5 -155v-659h-348l-11 106q-57 -59 -127.5 -90.5
t-171.5 -31.5zM522 227q59 0 100.5 26t63.5 54v125q-148 -3 -198 -31.5t-50 -87.5q0 -43 23.5 -64.5t60.5 -21.5zM606 1092q-167 0 -251.5 83t-90.5 220h193q9 -80 56 -102.5t93 -22.5q47 0 93.5 21.5t56.5 103.5h192q-7 -137 -91 -220t-251 -83z" />
    <glyph glyph-name="Aogonek" unicode="&#x104;" horiz-adv-x="1303" 
d="M-20 0l462 1346h412l469 -1346h-410l-59 205h-408l-59 -205h-407zM524 512h246l-123 446zM1088 -367q-103 0 -171.5 47.5t-68.5 141.5q0 51 31.5 98t87.5 79.5t131 39.5l125 -33q-57 -14 -89 -51t-32 -66q0 -18 11.5 -32.5t43.5 -14.5q29 0 62 6.5t71 22.5v-197
q-41 -19 -87.5 -30t-114.5 -11z" />
    <glyph glyph-name="aogonek" unicode="&#x105;" horiz-adv-x="1158" 
d="M395 -16q-79 0 -154.5 32t-124 99t-48.5 170q0 139 79 208t219.5 94t325.5 31v33q0 60 -28 82.5t-74 22.5q-55 0 -85 -22.5t-30 -76.5h-344q0 126 57 199t160.5 104t241.5 31q114 0 200.5 -17.5t145 -57t88 -102.5t29.5 -155v-659h-348l-11 106q-57 -59 -127.5 -90.5
t-171.5 -31.5zM522 227q59 0 100.5 26t63.5 54v125q-148 -3 -198 -31.5t-50 -87.5q0 -43 23.5 -64.5t60.5 -21.5zM805 -367q-103 0 -171.5 47.5t-68.5 141.5q0 51 31.5 98t87.5 79.5t131 39.5l125 -33q-57 -14 -89 -51t-32 -66q0 -18 11.5 -32.5t43.5 -14.5q29 0 62 6.5
t71 22.5v-197q-41 -19 -87.5 -30t-114.5 -11z" />
    <glyph glyph-name="Cacute" unicode="&#x106;" horiz-adv-x="1458" 
d="M748 -18q-198 0 -349 82.5t-236 237t-85 370.5q0 217 85 372t236 237.5t349 82.5q179 0 323.5 -61.5t230.5 -177t87 -277.5h-406q-9 60 -38 101.5t-78 63t-119 21.5q-97 0 -156 -48.5t-85 -130.5t-26 -183t26 -183t85 -130t156 -48q112 0 169.5 59.5t63.5 159.5h405
q-8 -170 -81 -293t-211.5 -189t-345.5 -66zM596 1446l182 285h385l-297 -285h-270z" />
    <glyph glyph-name="cacute" unicode="&#x107;" horiz-adv-x="1159" 
d="M596 -18q-162 0 -280.5 58t-183 169t-64.5 270q0 163 65.5 278t184 175.5t278.5 60.5q147 0 256 -45t169.5 -134t59.5 -222h-360q0 53 -30 87t-95 34q-91 0 -124.5 -60t-33.5 -174q0 -70 14.5 -119t49 -74.5t94.5 -25.5q68 0 102.5 40.5t34.5 111.5h359
q-3 -136 -61.5 -232.5t-168 -147t-266.5 -50.5zM388 1102l190 284h387l-309 -284h-268z" />
    <glyph glyph-name="Ccircumflex" unicode="&#x108;" horiz-adv-x="1458" 
d="M748 -18q-198 0 -349 82.5t-236 237t-85 370.5q0 217 85 372t236 237.5t349 82.5q179 0 323.5 -61.5t230.5 -177t87 -277.5h-406q-9 60 -38 101.5t-78 63t-119 21.5q-97 0 -156 -48.5t-85 -130.5t-26 -183t26 -183t85 -130t156 -48q112 0 169.5 59.5t63.5 159.5h405
q-8 -170 -81 -293t-211.5 -189t-345.5 -66zM400 1446l210 285h326l209 -285h-270l-101 141l-100 -141h-274z" />
    <glyph glyph-name="ccircumflex" unicode="&#x109;" horiz-adv-x="1159" 
d="M596 -18q-162 0 -280.5 58t-183 169t-64.5 270q0 163 65.5 278t184 175.5t278.5 60.5q147 0 256 -45t169.5 -134t59.5 -222h-360q0 53 -30 87t-95 34q-91 0 -124.5 -60t-33.5 -174q0 -70 14.5 -119t49 -74.5t94.5 -25.5q68 0 102.5 40.5t34.5 111.5h359
q-3 -136 -61.5 -232.5t-168 -147t-266.5 -50.5zM208 1102l208 284h328l209 -284h-264l-109 121l-108 -121h-264z" />
    <glyph glyph-name="Cdotaccent" unicode="&#x10a;" horiz-adv-x="1458" 
d="M748 -18q-198 0 -349 82.5t-236 237t-85 370.5q0 217 85 372t236 237.5t349 82.5q179 0 323.5 -61.5t230.5 -177t87 -277.5h-406q-9 60 -38 101.5t-78 63t-119 21.5q-97 0 -156 -48.5t-85 -130.5t-26 -183t26 -183t85 -130t156 -48q112 0 169.5 59.5t63.5 159.5h405
q-8 -170 -81 -293t-211.5 -189t-345.5 -66zM772 1413q-100 0 -149 46.5t-49 116.5q0 73 49 118.5t149 45.5q101 0 151 -45.5t50 -118.5q0 -70 -50 -116.5t-151 -46.5z" />
    <glyph glyph-name="cdotaccent" unicode="&#x10b;" horiz-adv-x="1159" 
d="M596 -18q-162 0 -280.5 58t-183 169t-64.5 270q0 163 65.5 278t184 175.5t278.5 60.5q147 0 256 -45t169.5 -134t59.5 -222h-360q0 53 -30 87t-95 34q-91 0 -124.5 -60t-33.5 -174q0 -70 14.5 -119t49 -74.5t94.5 -25.5q68 0 102.5 40.5t34.5 111.5h359
q-3 -136 -61.5 -232.5t-168 -147t-266.5 -50.5zM580 1047q-100 0 -149 46.5t-49 116.5q0 73 49 118.5t149 45.5q101 0 151 -45.5t50 -118.5q0 -70 -50 -116.5t-151 -46.5z" />
    <glyph glyph-name="Ccaron" unicode="&#x10c;" horiz-adv-x="1458" 
d="M748 -18q-198 0 -349 82.5t-236 237t-85 370.5q0 217 85 372t236 237.5t349 82.5q179 0 323.5 -61.5t230.5 -177t87 -277.5h-406q-9 60 -38 101.5t-78 63t-119 21.5q-97 0 -156 -48.5t-85 -130.5t-26 -183t26 -183t85 -130t156 -48q112 0 169.5 59.5t63.5 159.5h405
q-8 -170 -81 -293t-211.5 -189t-345.5 -66zM610 1446l-210 285h272l100 -140l99 140h274l-209 -285h-326z" />
    <glyph glyph-name="ccaron" unicode="&#x10d;" horiz-adv-x="1159" 
d="M596 -18q-162 0 -280.5 58t-183 169t-64.5 270q0 163 65.5 278t184 175.5t278.5 60.5q147 0 256 -45t169.5 -134t59.5 -222h-360q0 53 -30 87t-95 34q-91 0 -124.5 -60t-33.5 -174q0 -70 14.5 -119t49 -74.5t94.5 -25.5q68 0 102.5 40.5t34.5 111.5h359
q-3 -136 -61.5 -232.5t-168 -147t-266.5 -50.5zM418 1102l-210 284h264l108 -116l109 116h264l-209 -284h-326z" />
    <glyph glyph-name="Dcaron" unicode="&#x10e;" horiz-adv-x="1475" 
d="M133 0v1346h557q220 0 378.5 -76t243.5 -225.5t85 -370.5q0 -229 -86.5 -378.5t-245 -222.5t-375.5 -73h-557zM526 326h133q110 0 184 34.5t111 111t37 202.5q0 121 -43.5 197t-118.5 112.5t-170 36.5h-133v-694zM577 1446l-210 285h272l100 -140l99 140h274l-209 -285
h-326z" />
    <glyph glyph-name="dcaron" unicode="&#x10f;" horiz-adv-x="1239" 
d="M463 -16q-123 0 -211.5 54.5t-136 166.5t-47.5 284q0 170 51.5 282.5t145 168t218.5 55.5q105 0 170.5 -40t102.5 -97v488h372v-1346h-360l-14 135q-52 -72 -119.5 -111.5t-171.5 -39.5zM588 256q68 0 111 42.5t57 82.5v223q-19 40 -62.5 78.5t-105.5 38.5
q-64 0 -106 -59t-42 -179q0 -123 41 -175t107 -52zM1180 1028l66 318h340l-181 -318h-225z" />
    <glyph glyph-name="Dcroat" unicode="&#x110;" horiz-adv-x="1475" 
d="M0 512v313h791v-313h-791zM133 0v1346h557q220 0 378.5 -76t243.5 -225.5t85 -370.5q0 -229 -86.5 -378.5t-245 -222.5t-375.5 -73h-557zM526 326h133q110 0 184 34.5t111 111t37 202.5q0 121 -43.5 197t-118.5 112.5t-170 36.5h-133v-694z" />
    <glyph glyph-name="dcroat" unicode="&#x111;" horiz-adv-x="1239" 
d="M549 1065v178h715v-178h-715zM463 -16q-123 0 -211.5 54.5t-136 166.5t-47.5 284q0 170 51.5 282.5t145 168t218.5 55.5q105 0 170.5 -40t102.5 -97v488h372v-1346h-360l-14 135q-52 -72 -119.5 -111.5t-171.5 -39.5zM588 256q68 0 111 42.5t57 82.5v223
q-19 40 -62.5 78.5t-105.5 38.5q-64 0 -106 -59t-42 -179q0 -123 41 -175t107 -52z" />
    <glyph glyph-name="Emacron" unicode="&#x112;" horiz-adv-x="1190" 
d="M133 0v1346h954v-324h-561v-188h496v-312h-496v-198h561v-324h-954zM319 1474v185h582v-185h-582z" />
    <glyph glyph-name="emacron" unicode="&#x113;" horiz-adv-x="1183" 
d="M604 -18q-154 0 -275.5 54t-191 168t-69.5 292q0 161 68 271t187.5 167t272.5 57q238 0 379 -132.5t141 -387.5q0 -10 -1 -26t-3 -27h-674q2 -49 19 -92t54.5 -69t98.5 -26q66 0 109.5 23.5t46.5 77.5h346q-8 -127 -73.5 -204t-177 -111.5t-257.5 -34.5zM446 618h302
q-5 74 -50 106t-102 32q-58 0 -100.5 -35.5t-49.5 -102.5zM303 1128v185h582v-185h-582z" />
    <glyph glyph-name="Ebreve" unicode="&#x114;" horiz-adv-x="1190" 
d="M133 0v1346h954v-324h-561v-188h496v-312h-496v-198h561v-324h-954zM612 1430q-100 0 -178 37.5t-122.5 105.5t-43.5 158h195q7 -54 31 -80t56 -33.5t62 -7.5t61.5 7.5t55.5 33.5t29 80h194q3 -90 -41 -158t-121.5 -105.5t-177.5 -37.5z" />
    <glyph glyph-name="ebreve" unicode="&#x115;" horiz-adv-x="1183" 
d="M604 -18q-154 0 -275.5 54t-191 168t-69.5 292q0 161 68 271t187.5 167t272.5 57q238 0 379 -132.5t141 -387.5q0 -10 -1 -26t-3 -27h-674q2 -49 19 -92t54.5 -69t98.5 -26q66 0 109.5 23.5t46.5 77.5h346q-8 -127 -73.5 -204t-177 -111.5t-257.5 -34.5zM446 618h302
q-5 74 -50 106t-102 32q-58 0 -100.5 -35.5t-49.5 -102.5zM594 1092q-167 0 -251.5 83t-90.5 220h193q9 -80 56 -102.5t93 -22.5q47 0 93.5 21.5t56.5 103.5h192q-7 -137 -91 -220t-251 -83z" />
    <glyph glyph-name="Edotaccent" unicode="&#x116;" horiz-adv-x="1190" 
d="M133 0v1346h954v-324h-561v-188h496v-312h-496v-198h561v-324h-954zM610 1413q-100 0 -149 46.5t-49 116.5q0 73 49 118.5t149 45.5q101 0 151 -45.5t50 -118.5q0 -70 -50 -116.5t-151 -46.5z" />
    <glyph glyph-name="edotaccent" unicode="&#x117;" horiz-adv-x="1183" 
d="M604 -18q-154 0 -275.5 54t-191 168t-69.5 292q0 161 68 271t187.5 167t272.5 57q238 0 379 -132.5t141 -387.5q0 -10 -1 -26t-3 -27h-674q2 -49 19 -92t54.5 -69t98.5 -26q66 0 109.5 23.5t46.5 77.5h346q-8 -127 -73.5 -204t-177 -111.5t-257.5 -34.5zM446 618h302
q-5 74 -50 106t-102 32q-58 0 -100.5 -35.5t-49.5 -102.5zM594 1047q-100 0 -149 46.5t-49 116.5q0 73 49 118.5t149 45.5q101 0 151 -45.5t50 -118.5q0 -70 -50 -116.5t-151 -46.5z" />
    <glyph glyph-name="Eogonek" unicode="&#x118;" horiz-adv-x="1190" 
d="M133 0v1346h954v-324h-561v-188h496v-312h-496v-198h561v-324h-954zM834 -367q-103 0 -171.5 47.5t-68.5 141.5q0 51 31.5 98t87.5 79.5t131 39.5l125 -33q-57 -14 -89 -51t-32 -66q0 -18 11.5 -32.5t43.5 -14.5q29 0 62 6.5t71 22.5v-197q-41 -19 -87.5 -30t-114.5 -11z
" />
    <glyph glyph-name="eogonek" unicode="&#x119;" horiz-adv-x="1183" 
d="M604 -18q-154 0 -275.5 54t-191 168t-69.5 292q0 161 68 271t187.5 167t272.5 57q238 0 379 -132.5t141 -387.5q0 -10 -1 -26t-3 -27h-674q2 -49 19 -92t54.5 -69t98.5 -26q66 0 109.5 23.5t46.5 77.5h346q-8 -127 -73.5 -204t-177 -111.5t-257.5 -34.5zM446 618h302
q-5 74 -50 106t-102 32q-58 0 -100.5 -35.5t-49.5 -102.5zM682 -367q-103 0 -171.5 47.5t-68.5 141.5q0 51 31.5 98t87.5 79.5t131 39.5l125 -33q-57 -14 -89 -51t-32 -66q0 -18 11.5 -32.5t43.5 -14.5q29 0 62 6.5t71 22.5v-197q-41 -19 -87.5 -30t-114.5 -11z" />
    <glyph glyph-name="Ecaron" unicode="&#x11a;" horiz-adv-x="1190" 
d="M133 0v1346h954v-324h-561v-188h496v-312h-496v-198h561v-324h-954zM448 1446l-210 285h272l100 -140l99 140h274l-209 -285h-326z" />
    <glyph glyph-name="ecaron" unicode="&#x11b;" horiz-adv-x="1183" 
d="M604 -18q-154 0 -275.5 54t-191 168t-69.5 292q0 161 68 271t187.5 167t272.5 57q238 0 379 -132.5t141 -387.5q0 -10 -1 -26t-3 -27h-674q2 -49 19 -92t54.5 -69t98.5 -26q66 0 109.5 23.5t46.5 77.5h346q-8 -127 -73.5 -204t-177 -111.5t-257.5 -34.5zM446 618h302
q-5 74 -50 106t-102 32q-58 0 -100.5 -35.5t-49.5 -102.5zM432 1102l-210 284h264l108 -116l109 116h264l-209 -284h-326z" />
    <glyph glyph-name="Gcircumflex" unicode="&#x11c;" horiz-adv-x="1467" 
d="M758 -18q-203 0 -356 81.5t-238.5 236t-85.5 372.5q0 219 85.5 373.5t238.5 236.5t356 82q114 0 222 -28t196 -87.5t143 -153t63 -223.5h-405q-8 50 -35.5 86t-75.5 56t-118 20q-97 0 -156 -48t-85 -129.5t-26 -184.5q0 -102 26.5 -185t87.5 -131.5t163 -48.5
q71 0 120 20t78.5 55.5t40.5 82.5h-266v299h658v-154q0 -191 -71.5 -332.5t-212 -218.5t-347.5 -77zM376 1446l210 285h326l209 -285h-270l-101 141l-100 -141h-274z" />
    <glyph glyph-name="gcircumflex" unicode="&#x11d;" horiz-adv-x="1108" 
d="M555 -377q-193 0 -305.5 35.5t-160.5 92t-48 118.5q0 85 85.5 145t279.5 82l57 137h162q238 0 352.5 -71t114.5 -215q0 -149 -139.5 -236.5t-397.5 -87.5zM551 -162q100 0 140 22t40 54q0 22 -14.5 35.5t-42.5 20.5t-68 7h-190q-22 -13 -32.5 -29.5t-10.5 -35.5
q0 -23 35.5 -48.5t142.5 -25.5zM418 -20q-118 14 -194 45.5t-113 75.5t-37 94q0 68 52.5 111t152.5 81l153 -47q-25 -6 -58.5 -20.5t-33.5 -40.5q0 -19 26 -29t92.5 -13.5t188.5 -3.5zM530 307q-146 0 -248.5 47.5t-156 125.5t-53.5 169q0 96 54 174.5t158 125t253 46.5
q154 0 255.5 -46.5t152 -125t50.5 -174.5q0 -93 -51.5 -170.5t-155 -124.5t-258.5 -47zM539 516q49 0 80.5 33.5t31.5 99.5q0 69 -31.5 103t-80.5 34q-51 0 -85 -34t-34 -103q0 -66 34 -99.5t85 -33.5zM838 801l-90 139q35 116 129.5 158.5t214.5 42.5v-252
q-85 0 -156.5 -14.5t-97.5 -73.5zM183 1102l208 284h328l209 -284h-264l-109 121l-108 -121h-264z" />
    <glyph glyph-name="Gbreve" unicode="&#x11e;" horiz-adv-x="1467" 
d="M758 -18q-203 0 -356 81.5t-238.5 236t-85.5 372.5q0 219 85.5 373.5t238.5 236.5t356 82q114 0 222 -28t196 -87.5t143 -153t63 -223.5h-405q-8 50 -35.5 86t-75.5 56t-118 20q-97 0 -156 -48t-85 -129.5t-26 -184.5q0 -102 26.5 -185t87.5 -131.5t163 -48.5
q71 0 120 20t78.5 55.5t40.5 82.5h-266v299h658v-154q0 -191 -71.5 -332.5t-212 -218.5t-347.5 -77zM750 1430q-100 0 -178 37.5t-122.5 105.5t-43.5 158h195q7 -54 31 -80t56 -33.5t62 -7.5t61.5 7.5t55.5 33.5t29 80h194q3 -90 -41 -158t-121.5 -105.5t-177.5 -37.5z" />
    <glyph glyph-name="gbreve" unicode="&#x11f;" horiz-adv-x="1108" 
d="M555 -377q-193 0 -305.5 35.5t-160.5 92t-48 118.5q0 85 85.5 145t279.5 82l57 137h162q238 0 352.5 -71t114.5 -215q0 -149 -139.5 -236.5t-397.5 -87.5zM551 -162q100 0 140 22t40 54q0 22 -14.5 35.5t-42.5 20.5t-68 7h-190q-22 -13 -32.5 -29.5t-10.5 -35.5
q0 -23 35.5 -48.5t142.5 -25.5zM418 -20q-118 14 -194 45.5t-113 75.5t-37 94q0 68 52.5 111t152.5 81l153 -47q-25 -6 -58.5 -20.5t-33.5 -40.5q0 -19 26 -29t92.5 -13.5t188.5 -3.5zM530 307q-146 0 -248.5 47.5t-156 125.5t-53.5 169q0 96 54 174.5t158 125t253 46.5
q154 0 255.5 -46.5t152 -125t50.5 -174.5q0 -93 -51.5 -170.5t-155 -124.5t-258.5 -47zM539 516q49 0 80.5 33.5t31.5 99.5q0 69 -31.5 103t-80.5 34q-51 0 -85 -34t-34 -103q0 -66 34 -99.5t85 -33.5zM838 801l-90 139q35 116 129.5 158.5t214.5 42.5v-252
q-85 0 -156.5 -14.5t-97.5 -73.5zM555 1092q-167 0 -251.5 83t-90.5 220h193q9 -80 56 -102.5t93 -22.5q47 0 93.5 21.5t56.5 103.5h192q-7 -137 -91 -220t-251 -83z" />
    <glyph glyph-name="Gdotaccent" unicode="&#x120;" horiz-adv-x="1467" 
d="M758 -18q-203 0 -356 81.5t-238.5 236t-85.5 372.5q0 219 85.5 373.5t238.5 236.5t356 82q114 0 222 -28t196 -87.5t143 -153t63 -223.5h-405q-8 50 -35.5 86t-75.5 56t-118 20q-97 0 -156 -48t-85 -129.5t-26 -184.5q0 -102 26.5 -185t87.5 -131.5t163 -48.5
q71 0 120 20t78.5 55.5t40.5 82.5h-266v299h658v-154q0 -191 -71.5 -332.5t-212 -218.5t-347.5 -77zM748 1413q-100 0 -149 46.5t-49 116.5q0 73 49 118.5t149 45.5q101 0 151 -45.5t50 -118.5q0 -70 -50 -116.5t-151 -46.5z" />
    <glyph glyph-name="gdotaccent" unicode="&#x121;" horiz-adv-x="1108" 
d="M555 -377q-193 0 -305.5 35.5t-160.5 92t-48 118.5q0 85 85.5 145t279.5 82l57 137h162q238 0 352.5 -71t114.5 -215q0 -149 -139.5 -236.5t-397.5 -87.5zM551 -162q100 0 140 22t40 54q0 22 -14.5 35.5t-42.5 20.5t-68 7h-190q-22 -13 -32.5 -29.5t-10.5 -35.5
q0 -23 35.5 -48.5t142.5 -25.5zM418 -20q-118 14 -194 45.5t-113 75.5t-37 94q0 68 52.5 111t152.5 81l153 -47q-25 -6 -58.5 -20.5t-33.5 -40.5q0 -19 26 -29t92.5 -13.5t188.5 -3.5zM530 307q-146 0 -248.5 47.5t-156 125.5t-53.5 169q0 96 54 174.5t158 125t253 46.5
q154 0 255.5 -46.5t152 -125t50.5 -174.5q0 -93 -51.5 -170.5t-155 -124.5t-258.5 -47zM539 516q49 0 80.5 33.5t31.5 99.5q0 69 -31.5 103t-80.5 34q-51 0 -85 -34t-34 -103q0 -66 34 -99.5t85 -33.5zM838 801l-90 139q35 116 129.5 158.5t214.5 42.5v-252
q-85 0 -156.5 -14.5t-97.5 -73.5zM555 1047q-100 0 -149 46.5t-49 116.5q0 73 49 118.5t149 45.5q101 0 151 -45.5t50 -118.5q0 -70 -50 -116.5t-151 -46.5z" />
    <glyph glyph-name="uni0122" unicode="&#x122;" horiz-adv-x="1467" 
d="M758 -18q-203 0 -356 81.5t-238.5 236t-85.5 372.5q0 219 85.5 373.5t238.5 236.5t356 82q114 0 222 -28t196 -87.5t143 -153t63 -223.5h-405q-8 50 -35.5 86t-75.5 56t-118 20q-97 0 -156 -48t-85 -129.5t-26 -184.5q0 -102 26.5 -185t87.5 -131.5t163 -48.5
q71 0 120 20t78.5 55.5t40.5 82.5h-266v299h658v-154q0 -191 -71.5 -332.5t-212 -218.5t-347.5 -77zM619 -442l-20 94q63 6 101 27t48 42q-79 -1 -116 31t-37 82q0 41 36.5 74t112.5 33q74 0 115 -39.5t41 -108.5q0 -104 -81 -168t-200 -67z" />
    <glyph glyph-name="uni0123" unicode="&#x123;" horiz-adv-x="1108" 
d="M555 -377q-193 0 -305.5 35.5t-160.5 92t-48 118.5q0 85 85.5 145t279.5 82l57 137h162q238 0 352.5 -71t114.5 -215q0 -149 -139.5 -236.5t-397.5 -87.5zM551 -162q100 0 140 22t40 54q0 22 -14.5 35.5t-42.5 20.5t-68 7h-190q-22 -13 -32.5 -29.5t-10.5 -35.5
q0 -23 35.5 -48.5t142.5 -25.5zM418 -20q-118 14 -194 45.5t-113 75.5t-37 94q0 68 52.5 111t152.5 81l153 -47q-25 -6 -58.5 -20.5t-33.5 -40.5q0 -19 26 -29t92.5 -13.5t188.5 -3.5zM530 307q-146 0 -248.5 47.5t-156 125.5t-53.5 169q0 96 54 174.5t158 125t253 46.5
q154 0 255.5 -46.5t152 -125t50.5 -174.5q0 -93 -51.5 -170.5t-155 -124.5t-258.5 -47zM539 516q49 0 80.5 33.5t31.5 99.5q0 69 -31.5 103t-80.5 34q-51 0 -85 -34t-34 -103q0 -66 34 -99.5t85 -33.5zM838 801l-90 139q35 116 129.5 158.5t214.5 42.5v-252
q-85 0 -156.5 -14.5t-97.5 -73.5zM566 1040q-83 0 -129 43t-46 125t40.5 144.5t109 98t152.5 37.5l24 -108q-57 -10 -92.5 -36t-58.5 -60q80 -7 118.5 -37t38.5 -86q0 -49 -43 -85t-114 -36z" />
    <glyph glyph-name="Hcircumflex" unicode="&#x124;" horiz-adv-x="1526" 
d="M133 0v1346h393v-484h471v484h396v-1346h-396v514h-471v-514h-393zM392 1446l210 285h326l209 -285h-270l-101 141l-100 -141h-274z" />
    <glyph glyph-name="hcircumflex" unicode="&#x125;" horiz-adv-x="1229" 
d="M111 0v1346h364v-508q53 66 128 110.5t198 44.5q146 0 234.5 -83.5t88.5 -266.5v-643h-372v598q0 34 -12 57t-34.5 35t-54.5 12q-46 0 -86.5 -23t-81.5 -71v-608h-372zM242 1469l208 284h328l209 -284h-264l-109 121l-108 -121h-264z" />
    <glyph glyph-name="Hbar" unicode="&#x126;" horiz-adv-x="1526" 
d="M18 1004v180h1508v-180h-1508zM133 0v1346h393v-484h471v484h396v-1346h-396v514h-471v-514h-393z" />
    <glyph glyph-name="hbar" unicode="&#x127;" horiz-adv-x="1229" 
d="M-4 1065v178h721v-178h-721zM111 0v1346h364v-508q53 66 128 110.5t198 44.5q146 0 234.5 -83.5t88.5 -266.5v-643h-372v598q0 34 -12 57t-34.5 35t-54.5 12q-46 0 -86.5 -23t-81.5 -71v-608h-372z" />
    <glyph glyph-name="Itilde" unicode="&#x128;" horiz-adv-x="659" 
d="M133 0v1346h393v-1346h-393zM-30 1440q12 138 75.5 206t168.5 68q47 0 84.5 -14.5t66.5 -26.5t53 -22.5t43 -10.5q22 0 33 14.5t14 57.5h185q-14 -139 -67.5 -199.5t-160.5 -60.5q-43 0 -78.5 10.5t-70.5 26.5q-32 14 -57 22.5t-43 8.5q-28 0 -43 -17t-21 -63h-182z" />
    <glyph glyph-name="itilde" unicode="&#x129;" horiz-adv-x="594" 
d="M111 0v979h372v-979h-372zM-63 1094q12 138 75.5 206t168.5 68q47 0 84.5 -14.5t66.5 -26.5t53 -22.5t43 -10.5q22 0 33 14.5t14 57.5h185q-14 -139 -67.5 -199.5t-160.5 -60.5q-43 0 -78.5 10.5t-70.5 26.5q-32 14 -57 22.5t-43 8.5q-28 0 -43 -17t-21 -63h-182z" />
    <glyph glyph-name="Imacron" unicode="&#x12a;" horiz-adv-x="659" 
d="M133 0v1346h393v-1346h-393zM39 1474v185h582v-185h-582z" />
    <glyph glyph-name="imacron" unicode="&#x12b;" horiz-adv-x="594" 
d="M111 0v979h372v-979h-372zM56 1128v185h485v-185h-485z" />
    <glyph glyph-name="Ibreve" unicode="&#x12c;" horiz-adv-x="659" 
d="M133 0v1346h393v-1346h-393zM332 1430q-100 0 -178 37.5t-122.5 105.5t-43.5 158h195q7 -54 31 -80t56 -33.5t62 -7.5t61.5 7.5t55.5 33.5t29 80h194q3 -90 -41 -158t-121.5 -105.5t-177.5 -37.5z" />
    <glyph glyph-name="ibreve" unicode="&#x12d;" horiz-adv-x="594" 
d="M111 0v979h372v-979h-372zM297 1092q-167 0 -251.5 83t-90.5 220h193q9 -80 56 -102.5t93 -22.5q47 0 93.5 21.5t56.5 103.5h192q-7 -137 -91 -220t-251 -83z" />
    <glyph glyph-name="Iogonek" unicode="&#x12e;" horiz-adv-x="659" 
d="M133 0v1346h393v-1346h-393zM326 -367q-103 0 -171.5 47.5t-68.5 141.5q0 51 31.5 98t87.5 79.5t131 39.5l125 -33q-57 -14 -89 -51t-32 -66q0 -18 11.5 -32.5t43.5 -14.5q29 0 62 6.5t71 22.5v-197q-41 -19 -87.5 -30t-114.5 -11z" />
    <glyph glyph-name="iogonek" unicode="&#x12f;" horiz-adv-x="594" 
d="M111 0v979h372v-979h-372zM297 1047q-100 0 -149 46.5t-49 116.5q0 73 49 118.5t149 45.5q101 0 151 -45.5t50 -118.5q0 -70 -50 -116.5t-151 -46.5zM299 -367q-103 0 -171.5 47.5t-68.5 141.5q0 51 31.5 98t87.5 79.5t131 39.5l125 -33q-57 -14 -89 -51t-32 -66
q0 -18 11.5 -32.5t43.5 -14.5q29 0 62 6.5t71 22.5v-197q-41 -19 -87.5 -30t-114.5 -11z" />
    <glyph glyph-name="Idotaccent" unicode="&#x130;" horiz-adv-x="659" 
d="M133 0v1346h393v-1346h-393zM330 1413q-100 0 -149 46.5t-49 116.5q0 73 49 118.5t149 45.5q101 0 151 -45.5t50 -118.5q0 -70 -50 -116.5t-151 -46.5z" />
    <glyph glyph-name="dotlessi" unicode="&#x131;" horiz-adv-x="594" 
d="M111 0v979h372v-979h-372z" />
    <glyph glyph-name="IJ" unicode="&#x132;" horiz-adv-x="1469" 
d="M133 0v1346h393v-1346h-393zM679 -10v336h132q63 0 109 41t46 145v834h383v-836q0 -176 -56.5 -291.5t-169.5 -172t-284 -56.5h-160z" />
    <glyph glyph-name="ij" unicode="&#x133;" horiz-adv-x="1192" 
d="M111 0v979h372v-979h-372zM297 1047q-101 0 -150 46.5t-49 116.5q0 73 49 118.5t150 45.5t150 -45.5t49 -118.5q0 -70 -49 -116.5t-150 -46.5zM524 -358v288h74q56 0 82.5 28.5t26.5 82.5v938h372v-911q0 -205 -108 -315.5t-328 -110.5h-119zM895 1047q-101 0 -151 46.5
t-50 116.5q0 73 50 118.5t151 45.5t149 -45.5t48 -118.5q0 -70 -48 -116.5t-149 -46.5z" />
    <glyph glyph-name="Jcircumflex" unicode="&#x134;" horiz-adv-x="810" 
d="M20 -10v336h132q63 0 109 41t46 145v834h383v-836q0 -176 -56.5 -291.5t-169.5 -172t-284 -56.5h-160zM122 1446l210 285h326l209 -285h-270l-101 141l-100 -141h-274z" />
    <glyph glyph-name="jcircumflex" unicode="&#x135;" horiz-adv-x="596" 
d="M-72 -358v288h74q56 0 82.5 28.5t26.5 82.5v938h372v-911q0 -205 -108 -315.5t-328 -110.5h-119zM-73 1102l208 284h328l209 -284h-264l-109 121l-108 -121h-264z" />
    <glyph glyph-name="uni0136" unicode="&#x136;" horiz-adv-x="1376" 
d="M133 0v1346h393v-637l406 637h428l-432 -627l448 -719h-438l-412 688v-688h-393zM602 -442l-20 94q63 6 101 27t48 42q-79 -1 -116 31t-37 82q0 41 36.5 74t112.5 33q74 0 115 -39.5t41 -108.5q0 -104 -81 -168t-200 -67z" />
    <glyph glyph-name="uni0137" unicode="&#x137;" horiz-adv-x="1202" 
d="M111 0v1346h372v-807l316 440h389l-326 -442l340 -537h-405l-314 524v-524h-372zM518 -442l-20 94q63 6 101 27t48 42q-79 -1 -116 31t-37 82q0 41 36.5 74t112.5 33q74 0 115 -39.5t41 -108.5q0 -104 -81 -168t-200 -67z" />
    <glyph glyph-name="kgreenlandic" unicode="&#x138;" horiz-adv-x="1202" 
d="M111 0v979h372v-440l316 440h389l-326 -442l340 -537h-405l-314 524v-524h-372z" />
    <glyph glyph-name="Lacute" unicode="&#x139;" horiz-adv-x="1051" 
d="M133 0v1346h393v-1022h500v-324h-893zM154 1446l182 285h385l-297 -285h-270z" />
    <glyph glyph-name="lacute" unicode="&#x13a;" horiz-adv-x="688" 
d="M582 0q-181 0 -283 33t-143 113t-41 221v979h370v-955q0 -61 19 -83.5t82 -22.5h78v-285h-82zM127 1466l190 284h387l-309 -284h-268z" />
    <glyph glyph-name="uni013B" unicode="&#x13b;" horiz-adv-x="1051" 
d="M133 0v1346h393v-1022h500v-324h-893zM469 -442l-20 94q63 6 101 27t48 42q-79 -1 -116 31t-37 82q0 41 36.5 74t112.5 33q74 0 115 -39.5t41 -108.5q0 -104 -81 -168t-200 -67z" />
    <glyph glyph-name="uni013C" unicode="&#x13c;" horiz-adv-x="688" 
d="M582 0q-181 0 -283 33t-143 113t-41 221v979h370v-955q0 -61 19 -83.5t82 -22.5h78v-285h-82zM266 -442l-20 94q63 6 101 27t48 42q-79 -1 -116 31t-37 82q0 41 36.5 74t112.5 33q74 0 115 -39.5t41 -108.5q0 -104 -81 -168t-200 -67z" />
    <glyph glyph-name="Lcaron" unicode="&#x13d;" horiz-adv-x="1051" 
d="M133 0v1346h393v-1022h500v-324h-893zM637 1028l66 318h340l-181 -318h-225z" />
    <glyph glyph-name="lcaron" unicode="&#x13e;" horiz-adv-x="688" 
d="M582 0q-181 0 -283 33t-143 113t-41 221v979h370v-955q0 -61 19 -83.5t82 -22.5h78v-285h-82zM518 1028l66 318h340l-181 -318h-225z" />
    <glyph glyph-name="Ldot" unicode="&#x13f;" horiz-adv-x="1051" 
d="M133 0v1346h393v-1022h500v-324h-893zM856 558q-100 0 -160 59t-60 143q0 95 60 150t160 55q98 0 155.5 -55t57.5 -150q0 -84 -57.5 -143t-155.5 -59z" />
    <glyph glyph-name="ldot" unicode="&#x140;" horiz-adv-x="913" 
d="M582 0q-181 0 -283 33t-143 113t-41 221v979h370v-955q0 -61 19 -83.5t82 -22.5h78v-285h-82zM758 502q-100 0 -160 59t-60 143q0 95 60 150t160 55q98 0 155.5 -55t57.5 -150q0 -84 -57.5 -143t-155.5 -59z" />
    <glyph glyph-name="Lslash" unicode="&#x141;" horiz-adv-x="1051" 
d="M0 311v314l745 376v-313zM133 0v1346h393v-1022h500v-324h-893z" />
    <glyph glyph-name="lslash" unicode="&#x142;" horiz-adv-x="688" 
d="M309 485v312l336 225v-313zM0 322v315l309 203v-312zM582 0q-181 0 -283 33t-143 113t-41 221v979h370v-955q0 -61 19 -83.5t82 -22.5h78v-285h-82z" />
    <glyph glyph-name="Nacute" unicode="&#x143;" horiz-adv-x="1499" 
d="M133 0v1346h379l485 -736v736h369v-1346h-377l-489 745v-745h-367zM559 1446l182 285h385l-297 -285h-270z" />
    <glyph glyph-name="nacute" unicode="&#x144;" horiz-adv-x="1229" 
d="M111 0v979h360l4 -141q53 66 128.5 110.5t199.5 44.5q144 0 232.5 -85t88.5 -265v-643h-372v598q0 34 -11.5 57t-33.5 35t-54 12q-46 0 -88.5 -23.5t-81.5 -70.5v-608h-372zM451 1102l190 284h387l-309 -284h-268z" />
    <glyph glyph-name="uni0145" unicode="&#x145;" horiz-adv-x="1499" 
d="M133 0v1346h379l485 -736v736h369v-1346h-377l-489 745v-745h-367zM614 -442l-20 94q63 6 101 27t48 42q-79 -1 -116 31t-37 82q0 41 36.5 74t112.5 33q74 0 115 -39.5t41 -108.5q0 -104 -81 -168t-200 -67z" />
    <glyph glyph-name="uni0146" unicode="&#x146;" horiz-adv-x="1229" 
d="M111 0v979h360l4 -141q53 66 128.5 110.5t199.5 44.5q144 0 232.5 -85t88.5 -265v-643h-372v598q0 34 -11.5 57t-33.5 35t-54 12q-46 0 -88.5 -23.5t-81.5 -70.5v-608h-372zM489 -442l-20 94q63 6 101 27t48 42q-79 -1 -116 31t-37 82q0 41 36.5 74t112.5 33
q74 0 115 -39.5t41 -108.5q0 -104 -81 -168t-200 -67z" />
    <glyph glyph-name="Ncaron" unicode="&#x147;" horiz-adv-x="1499" 
d="M133 0v1346h379l485 -736v736h369v-1346h-377l-489 745v-745h-367zM573 1446l-210 285h272l100 -140l99 140h274l-209 -285h-326z" />
    <glyph glyph-name="ncaron" unicode="&#x148;" horiz-adv-x="1229" 
d="M111 0v979h360l4 -141q53 66 128.5 110.5t199.5 44.5q144 0 232.5 -85t88.5 -265v-643h-372v598q0 34 -11.5 57t-33.5 35t-54 12q-46 0 -88.5 -23.5t-81.5 -70.5v-608h-372zM481 1102l-210 284h264l108 -116l109 116h264l-209 -284h-326z" />
    <glyph glyph-name="napostrophe" unicode="&#x149;" horiz-adv-x="1528" 
d="M410 0v979h360l4 -141q53 66 128.5 110.5t199.5 44.5q144 0 232.5 -85t88.5 -265v-643h-372v598q0 34 -11.5 57t-33.5 35t-54 12q-46 0 -88.5 -23.5t-81.5 -70.5v-608h-372zM-6 629l-31 172q81 17 126.5 56t55.5 116l23 -19q-100 0 -160 60.5t-60 144.5q0 94 60 149.5
t160 55.5q98 0 156.5 -67.5t58.5 -198.5q0 -156 -61 -259t-151 -155t-177 -55z" />
    <glyph glyph-name="Eng" unicode="&#x14a;" horiz-adv-x="1499" 
d="M133 0v1346h379l485 -725v725h369v-1174l-377 -172l-489 735v-735h-367zM694 -358v335h160q68 0 105.5 43.5t37.5 153.5l369 -2q0 -270 -127 -400t-385 -130h-160z" />
    <glyph glyph-name="eng" unicode="&#x14b;" horiz-adv-x="1229" 
d="M567 -358v288h74q56 0 83.5 18t27.5 52v47h372v-39q0 -172 -109 -269t-329 -97h-119zM111 0v979h360l4 -141q53 66 128.5 110.5t199.5 44.5q144 0 232.5 -85t88.5 -265v-643h-372v598q0 34 -11.5 57t-33.5 35t-54 12q-46 0 -88.5 -23.5t-81.5 -70.5v-608h-372z" />
    <glyph glyph-name="Omacron" unicode="&#x14c;" horiz-adv-x="1497" 
d="M748 -18q-210 0 -360 82.5t-230 237t-80 370.5q0 217 80 372t230 237.5t360 82.5q211 0 361 -82.5t230 -237.5t80 -372q0 -216 -80 -370.5t-230 -237t-361 -82.5zM748 311q97 0 156 50t85.5 132.5t26.5 178.5q0 97 -26.5 179.5t-85.5 132.5t-156 50t-156 -48.5
t-85 -130.5t-26 -183q0 -102 26 -184t85 -129.5t156 -47.5zM457 1474v185h582v-185h-582z" />
    <glyph glyph-name="omacron" unicode="&#x14d;" horiz-adv-x="1204" 
d="M604 -20q-155 0 -276.5 57.5t-190.5 170.5t-69 277q0 167 69 281.5t190.5 173.5t276.5 59q153 0 273.5 -59t190 -173.5t69.5 -281.5q0 -164 -69.5 -277t-190 -170.5t-273.5 -57.5zM604 260q64 0 98.5 32.5t48 84t13.5 108.5q0 59 -13.5 112.5t-48 87.5t-98.5 34
q-65 0 -101.5 -34t-50.5 -87.5t-14 -112.5q0 -57 14 -108.5t50.5 -84t101.5 -32.5zM311 1128v185h582v-185h-582z" />
    <glyph glyph-name="Obreve" unicode="&#x14e;" horiz-adv-x="1497" 
d="M748 -18q-210 0 -360 82.5t-230 237t-80 370.5q0 217 80 372t230 237.5t360 82.5q211 0 361 -82.5t230 -237.5t80 -372q0 -216 -80 -370.5t-230 -237t-361 -82.5zM748 311q97 0 156 50t85.5 132.5t26.5 178.5q0 97 -26.5 179.5t-85.5 132.5t-156 50t-156 -48.5
t-85 -130.5t-26 -183q0 -102 26 -184t85 -129.5t156 -47.5zM750 1430q-100 0 -178 37.5t-122.5 105.5t-43.5 158h195q7 -54 31 -80t56 -33.5t62 -7.5t61.5 7.5t55.5 33.5t29 80h194q3 -90 -41 -158t-121.5 -105.5t-177.5 -37.5z" />
    <glyph glyph-name="obreve" unicode="&#x14f;" horiz-adv-x="1204" 
d="M604 -20q-155 0 -276.5 57.5t-190.5 170.5t-69 277q0 167 69 281.5t190.5 173.5t276.5 59q153 0 273.5 -59t190 -173.5t69.5 -281.5q0 -164 -69.5 -277t-190 -170.5t-273.5 -57.5zM604 260q64 0 98.5 32.5t48 84t13.5 108.5q0 59 -13.5 112.5t-48 87.5t-98.5 34
q-65 0 -101.5 -34t-50.5 -87.5t-14 -112.5q0 -57 14 -108.5t50.5 -84t101.5 -32.5zM602 1092q-167 0 -251.5 83t-90.5 220h193q9 -80 56 -102.5t93 -22.5q47 0 93.5 21.5t56.5 103.5h192q-7 -137 -91 -220t-251 -83z" />
    <glyph glyph-name="Ohungarumlaut" unicode="&#x150;" horiz-adv-x="1497" 
d="M748 -18q-210 0 -360 82.5t-230 237t-80 370.5q0 217 80 372t230 237.5t360 82.5q211 0 361 -82.5t230 -237.5t80 -372q0 -216 -80 -370.5t-230 -237t-361 -82.5zM748 311q97 0 156 50t85.5 132.5t26.5 178.5q0 97 -26.5 179.5t-85.5 132.5t-156 50t-156 -48.5
t-85 -130.5t-26 -183q0 -102 26 -184t85 -129.5t156 -47.5zM793 1446l199 284h244l-254 -284h-189zM433 1446l196 284h246l-256 -284h-186z" />
    <glyph glyph-name="ohungarumlaut" unicode="&#x151;" horiz-adv-x="1204" 
d="M604 -20q-155 0 -276.5 57.5t-190.5 170.5t-69 277q0 167 69 281.5t190.5 173.5t276.5 59q153 0 273.5 -59t190 -173.5t69.5 -281.5q0 -164 -69.5 -277t-190 -170.5t-273.5 -57.5zM604 260q64 0 98.5 32.5t48 84t13.5 108.5q0 59 -13.5 112.5t-48 87.5t-98.5 34
q-65 0 -101.5 -34t-50.5 -87.5t-14 -112.5q0 -57 14 -108.5t50.5 -84t101.5 -32.5zM647 1102l199 284h244l-254 -284h-189zM287 1102l196 284h246l-256 -284h-186z" />
    <glyph glyph-name="OE" unicode="&#x152;" horiz-adv-x="2071" 
d="M707 -18q-189 0 -330.5 82t-220 236.5t-78.5 371.5q0 219 78.5 373.5t220 236.5t330.5 82q156 0 258 -53t160 -147.5t82 -220t24 -271.5q0 -144 -24 -269.5t-82 -220t-160 -147.5t-258 -53zM750 311q96 0 154 50t84 132.5t26 178.5q0 97 -26 179.5t-84 132.5t-154 50
q-97 0 -156 -50t-85 -132.5t-26 -179.5q0 -96 26 -178.5t85 -132.5t156 -50zM1014 0v1346h954v-324h-561v-188h496v-312h-496v-198h561v-324h-954z" />
    <glyph glyph-name="oe" unicode="&#x153;" horiz-adv-x="1879" 
d="M604 -20q-155 0 -276.5 57.5t-190.5 170.5t-69 277q0 167 69 281.5t190.5 173.5t276.5 59q147 0 262.5 -59t182.5 -173.5t67 -281.5q0 -164 -67 -277t-182.5 -170.5t-262.5 -57.5zM604 260q64 0 98.5 32.5t48 84t13.5 108.5q0 59 -13.5 112.5t-48 87.5t-98.5 34
q-65 0 -101.5 -34t-50.5 -87.5t-14 -112.5q0 -57 14 -108.5t50.5 -84t101.5 -32.5zM1300 -18q-154 0 -265.5 54t-171.5 168t-60 292q0 161 58.5 271t168 167t262.5 57q239 0 379.5 -132.5t140.5 -387.5q0 -10 -1 -26t-3 -27h-673q2 -49 19 -92t54.5 -69t98.5 -26
q66 0 109 23.5t46 77.5h346q-8 -127 -73.5 -204t-177 -111.5t-257.5 -34.5zM1143 618h301q-4 74 -49.5 106t-102.5 32q-58 0 -100.5 -35.5t-48.5 -102.5z" />
    <glyph glyph-name="Racute" unicode="&#x154;" horiz-adv-x="1333" 
d="M133 0v1346h586q149 0 263.5 -35.5t179.5 -119.5t65 -230q0 -127 -72 -215.5t-201 -133.5q100 -15 153 -54.5t82 -105.5t56 -159l88 -293h-401l-53 207q-26 98 -50.5 152t-66 75t-117.5 21h-119v-455h-393zM526 764h131q54 0 90 17.5t54 49.5t18 76q0 71 -40 100t-87 29
h-166v-272zM494 1446l182 285h385l-297 -285h-270z" />
    <glyph glyph-name="racute" unicode="&#x155;" horiz-adv-x="823" 
d="M111 0v979h362l4 -172q34 100 112.5 143t178.5 43h18v-301h-24q-45 0 -97.5 -7t-101 -29t-80.5 -68v-588h-372zM254 1102l190 284h387l-309 -284h-268z" />
    <glyph glyph-name="uni0156" unicode="&#x156;" horiz-adv-x="1333" 
d="M133 0v1346h586q149 0 263.5 -35.5t179.5 -119.5t65 -230q0 -127 -72 -215.5t-201 -133.5q100 -15 153 -54.5t82 -105.5t56 -159l88 -293h-401l-53 207q-26 98 -50.5 152t-66 75t-117.5 21h-119v-455h-393zM526 764h131q54 0 90 17.5t54 49.5t18 76q0 71 -40 100t-87 29
h-166v-272zM600 -442l-20 94q63 6 101 27t48 42q-79 -1 -116 31t-37 82q0 41 36.5 74t112.5 33q74 0 115 -39.5t41 -108.5q0 -104 -81 -168t-200 -67z" />
    <glyph glyph-name="uni0157" unicode="&#x157;" horiz-adv-x="823" 
d="M111 0v979h362l4 -172q34 100 112.5 143t178.5 43h18v-301h-24q-45 0 -97.5 -7t-101 -29t-80.5 -68v-588h-372zM170 -442l-20 94q63 6 101 27t48 42q-79 -1 -116 31t-37 82q0 41 36.5 74t112.5 33q74 0 115 -39.5t41 -108.5q0 -104 -81 -168t-200 -67z" />
    <glyph glyph-name="Rcaron" unicode="&#x158;" horiz-adv-x="1333" 
d="M133 0v1346h586q149 0 263.5 -35.5t179.5 -119.5t65 -230q0 -127 -72 -215.5t-201 -133.5q100 -15 153 -54.5t82 -105.5t56 -159l88 -293h-401l-53 207q-26 98 -50.5 152t-66 75t-117.5 21h-119v-455h-393zM526 764h131q54 0 90 17.5t54 49.5t18 76q0 71 -40 100t-87 29
h-166v-272zM508 1446l-210 285h272l100 -140l99 140h274l-209 -285h-326z" />
    <glyph glyph-name="rcaron" unicode="&#x159;" horiz-adv-x="823" 
d="M111 0v979h362l4 -172q34 100 112.5 143t178.5 43h18v-301h-24q-45 0 -97.5 -7t-101 -29t-80.5 -68v-588h-372zM284 1102l-210 284h264l108 -116l109 116h264l-209 -284h-326z" />
    <glyph glyph-name="Sacute" unicode="&#x15a;" horiz-adv-x="1272" 
d="M635 -18q-162 0 -291 44.5t-204.5 142t-78.5 257.5h406q4 -49 24 -78t57 -42t91 -13q56 0 91.5 9.5t53 28.5t17.5 46q0 28 -18 49t-71.5 44.5t-162.5 57.5q-125 40 -231 89t-170 131t-64 219q0 149 74 235t197.5 123t271.5 37q152 0 276 -42t197.5 -132t73.5 -234h-406
q0 53 -38 81t-103 28q-58 0 -96.5 -18t-38.5 -50q0 -21 18 -39.5t77 -42.5t181 -63q150 -47 248 -99.5t146 -134t48 -217.5q0 -154 -78 -245.5t-208.5 -131.5t-288.5 -40zM461 1446l182 285h385l-297 -285h-270z" />
    <glyph glyph-name="sacute" unicode="&#x15b;" horiz-adv-x="1083" 
d="M535 -20q-90 0 -173 12.5t-148.5 46t-103.5 95t-38 159.5h338q0 -46 34.5 -62t87.5 -16q51 0 85 12.5t34 44.5q0 34 -41 53t-170 48q-95 21 -178 57t-134.5 99.5t-51.5 164.5q0 92 40 150.5t106 90.5t145.5 45t158.5 13q85 0 165 -14t143.5 -48t101 -93t37.5 -148h-338
q0 38 -30 56t-75 18q-46 0 -72 -10.5t-26 -32.5q0 -13 17 -27t70.5 -32.5t160.5 -45.5q103 -25 177 -58.5t114.5 -91t40.5 -157.5q0 -90 -38.5 -152.5t-105 -101.5t-152.5 -57t-181 -18zM349 1102l190 284h387l-309 -284h-268z" />
    <glyph glyph-name="Scircumflex" unicode="&#x15c;" horiz-adv-x="1272" 
d="M635 -18q-162 0 -291 44.5t-204.5 142t-78.5 257.5h406q4 -49 24 -78t57 -42t91 -13q56 0 91.5 9.5t53 28.5t17.5 46q0 28 -18 49t-71.5 44.5t-162.5 57.5q-125 40 -231 89t-170 131t-64 219q0 149 74 235t197.5 123t271.5 37q152 0 276 -42t197.5 -132t73.5 -234h-406
q0 53 -38 81t-103 28q-58 0 -96.5 -18t-38.5 -50q0 -21 18 -39.5t77 -42.5t181 -63q150 -47 248 -99.5t146 -134t48 -217.5q0 -154 -78 -245.5t-208.5 -131.5t-288.5 -40zM265 1446l210 285h326l209 -285h-270l-101 141l-100 -141h-274z" />
    <glyph glyph-name="scircumflex" unicode="&#x15d;" horiz-adv-x="1083" 
d="M535 -20q-90 0 -173 12.5t-148.5 46t-103.5 95t-38 159.5h338q0 -46 34.5 -62t87.5 -16q51 0 85 12.5t34 44.5q0 34 -41 53t-170 48q-95 21 -178 57t-134.5 99.5t-51.5 164.5q0 92 40 150.5t106 90.5t145.5 45t158.5 13q85 0 165 -14t143.5 -48t101 -93t37.5 -148h-338
q0 38 -30 56t-75 18q-46 0 -72 -10.5t-26 -32.5q0 -13 17 -27t70.5 -32.5t160.5 -45.5q103 -25 177 -58.5t114.5 -91t40.5 -157.5q0 -90 -38.5 -152.5t-105 -101.5t-152.5 -57t-181 -18zM169 1102l208 284h328l209 -284h-264l-109 121l-108 -121h-264z" />
    <glyph glyph-name="Scedilla" unicode="&#x15e;" horiz-adv-x="1272" 
d="M635 -18q-162 0 -291 44.5t-204.5 142t-78.5 257.5h406q4 -49 24 -78t57 -42t91 -13q56 0 91.5 9.5t53 28.5t17.5 46q0 28 -18 49t-71.5 44.5t-162.5 57.5q-125 40 -231 89t-170 131t-64 219q0 149 74 235t197.5 123t271.5 37q152 0 276 -42t197.5 -132t73.5 -234h-406
q0 53 -38 81t-103 28q-58 0 -96.5 -18t-38.5 -50q0 -21 18 -39.5t77 -42.5t181 -63q150 -47 248 -99.5t146 -134t48 -217.5q0 -154 -78 -245.5t-208.5 -131.5t-288.5 -40zM642 -377q-88 0 -142.5 13t-103.5 32l45 144q44 -20 89 -29.5t91 -9.5q32 0 48 11.5t16 33.5
q0 20 -24 36.5t-99 32.5l-45 11l143 165l121 -36l-55 -66l-70 14q97 0 166 -42.5t69 -133.5q0 -58 -35.5 -97t-92 -59t-121.5 -20z" />
    <glyph glyph-name="scedilla" unicode="&#x15f;" horiz-adv-x="1083" 
d="M535 -20q-90 0 -173 12.5t-148.5 46t-103.5 95t-38 159.5h338q0 -46 34.5 -62t87.5 -16q51 0 85 12.5t34 44.5q0 34 -41 53t-170 48q-95 21 -178 57t-134.5 99.5t-51.5 164.5q0 92 40 150.5t106 90.5t145.5 45t158.5 13q85 0 165 -14t143.5 -48t101 -93t37.5 -148h-338
q0 38 -30 56t-75 18q-46 0 -72 -10.5t-26 -32.5q0 -13 17 -27t70.5 -32.5t160.5 -45.5q103 -25 177 -58.5t114.5 -91t40.5 -157.5q0 -90 -38.5 -152.5t-105 -101.5t-152.5 -57t-181 -18zM537 -377q-88 0 -142.5 13t-103.5 32l45 144q44 -20 89 -29.5t91 -9.5q32 0 48 11.5
t16 33.5q0 20 -24 36.5t-99 32.5l-45 11l143 165l121 -36l-55 -66l-70 14q97 0 166 -42.5t69 -133.5q0 -58 -35.5 -97t-92 -59t-121.5 -20z" />
    <glyph glyph-name="Scaron" unicode="&#x160;" horiz-adv-x="1272" 
d="M635 -18q-162 0 -291 44.5t-204.5 142t-78.5 257.5h406q4 -49 24 -78t57 -42t91 -13q56 0 91.5 9.5t53 28.5t17.5 46q0 28 -18 49t-71.5 44.5t-162.5 57.5q-125 40 -231 89t-170 131t-64 219q0 149 74 235t197.5 123t271.5 37q152 0 276 -42t197.5 -132t73.5 -234h-406
q0 53 -38 81t-103 28q-58 0 -96.5 -18t-38.5 -50q0 -21 18 -39.5t77 -42.5t181 -63q150 -47 248 -99.5t146 -134t48 -217.5q0 -154 -78 -245.5t-208.5 -131.5t-288.5 -40zM475 1446l-210 285h272l100 -140l99 140h274l-209 -285h-326z" />
    <glyph glyph-name="scaron" unicode="&#x161;" horiz-adv-x="1083" 
d="M535 -20q-90 0 -173 12.5t-148.5 46t-103.5 95t-38 159.5h338q0 -46 34.5 -62t87.5 -16q51 0 85 12.5t34 44.5q0 34 -41 53t-170 48q-95 21 -178 57t-134.5 99.5t-51.5 164.5q0 92 40 150.5t106 90.5t145.5 45t158.5 13q85 0 165 -14t143.5 -48t101 -93t37.5 -148h-338
q0 38 -30 56t-75 18q-46 0 -72 -10.5t-26 -32.5q0 -13 17 -27t70.5 -32.5t160.5 -45.5q103 -25 177 -58.5t114.5 -91t40.5 -157.5q0 -90 -38.5 -152.5t-105 -101.5t-152.5 -57t-181 -18zM379 1102l-210 284h264l108 -116l109 116h264l-209 -284h-326z" />
    <glyph glyph-name="uni0162" unicode="&#x162;" horiz-adv-x="1087" 
d="M348 0v1022h-334v324h1059v-324h-332v-1022h-393zM527 -377q-88 0 -142.5 13t-103.5 32l45 144q44 -20 89 -29.5t91 -9.5q32 0 48 11.5t16 33.5q0 20 -24 36.5t-99 32.5l-45 11l143 165l121 -36l-55 -66l-70 14q97 0 166 -42.5t69 -133.5q0 -58 -35.5 -97t-92 -59
t-121.5 -20z" />
    <glyph glyph-name="uni0163" unicode="&#x163;" horiz-adv-x="793" 
d="M641 0q-181 0 -283 33t-144 113t-42 221v329h-160v283h160v240h373v-240h186v-283h-186v-305q0 -61 20.5 -83.5t81.5 -22.5h80v-285h-86zM408 -377q-88 0 -142.5 13t-103.5 32l45 144q44 -20 89 -29.5t91 -9.5q32 0 48 11.5t16 33.5q0 20 -24 36.5t-99 32.5l-45 11
l143 165l121 -36l-55 -66l-70 14q97 0 166 -42.5t69 -133.5q0 -58 -35.5 -97t-92 -59t-121.5 -20z" />
    <glyph glyph-name="Tcaron" unicode="&#x164;" horiz-adv-x="1087" 
d="M348 0v1022h-334v324h1059v-324h-332v-1022h-393zM383 1446l-210 285h272l100 -140l99 140h274l-209 -285h-326z" />
    <glyph glyph-name="tcaron" unicode="&#x165;" horiz-adv-x="793" 
d="M641 0q-181 0 -283 33t-144 113t-42 221v329h-160v283h160v240h373v-240h186v-283h-186v-305q0 -61 20.5 -83.5t81.5 -22.5h80v-285h-86zM641 1068l66 318h340l-181 -318h-225z" />
    <glyph glyph-name="Tbar" unicode="&#x166;" horiz-adv-x="1087" 
d="M145 449v317h807v-317h-807zM348 0v1022h-334v324h1059v-324h-332v-1022h-393z" />
    <glyph glyph-name="tbar" unicode="&#x167;" horiz-adv-x="793" 
d="M12 420v180h719v-180h-719zM641 0q-181 0 -283 33t-144 113t-42 221v329h-160v283h160v240h373v-240h186v-283h-186v-305q0 -61 20.5 -83.5t81.5 -22.5h80v-285h-86z" />
    <glyph glyph-name="Utilde" unicode="&#x168;" horiz-adv-x="1483" 
d="M740 -20q-215 0 -352 61.5t-202.5 192.5t-65.5 339v773h405v-762q0 -140 53 -207.5t166 -67.5t163 67.5t50 207.5v762h406v-773q0 -208 -66 -339t-204 -192.5t-353 -61.5zM380 1440q12 138 75.5 206t168.5 68q47 0 84.5 -14.5t66.5 -26.5t53 -22.5t43 -10.5q22 0 33 14.5
t14 57.5h185q-14 -139 -67.5 -199.5t-160.5 -60.5q-43 0 -78.5 10.5t-70.5 26.5q-32 14 -57 22.5t-43 8.5q-28 0 -43 -17t-21 -63h-182z" />
    <glyph glyph-name="utilde" unicode="&#x169;" horiz-adv-x="1230" 
d="M427 -14q-145 0 -233.5 85t-88.5 265v643h373v-598q0 -34 11.5 -57.5t33.5 -35.5t53 -12q47 0 89.5 24.5t80.5 70.5v608h373v-979h-360l-4 141q-52 -66 -127.5 -110.5t-200.5 -44.5zM257 1094q12 138 75.5 206t168.5 68q47 0 84.5 -14.5t66.5 -26.5t53 -22.5t43 -10.5
q22 0 33 14.5t14 57.5h185q-14 -139 -67.5 -199.5t-160.5 -60.5q-43 0 -78.5 10.5t-70.5 26.5q-32 14 -57 22.5t-43 8.5q-28 0 -43 -17t-21 -63h-182z" />
    <glyph glyph-name="Umacron" unicode="&#x16a;" horiz-adv-x="1483" 
d="M740 -20q-215 0 -352 61.5t-202.5 192.5t-65.5 339v773h405v-762q0 -140 53 -207.5t166 -67.5t163 67.5t50 207.5v762h406v-773q0 -208 -66 -339t-204 -192.5t-353 -61.5zM449 1474v185h582v-185h-582z" />
    <glyph glyph-name="umacron" unicode="&#x16b;" horiz-adv-x="1230" 
d="M427 -14q-145 0 -233.5 85t-88.5 265v643h373v-598q0 -34 11.5 -57.5t33.5 -35.5t53 -12q47 0 89.5 24.5t80.5 70.5v608h373v-979h-360l-4 141q-52 -66 -127.5 -110.5t-200.5 -44.5zM326 1128v185h582v-185h-582z" />
    <glyph glyph-name="Ubreve" unicode="&#x16c;" horiz-adv-x="1483" 
d="M740 -20q-215 0 -352 61.5t-202.5 192.5t-65.5 339v773h405v-762q0 -140 53 -207.5t166 -67.5t163 67.5t50 207.5v762h406v-773q0 -208 -66 -339t-204 -192.5t-353 -61.5zM742 1430q-100 0 -178 37.5t-122.5 105.5t-43.5 158h195q7 -54 31 -80t56 -33.5t62 -7.5t61.5 7.5
t55.5 33.5t29 80h194q3 -90 -41 -158t-121.5 -105.5t-177.5 -37.5z" />
    <glyph glyph-name="ubreve" unicode="&#x16d;" horiz-adv-x="1230" 
d="M427 -14q-145 0 -233.5 85t-88.5 265v643h373v-598q0 -34 11.5 -57.5t33.5 -35.5t53 -12q47 0 89.5 24.5t80.5 70.5v608h373v-979h-360l-4 141q-52 -66 -127.5 -110.5t-200.5 -44.5zM617 1092q-167 0 -251.5 83t-90.5 220h193q9 -80 56 -102.5t93 -22.5q47 0 93.5 21.5
t56.5 103.5h192q-7 -137 -91 -220t-251 -83z" />
    <glyph glyph-name="Uring" unicode="&#x16e;" horiz-adv-x="1483" 
d="M740 -20q-215 0 -352 61.5t-202.5 192.5t-65.5 339v773h405v-762q0 -140 53 -207.5t166 -67.5t163 67.5t50 207.5v762h406v-773q0 -208 -66 -339t-204 -192.5t-353 -61.5zM740 1384q-94 0 -156.5 54.5t-62.5 148.5t62.5 147.5t156.5 53.5q95 0 158 -53.5t63 -147.5
t-63 -148.5t-158 -54.5zM740 1517q29 0 49.5 20.5t20.5 49.5t-20.5 48.5t-49.5 19.5t-49 -19.5t-20 -48.5t20 -49.5t49 -20.5z" />
    <glyph glyph-name="uring" unicode="&#x16f;" horiz-adv-x="1230" 
d="M427 -14q-145 0 -233.5 85t-88.5 265v643h373v-598q0 -34 11.5 -57.5t33.5 -35.5t53 -12q47 0 89.5 24.5t80.5 70.5v608h373v-979h-360l-4 141q-52 -66 -127.5 -110.5t-200.5 -44.5zM617 1079q-94 0 -156.5 54.5t-62.5 148.5t62.5 147.5t156.5 53.5q95 0 158 -53.5
t63 -147.5t-63 -148.5t-158 -54.5zM617 1212q29 0 49.5 20.5t20.5 49.5t-20.5 48.5t-49.5 19.5t-49 -19.5t-20 -48.5t20 -49.5t49 -20.5z" />
    <glyph glyph-name="Uhungarumlaut" unicode="&#x170;" horiz-adv-x="1483" 
d="M740 -20q-215 0 -352 61.5t-202.5 192.5t-65.5 339v773h405v-762q0 -140 53 -207.5t166 -67.5t163 67.5t50 207.5v762h406v-773q0 -208 -66 -339t-204 -192.5t-353 -61.5zM785 1446l199 284h244l-254 -284h-189zM425 1446l196 284h246l-256 -284h-186z" />
    <glyph glyph-name="uhungarumlaut" unicode="&#x171;" horiz-adv-x="1230" 
d="M427 -14q-145 0 -233.5 85t-88.5 265v643h373v-598q0 -34 11.5 -57.5t33.5 -35.5t53 -12q47 0 89.5 24.5t80.5 70.5v608h373v-979h-360l-4 141q-52 -66 -127.5 -110.5t-200.5 -44.5zM662 1102l199 284h244l-254 -284h-189zM302 1102l196 284h246l-256 -284h-186z" />
    <glyph glyph-name="Uogonek" unicode="&#x172;" horiz-adv-x="1483" 
d="M740 -20q-215 0 -352 61.5t-202.5 192.5t-65.5 339v773h405v-762q0 -140 53 -207.5t166 -67.5t163 67.5t50 207.5v762h406v-773q0 -208 -66 -339t-204 -192.5t-353 -61.5zM859 -367q-103 0 -171.5 47.5t-68.5 141.5q0 51 31.5 98t87.5 79.5t131 39.5l125 -33
q-57 -14 -89 -51t-32 -66q0 -18 11.5 -32.5t43.5 -14.5q29 0 62 6.5t71 22.5v-197q-41 -19 -87.5 -30t-114.5 -11z" />
    <glyph glyph-name="uogonek" unicode="&#x173;" horiz-adv-x="1230" 
d="M427 -14q-145 0 -233.5 85t-88.5 265v643h373v-598q0 -34 11.5 -57.5t33.5 -35.5t53 -12q47 0 89.5 24.5t80.5 70.5v608h373v-979h-360l-4 141q-52 -66 -127.5 -110.5t-200.5 -44.5zM880 -367q-103 0 -171.5 47.5t-68.5 141.5q0 51 31.5 98t87.5 79.5t131 39.5l125 -33
q-57 -14 -89 -51t-32 -66q0 -18 11.5 -32.5t43.5 -14.5q29 0 62 6.5t71 22.5v-197q-41 -19 -87.5 -30t-114.5 -11z" />
    <glyph glyph-name="Wcircumflex" unicode="&#x174;" horiz-adv-x="1991" 
d="M395 0l-405 1346h403l203 -869l213 869h373l211 -869l202 869h406l-412 -1346h-407l-191 858l-188 -858h-408zM623 1446l210 285h326l209 -285h-270l-101 141l-100 -141h-274z" />
    <glyph glyph-name="wcircumflex" unicode="&#x175;" horiz-adv-x="1651" 
d="M299 0l-303 979h373l143 -584l137 584h381l141 -582l138 582h346l-303 -979h-375l-150 602l-155 -602h-373zM468 1102l208 284h328l209 -284h-264l-109 121l-108 -121h-264z" />
    <glyph glyph-name="Ycircumflex" unicode="&#x176;" horiz-adv-x="1264" 
d="M430 0v467l-450 879h440l211 -512l213 512h440l-448 -879v-467h-406zM259 1446l210 285h326l209 -285h-270l-101 141l-100 -141h-274z" />
    <glyph glyph-name="ycircumflex" unicode="&#x177;" horiz-adv-x="1065" 
d="M102 -358v299h97q72 0 113.5 11.5t47.5 33.5l5 14l-385 979h385l188 -637l156 637h376l-333 -979l-35 -98q-31 -87 -79.5 -144.5t-140 -86.5t-253.5 -29h-142zM165 1102l208 284h328l209 -284h-264l-109 121l-108 -121h-264z" />
    <glyph glyph-name="Ydieresis" unicode="&#x178;" horiz-adv-x="1264" 
d="M430 0v467l-450 879h440l211 -512l213 512h440l-448 -879v-467h-406zM840 1409q-63 0 -106 41.5t-43 105.5q0 65 43 106.5t106 41.5q65 0 108.5 -41.5t43.5 -106.5q0 -64 -43.5 -105.5t-108.5 -41.5zM422 1409q-64 0 -107.5 41.5t-43.5 105.5q0 65 43.5 106.5t107.5 41.5
q63 0 106.5 -41.5t43.5 -106.5q0 -64 -43.5 -105.5t-106.5 -41.5z" />
    <glyph glyph-name="Zacute" unicode="&#x179;" horiz-adv-x="1167" 
d="M45 0v309l524 711h-469v326h971v-289l-541 -731h592v-326h-1077zM410 1446l182 285h385l-297 -285h-270z" />
    <glyph glyph-name="zacute" unicode="&#x17a;" horiz-adv-x="983" 
d="M61 0v262l381 436h-342v281h785v-258l-381 -438h418v-283h-861zM302 1102l190 284h387l-309 -284h-268z" />
    <glyph glyph-name="Zdotaccent" unicode="&#x17b;" horiz-adv-x="1167" 
d="M45 0v309l524 711h-469v326h971v-289l-541 -731h592v-326h-1077zM586 1413q-100 0 -149 46.5t-49 116.5q0 73 49 118.5t149 45.5q101 0 151 -45.5t50 -118.5q0 -70 -50 -116.5t-151 -46.5z" />
    <glyph glyph-name="zdotaccent" unicode="&#x17c;" horiz-adv-x="983" 
d="M61 0v262l381 436h-342v281h785v-258l-381 -438h418v-283h-861zM494 1047q-100 0 -149 46.5t-49 116.5q0 73 49 118.5t149 45.5q101 0 151 -45.5t50 -118.5q0 -70 -50 -116.5t-151 -46.5z" />
    <glyph glyph-name="Zcaron" unicode="&#x17d;" horiz-adv-x="1167" 
d="M45 0v309l524 711h-469v326h971v-289l-541 -731h592v-326h-1077zM424 1446l-210 285h272l100 -140l99 140h274l-209 -285h-326z" />
    <glyph glyph-name="zcaron" unicode="&#x17e;" horiz-adv-x="983" 
d="M61 0v262l381 436h-342v281h785v-258l-381 -438h418v-283h-861zM332 1102l-210 284h264l108 -116l109 116h264l-209 -284h-326z" />
    <glyph glyph-name="longs" unicode="&#x17f;" horiz-adv-x="702" 
d="M172 0v696h-160v283h160v8q0 142 42 222t144 111.5t283 27.5l92 -2v-259h-86q-61 0 -81.5 -19.5t-20.5 -82.5v-985h-373z" />
    <glyph glyph-name="uni0181" unicode="&#x181;" horiz-adv-x="1628" 
d="M479 0v1032q-92 -3 -127 -45.5t-35 -136.5v-43h-303v111q0 226 120.5 327t344.5 101h504q233 0 367.5 -80.5t134.5 -255.5q0 -108 -57.5 -179t-149.5 -106q151 -34 220 -118.5t69 -207.5q0 -142 -69.5 -230t-190.5 -128.5t-277 -40.5h-551zM872 293h144q47 0 82 14.5
t54 43.5t19 73q0 63 -41 89t-116 26h-142v-246zM872 831h105q46 0 79.5 29.5t33.5 87.5q0 40 -17 63t-43 32.5t-53 9.5h-105v-222z" />
    <glyph glyph-name="uni0186" unicode="&#x186;" horiz-adv-x="1457" 
d="M708 -18q-206 0 -344.5 66t-211.5 189t-81 293h405q6 -100 63.5 -159.5t168.5 -59.5q100 0 158.5 48t84 130t25.5 183t-25.5 183t-84 130.5t-158.5 48.5q-69 0 -118 -21.5t-77.5 -63t-38.5 -101.5h-405q0 162 85 277.5t230 177t324 61.5q199 0 350 -82.5t236 -237.5
t85 -372q0 -216 -85 -370.5t-236 -237t-350 -82.5z" />
    <glyph glyph-name="uni0189" unicode="&#x189;" horiz-adv-x="1475" 
d="M0 512v313h791v-313h-791zM133 0v1346h557q220 0 378.5 -76t243.5 -225.5t85 -370.5q0 -229 -86.5 -378.5t-245 -222.5t-375.5 -73h-557zM526 326h133q110 0 184 34.5t111 111t37 202.5q0 121 -43.5 197t-118.5 112.5t-170 36.5h-133v-694z" />
    <glyph glyph-name="uni018A" unicode="&#x18a;" horiz-adv-x="1821" 
d="M479 0v1032q-92 -4 -127 -46t-35 -136v-43h-303v111q0 226 120.5 327t344.5 101h557q221 0 379 -80t243 -229t85 -357q0 -222 -86.5 -373.5t-245 -229t-375.5 -77.5h-557zM872 326h144q160 0 240.5 88t80.5 268q0 160 -92 249t-229 89h-144v-694z" />
    <glyph glyph-name="uni018E" unicode="&#x18e;" horiz-adv-x="1191" 
d="M103 0v324h562v198h-496v309h496v191h-562v324h955v-1346h-955z" />
    <glyph glyph-name="uni018F" unicode="&#x18f;" horiz-adv-x="1522" 
d="M764 -18q-172 0 -301.5 50.5t-216 150.5t-128.5 249t-40 346l438 -299q10 -48 40.5 -86t82.5 -60t125 -22q102 0 162 42.5t86 123.5t26 197q0 117 -25.5 197t-85 121.5t-163.5 41.5q-118 0 -178 -37.5t-80 -105.5h-406q21 147 104 253t228.5 163t351.5 57
q205 0 353 -80.5t227.5 -234.5t79.5 -375q0 -217 -83 -372t-235.5 -237.5t-361.5 -82.5zM238 483l-160 295h1130v-295h-970z" />
    <glyph glyph-name="uni0190" unicode="&#x190;" horiz-adv-x="1233" 
d="M627 -16q-179 0 -306 48.5t-193.5 143t-66.5 232.5q0 125 77 203t192 100q-112 28 -175 98.5t-63 185.5q0 135 74 216t193.5 117t254.5 36q144 0 264.5 -42.5t193.5 -141t73 -267.5h-377q-1 62 -39.5 92.5t-112.5 30.5q-78 0 -113.5 -22.5t-35.5 -69.5q0 -44 37.5 -68
t91.5 -24h129v-307h-102q-64 0 -111 -25t-47 -90q0 -60 38 -89.5t124 -29.5q87 0 130.5 37.5t43.5 110.5h377q0 -168 -61.5 -272.5t-184 -153.5t-305.5 -49z" />
    <glyph glyph-name="uni0191" unicode="&#x191;" horiz-adv-x="1116" 
d="M20 -358v335h31q44 0 68 26.5t24 62.5v1280h928v-324h-534v-188h473v-308h-473v-458q0 -218 -113.5 -322t-345.5 -104h-58z" />
    <glyph glyph-name="florin" unicode="&#x192;" horiz-adv-x="764" 
d="M-10 -358v288h73q56 0 82.5 28.5t26.5 82.5v655h-160v283h160v8q0 142 42 219.5t144 108.5t283 31h92v-259h-86q-61 0 -81.5 -19.5t-20.5 -82.5v-6h190v-283h-190v-669q0 -184 -108.5 -284.5t-327.5 -100.5h-119z" />
    <glyph glyph-name="uni0194" unicode="&#x194;" horiz-adv-x="1259" 
d="M631 -16q-139 0 -226 42t-127 114.5t-40 164.5q0 84 32 166.5t99 184t170 241.5l45 61l24 7l230 381h442l-588 -799q-27 -38 -54 -82t-45 -84.5t-18 -67.5q0 -28 12.5 -44.5t43.5 -16.5q18 0 34.5 15t16.5 46q0 39 -29 107.5t-69 120.5l-604 805h450l234 -379l32 -19
l41 -55q105 -140 167.5 -239t90 -180t27.5 -169q0 -92 -41 -164.5t-127.5 -114.5t-222.5 -42z" />
    <glyph glyph-name="uni0198" unicode="&#x198;" horiz-adv-x="1376" 
d="M133 0v1346h393v-637l404 10l446 -719h-442l-408 688v-688h-393zM1303 1346v-336h-9q-47 0 -87 -6.5t-75 -28.5t-67 -68l-135 -188l-404 -10l238 356q64 95 135 157.5t166 93t231 30.5h7z" />
    <glyph glyph-name="uni0199" unicode="&#x199;" horiz-adv-x="1202" 
d="M111 0v946l372 2v-409l316 440h389l-324 -442l338 -537h-397l-322 524v-524h-372zM111 946q0 194 93.5 297t278.5 103h199v-289h-100q-48 0 -72.5 -27.5t-26.5 -81.5z" />
    <glyph glyph-name="Ohorn" unicode="&#x1a0;" horiz-adv-x="1675" 
d="M1356 915l-25 142q65 12 100.5 42t43.5 91l18 -16q-82 0 -129 48t-47 117q0 76 51.5 120t136.5 44q97 0 154 -54t57 -161q0 -94 -33 -163.5t-87 -115.5t-117 -69.5t-123 -24.5zM748 -18q-210 0 -360 82.5t-230 237t-80 370.5q0 217 80 372t230 237.5t360 82.5
q211 0 361 -82.5t230 -237.5t80 -372q0 -216 -80 -370.5t-230 -237t-361 -82.5zM748 311q97 0 156 50t85.5 132.5t26.5 178.5q0 97 -26.5 179.5t-85.5 132.5t-156 50t-156 -48.5t-85 -130.5t-26 -183q0 -102 26 -184t85 -129.5t156 -47.5z" />
    <glyph glyph-name="ohorn" unicode="&#x1a1;" horiz-adv-x="1249" 
d="M977 662l-27 124q63 17 99.5 51t44.5 95l16 -14q-73 0 -117.5 44.5t-44.5 108.5q0 69 45.5 110.5t126.5 41.5q83 0 137 -50.5t54 -148.5q0 -114 -50.5 -192.5t-127.5 -120.5t-156 -49zM604 -20q-155 0 -276.5 57.5t-190.5 170.5t-69 277q0 167 69 281.5t190.5 173.5
t276.5 59q153 0 273.5 -59t190 -173.5t69.5 -281.5q0 -164 -69.5 -277t-190 -170.5t-273.5 -57.5zM604 260q64 0 98.5 32.5t48 84t13.5 108.5q0 59 -13.5 112.5t-48 87.5t-98.5 34q-65 0 -101.5 -34t-50.5 -87.5t-14 -112.5q0 -57 14 -108.5t50.5 -84t101.5 -32.5z" />
    <glyph glyph-name="Uhorn" unicode="&#x1af;" horiz-adv-x="1778" 
d="M1325 915l-22 142q121 12 189.5 42t84.5 91l18 -16q-81 0 -128.5 48t-47.5 117q0 76 53 120t136 44q100 0 155.5 -54t55.5 -161q0 -94 -45.5 -163.5t-119.5 -115.5t-160.5 -69.5t-168.5 -24.5zM740 -20q-215 0 -352 61.5t-202.5 192.5t-65.5 339v773h405v-762
q0 -140 53 -207.5t166 -67.5t163 67.5t50 207.5v762h406v-773q0 -208 -66 -339t-204 -192.5t-353 -61.5z" />
    <glyph glyph-name="uhorn" unicode="&#x1b0;" horiz-adv-x="1513" 
d="M1104 623l-33 135q108 15 172 50t78 107l18 -16q-81 0 -128.5 49t-47.5 119q0 74 47.5 118t128.5 44q89 0 144 -54.5t55 -160.5q0 -99 -41 -173t-106.5 -123t-141 -73t-145.5 -22zM427 -14q-145 0 -233.5 85t-88.5 265v643h373v-598q0 -34 11.5 -57.5t33.5 -35.5t53 -12
q47 0 89.5 24.5t80.5 70.5v608h373v-979h-360l-4 141q-52 -66 -127.5 -110.5t-200.5 -44.5z" />
    <glyph glyph-name="uni01B2" unicode="&#x1b2;" horiz-adv-x="1483" 
d="M740 -29q-215 0 -352 63.5t-202.5 197t-65.5 341.5v773h405v-783q0 -112 45 -184t174 -72q128 0 170.5 72t42.5 184v250l406 2v-242q0 -208 -66 -341.5t-204 -197t-353 -63.5zM957 813q0 113 -40 155t-91 42h-55v336h82q258 0 384 -130t126 -401z" />
    <glyph glyph-name="uni01B3" unicode="&#x1b3;" horiz-adv-x="1253" 
d="M430 0v467l-450 879h440l211 -512l205 -367v-467h-406zM836 467l-344 35l249 592q37 88 95.5 143.5t149 82t222.5 26.5h31v-336h-10q-56 0 -96.5 -14.5t-71 -49t-57.5 -96.5z" />
    <glyph glyph-name="uni01B4" unicode="&#x1b4;" horiz-adv-x="1246" 
d="M150 -358v299h94q55 0 85.5 11.5t37.5 33.5l4 14l-371 979h385l188 -608l183 700q30 114 85.5 172t142 78t208.5 20h74v-299h-29q-54 0 -84 -14.5t-51 -71.5l-338 -1054q-37 -109 -97 -165t-152 -75.5t-224 -19.5h-141z" />
    <glyph glyph-name="uni01B7" unicode="&#x1b7;" horiz-adv-x="1235" 
d="M606 -16q-182 0 -304.5 49t-184.5 153.5t-62 272.5h377q0 -73 44.5 -110.5t129.5 -37.5q76 0 119 33t43 107q0 77 -55 106t-133 29h-197v280h252q163 0 284 -43t188 -134.5t67 -237.5q0 -152 -67 -256t-194 -157.5t-307 -53.5zM641 707l-258 159l227 156h-473v324h965
v-314z" />
    <glyph glyph-name="uni01DD" unicode="&#x1dd;" horiz-adv-x="1183" 
d="M579 997q154 0 275.5 -54t191 -168t69.5 -292q0 -161 -68 -271t-187.5 -167t-272.5 -57q-238 0 -379 132.5t-141 387.5q0 10 1 26t3 27h674q-2 49 -19 92t-54.5 69t-98.5 26q-66 0 -109.5 -23.5t-46.5 -77.5h-346q8 127 73.5 204t177 111.5t257.5 34.5zM737 361h-302
q5 -74 50 -106t102 -32q58 0 100.5 35.5t49.5 102.5z" />
    <glyph glyph-name="Gcaron" unicode="&#x1e6;" horiz-adv-x="1467" 
d="M758 -18q-203 0 -356 81.5t-238.5 236t-85.5 372.5q0 219 85.5 373.5t238.5 236.5t356 82q114 0 222 -28t196 -87.5t143 -153t63 -223.5h-405q-8 50 -35.5 86t-75.5 56t-118 20q-97 0 -156 -48t-85 -129.5t-26 -184.5q0 -102 26.5 -185t87.5 -131.5t163 -48.5
q71 0 120 20t78.5 55.5t40.5 82.5h-266v299h658v-154q0 -191 -71.5 -332.5t-212 -218.5t-347.5 -77zM586 1446l-210 285h272l100 -140l99 140h274l-209 -285h-326z" />
    <glyph glyph-name="gcaron" unicode="&#x1e7;" horiz-adv-x="1108" 
d="M555 -377q-193 0 -305.5 35.5t-160.5 92t-48 118.5q0 85 85.5 145t279.5 82l57 137h162q238 0 352.5 -71t114.5 -215q0 -149 -139.5 -236.5t-397.5 -87.5zM551 -162q100 0 140 22t40 54q0 22 -14.5 35.5t-42.5 20.5t-68 7h-190q-22 -13 -32.5 -29.5t-10.5 -35.5
q0 -23 35.5 -48.5t142.5 -25.5zM418 -20q-118 14 -194 45.5t-113 75.5t-37 94q0 68 52.5 111t152.5 81l153 -47q-25 -6 -58.5 -20.5t-33.5 -40.5q0 -19 26 -29t92.5 -13.5t188.5 -3.5zM530 307q-146 0 -248.5 47.5t-156 125.5t-53.5 169q0 96 54 174.5t158 125t253 46.5
q154 0 255.5 -46.5t152 -125t50.5 -174.5q0 -93 -51.5 -170.5t-155 -124.5t-258.5 -47zM539 516q49 0 80.5 33.5t31.5 99.5q0 69 -31.5 103t-80.5 34q-51 0 -85 -34t-34 -103q0 -66 34 -99.5t85 -33.5zM838 801l-90 139q35 116 129.5 158.5t214.5 42.5v-252
q-85 0 -156.5 -14.5t-97.5 -73.5zM393 1102l-210 284h264l108 -116l109 116h264l-209 -284h-326z" />
    <glyph glyph-name="uni01EA" unicode="&#x1ea;" horiz-adv-x="1497" 
d="M748 -18q-210 0 -360 82.5t-230 237t-80 370.5q0 217 80 372t230 237.5t360 82.5q211 0 361 -82.5t230 -237.5t80 -372q0 -216 -80 -370.5t-230 -237t-361 -82.5zM748 311q97 0 156 50t85.5 132.5t26.5 178.5q0 97 -26.5 179.5t-85.5 132.5t-156 50t-156 -48.5
t-85 -130.5t-26 -183q0 -102 26 -184t85 -129.5t156 -47.5zM822 -367q-103 0 -171.5 47.5t-68.5 141.5q0 51 31.5 98t87.5 79.5t131 39.5l125 -33q-57 -14 -89 -51t-32 -66q0 -18 11.5 -32.5t43.5 -14.5q29 0 62 6.5t71 22.5v-197q-41 -19 -87.5 -30t-114.5 -11z" />
    <glyph glyph-name="uni01EB" unicode="&#x1eb;" horiz-adv-x="1204" 
d="M604 -20q-155 0 -276.5 57.5t-190.5 170.5t-69 277q0 167 69 281.5t190.5 173.5t276.5 59q153 0 273.5 -59t190 -173.5t69.5 -281.5q0 -164 -69.5 -277t-190 -170.5t-273.5 -57.5zM604 260q64 0 98.5 32.5t48 84t13.5 108.5q0 59 -13.5 112.5t-48 87.5t-98.5 34
q-65 0 -101.5 -34t-50.5 -87.5t-14 -112.5q0 -57 14 -108.5t50.5 -84t101.5 -32.5zM662 -367q-103 0 -171.5 47.5t-68.5 141.5q0 51 31.5 98t87.5 79.5t131 39.5l125 -33q-57 -14 -89 -51t-32 -66q0 -18 11.5 -32.5t43.5 -14.5q29 0 62 6.5t71 22.5v-197q-41 -19 -87.5 -30
t-114.5 -11z" />
    <glyph glyph-name="uni01F8" unicode="&#x1f8;" horiz-adv-x="1499" 
d="M133 0v1346h379l485 -736v736h369v-1346h-377l-489 745v-745h-367zM641 1446l-299 285h385l182 -285h-268z" />
    <glyph glyph-name="uni01F9" unicode="&#x1f9;" horiz-adv-x="1229" 
d="M111 0v979h360l4 -141q53 66 128.5 110.5t199.5 44.5q144 0 232.5 -85t88.5 -265v-643h-372v598q0 34 -11.5 57t-33.5 35t-54 12q-46 0 -88.5 -23.5t-81.5 -70.5v-608h-372zM557 1102l-307 284h387l189 -284h-269z" />
    <glyph glyph-name="Aringacute" unicode="&#x1fa;" horiz-adv-x="1303" 
d="M-20 0l462 1346h412l469 -1346h-410l-59 205h-408l-59 -205h-407zM524 512h246l-123 446zM649 1384q-94 0 -156.5 54.5t-62.5 148.5t62.5 147.5t156.5 53.5q95 0 158 -53.5t63 -147.5t-63 -148.5t-158 -54.5zM649 1517q29 0 49.5 20.5t20.5 49.5t-20.5 48.5t-49.5 19.5
t-49 -19.5t-20 -48.5t20 -49.5t49 -20.5zM473 1667l182 285h385l-297 -285h-270z" />
    <glyph glyph-name="aringacute" unicode="&#x1fb;" horiz-adv-x="1158" 
d="M395 -16q-79 0 -154.5 32t-124 99t-48.5 170q0 139 79 208t219.5 94t325.5 31v33q0 60 -28 82.5t-74 22.5q-55 0 -85 -22.5t-30 -76.5h-344q0 126 57 199t160.5 104t241.5 31q114 0 200.5 -17.5t145 -57t88 -102.5t29.5 -155v-659h-348l-11 106q-57 -59 -127.5 -90.5
t-171.5 -31.5zM522 227q59 0 100.5 26t63.5 54v125q-148 -3 -198 -31.5t-50 -87.5q0 -43 23.5 -64.5t60.5 -21.5zM606 1079q-94 0 -156.5 54.5t-62.5 148.5t62.5 147.5t156.5 53.5q95 0 158 -53.5t63 -147.5t-63 -148.5t-158 -54.5zM606 1212q29 0 49.5 20.5t20.5 49.5
t-20.5 48.5t-49.5 19.5t-49 -19.5t-20 -48.5t20 -49.5t49 -20.5zM414 1350l190 284h387l-309 -284h-268z" />
    <glyph glyph-name="AEacute" unicode="&#x1fc;" horiz-adv-x="2016" 
d="M-43 0l782 1346h357l14 -349h-188l-322 -598v-22l-199 -377h-444zM395 205v325h799v-325h-799zM958 0v1346h955v-324h-561v-188h495v-312h-495v-198h561v-324h-955zM1010 1444l182 285h385l-297 -285h-270z" />
    <glyph glyph-name="aeacute" unicode="&#x1fd;" horiz-adv-x="1816" 
d="M1227 -18q-160 0 -278.5 54t-183.5 168t-65 292q0 161 64 271t182.5 167t282.5 57q238 0 379 -132.5t141 -387.5q0 -10 -1 -25.5t-3 -27.5h-674q4 -47 21 -90t53.5 -70t97.5 -27q66 0 111 23.5t45 77.5h346q-8 -127 -74 -204t-179.5 -111.5t-264.5 -34.5zM449 -16
q-196 0 -288.5 83t-92.5 214q0 133 76.5 203.5t219.5 97t343 28.5v41q0 40 -13 63t-38.5 32.5t-61.5 9.5q-55 0 -87 -22.5t-32 -76.5h-344q0 171 112 251.5t347 80.5q126 0 201.5 -25t113.5 -67.5t51 -95.5l-190 -373q-130 4 -201 -7t-99 -37.5t-28 -68.5q0 -49 28.5 -68.5
t68.5 -19.5q49 0 92.5 20.5t79 57t59.5 84.5l133 -96q-28 -107 -93.5 -175.5t-157 -101t-199.5 -32.5zM1079 618h301q-3 76 -48.5 106t-102.5 30q-58 0 -101 -34.5t-49 -101.5zM730 1102l190 284h387l-309 -284h-268z" />
    <glyph glyph-name="Oslashacute" unicode="&#x1fe;" horiz-adv-x="1497" 
d="M248 -90l-170 141l1171 1385l170 -142zM748 -18q-210 0 -360 82.5t-230 237t-80 370.5q0 217 80 372t230 237.5t360 82.5q211 0 361 -82.5t230 -237.5t80 -372q0 -216 -80 -370.5t-230 -237t-361 -82.5zM748 301q100 0 160 51.5t87 136.5t27 183q0 100 -27 184.5t-87 136
t-160 51.5q-99 0 -160 -51.5t-89 -136t-28 -184.5q0 -98 28 -183t89 -136.5t160 -51.5zM572 1446l182 285h385l-297 -285h-270z" />
    <glyph glyph-name="oslashacute" unicode="&#x1ff;" horiz-adv-x="1204" 
d="M207 -119l-135 119l925 1087l133 -118zM604 -18q-155 0 -276.5 57t-190.5 169t-69 275t69 275t190.5 169.5t276.5 57.5q153 0 273.5 -57.5t190 -169.5t69.5 -275t-69.5 -275t-190 -169t-273.5 -57zM604 244q70 0 108 34.5t53 89.5t15 115t-15 115.5t-53 91t-108 35.5
q-71 0 -110.5 -35.5t-54.5 -91t-15 -115.5t15 -115t54.5 -89.5t110.5 -34.5zM402 1102l190 284h387l-309 -284h-268z" />
    <glyph glyph-name="uni0218" unicode="&#x218;" horiz-adv-x="1272" 
d="M635 -18q-162 0 -291 44.5t-204.5 142t-78.5 257.5h406q4 -49 24 -78t57 -42t91 -13q56 0 91.5 9.5t53 28.5t17.5 46q0 28 -18 49t-71.5 44.5t-162.5 57.5q-125 40 -231 89t-170 131t-64 219q0 149 74 235t197.5 123t271.5 37q152 0 276 -42t197.5 -132t73.5 -234h-406
q0 53 -38 81t-103 28q-58 0 -96.5 -18t-38.5 -50q0 -21 18 -39.5t77 -42.5t181 -63q150 -47 248 -99.5t146 -134t48 -217.5q0 -154 -78 -245.5t-208.5 -131.5t-288.5 -40zM496 -442l-20 94q63 6 101 27t48 42q-79 -1 -116 31t-37 82q0 41 36.5 74t112.5 33q74 0 115 -39.5
t41 -108.5q0 -104 -81 -168t-200 -67z" />
    <glyph glyph-name="uni0219" unicode="&#x219;" horiz-adv-x="1083" 
d="M535 -20q-90 0 -173 12.5t-148.5 46t-103.5 95t-38 159.5h338q0 -46 34.5 -62t87.5 -16q51 0 85 12.5t34 44.5q0 34 -41 53t-170 48q-95 21 -178 57t-134.5 99.5t-51.5 164.5q0 92 40 150.5t106 90.5t145.5 45t158.5 13q85 0 165 -14t143.5 -48t101 -93t37.5 -148h-338
q0 38 -30 56t-75 18q-46 0 -72 -10.5t-26 -32.5q0 -13 17 -27t70.5 -32.5t160.5 -45.5q103 -25 177 -58.5t114.5 -91t40.5 -157.5q0 -90 -38.5 -152.5t-105 -101.5t-152.5 -57t-181 -18zM414 -442l-20 94q63 6 101 27t48 42q-79 -1 -116 31t-37 82q0 41 36.5 74t112.5 33
q74 0 115 -39.5t41 -108.5q0 -104 -81 -168t-200 -67z" />
    <glyph glyph-name="uni021A" unicode="&#x21a;" horiz-adv-x="1087" 
d="M348 0v1022h-334v324h1059v-324h-332v-1022h-393zM416 -442l-20 94q63 6 101 27t48 42q-79 -1 -116 31t-37 82q0 41 36.5 74t112.5 33q74 0 115 -39.5t41 -108.5q0 -104 -81 -168t-200 -67z" />
    <glyph glyph-name="uni021B" unicode="&#x21b;" horiz-adv-x="793" 
d="M641 0q-181 0 -283 33t-144 113t-42 221v329h-160v283h160v240h373v-240h186v-283h-186v-305q0 -61 20.5 -83.5t81.5 -22.5h80v-285h-86zM344 -442l-20 94q63 6 101 27t48 42q-79 -1 -116 31t-37 82q0 41 36.5 74t112.5 33q74 0 115 -39.5t41 -108.5q0 -104 -81 -168
t-200 -67z" />
    <glyph glyph-name="uni0232" unicode="&#x232;" horiz-adv-x="1264" 
d="M430 0v467l-450 879h440l211 -512l213 512h440l-448 -879v-467h-406zM340 1474v185h582v-185h-582z" />
    <glyph glyph-name="uni0233" unicode="&#x233;" horiz-adv-x="1065" 
d="M102 -358v299h97q72 0 113.5 11.5t47.5 33.5l5 14l-385 979h385l188 -637l156 637h376l-333 -979l-35 -98q-31 -87 -79.5 -144.5t-140 -86.5t-253.5 -29h-142zM246 1128v185h582v-185h-582z" />
    <glyph glyph-name="uni0237" unicode="&#x237;" horiz-adv-x="596" 
d="M-72 -358v288h74q56 0 82.5 28.5t26.5 82.5v938h372v-911q0 -205 -108 -315.5t-328 -110.5h-119z" />
    <glyph glyph-name="uni0253" unicode="&#x253;" horiz-adv-x="1238" 
d="M754 -18q-88 0 -155 35.5t-130 111.5l-10 -129h-348v926l372 14v-88q53 68 124 104.5t169 36.5q117 0 206 -54.5t139 -166.5t50 -287q0 -172 -54.5 -283.5t-148.5 -165.5t-214 -54zM649 258q68 0 109 56.5t41 177.5q0 124 -40.5 176.5t-109.5 52.5q-64 0 -108 -42.5
t-58 -80.5v-223q22 -40 62.5 -78.5t103.5 -38.5zM111 926q0 232 102 326t295 94h172v-289h-88q-55 0 -82 -28.5t-27 -88.5z" />
    <glyph glyph-name="uni0254" unicode="&#x254;" horiz-adv-x="1159" 
d="M562 -18q-146 0 -256.5 50.5t-173 147t-65.5 232.5h358q0 -71 35 -111.5t102 -40.5q91 0 124.5 56.5t33.5 162.5q0 114 -33.5 174t-124.5 60q-64 0 -94.5 -34t-30.5 -87h-360q-1 133 63.5 222t175 134t246.5 45q150 0 269.5 -56.5t189.5 -170.5t70 -287
q0 -170 -73.5 -280t-193.5 -163.5t-262 -53.5z" />
    <glyph glyph-name="uni0256" unicode="&#x256;" horiz-adv-x="1239" 
d="M463 -16q-123 0 -211.5 54.5t-136 166.5t-47.5 284q0 170 51.5 282.5t145 168t218.5 55.5q105 0 170.5 -40t102.5 -97v488h372v-1330l-374 2v117q-52 -72 -119.5 -111.5t-171.5 -39.5zM1128 -360q-187 0 -280.5 97t-93.5 281l374 -2q0 -43 25.5 -65.5t73.5 -22.5h71v-288
h-170zM588 256q68 0 111 42.5t57 82.5v223q-19 40 -62.5 78.5t-105.5 38.5q-64 0 -106 -59t-42 -179q0 -123 41 -175t107 -52z" />
    <glyph glyph-name="uni0257" unicode="&#x257;" horiz-adv-x="1323" 
d="M463 -16q-123 0 -211.5 54.5t-136 166.5t-47.5 284q0 170 51.5 282.5t145 168t218.5 55.5q105 0 170.5 -40t102.5 -97v76l372 6v-940h-360l-14 135q-52 -72 -119.5 -111.5t-171.5 -39.5zM588 256q68 0 111 42.5t57 82.5v223q-19 40 -62.5 78.5t-105.5 38.5
q-64 0 -106 -59t-42 -179q0 -123 41 -175t107 -52zM756 934q0 227 102 319.5t295 92.5h172v-289h-88q-55 0 -82 -28.5t-27 -88.5z" />
    <glyph glyph-name="uni0259" unicode="&#x259;" horiz-adv-x="1183" 
d="M579 997q154 0 275.5 -54t191 -168t69.5 -292q0 -161 -68 -271t-187.5 -167t-272.5 -57q-238 0 -379 132.5t-141 387.5q0 10 1 26t3 27h674q-2 49 -19 92t-54.5 69t-98.5 26q-66 0 -109.5 -23.5t-46.5 -77.5h-346q8 127 73.5 204t177 111.5t257.5 34.5zM737 361h-302
q5 -74 50 -106t102 -32q58 0 100.5 35.5t49.5 102.5z" />
    <glyph glyph-name="uni025B" unicode="&#x25b;" horiz-adv-x="1137" 
d="M573 -16q-242 0 -376 71.5t-134 229.5q0 84 49 142.5t156 84.5q-94 25 -128 81.5t-34 119.5q0 66 44 129.5t148.5 105t283.5 41.5q216 0 339 -77t134 -259h-342q0 44 -32.5 69.5t-98.5 25.5q-67 0 -96 -17.5t-29 -48.5q0 -28 26.5 -47t75.5 -19h103v-221h-115
q-51 0 -83 -18t-32 -62q0 -37 35.5 -54t105.5 -17q83 0 131 27t46 79h342q-4 -120 -66.5 -201.5t-177 -123t-275.5 -41.5z" />
    <glyph glyph-name="uni0263" unicode="&#x263;" horiz-adv-x="1147" 
d="M395 246l-415 733h385l208 -422l218 422h376l-401 -733h-371zM573 -137q36 0 51 20.5t15 48.5q0 34 -15 78t-51 88q-32 -44 -45.5 -88t-13.5 -78q0 -28 13.5 -48.5t45.5 -20.5zM573 -358q-170 0 -262 80t-92 212q0 80 42 172.5t122 192t192 199.5q116 -100 196 -199.5
t121.5 -192t41.5 -172.5q0 -132 -93.5 -212t-267.5 -80z" />
    <glyph glyph-name="uni0283" unicode="&#x283;" horiz-adv-x="686" 
d="M-20 -360v282h77q63 0 82 19.5t19 62.5v975q0 142 41 221t143 111t283 32h82v-282h-78q-63 0 -82 -22.5t-19 -84.5v-950q0 -141 -41 -220.5t-142.5 -111.5t-283.5 -32h-81z" />
    <glyph glyph-name="uni028B" unicode="&#x28b;" horiz-adv-x="1241" 
d="M626 -12q-148 0 -266 50t-186.5 148.5t-68.5 243.5v549h369v-506q0 -69 19.5 -112.5t52 -64t71.5 -20.5q42 0 75 19t52 63t19 119h373q0 -169 -66.5 -277t-181.5 -160t-262 -52zM763 477l2 119q2 60 -18.5 83t-81.5 23h-17v283h21q181 0 282.5 -32.5t143 -111.5
t41.5 -220v-144h-373z" />
    <glyph glyph-name="uni0292" unicode="&#x292;" horiz-adv-x="1090" 
d="M512 -379q-244 0 -368 101t-124 301h345q0 -61 36 -98.5t111 -37.5q88 0 125 40t37 128q0 56 -27 92t-74.5 54t-111.5 18h-191v234l275 245h-434v281h860v-258l-314 -281q105 0 192 -44t139 -130t52 -211q0 -205 -136.5 -319.5t-391.5 -114.5z" />
    <glyph glyph-name="circumflex" unicode="&#x2c6;" horiz-adv-x="1130" 
d="M193 1102l208 284h328l209 -284h-264l-109 121l-108 -121h-264z" />
    <glyph glyph-name="caron" unicode="&#x2c7;" horiz-adv-x="1130" 
d="M403 1102l-210 284h264l108 -116l109 116h264l-209 -284h-326z" />
    <glyph glyph-name="breve" unicode="&#x2d8;" horiz-adv-x="1130" 
d="M565 1092q-167 0 -251.5 83t-90.5 220h193q9 -80 56 -102.5t93 -22.5q47 0 93.5 21.5t56.5 103.5h192q-7 -137 -91 -220t-251 -83z" />
    <glyph glyph-name="dotaccent" unicode="&#x2d9;" horiz-adv-x="1130" 
d="M565 1047q-100 0 -149 46.5t-49 116.5q0 73 49 118.5t149 45.5q101 0 151 -45.5t50 -118.5q0 -70 -50 -116.5t-151 -46.5z" />
    <glyph glyph-name="ring" unicode="&#x2da;" horiz-adv-x="1130" 
d="M565 1079q-94 0 -156.5 54.5t-62.5 148.5t62.5 147.5t156.5 53.5q95 0 158 -53.5t63 -147.5t-63 -148.5t-158 -54.5zM565 1212q29 0 49.5 20.5t20.5 49.5t-20.5 48.5t-49.5 19.5t-49 -19.5t-20 -48.5t20 -49.5t49 -20.5z" />
    <glyph glyph-name="ogonek" unicode="&#x2db;" horiz-adv-x="1130" 
d="M580 -377q-103 0 -171.5 47.5t-68.5 141.5q0 51 31.5 98t87.5 79.5t131 39.5l125 -33q-57 -14 -89 -51t-32 -66q0 -18 11.5 -32.5t43.5 -14.5q29 0 62 6.5t71 22.5v-197q-41 -19 -87.5 -30t-114.5 -11z" />
    <glyph glyph-name="tilde" unicode="&#x2dc;" horiz-adv-x="1130" 
d="M205 1094q12 138 75.5 206t168.5 68q47 0 84.5 -14.5t66.5 -26.5t53 -22.5t43 -10.5q22 0 33 14.5t14 57.5h185q-14 -139 -67.5 -199.5t-160.5 -60.5q-43 0 -78.5 10.5t-70.5 26.5q-32 14 -57 22.5t-43 8.5q-28 0 -43 -17t-21 -63h-182z" />
    <glyph glyph-name="hungarumlaut" unicode="&#x2dd;" horiz-adv-x="1130" 
d="M610 1102l199 284h244l-254 -284h-189zM250 1102l196 284h246l-256 -284h-186z" />
    <glyph glyph-name="gravecomb" unicode="&#x300;" horiz-adv-x="0" 
d="M479 1102l-307 284h387l189 -284h-269z" />
    <glyph glyph-name="acutecomb" unicode="&#x301;" horiz-adv-x="0" 
d="M373 1102l190 284h387l-309 -284h-268z" />
    <glyph glyph-name="uni0302" unicode="&#x302;" horiz-adv-x="0" 
d="M193 1102l208 284h328l209 -284h-264l-109 121l-108 -121h-264z" />
    <glyph glyph-name="tildecomb" unicode="&#x303;" horiz-adv-x="0" 
d="M205 1094q12 138 75.5 206t168.5 68q47 0 84.5 -14.5t66.5 -26.5t53 -22.5t43 -10.5q22 0 33 14.5t14 57.5h185q-14 -139 -67.5 -199.5t-160.5 -60.5q-43 0 -78.5 10.5t-70.5 26.5q-32 14 -57 22.5t-43 8.5q-28 0 -43 -17t-21 -63h-182z" />
    <glyph glyph-name="uni0304" unicode="&#x304;" horiz-adv-x="0" 
d="M274 1128v185h582v-185h-582z" />
    <glyph glyph-name="uni0306" unicode="&#x306;" horiz-adv-x="0" 
d="M565 1092q-167 0 -251.5 83t-90.5 220h193q9 -80 56 -102.5t93 -22.5q47 0 93.5 21.5t56.5 103.5h192q-7 -137 -91 -220t-251 -83z" />
    <glyph glyph-name="uni0307" unicode="&#x307;" horiz-adv-x="0" 
d="M565 1047q-100 0 -149 46.5t-49 116.5q0 73 49 118.5t149 45.5q101 0 151 -45.5t50 -118.5q0 -70 -50 -116.5t-151 -46.5z" />
    <glyph glyph-name="uni0308" unicode="&#x308;" horiz-adv-x="0" 
d="M774 1063q-63 0 -106 41.5t-43 106.5q0 64 43 105.5t106 41.5q65 0 108.5 -41.5t43.5 -106.5q0 -64 -43.5 -105.5t-108.5 -41.5zM356 1063q-64 0 -107.5 41.5t-43.5 106.5q0 64 43.5 105.5t107.5 41.5q63 0 106.5 -41.5t43.5 -106.5q0 -64 -43.5 -105.5t-106.5 -41.5z
" />
    <glyph glyph-name="hookabovecomb" unicode="&#x309;" horiz-adv-x="0" 
d="M502 1098l-74 104q38 9 69 27t31 47q0 34 -27 44.5t-73 10.5h-33v142h54q166 0 248.5 -38.5t82.5 -127.5q0 -56 -39 -99t-102 -70.5t-137 -39.5zM428 1202l186 -61v-94h-186v155z" />
    <glyph glyph-name="uni030A" unicode="&#x30a;" horiz-adv-x="0" 
d="M565 1079q-94 0 -156.5 54.5t-62.5 148.5t62.5 147.5t156.5 53.5q95 0 158 -53.5t63 -147.5t-63 -148.5t-158 -54.5zM565 1212q29 0 49.5 20.5t20.5 49.5t-20.5 48.5t-49.5 19.5t-49 -19.5t-20 -48.5t20 -49.5t49 -20.5z" />
    <glyph glyph-name="uni030B" unicode="&#x30b;" horiz-adv-x="0" 
d="M610 1102l199 284h244l-254 -284h-189zM250 1102l196 284h246l-256 -284h-186z" />
    <glyph glyph-name="uni030C" unicode="&#x30c;" horiz-adv-x="0" 
d="M403 1102l-210 284h264l108 -116l109 116h264l-209 -284h-326z" />
    <glyph glyph-name="uni0312" unicode="&#x312;" horiz-adv-x="0" 
d="M578 1065q-83 0 -129 43t-46 125t40.5 144.5t109 98t152.5 37.5l24 -108q-57 -10 -92.5 -36t-58.5 -60q80 -7 118.5 -37t38.5 -86q0 -49 -43 -85t-114 -36z" />
    <glyph glyph-name="uni031B" unicode="&#x31b;" horiz-adv-x="0" 
d="M-135 623l-33 135q103 15 164.5 50t75.5 107l18 -16q-81 0 -128.5 49t-47.5 119q0 74 47.5 118t128.5 44q89 0 144 -54.5t55 -160.5q0 -99 -40 -173t-104 -123t-138 -73t-142 -22z" />
    <glyph glyph-name="dotbelowcomb" unicode="&#x323;" horiz-adv-x="0" 
d="M0 -401q-100 0 -149 46.5t-49 116.5q0 73 49 118.5t149 45.5q101 0 151 -45.5t50 -118.5q0 -70 -50 -116.5t-151 -46.5z" />
    <glyph glyph-name="uni0326" unicode="&#x326;" horiz-adv-x="0" 
d="M436 -442l-20 94q63 6 101 27t48 42q-79 -1 -116 31t-37 82q0 41 36.5 74t112.5 33q74 0 115 -39.5t41 -108.5q0 -104 -81 -168t-200 -67z" />
    <glyph glyph-name="uni0327" unicode="&#x327;" horiz-adv-x="0" 
d="M582 -377q-88 0 -142.5 13t-103.5 32l45 144q44 -20 89 -29.5t91 -9.5q32 0 48 11.5t16 33.5q0 20 -24 36.5t-99 32.5l-45 11l143 165l121 -36l-55 -66l-70 14q97 0 166 -42.5t69 -133.5q0 -58 -35.5 -97t-92 -59t-121.5 -20z" />
    <glyph glyph-name="uni0328" unicode="&#x328;" horiz-adv-x="0" 
d="M580 -377q-103 0 -171.5 47.5t-68.5 141.5q0 51 31.5 98t87.5 79.5t131 39.5l125 -33q-57 -14 -89 -51t-32 -66q0 -18 11.5 -32.5t43.5 -14.5q29 0 62 6.5t71 22.5v-197q-41 -19 -87.5 -30t-114.5 -11z" />
    <glyph glyph-name="uni0335" unicode="&#x335;" horiz-adv-x="0" 
d="M16 352v180h650v-180h-650z" />
    <glyph glyph-name="uni0336" unicode="&#x336;" horiz-adv-x="0" 
d="M0 512v313h791v-313h-791z" />
    <glyph glyph-name="uni0345" unicode="&#x345;" horiz-adv-x="0" 
d="M61 -358q-106 0 -136.5 50t-30.5 130v123h196v-68q0 -40 10 -62t52 -22h12v-151h-103z" />
    <glyph glyph-name="uni0370" unicode="&#x370;" horiz-adv-x="908" 
d="M133 0v1346h393v-484h357v-348h-357v-514h-393z" />
    <glyph glyph-name="uni0371" unicode="&#x371;" horiz-adv-x="871" 
d="M111 0v979h372v-979h-372zM334 354v281h475v-281h-475z" />
    <glyph glyph-name="uni0372" unicode="&#x372;" horiz-adv-x="1485" 
d="M545 0v1020h-383v326h1278v-326h-502v-1020h-393zM45 807v539h363v-539h-363zM1075 807v539h365v-539h-365z" />
    <glyph glyph-name="uni0373" unicode="&#x373;" horiz-adv-x="1192" 
d="M840 2q-181 0 -283 32.5t-143 112t-41 220.5v331h-74v-172h-287v453h1118v-453h-288v172h-97v-307q0 -61 20 -83.5t83 -22.5h100v-283h-108z" />
    <glyph glyph-name="uni0374" unicode="&#x374;" horiz-adv-x="600" 
d="M11 1102l190 284h387l-309 -284h-268z" />
    <glyph glyph-name="uni0375" unicode="&#x375;" horiz-adv-x="600" 
d="M11 -143l190 284h387l-309 -284h-268z" />
    <glyph glyph-name="uni0376" unicode="&#x376;" horiz-adv-x="1499" 
d="M1366 0h-367v774l-487 -774h-379v1346h369v-760l487 760h377v-1346z" />
    <glyph glyph-name="uni0377" unicode="&#x377;" horiz-adv-x="1264" 
d="M111 0v979h340v-510l364 510h338v-979h-338v510l-364 -510h-340z" />
    <glyph glyph-name="uni037A" unicode="&#x37a;" horiz-adv-x="1335" 
d="M743 -358q-106 0 -136.5 50t-30.5 130v123h196v-68q0 -40 10 -62t52 -22h12v-151h-103z" />
    <glyph glyph-name="uni037B" unicode="&#x37b;" horiz-adv-x="1158" 
d="M558 -31q-145 0 -254.5 51.5t-171.5 148.5t-65 234h358q-3 -70 32.5 -110.5t102.5 -40.5q91 0 124.5 52t33.5 167q0 119 -29.5 176.5t-114.5 57.5q-70 0 -102 -34.5t-35 -86.5h-360q4 134 70 223.5t177 134.5t250 45q150 0 266.5 -53t183.5 -166.5t67 -296.5
q0 -188 -74 -298t-195 -157t-264 -47z" />
    <glyph glyph-name="uni037C" unicode="&#x37c;" horiz-adv-x="1159" 
d="M596 -18q-141 0 -261.5 53.5t-193.5 163.5t-73 280q0 173 69.5 287t189.5 170.5t269 56.5q136 0 246.5 -40t175 -120t63.5 -200h-360q0 34 -30 57t-95 23q-91 0 -124.5 -60t-33.5 -174q0 -106 33.5 -162.5t124.5 -56.5q68 0 102.5 27t34.5 73h359q-3 -120 -66 -204.5
t-173 -129t-257 -44.5zM670 373q-76 0 -113 35.5t-37 87.5q0 53 37 87.5t113 34.5q75 0 112 -34.5t37 -87.5q0 -52 -37 -87.5t-112 -35.5z" />
    <glyph glyph-name="uni037D" unicode="&#x37d;" horiz-adv-x="1158" 
d="M562 -18q-146 0 -256.5 44.5t-173 129t-65.5 204.5h358q0 -46 35 -73t102 -27q91 0 124.5 56.5t33.5 162.5q0 114 -33.5 174t-124.5 60q-64 0 -94.5 -23t-30.5 -57h-360q-1 120 63.5 200t175 120t246.5 40q150 0 269.5 -56.5t189.5 -170.5t70 -287q0 -170 -73.5 -280
t-193.5 -163.5t-262 -53.5zM488 373q-75 0 -112 35.5t-37 87.5q0 53 37 87.5t112 34.5q76 0 113 -34.5t37 -87.5q0 -52 -37 -87.5t-113 -35.5z" />
    <glyph glyph-name="uni037E" unicode="&#x37e;" horiz-adv-x="674" 
d="M152 -344l-31 170q83 18 127 58t53 116l25 -18q-100 0 -160 59t-60 143q0 95 60 150t160 55q98 0 155.5 -67.5t57.5 -198.5q0 -153 -60.5 -256.5t-150 -156t-176.5 -54.5zM326 572q-100 0 -160 59t-60 143q0 95 60 150t160 55q98 0 155.5 -55t57.5 -150q0 -84 -57.5 -143
t-155.5 -59z" />
    <glyph glyph-name="uni037F" unicode="&#x37f;" horiz-adv-x="810" 
d="M20 -10v336h132q63 0 109 41t46 145v834h383v-836q0 -176 -56.5 -291.5t-169.5 -172t-284 -56.5h-160z" />
    <glyph glyph-name="tonos" unicode="&#x384;" horiz-adv-x="1130" 
d="M397 1102l74 381h338l-191 -381h-221z" />
    <glyph glyph-name="dieresistonos" unicode="&#x385;" horiz-adv-x="1130" 
d="M434 1102l76 407h233l-137 -407h-172zM285 1114q-58 0 -96.5 37t-38.5 94t38.5 95t96.5 38q56 0 94.5 -38t38.5 -95t-38.5 -94t-94.5 -37zM842 1114q-57 0 -96 37t-39 94t39 95t96 38q59 0 97 -38t38 -95t-38 -94t-97 -37z" />
    <glyph glyph-name="Alphatonos" unicode="&#x386;" horiz-adv-x="1303" 
d="M-20 0l462 1346h412l469 -1346h-410l-59 205h-408l-59 -205h-407zM524 512h246l-123 446zM-87 965l74 381h338l-191 -381h-221z" />
    <glyph glyph-name="anoteleia" unicode="&#x387;" horiz-adv-x="645" 
d="M326 312q-100 0 -160 59t-60 143q0 95 60 150t160 55q98 0 155.5 -55t57.5 -150q0 -84 -57.5 -143t-155.5 -59z" />
    <glyph glyph-name="Epsilontonos" unicode="&#x388;" horiz-adv-x="1190" 
d="M133 0v1346h954v-324h-561v-188h496v-312h-496v-198h561v-324h-954zM-320 965l74 381h338l-191 -381h-221z" />
    <glyph glyph-name="Etatonos" unicode="&#x389;" horiz-adv-x="1526" 
d="M133 0v1346h393v-484h471v484h396v-1346h-396v514h-471v-514h-393zM-320 965l74 381h338l-191 -381h-221z" />
    <glyph glyph-name="Iotatonos" unicode="&#x38a;" horiz-adv-x="659" 
d="M133 0v1346h393v-1346h-393zM-320 965l74 381h338l-191 -381h-221z" />
    <glyph glyph-name="Omicrontonos" unicode="&#x38c;" horiz-adv-x="1497" 
d="M748 -18q-210 0 -360 82.5t-230 237t-80 370.5q0 217 80 372t230 237.5t360 82.5q211 0 361 -82.5t230 -237.5t80 -372q0 -216 -80 -370.5t-230 -237t-361 -82.5zM748 311q97 0 156 50t85.5 132.5t26.5 178.5q0 97 -26.5 179.5t-85.5 132.5t-156 50t-156 -48.5
t-85 -130.5t-26 -183q0 -102 26 -184t85 -129.5t156 -47.5zM-228 965l74 381h338l-191 -381h-221z" />
    <glyph glyph-name="Upsilontonos" unicode="&#x38e;" horiz-adv-x="1264" 
d="M430 0v467l-450 879h440l211 -512l213 512h440l-448 -879v-467h-406zM-443 965l74 381h338l-191 -381h-221z" />
    <glyph glyph-name="Omegatonos" unicode="&#x38f;" horiz-adv-x="1503" 
d="M659 231q-265 14 -412 164t-147 396q0 180 77.5 308t223.5 196.5t351 68.5t350 -68.5t222 -196.5t77 -308q0 -250 -152 -400t-424 -160v168q92 62 132 139t40 201q0 79 -24 146t-78 108t-143 41q-91 0 -145.5 -41t-78.5 -108t-24 -146q0 -119 36.5 -197t118.5 -143v-168z
M82 0v324h577v-324h-577zM825 0v324h596v-324h-596zM-228 965l74 381h338l-191 -381h-221z" />
    <glyph glyph-name="iotadieresistonos" unicode="&#x390;" horiz-adv-x="688" 
d="M582 2q-181 0 -283 32.5t-143 112t-41 220.5v612h368v-588q0 -61 20 -83.5t83 -22.5h78v-283h-82zM178 1065l76 407h233l-137 -407h-172zM29 1077q-58 0 -96.5 37t-38.5 94t38.5 95t96.5 38q56 0 94.5 -38t38.5 -95t-38.5 -94t-94.5 -37zM586 1077q-57 0 -96 37t-39 94
t39 95t96 38q59 0 97 -38t38 -95t-38 -94t-97 -37z" />
    <glyph glyph-name="Alpha" unicode="&#x391;" horiz-adv-x="1303" 
d="M-20 0l462 1346h412l469 -1346h-410l-59 205h-408l-59 -205h-407zM524 512h246l-123 446z" />
    <glyph glyph-name="Beta" unicode="&#x392;" horiz-adv-x="1282" 
d="M133 0v1346h504q233 0 367.5 -80.5t134.5 -255.5q0 -108 -57.5 -179t-149.5 -106q151 -34 220 -118.5t69 -207.5q0 -142 -69.5 -230t-190.5 -128.5t-277 -40.5h-551zM526 293h144q47 0 82 14.5t54 43.5t19 73q0 63 -41 89t-116 26h-142v-246zM526 831h105q46 0 79 29.5
t33 87.5q0 40 -17 63t-42.5 32.5t-52.5 9.5h-105v-222z" />
    <glyph glyph-name="Gamma" unicode="&#x393;" horiz-adv-x="1022" 
d="M133 0v1346h852v-324h-459v-1022h-393z" />
    <glyph glyph-name="uni0394" unicode="&#x394;" horiz-adv-x="1366" 
d="M49 0v299l168 25h989l111 -25v-299h-1268zM49 299l428 1047h426l414 -1047l-311 -231l-320 911l-324 -911z" />
    <glyph glyph-name="Epsilon" unicode="&#x395;" horiz-adv-x="1190" 
d="M133 0v1346h954v-324h-561v-188h496v-312h-496v-198h561v-324h-954z" />
    <glyph glyph-name="Zeta" unicode="&#x396;" horiz-adv-x="1167" 
d="M45 0v309l524 711h-469v326h971v-289l-541 -731h592v-326h-1077z" />
    <glyph glyph-name="Eta" unicode="&#x397;" horiz-adv-x="1526" 
d="M133 0v1346h393v-484h471v484h396v-1346h-396v514h-471v-514h-393z" />
    <glyph glyph-name="Theta" unicode="&#x398;" horiz-adv-x="1497" 
d="M578 526v308h342v-308h-342zM748 -18q-210 0 -360 82.5t-230 237t-80 370.5q0 217 80 372t230 237.5t360 82.5q211 0 361 -82.5t230 -237.5t80 -372q0 -216 -80 -370.5t-230 -237t-361 -82.5zM748 311q97 0 156 50t85.5 132.5t26.5 178.5q0 97 -26.5 179.5t-85.5 132.5
t-156 50t-156 -48.5t-85 -130.5t-26 -183q0 -102 26 -184t85 -129.5t156 -47.5z" />
    <glyph glyph-name="Iota" unicode="&#x399;" horiz-adv-x="659" 
d="M133 0v1346h393v-1346h-393z" />
    <glyph glyph-name="Kappa" unicode="&#x39a;" horiz-adv-x="1376" 
d="M133 0v1346h393v-637l406 637h428l-432 -627l448 -719h-438l-412 688v-688h-393z" />
    <glyph glyph-name="Lambda" unicode="&#x39b;" horiz-adv-x="1298" 
d="M-20 0l442 1346h467l430 -1346h-422l-244 926l-250 -926h-423z" />
    <glyph glyph-name="Mu" unicode="&#x39c;" horiz-adv-x="1730" 
d="M133 0v1346h463l350 -625h-137l340 625h448v-1346h-385v1196h174l-405 -778h-233l-410 778h172v-1196h-377z" />
    <glyph glyph-name="Nu" unicode="&#x39d;" horiz-adv-x="1499" 
d="M133 0v1346h379l485 -736v736h369v-1346h-377l-489 745v-745h-367z" />
    <glyph glyph-name="Xi" unicode="&#x39e;" horiz-adv-x="1230" 
d="M103 0v324h1024v-324h-1024zM247 526v312h737v-312h-737zM144 1022v326h942v-326h-942z" />
    <glyph glyph-name="Omicron" unicode="&#x39f;" horiz-adv-x="1497" 
d="M748 -18q-210 0 -360 82.5t-230 237t-80 370.5q0 217 80 372t230 237.5t360 82.5q211 0 361 -82.5t230 -237.5t80 -372q0 -216 -80 -370.5t-230 -237t-361 -82.5zM748 311q97 0 156 50t85.5 132.5t26.5 178.5q0 97 -26.5 179.5t-85.5 132.5t-156 50t-156 -48.5
t-85 -130.5t-26 -183q0 -102 26 -184t85 -129.5t156 -47.5z" />
    <glyph glyph-name="Pi" unicode="&#x3a0;" horiz-adv-x="1505" 
d="M133 0v1346h1239v-1346h-395v1022h-451v-1022h-393z" />
    <glyph glyph-name="Rho" unicode="&#x3a1;" horiz-adv-x="1280" 
d="M133 0v1346h576q141 0 261 -46t192.5 -146.5t72.5 -264.5q0 -167 -72.5 -270t-192.5 -150t-261 -47h-183v-422h-393zM526 731h146q71 0 115 41t44 117q0 72 -46.5 107.5t-112.5 35.5h-146v-301z" />
    <glyph glyph-name="Sigma" unicode="&#x3a3;" horiz-adv-x="1118" 
d="M45 0v299l383 412l-352 338v297h921v-324l-446 -2l252 -232v-135l-301 -327l571 -2v-324h-1028z" />
    <glyph glyph-name="Tau" unicode="&#x3a4;" horiz-adv-x="1087" 
d="M348 0v1022h-334v324h1059v-324h-332v-1022h-393z" />
    <glyph glyph-name="Upsilon" unicode="&#x3a5;" horiz-adv-x="1264" 
d="M430 0v467l-450 879h440l211 -512l213 512h440l-448 -879v-467h-406z" />
    <glyph glyph-name="Phi" unicode="&#x3a6;" horiz-adv-x="1737" 
d="M934 104v267h90q134 0 198 81t64 238q0 151 -67 227t-195 76h-90v264h102q190 0 338 -61t233 -186.5t85 -319.5q0 -197 -85 -327.5t-233 -194.5t-338 -64h-102zM672 -41v1427h393v-1427h-393zM803 104h-103q-189 0 -337 64t-233 194.5t-85 327.5q0 194 85 319.5
t233 186.5t337 61h103v-264h-90q-127 0 -194.5 -76t-67.5 -227q0 -157 64.5 -238t197.5 -81h90v-267z" />
    <glyph glyph-name="Chi" unicode="&#x3a7;" horiz-adv-x="1311" 
d="M-14 0l456 711l-415 635h458l170 -345l185 345h442l-408 -635l451 -711h-471l-199 383l-223 -383h-446z" />
    <glyph glyph-name="Psi" unicode="&#x3a8;" horiz-adv-x="1851" 
d="M995 309v314h92q134 0 198.5 59.5t64.5 171.5v492h405v-492q0 -193 -85 -313.5t-232.5 -176t-337.5 -55.5h-105zM752 309q-188 0 -336.5 55.5t-234 176t-85.5 313.5v492h408v-492q0 -112 64.5 -171.5t197.5 -59.5h90v-314h-104zM731 0v1346h391v-1346h-391z" />
    <glyph glyph-name="uni03A9" unicode="&#x3a9;" horiz-adv-x="1503" 
d="M659 231q-265 14 -412 164t-147 396q0 180 77.5 308t223.5 196.5t351 68.5t350 -68.5t222 -196.5t77 -308q0 -250 -152 -400t-424 -160v168q92 62 132 139t40 201q0 79 -24 146t-78 108t-143 41q-91 0 -145.5 -41t-78.5 -108t-24 -146q0 -119 36.5 -197t118.5 -143v-168z
M82 0v324h577v-324h-577zM825 0v324h596v-324h-596z" />
    <glyph glyph-name="Iotadieresis" unicode="&#x3aa;" horiz-adv-x="659" 
d="M133 0v1346h393v-1346h-393zM539 1409q-63 0 -106 41.5t-43 105.5q0 65 43 106.5t106 41.5q65 0 108.5 -41.5t43.5 -106.5q0 -64 -43.5 -105.5t-108.5 -41.5zM121 1409q-64 0 -107.5 41.5t-43.5 105.5q0 65 43.5 106.5t107.5 41.5q63 0 106.5 -41.5t43.5 -106.5
q0 -64 -43.5 -105.5t-106.5 -41.5z" />
    <glyph glyph-name="Upsilondieresis" unicode="&#x3ab;" horiz-adv-x="1264" 
d="M430 0v467l-450 879h440l211 -512l213 512h440l-448 -879v-467h-406zM840 1409q-63 0 -106 41.5t-43 105.5q0 65 43 106.5t106 41.5q65 0 108.5 -41.5t43.5 -106.5q0 -64 -43.5 -105.5t-108.5 -41.5zM422 1409q-64 0 -107.5 41.5t-43.5 105.5q0 65 43.5 106.5t107.5 41.5
q63 0 106.5 -41.5t43.5 -106.5q0 -64 -43.5 -105.5t-106.5 -41.5z" />
    <glyph glyph-name="alphatonos" unicode="&#x3ac;" horiz-adv-x="1278" 
d="M457 -16q-172 0 -280.5 117.5t-108.5 381.5q0 179 57.5 290.5t156 163.5t220.5 52q97 0 162.5 -37.5t105.5 -93.5v121h356v-586q0 -69 20 -95t83 -26h33v-282h-99q-126 0 -198.5 18.5t-112 50.5t-66.5 74q-56 -70 -133 -109.5t-196 -39.5zM588 258q56 0 108 42.5t74 94.5
v199q-22 49 -69.5 86t-112.5 37q-64 0 -107 -57.5t-43 -176.5q0 -123 42 -174t108 -51zM506 1102l74 381h338l-191 -381h-221z" />
    <glyph glyph-name="epsilontonos" unicode="&#x3ad;" horiz-adv-x="1137" 
d="M573 -16q-242 0 -376 71.5t-134 229.5q0 84 49 142.5t156 84.5q-94 25 -128 81.5t-34 119.5q0 66 44 129.5t148.5 105t283.5 41.5q216 0 339 -77t134 -259h-342q0 44 -32.5 69.5t-98.5 25.5q-67 0 -96 -17.5t-29 -48.5q0 -28 26.5 -47t75.5 -19h103v-221h-115
q-51 0 -83 -18t-32 -62q0 -37 35.5 -54t105.5 -17q83 0 131 27t46 79h342q-4 -120 -66.5 -201.5t-177 -123t-275.5 -41.5zM489 1102l74 381h338l-191 -381h-221z" />
    <glyph glyph-name="etatonos" unicode="&#x3ae;" horiz-adv-x="1229" 
d="M111 0v979h360l4 -141q53 66 128.5 110.5t199.5 44.5q144 0 232.5 -85t88.5 -265v-1001h-372v956q0 34 -11.5 57t-33.5 35t-54 12q-46 0 -88.5 -23.5t-81.5 -70.5v-608h-372zM506 1102l74 381h338l-191 -381h-221z" />
    <glyph glyph-name="iotatonos" unicode="&#x3af;" horiz-adv-x="688" 
d="M582 2q-181 0 -283 32.5t-143 112t-41 220.5v612h368v-588q0 -61 20 -83.5t83 -22.5h78v-283h-82zM182 1102l74 381h338l-191 -381h-221z" />
    <glyph glyph-name="upsilondieresistonos" unicode="&#x3b0;" horiz-adv-x="1226" 
d="M626 -12q-148 0 -266 50t-186.5 148.5t-68.5 243.5v549h369v-506q0 -70 19.5 -113.5t52 -63.5t71.5 -20q42 0 75 24t52 75t19 133q0 119 -13 236t-69 235h371q58 -121 70 -243.5t12 -243.5q0 -167 -66 -279t-180.5 -168.5t-261.5 -56.5zM504 1065l76 407h233l-137 -407
h-172zM355 1077q-58 0 -96.5 37t-38.5 94t38.5 95t96.5 38q56 0 94.5 -38t38.5 -95t-38.5 -94t-94.5 -37zM912 1077q-57 0 -96 37t-39 94t39 95t96 38q59 0 97 -38t38 -95t-38 -94t-97 -37z" />
    <glyph glyph-name="alpha" unicode="&#x3b1;" horiz-adv-x="1278" 
d="M457 -16q-172 0 -280.5 117.5t-108.5 381.5q0 179 57.5 290.5t156 163.5t220.5 52q97 0 162.5 -37.5t105.5 -93.5v121h356v-586q0 -69 20 -95t83 -26h33v-282h-99q-126 0 -198.5 18.5t-112 50.5t-66.5 74q-56 -70 -133 -109.5t-196 -39.5zM588 258q56 0 108 42.5t74 94.5
v199q-22 49 -69.5 86t-112.5 37q-64 0 -107 -57.5t-43 -176.5q0 -123 42 -174t108 -51z" />
    <glyph glyph-name="beta" unicode="&#x3b2;" horiz-adv-x="1206" 
d="M115 -358v1212q0 199 70.5 309.5t186.5 155.5t255 45q210 0 334 -94.5t124 -251.5q0 -155 -112.5 -254t-351.5 -107l-41 109q284 0 421.5 -93.5t137.5 -279.5q0 -125 -58.5 -216t-159 -140t-227.5 -49q-63 0 -105.5 4.5t-77 14.5t-75.5 24v252q50 -17 94.5 -26t81.5 -9
q70 0 111 36t41 117q0 82 -53 120t-138 38h-10v252h17q77 0 120 48.5t43 115.5q0 65 -30 96t-86 31q-37 0 -70 -17.5t-53.5 -62.5t-20.5 -127v-1253h-368z" />
    <glyph glyph-name="gamma" unicode="&#x3b3;" horiz-adv-x="1065" 
d="M375 -358l4 426l364 2v-428h-368zM379 68l-399 911h385l184 -541l160 541h376l-342 -909z" />
    <glyph glyph-name="delta" unicode="&#x3b4;" horiz-adv-x="1204" 
d="M604 -18q-155 0 -276.5 54.5t-190.5 161.5t-69 265q0 113 44 201t119 149.5t168 93.5l-237 207v232h944v-283h-449l148 -109q112 -81 185.5 -156t110 -159.5t36.5 -196.5q0 -151 -68 -253.5t-188 -154.5t-277 -52zM604 262q54 0 89.5 23t53 63.5t17.5 91.5q0 56 -20 103
t-55.5 87t-82.5 72q-57 -19 -94 -56.5t-55.5 -85.5t-18.5 -97q0 -51 18.5 -97t55.5 -75t92 -29z" />
    <glyph glyph-name="epsilon" unicode="&#x3b5;" horiz-adv-x="1137" 
d="M573 -16q-242 0 -376 71.5t-134 229.5q0 84 49 142.5t156 84.5q-94 25 -128 81.5t-34 119.5q0 66 44 129.5t148.5 105t283.5 41.5q216 0 339 -77t134 -259h-342q0 44 -32.5 69.5t-98.5 25.5q-67 0 -96 -17.5t-29 -48.5q0 -28 26.5 -47t75.5 -19h103v-221h-115
q-51 0 -83 -18t-32 -62q0 -37 35.5 -54t105.5 -17q83 0 131 27t46 79h342q-4 -120 -66.5 -201.5t-177 -123t-275.5 -41.5z" />
    <glyph glyph-name="zeta" unicode="&#x3b6;" horiz-adv-x="1008" 
d="M623 -270q18 93 17.5 146t-24.5 78.5t-77 33.5l-39 6q-122 20 -219 64t-153 125t-56 212q0 101 30 179.5t89.5 148.5t148.5 143l238 197h-402v283h811v-283l-313 -295q-60 -57 -113.5 -118t-87 -117.5t-33.5 -102.5q0 -52 32 -76.5t132 -40.5l39 -6q140 -21 224.5 -79.5
t110 -176.5t-12.5 -321h-342z" />
    <glyph glyph-name="eta" unicode="&#x3b7;" horiz-adv-x="1229" 
d="M111 0v979h360l4 -141q53 66 128.5 110.5t199.5 44.5q144 0 232.5 -85t88.5 -265v-1001h-372v956q0 34 -11.5 57t-33.5 35t-54 12q-46 0 -88.5 -23.5t-81.5 -70.5v-608h-372z" />
    <glyph glyph-name="theta" unicode="&#x3b8;" horiz-adv-x="1245" 
d="M623 -18q-157 0 -279 69.5t-192 224t-70 408.5q0 246 70 396t192 218t279 68t278.5 -68t191.5 -218t70 -396q0 -254 -70 -408.5t-191.5 -224t-278.5 -69.5zM623 246q52 0 90 19.5t62.5 67.5t36 133.5t11.5 217.5q0 128 -11.5 209.5t-36 127t-62.5 63.5t-90 18t-90 -18
t-62.5 -63.5t-36.5 -127t-12 -209.5q0 -132 12 -217.5t36.5 -133.5t62.5 -67.5t90 -19.5zM397 569v242h465v-242h-465z" />
    <glyph glyph-name="iota" unicode="&#x3b9;" horiz-adv-x="688" 
d="M582 2q-181 0 -283 32.5t-143 112t-41 220.5v612h368v-588q0 -61 20 -83.5t83 -22.5h78v-283h-82z" />
    <glyph glyph-name="kappa" unicode="&#x3ba;" horiz-adv-x="1202" 
d="M111 0v979h372v-406l316 406h389l-340 -430l354 -549h-403l-197 332l-119 -117v-215h-372z" />
    <glyph glyph-name="lambda" unicode="&#x3bb;" horiz-adv-x="1065" 
d="M-20 0l407 987h389l309 -987h-376l-152 625l-192 -625h-385zM387 987l-6 14q-9 23 -51 34.5t-105 11.5h-96v299h141q128 0 219 -19t152.5 -75t99.5 -167l35 -98h-389z" />
    <glyph glyph-name="uni03BC" unicode="&#x3bc;" horiz-adv-x="1244" 
d="M111 -358v1337h372v-598q0 -33 14.5 -56.5t38.5 -36t52 -12.5q47 0 90 25t84 68v610h371v-979h-359l-4 135q-31 -57 -84.5 -102t-130.5 -45t-146 45.5t-112 129t-43 195.5h207v-716h-350z" />
    <glyph glyph-name="nu" unicode="&#x3bd;" horiz-adv-x="1065" 
d="M313 0l-333 979h385l167 -641l177 641h376l-340 -979h-432z" />
    <glyph glyph-name="xi" unicode="&#x3be;" horiz-adv-x="987" 
d="M618 -266q21 107 14 159t-37.5 71.5t-80.5 27.5l-39 6q-123 20 -214.5 57t-142 108.5t-50.5 194.5q0 102 37 177.5t111.5 123.5t186.5 66q-135 47 -189 125.5t-54 181.5q0 51 19.5 106t77.5 102.5t171.5 76.5t300.5 29h221v-297h-223q-127 0 -164 -24.5t-37 -68.5
q0 -50 54.5 -73t140.5 -23h170v-299h-152q-157 0 -230 -38t-73 -101q0 -51 40.5 -71t123.5 -36l102 -18q109 -19 178 -73t91 -169.5t-10 -320.5h-343z" />
    <glyph glyph-name="omicron" unicode="&#x3bf;" horiz-adv-x="1204" 
d="M604 -20q-155 0 -276.5 57.5t-190.5 170.5t-69 277q0 167 69 281.5t190.5 173.5t276.5 59q153 0 273.5 -59t190 -173.5t69.5 -281.5q0 -164 -69.5 -277t-190 -170.5t-273.5 -57.5zM604 260q64 0 98.5 32.5t48 84t13.5 108.5q0 59 -13.5 112.5t-48 87.5t-98.5 34
q-65 0 -101.5 -34t-50.5 -87.5t-14 -112.5q0 -57 14 -108.5t50.5 -84t101.5 -32.5z" />
    <glyph glyph-name="pi" unicode="&#x3c0;" horiz-adv-x="1291" 
d="M1167 2q-182 0 -284 32.5t-143.5 112t-41.5 220.5v331h-686v281h1217v-281h-158v-307q0 -61 20 -83.5t83 -22.5h28v-283h-35zM166 0v750h373v-750h-373z" />
    <glyph glyph-name="rho" unicode="&#x3c1;" horiz-adv-x="1239" 
d="M472 59v283q23 -31 67 -58.5t111 -27.5q68 0 110 56t42 171q0 107 -34.5 172.5t-117.5 65.5q-76 0 -126 -52t-50 -188v-839h-369v825q0 157 42.5 260t117.5 162.5t173.5 84.5t211.5 25q254 0 388 -132.5t134 -389.5q0 -175 -58.5 -284.5t-159 -161t-226.5 -51.5
q-78 0 -143 19.5t-113 59.5z" />
    <glyph glyph-name="sigma1" unicode="&#x3c2;" horiz-adv-x="1028" 
d="M618 -266q21 107 14 159t-37.5 71.5t-80.5 27.5l-39 6q-122 20 -213.5 62t-142.5 135t-51 264q0 152 43 271t151.5 188t302.5 69q128 0 233.5 -41.5t168 -124.5t61.5 -207h-360q0 39 -23 65t-74 26q-49 0 -72 -32t-29.5 -82t-6.5 -104q0 -48 15 -83.5t45.5 -57.5
t76.5 -31l102 -18q109 -19 178 -73t91 -169.5t-10 -320.5h-343z" />
    <glyph glyph-name="sigma" unicode="&#x3c3;" horiz-adv-x="1262" 
d="M600 -18q-157 0 -277 55.5t-187.5 163t-67.5 262.5q0 255 146.5 385.5t455.5 130.5h573v-283h-565q-123 0 -181.5 -57t-58.5 -176q0 -49 14.5 -95t49.5 -76t96 -30q65 0 100 31.5t48.5 79t13.5 96.5q0 94 -14 146t-35 87l-121 164q164 0 285.5 -53.5t188 -150.5
t66.5 -228q0 -220 -142.5 -336t-387.5 -116z" />
    <glyph glyph-name="tau" unicode="&#x3c4;" horiz-adv-x="941" 
d="M713 0q-181 0 -283.5 33t-144 113t-41.5 221v331h-232v281h867v-281h-263v-307q0 -61 21 -84.5t82 -23.5h100v-283h-106z" />
    <glyph glyph-name="upsilon" unicode="&#x3c5;" horiz-adv-x="1226" 
d="M626 -12q-148 0 -266 50t-186.5 148.5t-68.5 243.5v549h369v-506q0 -70 19.5 -113.5t52 -63.5t71.5 -20q42 0 75 24t52 75t19 133q0 119 -13 236t-69 235h371q58 -121 70 -243.5t12 -243.5q0 -167 -66 -279t-180.5 -168.5t-261.5 -56.5z" />
    <glyph glyph-name="phi" unicode="&#x3c6;" horiz-adv-x="1613" 
d="M809 -33q-364 0 -552.5 132t-188.5 384t188.5 386.5t552.5 134.5q358 0 547.5 -134.5t189.5 -386.5t-189.5 -384t-547.5 -132zM809 207q143 0 222 39.5t111 103t32 133.5t-32 134t-111 104.5t-222 40.5q-144 0 -225 -40.5t-113.5 -104.5t-32.5 -134t32.5 -133.5
t113.5 -103t225 -39.5zM653 -358v1704h305v-1704h-305z" />
    <glyph glyph-name="chi" unicode="&#x3c7;" horiz-adv-x="1115" 
d="M-20 -358l415 739l82 51l223 547h406l-363 -674l-81 -53l-267 -610h-415zM741 -358l-432 888q-31 66 -71.5 100t-86 46t-92.5 12h-34v299h133q102 0 172.5 -25.5t121 -76t91.5 -127.5l592 -1116h-394z" />
    <glyph glyph-name="psi" unicode="&#x3c8;" horiz-adv-x="1712" 
d="M695 -12q-167 0 -300.5 50t-211.5 148.5t-78 243.5v549h369v-506q0 -59 28 -102.5t77 -66.5t110 -23h332q62 0 110.5 23t76.5 66.5t28 102.5v506h371v-549q0 -145 -78 -243.5t-211.5 -148.5t-300.5 -50h-322zM691 -358v1704h328v-1704h-328z" />
    <glyph glyph-name="omega" unicode="&#x3c9;" horiz-adv-x="1831" 
d="M516 -10q-122 0 -218 57t-151 169t-55 276q0 121 12.5 233.5t69.5 253.5h371q-36 -92 -53.5 -169t-23 -150t-5.5 -152q0 -82 15 -132.5t40.5 -73.5t56.5 -23q48 0 83 34.5t54 106t19 180.5v133h371v-133q0 -109 18 -180.5t52.5 -106t84.5 -34.5q32 0 57.5 23t40.5 73.5
t15 132.5q0 119 -14 226t-68 245h369q59 -141 70.5 -253.5t11.5 -233.5q0 -164 -54.5 -276t-150 -169t-217.5 -57q-151 0 -245.5 59.5t-156.5 175.5q-59 -116 -150.5 -175.5t-248.5 -59.5z" />
    <glyph glyph-name="iotadieresis" unicode="&#x3ca;" horiz-adv-x="688" 
d="M582 2q-181 0 -283 32.5t-143 112t-41 220.5v612h368v-588q0 -61 20 -83.5t83 -22.5h78v-283h-82zM508 1063q-63 0 -106 41.5t-43 106.5q0 64 43 105.5t106 41.5q65 0 108.5 -41.5t43.5 -106.5q0 -64 -43.5 -105.5t-108.5 -41.5zM90 1063q-64 0 -107.5 41.5t-43.5 106.5
q0 64 43.5 105.5t107.5 41.5q63 0 106.5 -41.5t43.5 -106.5q0 -64 -43.5 -105.5t-106.5 -41.5z" />
    <glyph glyph-name="upsilondieresis" unicode="&#x3cb;" horiz-adv-x="1226" 
d="M626 -12q-148 0 -266 50t-186.5 148.5t-68.5 243.5v549h369v-506q0 -70 19.5 -113.5t52 -63.5t71.5 -20q42 0 75 24t52 75t19 133q0 119 -13 236t-69 235h371q58 -121 70 -243.5t12 -243.5q0 -167 -66 -279t-180.5 -168.5t-261.5 -56.5zM824 1063q-63 0 -106 41.5
t-43 106.5q0 64 43 105.5t106 41.5q65 0 108.5 -41.5t43.5 -106.5q0 -64 -43.5 -105.5t-108.5 -41.5zM406 1063q-64 0 -107.5 41.5t-43.5 106.5q0 64 43.5 105.5t107.5 41.5q63 0 106.5 -41.5t43.5 -106.5q0 -64 -43.5 -105.5t-106.5 -41.5z" />
    <glyph glyph-name="omicrontonos" unicode="&#x3cc;" horiz-adv-x="1204" 
d="M604 -20q-155 0 -276.5 57.5t-190.5 170.5t-69 277q0 167 69 281.5t190.5 173.5t276.5 59q153 0 273.5 -59t190 -173.5t69.5 -281.5q0 -164 -69.5 -277t-190 -170.5t-273.5 -57.5zM604 260q64 0 98.5 32.5t48 84t13.5 108.5q0 59 -13.5 112.5t-48 87.5t-98.5 34
q-65 0 -101.5 -34t-50.5 -87.5t-14 -112.5q0 -57 14 -108.5t50.5 -84t101.5 -32.5zM516 1102l74 381h338l-191 -381h-221z" />
    <glyph glyph-name="upsilontonos" unicode="&#x3cd;" horiz-adv-x="1226" 
d="M626 -12q-148 0 -266 50t-186.5 148.5t-68.5 243.5v549h369v-506q0 -70 19.5 -113.5t52 -63.5t71.5 -20q42 0 75 24t52 75t19 133q0 119 -13 236t-69 235h371q58 -121 70 -243.5t12 -243.5q0 -167 -66 -279t-180.5 -168.5t-261.5 -56.5zM491 1102l74 381h338l-191 -381
h-221z" />
    <glyph glyph-name="omegatonos" unicode="&#x3ce;" horiz-adv-x="1831" 
d="M516 -10q-122 0 -218 57t-151 169t-55 276q0 121 12.5 233.5t69.5 253.5h371q-36 -92 -53.5 -169t-23 -150t-5.5 -152q0 -82 15 -132.5t40.5 -73.5t56.5 -23q48 0 83 34.5t54 106t19 180.5v133h371v-133q0 -109 18 -180.5t52.5 -106t84.5 -34.5q32 0 57.5 23t40.5 73.5
t15 132.5q0 119 -14 226t-68 245h369q59 -141 70.5 -253.5t11.5 -233.5q0 -164 -54.5 -276t-150 -169t-217.5 -57q-151 0 -245.5 59.5t-156.5 175.5q-59 -116 -150.5 -175.5t-248.5 -59.5zM796 1102l74 381h338l-191 -381h-221z" />
    <glyph glyph-name="uni03CF" unicode="&#x3cf;" horiz-adv-x="1376" 
d="M940 -8l-414 696v-688h-393v1346h393v-637l406 637h428l-432 -627l448 -719zM614 -379v311h21q76 0 134 4.5t101 17.5t70 38l436 8q-63 -135 -151 -218.5t-228.5 -122t-361.5 -38.5h-21z" />
    <glyph glyph-name="uni03D0" unicode="&#x3d0;" horiz-adv-x="1206" 
d="M115 -358v1212q0 199 70.5 309.5t186.5 155.5t255 45q210 0 334 -94.5t124 -251.5q0 -155 -112.5 -254t-351.5 -107l-41 109q284 0 421.5 -93.5t137.5 -279.5q0 -125 -58.5 -216t-159 -140t-227.5 -49q-63 0 -105.5 4.5t-77 14.5t-75.5 24v252q50 -17 94.5 -26t81.5 -9
q70 0 111 36t41 117q0 82 -53 120t-138 38h-10v252h17q77 0 120 48.5t43 115.5q0 65 -30 96t-86 31q-37 0 -70 -17.5t-53.5 -62.5t-20.5 -127v-1253h-368z" />
    <glyph glyph-name="theta1" unicode="&#x3d1;" horiz-adv-x="1245" 
d="M623 -18q-157 0 -279 69.5t-192 224t-70 408.5q0 246 70 396t192 218t279 68t278.5 -68t191.5 -218t70 -396q0 -254 -70 -408.5t-191.5 -224t-278.5 -69.5zM623 246q52 0 90 19.5t62.5 67.5t36 133.5t11.5 217.5q0 128 -11.5 209.5t-36 127t-62.5 63.5t-90 18t-90 -18
t-62.5 -63.5t-36.5 -127t-12 -209.5q0 -132 12 -217.5t36.5 -133.5t62.5 -67.5t90 -19.5zM397 569v242h465v-242h-465z" />
    <glyph glyph-name="Upsilon1" unicode="&#x3d2;" horiz-adv-x="1293" 
d="M430 0v467l-450 879h440l229 -523l121 230q55 107 113.5 171t142.5 93t213 29h74v-336h-21q-44 0 -90.5 -19.5t-89 -58.5t-74.5 -96l-202 -369v-467h-406z" />
    <glyph glyph-name="uni03D3" unicode="&#x3d3;" horiz-adv-x="1293" 
d="M430 0v467l-450 879h440l229 -523l121 230q55 107 113.5 171t142.5 93t213 29h74v-336h-21q-44 0 -90.5 -19.5t-89 -58.5t-74.5 -96l-202 -369v-467h-406zM-443 965l74 381h338l-191 -381h-221z" />
    <glyph glyph-name="uni03D4" unicode="&#x3d4;" horiz-adv-x="1293" 
d="M430 0v467l-450 879h440l229 -523l121 230q55 107 113.5 171t142.5 93t213 29h74v-336h-21q-44 0 -90.5 -19.5t-89 -58.5t-74.5 -96l-202 -369v-467h-406zM840 1409q-63 0 -106 41.5t-43 105.5q0 65 43 106.5t106 41.5q65 0 108.5 -41.5t43.5 -106.5q0 -64 -43.5 -105.5
t-108.5 -41.5zM422 1409q-64 0 -107.5 41.5t-43.5 105.5q0 65 43.5 106.5t107.5 41.5q63 0 106.5 -41.5t43.5 -106.5q0 -64 -43.5 -105.5t-106.5 -41.5z" />
    <glyph glyph-name="phi1" unicode="&#x3d5;" horiz-adv-x="1613" 
d="M809 -33q-364 0 -552.5 132t-188.5 384t188.5 386.5t552.5 134.5q358 0 547.5 -134.5t189.5 -386.5t-189.5 -384t-547.5 -132zM809 207q143 0 222 39.5t111 103t32 133.5t-32 134t-111 104.5t-222 40.5q-144 0 -225 -40.5t-113.5 -104.5t-32.5 -134t32.5 -133.5
t113.5 -103t225 -39.5zM653 -358v1704h305v-1704h-305z" />
    <glyph glyph-name="omega1" unicode="&#x3d6;" horiz-adv-x="1291" 
d="M1167 2q-182 0 -284 32.5t-143.5 112t-41.5 220.5v331h-686v281h1217v-281h-158v-307q0 -61 20 -83.5t83 -22.5h28v-283h-35zM166 0v750h373v-750h-373z" />
    <glyph glyph-name="uni03D7" unicode="&#x3d7;" horiz-adv-x="1305" 
d="M1171 -6q-219 0 -324.5 58.5t-105.5 187.5q0 26 8.5 68.5t22.5 87t29 73.5l-393 -469h-373q36 65 70.5 158.5t57.5 195.5t23 191q0 83 -29.5 129.5t-111.5 46.5h-31v270h72q148 0 244 -28.5t143 -96t47 -184.5q0 -46 -12 -99.5t-37 -109.5l410 512h342
q-23 -50 -46.5 -117.5t-42.5 -144t-30.5 -154t-11.5 -147.5q0 -73 25.5 -115.5t94.5 -42.5h72l-2 -147zM565 -375v291q138 0 234.5 13t147 52.5t50.5 118.5l285 17q0 -230 -186.5 -358.5t-530.5 -133.5z" />
    <glyph glyph-name="uni03D8" unicode="&#x3d8;" horiz-adv-x="1497" 
d="M563 -358v467h393v-467h-393zM748 -18q-210 0 -360 82.5t-230 237t-80 370.5q0 217 80 372t230 237.5t360 82.5q211 0 361 -82.5t230 -237.5t80 -372q0 -216 -80 -370.5t-230 -237t-361 -82.5zM748 311q97 0 156 50t85.5 132.5t26.5 178.5q0 97 -26.5 179.5t-85.5 132.5
t-156 50t-156 -48.5t-85 -130.5t-26 -183q0 -102 26 -184t85 -129.5t156 -47.5z" />
    <glyph glyph-name="uni03D9" unicode="&#x3d9;" horiz-adv-x="1204" 
d="M604 -18q-155 0 -276.5 57t-190.5 169t-69 275t69 275t190.5 169.5t276.5 57.5q153 0 273.5 -57.5t190 -169.5t69.5 -275t-69.5 -275t-190 -169t-273.5 -57zM604 262q64 0 98.5 32t48 82.5t13.5 106.5t-13.5 106.5t-48 83t-98.5 32.5q-65 0 -101.5 -32.5t-50.5 -83
t-14 -106.5t14 -106.5t50.5 -82.5t101.5 -32zM418 -358v409h373v-409h-373z" />
    <glyph glyph-name="uni03DA" unicode="&#x3da;" horiz-adv-x="1351" 
d="M776 -268q19 94 12 150.5t-43 82t-106 25.5h14q-182 0 -310.5 76t-196.5 228t-68 378q0 217 83 372t231 237.5t341 82.5q169 0 305.5 -57t217 -164t81.5 -258h-405q-7 48 -32 81t-66.5 50.5t-100.5 17.5q-92 0 -147.5 -52.5t-80 -135.5t-24.5 -174q0 -129 31.5 -206
t111.5 -110.5t224 -33.5h12q208 0 293 -140t27 -450h-404z" />
    <glyph glyph-name="uni03DB" unicode="&#x3db;" horiz-adv-x="1087" 
d="M618 -266q21 107 14 159t-37.5 71.5t-80.5 27.5l-39 6q-126 20 -217 66t-140.5 139.5t-49.5 255.5q0 106 24 200t85.5 167t173 115.5t286.5 45.5q44 2 68 27.5t24 62.5h358q2 -187 -95 -274t-324 -96q-100 -4 -143 -36.5t-52.5 -81t-9.5 -102.5q0 -44 13.5 -79.5
t43.5 -59t80 -33.5l102 -18q109 -19 178 -73t91 -169.5t-10 -320.5h-343z" />
    <glyph glyph-name="uni03DC" unicode="&#x3dc;" horiz-adv-x="1106" 
d="M133 0v1346h928v-324h-535v-188h484v-539h-363v227h-121v-522h-393z" />
    <glyph glyph-name="uni03DD" unicode="&#x3dd;" horiz-adv-x="1076" 
d="M111 -358v1337h372v-1337h-372zM334 201v280h639v-280h-639zM334 698v281h680v-281h-680z" />
    <glyph glyph-name="uni03DE" unicode="&#x3de;" horiz-adv-x="1169" 
d="M1014 -20q-224 0 -326 69t-102 178q0 56 19 116.5t59 158.5l4 10h-600l102 281q19 50 35 107t16 91q0 31 -19.5 44.5t-43.5 13.5v317q175 0 267.5 -33t126.5 -87t34 -118q0 -67 -16 -126.5t-48 -157.5l-2 -6h582l-101 -283q-18 -52 -34.5 -109t-16.5 -92q0 -29 19.5 -43
t44.5 -14v-317z" />
    <glyph glyph-name="uni03DF" unicode="&#x3df;" horiz-adv-x="1189" 
d="M1016 -225q-238 0 -346.5 79.5t-108.5 206.5q0 59 27.5 150t103.5 254l-8 -16h-616l114 333q19 56 36.5 115t17.5 94q0 31 -32.5 44.5t-72.5 13.5v317q185 0 282.5 -36t134 -93.5t36.5 -124.5q0 -61 -17.5 -140t-60.5 -202l-8 -20h624l-118 -301q-13 -34 -35.5 -89
t-40 -110.5t-17.5 -91.5q0 -34 32.5 -50t72.5 -16v-317z" />
    <glyph glyph-name="uni03E0" unicode="&#x3e0;" horiz-adv-x="1274" 
d="M852 0q0 160 -42.5 307.5t-118.5 272.5t-177 218t-219 145t-244 52v371q198 0 375 -67.5t322.5 -191t252 -293.5t164.5 -376t58 -438h-371zM627 229l-199 201l367 367l200 -201zM346 512l-199 199l363 362l197 -201z" />
    <glyph glyph-name="uni03E1" unicode="&#x3e1;" horiz-adv-x="1309" 
d="M852 -205q51 212 42 383t-64.5 304t-143.5 230t-195.5 159.5t-221 93t-218.5 30.5v371q165 0 329 -40.5t313 -123.5t268 -211t196 -302.5t97 -397t-31 -496.5h-371zM633 127l-201 201l369 366l198 -200zM350 410l-196 198l360 363l199 -201z" />
    <glyph glyph-name="uni03E2" unicode="&#x3e2;" horiz-adv-x="2086" 
d="M208 -375v314h1261q47 0 72 30.5t25 73.5v137q-53 -45 -107.5 -80.5t-123 -56t-165.5 -20.5q-94 0 -168.5 44t-117.5 130.5t-43 212.5v936h395v-891q0 -34 15 -57.5t40 -35.5t56 -12q41 0 78.5 10.5t71 31.5t61.5 52v902h395v-1278q0 -215 -113.5 -329t-345.5 -114h-1286
zM450 23q-93 0 -168 40t-118.5 118.5t-43.5 193.5v971h395v-891q0 -34 15 -57.5t40.5 -35.5t57.5 -12q40 0 75 8.5t70.5 30.5t77.5 62l74 -236q-115 -94 -226 -143t-249 -49z" />
    <glyph glyph-name="uni03E3" unicode="&#x3e3;" horiz-adv-x="1884" 
d="M194 -358v288h1095q56 0 87.5 20.5t31.5 74.5v116q-54 -66 -138.5 -111.5t-209.5 -45.5q-130 0 -217.5 90t-87.5 262v643h370v-600q0 -33 15 -56t40.5 -35t55.5 -12q47 0 84.5 23.5t79.5 69.5v610h373v-911q0 -205 -109.5 -315.5t-327.5 -110.5h-1142zM411 -16
q-86 0 -155.5 40t-110 118.5t-40.5 193.5v643h371v-600q0 -33 15 -56t40 -35t56 -12q47 0 85 18t81 62l41 -213q-70 -69 -164.5 -114t-218.5 -45z" />
    <glyph glyph-name="uni03E4" unicode="&#x3e4;" horiz-adv-x="1390" 
d="M860 0v422q-84 -25 -160 -42.5t-182 -17.5q-132 0 -239 53.5t-170.5 165.5t-63.5 289q0 251 130 374.5t392 123.5h160v-336h-100q-64 0 -103 -19.5t-56 -55.5t-17 -87q0 -53 19 -88.5t53.5 -53t82.5 -17.5q68 0 129.5 10.5t124.5 30.5v598h397v-1350h-397z" />
    <glyph glyph-name="uni03E5" unicode="&#x3e5;" horiz-adv-x="1213" 
d="M729 338v641h373v-1337h-373v460q-46 -50 -116.5 -84t-180.5 -34q-95 0 -171.5 39.5t-121.5 118t-45 194.5v242q0 216 127.5 311.5t374.5 95.5h35v-289h-35q-39 0 -69 -12.5t-47 -35.5t-17 -56v-215q0 -32 14.5 -55.5t39.5 -36.5t54 -13q50 0 84 17.5t74 48.5z" />
    <glyph glyph-name="uni03E6" unicode="&#x3e6;" horiz-adv-x="1451" 
d="M342 -379v313h457q63 0 101 33t38 86v336q0 65 -38 98t-101 33q-58 0 -131.5 -7.5t-139.5 -23.5v-489h-395v1346h395v-537q97 28 180 43.5t199 15.5q111 0 207.5 -47.5t156.5 -147t60 -257.5v-355q0 -149 -60 -247t-156.5 -145.5t-207.5 -47.5h-565z" />
    <glyph glyph-name="uni03E7" unicode="&#x3e7;" horiz-adv-x="1225" 
d="M274 -375v289h342q39 0 69.5 13t47.5 36.5t17 54.5v334q0 33 -14.5 56.5t-38.5 36t-54 12.5q-51 0 -85 -17.5t-75 -48.5v-391h-372v979h372v-352q47 52 117.5 85t179.5 33q96 0 173 -39t122 -117.5t45 -195.5v-358q0 -217 -127.5 -313.5t-376.5 -96.5h-342z" />
    <glyph glyph-name="uni03E8" unicode="&#x3e8;" horiz-adv-x="1293" 
d="M638 -18q-164 0 -294.5 39.5t-206 128.5t-75.5 239q0 126 49 209.5t148 142t248 109.5q113 39 167.5 64t71.5 43.5t17 37.5q0 41 -31 54.5t-72 13.5q-37 0 -72.5 -16t-35.5 -72h-408q0 136 71.5 221.5t189 125.5t255.5 40q149 0 264 -41t180.5 -122.5t65.5 -203.5
q0 -130 -54 -210.5t-148.5 -131t-218.5 -90.5q-116 -37 -175.5 -64.5t-80.5 -53t-21 -56.5q0 -55 41 -75.5t121 -20.5q54 0 97.5 16.5t69 60t25.5 124.5h406q0 -156 -45 -256t-126 -156t-189 -78t-234 -22z" />
    <glyph glyph-name="uni03E9" unicode="&#x3e9;" horiz-adv-x="1138" 
d="M579 -20q-140 0 -255.5 27.5t-184 96.5t-68.5 195q0 111 45.5 176t124.5 101t178 57q110 23 170.5 41.5t60.5 50.5q0 20 -17 29.5t-48 9.5q-35 0 -66 -11t-31 -48h-337q0 91 39.5 148t104 87.5t141 41.5t149.5 11q74 0 150.5 -14t141 -47t104.5 -88.5t40 -138.5
q0 -97 -44 -157.5t-128 -97t-203 -63.5q-75 -17 -119.5 -31.5t-64 -31t-19.5 -41.5q0 -35 36 -49.5t100 -14.5q84 0 116.5 45.5t32.5 89.5h338q0 -144 -66 -225.5t-176.5 -115t-244.5 -33.5z" />
    <glyph glyph-name="uni03EA" unicode="&#x3ea;" horiz-adv-x="1366" 
d="M1006 68l-326 729q-26 61 -63 114t-103.5 86t-183.5 33h-158v336h160q152 0 261.5 -41t187 -111.5t134 -158.5t101.5 -183l301 -624zM49 0v248l168 76h989l111 -76v-248h-1268zM360 68l-311 180l301 624q45 95 101.5 183t134 158.5t187 111.5t261.5 41h133v-336h-131
q-116 0 -184 -35.5t-104.5 -89.5t-61.5 -108z" />
    <glyph glyph-name="uni03EB" unicode="&#x3eb;" horiz-adv-x="1228" 
d="M903 68l-293 493q-42 71 -90 100t-110.5 35t-147.5 6h-133v283h135q192 0 307.5 -40t183.5 -105t117 -140l295 -452zM61 0v248l172 35h822l112 -35v-248h-1106zM326 68l-265 180l293 450q36 55 81.5 106t113.5 92t169 65t247 24h108v-283h-104q-86 0 -149 -6t-111.5 -35
t-90.5 -100z" />
    <glyph glyph-name="uni03EC" unicode="&#x3ec;" horiz-adv-x="1481" 
d="M770 -16q-328 0 -510 172.5t-182 513.5q0 336 193 506t614 170h430v-324h-430q-146 0 -236 -33.5t-131 -110.5t-41 -208q0 -181 76.5 -271t218.5 -90q120 0 171.5 48.5t51.5 111.5q0 71 -59.5 106t-175.5 35q-103 0 -184.5 -14t-161.5 -76v279q77 68 198.5 101.5
t245.5 33.5q170 0 292 -49t187.5 -152t65.5 -264q0 -143 -72.5 -252.5t-213.5 -171t-347 -61.5z" />
    <glyph glyph-name="uni03ED" unicode="&#x3ed;" horiz-adv-x="1171" 
d="M598 -16q-255 0 -392.5 126.5t-137.5 376.5q0 243 141.5 370.5t454.5 127.5h387v-246h-387q-89 0 -144 -24t-79.5 -79t-24.5 -149q0 -126 46.5 -188.5t135.5 -62.5q88 0 122 33.5t34 82.5q0 51 -35 74t-98 23h-64v227h137q215 0 312.5 -77t97.5 -247
q0 -167 -130.5 -267.5t-375.5 -100.5z" />
    <glyph glyph-name="uni03EE" unicode="&#x3ee;" horiz-adv-x="1480" 
d="M545 0v1346h391v-1346h-391zM14 569q0 255 126 379.5t384 124.5h160v-336h-133q-61 0 -102 -40t-41 -128h-394zM1073 569q0 88 -40.5 128t-102.5 40h-133v336h159q258 0 384 -124.5t126 -379.5h-393z" />
    <glyph glyph-name="uni03EF" unicode="&#x3ef;" horiz-adv-x="1239" 
d="M484 -358v1642h373v-1642h-373zM62 520v119q0 172 114 256t325 84v-283q-89 0 -119.5 -38t-30.5 -121v-17h-289zM771 696v283h406v-283h-406z" />
    <glyph glyph-name="uni03F0" unicode="&#x3f0;" horiz-adv-x="1285" 
d="M1171 -6q-146 0 -241.5 25.5t-142 80t-46.5 140.5q0 26 8.5 68.5t22.5 87t29 73.5l-393 -469h-373q36 67 70.5 164t57.5 203t23 198q0 74 -29.5 115t-111.5 41h-31v270h72q148 0 244 -28.5t143 -96t47 -184.5q0 -46 -12 -99.5t-37 -109.5l410 512h342
q-23 -51 -46.5 -121.5t-42.5 -149.5t-30.5 -160t-11.5 -153q0 -64 25.5 -100.5t94.5 -36.5h52v-270h-93z" />
    <glyph glyph-name="uni03F1" unicode="&#x3f1;" horiz-adv-x="1239" 
d="M728 -20q-78 0 -142 19.5t-112 59.5l-2 283q23 -31 67 -58.5t111 -27.5q68 0 110 56t42 171q0 107 -34.5 172.5t-117.5 65.5q-76 0 -126 -52t-50 -188v-483l-369 16v453q0 157 42.5 260t117.5 162.5t173.5 84.5t211.5 25q254 0 388 -132.5t134 -389.5
q0 -175 -58.5 -284.5t-159 -161t-226.5 -51.5zM529 -358q-210 0 -317 90t-107 282l369 -16q0 -38 27.5 -53t74.5 -15h560v-288h-607z" />
    <glyph glyph-name="uni03F2" unicode="&#x3f2;" horiz-adv-x="1159" 
d="M596 -18q-162 0 -280.5 58t-183 169t-64.5 270q0 163 65.5 278t184 175.5t278.5 60.5q147 0 256 -45t169.5 -134t59.5 -222h-360q0 53 -30 87t-95 34q-91 0 -124.5 -60t-33.5 -174q0 -70 14.5 -119t49 -74.5t94.5 -25.5q68 0 102.5 40.5t34.5 111.5h359
q-3 -136 -61.5 -232.5t-168 -147t-266.5 -50.5z" />
    <glyph glyph-name="uni03F3" unicode="&#x3f3;" horiz-adv-x="596" 
d="M-72 -358v288h74q56 0 82.5 28.5t26.5 82.5v938h372v-911q0 -205 -108 -315.5t-328 -110.5h-119zM299 1047q-101 0 -151 46.5t-50 116.5q0 73 50 118.5t151 45.5t149 -45.5t48 -118.5q0 -70 -48 -116.5t-149 -46.5z" />
    <glyph glyph-name="uni03F4" unicode="&#x3f4;" horiz-adv-x="1497" 
d="M578 526v308h342v-308h-342zM748 -18q-210 0 -360 82.5t-230 237t-80 370.5q0 217 80 372t230 237.5t360 82.5q211 0 361 -82.5t230 -237.5t80 -372q0 -216 -80 -370.5t-230 -237t-361 -82.5zM748 311q97 0 156 50t85.5 132.5t26.5 178.5q0 97 -26.5 179.5t-85.5 132.5
t-156 50t-156 -48.5t-85 -130.5t-26 -183q0 -102 26 -184t85 -129.5t156 -47.5z" />
    <glyph glyph-name="uni03F5" unicode="&#x3f5;" horiz-adv-x="878" 
d="M657 -14q-157 0 -291.5 48.5t-216 156t-81.5 284.5q0 182 75 294.5t208 165t306 52.5h138v-282h-138q-124 0 -192 -58.5t-68 -171.5q0 -100 68 -153.5t192 -53.5h160v-282h-160zM389 371v237h334v-237h-334z" />
    <glyph glyph-name="uni03F6" unicode="&#x3f6;" horiz-adv-x="1158" 
d="M514 371v237h313v-237h-313zM558 -31q-145 0 -254.5 51.5t-171.5 148.5t-65 234h358q-3 -70 32.5 -110.5t102.5 -40.5q91 0 124.5 52t33.5 167q0 119 -29.5 176.5t-114.5 57.5q-70 0 -102 -34.5t-35 -86.5h-360q4 134 70 223.5t177 134.5t250 45q150 0 266.5 -53
t183.5 -166.5t67 -296.5q0 -188 -74 -298t-195 -157t-264 -47z" />
    <glyph glyph-name="uni03F7" unicode="&#x3f7;" horiz-adv-x="1280" 
d="M133 209v313h537q71 0 115 40.5t44 113.5q0 72 -46.5 109.5t-112.5 37.5h-537v312h576q141 0 261 -45.5t192.5 -146.5t72.5 -267q0 -165 -72.5 -268t-192.5 -151t-261 -48h-576zM133 0v1346h393v-1346h-393z" />
    <glyph glyph-name="uni03F8" unicode="&#x3f8;" horiz-adv-x="1238" 
d="M111 -358v1704h372v-494q53 68 124 104.5t169 36.5q123 0 211.5 -50.5t136 -162t47.5 -295.5q0 -179 -51.5 -290t-145.5 -162t-220 -51q-88 0 -154.5 35.5t-116.5 95.5v-471h-372zM649 258q68 0 109 56.5t41 177.5q0 124 -40.5 176.5t-109.5 52.5q-64 0 -108 -42.5
t-58 -80.5v-223q22 -40 62.5 -78.5t103.5 -38.5z" />
    <glyph glyph-name="uni03F9" unicode="&#x3f9;" horiz-adv-x="1458" 
d="M748 -18q-198 0 -349 82.5t-236 237t-85 370.5q0 217 85 372t236 237.5t349 82.5q179 0 323.5 -61.5t230.5 -177t87 -277.5h-406q-9 60 -38 101.5t-78 63t-119 21.5q-97 0 -156 -48.5t-85 -130.5t-26 -183t26 -183t85 -130t156 -48q112 0 169.5 59.5t63.5 159.5h405
q-8 -170 -81 -293t-211.5 -189t-345.5 -66z" />
    <glyph glyph-name="uni03FA" unicode="&#x3fa;" horiz-adv-x="1730" 
d="M133 0v1346h463l350 -625h-137l340 625h448v-1346h-385v1196h174l-405 -778h-233l-410 778h172v-1196h-377z" />
    <glyph glyph-name="uni03FB" unicode="&#x3fb;" horiz-adv-x="1543" 
d="M111 -358v1335h366l293 -416l285 416h377v-977h-357v520l-235 -344h-158l-233 340v-874h-338z" />
    <glyph glyph-name="uni03FC" unicode="&#x3fc;" horiz-adv-x="1239" 
d="M-4 -236v181h717v-181h-717zM472 59v283q23 -31 67 -58.5t111 -27.5q68 0 110 56t42 171q0 107 -34.5 172.5t-117.5 65.5q-76 0 -126 -52t-50 -188v-839h-369v825q0 157 42.5 260t117.5 162.5t173.5 84.5t211.5 25q254 0 388 -132.5t134 -389.5q0 -175 -58.5 -284.5
t-159 -161t-226.5 -51.5q-78 0 -143 19.5t-113 59.5z" />
    <glyph glyph-name="uni03FD" unicode="&#x3fd;" horiz-adv-x="1457" 
d="M708 -18q-206 0 -344.5 66t-211.5 189t-81 293h405q6 -100 63.5 -159.5t168.5 -59.5q100 0 158.5 48t84 130t25.5 183t-25.5 183t-84 130.5t-158.5 48.5q-69 0 -118 -21.5t-77.5 -63t-38.5 -101.5h-405q0 162 85 277.5t230 177t324 61.5q199 0 350 -82.5t236 -237.5
t85 -372q0 -216 -85 -370.5t-236 -237t-350 -82.5z" />
    <glyph glyph-name="uni03FE" unicode="&#x3fe;" horiz-adv-x="1458" 
d="M748 -18q-198 0 -349 82.5t-236 237t-85 370.5q0 217 85 372t236 237.5t349 82.5q179 0 323.5 -61.5t230.5 -177t87 -277.5h-406q-9 60 -38 101.5t-78 63t-119 21.5q-97 0 -156 -48.5t-85 -130.5t-26 -183t26 -183t85 -130t156 -48q112 0 169.5 59.5t63.5 159.5h405
q-8 -170 -81 -293t-211.5 -189t-345.5 -66zM768 525q-100 0 -149 46.5t-49 116.5q0 73 49 118.5t149 45.5q101 0 151 -45.5t50 -118.5q0 -70 -50 -116.5t-151 -46.5z" />
    <glyph glyph-name="uni03FF" unicode="&#x3ff;" horiz-adv-x="1457" 
d="M708 -18q-206 0 -344.5 66t-211.5 189t-81 293h405q6 -100 63.5 -159.5t168.5 -59.5q100 0 158.5 48t84 130t25.5 183t-25.5 183t-84 130.5t-158.5 48.5q-69 0 -118 -21.5t-77.5 -63t-38.5 -101.5h-405q0 162 85 277.5t230 177t324 61.5q199 0 350 -82.5t236 -237.5
t85 -372q0 -216 -85 -370.5t-236 -237t-350 -82.5zM688 525q-100 0 -149 46.5t-49 116.5q0 73 49 118.5t149 45.5q101 0 151 -45.5t50 -118.5q0 -70 -50 -116.5t-151 -46.5z" />
    <glyph glyph-name="uni0400" unicode="&#x400;" horiz-adv-x="1190" 
d="M133 0v1346h954v-324h-561v-188h496v-312h-496v-198h561v-324h-954zM516 1446l-299 285h385l182 -285h-268z" />
    <glyph glyph-name="uni0401" unicode="&#x401;" horiz-adv-x="1190" 
d="M133 0v1346h954v-324h-561v-188h496v-312h-496v-198h561v-324h-954zM819 1409q-63 0 -106 41.5t-43 105.5q0 65 43 106.5t106 41.5q65 0 108.5 -41.5t43.5 -106.5q0 -64 -43.5 -105.5t-108.5 -41.5zM401 1409q-64 0 -107.5 41.5t-43.5 105.5q0 65 43.5 106.5t107.5 41.5
q63 0 106.5 -41.5t43.5 -106.5q0 -64 -43.5 -105.5t-106.5 -41.5z" />
    <glyph glyph-name="uni0402" unicode="&#x402;" horiz-adv-x="1670" 
d="M352 0v1020h-334v326h1059v-326h-332v-229q71 35 155.5 56t195.5 21q131 0 233.5 -50.5t161.5 -155t59 -267.5v-235l-393 -4v219q0 89 -46 129.5t-134 40.5q-54 0 -114.5 -15.5t-117.5 -44.5v-485h-393zM883 -358v335h131q63 0 103 42.5t40 136.5l393 4
q0 -261 -125.5 -389.5t-382.5 -128.5h-159z" />
    <glyph glyph-name="uni0403" unicode="&#x403;" horiz-adv-x="1022" 
d="M133 0v1346h852v-324h-459v-1022h-393zM412 1444l182 285h385l-297 -285h-270z" />
    <glyph glyph-name="uni0404" unicode="&#x404;" horiz-adv-x="1458" 
d="M748 -18q-198 0 -349 82.5t-236 237t-85 370.5q0 217 85 372t236 237.5t349 82.5q179 0 323.5 -61.5t230.5 -177t87 -277.5h-406q-9 60 -38 101.5t-78 63t-119 21.5q-97 0 -156 -52.5t-85 -135.5t-26 -174t26 -174t85 -135t156 -52q112 0 169.5 59.5t63.5 159.5h405
q-8 -170 -81 -293t-211.5 -189t-345.5 -66zM109 526v312h772v-312h-772z" />
    <glyph glyph-name="uni0405" unicode="&#x405;" horiz-adv-x="1272" 
d="M635 -18q-162 0 -291 44.5t-204.5 142t-78.5 257.5h406q4 -49 24 -78t57 -42t91 -13q56 0 91.5 9.5t53 28.5t17.5 46q0 28 -18 49t-71.5 44.5t-162.5 57.5q-125 40 -231 89t-170 131t-64 219q0 149 74 235t197.5 123t271.5 37q152 0 276 -42t197.5 -132t73.5 -234h-406
q0 53 -38 81t-103 28q-58 0 -96.5 -18t-38.5 -50q0 -21 18 -39.5t77 -42.5t181 -63q150 -47 248 -99.5t146 -134t48 -217.5q0 -154 -78 -245.5t-208.5 -131.5t-288.5 -40z" />
    <glyph glyph-name="uni0406" unicode="&#x406;" horiz-adv-x="659" 
d="M133 0v1346h393v-1346h-393z" />
    <glyph glyph-name="uni0407" unicode="&#x407;" horiz-adv-x="659" 
d="M133 0v1346h393v-1346h-393zM539 1409q-63 0 -106 41.5t-43 105.5q0 65 43 106.5t106 41.5q65 0 108.5 -41.5t43.5 -106.5q0 -64 -43.5 -105.5t-108.5 -41.5zM121 1409q-64 0 -107.5 41.5t-43.5 105.5q0 65 43.5 106.5t107.5 41.5q63 0 106.5 -41.5t43.5 -106.5
q0 -64 -43.5 -105.5t-106.5 -41.5z" />
    <glyph glyph-name="uni0408" unicode="&#x408;" horiz-adv-x="810" 
d="M20 -10v336h132q63 0 109 41t46 145v834h383v-836q0 -176 -56.5 -291.5t-169.5 -172t-284 -56.5h-160z" />
    <glyph glyph-name="uni0409" unicode="&#x409;" horiz-adv-x="2050" 
d="M938 0v1022h-494l35 324h854l-2 -1346h-393zM10 -20v335h21q35 0 71.5 9t73 53.5t70.5 148t63 291.5l82 529h373l-78 -576q-34 -256 -81 -413t-114.5 -238.5t-164 -110t-230.5 -28.5h-86zM1294 293h142q42 0 76.5 16t54.5 46.5t20 74.5q0 80 -46.5 104.5t-104.5 24.5
h-142v-266zM1051 0l231 852h170q155 0 276 -39.5t191 -131.5t70 -251q0 -163 -70 -257t-191 -133.5t-276 -39.5h-401z" />
    <glyph glyph-name="uni040A" unicode="&#x40a;" horiz-adv-x="1998" 
d="M1278 852h123q155 0 276 -39.5t190.5 -131.5t69.5 -251q0 -163 -69.5 -257t-190.5 -133.5t-276 -39.5h-514v514h-361v-514h-393v1346h393v-484h361v484h391v-494zM1278 293h106q42 0 76.5 16t55 46.5t20.5 74.5q0 80 -46.5 104.5t-105.5 24.5h-106v-266z" />
    <glyph glyph-name="uni040B" unicode="&#x40b;" horiz-adv-x="1666" 
d="M348 0v1020h-334v326h1059v-326h-328v-229q71 35 153.5 56t193.5 21q131 0 233.5 -52.5t161.5 -161.5t59 -279v-375h-397v330q0 100 -46 145t-130 45q-54 0 -112.5 -15t-115.5 -44v-461h-397z" />
    <glyph glyph-name="uni040C" unicode="&#x40c;" horiz-adv-x="1376" 
d="M133 0v1346h393v-637l406 637h428l-432 -627l448 -719h-438l-412 688v-688h-393zM516 1446l182 285h385l-297 -285h-270z" />
    <glyph glyph-name="uni040D" unicode="&#x40d;" horiz-adv-x="1499" 
d="M1366 0h-367v774l-487 -774h-379v1346h369v-760l487 760h377v-1346zM661 1446l-299 285h385l182 -285h-268z" />
    <glyph glyph-name="uni040E" unicode="&#x40e;" horiz-adv-x="1269" 
d="M201 -8v323h53q91 0 141.5 17.5t61.5 46.5l6 16l-483 951h423l267 -607l221 607h399l-413 -1041q-48 -119 -104.5 -183.5t-126.5 -92t-155 -32.5t-190 -5h-100zM657 1440q-193 0 -293 86t-106 227h262q9 -79 52.5 -101t84.5 -22t82.5 21t50.5 102h265
q-10 -141 -106.5 -227t-291.5 -86z" />
    <glyph glyph-name="uni040F" unicode="&#x40f;" horiz-adv-x="1505" 
d="M133 0v1346h393v-1022h451v1022h395v-1346h-1239zM569 -305v604h363v-604h-363z" />
    <glyph glyph-name="uni0410" unicode="&#x410;" horiz-adv-x="1303" 
d="M-20 0l462 1346h412l469 -1346h-410l-59 205h-408l-59 -205h-407zM524 512h246l-123 446z" />
    <glyph glyph-name="uni0411" unicode="&#x411;" horiz-adv-x="1282" 
d="M133 0v1346h954v-322h-561v-1024h-393zM283 0l231 852h170q155 0 276 -39.5t191 -131.5t70 -251q0 -163 -70 -257t-191 -133.5t-276 -39.5h-401zM526 293h142q42 0 76 16t54.5 46.5t20.5 74.5q0 80 -46.5 104.5t-104.5 24.5h-142v-266z" />
    <glyph glyph-name="uni0412" unicode="&#x412;" horiz-adv-x="1282" 
d="M133 0v1346h504q233 0 367.5 -80.5t134.5 -255.5q0 -108 -57.5 -179t-149.5 -106q151 -34 220 -118.5t69 -207.5q0 -142 -69.5 -230t-190.5 -128.5t-277 -40.5h-551zM526 293h144q47 0 82 14.5t54 43.5t19 73q0 63 -41 89t-116 26h-142v-246zM526 831h105q46 0 79 29.5
t33 87.5q0 40 -17 63t-42.5 32.5t-52.5 9.5h-105v-222z" />
    <glyph glyph-name="uni0413" unicode="&#x413;" horiz-adv-x="1022" 
d="M133 0v1346h852v-324h-459v-1022h-393z" />
    <glyph glyph-name="uni0414" unicode="&#x414;" horiz-adv-x="1626" 
d="M12 -305v618h219q36 104 64.5 223.5t51 251t40.5 272t33 286.5h956v-1022h226v-629h-365v305h-862v-305h-363zM625 324h356v698h-240q-5 -60 -13.5 -128.5t-19 -141.5t-23.5 -147t-28 -145t-32 -136z" />
    <glyph glyph-name="uni0415" unicode="&#x415;" horiz-adv-x="1190" 
d="M133 0v1346h954v-324h-561v-188h496v-312h-496v-198h561v-324h-954z" />
    <glyph glyph-name="uni0416" unicode="&#x416;" horiz-adv-x="2073" 
d="M850 0v1346h373v-637l405 637h428l-432 -627l449 -719h-439l-411 688v-688h-373zM0 0l449 719l-433 627h428l406 -637v-21l-412 -688h-438z" />
    <glyph glyph-name="uni0417" unicode="&#x417;" horiz-adv-x="1232" 
d="M606 -16q-183 0 -305.5 49t-184 153.5t-61.5 272.5h377q0 -73 43 -110.5t131 -37.5q86 0 124 30.5t38 96.5q0 60 -49 83.5t-109 23.5h-102v307h115q53 0 98 24t45 68q0 47 -35.5 69.5t-114.5 22.5q-73 0 -111 -30.5t-40 -92.5h-377q0 169 73 267.5t193.5 141t263.5 42.5
q136 0 255 -36t193.5 -117t74.5 -216q0 -115 -62.5 -185.5t-175.5 -98.5q116 -22 192 -100t76 -203q0 -138 -66.5 -232.5t-192.5 -143t-306 -48.5z" />
    <glyph glyph-name="uni0418" unicode="&#x418;" horiz-adv-x="1499" 
d="M1366 0h-367v774l-487 -774h-379v1346h369v-760l487 760h377v-1346z" />
    <glyph glyph-name="uni0419" unicode="&#x419;" horiz-adv-x="1499" 
d="M1366 0h-367v774l-487 -774h-379v1346h369v-760l487 760h377v-1346zM750 1440q-193 0 -293 86t-106 227h262q9 -79 52.5 -101t84.5 -22t82.5 21t50.5 102h265q-10 -141 -106.5 -227t-291.5 -86z" />
    <glyph glyph-name="uni041A" unicode="&#x41a;" horiz-adv-x="1376" 
d="M133 0v1346h393v-637l406 637h428l-432 -627l448 -719h-438l-412 688v-688h-393z" />
    <glyph glyph-name="uni041B" unicode="&#x41b;" horiz-adv-x="1503" 
d="M977 0v1022h-533l-18 324h944v-1346h-393zM10 -20v335h21q35 0 71.5 9t73 53.5t70.5 148t63 291.5l82 529h373l-78 -576q-34 -256 -81 -413t-114.5 -238.5t-164 -110t-230.5 -28.5h-86z" />
    <glyph glyph-name="uni041C" unicode="&#x41c;" horiz-adv-x="1730" 
d="M133 0v1346h463l350 -625h-137l340 625h448v-1346h-385v1196h174l-405 -778h-233l-410 778h172v-1196h-377z" />
    <glyph glyph-name="uni041D" unicode="&#x41d;" horiz-adv-x="1526" 
d="M133 0v1346h393v-484h471v484h396v-1346h-396v514h-471v-514h-393z" />
    <glyph glyph-name="uni041E" unicode="&#x41e;" horiz-adv-x="1497" 
d="M748 -18q-210 0 -360 82.5t-230 237t-80 370.5q0 217 80 372t230 237.5t360 82.5q211 0 361 -82.5t230 -237.5t80 -372q0 -216 -80 -370.5t-230 -237t-361 -82.5zM748 311q97 0 156 50t85.5 132.5t26.5 178.5q0 97 -26.5 179.5t-85.5 132.5t-156 50t-156 -48.5
t-85 -130.5t-26 -183q0 -102 26 -184t85 -129.5t156 -47.5z" />
    <glyph glyph-name="uni041F" unicode="&#x41f;" horiz-adv-x="1505" 
d="M133 0v1346h1239v-1346h-395v1022h-451v-1022h-393z" />
    <glyph glyph-name="uni0420" unicode="&#x420;" horiz-adv-x="1280" 
d="M133 0v1346h576q141 0 261 -46t192.5 -146.5t72.5 -264.5q0 -167 -72.5 -270t-192.5 -150t-261 -47h-183v-422h-393zM526 731h146q71 0 115 41t44 117q0 72 -46.5 107.5t-112.5 35.5h-146v-301z" />
    <glyph glyph-name="uni0421" unicode="&#x421;" horiz-adv-x="1458" 
d="M748 -18q-198 0 -349 82.5t-236 237t-85 370.5q0 217 85 372t236 237.5t349 82.5q179 0 323.5 -61.5t230.5 -177t87 -277.5h-406q-9 60 -38 101.5t-78 63t-119 21.5q-97 0 -156 -48.5t-85 -130.5t-26 -183t26 -183t85 -130t156 -48q112 0 169.5 59.5t63.5 159.5h405
q-8 -170 -81 -293t-211.5 -189t-345.5 -66z" />
    <glyph glyph-name="uni0422" unicode="&#x422;" horiz-adv-x="1087" 
d="M348 0v1022h-334v324h1059v-324h-332v-1022h-393z" />
    <glyph glyph-name="uni0423" unicode="&#x423;" horiz-adv-x="1269" 
d="M201 -8v323h53q91 0 141.5 17.5t61.5 46.5l6 16l-483 951h423l267 -607l221 607h399l-413 -1041q-48 -119 -104.5 -183.5t-126.5 -92t-155 -32.5t-190 -5h-100z" />
    <glyph glyph-name="uni0424" unicode="&#x424;" horiz-adv-x="1737" 
d="M934 104v267h90q134 0 198 81t64 238q0 151 -67 227t-195 76h-90v264h102q190 0 338 -61t233 -186.5t85 -319.5q0 -197 -85 -327.5t-233 -194.5t-338 -64h-102zM672 -41v1427h393v-1427h-393zM803 104h-103q-189 0 -337 64t-233 194.5t-85 327.5q0 194 85 319.5
t233 186.5t337 61h103v-264h-90q-127 0 -194.5 -76t-67.5 -227q0 -157 64.5 -238t197.5 -81h90v-267z" />
    <glyph glyph-name="uni0425" unicode="&#x425;" horiz-adv-x="1311" 
d="M-14 0l456 711l-415 635h458l170 -345l185 345h442l-408 -635l451 -711h-471l-199 383l-223 -383h-446z" />
    <glyph glyph-name="uni0426" unicode="&#x426;" horiz-adv-x="1642" 
d="M133 0v1346h393v-1022h451v1022h395v-1346h-1239zM1255 -305v305v168v158h363v-631h-363z" />
    <glyph glyph-name="uni0427" unicode="&#x427;" horiz-adv-x="1451" 
d="M925 0v494q-74 -36 -160.5 -57t-200.5 -21q-127 0 -227.5 52.5t-158.5 161.5t-58 279v437h393v-418q0 -100 43.5 -145.5t126.5 -45.5q57 0 120.5 15.5t121.5 44.5v549h393v-1346h-393z" />
    <glyph glyph-name="uni0428" unicode="&#x428;" horiz-adv-x="2111" 
d="M133 0v1346h393v-1022h1055v1022h397v-1346h-1845zM858 47v1299h393v-1299h-393z" />
    <glyph glyph-name="uni0429" unicode="&#x429;" horiz-adv-x="2248" 
d="M133 0v1346h393v-1022h1055v1022h397v-1346h-1845zM858 47v1299h393v-1299h-393zM1862 -305v305v168v158h362v-631h-362z" />
    <glyph glyph-name="uni042A" unicode="&#x42a;" horiz-adv-x="1513" 
d="M498 0l231 852h170q155 0 276 -39.5t191 -131.5t70 -251q0 -163 -70 -257t-191 -133.5t-276 -39.5h-401zM350 0v1346h393v-1346h-393zM741 293h142q42 0 76 16t54.5 46.5t20.5 74.5q0 80 -46 104.5t-105 24.5h-142v-266zM14 1020v326h699v-326h-699z" />
    <glyph glyph-name="uni042B" unicode="&#x42b;" horiz-adv-x="1839" 
d="M246 0l231 852h170q155 0 276 -39.5t191 -131.5t70 -251q0 -163 -70 -257t-191 -133.5t-276 -39.5h-401zM133 0v1346h393v-1346h-393zM489 293h142q42 0 76 16t54.5 46.5t20.5 74.5q0 80 -46 104.5t-105 24.5h-142v-266zM1313 0v1346h393v-1346h-393z" />
    <glyph glyph-name="uni042C" unicode="&#x42c;" horiz-adv-x="1282" 
d="M133 0v1346h393v-1346h-393zM283 0l231 852h170q155 0 276 -39.5t191 -131.5t70 -251q0 -163 -70 -257t-191 -133.5t-276 -39.5h-401zM526 293h142q42 0 76 16t54.5 46.5t20.5 74.5q0 80 -46.5 104.5t-104.5 24.5h-142v-266z" />
    <glyph glyph-name="uni042D" unicode="&#x42d;" horiz-adv-x="1467" 
d="M717 -18q-206 0 -344.5 66t-211.5 189t-81 293h405q7 -100 64 -159.5t168 -59.5q101 0 159.5 48t83.5 130t25 183t-25 183t-83.5 130.5t-159.5 48.5q-68 0 -117 -21.5t-78 -63t-39 -101.5h-405q0 162 85 277.5t230 177t324 61.5q199 0 350 -82.5t236.5 -237.5t85.5 -372
q0 -216 -85.5 -370.5t-236.5 -237t-350 -82.5zM586 526v312h772v-312h-772z" />
    <glyph glyph-name="uni042E" unicode="&#x42e;" horiz-adv-x="2083" 
d="M133 0v1346h393v-484h545v-348h-545v-514h-393zM1354 -18q-205 0 -350 82.5t-222 237t-77 370.5q0 217 77 372t222 237.5t350 82.5q206 0 351.5 -82.5t222.5 -237.5t77 -372q0 -216 -77 -370.5t-222.5 -237t-351.5 -82.5zM1354 311q90 0 144.5 50t79 132.5t24.5 178.5
q0 97 -24.5 179.5t-79 132.5t-144.5 50t-144 -50t-78 -132.5t-24 -179.5q0 -96 24 -178.5t78 -132.5t144 -50z" />
    <glyph glyph-name="uni042F" unicode="&#x42f;" horiz-adv-x="1335" 
d="M0 0l104 293q33 92 63 158t84 106t159 55q-152 45 -222.5 133.5t-70.5 215.5q0 146 64.5 230t179.5 119.5t264 35.5h577v-1346h-393v455h-96q-74 0 -114.5 -18t-68 -71t-61.5 -159l-66 -207h-403zM698 776h111v246h-156q-53 0 -91 -26t-38 -89q0 -45 17 -74t55.5 -43
t101.5 -14z" />
    <glyph glyph-name="uni0430" unicode="&#x430;" horiz-adv-x="1158" 
d="M395 -16q-79 0 -154.5 32t-124 99t-48.5 170q0 139 79 208t219.5 94t325.5 31v33q0 60 -28 82.5t-74 22.5q-55 0 -85 -22.5t-30 -76.5h-344q0 126 57 199t160.5 104t241.5 31q114 0 200.5 -17.5t145 -57t88 -102.5t29.5 -155v-659h-348l-11 106q-57 -59 -127.5 -90.5
t-171.5 -31.5zM522 227q59 0 100.5 26t63.5 54v125q-148 -3 -198 -31.5t-50 -87.5q0 -43 23.5 -64.5t60.5 -21.5z" />
    <glyph glyph-name="uni0431" unicode="&#x431;" horiz-adv-x="1206" 
d="M78 625q0 175 29 287t84.5 184.5t136.5 126.5q112 74 294 108t435 53l26 2v-313l-26 -2q-249 -18 -389.5 -39.5t-184.5 -50.5q-22 -15 -34 -46.5t-16.5 -69.5t-5.5 -75.5t-1 -66.5zM608 -16q-258 0 -394 151.5t-136 489.5l246 98q15 51 72 101.5t143.5 84t187.5 33.5
q104 0 198 -46t154 -146.5t60 -264.5q0 -232 -136.5 -366.5t-394.5 -134.5zM608 262q86 0 121 61.5t35 161.5q0 92 -38 135.5t-114 43.5q-24 0 -57.5 -6.5t-67 -19t-61.5 -30.5v-41q0 -147 46.5 -226t135.5 -79z" />
    <glyph glyph-name="uni0432" unicode="&#x432;" horiz-adv-x="1128" 
d="M111 0v979h469q216 0 320 -60t104 -188q0 -79 -39.5 -126.5t-104.5 -78.5q116 -22 168.5 -82.5t52.5 -148.5q0 -108 -54 -173t-155 -93.5t-243 -28.5h-518zM473 229h145q32 0 53 9t31.5 28.5t10.5 48.5q0 45 -28 62.5t-67 17.5h-145v-166zM473 604h92q28 0 55 14.5
t27 57.5q0 46 -28 60t-54 14h-92v-146z" />
    <glyph glyph-name="uni0433" unicode="&#x433;" horiz-adv-x="815" 
d="M111 0v979h372v-979h-372zM356 698v281h447v-281h-447z" />
    <glyph glyph-name="uni0434" unicode="&#x434;" horiz-adv-x="1444" 
d="M18 -317v596h177q42 101 72 202.5t55 221.5t53 276h823v-700h238v-596h-340v317h-738v-317h-340zM569 279h256v421h-155q-10 -61 -26.5 -137.5t-35.5 -151.5t-39 -132z" />
    <glyph glyph-name="uni0435" unicode="&#x435;" horiz-adv-x="1183" 
d="M604 -18q-154 0 -275.5 54t-191 168t-69.5 292q0 161 68 271t187.5 167t272.5 57q238 0 379 -132.5t141 -387.5q0 -10 -1 -26t-3 -27h-674q2 -49 19 -92t54.5 -69t98.5 -26q66 0 109.5 23.5t46.5 77.5h346q-8 -127 -73.5 -204t-177 -111.5t-257.5 -34.5zM446 618h302
q-5 74 -50 106t-102 32q-58 0 -100.5 -35.5t-49.5 -102.5z" />
    <glyph glyph-name="uni0436" unicode="&#x436;" horiz-adv-x="1753" 
d="M0 0l340 537l-326 442h369l315 -440v440h357v-440l315 440h369l-326 -442l340 -537h-385l-313 524v-524h-357v524l-313 -524h-385z" />
    <glyph glyph-name="uni0437" unicode="&#x437;" horiz-adv-x="1095" 
d="M541 -16q-244 0 -370 85.5t-126 280.5h324q0 -64 44 -87t130 -23q75 0 107 19t32 60q0 45 -41.5 62.5t-93.5 17.5h-90v222h125q47 0 73.5 15t26.5 46q0 35 -33.5 51.5t-101.5 16.5q-73 0 -109.5 -23.5t-38.5 -73.5h-325q0 123 65 197t172.5 107.5t235.5 33.5
q135 0 238.5 -29.5t162 -87.5t58.5 -145q0 -85 -53.5 -138t-153.5 -73q100 -16 166.5 -73t66.5 -148q0 -154 -128 -233.5t-363 -79.5z" />
    <glyph glyph-name="uni0438" unicode="&#x438;" horiz-adv-x="1264" 
d="M111 0v979h340v-510l364 510h338v-979h-338v510l-364 -510h-340z" />
    <glyph glyph-name="uni0439" unicode="&#x439;" horiz-adv-x="1264" 
d="M111 0v979h340v-510l364 510h338v-979h-338v510l-364 -510h-340zM659 1092q-189 0 -286 86t-103 227h262q8 -80 48.5 -101.5t78.5 -21.5q37 0 76.5 21.5t46.5 101.5h264q-9 -141 -103.5 -227t-283.5 -86z" />
    <glyph glyph-name="uni043A" unicode="&#x43a;" horiz-adv-x="1202" 
d="M111 0v979h372v-440l316 440h389l-326 -442l340 -537h-405l-314 524v-524h-372z" />
    <glyph glyph-name="uni043B" unicode="&#x43b;" horiz-adv-x="1194" 
d="M10 -20v290h17q20 0 39.5 5t38 30.5t36.5 84.5t35 167l68 422h839v-979h-372v698h-168l-27 -178q-24 -167 -52.5 -273t-71.5 -164t-110.5 -80.5t-170.5 -22.5h-101z" />
    <glyph glyph-name="uni043C" unicode="&#x43c;" horiz-adv-x="1502" 
d="M111 0v977h366l273 -416l264 416h377v-977h-357v520l-215 -344h-157l-213 340v-516h-338z" />
    <glyph glyph-name="uni043D" unicode="&#x43d;" horiz-adv-x="1260" 
d="M776 0v979h373v-979h-373zM111 0v979h372v-979h-372zM334 354v281h526v-281h-526z" />
    <glyph glyph-name="uni043E" unicode="&#x43e;" horiz-adv-x="1204" 
d="M604 -20q-155 0 -276.5 57.5t-190.5 170.5t-69 277q0 167 69 281.5t190.5 173.5t276.5 59q153 0 273.5 -59t190 -173.5t69.5 -281.5q0 -164 -69.5 -277t-190 -170.5t-273.5 -57.5zM604 260q64 0 98.5 32.5t48 84t13.5 108.5q0 59 -13.5 112.5t-48 87.5t-98.5 34
q-65 0 -101.5 -34t-50.5 -87.5t-14 -112.5q0 -57 14 -108.5t50.5 -84t101.5 -32.5z" />
    <glyph glyph-name="uni043F" unicode="&#x43f;" horiz-adv-x="1239" 
d="M756 0v979h372v-979h-372zM111 0v979h372v-979h-372zM334 698v281h526v-281h-526z" />
    <glyph glyph-name="uni0440" unicode="&#x440;" horiz-adv-x="1238" 
d="M111 -358v1337h348l24 -127q53 68 124 104.5t169 36.5q118 0 207 -55t138.5 -167.5t49.5 -285.5q0 -169 -55 -280.5t-149 -167t-213 -55.5q-88 0 -154.5 35.5t-116.5 95.5v-471h-372zM649 258q68 0 109 56.5t41 177.5q0 124 -40.5 176.5t-109.5 52.5q-64 0 -108 -42.5
t-58 -80.5v-223q22 -40 62.5 -78.5t103.5 -38.5z" />
    <glyph glyph-name="uni0441" unicode="&#x441;" horiz-adv-x="1159" 
d="M596 -18q-162 0 -280.5 58t-183 169t-64.5 270q0 163 65.5 278t184 175.5t278.5 60.5q147 0 256 -45t169.5 -134t59.5 -222h-360q0 53 -30 87t-95 34q-91 0 -124.5 -60t-33.5 -174q0 -70 14.5 -119t49 -74.5t94.5 -25.5q68 0 102.5 40.5t34.5 111.5h359
q-3 -136 -61.5 -232.5t-168 -147t-266.5 -50.5z" />
    <glyph glyph-name="uni0442" unicode="&#x442;" horiz-adv-x="1016" 
d="M322 0v979h372v-979h-372zM12 698v281h992v-281h-992z" />
    <glyph glyph-name="uni0443" unicode="&#x443;" horiz-adv-x="1065" 
d="M102 -358v299h97q72 0 113.5 11.5t47.5 33.5l5 14l-385 979h385l188 -637l156 637h376l-333 -979l-35 -98q-31 -87 -79.5 -144.5t-140 -86.5t-253.5 -29h-142z" />
    <glyph glyph-name="uni0444" unicode="&#x444;" horiz-adv-x="1613" 
d="M809 -33q-364 0 -552.5 132t-188.5 384t188.5 386.5t552.5 134.5q358 0 547.5 -134.5t189.5 -386.5t-189.5 -384t-547.5 -132zM809 207q143 0 222 39.5t111 103t32 133.5t-32 134t-111 104.5t-222 40.5q-144 0 -225 -40.5t-113.5 -104.5t-32.5 -134t32.5 -133.5
t113.5 -103t225 -39.5zM653 -358v1704h305v-1704h-305z" />
    <glyph glyph-name="uni0445" unicode="&#x445;" horiz-adv-x="1133" 
d="M-4 0l414 600l137 59l164 320h399l-367 -563l-145 -58l-205 -358h-397zM737 0l-202 358l-125 52l-379 569h397l170 -317l119 -64l420 -598h-400z" />
    <glyph glyph-name="uni0446" unicode="&#x446;" horiz-adv-x="1374" 
d="M756 0v979h372v-979h-372zM111 0v979h372v-979h-372zM334 0v281h526v-281h-526zM1026 -317v335v52v211h340v-598h-340z" />
    <glyph glyph-name="uni0447" unicode="&#x447;" horiz-adv-x="1215" 
d="M731 0v311q-46 -28 -116.5 -53t-180.5 -25q-142 0 -241 88.5t-99 262.5v395h371v-352q0 -49 29 -77t73 -28q51 0 88.5 12t75.5 33v412h373v-979h-373z" />
    <glyph glyph-name="uni0448" unicode="&#x448;" horiz-adv-x="1801" 
d="M715 0v979h372v-979h-372zM111 0v979h372v-979h-372zM334 0v281h485v-281h-485zM1317 0v979h373v-979h-373zM936 0v281h485v-281h-485z" />
    <glyph glyph-name="uni0449" unicode="&#x449;" horiz-adv-x="1935" 
d="M715 0v979h372v-979h-372zM111 0v979h372v-979h-372zM334 0v281h485v-281h-485zM1317 0v979h373v-979h-373zM936 0v281h485v-281h-485zM1587 -317v327v43v228h340v-598h-340z" />
    <glyph glyph-name="uni044A" unicode="&#x44a;" horiz-adv-x="1299" 
d="M332 0v979h373v-313h69q141 0 247 -30.5t165 -102.5t59 -197q0 -175 -127 -255.5t-344 -80.5h-442zM705 233h53q44 0 77 24.5t33 78.5q0 57 -35 76.5t-75 19.5h-53v-199zM12 698v281h447v-281h-447z" />
    <glyph glyph-name="uni044B" unicode="&#x44b;" horiz-adv-x="1608" 
d="M111 0v979h372v-313h70q142 0 247.5 -30.5t164.5 -103t59 -198.5q0 -175 -127 -254.5t-344 -79.5h-442zM483 233h56q43 0 75.5 24.5t32.5 76.5q0 59 -35 78.5t-73 19.5h-56v-199zM1125 0v979h372v-979h-372z" />
    <glyph glyph-name="uni044C" unicode="&#x44c;" horiz-adv-x="1098" 
d="M111 0v979h372v-313h90q142 0 247.5 -30.5t164.5 -102.5t59 -197q0 -175 -127 -255.5t-344 -80.5h-462zM483 233h76q43 0 76 24.5t33 78.5q0 57 -35.5 76.5t-73.5 19.5h-76v-199z" />
    <glyph glyph-name="uni044D" unicode="&#x44d;" horiz-adv-x="1158" 
d="M558 -31q-145 0 -254.5 51.5t-171.5 148.5t-65 234h358q-3 -79 32.5 -125.5t102.5 -46.5q91 0 124.5 57t33.5 183q0 129 -29.5 191.5t-114.5 62.5q-70 0 -102 -39.5t-35 -101.5h-360q4 134 70 223.5t177 134.5t250 45q150 0 266.5 -53t183.5 -166.5t67 -296.5
q0 -188 -74 -298t-195 -157t-264 -47zM507 371v237h293v-237h-293z" />
    <glyph glyph-name="uni044E" unicode="&#x44e;" horiz-adv-x="1738" 
d="M111 0v979h372v-979h-372zM334 356v281h571v-281h-571zM1147 -18q-151 0 -269.5 57t-186.5 169t-68 275t68 275t186.5 169.5t269.5 57.5q152 0 270 -57.5t186 -169.5t68 -275t-68 -275t-186 -169t-270 -57zM1147 262q61 0 93.5 32t45 82.5t12.5 106.5t-12.5 106.5t-45 83
t-93.5 32.5q-59 0 -92.5 -32.5t-46.5 -83t-13 -106.5t13 -106.5t46.5 -82.5t92.5 -32z" />
    <glyph glyph-name="uni044F" unicode="&#x44f;" horiz-adv-x="1158" 
d="M31 0l82 227q29 80 78.5 120t134.5 50q-109 23 -176.5 92t-67.5 183q0 157 124.5 232t350.5 75h490v-979h-373v311h-39q-57 0 -89 -20t-49.5 -57t-33.5 -89l-43 -145h-389zM578 545h96v178h-121q-37 0 -65.5 -21.5t-28.5 -70.5q0 -46 33.5 -66t85.5 -20z" />
    <glyph glyph-name="uni0450" unicode="&#x450;" horiz-adv-x="1183" 
d="M604 -18q-154 0 -275.5 54t-191 168t-69.5 292q0 161 68 271t187.5 167t272.5 57q238 0 379 -132.5t141 -387.5q0 -10 -1 -26t-3 -27h-674q2 -49 19 -92t54.5 -69t98.5 -26q66 0 109.5 23.5t46.5 77.5h346q-8 -127 -73.5 -204t-177 -111.5t-257.5 -34.5zM446 618h302
q-5 74 -50 106t-102 32q-58 0 -100.5 -35.5t-49.5 -102.5zM508 1102l-307 284h387l189 -284h-269z" />
    <glyph glyph-name="uni0451" unicode="&#x451;" horiz-adv-x="1183" 
d="M604 -18q-154 0 -275.5 54t-191 168t-69.5 292q0 161 68 271t187.5 167t272.5 57q238 0 379 -132.5t141 -387.5q0 -10 -1 -26t-3 -27h-674q2 -49 19 -92t54.5 -69t98.5 -26q66 0 109.5 23.5t46.5 77.5h346q-8 -127 -73.5 -204t-177 -111.5t-257.5 -34.5zM446 618h302
q-5 74 -50 106t-102 32q-58 0 -100.5 -35.5t-49.5 -102.5zM803 1063q-63 0 -106 41.5t-43 106.5q0 64 43 105.5t106 41.5q65 0 108.5 -41.5t43.5 -106.5q0 -64 -43.5 -105.5t-108.5 -41.5zM385 1063q-64 0 -107.5 41.5t-43.5 106.5q0 64 43.5 105.5t107.5 41.5
q63 0 106.5 -41.5t43.5 -106.5q0 -64 -43.5 -105.5t-106.5 -41.5z" />
    <glyph glyph-name="uni0452" unicode="&#x452;" horiz-adv-x="1240" 
d="M121 0v1348h364v-510q53 66 128 110.5t198 44.5q138 0 231 -84t93 -266v-575l-369 -27v557q0 34 -15 57t-40.5 35t-57.5 12q-46 0 -82.5 -23t-76.5 -71v-608h-373zM580 -358v288h73q56 0 84.5 28.5t28.5 82.5l369 27q0 -205 -108.5 -315.5t-328.5 -110.5h-118zM-4 1065
v178h721v-178h-721z" />
    <glyph glyph-name="uni0453" unicode="&#x453;" horiz-adv-x="815" 
d="M111 0v979h372v-979h-372zM356 698v281h447v-281h-447zM277 1102l190 284h387l-309 -284h-268z" />
    <glyph glyph-name="uni0454" unicode="&#x454;" horiz-adv-x="1159" 
d="M367 371v237h292v-237h-292zM596 -18q-162 0 -280.5 58t-183 169t-64.5 270q0 163 65.5 278t184 175.5t278.5 60.5q147 0 256 -45t169.5 -134t59.5 -222h-360q0 53 -30 87t-95 34q-91 0 -124.5 -60t-33.5 -174q0 -70 14.5 -119t49 -74.5t94.5 -25.5q68 0 102.5 40.5
t34.5 111.5h359q-3 -136 -61.5 -232.5t-168 -147t-266.5 -50.5z" />
    <glyph glyph-name="uni0455" unicode="&#x455;" horiz-adv-x="1083" 
d="M535 -20q-90 0 -173 12.5t-148.5 46t-103.5 95t-38 159.5h338q0 -46 34.5 -62t87.5 -16q51 0 85 12.5t34 44.5q0 34 -41 53t-170 48q-95 21 -178 57t-134.5 99.5t-51.5 164.5q0 92 40 150.5t106 90.5t145.5 45t158.5 13q85 0 165 -14t143.5 -48t101 -93t37.5 -148h-338
q0 38 -30 56t-75 18q-46 0 -72 -10.5t-26 -32.5q0 -13 17 -27t70.5 -32.5t160.5 -45.5q103 -25 177 -58.5t114.5 -91t40.5 -157.5q0 -90 -38.5 -152.5t-105 -101.5t-152.5 -57t-181 -18z" />
    <glyph glyph-name="uni0456" unicode="&#x456;" horiz-adv-x="596" 
d="M111 0v979h372v-979h-372zM297 1047q-101 0 -150 46.5t-49 116.5q0 73 49 118.5t150 45.5t150 -45.5t49 -118.5q0 -70 -49 -116.5t-150 -46.5z" />
    <glyph glyph-name="uni0457" unicode="&#x457;" horiz-adv-x="596" 
d="M485 1063q-63 0 -106 41.5t-43 106.5q0 64 43 105.5t106 41.5q65 0 108.5 -41.5t43.5 -106.5q0 -64 -43.5 -105.5t-108.5 -41.5zM109 1063q-64 0 -108 41.5t-44 106.5q0 64 44 105.5t108 41.5q63 0 106 -41.5t43 -106.5q0 -64 -43 -105.5t-106 -41.5zM111 0v979h372v-979
h-372z" />
    <glyph glyph-name="uni0458" unicode="&#x458;" horiz-adv-x="596" 
d="M-72 -358v288h74q56 0 82.5 28.5t26.5 82.5v938h372v-911q0 -205 -108 -315.5t-328 -110.5h-119zM299 1047q-101 0 -151 46.5t-50 116.5q0 73 50 118.5t151 45.5t149 -45.5t48 -118.5q0 -70 -48 -116.5t-149 -46.5z" />
    <glyph glyph-name="uni0459" unicode="&#x459;" horiz-adv-x="1641" 
d="M1047 666h71q141 0 246.5 -30.5t164 -102.5t58.5 -197q0 -175 -126.5 -255.5t-344.5 -80.5h-440v698h-133l-27 -178q-24 -167 -52.5 -273t-71.5 -164t-110.5 -80.5t-170.5 -22.5h-101v290h17q20 0 39.5 5t38 30.5t36.5 84.5t35 167l68 422h803v-313zM1047 233h55
q43 0 75.5 24.5t32.5 78.5q0 57 -34 76.5t-74 19.5h-55v-199z" />
    </font>
</defs>
</svg>
