<?xml version="1.0" standalone="no"?>
<!DOCTYPE svg PUBLIC "-//W3C//DTD SVG 1.1//EN" "http://www.w3.org/Graphics/SVG/1.1/DTD/svg11.dtd" >
<svg xmlns="http://www.w3.org/2000/svg" xmlns:xlink="http://www.w3.org/1999/xlink" version="1.1">
<metadata>
Created by FontForge 20201107 at Mon Jun 19 17:26:07 2023
 By 
(c) 2023 Microsoft Corporation. All Rights Reserved.
</metadata>
<defs>
<font id="Aptos-SemiBold" horiz-adv-x="0" >
  <font-face 
    font-family="Aptos SemiBold"
    font-weight="600"
    font-stretch="normal"
    units-per-em="2048"
    panose-1="2 11 0 4 2 2 2 2 2 4"
    ascent="1638"
    descent="-410"
    x-height="975"
    cap-height="1346"
    bbox="-1066 -563 2584 2068"
    underline-thickness="50"
    underline-position="-125"
    unicode-range="U+000D-FDFC"
  />
<missing-glyph horiz-adv-x="965" 
d="M0 0v1354h965v-1354h-965zM474 222q-43 0 -70.5 27.5t-27.5 68.5q0 42 27.5 69t70.5 27q44 0 72.5 -27t28.5 -69q0 -41 -28.5 -68.5t-72.5 -27.5zM76 76h812v1200h-812v-1200zM405 521q-5 85 22.5 136t87.5 94q57 41 83 73.5t26 80.5q0 52 -35 85t-109 33
q-72 0 -112.5 -38.5t-40.5 -106.5h-147q0 126 82.5 194.5t217.5 68.5t217 -62.5t82 -173.5q0 -81 -41 -131t-110 -100q-51 -38 -68 -70.5t-21 -82.5h-134z" />
    <glyph glyph-name="uniFB01" unicode="fi" horiz-adv-x="1171" 
d="M190 0v805h-163v170h163v43q0 82 14.5 143.5t51 102.5t101 61.5t165.5 20.5h100v-162h-89q-83 0 -105.5 -41.5t-22.5 -125.5v-42h218v-170h-218v-805h-215zM803 0v975h217v-975h-217zM912 1131q-61 0 -94 32t-33 80q0 50 33 82t94 32q60 0 93.5 -32t33.5 -81t-33.5 -81
t-93.5 -32z" />
    <glyph glyph-name="uniFB02" unicode="fl" horiz-adv-x="1221" 
d="M190 0v805h-163v170h163v43q0 82 14.5 143.5t51 102.5t101 61.5t165.5 20.5h100v-162h-89q-83 0 -105.5 -41.5t-22.5 -125.5v-42h218v-170h-218v-805h-215zM1127 0q-134 0 -206.5 36.5t-100 109t-27.5 181.5v1019h216v-1006q0 -84 22 -126.5t105 -42.5h53v-171h-62z" />
    <glyph glyph-name="f_f.liga" unicode="ff" horiz-adv-x="1303" 
d="M190 0v805h-163v170h163v43q0 82 14.5 143.5t51 102.5t101 61.5t165.5 20.5h100v-162h-89q-83 0 -105.5 -41.5t-22.5 -125.5v-42h218v-170h-218v-805h-215zM842 0v805h-163v170h163v43q0 82 14.5 143.5t51 102.5t101 61.5t165.5 20.5h100v-162h-89q-83 0 -105.5 -41.5
t-22.5 -125.5v-42h218v-170h-218v-805h-215z" />
    <glyph glyph-name="uniFDFC" unicode="&#xfdfc;" horiz-adv-x="1900" arabic-form="isolated" 
d="M403 86q-154 0 -229 76.5t-75 217.5q0 42 7.5 89t21.5 91l170 -1q-11 -40 -17.5 -85t-6.5 -86q0 -70 34 -101t105 -31q117 0 175.5 57t58.5 201v642h185v-649q0 -218 -107 -319.5t-322 -101.5zM894 -21q-36 0 -60.5 25t-24.5 60q0 36 24.5 61t60.5 25q35 0 60 -25t25 -61
q0 -35 -25 -60t-60 -25zM1138 -21q-36 0 -60.5 25t-24.5 60q0 36 24.5 61t60.5 25t60 -25t24 -61q0 -35 -24 -60t-60 -25zM1373 -6v168h25q113 0 171 43.5t58 132.5q0 56 -12 117t-37 140h176q23 -75 34.5 -136.5t11.5 -130.5q0 -159 -94 -246.5t-306 -87.5h-27zM1216 221
q-138 0 -208.5 71.5t-70.5 219.5v644h185v-644q0 -63 24 -93t73 -30q51 0 80 22.5t29 70.5q0 39 -6 82t-20 101h170q14 -56 21.5 -102t7.5 -94q0 -114 -70.5 -181t-214.5 -67z" />
    <glyph glyph-name=".notdef" horiz-adv-x="965" 
d="M0 0v1354h965v-1354h-965zM474 222q-43 0 -70.5 27.5t-27.5 68.5q0 42 27.5 69t70.5 27q44 0 72.5 -27t28.5 -69q0 -41 -28.5 -68.5t-72.5 -27.5zM76 76h812v1200h-812v-1200zM405 521q-5 85 22.5 136t87.5 94q57 41 83 73.5t26 80.5q0 52 -35 85t-109 33
q-72 0 -112.5 -38.5t-40.5 -106.5h-147q0 126 82.5 194.5t217.5 68.5t217 -62.5t82 -173.5q0 -81 -41 -131t-110 -100q-51 -38 -68 -70.5t-21 -82.5h-134z" />
    <glyph glyph-name=".null" 
 />
    <glyph glyph-name="uni000D" unicode="&#xd;" 
 />
    <glyph glyph-name="space" unicode=" " horiz-adv-x="416" 
 />
    <glyph glyph-name="exclam" unicode="!" horiz-adv-x="600" 
d="M240 435q-18 109 -34.5 256t-16.5 303v352h224v-352q0 -157 -16.5 -303t-36.5 -256h-120zM302 -12q-66 0 -108 42t-42 103q0 63 42 103t108 40q64 0 105 -40t41 -103q0 -61 -41 -103t-105 -42z" />
    <glyph glyph-name="quotedbl" unicode="&#x22;" horiz-adv-x="809" 
d="M516 853q-14 95 -23 183t-9 195v115h197v-115q0 -108 -9 -194t-23 -184h-133zM159 853q-14 95 -22.5 183t-8.5 195v115h196v-115q0 -108 -8.5 -194t-22.5 -184h-134z" />
    <glyph glyph-name="numbersign" unicode="#" horiz-adv-x="1100" 
d="M188 0l55 390h-197v140h216l35 252h-197v138h217l54 388h152l-53 -388h239l54 388h153l-54 -388h191v-138h-210l-35 -252h190v-140h-209l-54 -390h-153l53 390h-239l-55 -390h-153zM415 530h241l34 252h-240z" />
    <glyph glyph-name="dollar" unicode="$" horiz-adv-x="1094" 
d="M551 -18q-134 0 -244 41t-175 132.5t-65 241.5h216q2 -95 38.5 -148.5t97 -75t134.5 -21.5t132 21t92 66t34 115q0 63 -27 106.5t-90.5 76t-173.5 60.5v-5q-141 35 -233.5 83.5t-138 121t-45.5 179.5q0 113 54 191t151 118.5t223 40.5q125 0 227 -41t162 -123t60 -207
h-215q3 103 -62 153.5t-172 50.5q-101 0 -159.5 -43t-58.5 -133q0 -76 59.5 -121.5t207.5 -85.5v5q95 -25 175.5 -55.5t140.5 -76t93 -113.5t33 -167q0 -131 -61 -217t-167.5 -128t-242.5 -42zM487 -217v1745h115v-1745h-115z" />
    <glyph glyph-name="percent" unicode="%" horiz-adv-x="1707" 
d="M374 0l795 1308h162l-795 -1308h-162zM383 515q-99 0 -165 47t-98 138t-32 221t32 219.5t98 137t165 47.5q101 0 166.5 -47.5t98 -137.5t32.5 -220t-32.5 -220.5t-98.5 -137.5t-166 -47zM383 646q55 0 85.5 37.5t43.5 99.5t13 137t-13 137t-43.5 99.5t-85.5 37.5
q-54 0 -84.5 -37.5t-43 -99.5t-12.5 -137t12.5 -137t43 -99.5t84.5 -37.5zM1323 -15q-99 0 -165 47t-98 137.5t-32 220.5t32 220t98 137t165 47q100 0 166 -47t98 -137t32 -221q0 -129 -32.5 -219.5t-98.5 -137.5t-165 -47zM1323 116q54 0 85 37t43.5 99t12.5 137
t-12.5 137.5t-43.5 99t-85 36.5t-84.5 -36.5t-43 -99t-12.5 -137.5t12.5 -137t43 -99t84.5 -37z" />
    <glyph glyph-name="ampersand" unicode="&#x26;" horiz-adv-x="1352" 
d="M570 -14q-133 0 -239.5 46t-169 132t-62.5 205q0 123 57.5 205.5t148 139t189.5 103.5h20q66 33 120.5 68.5t87 79t32.5 102.5q0 58 -36 94.5t-99 36.5q-65 0 -104 -35.5t-39 -95.5q0 -53 36 -113.5t112 -146.5l710 -807h-268l-610 698q-83 95 -136 185t-53 188
q0 87 43 152.5t122 103t186 37.5q106 0 179 -39t110 -105t37 -146q0 -94 -42 -160t-108.5 -113.5t-139.5 -87.5h-21q-101 -53 -169 -99t-102.5 -100t-34.5 -131q0 -93 65 -154.5t196 -61.5q102 0 190.5 43.5t137.5 112.5q47 63 73.5 147t26.5 199h223q0 -103 -23.5 -192.5
t-66 -164.5t-100.5 -135q-91 -97 -212.5 -144t-266.5 -47z" />
    <glyph glyph-name="quotesingle" unicode="'" horiz-adv-x="453" 
d="M159 852q-14 95 -22.5 183t-8.5 196v115h197v-115q0 -109 -9 -195t-23 -184h-134z" />
    <glyph glyph-name="parenleft" unicode="(" horiz-adv-x="600" 
d="M359 -353q-78 142 -134 272.5t-86 268t-30 299.5t28.5 306.5t84 282t137.5 278.5h180q-112 -202 -168 -428t-56 -461q0 -214 62 -425.5t162 -392.5h-180z" />
    <glyph glyph-name="parenright" unicode=")" horiz-adv-x="600" 
d="M61 -353q112 203 168 429t56 461q0 214 -62 424.5t-162 392.5h178q80 -141 136.5 -271.5t86 -268t29.5 -298.5q0 -163 -29 -308t-85 -282.5t-138 -278.5h-178z" />
    <glyph glyph-name="asterisk" unicode="*" horiz-adv-x="936" 
d="M287 621l-112 82l182 239l-281 76l46 134l275 -86v281h141v-281l275 86l46 -134l-282 -76l183 -238l-114 -83l-182 244z" />
    <glyph glyph-name="plus" unicode="+" horiz-adv-x="1094" 
d="M95 758h902v-178h-902v178zM457 218v902h179v-902h-179z" />
    <glyph glyph-name="comma" unicode="," horiz-adv-x="600" 
d="M165 -294l-39 113q65 23 108.5 68.5t53.5 112.5l13 -12q-66 0 -108 42t-42 103q0 64 42 104t108 40t107 -46t41 -138q0 -110 -40 -187.5t-104.5 -126t-139.5 -73.5z" />
    <glyph glyph-name="hyphen" unicode="-" horiz-adv-x="697" 
d="M86 402v187h525v-187h-525z" />
    <glyph glyph-name="period" unicode="." horiz-adv-x="600" 
d="M301 -12q-66 0 -108 42t-42 103q0 64 42 104t108 40t107 -40t41 -104q0 -61 -41 -103t-107 -42z" />
    <glyph glyph-name="slash" unicode="/" horiz-adv-x="743" 
d="M28 0l490 1346h197l-490 -1346h-197z" />
    <glyph glyph-name="zero" unicode="0" horiz-adv-x="1094" 
d="M547 -18q-121 0 -208 47.5t-142.5 136t-82 212t-26.5 274.5q0 152 26.5 276t82 213t142.5 137t208 48q120 0 207 -48t142.5 -137t82.5 -212.5t27 -275.5t-27 -275.5t-82.5 -212t-142.5 -136t-207 -47.5zM547 170q69 0 114 40t69.5 108t35 154.5t10.5 180.5t-10.5 181
t-35 155.5t-69.5 108t-114 39.5q-70 0 -114.5 -39.5t-70 -108t-35.5 -155.5t-10 -181t10 -180.5t35.5 -154.5t70 -108t114.5 -40z" />
    <glyph glyph-name="one" unicode="1" horiz-adv-x="1094" 
d="M521 0v1048q-29 -36 -77.5 -70.5t-116 -60.5t-154.5 -39v202q87 17 157.5 53t124.5 82.5t89 95.5h204v-1311h-227z" />
    <glyph glyph-name="two" unicode="2" horiz-adv-x="1094" 
d="M83 0v158l471 429q101 93 148.5 173t47.5 167q0 90 -46 148.5t-153 58.5q-122 0 -174.5 -68t-52.5 -173h-210q0 134 49.5 230.5t147 149t240.5 52.5q131 0 225.5 -47t145 -133t50.5 -205q0 -104 -38.5 -186.5t-104 -154.5t-146.5 -144l-301 -269h626v-186h-925z" />
    <glyph glyph-name="three" unicode="3" horiz-adv-x="1094" 
d="M554 -17q-219 0 -345 105.5t-126 312.5h211q0 -110 68 -174t191 -64q113 0 174.5 53.5t61.5 168.5q0 110 -72 161t-191 51h-79v176h85q107 0 167.5 54t60.5 144q0 87 -56.5 130t-152.5 43q-106 0 -164.5 -56t-58.5 -149h-210q0 126 56 212t153.5 130.5t222.5 44.5
q115 0 210.5 -37t153.5 -112.5t58 -190.5q0 -119 -63 -191.5t-168 -102.5q117 -22 193.5 -101.5t76.5 -218.5q0 -126 -56.5 -213t-159 -131.5t-241.5 -44.5z" />
    <glyph glyph-name="four" unicode="4" horiz-adv-x="1094" 
d="M653 0v252h-607v188l606 873h216v-878h177v-183h-177v-252h-215zM249 435h408v596z" />
    <glyph glyph-name="five" unicode="5" horiz-adv-x="1094" 
d="M550 -18q-132 0 -238 44.5t-168.5 131t-62.5 214.5h218q0 -98 70.5 -154t180.5 -56t175 66.5t65 203.5q0 131 -66.5 191.5t-175.5 60.5q-83 0 -135.5 -24.5t-86.5 -65.5h-195l57 714h729v-188h-554l-29 -355q35 38 96.5 66t156.5 28q115 0 211.5 -44.5t155.5 -138.5
t59 -244q0 -148 -60.5 -248.5t-165 -151t-237.5 -50.5z" />
    <glyph glyph-name="six" unicode="6" horiz-adv-x="1094" 
d="M576 -18q-142 0 -254 67t-176 213.5t-64 382.5q0 234 63 384t174.5 223t257.5 73q171 0 280.5 -88.5t138.5 -259.5h-212q-18 84 -71 125.5t-136 41.5q-130 0 -202 -121t-72 -378v-59q0 -157 39 -250t101.5 -133.5t133.5 -40.5q112 0 166.5 71.5t54.5 178.5t-53.5 167.5
t-150.5 60.5q-119 0 -208.5 -57t-136.5 -137l-18 159q44 59 101 108t131 78t168 29q111 0 199 -46t139 -136t51 -221q0 -128 -51.5 -226t-150.5 -153.5t-242 -55.5z" />
    <glyph glyph-name="seven" unicode="7" horiz-adv-x="1094" 
d="M230 0l558 1111h-700v197h919v-182l-543 -1126h-234z" />
    <glyph glyph-name="eight" unicode="8" horiz-adv-x="1094" 
d="M548 -18q-89 0 -171.5 22.5t-147 69.5t-102.5 120.5t-38 174.5q0 125 70.5 207t180.5 111q-90 32 -143.5 108t-53.5 188q0 121 58 196.5t150.5 111t195.5 35.5t195.5 -35.5t151 -111.5t58.5 -196q0 -113 -59.5 -190t-140.5 -106q111 -29 182 -110.5t71 -207.5
q0 -101 -38 -174.5t-102 -120.5t-146 -69.5t-171 -22.5zM547 159q63 0 117.5 24t87.5 74t33 126q0 72 -33 121t-86.5 73.5t-117.5 22.5q-60 2 -114.5 -22t-89 -73t-34.5 -122q0 -111 70.5 -167.5t166.5 -56.5zM548 772q53 -2 98.5 20.5t73.5 67t28 108.5q0 98 -59 142.5
t-141 44.5q-52 0 -97.5 -19.5t-74 -61t-28.5 -106.5q0 -64 28 -108t74 -67t98 -21z" />
    <glyph glyph-name="nine" unicode="9" horiz-adv-x="1094" 
d="M509 -18q-120 0 -210.5 41.5t-145.5 119.5t-71 185h214q15 -76 68.5 -121t144.5 -45q134 0 211 112.5t77 359.5v85q0 158 -36.5 251.5t-96 134t-129.5 40.5q-117 0 -174.5 -71.5t-57.5 -178.5q0 -106 54.5 -167.5t151.5 -61.5q84 0 145 26.5t108.5 69.5t87.5 93l10 -154
q-38 -51 -90.5 -100t-124 -81t-167.5 -32q-115 0 -205 47t-141.5 137.5t-51.5 219.5q0 126 54 224t155.5 154t244.5 56q137 0 247 -67t173.5 -212.5t63.5 -382.5t-64.5 -388t-179 -222.5t-265.5 -71.5z" />
    <glyph glyph-name="colon" unicode=":" horiz-adv-x="600" 
d="M301 -12q-66 0 -108 42t-42 103q0 64 42 104t108 40t107 -40t41 -104q0 -61 -41 -103t-107 -42zM301 686q-66 0 -108 42t-42 103q0 64 42 104t108 40t107 -40t41 -104q0 -61 -41 -103t-107 -42z" />
    <glyph glyph-name="semicolon" unicode=";" horiz-adv-x="600" 
d="M165 -294l-39 113q65 23 108.5 68.5t53.5 112.5l13 -12q-66 0 -108 42t-42 103q0 64 42 104t108 40t107 -46t41 -138q0 -110 -40 -187.5t-104.5 -126t-139.5 -73.5zM301 686q-66 0 -108 42t-42 103q0 64 42 104t108 40t107 -40t41 -104q0 -61 -41 -103t-107 -42z" />
    <glyph glyph-name="less" unicode="&#x3c;" horiz-adv-x="1094" 
d="M97 780l902 381v-178l-902 -367v164zM97 557v166l902 -376v-179z" />
    <glyph glyph-name="equal" unicode="=" horiz-adv-x="1094" 
d="M95 396v180h902v-180h-902zM95 764v178h902v-178h-902z" />
    <glyph glyph-name="greater" unicode="&#x3e;" horiz-adv-x="1094" 
d="M997 780v-164l-902 367v178zM997 557l-902 -389v179l902 376v-166z" />
    <glyph glyph-name="question" unicode="?" horiz-adv-x="1043" 
d="M412 436q0 10 -0.5 20t-0.5 20q0 105 41 172.5t125 130.5q82 62 122 110.5t40 119.5q0 77 -52 126t-159 49q-111 0 -172 -56.5t-62 -159.5h-220q0 125 57 212.5t159 133.5t238 46q133 0 232 -41.5t154 -120t55 -189.5q0 -82 -27 -141.5t-75.5 -107t-116.5 -94.5
q-53 -39 -82 -72.5t-41 -71t-16 -86.5h-199zM515 -12q-65 0 -106.5 42t-41.5 103q0 63 41.5 103t106.5 40t107 -40t42 -103q0 -61 -42 -103t-107 -42z" />
    <glyph glyph-name="at" unicode="@" horiz-adv-x="1838" 
d="M935 -215q-246 0 -433.5 94t-292.5 271t-105 425q0 180 60 325.5t170 249t259.5 159t328.5 55.5q194 0 345 -58.5t255 -162t158 -240t54 -293.5t-46 -255.5t-124.5 -144t-174.5 -45.5q-98 0 -165.5 39t-92.5 117q-30 -67 -99.5 -111.5t-171.5 -44.5q-107 0 -186 50
t-122 140.5t-43 214.5q0 121 44.5 210t125 138t188.5 49q86 0 148.5 -32.5t92.5 -80.5l8 100h189v-519q0 -62 27 -88t78 -26q55 0 90 35.5t52 100.5t17 149q0 184 -79 320t-224 211t-344 75q-194 0 -341.5 -77t-229.5 -220t-82 -340q0 -209 84 -351t232.5 -214.5
t341.5 -72.5q103 0 201.5 19t177.5 52v-162q-80 -30 -175.5 -45.5t-195.5 -15.5zM905 324q75 0 120 34t64 91t19 123q0 63 -19 117t-62 87.5t-116 33.5q-75 0 -118 -33.5t-61.5 -87.5t-18.5 -117q0 -65 18 -121.5t60 -91.5t114 -35z" />
    <glyph glyph-name="A" unicode="A" horiz-adv-x="1239" 
d="M5 0l495 1346h242l491 -1346h-239l-112 336h-522l-117 -336h-238zM418 529h404l-202 589z" />
    <glyph glyph-name="B" unicode="B" horiz-adv-x="1252" 
d="M169 0v1346h446q210 0 334 -82t124 -252q0 -107 -56.5 -185.5t-149.5 -107.5q140 -25 218 -112.5t78 -215.5t-57.5 -215.5t-169.5 -131.5t-274 -44h-493zM399 192h256q76 0 138.5 19t100 66.5t37.5 131.5q0 102 -75.5 150t-200.5 48h-256v-415zM399 787h213
q106 0 167.5 51t61.5 142q0 63 -28 102t-79.5 57.5t-121.5 18.5h-213v-371z" />
    <glyph glyph-name="C" unicode="C" horiz-adv-x="1432" 
d="M753 -18q-207 0 -352 86.5t-221 241.5t-76 362t76 362.5t221 242.5t352 87q147 0 275 -51t210 -153.5t93 -256.5h-234q-11 92 -60 151.5t-123 89t-161 29.5q-147 0 -238 -68.5t-132 -182t-41 -250.5q0 -136 41 -249.5t132 -181.5t238 -68q151 0 242.5 76.5t104.5 222.5
h235q-14 -161 -90 -270.5t-202 -164.5t-290 -55z" />
    <glyph glyph-name="D" unicode="D" horiz-adv-x="1426" 
d="M169 0v1346h477q213 0 364 -79.5t231 -230t80 -361.5q0 -216 -80.5 -366.5t-231.5 -229.5t-363 -79h-477zM399 193h211q161 0 265.5 52.5t156.5 159.5t52 271q0 160 -54 266t-159.5 158.5t-260.5 52.5h-211v-960z" />
    <glyph glyph-name="E" unicode="E" horiz-adv-x="1157" 
d="M169 0v1346h880v-192h-650v-371h594v-186h-594v-405h650v-192h-880z" />
    <glyph glyph-name="F" unicode="F" horiz-adv-x="1086" 
d="M169 0v1346h859v-192h-629v-372h566v-185h-566v-597h-230z" />
    <glyph glyph-name="G" unicode="G" horiz-adv-x="1461" 
d="M757 -18q-209 0 -355 86.5t-222 241.5t-76 362q0 208 76 363.5t222 242t355 86.5q103 0 200.5 -26.5t178 -81.5t132 -139.5t62.5 -198.5h-234q-9 71 -51.5 129t-116 92t-175.5 34q-147 0 -238.5 -68t-133.5 -181.5t-42 -251.5q0 -137 42 -250.5t134 -180.5t242 -67
q120 0 200.5 42t122.5 118t46 175h-356v186h585v-120q0 -176 -68 -309.5t-201 -208.5t-329 -75z" />
    <glyph glyph-name="H" unicode="H" horiz-adv-x="1471" 
d="M169 0v1346h230v-546h673v546h230v-1346h-230v598h-673v-598h-230z" />
    <glyph glyph-name="I" unicode="I" horiz-adv-x="568" 
d="M169 0v1346h230v-1346h-230z" />
    <glyph glyph-name="J" unicode="J" horiz-adv-x="715" 
d="M37 -10v197h86q117 0 165.5 56.5t48.5 186.5v916h226v-919q0 -151 -44 -247.5t-137.5 -143t-241.5 -46.5h-103z" />
    <glyph glyph-name="K" unicode="K" horiz-adv-x="1220" 
d="M169 0v1346h230v-645l518 645h259l-529 -633l568 -713h-272l-544 690v-690h-230z" />
    <glyph glyph-name="L" unicode="L" horiz-adv-x="1035" 
d="M169 0v1346h230v-1145h598v-201h-828z" />
    <glyph glyph-name="M" unicode="M" horiz-adv-x="1649" 
d="M169 0v1346h259l451 -755h-92l443 755h251v-1346h-227v1196h92l-448 -769h-145l-458 769h95v-1196h-221z" />
    <glyph glyph-name="N" unicode="N" horiz-adv-x="1463" 
d="M169 0v1346h229l679 -989v989h217v-1346h-229l-680 993v-993h-216z" />
    <glyph glyph-name="O" unicode="O" horiz-adv-x="1505" 
d="M753 -18q-212 0 -356.5 86.5t-218.5 241.5t-74 362t74 362.5t218.5 242.5t356.5 87q211 0 354.5 -87t218 -242.5t74.5 -362.5t-74.5 -362t-218 -241.5t-354.5 -86.5zM753 172q146 0 236 68t132 181.5t42 250.5q0 139 -42 252.5t-132 181t-236 67.5q-147 0 -238 -67.5
t-132 -181t-41 -252.5q0 -137 41 -250.5t132 -181.5t238 -68z" />
    <glyph glyph-name="P" unicode="P" horiz-adv-x="1211" 
d="M169 0v1346h507q129 0 233.5 -47.5t166 -141.5t61.5 -236q0 -138 -61.5 -230.5t-166 -139t-233.5 -46.5h-277v-505h-230zM399 692h257q109 0 177.5 57.5t68.5 171.5q0 121 -69 179t-177 58h-257v-466z" />
    <glyph glyph-name="Q" unicode="Q" horiz-adv-x="1505" 
d="M1277 -312q-134 0 -223.5 25t-146.5 71.5t-95 108.5t-71 136l154 76q32 -58 60.5 -99t68.5 -67t103 -39t164 -13h54v-199h-68zM753 -18q-212 0 -356.5 86.5t-218.5 241.5t-74 362t74 362.5t218.5 242.5t356.5 87q211 0 354.5 -87t218 -242.5t74.5 -362.5t-74.5 -362
t-218 -241.5t-354.5 -86.5zM753 172q146 0 236 68t132 181.5t42 250.5q0 139 -42 252.5t-132 181t-236 67.5q-147 0 -238 -67.5t-132 -181t-41 -252.5q0 -137 41 -250.5t132 -181.5t238 -68z" />
    <glyph glyph-name="R" unicode="R" horiz-adv-x="1269" 
d="M169 0v1346h531q123 0 222 -37t157.5 -117t58.5 -210q0 -128 -70 -218t-209 -124q81 -13 131 -51t81.5 -103t56.5 -160l89 -326h-239l-70 285q-20 85 -47 142.5t-72 86.5t-122 29h-268v-543h-230zM399 733h266q70 0 123.5 25t84.5 72.5t31 114.5q0 101 -60.5 155
t-167.5 54h-277v-421z" />
    <glyph glyph-name="S" unicode="S" horiz-adv-x="1192" 
d="M604 -18q-149 0 -268.5 44t-189.5 138t-70 246h234q2 -92 42 -145t107.5 -75t149.5 -22q78 0 140.5 21t99 65t36.5 111q0 62 -30 102t-101 70.5t-195 64.5q-145 39 -245 87t-151.5 121.5t-51.5 188.5q0 123 59 203.5t165 120.5t248 40q135 0 246.5 -41.5t178.5 -126.5
t67 -214h-234q1 100 -74.5 150.5t-183.5 50.5q-109 0 -174.5 -42.5t-65.5 -127.5q0 -49 28 -84.5t100 -65.5t203 -67q154 -43 252 -92t145 -125.5t47 -201.5q0 -136 -68 -223t-184 -129t-262 -42z" />
    <glyph glyph-name="T" unicode="T" horiz-adv-x="1007" 
d="M389 0v1153h-371v193h971v-193h-369v-1153h-231z" />
    <glyph glyph-name="U" unicode="U" horiz-adv-x="1410" 
d="M705 -18q-194 0 -316.5 65t-179.5 185.5t-57 285.5v828h235v-814q0 -188 79.5 -273t239.5 -85t238.5 85t78.5 273v814h236v-828q0 -165 -57.5 -285.5t-179.5 -185.5t-317 -65z" />
    <glyph glyph-name="V" unicode="V" horiz-adv-x="1231" 
d="M476 0l-471 1346h247l362 -1108l366 1108h246l-478 -1346h-272z" />
    <glyph glyph-name="W" unicode="W" horiz-adv-x="1877" 
d="M401 0l-396 1346h239l280 -1067l296 1067h241l296 -1067l281 1067h234l-398 -1346h-240l-297 1072l-294 -1072h-242z" />
    <glyph glyph-name="X" unicode="X" horiz-adv-x="1180" 
d="M9 0l451 700l-417 646h264l282 -484l294 484h253l-416 -648l450 -698h-272l-309 516l-323 -516h-257z" />
    <glyph glyph-name="Y" unicode="Y" horiz-adv-x="1152" 
d="M458 0v519l-458 827h255l322 -617l320 617h255l-459 -827v-519h-235z" />
    <glyph glyph-name="Z" unicode="Z" horiz-adv-x="1089" 
d="M44 0v182l679 971h-631v193h911v-173l-686 -980h728v-193h-1001z" />
    <glyph glyph-name="bracketleft" unicode="[" horiz-adv-x="646" 
d="M129 -360v1714h443v-182h-238v-1349h238v-183h-443z" />
    <glyph glyph-name="backslash" unicode="\" horiz-adv-x="743" 
d="M518 0l-490 1346h197l490 -1346h-197z" />
    <glyph glyph-name="bracketright" unicode="]" horiz-adv-x="646" 
d="M75 -360v183h236v1349h-236v182h442v-1714h-442z" />
    <glyph glyph-name="asciicircum" unicode="^" horiz-adv-x="1094" 
d="M130 780l331 566h172l331 -566h-202l-215 379l-215 -379h-202z" />
    <glyph glyph-name="underscore" unicode="_" horiz-adv-x="942" 
d="M0 -236v95h942v-95h-942z" />
    <glyph glyph-name="grave" unicode="`" horiz-adv-x="1130" 
d="M517 1108l-276 273h238l200 -273h-162z" />
    <glyph glyph-name="a" unicode="a" horiz-adv-x="1109" 
d="M410 -17q-84 0 -154.5 31.5t-113.5 95t-43 158.5q0 133 81.5 201t229 93t345.5 28v60q0 109 -54 150t-137 41q-90 0 -150 -44t-60 -141h-205q0 122 52.5 195.5t146 106.5t216.5 33q83 0 156 -15t128.5 -52.5t87 -103t31.5 -167.5v-653h-202l-8 137q-64 -72 -149.5 -113
t-197.5 -41zM475 137q88 0 160 43t118 105v177q-238 -1 -338 -44t-100 -139q0 -68 42.5 -105t117.5 -37z" />
    <glyph glyph-name="b" unicode="b" horiz-adv-x="1175" 
d="M666 -18q-108 0 -180.5 41.5t-120.5 113.5l-10 -137h-204v1346h217v-519q51 74 129.5 119.5t189.5 45.5q116 0 203.5 -56t136.5 -167.5t49 -281.5q0 -169 -52.5 -281.5t-145 -168t-212.5 -55.5zM617 152q115 0 176 86t61 246q0 168 -57.5 254t-164.5 86q-94 0 -161 -52
t-103 -125v-331q34 -68 96.5 -116t152.5 -48z" />
    <glyph glyph-name="c" unicode="c" horiz-adv-x="1100" 
d="M569 -15q-135 0 -241 53.5t-167.5 164.5t-61.5 281q0 171 59.5 283.5t165 168t245.5 55.5q118 0 213 -39t151.5 -117t59.5 -197h-211q-5 85 -60 134t-151 49q-129 0 -190 -88.5t-61 -248.5q0 -104 27 -178t82.5 -113t141.5 -39q98 0 157 52t62 150h211q-3 -122 -60 -205
t-153.5 -124.5t-218.5 -41.5z" />
    <glyph glyph-name="d" unicode="d" horiz-adv-x="1174" 
d="M486 -17q-114 0 -201.5 56t-136.5 169.5t-49 283.5q0 168 52.5 278.5t145 166t213.5 55.5q102 0 177 -44t120 -117v515h216v-1346h-205l-11 140q-52 -71 -131 -114t-190 -43zM542 152q96 0 162 48.5t103 115.5v331q-35 73 -96.5 124.5t-152.5 51.5q-116 0 -177 -85.5
t-61 -244.5q0 -170 57.5 -255.5t164.5 -85.5z" />
    <glyph glyph-name="e" unicode="e" horiz-adv-x="1109" 
d="M578 -18q-160 0 -266.5 63.5t-159.5 178t-53 265.5q0 152 51.5 264.5t154 175t256.5 62.5q208 0 328 -124t120 -354q0 -14 -1.5 -34.5t-3.5 -29.5h-689q1 -83 27.5 -152.5t84.5 -111.5t151 -42q100 0 157 44.5t60 131.5h213q-5 -108 -58.5 -183.5t-148 -114.5t-223.5 -39
zM317 594h477q-3 118 -65.5 179.5t-167.5 61.5q-108 0 -171.5 -62t-72.5 -179z" />
    <glyph glyph-name="f" unicode="f" horiz-adv-x="652" 
d="M190 0v805h-163v170h163v43q0 82 14.5 143.5t51 102.5t101 61.5t165.5 20.5h100v-162h-89q-83 0 -105.5 -41.5t-22.5 -125.5v-42h218v-170h-218v-805h-215z" />
    <glyph glyph-name="g" unicode="g" horiz-adv-x="1020" 
d="M513 -377q-166 0 -265 36t-142.5 95.5t-43.5 127.5q0 84 76 148.5t237 90.5l37 75h128q242 0 349 -65.5t107 -201.5t-123 -221t-360 -85zM509 -233q152 0 214.5 41t62.5 102q0 37 -21.5 63.5t-75 41t-149.5 14.5h-162q-54 -16 -84.5 -50.5t-30.5 -79.5q0 -51 57.5 -91.5
t188.5 -40.5zM375 39q-100 11 -159.5 41t-86 68.5t-26.5 74.5q0 56 43 98.5t135 72.5l110 -51q-53 -13 -86.5 -34t-33.5 -49q0 -20 20 -34t69 -22t136 -8zM498 313q-126 0 -214.5 46.5t-134 123t-45.5 165.5q0 93 46 169.5t135.5 122t218.5 45.5q132 0 219 -45.5t130.5 -122
t43.5 -169.5q0 -91 -44.5 -167.5t-132.5 -122t-222 -45.5zM497 449q86 0 142 50.5t56 148.5q0 102 -53 152t-138 50t-140.5 -51.5t-55.5 -150.5t57.5 -149t131.5 -50zM764 857l-72 82q40 99 116 135t188 37v-167q-74 0 -135.5 -14.5t-96.5 -72.5z" />
    <glyph glyph-name="h" unicode="h" horiz-adv-x="1157" 
d="M151 0v1346h213v-519q48 61 130 111.5t210 50.5q157 0 234 -91.5t77 -265.5v-632h-217v603q0 62 -14.5 109.5t-49.5 74t-98 26.5q-94 0 -159.5 -43.5t-108.5 -98.5v-671h-217z" />
    <glyph glyph-name="i" unicode="i" horiz-adv-x="519" 
d="M151 0v975h217v-975h-217zM260 1131q-61 0 -94 32t-33 80q0 50 33 82t94 32q60 0 93.5 -32t33.5 -81t-33.5 -81t-93.5 -32z" />
    <glyph glyph-name="j" unicode="j" horiz-adv-x="519" 
d="M-36 -358v173h50q69 0 103 32.5t34 107.5v1020h217v-1003q0 -160 -77.5 -245t-246.5 -85h-80zM260 1131q-61 0 -94 32t-33 80q0 50 33 82t94 32q60 0 93.5 -32t33.5 -82q0 -48 -33.5 -80t-93.5 -32z" />
    <glyph glyph-name="k" unicode="k" horiz-adv-x="1045" 
d="M151 0v1346h217v-825l410 454h242l-413 -452l447 -523h-254l-432 511v-511h-217z" />
    <glyph glyph-name="l" unicode="l" horiz-adv-x="569" 
d="M475 0q-134 0 -206.5 36.5t-100 109t-27.5 181.5v1019h216v-1006q0 -84 22 -126.5t105 -42.5h53v-171h-62z" />
    <glyph glyph-name="m" unicode="m" horiz-adv-x="1784" 
d="M151 0v975h208l5 -148q46 61 129.5 111.5t207.5 50.5q155 0 230 -94t75 -263v-632h-217v603q0 62 -14.5 109.5t-50 74t-98.5 26.5q-90 0 -153 -43.5t-105 -98.5v-671h-217zM1426 0v603q0 62 -14.5 109.5t-50 74t-98.5 26.5q-90 0 -153 -41.5t-108 -96.5l-29 144
q60 65 150.5 117.5t214.5 52.5q154 0 229 -94t75 -263v-632h-216z" />
    <glyph glyph-name="n" unicode="n" horiz-adv-x="1157" 
d="M151 0v975h208l5 -148q48 61 130 111.5t211 50.5q155 0 232.5 -92.5t77.5 -264.5v-632h-216v603q0 62 -15 109.5t-50.5 74t-97.5 26.5q-94 0 -159.5 -43.5t-108.5 -98.5v-671h-217z" />
    <glyph glyph-name="o" unicode="o" horiz-adv-x="1152" 
d="M572 -16q-145 0 -251.5 59.5t-164 172t-57.5 269.5q0 160 57.5 274t164 174t251.5 60q149 0 256.5 -60t166 -174t58.5 -274q0 -157 -58.5 -269.5t-166 -172t-256.5 -59.5zM572 152q98 0 155 44t81 119.5t24 169.5q0 96 -24 173t-81 121.5t-155 44.5q-94 0 -149 -44.5
t-79 -121.5t-24 -173q0 -94 24 -169.5t79 -119.5t149 -44z" />
    <glyph glyph-name="p" unicode="p" horiz-adv-x="1175" 
d="M151 -358v1333h207l10 -154q53 79 132 124.5t186 45.5q117 0 204.5 -56t136.5 -168t49 -283q0 -167 -52.5 -278t-145 -167t-212.5 -57q-100 0 -176 40.5t-123 112.5v-493h-216zM617 152q117 0 177 86t60 248q0 167 -56 252t-160 85q-99 0 -167.5 -53.5t-102.5 -121.5
v-333q35 -69 98 -116t151 -47z" />
    <glyph glyph-name="q" unicode="q" horiz-adv-x="1174" 
d="M807 -358v502q-52 -73 -132 -117.5t-187 -44.5q-119 0 -206.5 56t-135 170t-47.5 285q0 167 52 277.5t144 166.5t211 56q108 0 182.5 -45t118.5 -116l7 143h209v-1333h-216zM536 152q100 -1 167 49t104 119v329q-35 71 -96 123t-153 52q-117 1 -178.5 -85.5t-61.5 -246.5
q0 -169 58 -254t160 -86z" />
    <glyph glyph-name="r" unicode="r" horiz-adv-x="720" 
d="M151 0v975h206l5 -167q40 81 114.5 130.5t187.5 49.5h19v-189h-23q-67 0 -121.5 -14.5t-96.5 -44t-74 -73.5v-667h-217z" />
    <glyph glyph-name="s" unicode="s" horiz-adv-x="1026" 
d="M520 -18q-82 0 -157.5 16.5t-135 54.5t-94 101t-34.5 155h204q0 -98 64 -137t155 -39q86 0 138 30.5t52 101.5q0 63 -53 94t-185 61q-109 27 -188.5 62t-122 92.5t-42.5 147.5q0 70 31.5 121t85.5 84t124 49t148 16q75 0 145 -16.5t125 -53.5t87 -97t32 -147h-203
q0 89 -55 125.5t-131 36.5q-80 0 -127.5 -26t-47.5 -84q0 -33 25 -56.5t81.5 -43t151.5 -41.5q102 -24 177 -59.5t115.5 -93t40.5 -149.5q0 -82 -32.5 -140t-88.5 -94.5t-129.5 -53.5t-155.5 -17z" />
    <glyph glyph-name="t" unicode="t" horiz-adv-x="695" 
d="M522 0q-133 0 -205 36.5t-99.5 109t-27.5 181.5v478h-163v170h163v227h215v-227h227v-170h-227v-465q0 -84 22.5 -127t105.5 -43h99v-170h-110z" />
    <glyph glyph-name="u" unicode="u" horiz-adv-x="1167" 
d="M457 -14q-159 0 -237 93t-78 260v636h216v-609q0 -58 15 -103t53 -70.5t105 -25.5q94 0 159.5 40.5t109.5 96.5v671h216v-975h-209l-4 149q-48 -61 -133 -112t-213 -51z" />
    <glyph glyph-name="v" unicode="v" horiz-adv-x="968" 
d="M364 0l-364 975h226l259 -769l264 769h219l-361 -975h-243z" />
    <glyph glyph-name="w" unicode="w" horiz-adv-x="1518" 
d="M317 0l-310 975h222l209 -738l211 738h232l214 -737l207 737h208l-309 -975h-224l-218 747l-218 -747h-224z" />
    <glyph glyph-name="x" unicode="x" horiz-adv-x="960" 
d="M6 0l368 546l90 60l228 369h231l-342 -508l-83 -59l-263 -408h-229zM724 0l-264 408l-80 57l-342 510h231l229 -368l84 -57l372 -550h-230z" />
    <glyph glyph-name="y" unicode="y" horiz-adv-x="968" 
d="M109 -358v177h86q58 0 97 25.5t63 84.5l29 71l-384 975h226l274 -759l249 759h219l-358 -975l-41 -107q-36 -96 -80 -150.5t-108.5 -77.5t-161.5 -23h-110z" />
    <glyph glyph-name="z" unicode="z" horiz-adv-x="925" 
d="M71 0v160l497 645h-456v170h712v-152l-500 -653h531v-170h-784z" />
    <glyph glyph-name="braceleft" unicode="{" horiz-adv-x="646" 
d="M451 -361q-75 0 -133 30.5t-90 91.5t-32 152v265q0 91 -19.5 141.5t-61.5 71t-109 20.5v170q67 0 109 21.5t61.5 71t19.5 133.5v278q0 93 32 152.5t90 88t133 28.5h121v-160h-60q-60 0 -86 -38t-26 -102v-278q0 -88 -20 -143t-56 -85t-87 -44q51 -17 87.5 -52t56 -92
t19.5 -142v-278q0 -64 26 -102t86 -38h60v-161h-121z" />
    <glyph glyph-name="bar" unicode="|" horiz-adv-x="553" 
d="M188 -358v1704h178v-1704h-178z" />
    <glyph glyph-name="braceright" unicode="}" horiz-adv-x="646" 
d="M75 -361v161h59q60 0 85.5 38t25.5 102v278q0 85 19.5 142t56.5 92t88 52q-51 14 -88 44t-56.5 85t-19.5 143v278q0 64 -25.5 102t-85.5 38h-59v160h120q75 0 133 -28.5t90.5 -88t32.5 -152.5v-278q0 -84 19.5 -133.5t61 -71t109.5 -21.5v-170q-68 0 -109.5 -20.5
t-61 -71t-19.5 -141.5v-265q0 -91 -32.5 -152t-90.5 -91.5t-133 -30.5h-120z" />
    <glyph glyph-name="asciitilde" unicode="~" horiz-adv-x="1094" 
d="M766 498q-88 0 -149 32t-119 74q-48 36 -83.5 55t-78.5 19q-50 0 -78 -40t-31 -134h-190q8 162 83 257.5t207 95.5q84 0 146.5 -30t121.5 -74q50 -37 84 -56t78 -19q50 0 77.5 40.5t31.5 134.5h189q-6 -163 -81 -259t-208 -96z" />
    <glyph glyph-name="uni00A0" unicode="&#xa0;" horiz-adv-x="416" 
 />
    <glyph glyph-name="exclamdown" unicode="&#xa1;" horiz-adv-x="601" 
d="M189 -363v351q0 156 16.5 303t34.5 256h120q20 -109 36.5 -255.5t16.5 -303.5v-351h-224zM301 707q-65 0 -107 39.5t-42 102.5q0 61 42 103t107 42t106 -42t41 -103q0 -63 -41 -102.5t-106 -39.5z" />
    <glyph glyph-name="cent" unicode="&#xa2;" horiz-adv-x="1094" 
d="M505 -217v1393h114v-1393h-114zM566 -15q-135 0 -241 53.5t-167.5 164.5t-61.5 281q0 171 59.5 283.5t165 168t245.5 55.5q118 0 213 -39t151.5 -117t59.5 -197h-211q-5 85 -60 134t-151 49q-130 0 -192.5 -88.5t-62.5 -248.5q0 -157 62.5 -243.5t192.5 -86.5
q98 0 158 52t61 150h211q-3 -122 -60 -205t-153.5 -124.5t-218.5 -41.5z" />
    <glyph glyph-name="sterling" unicode="&#xa3;" horiz-adv-x="1094" 
d="M103 0v174q132 51 179 120.5t47 140.5q0 58 -24.5 116.5t-67.5 134.5q-47 83 -72 148.5t-25 140.5q0 158 114 254t323 96q131 0 228 -42.5t150.5 -129.5t53.5 -224h-205q1 82 -29 129.5t-81 68.5t-114 21q-106 0 -167 -50.5t-61 -136.5q0 -51 22 -103t61 -119
q47 -81 76 -151.5t29 -146.5q0 -58 -22.5 -118.5t-80.5 -108.5t-166 -67v49h738v-196h-906zM66 530v126h798v-126h-798z" />
    <glyph glyph-name="currency" unicode="&#xa4;" horiz-adv-x="1094" 
d="M204 193l-117 118l136 135q-30 45 -46 97.5t-16 109.5q0 58 16 111t46 97l-136 136l117 116l136 -135q45 30 97.5 46t109.5 16q58 0 110.5 -16t96.5 -46l137 135l116 -116l-136 -137q30 -44 45.5 -96.5t15.5 -110.5q0 -57 -15.5 -109t-45.5 -97l136 -136l-116 -118
l-137 136q-45 -29 -97 -45t-110 -16q-56 0 -109 16t-98 45zM547 432q62 0 112.5 29.5t80 80t29.5 111.5q0 62 -29.5 112t-80 79.5t-112.5 29.5q-61 0 -111.5 -29.5t-80 -79.5t-29.5 -112q0 -61 29.5 -111.5t80 -80t111.5 -29.5z" />
    <glyph glyph-name="yen" unicode="&#xa5;" horiz-adv-x="1094" 
d="M126 487v124h843v-124h-843zM126 241v125h843v-125h-843zM434 0v507l-407 801h244l278 -599l277 599h241l-408 -801v-507h-225z" />
    <glyph glyph-name="brokenbar" unicode="&#xa6;" horiz-adv-x="553" 
d="M188 301h178v-659h-178v659zM188 1346h178v-660h-178v660z" />
    <glyph glyph-name="section" unicode="&#xa7;" horiz-adv-x="992" 
d="M494 -17q-78 0 -149 16t-126 52t-87.5 96t-32.5 147h196q0 -93 57 -129.5t146 -36.5q82 0 135.5 29t53.5 95q0 62 -50.5 91.5t-177.5 60.5q-72 18 -134 39t-108 51.5t-71.5 74.5t-25.5 108q0 102 73.5 167t206.5 65l93 -82q-81 -2 -128 -31t-47 -82q0 -65 66.5 -95
t188.5 -59q98 -23 169.5 -54.5t110.5 -85.5t39 -148q0 -79 -31.5 -134.5t-86.5 -89.5t-127.5 -49.5t-152.5 -15.5zM620 462l-93 76q73 4 120.5 34.5t47.5 94.5q0 61 -52.5 91.5t-183.5 58.5q-74 17 -136 38.5t-107.5 52.5t-70.5 77.5t-25 112.5q0 71 30 121t82 82t119.5 47
t141.5 15q73 0 140 -16t120.5 -51t84 -93t30.5 -141h-196q0 86 -52.5 121t-126.5 35q-73 0 -119.5 -25.5t-46.5 -80.5q0 -33 24 -55.5t78.5 -41t143.5 -40.5q98 -24 169.5 -55t110.5 -83.5t39 -143.5q0 -81 -39.5 -132t-101.5 -75t-131 -24z" />
    <glyph glyph-name="dieresis" unicode="&#xa8;" horiz-adv-x="1130" 
d="M749 1140q-45 0 -76 29t-31 74q0 46 31 75t76 29q46 0 76.5 -29t30.5 -75q0 -45 -30.5 -74t-76.5 -29zM382 1140q-46 0 -77 29t-31 74q0 46 31 75t77 29q44 0 75 -29t31 -75q0 -45 -31 -74t-75 -29z" />
    <glyph glyph-name="copyright" unicode="&#xa9;" horiz-adv-x="1534" 
d="M766 -18q-143 0 -268 53.5t-220 148.5t-148.5 220t-53.5 268q0 144 53.5 269.5t148.5 220.5t220 148.5t268 53.5q144 0 269.5 -53.5t220.5 -148.5t148.5 -220.5t53.5 -269.5q0 -143 -53.5 -268t-148.5 -220t-220.5 -148.5t-269.5 -53.5zM766 136q111 0 208 42
t170.5 115.5t115 170.5t41.5 208q0 112 -42 209t-115.5 171t-170.5 115.5t-207 41.5t-207 -41.5t-170 -115.5t-114.5 -171.5t-41.5 -208.5t42 -208t115 -171t169.5 -115.5t206.5 -41.5zM781 288q-166 0 -263 104t-97 280q0 178 97 281.5t263 103.5q144 0 233 -79t92 -208
h-164q-1 65 -44.5 104t-116.5 39q-93 0 -144 -62.5t-51 -178.5q0 -115 51 -177t144 -62q80 0 120 42.5t42 115.5h166q-4 -143 -91.5 -223t-236.5 -80z" />
    <glyph glyph-name="ordfeminine" unicode="&#xaa;" horiz-adv-x="897" 
d="M328 558q-66 0 -123.5 25.5t-92.5 77.5t-35 130q0 109 65.5 163t183.5 73.5t276 23.5v46q0 75 -40 105.5t-104 30.5q-68 0 -111.5 -31t-43.5 -101h-183q0 140 93.5 201.5t244.5 61.5q100 0 174 -25t114.5 -83t40.5 -157v-523h-177l-7 103q-51 -62 -119 -91.5t-156 -29.5z
M392 692q75 0 131.5 39t78.5 97v114q-182 -2 -257 -35.5t-75 -105.5q0 -53 33 -81t89 -28z" />
    <glyph glyph-name="guillemotleft" unicode="&#xab;" horiz-adv-x="881" 
d="M795 160l-331 285v137l331 285v-188l-180 -166l180 -163v-190zM420 160l-333 285v137l333 285v-188l-179 -166l179 -163v-190z" />
    <glyph glyph-name="logicalnot" unicode="&#xac;" horiz-adv-x="1094" 
d="M95 985h902v-178h-902v178zM819 354v631h178v-631h-178z" />
    <glyph glyph-name="uni00AD" unicode="&#xad;" horiz-adv-x="697" 
d="M86 402v187h525v-187h-525z" />
    <glyph glyph-name="registered" unicode="&#xae;" horiz-adv-x="945" 
d="M472 602q-102 0 -187 51t-135.5 136.5t-50.5 187.5q0 104 50.5 189t135.5 135.5t187 50.5q104 0 188.5 -50.5t135 -135.5t50.5 -189q0 -102 -50.5 -187.5t-135 -136.5t-188.5 -51zM472 689q79 0 143.5 39t103 104.5t38.5 144.5q0 80 -38.5 145t-103 104t-143.5 39
q-77 0 -142 -39t-103.5 -104t-38.5 -145q0 -79 38.5 -144.5t103.5 -104.5t142 -39zM330 803v359h159q64 0 99.5 -26t35.5 -75q0 -39 -22.5 -63t-60.5 -34l1 15q31 -7 49 -26t29 -54l29 -96h-93l-23 80q-9 33 -21 43.5t-35 10.5h-56v-134h-91zM421 1009h58q26 0 39 11t13 30
q0 37 -48 37h-62v-78z" />
    <glyph glyph-name="macron" unicode="&#xaf;" horiz-adv-x="1130" 
d="M288 1164v142h555v-142h-555z" />
    <glyph glyph-name="degree" unicode="&#xb0;" horiz-adv-x="762" 
d="M380 675q-88 0 -161.5 44.5t-117.5 118t-44 163.5t44 163.5t117.5 117.5t162.5 44t163 -44t117.5 -117.5t43.5 -163.5t-43.5 -163.5t-117.5 -118t-164 -44.5zM381 837q68 0 116 48t48 116q0 67 -48 115.5t-116 48.5t-116 -48.5t-48 -115.5q0 -68 48 -116t116 -48z" />
    <glyph glyph-name="plusminus" unicode="&#xb1;" horiz-adv-x="1094" 
d="M95 858h902v-162h-902v162zM457 439v677h179v-677h-179zM95 383h902v-161h-902v161z" />
    <glyph glyph-name="uni00B2" unicode="&#xb2;" horiz-adv-x="714" 
d="M54 979v111l322 265q57 49 85.5 86t28.5 85t-29.5 80t-102.5 32q-81 0 -114 -39t-33 -98h-151q0 130 77 203t221 73q133 0 212 -62.5t79 -175.5q0 -68 -29 -120t-73 -93t-91 -77l-170 -134h377v-136h-609z" />
    <glyph glyph-name="uni00B3" unicode="&#xb3;" horiz-adv-x="714" 
d="M364 968q-148 0 -230 64.5t-82 193.5h150q0 -58 42 -92.5t119 -34.5q70 0 106.5 28.5t36.5 87.5q0 61 -44 87.5t-115 26.5h-54v125h58q68 0 104.5 26t36.5 73q0 46 -35 69.5t-95 23.5q-64 0 -100.5 -29t-36.5 -79h-150q0 82 37.5 135t102 78.5t146.5 25.5q75 0 139 -22
t103 -67.5t39 -117.5q0 -68 -39.5 -113t-108.5 -63q75 -14 123.5 -62.5t48.5 -127.5q0 -114 -82 -175t-220 -61z" />
    <glyph glyph-name="acute" unicode="&#xb4;" horiz-adv-x="1130" 
d="M447 1108l200 273h240l-277 -273h-163z" />
    <glyph glyph-name="mu" unicode="&#xb5;" horiz-adv-x="1176" 
d="M151 -360v1335h217v-604q0 -59 14.5 -104.5t52.5 -71t105 -25.5q96 0 160.5 40t108.5 94v671h215v-975h-208l-4 149q-50 -81 -127.5 -120.5t-158.5 -39.5q-80 0 -150 37t-113.5 107t-43.5 171h140v-664h-208z" />
    <glyph glyph-name="paragraph" unicode="&#xb6;" horiz-adv-x="1207" 
d="M508 -195v824h-74q-163 0 -260.5 97.5t-97.5 260.5t97.5 261t260.5 98h622v-1541h-185v1361h-176v-1361h-187z" />
    <glyph glyph-name="periodcentered" unicode="&#xb7;" horiz-adv-x="600" 
d="M301 376q-66 0 -108 42t-42 103q0 64 42 104t108 40t107 -40t41 -104q0 -61 -41 -103t-107 -42z" />
    <glyph glyph-name="cedilla" unicode="&#xb8;" horiz-adv-x="1130" 
d="M576 -380q-64 0 -109.5 10t-86.5 26l31 103q31 -13 72.5 -21.5t83.5 -8.5q37 0 60.5 16.5t23.5 46.5q0 31 -30.5 47.5t-111.5 26.5l-44 6l135 175l91 -37l-65 -84l-40 19q94 -3 150 -42t56 -114q0 -57 -29 -95t-78 -56t-109 -18z" />
    <glyph glyph-name="uni00B9" unicode="&#xb9;" horiz-adv-x="714" 
d="M343 979v600q-30 -31 -83.5 -59.5t-141.5 -40.5v148q57 14 102 34.5t79 48t59 59.5h151v-790h-166z" />
    <glyph glyph-name="ordmasculine" unicode="&#xba;" horiz-adv-x="933" 
d="M463 558q-117 0 -204 47.5t-134.5 138t-47.5 216.5q0 128 47.5 218.5t134.5 138t204 47.5q119 0 207 -48t137 -138t49 -218q0 -126 -49 -216.5t-137 -138t-207 -47.5zM463 707q112 0 156 73.5t44 179.5q0 72 -19 129.5t-62.5 91.5t-118.5 34q-107 0 -150.5 -73.5
t-43.5 -181.5q0 -107 43.5 -180t150.5 -73z" />
    <glyph glyph-name="guillemotright" unicode="&#xbb;" horiz-adv-x="881" 
d="M464 160v190l178 163l-178 166v188l331 -285v-137zM87 160v190l180 163l-180 166v188l333 -285v-137z" />
    <glyph glyph-name="onequarter" unicode="&#xbc;" horiz-adv-x="1506" 
d="M260 528v600q-30 -31 -83.5 -59.5t-141.5 -40.5v148q57 14 102 34.5t79 48t59 59.5h151v-790h-166zM244 0l795 1308h164l-796 -1308h-163zM1185 0v144h-385v135l385 509h159v-512h111v-132h-111v-144h-159zM950 276h238v309z" />
    <glyph glyph-name="onehalf" unicode="&#xbd;" horiz-adv-x="1590" 
d="M260 528v600q-30 -31 -83.5 -59.5t-141.5 -40.5v148q57 14 102 34.5t79 48t59 59.5h151v-790h-166zM255 0l795 1308h164l-796 -1308h-163zM930 0v111l322 265q57 49 85.5 86t28.5 85t-29.5 80t-102.5 32q-81 0 -114 -39t-33 -98h-151q0 130 77 203t221 73
q133 0 212 -62.5t79 -175.5q0 -68 -29 -120t-73 -93t-91 -77l-170 -134h377v-136h-609z" />
    <glyph glyph-name="threequarters" unicode="&#xbe;" horiz-adv-x="1628" 
d="M364 517q-148 0 -230 64.5t-82 193.5h150q0 -58 42 -92.5t119 -34.5q70 0 106.5 28.5t36.5 87.5q0 61 -44 87.5t-115 26.5h-54v125h58q68 0 104.5 26t36.5 73q0 46 -35 69.5t-95 23.5q-64 0 -100.5 -29t-36.5 -79h-150q0 82 37.5 135t102 78.5t146.5 25.5q75 0 139 -22
t103 -67.5t39 -117.5q0 -68 -39.5 -113t-108.5 -63q75 -14 123.5 -62.5t48.5 -127.5q0 -114 -82 -175t-220 -61zM377 0l795 1308h164l-796 -1308h-163zM1307 0v144h-385v135l385 509h159v-512h111v-132h-111v-144h-159zM1072 276h238v309z" />
    <glyph glyph-name="questiondown" unicode="&#xbf;" horiz-adv-x="1043" 
d="M631 543q0 -10 0.5 -20t0.5 -20q0 -105 -41 -172.5t-125 -130.5q-82 -62 -122 -110.5t-40 -119.5q0 -77 52 -126t159 -49q111 0 172 56.5t62 159.5h220q0 -125 -57 -212.5t-159 -133.5t-238 -46q-133 0 -232 41.5t-154 120t-55 189.5q0 82 27 141.5t75.5 107t116.5 94.5
q53 39 82 72.5t41 71t16 86.5h199zM528 991q65 0 106.5 -42t41.5 -103q0 -63 -41.5 -103t-106.5 -40t-107 40t-42 103q0 61 42 103t107 42z" />
    <glyph glyph-name="Agrave" unicode="&#xc0;" horiz-adv-x="1239" 
d="M5 0l495 1346h242l491 -1346h-239l-112 336h-522l-117 -336h-238zM418 529h404l-202 589zM561 1458l-266 273h238l191 -273h-163z" />
    <glyph glyph-name="Aacute" unicode="&#xc1;" horiz-adv-x="1239" 
d="M5 0l495 1346h242l491 -1346h-239l-112 336h-522l-117 -336h-238zM418 529h404l-202 589zM512 1458l190 273h239l-266 -273h-163z" />
    <glyph glyph-name="Acircumflex" unicode="&#xc2;" horiz-adv-x="1239" 
d="M5 0l495 1346h242l491 -1346h-239l-112 336h-522l-117 -336h-238zM418 529h404l-202 589zM302 1458l214 274h204l213 -274h-169l-146 160l-148 -160h-168z" />
    <glyph glyph-name="Atilde" unicode="&#xc3;" horiz-adv-x="1239" 
d="M5 0l495 1346h242l491 -1346h-239l-112 336h-522l-117 -336h-238zM418 529h404l-202 589zM310 1473q10 103 53.5 160.5t123.5 57.5q44 0 84.5 -14t77.5 -30q32 -14 58.5 -23t48.5 -9t35 18.5t17 60.5h118q-10 -100 -48 -155t-117 -55q-46 0 -86.5 13.5t-75.5 27.5
q-35 15 -61 24.5t-49 9.5q-25 0 -40 -20.5t-20 -65.5h-119z" />
    <glyph glyph-name="Adieresis" unicode="&#xc4;" horiz-adv-x="1239" 
d="M5 0l495 1346h242l491 -1346h-239l-112 336h-522l-117 -336h-238zM418 529h404l-202 589zM802 1486q-45 0 -76 29t-31 74q0 46 31 75.5t76 29.5q46 0 76.5 -29.5t30.5 -75.5q0 -45 -30.5 -74t-76.5 -29zM435 1486q-46 0 -77 29t-31 74q0 46 31 75.5t77 29.5
q44 0 75 -29.5t31 -75.5q0 -45 -31 -74t-75 -29z" />
    <glyph glyph-name="Aring" unicode="&#xc5;" horiz-adv-x="1239" 
d="M5 0l495 1346h242l491 -1346h-239l-112 336h-522l-117 -336h-238zM418 529h404l-202 589zM618 1379q-92 0 -151.5 55.5t-59.5 147.5q0 90 59.5 145.5t151.5 55.5t151.5 -55.5t59.5 -145.5q0 -92 -59.5 -147.5t-151.5 -55.5zM618 1483q43 0 69.5 28t26.5 71t-26.5 70.5
t-69.5 27.5q-42 0 -69 -27.5t-27 -70.5t27 -71t69 -28z" />
    <glyph glyph-name="AE" unicode="&#xc6;" horiz-adv-x="1939" 
d="M-36 0l850 1346h195l6 -222h-109l-414 -674v-14l-265 -436h-263zM383 336v193h692v-193h-692zM951 0v1346h881v-192h-651v-371h595v-186h-595v-405h651v-192h-881z" />
    <glyph glyph-name="Ccedilla" unicode="&#xc7;" horiz-adv-x="1432" 
d="M753 -18q-207 0 -352 86.5t-221 241.5t-76 362t76 362.5t221 242.5t352 87q147 0 275 -51t210 -153.5t93 -256.5h-234q-11 92 -60 151.5t-123 89t-161 29.5q-147 0 -238 -68.5t-132 -182t-41 -250.5q0 -136 41 -249.5t132 -181.5t238 -68q151 0 242.5 76.5t104.5 222.5
h235q-14 -161 -90 -270.5t-202 -164.5t-290 -55zM731 -380q-64 0 -109.5 10t-86.5 26l31 103q31 -13 72.5 -21.5t83.5 -8.5q37 0 60.5 16.5t23.5 46.5q0 31 -30.5 47.5t-111.5 26.5l-44 6l135 175l91 -37l-65 -84l-40 19q94 -3 150 -42t56 -114q0 -57 -29 -95t-78 -56
t-109 -18z" />
    <glyph glyph-name="Egrave" unicode="&#xc8;" horiz-adv-x="1157" 
d="M169 0v1346h880v-192h-650v-371h594v-186h-594v-405h650v-192h-880zM552 1458l-266 273h238l191 -273h-163z" />
    <glyph glyph-name="Eacute" unicode="&#xc9;" horiz-adv-x="1157" 
d="M169 0v1346h880v-192h-650v-371h594v-186h-594v-405h650v-192h-880zM503 1458l190 273h239l-266 -273h-163z" />
    <glyph glyph-name="Ecircumflex" unicode="&#xca;" horiz-adv-x="1157" 
d="M169 0v1346h880v-192h-650v-371h594v-186h-594v-405h650v-192h-880zM293 1458l214 274h204l213 -274h-169l-146 160l-148 -160h-168z" />
    <glyph glyph-name="Edieresis" unicode="&#xcb;" horiz-adv-x="1157" 
d="M169 0v1346h880v-192h-650v-371h594v-186h-594v-405h650v-192h-880zM793 1486q-45 0 -76 29t-31 74q0 46 31 75.5t76 29.5q46 0 76.5 -29.5t30.5 -75.5q0 -45 -30.5 -74t-76.5 -29zM426 1486q-46 0 -77 29t-31 74q0 46 31 75.5t77 29.5q44 0 75 -29.5t31 -75.5
q0 -45 -31 -74t-75 -29z" />
    <glyph glyph-name="Igrave" unicode="&#xcc;" horiz-adv-x="568" 
d="M169 0v1346h230v-1346h-230zM227 1458l-266 273h238l191 -273h-163z" />
    <glyph glyph-name="Iacute" unicode="&#xcd;" horiz-adv-x="568" 
d="M169 0v1346h230v-1346h-230zM178 1458l190 273h239l-266 -273h-163z" />
    <glyph glyph-name="Icircumflex" unicode="&#xce;" horiz-adv-x="568" 
d="M169 0v1346h230v-1346h-230zM-32 1458l214 274h204l213 -274h-169l-146 160l-148 -160h-168z" />
    <glyph glyph-name="Idieresis" unicode="&#xcf;" horiz-adv-x="568" 
d="M169 0v1346h230v-1346h-230zM468 1486q-45 0 -76 29t-31 74q0 46 31 75.5t76 29.5q46 0 76.5 -29.5t30.5 -75.5q0 -45 -30.5 -74t-76.5 -29zM101 1486q-46 0 -77 29t-31 74q0 46 31 75.5t77 29.5q44 0 75 -29.5t31 -75.5q0 -45 -31 -74t-75 -29z" />
    <glyph glyph-name="Eth" unicode="&#xd0;" horiz-adv-x="1426" 
d="M0 589v185h732v-185h-732zM169 0v1346h477q213 0 364 -79.5t231 -230t80 -361.5q0 -216 -80.5 -366.5t-231.5 -229.5t-363 -79h-477zM399 193h211q161 0 265.5 52.5t156.5 159.5t52 271q0 160 -54 266t-159.5 158.5t-260.5 52.5h-211v-960z" />
    <glyph glyph-name="Ntilde" unicode="&#xd1;" horiz-adv-x="1463" 
d="M169 0v1346h229l679 -989v989h217v-1346h-229l-680 993v-993h-216zM437 1473q10 103 53.5 160.5t123.5 57.5q44 0 84.5 -14t77.5 -30q32 -14 58.5 -23t48.5 -9t35 18.5t17 60.5h118q-10 -100 -48 -155t-117 -55q-46 0 -86.5 13.5t-75.5 27.5q-35 15 -61 24.5t-49 9.5
q-25 0 -40 -20.5t-20 -65.5h-119z" />
    <glyph glyph-name="Ograve" unicode="&#xd2;" horiz-adv-x="1505" 
d="M753 -18q-212 0 -356.5 86.5t-218.5 241.5t-74 362t74 362.5t218.5 242.5t356.5 87q211 0 354.5 -87t218 -242.5t74.5 -362.5t-74.5 -362t-218 -241.5t-354.5 -86.5zM753 172q146 0 236 68t132 181.5t42 250.5q0 139 -42 252.5t-132 181t-236 67.5q-147 0 -238 -67.5
t-132 -181t-41 -252.5q0 -137 41 -250.5t132 -181.5t238 -68zM696 1458l-266 273h238l191 -273h-163z" />
    <glyph glyph-name="Oacute" unicode="&#xd3;" horiz-adv-x="1505" 
d="M753 -18q-212 0 -356.5 86.5t-218.5 241.5t-74 362t74 362.5t218.5 242.5t356.5 87q211 0 354.5 -87t218 -242.5t74.5 -362.5t-74.5 -362t-218 -241.5t-354.5 -86.5zM753 172q146 0 236 68t132 181.5t42 250.5q0 139 -42 252.5t-132 181t-236 67.5q-147 0 -238 -67.5
t-132 -181t-41 -252.5q0 -137 41 -250.5t132 -181.5t238 -68zM647 1458l190 273h239l-266 -273h-163z" />
    <glyph glyph-name="Ocircumflex" unicode="&#xd4;" horiz-adv-x="1505" 
d="M753 -18q-212 0 -356.5 86.5t-218.5 241.5t-74 362t74 362.5t218.5 242.5t356.5 87q211 0 354.5 -87t218 -242.5t74.5 -362.5t-74.5 -362t-218 -241.5t-354.5 -86.5zM753 172q146 0 236 68t132 181.5t42 250.5q0 139 -42 252.5t-132 181t-236 67.5q-147 0 -238 -67.5
t-132 -181t-41 -252.5q0 -137 41 -250.5t132 -181.5t238 -68zM437 1458l214 274h204l213 -274h-169l-146 160l-148 -160h-168z" />
    <glyph glyph-name="Otilde" unicode="&#xd5;" horiz-adv-x="1505" 
d="M753 -18q-212 0 -356.5 86.5t-218.5 241.5t-74 362t74 362.5t218.5 242.5t356.5 87q211 0 354.5 -87t218 -242.5t74.5 -362.5t-74.5 -362t-218 -241.5t-354.5 -86.5zM753 172q146 0 236 68t132 181.5t42 250.5q0 139 -42 252.5t-132 181t-236 67.5q-147 0 -238 -67.5
t-132 -181t-41 -252.5q0 -137 41 -250.5t132 -181.5t238 -68zM445 1473q10 103 53.5 160.5t123.5 57.5q44 0 84.5 -14t77.5 -30q32 -14 58.5 -23t48.5 -9t35 18.5t17 60.5h118q-10 -100 -48 -155t-117 -55q-46 0 -86.5 13.5t-75.5 27.5q-35 15 -61 24.5t-49 9.5
q-25 0 -40 -20.5t-20 -65.5h-119z" />
    <glyph glyph-name="Odieresis" unicode="&#xd6;" horiz-adv-x="1505" 
d="M753 -18q-212 0 -356.5 86.5t-218.5 241.5t-74 362t74 362.5t218.5 242.5t356.5 87q211 0 354.5 -87t218 -242.5t74.5 -362.5t-74.5 -362t-218 -241.5t-354.5 -86.5zM753 172q146 0 236 68t132 181.5t42 250.5q0 139 -42 252.5t-132 181t-236 67.5q-147 0 -238 -67.5
t-132 -181t-41 -252.5q0 -137 41 -250.5t132 -181.5t238 -68zM937 1486q-45 0 -76 29t-31 74q0 46 31 75.5t76 29.5q46 0 76.5 -29.5t30.5 -75.5q0 -45 -30.5 -74t-76.5 -29zM570 1486q-46 0 -77 29t-31 74q0 46 31 75.5t77 29.5q44 0 75 -29.5t31 -75.5q0 -45 -31 -74
t-75 -29z" />
    <glyph glyph-name="multiply" unicode="&#xd7;" horiz-adv-x="1094" 
d="M165 413l636 636l128 -123l-637 -638zM291 1051l637 -637l-126 -126l-637 637z" />
    <glyph glyph-name="Oslash" unicode="&#xd8;" horiz-adv-x="1505" 
d="M217 -71l-113 96l1184 1391l112 -95zM753 -18q-212 0 -356.5 86.5t-218.5 241.5t-74 362t74 362.5t218.5 242.5t356.5 87q211 0 354.5 -87t218 -242.5t74.5 -362.5t-74.5 -362t-218 -241.5t-354.5 -86.5zM753 169q148 0 238.5 68t132 182.5t41.5 252.5q0 140 -41.5 254
t-132 182.5t-238.5 68.5t-240 -68.5t-133.5 -182.5t-41.5 -254q0 -138 41.5 -252.5t133.5 -182.5t240 -68z" />
    <glyph glyph-name="Ugrave" unicode="&#xd9;" horiz-adv-x="1410" 
d="M705 -18q-194 0 -316.5 65t-179.5 185.5t-57 285.5v828h235v-814q0 -188 79.5 -273t239.5 -85t238.5 85t78.5 273v814h236v-828q0 -165 -57.5 -285.5t-179.5 -185.5t-317 -65zM649 1458l-266 273h238l191 -273h-163z" />
    <glyph glyph-name="Uacute" unicode="&#xda;" horiz-adv-x="1410" 
d="M705 -18q-194 0 -316.5 65t-179.5 185.5t-57 285.5v828h235v-814q0 -188 79.5 -273t239.5 -85t238.5 85t78.5 273v814h236v-828q0 -165 -57.5 -285.5t-179.5 -185.5t-317 -65zM600 1458l190 273h239l-266 -273h-163z" />
    <glyph glyph-name="Ucircumflex" unicode="&#xdb;" horiz-adv-x="1410" 
d="M705 -18q-194 0 -316.5 65t-179.5 185.5t-57 285.5v828h235v-814q0 -188 79.5 -273t239.5 -85t238.5 85t78.5 273v814h236v-828q0 -165 -57.5 -285.5t-179.5 -185.5t-317 -65zM390 1458l214 274h204l213 -274h-169l-146 160l-148 -160h-168z" />
    <glyph glyph-name="Udieresis" unicode="&#xdc;" horiz-adv-x="1410" 
d="M705 -18q-194 0 -316.5 65t-179.5 185.5t-57 285.5v828h235v-814q0 -188 79.5 -273t239.5 -85t238.5 85t78.5 273v814h236v-828q0 -165 -57.5 -285.5t-179.5 -185.5t-317 -65zM890 1486q-45 0 -76 29t-31 74q0 46 31 75.5t76 29.5q46 0 76.5 -29.5t30.5 -75.5
q0 -45 -30.5 -74t-76.5 -29zM523 1486q-46 0 -77 29t-31 74q0 46 31 75.5t77 29.5q44 0 75 -29.5t31 -75.5q0 -45 -31 -74t-75 -29z" />
    <glyph glyph-name="Yacute" unicode="&#xdd;" horiz-adv-x="1152" 
d="M458 0v519l-458 827h255l322 -617l320 617h255l-459 -827v-519h-235zM471 1458l190 273h239l-266 -273h-163z" />
    <glyph glyph-name="Thorn" unicode="&#xde;" horiz-adv-x="1211" 
d="M169 252v188h487q109 0 177.5 57t68.5 172q0 120 -69 178t-177 58h-487v187h507q129 0 233.5 -47t166 -140.5t61.5 -235.5q0 -139 -61.5 -231.5t-166 -139t-233.5 -46.5h-507zM169 0v1346h230v-1346h-230z" />
    <glyph glyph-name="germandbls" unicode="&#xdf;" horiz-adv-x="1129" 
d="M606 -12q-38 0 -71 3t-65 9v169q28 -7 54.5 -10t52.5 -3q127 0 191.5 61t64.5 168q0 130 -83.5 184.5t-215.5 54.5h-64v156h66q101 0 168 55t67 164q0 93 -50.5 144t-144.5 51q-98 0 -159 -64.5t-61 -210.5v-919h-215v914q0 153 55 253t153 148.5t227 48.5q121 0 211 -41
t139.5 -117.5t49.5 -184.5q0 -94 -39.5 -166.5t-119.5 -117.5t-201 -61l-80 104q169 0 283.5 -48.5t172.5 -138t58 -211.5q0 -133 -58 -220.5t-158.5 -130.5t-227.5 -43z" />
    <glyph glyph-name="agrave" unicode="&#xe0;" horiz-adv-x="1109" 
d="M410 -17q-84 0 -154.5 31.5t-113.5 95t-43 158.5q0 133 81.5 201t229 93t345.5 28v60q0 109 -54 150t-137 41q-90 0 -150 -44t-60 -141h-205q0 122 52.5 195.5t146 106.5t216.5 33q83 0 156 -15t128.5 -52.5t87 -103t31.5 -167.5v-653h-202l-8 137q-64 -72 -149.5 -113
t-197.5 -41zM475 137q88 0 160 43t118 105v177q-238 -1 -338 -44t-100 -139q0 -68 42.5 -105t117.5 -37zM524 1108l-276 273h238l200 -273h-162z" />
    <glyph glyph-name="aacute" unicode="&#xe1;" horiz-adv-x="1109" 
d="M410 -17q-84 0 -154.5 31.5t-113.5 95t-43 158.5q0 133 81.5 201t229 93t345.5 28v60q0 109 -54 150t-137 41q-90 0 -150 -44t-60 -141h-205q0 122 52.5 195.5t146 106.5t216.5 33q83 0 156 -15t128.5 -52.5t87 -103t31.5 -167.5v-653h-202l-8 137q-64 -72 -149.5 -113
t-197.5 -41zM475 137q88 0 160 43t118 105v177q-238 -1 -338 -44t-100 -139q0 -68 42.5 -105t117.5 -37zM454 1108l200 273h240l-277 -273h-163z" />
    <glyph glyph-name="acircumflex" unicode="&#xe2;" horiz-adv-x="1109" 
d="M410 -17q-84 0 -154.5 31.5t-113.5 95t-43 158.5q0 133 81.5 201t229 93t345.5 28v60q0 109 -54 150t-137 41q-90 0 -150 -44t-60 -141h-205q0 122 52.5 195.5t146 106.5t216.5 33q83 0 156 -15t128.5 -52.5t87 -103t31.5 -167.5v-653h-202l-8 137q-64 -72 -149.5 -113
t-197.5 -41zM475 137q88 0 160 43t118 105v177q-238 -1 -338 -44t-100 -139q0 -68 42.5 -105t117.5 -37zM258 1108l213 273h204l214 -273h-169l-147 160l-147 -160h-168z" />
    <glyph glyph-name="atilde" unicode="&#xe3;" horiz-adv-x="1109" 
d="M410 -17q-84 0 -154.5 31.5t-113.5 95t-43 158.5q0 133 81.5 201t229 93t345.5 28v60q0 109 -54 150t-137 41q-90 0 -150 -44t-60 -141h-205q0 122 52.5 195.5t146 106.5t216.5 33q83 0 156 -15t128.5 -52.5t87 -103t31.5 -167.5v-653h-202l-8 137q-64 -72 -149.5 -113
t-197.5 -41zM475 137q88 0 160 43t118 105v177q-238 -1 -338 -44t-100 -139q0 -68 42.5 -105t117.5 -37zM264 1127q10 103 53.5 160.5t123.5 57.5q44 0 84.5 -14t77.5 -30q32 -14 58.5 -23t48.5 -9t35 18.5t17 60.5h118q-10 -100 -48 -155t-117 -55q-46 0 -86.5 13.5
t-75.5 27.5q-35 15 -61 24.5t-49 9.5q-25 0 -40 -20.5t-20 -65.5h-119z" />
    <glyph glyph-name="adieresis" unicode="&#xe4;" horiz-adv-x="1109" 
d="M410 -17q-84 0 -154.5 31.5t-113.5 95t-43 158.5q0 133 81.5 201t229 93t345.5 28v60q0 109 -54 150t-137 41q-90 0 -150 -44t-60 -141h-205q0 122 52.5 195.5t146 106.5t216.5 33q83 0 156 -15t128.5 -52.5t87 -103t31.5 -167.5v-653h-202l-8 137q-64 -72 -149.5 -113
t-197.5 -41zM475 137q88 0 160 43t118 105v177q-238 -1 -338 -44t-100 -139q0 -68 42.5 -105t117.5 -37zM756 1140q-45 0 -76 29t-31 74q0 46 31 75t76 29q46 0 76.5 -29t30.5 -75q0 -45 -30.5 -74t-76.5 -29zM389 1140q-46 0 -77 29t-31 74q0 46 31 75t77 29q44 0 75 -29
t31 -75q0 -45 -31 -74t-75 -29z" />
    <glyph glyph-name="aring" unicode="&#xe5;" horiz-adv-x="1109" 
d="M410 -17q-84 0 -154.5 31.5t-113.5 95t-43 158.5q0 133 81.5 201t229 93t345.5 28v60q0 109 -54 150t-137 41q-90 0 -150 -44t-60 -141h-205q0 122 52.5 195.5t146 106.5t216.5 33q83 0 156 -15t128.5 -52.5t87 -103t31.5 -167.5v-653h-202l-8 137q-64 -72 -149.5 -113
t-197.5 -41zM475 137q88 0 160 43t118 105v177q-238 -1 -338 -44t-100 -139q0 -68 42.5 -105t117.5 -37zM572 1079q-92 0 -151.5 55.5t-59.5 147.5q0 90 59.5 145.5t151.5 55.5t151.5 -55.5t59.5 -145.5q0 -92 -59.5 -147.5t-151.5 -55.5zM572 1183q43 0 69.5 28t26.5 71
t-26.5 70.5t-69.5 27.5q-42 0 -69 -27.5t-27 -70.5t27 -71t69 -28z" />
    <glyph glyph-name="ae" unicode="&#xe6;" horiz-adv-x="1757" 
d="M1227 -18q-161 0 -267.5 63.5t-159.5 178t-53 265.5q0 152 51.5 264.5t154.5 175t257 62.5q208 0 327.5 -124t119.5 -354q0 -14 -1 -34.5t-3 -29.5h-689q1 -83 27.5 -152.5t84 -111.5t151.5 -42q99 0 156.5 44.5t59.5 131.5h213q-4 -108 -58 -183.5t-148.5 -114.5
t-222.5 -39zM441 -18q-160 0 -251 75.5t-91 208.5q0 132 79.5 200t225.5 93.5t343 27.5v68q0 70 -24.5 110t-66 57t-91.5 17q-90 0 -150.5 -43t-60.5 -139h-205q0 173 110.5 253.5t304.5 80.5q88 0 159.5 -21.5t119.5 -70t62 -129.5l-102 -308q-181 1 -288 -17t-153.5 -57.5
t-46.5 -102.5q0 -69 41.5 -108.5t120.5 -39.5q62 0 120 23.5t108.5 71t86.5 117.5l87 -78q-30 -83 -92.5 -148.5t-150.5 -103t-195 -37.5zM966 594h477q-3 118 -66 179.5t-167 61.5q-109 0 -172.5 -62t-71.5 -179z" />
    <glyph glyph-name="ccedilla" unicode="&#xe7;" horiz-adv-x="1100" 
d="M569 -15q-135 0 -241 53.5t-167.5 164.5t-61.5 281q0 171 59.5 283.5t165 168t245.5 55.5q118 0 213 -39t151.5 -117t59.5 -197h-211q-5 85 -60 134t-151 49q-129 0 -190 -88.5t-61 -248.5q0 -104 27 -178t82.5 -113t141.5 -39q98 0 157 52t62 150h211q-3 -122 -60 -205
t-153.5 -124.5t-218.5 -41.5zM555 -380q-64 0 -109.5 10t-86.5 26l31 103q31 -13 72.5 -21.5t83.5 -8.5q37 0 60.5 16.5t23.5 46.5q0 31 -30.5 47.5t-111.5 26.5l-44 6l135 175l91 -37l-65 -84l-40 19q94 -3 150 -42t56 -114q0 -57 -29 -95t-78 -56t-109 -18z" />
    <glyph glyph-name="egrave" unicode="&#xe8;" horiz-adv-x="1109" 
d="M578 -18q-160 0 -266.5 63.5t-159.5 178t-53 265.5q0 152 51.5 264.5t154 175t256.5 62.5q208 0 328 -124t120 -354q0 -14 -1.5 -34.5t-3.5 -29.5h-689q1 -83 27.5 -152.5t84.5 -111.5t151 -42q100 0 157 44.5t60 131.5h213q-5 -108 -58.5 -183.5t-148 -114.5t-223.5 -39
zM317 594h477q-3 118 -65.5 179.5t-167.5 61.5q-108 0 -171.5 -62t-72.5 -179zM514 1108l-276 273h238l200 -273h-162z" />
    <glyph glyph-name="eacute" unicode="&#xe9;" horiz-adv-x="1109" 
d="M578 -18q-160 0 -266.5 63.5t-159.5 178t-53 265.5q0 152 51.5 264.5t154 175t256.5 62.5q208 0 328 -124t120 -354q0 -14 -1.5 -34.5t-3.5 -29.5h-689q1 -83 27.5 -152.5t84.5 -111.5t151 -42q100 0 157 44.5t60 131.5h213q-5 -108 -58.5 -183.5t-148 -114.5t-223.5 -39
zM317 594h477q-3 118 -65.5 179.5t-167.5 61.5q-108 0 -171.5 -62t-72.5 -179zM444 1108l200 273h240l-277 -273h-163z" />
    <glyph glyph-name="ecircumflex" unicode="&#xea;" horiz-adv-x="1109" 
d="M578 -18q-160 0 -266.5 63.5t-159.5 178t-53 265.5q0 152 51.5 264.5t154 175t256.5 62.5q208 0 328 -124t120 -354q0 -14 -1.5 -34.5t-3.5 -29.5h-689q1 -83 27.5 -152.5t84.5 -111.5t151 -42q100 0 157 44.5t60 131.5h213q-5 -108 -58.5 -183.5t-148 -114.5t-223.5 -39
zM317 594h477q-3 118 -65.5 179.5t-167.5 61.5q-108 0 -171.5 -62t-72.5 -179zM248 1108l213 273h204l214 -273h-169l-147 160l-147 -160h-168z" />
    <glyph glyph-name="edieresis" unicode="&#xeb;" horiz-adv-x="1109" 
d="M578 -18q-160 0 -266.5 63.5t-159.5 178t-53 265.5q0 152 51.5 264.5t154 175t256.5 62.5q208 0 328 -124t120 -354q0 -14 -1.5 -34.5t-3.5 -29.5h-689q1 -83 27.5 -152.5t84.5 -111.5t151 -42q100 0 157 44.5t60 131.5h213q-5 -108 -58.5 -183.5t-148 -114.5t-223.5 -39
zM317 594h477q-3 118 -65.5 179.5t-167.5 61.5q-108 0 -171.5 -62t-72.5 -179zM746 1140q-45 0 -76 29t-31 74q0 46 31 75t76 29q46 0 76.5 -29t30.5 -75q0 -45 -30.5 -74t-76.5 -29zM379 1140q-46 0 -77 29t-31 74q0 46 31 75t77 29q44 0 75 -29t31 -75q0 -45 -31 -74
t-75 -29z" />
    <glyph glyph-name="igrave" unicode="&#xec;" horiz-adv-x="519" 
d="M151 0v975h217v-975h-217zM212 1108l-276 273h238l200 -273h-162z" />
    <glyph glyph-name="iacute" unicode="&#xed;" horiz-adv-x="519" 
d="M151 0v975h217v-975h-217zM142 1108l200 273h240l-277 -273h-163z" />
    <glyph glyph-name="icircumflex" unicode="&#xee;" horiz-adv-x="519" 
d="M151 0v975h217v-975h-217zM-54 1108l213 273h204l214 -273h-169l-147 160l-147 -160h-168z" />
    <glyph glyph-name="idieresis" unicode="&#xef;" horiz-adv-x="519" 
d="M151 0v975h217v-975h-217zM422 1140q-46 0 -76.5 29t-30.5 74q0 46 30.5 75t76.5 29q45 0 75.5 -29t30.5 -75q0 -45 -30.5 -74t-75.5 -29zM100 1140q-46 0 -76.5 29t-30.5 74q0 46 30.5 75t76.5 29q45 0 75.5 -29t30.5 -75q0 -45 -30.5 -74t-75.5 -29z" />
    <glyph glyph-name="eth" unicode="&#xf0;" horiz-adv-x="1152" 
d="M573 -17q-146 0 -252.5 58.5t-164 168t-57.5 261.5q0 154 56.5 263.5t159 168.5t239.5 59q131 0 197.5 -56t95.5 -157l-26 1q-18 52 -45.5 98.5t-66.5 92.5t-93.5 97t-128.5 112l-234 196h267l146 -122q137 -114 222.5 -231t125 -238t39.5 -249q0 -169 -58 -285.5
t-165.5 -177t-256.5 -60.5zM572 151q97 0 153.5 43t81.5 116.5t25 160.5q0 88 -25 161t-81.5 117t-153.5 44q-93 0 -148 -44t-79.5 -117t-24.5 -161q0 -87 24.5 -160.5t79.5 -116.5t148 -43zM244 1001v144l320 107v-5l320 107v-143l-320 -106v3z" />
    <glyph glyph-name="ntilde" unicode="&#xf1;" horiz-adv-x="1157" 
d="M151 0v975h208l5 -148q48 61 130 111.5t211 50.5q155 0 232.5 -92.5t77.5 -264.5v-632h-216v603q0 62 -15 109.5t-50.5 74t-97.5 26.5q-94 0 -159.5 -43.5t-108.5 -98.5v-671h-217zM283 1127q10 103 53.5 160.5t123.5 57.5q44 0 84.5 -14t77.5 -30q32 -14 58.5 -23
t48.5 -9t35 18.5t17 60.5h118q-10 -100 -48 -155t-117 -55q-46 0 -86.5 13.5t-75.5 27.5q-35 15 -61 24.5t-49 9.5q-25 0 -40 -20.5t-20 -65.5h-119z" />
    <glyph glyph-name="ograve" unicode="&#xf2;" horiz-adv-x="1152" 
d="M572 -16q-145 0 -251.5 59.5t-164 172t-57.5 269.5q0 160 57.5 274t164 174t251.5 60q149 0 256.5 -60t166 -174t58.5 -274q0 -157 -58.5 -269.5t-166 -172t-256.5 -59.5zM572 152q98 0 155 44t81 119.5t24 169.5q0 96 -24 173t-81 121.5t-155 44.5q-94 0 -149 -44.5
t-79 -121.5t-24 -173q0 -94 24 -169.5t79 -119.5t149 -44zM528 1108l-276 273h238l200 -273h-162z" />
    <glyph glyph-name="oacute" unicode="&#xf3;" horiz-adv-x="1152" 
d="M572 -16q-145 0 -251.5 59.5t-164 172t-57.5 269.5q0 160 57.5 274t164 174t251.5 60q149 0 256.5 -60t166 -174t58.5 -274q0 -157 -58.5 -269.5t-166 -172t-256.5 -59.5zM572 152q98 0 155 44t81 119.5t24 169.5q0 96 -24 173t-81 121.5t-155 44.5q-94 0 -149 -44.5
t-79 -121.5t-24 -173q0 -94 24 -169.5t79 -119.5t149 -44zM458 1108l200 273h240l-277 -273h-163z" />
    <glyph glyph-name="ocircumflex" unicode="&#xf4;" horiz-adv-x="1152" 
d="M572 -16q-145 0 -251.5 59.5t-164 172t-57.5 269.5q0 160 57.5 274t164 174t251.5 60q149 0 256.5 -60t166 -174t58.5 -274q0 -157 -58.5 -269.5t-166 -172t-256.5 -59.5zM572 152q98 0 155 44t81 119.5t24 169.5q0 96 -24 173t-81 121.5t-155 44.5q-94 0 -149 -44.5
t-79 -121.5t-24 -173q0 -94 24 -169.5t79 -119.5t149 -44zM262 1108l213 273h204l214 -273h-169l-147 160l-147 -160h-168z" />
    <glyph glyph-name="otilde" unicode="&#xf5;" horiz-adv-x="1152" 
d="M572 -16q-145 0 -251.5 59.5t-164 172t-57.5 269.5q0 160 57.5 274t164 174t251.5 60q149 0 256.5 -60t166 -174t58.5 -274q0 -157 -58.5 -269.5t-166 -172t-256.5 -59.5zM572 152q98 0 155 44t81 119.5t24 169.5q0 96 -24 173t-81 121.5t-155 44.5q-94 0 -149 -44.5
t-79 -121.5t-24 -173q0 -94 24 -169.5t79 -119.5t149 -44zM268 1127q10 103 53.5 160.5t123.5 57.5q44 0 84.5 -14t77.5 -30q32 -14 58.5 -23t48.5 -9t35 18.5t17 60.5h118q-10 -100 -48 -155t-117 -55q-46 0 -86.5 13.5t-75.5 27.5q-35 15 -61 24.5t-49 9.5
q-25 0 -40 -20.5t-20 -65.5h-119z" />
    <glyph glyph-name="odieresis" unicode="&#xf6;" horiz-adv-x="1152" 
d="M572 -16q-145 0 -251.5 59.5t-164 172t-57.5 269.5q0 160 57.5 274t164 174t251.5 60q149 0 256.5 -60t166 -174t58.5 -274q0 -157 -58.5 -269.5t-166 -172t-256.5 -59.5zM572 152q98 0 155 44t81 119.5t24 169.5q0 96 -24 173t-81 121.5t-155 44.5q-94 0 -149 -44.5
t-79 -121.5t-24 -173q0 -94 24 -169.5t79 -119.5t149 -44zM760 1140q-45 0 -76 29t-31 74q0 46 31 75t76 29q46 0 76.5 -29t30.5 -75q0 -45 -30.5 -74t-76.5 -29zM393 1140q-46 0 -77 29t-31 74q0 46 31 75t77 29q44 0 75 -29t31 -75q0 -45 -31 -74t-75 -29z" />
    <glyph glyph-name="divide" unicode="&#xf7;" horiz-adv-x="1094" 
d="M96 758h901v-178h-901v178zM548 188q-62 0 -101.5 40t-39.5 97q0 60 39.5 97.5t101.5 37.5q61 0 100 -37.5t39 -97.5q0 -57 -39 -97t-100 -40zM548 878q-62 0 -101.5 39.5t-39.5 95.5q0 60 39.5 98.5t101.5 38.5q61 0 100 -38.5t39 -98.5q0 -56 -39 -95.5t-100 -39.5z
" />
    <glyph glyph-name="oslash" unicode="&#xf8;" horiz-adv-x="1152" 
d="M182 -82l-94 82l883 1050l93 -81zM572 -17q-145 0 -251.5 59.5t-164 172t-57.5 269.5q0 159 57.5 272.5t164 173.5t251.5 60q149 0 256.5 -60t166 -173.5t58.5 -272.5q0 -157 -58.5 -269.5t-166 -172t-256.5 -59.5zM572 144q98 0 156.5 45t84 122.5t25.5 172.5
q0 97 -25.5 175t-84 123.5t-156.5 45.5q-95 0 -151.5 -45.5t-81.5 -123.5t-25 -175q0 -95 25 -172.5t81.5 -122.5t151.5 -45z" />
    <glyph glyph-name="ugrave" unicode="&#xf9;" horiz-adv-x="1167" 
d="M457 -14q-159 0 -237 93t-78 260v636h216v-609q0 -58 15 -103t53 -70.5t105 -25.5q94 0 159.5 40.5t109.5 96.5v671h216v-975h-209l-4 149q-48 -61 -133 -112t-213 -51zM531 1108l-276 273h238l200 -273h-162z" />
    <glyph glyph-name="uacute" unicode="&#xfa;" horiz-adv-x="1167" 
d="M457 -14q-159 0 -237 93t-78 260v636h216v-609q0 -58 15 -103t53 -70.5t105 -25.5q94 0 159.5 40.5t109.5 96.5v671h216v-975h-209l-4 149q-48 -61 -133 -112t-213 -51zM461 1108l200 273h240l-277 -273h-163z" />
    <glyph glyph-name="ucircumflex" unicode="&#xfb;" horiz-adv-x="1167" 
d="M457 -14q-159 0 -237 93t-78 260v636h216v-609q0 -58 15 -103t53 -70.5t105 -25.5q94 0 159.5 40.5t109.5 96.5v671h216v-975h-209l-4 149q-48 -61 -133 -112t-213 -51zM265 1108l213 273h204l214 -273h-169l-147 160l-147 -160h-168z" />
    <glyph glyph-name="udieresis" unicode="&#xfc;" horiz-adv-x="1167" 
d="M457 -14q-159 0 -237 93t-78 260v636h216v-609q0 -58 15 -103t53 -70.5t105 -25.5q94 0 159.5 40.5t109.5 96.5v671h216v-975h-209l-4 149q-48 -61 -133 -112t-213 -51zM763 1140q-45 0 -76 29t-31 74q0 46 31 75t76 29q46 0 76.5 -29t30.5 -75q0 -45 -30.5 -74
t-76.5 -29zM396 1140q-46 0 -77 29t-31 74q0 46 31 75t77 29q44 0 75 -29t31 -75q0 -45 -31 -74t-75 -29z" />
    <glyph glyph-name="yacute" unicode="&#xfd;" horiz-adv-x="968" 
d="M109 -358v177h86q58 0 97 25.5t63 84.5l29 71l-384 975h226l274 -759l249 759h219l-358 -975l-41 -107q-36 -96 -80 -150.5t-108.5 -77.5t-161.5 -23h-110zM370 1108l200 273h240l-277 -273h-163z" />
    <glyph glyph-name="thorn" unicode="&#xfe;" horiz-adv-x="1175" 
d="M151 -358v1704h217v-525q53 79 132 123.5t186 44.5q122 0 209.5 -56.5t134 -170.5t46.5 -286q0 -165 -51 -274.5t-143 -164t-216 -54.5q-100 0 -173.5 38.5t-125.5 113.5v-493h-216zM617 152q115 0 176 84t61 242q0 170 -58 256.5t-168 86.5q-97 0 -161.5 -53.5
t-98.5 -123.5v-329q35 -70 96.5 -116.5t152.5 -46.5z" />
    <glyph glyph-name="ydieresis" unicode="&#xff;" horiz-adv-x="968" 
d="M109 -358v177h86q58 0 97 25.5t63 84.5l29 71l-384 975h226l274 -759l249 759h219l-358 -975l-41 -107q-36 -96 -80 -150.5t-108.5 -77.5t-161.5 -23h-110zM672 1140q-45 0 -76 29t-31 74q0 46 31 75t76 29q46 0 76.5 -29t30.5 -75q0 -45 -30.5 -74t-76.5 -29zM305 1140
q-46 0 -77 29t-31 74q0 46 31 75t77 29q44 0 75 -29t31 -75q0 -45 -31 -74t-75 -29z" />
    <glyph glyph-name="Amacron" unicode="&#x100;" horiz-adv-x="1239" 
d="M5 0l495 1346h242l491 -1346h-239l-112 336h-522l-117 -336h-238zM418 529h404l-202 589zM341 1510v142h555v-142h-555z" />
    <glyph glyph-name="amacron" unicode="&#x101;" horiz-adv-x="1109" 
d="M410 -17q-84 0 -154.5 31.5t-113.5 95t-43 158.5q0 133 81.5 201t229 93t345.5 28v60q0 109 -54 150t-137 41q-90 0 -150 -44t-60 -141h-205q0 122 52.5 195.5t146 106.5t216.5 33q83 0 156 -15t128.5 -52.5t87 -103t31.5 -167.5v-653h-202l-8 137q-64 -72 -149.5 -113
t-197.5 -41zM475 137q88 0 160 43t118 105v177q-238 -1 -338 -44t-100 -139q0 -68 42.5 -105t117.5 -37zM295 1164v142h555v-142h-555z" />
    <glyph glyph-name="Abreve" unicode="&#x102;" horiz-adv-x="1239" 
d="M5 0l495 1346h242l491 -1346h-239l-112 336h-522l-117 -336h-238zM418 529h404l-202 589zM616 1469q-85 0 -150.5 31.5t-103.5 90.5t-41 140h123q5 -51 31.5 -82.5t64 -45t76.5 -13.5q40 0 77.5 14t64.5 45.5t34 81.5h124q-5 -80 -44.5 -139t-104.5 -91t-151 -32z" />
    <glyph glyph-name="abreve" unicode="&#x103;" horiz-adv-x="1109" 
d="M410 -17q-84 0 -154.5 31.5t-113.5 95t-43 158.5q0 133 81.5 201t229 93t345.5 28v60q0 109 -54 150t-137 41q-90 0 -150 -44t-60 -141h-205q0 122 52.5 195.5t146 106.5t216.5 33q83 0 156 -15t128.5 -52.5t87 -103t31.5 -167.5v-653h-202l-8 137q-64 -72 -149.5 -113
t-197.5 -41zM475 137q88 0 160 43t118 105v177q-238 -1 -338 -44t-100 -139q0 -68 42.5 -105t117.5 -37zM571 1112q-125 0 -196 70.5t-83 193.5h122q9 -78 55.5 -108t101.5 -30q58 0 108 31t59 107h111q-11 -122 -82 -193t-196 -71z" />
    <glyph glyph-name="Aogonek" unicode="&#x104;" horiz-adv-x="1239" 
d="M5 0l495 1346h242l491 -1346h-239l-112 336h-522l-117 -336h-238zM418 529h404l-202 589zM1059 -373q-82 0 -138.5 44.5t-56.5 123.5q0 51 31 100.5t85 87t120 52.5l78 -22q-80 -46 -113.5 -95t-33.5 -87q0 -31 18 -48.5t50 -17.5t62.5 8.5t64.5 22.5v-130
q-32 -18 -69.5 -28.5t-97.5 -10.5z" />
    <glyph glyph-name="aogonek" unicode="&#x105;" horiz-adv-x="1109" 
d="M410 -17q-84 0 -154.5 31.5t-113.5 95t-43 158.5q0 133 81.5 201t229 93t345.5 28v60q0 109 -54 150t-137 41q-90 0 -150 -44t-60 -141h-205q0 122 52.5 195.5t146 106.5t216.5 33q83 0 156 -15t128.5 -52.5t87 -103t31.5 -167.5v-653h-202l-8 137q-64 -72 -149.5 -113
t-197.5 -41zM475 137q88 0 160 43t118 105v177q-238 -1 -338 -44t-100 -139q0 -68 42.5 -105t117.5 -37zM783 -373q-82 0 -138.5 44.5t-56.5 123.5q0 51 31 100.5t85 87t120 52.5l78 -22q-80 -46 -113.5 -95t-33.5 -87q0 -31 18 -48.5t50 -17.5t62.5 8.5t64.5 22.5v-130
q-32 -18 -69.5 -28.5t-97.5 -10.5z" />
    <glyph glyph-name="Cacute" unicode="&#x106;" horiz-adv-x="1432" 
d="M753 -18q-207 0 -352 86.5t-221 241.5t-76 362t76 362.5t221 242.5t352 87q147 0 275 -51t210 -153.5t93 -256.5h-234q-11 92 -60 151.5t-123 89t-161 29.5q-147 0 -238 -68.5t-132 -182t-41 -250.5q0 -136 41 -249.5t132 -181.5t238 -68q151 0 242.5 76.5t104.5 222.5
h235q-14 -161 -90 -270.5t-202 -164.5t-290 -55zM649 1458l190 273h239l-266 -273h-163z" />
    <glyph glyph-name="cacute" unicode="&#x107;" horiz-adv-x="1100" 
d="M569 -15q-135 0 -241 53.5t-167.5 164.5t-61.5 281q0 171 59.5 283.5t165 168t245.5 55.5q118 0 213 -39t151.5 -117t59.5 -197h-211q-5 85 -60 134t-151 49q-129 0 -190 -88.5t-61 -248.5q0 -104 27 -178t82.5 -113t141.5 -39q98 0 157 52t62 150h211q-3 -122 -60 -205
t-153.5 -124.5t-218.5 -41.5zM435 1108l200 273h240l-277 -273h-163z" />
    <glyph glyph-name="Ccircumflex" unicode="&#x108;" horiz-adv-x="1432" 
d="M753 -18q-207 0 -352 86.5t-221 241.5t-76 362t76 362.5t221 242.5t352 87q147 0 275 -51t210 -153.5t93 -256.5h-234q-11 92 -60 151.5t-123 89t-161 29.5q-147 0 -238 -68.5t-132 -182t-41 -250.5q0 -136 41 -249.5t132 -181.5t238 -68q151 0 242.5 76.5t104.5 222.5
h235q-14 -161 -90 -270.5t-202 -164.5t-290 -55zM439 1458l214 274h204l213 -274h-169l-146 160l-148 -160h-168z" />
    <glyph glyph-name="ccircumflex" unicode="&#x109;" horiz-adv-x="1100" 
d="M569 -15q-135 0 -241 53.5t-167.5 164.5t-61.5 281q0 171 59.5 283.5t165 168t245.5 55.5q118 0 213 -39t151.5 -117t59.5 -197h-211q-5 85 -60 134t-151 49q-129 0 -190 -88.5t-61 -248.5q0 -104 27 -178t82.5 -113t141.5 -39q98 0 157 52t62 150h211q-3 -122 -60 -205
t-153.5 -124.5t-218.5 -41.5zM239 1108l213 273h204l214 -273h-169l-147 160l-147 -160h-168z" />
    <glyph glyph-name="Cdotaccent" unicode="&#x10a;" horiz-adv-x="1432" 
d="M753 -18q-207 0 -352 86.5t-221 241.5t-76 362t76 362.5t221 242.5t352 87q147 0 275 -51t210 -153.5t93 -256.5h-234q-11 92 -60 151.5t-123 89t-161 29.5q-147 0 -238 -68.5t-132 -182t-41 -250.5q0 -136 41 -249.5t132 -181.5t238 -68q151 0 242.5 76.5t104.5 222.5
h235q-14 -161 -90 -270.5t-202 -164.5t-290 -55zM755 1477q-60 0 -93.5 32t-33.5 80q0 50 33.5 82t93.5 32t93.5 -32t33.5 -82q0 -48 -33.5 -80t-93.5 -32z" />
    <glyph glyph-name="cdotaccent" unicode="&#x10b;" horiz-adv-x="1100" 
d="M569 -15q-135 0 -241 53.5t-167.5 164.5t-61.5 281q0 171 59.5 283.5t165 168t245.5 55.5q118 0 213 -39t151.5 -117t59.5 -197h-211q-5 85 -60 134t-151 49q-129 0 -190 -88.5t-61 -248.5q0 -104 27 -178t82.5 -113t141.5 -39q98 0 157 52t62 150h211q-3 -122 -60 -205
t-153.5 -124.5t-218.5 -41.5zM553 1131q-60 0 -93.5 32t-33.5 80q0 50 33.5 82t93.5 32t93.5 -32t33.5 -82q0 -48 -33.5 -80t-93.5 -32z" />
    <glyph glyph-name="Ccaron" unicode="&#x10c;" horiz-adv-x="1432" 
d="M753 -18q-207 0 -352 86.5t-221 241.5t-76 362t76 362.5t221 242.5t352 87q147 0 275 -51t210 -153.5t93 -256.5h-234q-11 92 -60 151.5t-123 89t-161 29.5q-147 0 -238 -68.5t-132 -182t-41 -250.5q0 -136 41 -249.5t132 -181.5t238 -68q151 0 242.5 76.5t104.5 222.5
h235q-14 -161 -90 -270.5t-202 -164.5t-290 -55zM653 1458l-214 274h168l147 -160l147 160h169l-213 -274h-204z" />
    <glyph glyph-name="ccaron" unicode="&#x10d;" horiz-adv-x="1100" 
d="M569 -15q-135 0 -241 53.5t-167.5 164.5t-61.5 281q0 171 59.5 283.5t165 168t245.5 55.5q118 0 213 -39t151.5 -117t59.5 -197h-211q-5 85 -60 134t-151 49q-129 0 -190 -88.5t-61 -248.5q0 -104 27 -178t82.5 -113t141.5 -39q98 0 157 52t62 150h211q-3 -122 -60 -205
t-153.5 -124.5t-218.5 -41.5zM451 1108l-214 273h168l148 -160l146 160h169l-213 -273h-204z" />
    <glyph glyph-name="Dcaron" unicode="&#x10e;" horiz-adv-x="1426" 
d="M169 0v1346h477q213 0 364 -79.5t231 -230t80 -361.5q0 -216 -80.5 -366.5t-231.5 -229.5t-363 -79h-477zM399 193h211q161 0 265.5 52.5t156.5 159.5t52 271q0 160 -54 266t-159.5 158.5t-260.5 52.5h-211v-960zM612 1458l-214 274h168l147 -160l147 160h169l-213 -274
h-204z" />
    <glyph glyph-name="dcaron" unicode="&#x10f;" horiz-adv-x="1174" 
d="M486 -17q-114 0 -201.5 56t-136.5 169.5t-49 283.5q0 168 52.5 278.5t145 166t213.5 55.5q102 0 177 -44t120 -117v515h216v-1346h-205l-11 140q-52 -71 -131 -114t-190 -43zM542 152q96 0 162 48.5t103 115.5v331q-35 73 -96.5 124.5t-152.5 51.5q-116 0 -177 -85.5
t-61 -244.5q0 -170 57.5 -255.5t164.5 -85.5zM1091 1028l65 318h208l-135 -318h-138z" />
    <glyph glyph-name="Dcroat" unicode="&#x110;" horiz-adv-x="1426" 
d="M0 589v185h732v-185h-732zM169 0v1346h477q213 0 364 -79.5t231 -230t80 -361.5q0 -216 -80.5 -366.5t-231.5 -229.5t-363 -79h-477zM399 193h211q161 0 265.5 52.5t156.5 159.5t52 271q0 160 -54 266t-159.5 158.5t-260.5 52.5h-211v-960z" />
    <glyph glyph-name="dcroat" unicode="&#x111;" horiz-adv-x="1174" 
d="M582 1105v125h568v-125h-568zM486 -17q-114 0 -201.5 56t-136.5 169.5t-49 283.5q0 168 52.5 278.5t145 166t213.5 55.5q102 0 177 -44t120 -117v515h216v-1346h-205l-11 140q-52 -71 -131 -114t-190 -43zM542 152q96 0 162 48.5t103 115.5v331q-35 73 -96.5 124.5
t-152.5 51.5q-116 0 -177 -85.5t-61 -244.5q0 -170 57.5 -255.5t164.5 -85.5z" />
    <glyph glyph-name="Emacron" unicode="&#x112;" horiz-adv-x="1157" 
d="M169 0v1346h880v-192h-650v-371h594v-186h-594v-405h650v-192h-880zM332 1510v142h555v-142h-555z" />
    <glyph glyph-name="emacron" unicode="&#x113;" horiz-adv-x="1109" 
d="M578 -18q-160 0 -266.5 63.5t-159.5 178t-53 265.5q0 152 51.5 264.5t154 175t256.5 62.5q208 0 328 -124t120 -354q0 -14 -1.5 -34.5t-3.5 -29.5h-689q1 -83 27.5 -152.5t84.5 -111.5t151 -42q100 0 157 44.5t60 131.5h213q-5 -108 -58.5 -183.5t-148 -114.5t-223.5 -39
zM317 594h477q-3 118 -65.5 179.5t-167.5 61.5q-108 0 -171.5 -62t-72.5 -179zM285 1164v142h555v-142h-555z" />
    <glyph glyph-name="Ebreve" unicode="&#x114;" horiz-adv-x="1157" 
d="M169 0v1346h880v-192h-650v-371h594v-186h-594v-405h650v-192h-880zM607 1469q-85 0 -150.5 31.5t-103.5 90.5t-41 140h123q5 -51 31.5 -82.5t64 -45t76.5 -13.5q40 0 77.5 14t64.5 45.5t34 81.5h124q-5 -80 -44.5 -139t-104.5 -91t-151 -32z" />
    <glyph glyph-name="ebreve" unicode="&#x115;" horiz-adv-x="1109" 
d="M578 -18q-160 0 -266.5 63.5t-159.5 178t-53 265.5q0 152 51.5 264.5t154 175t256.5 62.5q208 0 328 -124t120 -354q0 -14 -1.5 -34.5t-3.5 -29.5h-689q1 -83 27.5 -152.5t84.5 -111.5t151 -42q100 0 157 44.5t60 131.5h213q-5 -108 -58.5 -183.5t-148 -114.5t-223.5 -39
zM317 594h477q-3 118 -65.5 179.5t-167.5 61.5q-108 0 -171.5 -62t-72.5 -179zM561 1112q-125 0 -196 70.5t-83 193.5h122q9 -78 55.5 -108t101.5 -30q58 0 108 31t59 107h111q-11 -122 -82 -193t-196 -71z" />
    <glyph glyph-name="Edotaccent" unicode="&#x116;" horiz-adv-x="1157" 
d="M169 0v1346h880v-192h-650v-371h594v-186h-594v-405h650v-192h-880zM609 1477q-60 0 -93.5 32t-33.5 80q0 50 33.5 82t93.5 32t93.5 -32t33.5 -82q0 -48 -33.5 -80t-93.5 -32z" />
    <glyph glyph-name="edotaccent" unicode="&#x117;" horiz-adv-x="1109" 
d="M578 -18q-160 0 -266.5 63.5t-159.5 178t-53 265.5q0 152 51.5 264.5t154 175t256.5 62.5q208 0 328 -124t120 -354q0 -14 -1.5 -34.5t-3.5 -29.5h-689q1 -83 27.5 -152.5t84.5 -111.5t151 -42q100 0 157 44.5t60 131.5h213q-5 -108 -58.5 -183.5t-148 -114.5t-223.5 -39
zM317 594h477q-3 118 -65.5 179.5t-167.5 61.5q-108 0 -171.5 -62t-72.5 -179zM562 1131q-60 0 -93.5 32t-33.5 80q0 50 33.5 82t93.5 32t93.5 -32t33.5 -82q0 -48 -33.5 -80t-93.5 -32z" />
    <glyph glyph-name="Eogonek" unicode="&#x118;" horiz-adv-x="1157" 
d="M169 0v1346h880v-192h-650v-371h594v-186h-594v-405h650v-192h-880zM831 -373q-82 0 -138.5 44.5t-56.5 123.5q0 51 31 100.5t85 87t120 52.5l78 -22q-80 -46 -113.5 -95t-33.5 -87q0 -31 18 -48.5t50 -17.5t62.5 8.5t64.5 22.5v-130q-32 -18 -69.5 -28.5t-97.5 -10.5z
" />
    <glyph glyph-name="eogonek" unicode="&#x119;" horiz-adv-x="1109" 
d="M578 -18q-160 0 -266.5 63.5t-159.5 178t-53 265.5q0 152 51.5 264.5t154 175t256.5 62.5q208 0 328 -124t120 -354q0 -14 -1.5 -34.5t-3.5 -29.5h-689q1 -83 27.5 -152.5t84.5 -111.5t151 -42q100 0 157 44.5t60 131.5h213q-5 -108 -58.5 -183.5t-148 -114.5t-223.5 -39
zM317 594h477q-3 118 -65.5 179.5t-167.5 61.5q-108 0 -171.5 -62t-72.5 -179zM659 -373q-82 0 -138.5 44.5t-56.5 123.5q0 51 31 100.5t85 87t120 52.5l78 -22q-80 -46 -113.5 -95t-33.5 -87q0 -31 18 -48.5t50 -17.5t62.5 8.5t64.5 22.5v-130q-32 -18 -69.5 -28.5
t-97.5 -10.5z" />
    <glyph glyph-name="Ecaron" unicode="&#x11a;" horiz-adv-x="1157" 
d="M169 0v1346h880v-192h-650v-371h594v-186h-594v-405h650v-192h-880zM507 1458l-214 274h168l147 -160l147 160h169l-213 -274h-204z" />
    <glyph glyph-name="ecaron" unicode="&#x11b;" horiz-adv-x="1109" 
d="M578 -18q-160 0 -266.5 63.5t-159.5 178t-53 265.5q0 152 51.5 264.5t154 175t256.5 62.5q208 0 328 -124t120 -354q0 -14 -1.5 -34.5t-3.5 -29.5h-689q1 -83 27.5 -152.5t84.5 -111.5t151 -42q100 0 157 44.5t60 131.5h213q-5 -108 -58.5 -183.5t-148 -114.5t-223.5 -39
zM317 594h477q-3 118 -65.5 179.5t-167.5 61.5q-108 0 -171.5 -62t-72.5 -179zM460 1108l-214 273h168l148 -160l146 160h169l-213 -273h-204z" />
    <glyph glyph-name="Gcircumflex" unicode="&#x11c;" horiz-adv-x="1461" 
d="M757 -18q-209 0 -355 86.5t-222 241.5t-76 362q0 208 76 363.5t222 242t355 86.5q103 0 200.5 -26.5t178 -81.5t132 -139.5t62.5 -198.5h-234q-9 71 -51.5 129t-116 92t-175.5 34q-147 0 -238.5 -68t-133.5 -181.5t-42 -251.5q0 -137 42 -250.5t134 -180.5t242 -67
q120 0 200.5 42t122.5 118t46 175h-356v186h585v-120q0 -176 -68 -309.5t-201 -208.5t-329 -75zM437 1458l214 274h204l213 -274h-169l-146 160l-148 -160h-168z" />
    <glyph glyph-name="gcircumflex" unicode="&#x11d;" horiz-adv-x="1020" 
d="M513 -377q-166 0 -265 36t-142.5 95.5t-43.5 127.5q0 84 76 148.5t237 90.5l37 75h128q242 0 349 -65.5t107 -201.5t-123 -221t-360 -85zM509 -233q152 0 214.5 41t62.5 102q0 37 -21.5 63.5t-75 41t-149.5 14.5h-162q-54 -16 -84.5 -50.5t-30.5 -79.5q0 -51 57.5 -91.5
t188.5 -40.5zM375 39q-100 11 -159.5 41t-86 68.5t-26.5 74.5q0 56 43 98.5t135 72.5l110 -51q-53 -13 -86.5 -34t-33.5 -49q0 -20 20 -34t69 -22t136 -8zM498 313q-126 0 -214.5 46.5t-134 123t-45.5 165.5q0 93 46 169.5t135.5 122t218.5 45.5q132 0 219 -45.5t130.5 -122
t43.5 -169.5q0 -91 -44.5 -167.5t-132.5 -122t-222 -45.5zM497 449q86 0 142 50.5t56 148.5q0 102 -53 152t-138 50t-140.5 -51.5t-55.5 -150.5t57.5 -149t131.5 -50zM764 857l-72 82q40 99 116 135t188 37v-167q-74 0 -135.5 -14.5t-96.5 -72.5zM198 1108l213 273h204
l214 -273h-169l-147 160l-147 -160h-168z" />
    <glyph glyph-name="Gbreve" unicode="&#x11e;" horiz-adv-x="1461" 
d="M757 -18q-209 0 -355 86.5t-222 241.5t-76 362q0 208 76 363.5t222 242t355 86.5q103 0 200.5 -26.5t178 -81.5t132 -139.5t62.5 -198.5h-234q-9 71 -51.5 129t-116 92t-175.5 34q-147 0 -238.5 -68t-133.5 -181.5t-42 -251.5q0 -137 42 -250.5t134 -180.5t242 -67
q120 0 200.5 42t122.5 118t46 175h-356v186h585v-120q0 -176 -68 -309.5t-201 -208.5t-329 -75zM751 1469q-85 0 -150.5 31.5t-103.5 90.5t-41 140h123q5 -51 31.5 -82.5t64 -45t76.5 -13.5q40 0 77.5 14t64.5 45.5t34 81.5h124q-5 -80 -44.5 -139t-104.5 -91t-151 -32z" />
    <glyph glyph-name="gbreve" unicode="&#x11f;" horiz-adv-x="1020" 
d="M513 -377q-166 0 -265 36t-142.5 95.5t-43.5 127.5q0 84 76 148.5t237 90.5l37 75h128q242 0 349 -65.5t107 -201.5t-123 -221t-360 -85zM509 -233q152 0 214.5 41t62.5 102q0 37 -21.5 63.5t-75 41t-149.5 14.5h-162q-54 -16 -84.5 -50.5t-30.5 -79.5q0 -51 57.5 -91.5
t188.5 -40.5zM375 39q-100 11 -159.5 41t-86 68.5t-26.5 74.5q0 56 43 98.5t135 72.5l110 -51q-53 -13 -86.5 -34t-33.5 -49q0 -20 20 -34t69 -22t136 -8zM498 313q-126 0 -214.5 46.5t-134 123t-45.5 165.5q0 93 46 169.5t135.5 122t218.5 45.5q132 0 219 -45.5t130.5 -122
t43.5 -169.5q0 -91 -44.5 -167.5t-132.5 -122t-222 -45.5zM497 449q86 0 142 50.5t56 148.5q0 102 -53 152t-138 50t-140.5 -51.5t-55.5 -150.5t57.5 -149t131.5 -50zM764 857l-72 82q40 99 116 135t188 37v-167q-74 0 -135.5 -14.5t-96.5 -72.5zM511 1112q-125 0 -196 70.5
t-83 193.5h122q9 -78 55.5 -108t101.5 -30q58 0 108 31t59 107h111q-11 -122 -82 -193t-196 -71z" />
    <glyph glyph-name="Gdotaccent" unicode="&#x120;" horiz-adv-x="1461" 
d="M757 -18q-209 0 -355 86.5t-222 241.5t-76 362q0 208 76 363.5t222 242t355 86.5q103 0 200.5 -26.5t178 -81.5t132 -139.5t62.5 -198.5h-234q-9 71 -51.5 129t-116 92t-175.5 34q-147 0 -238.5 -68t-133.5 -181.5t-42 -251.5q0 -137 42 -250.5t134 -180.5t242 -67
q120 0 200.5 42t122.5 118t46 175h-356v186h585v-120q0 -176 -68 -309.5t-201 -208.5t-329 -75zM753 1477q-60 0 -93.5 32t-33.5 80q0 50 33.5 82t93.5 32t93.5 -32t33.5 -82q0 -48 -33.5 -80t-93.5 -32z" />
    <glyph glyph-name="gdotaccent" unicode="&#x121;" horiz-adv-x="1020" 
d="M513 -377q-166 0 -265 36t-142.5 95.5t-43.5 127.5q0 84 76 148.5t237 90.5l37 75h128q242 0 349 -65.5t107 -201.5t-123 -221t-360 -85zM509 -233q152 0 214.5 41t62.5 102q0 37 -21.5 63.5t-75 41t-149.5 14.5h-162q-54 -16 -84.5 -50.5t-30.5 -79.5q0 -51 57.5 -91.5
t188.5 -40.5zM375 39q-100 11 -159.5 41t-86 68.5t-26.5 74.5q0 56 43 98.5t135 72.5l110 -51q-53 -13 -86.5 -34t-33.5 -49q0 -20 20 -34t69 -22t136 -8zM498 313q-126 0 -214.5 46.5t-134 123t-45.5 165.5q0 93 46 169.5t135.5 122t218.5 45.5q132 0 219 -45.5t130.5 -122
t43.5 -169.5q0 -91 -44.5 -167.5t-132.5 -122t-222 -45.5zM497 449q86 0 142 50.5t56 148.5q0 102 -53 152t-138 50t-140.5 -51.5t-55.5 -150.5t57.5 -149t131.5 -50zM764 857l-72 82q40 99 116 135t188 37v-167q-74 0 -135.5 -14.5t-96.5 -72.5zM512 1131q-60 0 -93.5 32
t-33.5 80q0 50 33.5 82t93.5 32t93.5 -32t33.5 -82q0 -48 -33.5 -80t-93.5 -32z" />
    <glyph glyph-name="uni0122" unicode="&#x122;" horiz-adv-x="1461" 
d="M757 -18q-209 0 -355 86.5t-222 241.5t-76 362q0 208 76 363.5t222 242t355 86.5q103 0 200.5 -26.5t178 -81.5t132 -139.5t62.5 -198.5h-234q-9 71 -51.5 129t-116 92t-175.5 34q-147 0 -238.5 -68t-133.5 -181.5t-42 -251.5q0 -137 42 -250.5t134 -180.5t242 -67
q120 0 200.5 42t122.5 118t46 175h-356v186h585v-120q0 -176 -68 -309.5t-201 -208.5t-329 -75zM655 -398l-20 71q40 11 71.5 33t41.5 51q-49 3 -75.5 29t-26.5 65q0 37 28.5 63.5t81.5 26.5q52 0 85 -30.5t33 -88.5q0 -87 -64.5 -146.5t-154.5 -73.5z" />
    <glyph glyph-name="uni0123" unicode="&#x123;" horiz-adv-x="1020" 
d="M513 -377q-166 0 -265 36t-142.5 95.5t-43.5 127.5q0 84 76 148.5t237 90.5l37 75h128q242 0 349 -65.5t107 -201.5t-123 -221t-360 -85zM509 -233q152 0 214.5 41t62.5 102q0 37 -21.5 63.5t-75 41t-149.5 14.5h-162q-54 -16 -84.5 -50.5t-30.5 -79.5q0 -51 57.5 -91.5
t188.5 -40.5zM375 39q-100 11 -159.5 41t-86 68.5t-26.5 74.5q0 56 43 98.5t135 72.5l110 -51q-53 -13 -86.5 -34t-33.5 -49q0 -20 20 -34t69 -22t136 -8zM498 313q-126 0 -214.5 46.5t-134 123t-45.5 165.5q0 93 46 169.5t135.5 122t218.5 45.5q132 0 219 -45.5t130.5 -122
t43.5 -169.5q0 -91 -44.5 -167.5t-132.5 -122t-222 -45.5zM497 449q86 0 142 50.5t56 148.5q0 102 -53 152t-138 50t-140.5 -51.5t-55.5 -150.5t57.5 -149t131.5 -50zM764 857l-72 82q40 99 116 135t188 37v-167q-74 0 -135.5 -14.5t-96.5 -72.5zM510 1080q-55 0 -89 32.5
t-34 95.5q0 61 30.5 111t82 82.5t112.5 40.5l22 -77q-37 -13 -68 -36t-46 -56q49 -6 76.5 -31.5t27.5 -63.5q0 -42 -31.5 -70t-82.5 -28z" />
    <glyph glyph-name="Hcircumflex" unicode="&#x124;" horiz-adv-x="1471" 
d="M169 0v1346h230v-546h673v546h230v-1346h-230v598h-673v-598h-230zM421 1458l214 274h204l213 -274h-169l-146 160l-148 -160h-168z" />
    <glyph glyph-name="hcircumflex" unicode="&#x125;" horiz-adv-x="1157" 
d="M151 0v1346h213v-519q48 61 130 111.5t210 50.5q157 0 234 -91.5t77 -265.5v-632h-217v603q0 62 -14.5 109.5t-49.5 74t-98 26.5q-94 0 -159.5 -43.5t-108.5 -98.5v-671h-217zM265 1479l213 273h204l214 -273h-169l-147 160l-147 -160h-168z" />
    <glyph glyph-name="Hbar" unicode="&#x126;" horiz-adv-x="1471" 
d="M18 999v130h1433v-130h-1433zM169 0v1346h230v-546h673v546h230v-1346h-230v598h-673v-598h-230z" />
    <glyph glyph-name="hbar" unicode="&#x127;" horiz-adv-x="1157" 
d="M25 1105v125h571v-125h-571zM151 0v1346h213v-519q48 61 130 111.5t210 50.5q157 0 234 -91.5t77 -265.5v-632h-217v603q0 62 -14.5 109.5t-49.5 74t-98 26.5q-94 0 -159.5 -43.5t-108.5 -98.5v-671h-217z" />
    <glyph glyph-name="Itilde" unicode="&#x128;" horiz-adv-x="568" 
d="M169 0v1346h230v-1346h-230zM-24 1473q10 103 53.5 160.5t123.5 57.5q44 0 84.5 -14t77.5 -30q32 -14 58.5 -23t48.5 -9t35 18.5t17 60.5h118q-10 -100 -48 -155t-117 -55q-46 0 -86.5 13.5t-75.5 27.5q-35 15 -61 24.5t-49 9.5q-25 0 -40 -20.5t-20 -65.5h-119z" />
    <glyph glyph-name="itilde" unicode="&#x129;" horiz-adv-x="519" 
d="M151 0v975h217v-975h-217zM-48 1127q10 103 53.5 160.5t123.5 57.5q44 0 84.5 -14t77.5 -30q32 -14 58.5 -23t48.5 -9t35 18.5t17 60.5h118q-10 -100 -48 -155t-117 -55q-46 0 -86.5 13.5t-75.5 27.5q-35 15 -61 24.5t-49 9.5q-25 0 -40 -20.5t-20 -65.5h-119z" />
    <glyph glyph-name="Imacron" unicode="&#x12a;" horiz-adv-x="568" 
d="M169 0v1346h230v-1346h-230zM7 1510v142h555v-142h-555z" />
    <glyph glyph-name="imacron" unicode="&#x12b;" horiz-adv-x="519" 
d="M151 0v975h217v-975h-217zM38 1174v122h444v-122h-444z" />
    <glyph glyph-name="Ibreve" unicode="&#x12c;" horiz-adv-x="568" 
d="M169 0v1346h230v-1346h-230zM282 1469q-85 0 -150.5 31.5t-103.5 90.5t-41 140h123q5 -51 31.5 -82.5t64 -45t76.5 -13.5q40 0 77.5 14t64.5 45.5t34 81.5h124q-5 -80 -44.5 -139t-104.5 -91t-151 -32z" />
    <glyph glyph-name="ibreve" unicode="&#x12d;" horiz-adv-x="519" 
d="M151 0v975h217v-975h-217zM259 1112q-125 0 -196 70.5t-83 193.5h122q9 -78 55.5 -108t101.5 -30q58 0 108 31t59 107h111q-11 -122 -82 -193t-196 -71z" />
    <glyph glyph-name="Iogonek" unicode="&#x12e;" horiz-adv-x="568" 
d="M169 0v1346h230v-1346h-230zM255 -373q-82 0 -138.5 44.5t-56.5 123.5q0 51 31 100.5t85 87t120 52.5l78 -22q-80 -46 -113.5 -95t-33.5 -87q0 -31 18 -48.5t50 -17.5t62.5 8.5t64.5 22.5v-130q-32 -18 -69.5 -28.5t-97.5 -10.5z" />
    <glyph glyph-name="iogonek" unicode="&#x12f;" horiz-adv-x="519" 
d="M151 0v975h217v-975h-217zM260 1131q-60 0 -93.5 32t-33.5 80q0 50 33.5 82t93.5 32t93.5 -32t33.5 -82q0 -48 -33.5 -80t-93.5 -32zM223 -373q-82 0 -138.5 44.5t-56.5 123.5q0 51 31 100.5t85 87t120 52.5l78 -22q-80 -46 -113.5 -95t-33.5 -87q0 -31 18 -48.5
t50 -17.5t62.5 8.5t64.5 22.5v-130q-32 -18 -69.5 -28.5t-97.5 -10.5z" />
    <glyph glyph-name="Idotaccent" unicode="&#x130;" horiz-adv-x="568" 
d="M169 0v1346h230v-1346h-230zM284 1477q-60 0 -93.5 32t-33.5 80q0 50 33.5 82t93.5 32t93.5 -32t33.5 -82q0 -48 -33.5 -80t-93.5 -32z" />
    <glyph glyph-name="dotlessi" unicode="&#x131;" horiz-adv-x="519" 
d="M151 0v975h217v-975h-217z" />
    <glyph glyph-name="IJ" unicode="&#x132;" horiz-adv-x="1283" 
d="M169 0v1346h230v-1346h-230zM605 -10v197h86q117 0 165.5 56.5t48.5 186.5v916h226v-919q0 -151 -44 -247.5t-137.5 -143t-241.5 -46.5h-103z" />
    <glyph glyph-name="ij" unicode="&#x133;" horiz-adv-x="1038" 
d="M151 0v975h217v-975h-217zM260 1131q-61 0 -94 32t-33 80q0 50 33 82t94 32q60 0 93.5 -32t33.5 -81t-33.5 -81t-93.5 -32zM483 -358v173h50q69 0 103 32.5t34 107.5v1020h217v-1003q0 -160 -77.5 -245t-246.5 -85h-80zM779 1131q-61 0 -94 32t-33 80q0 50 33 82t94 32
q60 0 93.5 -32t33.5 -82q0 -48 -33.5 -80t-93.5 -32z" />
    <glyph glyph-name="Jcircumflex" unicode="&#x134;" horiz-adv-x="715" 
d="M37 -10v197h86q117 0 165.5 56.5t48.5 186.5v916h226v-919q0 -151 -44 -247.5t-137.5 -143t-241.5 -46.5h-103zM134 1458l214 274h204l213 -274h-169l-146 160l-148 -160h-168z" />
    <glyph glyph-name="jcircumflex" unicode="&#x135;" horiz-adv-x="519" 
d="M-36 -358v173h50q69 0 103.5 32.5t34.5 107.5v1020h216v-1003q0 -160 -77.5 -245t-246.5 -85h-80zM-54 1108l213 273h204l214 -273h-169l-147 160l-147 -160h-168z" />
    <glyph glyph-name="uni0136" unicode="&#x136;" horiz-adv-x="1220" 
d="M169 0v1346h230v-645l518 645h259l-529 -633l568 -713h-272l-544 690v-690h-230zM576 -398l-20 71q40 11 71.5 33t41.5 51q-49 3 -75.5 29t-26.5 65q0 37 28.5 63.5t81.5 26.5q52 0 85 -30.5t33 -88.5q0 -87 -64.5 -146.5t-154.5 -73.5z" />
    <glyph glyph-name="uni0137" unicode="&#x137;" horiz-adv-x="1045" 
d="M151 0v1346h217v-825l410 454h242l-413 -452l447 -523h-254l-432 511v-511h-217zM478 -398l-20 71q40 11 71.5 33t41.5 51q-49 3 -75.5 29t-26.5 65q0 37 28.5 63.5t81.5 26.5q52 0 85 -30.5t33 -88.5q0 -87 -64.5 -146.5t-154.5 -73.5z" />
    <glyph glyph-name="kgreenlandic" unicode="&#x138;" horiz-adv-x="1045" 
d="M151 0v975h217v-454l410 454h242l-413 -452l447 -523h-254l-432 511v-511h-217z" />
    <glyph glyph-name="Lacute" unicode="&#x139;" horiz-adv-x="1035" 
d="M169 0v1346h230v-1145h598v-201h-828zM178 1458l190 273h239l-266 -273h-163z" />
    <glyph glyph-name="lacute" unicode="&#x13a;" horiz-adv-x="569" 
d="M475 0q-134 0 -206.5 36.5t-100 109t-27.5 181.5v1019h216v-1006q0 -84 22 -126.5t105 -42.5h53v-171h-62zM142 1478l200 273h240l-277 -273h-163z" />
    <glyph glyph-name="uni013B" unicode="&#x13b;" horiz-adv-x="1035" 
d="M169 0v1346h230v-1145h598v-201h-828zM504 -398l-20 71q40 11 71.5 33t41.5 51q-49 3 -75.5 29t-26.5 65q0 37 28.5 63.5t81.5 26.5q52 0 85 -30.5t33 -88.5q0 -87 -64.5 -146.5t-154.5 -73.5z" />
    <glyph glyph-name="uni013C" unicode="&#x13c;" horiz-adv-x="569" 
d="M475 0q-134 0 -206.5 36.5t-100 109t-27.5 181.5v1019h216v-1006q0 -84 22 -126.5t105 -42.5h53v-171h-62zM241 -398l-20 71q40 11 71.5 33t41.5 51q-49 3 -75.5 29t-26.5 65q0 37 28.5 63.5t81.5 26.5q52 0 85 -30.5t33 -88.5q0 -87 -64.5 -146.5t-154.5 -73.5z" />
    <glyph glyph-name="Lcaron" unicode="&#x13d;" horiz-adv-x="1035" 
d="M169 0v1346h230v-1145h598v-201h-828zM631 1028l65 318h208l-135 -318h-138z" />
    <glyph glyph-name="lcaron" unicode="&#x13e;" horiz-adv-x="569" 
d="M475 0q-134 0 -206.5 36.5t-100 109t-27.5 181.5v1019h216v-1006q0 -84 22 -126.5t105 -42.5h53v-171h-62zM406 1028l65 318h208l-135 -318h-138z" />
    <glyph glyph-name="Ldot" unicode="&#x13f;" horiz-adv-x="1035" 
d="M169 0v1346h230v-1145h598v-201h-828zM794 613q-66 0 -108 42t-42 103q0 64 42 104t108 40t107 -40t41 -104q0 -61 -41 -103t-107 -42z" />
    <glyph glyph-name="ldot" unicode="&#x140;" horiz-adv-x="673" 
d="M475 0q-134 0 -206.5 36.5t-100 109t-27.5 181.5v1019h216v-1006q0 -84 22 -126.5t105 -42.5h53v-171h-62zM583 566q-66 0 -108 42t-42 103q0 64 42 104t108 40t107 -40t41 -104q0 -61 -41 -103t-107 -42z" />
    <glyph glyph-name="Lslash" unicode="&#x141;" horiz-adv-x="1035" 
d="M0 367v184l657 377v-184zM169 0v1346h230v-1145h598v-201h-828z" />
    <glyph glyph-name="lslash" unicode="&#x142;" horiz-adv-x="569" 
d="M246 618v186l269 200v-186zM0 460v184l246 182v-184zM475 0q-134 0 -206.5 36.5t-100 109t-27.5 181.5v1019h216v-1006q0 -84 22 -126.5t105 -42.5h53v-171h-62z" />
    <glyph glyph-name="Nacute" unicode="&#x143;" horiz-adv-x="1463" 
d="M169 0v1346h229l679 -989v989h217v-1346h-229l-680 993v-993h-216zM639 1458l190 273h239l-266 -273h-163z" />
    <glyph glyph-name="nacute" unicode="&#x144;" horiz-adv-x="1157" 
d="M151 0v975h208l5 -148q48 61 130 111.5t211 50.5q155 0 232.5 -92.5t77.5 -264.5v-632h-216v603q0 62 -15 109.5t-50.5 74t-97.5 26.5q-94 0 -159.5 -43.5t-108.5 -98.5v-671h-217zM473 1108l200 273h240l-277 -273h-163z" />
    <glyph glyph-name="uni0145" unicode="&#x145;" horiz-adv-x="1463" 
d="M169 0v1346h229l679 -989v989h217v-1346h-229l-680 993v-993h-216zM626 -398l-20 71q40 11 71.5 33t41.5 51q-49 3 -75.5 29t-26.5 65q0 37 28.5 63.5t81.5 26.5q52 0 85 -30.5t33 -88.5q0 -87 -64.5 -146.5t-154.5 -73.5z" />
    <glyph glyph-name="uni0146" unicode="&#x146;" horiz-adv-x="1157" 
d="M151 0v975h208l5 -148q48 61 130 111.5t211 50.5q155 0 232.5 -92.5t77.5 -264.5v-632h-216v603q0 62 -15 109.5t-50.5 74t-97.5 26.5q-94 0 -159.5 -43.5t-108.5 -98.5v-671h-217zM485 -398l-20 71q40 11 71.5 33t41.5 51q-49 3 -75.5 29t-26.5 65q0 37 28.5 63.5
t81.5 26.5q52 0 85 -30.5t33 -88.5q0 -87 -64.5 -146.5t-154.5 -73.5z" />
    <glyph glyph-name="Ncaron" unicode="&#x147;" horiz-adv-x="1463" 
d="M169 0v1346h229l679 -989v989h217v-1346h-229l-680 993v-993h-216zM643 1458l-214 274h168l147 -160l147 160h169l-213 -274h-204z" />
    <glyph glyph-name="ncaron" unicode="&#x148;" horiz-adv-x="1157" 
d="M151 0v975h208l5 -148q48 61 130 111.5t211 50.5q155 0 232.5 -92.5t77.5 -264.5v-632h-216v603q0 62 -15 109.5t-50.5 74t-97.5 26.5q-94 0 -159.5 -43.5t-108.5 -98.5v-671h-217zM489 1108l-214 273h168l148 -160l146 160h169l-213 -273h-204z" />
    <glyph glyph-name="napostrophe" unicode="&#x149;" horiz-adv-x="1297" 
d="M291 0v975h208l5 -148q48 61 130 111.5t211 50.5q155 0 232.5 -92.5t77.5 -264.5v-632h-216v603q0 62 -15 109.5t-50.5 74t-97.5 26.5q-94 0 -159.5 -43.5t-108.5 -98.5v-671h-217zM-26 800l-37 107q68 28 110.5 72.5t49.5 113.5l14 -12q-65 0 -107 40.5t-42 101.5
q0 64 41.5 103t107.5 39q67 0 107.5 -46t40.5 -138q0 -105 -39.5 -182.5t-104.5 -127.5t-141 -71z" />
    <glyph glyph-name="Eng" unicode="&#x14a;" horiz-adv-x="1463" 
d="M169 0v1346h229l679 -966v966h217v-1262l-225 -67l-684 976v-993h-216zM767 -358v196h85q117 0 166 57.5t49 191.5l227 -3q0 -230 -101 -336t-324 -106h-102z" />
    <glyph glyph-name="eng" unicode="&#x14b;" horiz-adv-x="1157" 
d="M611 -358v173h51q69 0 103 30.5t34 99.5v187h216v-178q0 -150 -77.5 -231t-246.5 -81h-80zM151 0v975h208l5 -148q48 61 130 111.5t211 50.5q155 0 232.5 -92.5t77.5 -264.5v-632h-216v603q0 62 -15 109.5t-50.5 74t-97.5 26.5q-94 0 -159.5 -43.5t-108.5 -98.5v-671
h-217z" />
    <glyph glyph-name="Omacron" unicode="&#x14c;" horiz-adv-x="1505" 
d="M753 -18q-212 0 -356.5 86.5t-218.5 241.5t-74 362t74 362.5t218.5 242.5t356.5 87q211 0 354.5 -87t218 -242.5t74.5 -362.5t-74.5 -362t-218 -241.5t-354.5 -86.5zM753 172q146 0 236 68t132 181.5t42 250.5q0 139 -42 252.5t-132 181t-236 67.5q-147 0 -238 -67.5
t-132 -181t-41 -252.5q0 -137 41 -250.5t132 -181.5t238 -68zM476 1510v142h555v-142h-555z" />
    <glyph glyph-name="omacron" unicode="&#x14d;" horiz-adv-x="1152" 
d="M572 -16q-145 0 -251.5 59.5t-164 172t-57.5 269.5q0 160 57.5 274t164 174t251.5 60q149 0 256.5 -60t166 -174t58.5 -274q0 -157 -58.5 -269.5t-166 -172t-256.5 -59.5zM572 152q98 0 155 44t81 119.5t24 169.5q0 96 -24 173t-81 121.5t-155 44.5q-94 0 -149 -44.5
t-79 -121.5t-24 -173q0 -94 24 -169.5t79 -119.5t149 -44zM299 1164v142h555v-142h-555z" />
    <glyph glyph-name="Obreve" unicode="&#x14e;" horiz-adv-x="1505" 
d="M753 -18q-212 0 -356.5 86.5t-218.5 241.5t-74 362t74 362.5t218.5 242.5t356.5 87q211 0 354.5 -87t218 -242.5t74.5 -362.5t-74.5 -362t-218 -241.5t-354.5 -86.5zM753 172q146 0 236 68t132 181.5t42 250.5q0 139 -42 252.5t-132 181t-236 67.5q-147 0 -238 -67.5
t-132 -181t-41 -252.5q0 -137 41 -250.5t132 -181.5t238 -68zM751 1469q-85 0 -150.5 31.5t-103.5 90.5t-41 140h123q5 -51 31.5 -82.5t64 -45t76.5 -13.5q40 0 77.5 14t64.5 45.5t34 81.5h124q-5 -80 -44.5 -139t-104.5 -91t-151 -32z" />
    <glyph glyph-name="obreve" unicode="&#x14f;" horiz-adv-x="1152" 
d="M572 -16q-145 0 -251.5 59.5t-164 172t-57.5 269.5q0 160 57.5 274t164 174t251.5 60q149 0 256.5 -60t166 -174t58.5 -274q0 -157 -58.5 -269.5t-166 -172t-256.5 -59.5zM572 152q98 0 155 44t81 119.5t24 169.5q0 96 -24 173t-81 121.5t-155 44.5q-94 0 -149 -44.5
t-79 -121.5t-24 -173q0 -94 24 -169.5t79 -119.5t149 -44zM575 1112q-125 0 -196 70.5t-83 193.5h122q9 -78 55.5 -108t101.5 -30q58 0 108 31t59 107h111q-11 -122 -82 -193t-196 -71z" />
    <glyph glyph-name="Ohungarumlaut" unicode="&#x150;" horiz-adv-x="1505" 
d="M753 -18q-212 0 -356.5 86.5t-218.5 241.5t-74 362t74 362.5t218.5 242.5t356.5 87q211 0 354.5 -87t218 -242.5t74.5 -362.5t-74.5 -362t-218 -241.5t-354.5 -86.5zM753 172q146 0 236 68t132 181.5t42 250.5q0 139 -42 252.5t-132 181t-236 67.5q-147 0 -238 -67.5
t-132 -181t-41 -252.5q0 -137 41 -250.5t132 -181.5t238 -68zM788 1458l181 273h195l-234 -273h-142zM485 1458l179 273h196l-235 -273h-140z" />
    <glyph glyph-name="ohungarumlaut" unicode="&#x151;" horiz-adv-x="1152" 
d="M572 -16q-145 0 -251.5 59.5t-164 172t-57.5 269.5q0 160 57.5 274t164 174t251.5 60q149 0 256.5 -60t166 -174t58.5 -274q0 -157 -58.5 -269.5t-166 -172t-256.5 -59.5zM572 152q98 0 155 44t81 119.5t24 169.5q0 96 -24 173t-81 121.5t-155 44.5q-94 0 -149 -44.5
t-79 -121.5t-24 -173q0 -94 24 -169.5t79 -119.5t149 -44zM611 1108l181 273h195l-234 -273h-142zM308 1108l179 273h196l-235 -273h-140z" />
    <glyph glyph-name="OE" unicode="&#x152;" horiz-adv-x="2154" 
d="M737 -18q-203 0 -344.5 86.5t-215 241.5t-73.5 362q0 208 73.5 363.5t215 242t344.5 86.5q156 0 265 -51t175.5 -144t97 -219.5t30.5 -277.5t-30.5 -277t-97 -218.5t-175.5 -143.5t-265 -51zM756 172q146 0 236 68t131.5 181.5t41.5 250.5q0 139 -41.5 252.5t-131.5 181
t-236 67.5q-147 0 -238 -67.5t-132.5 -181t-41.5 -252.5q0 -137 41.5 -250.5t132.5 -181.5t238 -68zM1166 0v1346h881v-192h-651v-371h595v-186h-595v-405h651v-192h-881z" />
    <glyph glyph-name="oe" unicode="&#x153;" horiz-adv-x="1842" 
d="M563 -17q-141 0 -245.5 59.5t-161.5 171.5t-57 270q0 159 57.5 272.5t164 173.5t251.5 60q152 0 249.5 -61.5t145 -175t47.5 -269.5q0 -157 -49.5 -269t-149.5 -172t-252 -60zM572 151q98 0 156.5 44t84 119.5t25.5 169.5q0 96 -25.5 171.5t-84 120t-156.5 44.5
q-94 0 -150.5 -44.5t-81.5 -120t-25 -171.5q0 -94 25 -169.5t81.5 -119.5t150.5 -44zM1312 -18q-156 0 -256.5 63.5t-148.5 177.5t-48 266t46.5 264.5t143.5 175t245 62.5q208 0 328 -124t120 -354q0 -14 -1 -34.5t-3 -29.5h-690q2 -83 28 -152.5t83.5 -111.5t152.5 -42
q99 0 156.5 44.5t59.5 131.5h213q-4 -108 -57.5 -183.5t-148.5 -114.5t-223 -39zM1050 594h478q-3 118 -65.5 179.5t-168.5 61.5q-108 0 -172 -62.5t-72 -178.5z" />
    <glyph glyph-name="Racute" unicode="&#x154;" horiz-adv-x="1269" 
d="M169 0v1346h531q123 0 222 -37t157.5 -117t58.5 -210q0 -128 -70 -218t-209 -124q81 -13 131 -51t81.5 -103t56.5 -160l89 -326h-239l-70 285q-20 85 -47 142.5t-72 86.5t-122 29h-268v-543h-230zM399 733h266q70 0 123.5 25t84.5 72.5t31 114.5q0 101 -60.5 155
t-167.5 54h-277v-421zM529 1458l190 273h239l-266 -273h-163z" />
    <glyph glyph-name="racute" unicode="&#x155;" horiz-adv-x="720" 
d="M151 0v975h206l5 -167q40 81 114.5 130.5t187.5 49.5h19v-189h-23q-67 0 -121.5 -14.5t-96.5 -44t-74 -73.5v-667h-217zM295 1108l200 273h240l-277 -273h-163z" />
    <glyph glyph-name="uni0156" unicode="&#x156;" horiz-adv-x="1269" 
d="M169 0v1346h531q123 0 222 -37t157.5 -117t58.5 -210q0 -128 -70 -218t-209 -124q81 -13 131 -51t81.5 -103t56.5 -160l89 -326h-239l-70 285q-20 85 -47 142.5t-72 86.5t-122 29h-268v-543h-230zM399 733h266q70 0 123.5 25t84.5 72.5t31 114.5q0 101 -60.5 155
t-167.5 54h-277v-421zM593 -398l-20 71q40 11 71.5 33t41.5 51q-49 3 -75.5 29t-26.5 65q0 37 28.5 63.5t81.5 26.5q52 0 85 -30.5t33 -88.5q0 -87 -64.5 -146.5t-154.5 -73.5z" />
    <glyph glyph-name="uni0157" unicode="&#x157;" horiz-adv-x="720" 
d="M151 0v975h206l5 -167q40 81 114.5 130.5t187.5 49.5h19v-189h-23q-67 0 -121.5 -14.5t-96.5 -44t-74 -73.5v-667h-217zM162 -398l-20 71q40 11 71.5 33t41.5 51q-49 3 -75.5 29t-26.5 65q0 37 28.5 63.5t81.5 26.5q52 0 85 -30.5t33 -88.5q0 -87 -64.5 -146.5
t-154.5 -73.5z" />
    <glyph glyph-name="Rcaron" unicode="&#x158;" horiz-adv-x="1269" 
d="M169 0v1346h531q123 0 222 -37t157.5 -117t58.5 -210q0 -128 -70 -218t-209 -124q81 -13 131 -51t81.5 -103t56.5 -160l89 -326h-239l-70 285q-20 85 -47 142.5t-72 86.5t-122 29h-268v-543h-230zM399 733h266q70 0 123.5 25t84.5 72.5t31 114.5q0 101 -60.5 155
t-167.5 54h-277v-421zM533 1458l-214 274h168l147 -160l147 160h169l-213 -274h-204z" />
    <glyph glyph-name="rcaron" unicode="&#x159;" horiz-adv-x="720" 
d="M151 0v975h206l5 -167q40 81 114.5 130.5t187.5 49.5h19v-189h-23q-67 0 -121.5 -14.5t-96.5 -44t-74 -73.5v-667h-217zM311 1108l-214 273h168l148 -160l146 160h169l-213 -273h-204z" />
    <glyph glyph-name="Sacute" unicode="&#x15a;" horiz-adv-x="1192" 
d="M604 -18q-149 0 -268.5 44t-189.5 138t-70 246h234q2 -92 42 -145t107.5 -75t149.5 -22q78 0 140.5 21t99 65t36.5 111q0 62 -30 102t-101 70.5t-195 64.5q-145 39 -245 87t-151.5 121.5t-51.5 188.5q0 123 59 203.5t165 120.5t248 40q135 0 246.5 -41.5t178.5 -126.5
t67 -214h-234q1 100 -74.5 150.5t-183.5 50.5q-109 0 -174.5 -42.5t-65.5 -127.5q0 -49 28 -84.5t100 -65.5t203 -67q154 -43 252 -92t145 -125.5t47 -201.5q0 -136 -68 -223t-184 -129t-262 -42zM491 1458l190 273h239l-266 -273h-163z" />
    <glyph glyph-name="sacute" unicode="&#x15b;" horiz-adv-x="1026" 
d="M520 -18q-82 0 -157.5 16.5t-135 54.5t-94 101t-34.5 155h204q0 -98 64 -137t155 -39q86 0 138 30.5t52 101.5q0 63 -53 94t-185 61q-109 27 -188.5 62t-122 92.5t-42.5 147.5q0 70 31.5 121t85.5 84t124 49t148 16q75 0 145 -16.5t125 -53.5t87 -97t32 -147h-203
q0 89 -55 125.5t-131 36.5q-80 0 -127.5 -26t-47.5 -84q0 -33 25 -56.5t81.5 -43t151.5 -41.5q102 -24 177 -59.5t115.5 -93t40.5 -149.5q0 -82 -32.5 -140t-88.5 -94.5t-129.5 -53.5t-155.5 -17zM399 1108l200 273h240l-277 -273h-163z" />
    <glyph glyph-name="Scircumflex" unicode="&#x15c;" horiz-adv-x="1192" 
d="M604 -18q-149 0 -268.5 44t-189.5 138t-70 246h234q2 -92 42 -145t107.5 -75t149.5 -22q78 0 140.5 21t99 65t36.5 111q0 62 -30 102t-101 70.5t-195 64.5q-145 39 -245 87t-151.5 121.5t-51.5 188.5q0 123 59 203.5t165 120.5t248 40q135 0 246.5 -41.5t178.5 -126.5
t67 -214h-234q1 100 -74.5 150.5t-183.5 50.5q-109 0 -174.5 -42.5t-65.5 -127.5q0 -49 28 -84.5t100 -65.5t203 -67q154 -43 252 -92t145 -125.5t47 -201.5q0 -136 -68 -223t-184 -129t-262 -42zM281 1458l214 274h204l213 -274h-169l-146 160l-148 -160h-168z" />
    <glyph glyph-name="scircumflex" unicode="&#x15d;" horiz-adv-x="1026" 
d="M520 -18q-82 0 -157.5 16.5t-135 54.5t-94 101t-34.5 155h204q0 -98 64 -137t155 -39q86 0 138 30.5t52 101.5q0 63 -53 94t-185 61q-109 27 -188.5 62t-122 92.5t-42.5 147.5q0 70 31.5 121t85.5 84t124 49t148 16q75 0 145 -16.5t125 -53.5t87 -97t32 -147h-203
q0 89 -55 125.5t-131 36.5q-80 0 -127.5 -26t-47.5 -84q0 -33 25 -56.5t81.5 -43t151.5 -41.5q102 -24 177 -59.5t115.5 -93t40.5 -149.5q0 -82 -32.5 -140t-88.5 -94.5t-129.5 -53.5t-155.5 -17zM203 1108l213 273h204l214 -273h-169l-147 160l-147 -160h-168z" />
    <glyph glyph-name="Scedilla" unicode="&#x15e;" horiz-adv-x="1192" 
d="M604 -18q-149 0 -268.5 44t-189.5 138t-70 246h234q2 -92 42 -145t107.5 -75t149.5 -22q78 0 140.5 21t99 65t36.5 111q0 62 -30 102t-101 70.5t-195 64.5q-145 39 -245 87t-151.5 121.5t-51.5 188.5q0 123 59 203.5t165 120.5t248 40q135 0 246.5 -41.5t178.5 -126.5
t67 -214h-234q1 100 -74.5 150.5t-183.5 50.5q-109 0 -174.5 -42.5t-65.5 -127.5q0 -49 28 -84.5t100 -65.5t203 -67q154 -43 252 -92t145 -125.5t47 -201.5q0 -136 -68 -223t-184 -129t-262 -42zM612 -380q-64 0 -109.5 10t-86.5 26l31 103q31 -13 72.5 -21.5t83.5 -8.5
q37 0 60.5 16.5t23.5 46.5q0 31 -30.5 47.5t-111.5 26.5l-44 6l135 175l91 -37l-65 -84l-40 19q94 -3 150 -42t56 -114q0 -57 -29 -95t-78 -56t-109 -18z" />
    <glyph glyph-name="scedilla" unicode="&#x15f;" horiz-adv-x="1026" 
d="M520 -18q-82 0 -157.5 16.5t-135 54.5t-94 101t-34.5 155h204q0 -98 64 -137t155 -39q86 0 138 30.5t52 101.5q0 63 -53 94t-185 61q-109 27 -188.5 62t-122 92.5t-42.5 147.5q0 70 31.5 121t85.5 84t124 49t148 16q75 0 145 -16.5t125 -53.5t87 -97t32 -147h-203
q0 89 -55 125.5t-131 36.5q-80 0 -127.5 -26t-47.5 -84q0 -33 25 -56.5t81.5 -43t151.5 -41.5q102 -24 177 -59.5t115.5 -93t40.5 -149.5q0 -82 -32.5 -140t-88.5 -94.5t-129.5 -53.5t-155.5 -17zM503 -380q-64 0 -109.5 10t-86.5 26l31 103q31 -13 72.5 -21.5t83.5 -8.5
q37 0 60.5 16.5t23.5 46.5q0 31 -30.5 47.5t-111.5 26.5l-44 6l135 175l91 -37l-65 -84l-40 19q94 -3 150 -42t56 -114q0 -57 -29 -95t-78 -56t-109 -18z" />
    <glyph glyph-name="Scaron" unicode="&#x160;" horiz-adv-x="1192" 
d="M604 -18q-149 0 -268.5 44t-189.5 138t-70 246h234q2 -92 42 -145t107.5 -75t149.5 -22q78 0 140.5 21t99 65t36.5 111q0 62 -30 102t-101 70.5t-195 64.5q-145 39 -245 87t-151.5 121.5t-51.5 188.5q0 123 59 203.5t165 120.5t248 40q135 0 246.5 -41.5t178.5 -126.5
t67 -214h-234q1 100 -74.5 150.5t-183.5 50.5q-109 0 -174.5 -42.5t-65.5 -127.5q0 -49 28 -84.5t100 -65.5t203 -67q154 -43 252 -92t145 -125.5t47 -201.5q0 -136 -68 -223t-184 -129t-262 -42zM495 1458l-214 274h168l147 -160l147 160h169l-213 -274h-204z" />
    <glyph glyph-name="scaron" unicode="&#x161;" horiz-adv-x="1026" 
d="M520 -18q-82 0 -157.5 16.5t-135 54.5t-94 101t-34.5 155h204q0 -98 64 -137t155 -39q86 0 138 30.5t52 101.5q0 63 -53 94t-185 61q-109 27 -188.5 62t-122 92.5t-42.5 147.5q0 70 31.5 121t85.5 84t124 49t148 16q75 0 145 -16.5t125 -53.5t87 -97t32 -147h-203
q0 89 -55 125.5t-131 36.5q-80 0 -127.5 -26t-47.5 -84q0 -33 25 -56.5t81.5 -43t151.5 -41.5q102 -24 177 -59.5t115.5 -93t40.5 -149.5q0 -82 -32.5 -140t-88.5 -94.5t-129.5 -53.5t-155.5 -17zM415 1108l-214 273h168l148 -160l146 160h169l-213 -273h-204z" />
    <glyph glyph-name="uni0162" unicode="&#x162;" horiz-adv-x="1007" 
d="M389 0v1153h-371v193h971v-193h-369v-1153h-231zM474 -380q-64 0 -109.5 10t-86.5 26l31 103q31 -13 72.5 -21.5t83.5 -8.5q37 0 60.5 16.5t23.5 46.5q0 31 -30.5 47.5t-111.5 26.5l-44 6l135 175l91 -37l-65 -84l-40 19q94 -3 150 -42t56 -114q0 -57 -29 -95t-78 -56
t-109 -18z" />
    <glyph glyph-name="uni0163" unicode="&#x163;" horiz-adv-x="695" 
d="M522 0q-133 0 -205 36.5t-99.5 109t-27.5 181.5v478h-163v170h163v227h215v-227h227v-170h-227v-465q0 -84 22.5 -127t105.5 -43h99v-170h-110zM348 -380q-64 0 -109.5 10t-86.5 26l31 103q31 -13 72.5 -21.5t83.5 -8.5q37 0 60.5 16.5t23.5 46.5q0 31 -30.5 47.5
t-111.5 26.5l-44 6l135 175l91 -37l-65 -84l-40 19q94 -3 150 -42t56 -114q0 -57 -29 -95t-78 -56t-109 -18z" />
    <glyph glyph-name="Tcaron" unicode="&#x164;" horiz-adv-x="1007" 
d="M389 0v1153h-371v193h971v-193h-369v-1153h-231zM403 1458l-214 274h168l147 -160l147 160h169l-213 -274h-204z" />
    <glyph glyph-name="tcaron" unicode="&#x165;" horiz-adv-x="695" 
d="M522 0q-133 0 -205 36.5t-99.5 109t-27.5 181.5v478h-163v170h163v227h215v-227h227v-170h-227v-465q0 -84 22.5 -127t105.5 -43h99v-170h-110zM499 1063l65 318h208l-135 -318h-138z" />
    <glyph glyph-name="Tbar" unicode="&#x166;" horiz-adv-x="1007" 
d="M171 556v181h667v-181h-667zM389 0v1153h-371v193h971v-193h-369v-1153h-231z" />
    <glyph glyph-name="tbar" unicode="&#x167;" horiz-adv-x="695" 
d="M27 450v125h605v-125h-605zM522 0q-133 0 -205 36.5t-99.5 109t-27.5 181.5v478h-163v170h163v227h215v-227h227v-170h-227v-465q0 -84 22.5 -127t105.5 -43h99v-170h-110z" />
    <glyph glyph-name="Utilde" unicode="&#x168;" horiz-adv-x="1410" 
d="M705 -18q-194 0 -316.5 65t-179.5 185.5t-57 285.5v828h235v-814q0 -188 79.5 -273t239.5 -85t238.5 85t78.5 273v814h236v-828q0 -165 -57.5 -285.5t-179.5 -185.5t-317 -65zM398 1473q10 103 53.5 160.5t123.5 57.5q44 0 84.5 -14t77.5 -30q32 -14 58.5 -23t48.5 -9
t35 18.5t17 60.5h118q-10 -100 -48 -155t-117 -55q-46 0 -86.5 13.5t-75.5 27.5q-35 15 -61 24.5t-49 9.5q-25 0 -40 -20.5t-20 -65.5h-119z" />
    <glyph glyph-name="utilde" unicode="&#x169;" horiz-adv-x="1167" 
d="M457 -14q-159 0 -237 93t-78 260v636h216v-609q0 -58 15 -103t53 -70.5t105 -25.5q94 0 159.5 40.5t109.5 96.5v671h216v-975h-209l-4 149q-48 -61 -133 -112t-213 -51zM271 1127q10 103 53.5 160.5t123.5 57.5q44 0 84.5 -14t77.5 -30q32 -14 58.5 -23t48.5 -9t35 18.5
t17 60.5h118q-10 -100 -48 -155t-117 -55q-46 0 -86.5 13.5t-75.5 27.5q-35 15 -61 24.5t-49 9.5q-25 0 -40 -20.5t-20 -65.5h-119z" />
    <glyph glyph-name="Umacron" unicode="&#x16a;" horiz-adv-x="1410" 
d="M705 -18q-194 0 -316.5 65t-179.5 185.5t-57 285.5v828h235v-814q0 -188 79.5 -273t239.5 -85t238.5 85t78.5 273v814h236v-828q0 -165 -57.5 -285.5t-179.5 -185.5t-317 -65zM429 1510v142h555v-142h-555z" />
    <glyph glyph-name="umacron" unicode="&#x16b;" horiz-adv-x="1167" 
d="M457 -14q-159 0 -237 93t-78 260v636h216v-609q0 -58 15 -103t53 -70.5t105 -25.5q94 0 159.5 40.5t109.5 96.5v671h216v-975h-209l-4 149q-48 -61 -133 -112t-213 -51zM302 1164v142h555v-142h-555z" />
    <glyph glyph-name="Ubreve" unicode="&#x16c;" horiz-adv-x="1410" 
d="M705 -18q-194 0 -316.5 65t-179.5 185.5t-57 285.5v828h235v-814q0 -188 79.5 -273t239.5 -85t238.5 85t78.5 273v814h236v-828q0 -165 -57.5 -285.5t-179.5 -185.5t-317 -65zM704 1469q-85 0 -150.5 31.5t-103.5 90.5t-41 140h123q5 -51 31.5 -82.5t64 -45t76.5 -13.5
q40 0 77.5 14t64.5 45.5t34 81.5h124q-5 -80 -44.5 -139t-104.5 -91t-151 -32z" />
    <glyph glyph-name="ubreve" unicode="&#x16d;" horiz-adv-x="1167" 
d="M457 -14q-159 0 -237 93t-78 260v636h216v-609q0 -58 15 -103t53 -70.5t105 -25.5q94 0 159.5 40.5t109.5 96.5v671h216v-975h-209l-4 149q-48 -61 -133 -112t-213 -51zM578 1112q-125 0 -196 70.5t-83 193.5h122q9 -78 55.5 -108t101.5 -30q58 0 108 31t59 107h111
q-11 -122 -82 -193t-196 -71z" />
    <glyph glyph-name="Uring" unicode="&#x16e;" horiz-adv-x="1410" 
d="M705 -18q-194 0 -316.5 65t-179.5 185.5t-57 285.5v828h235v-814q0 -188 79.5 -273t239.5 -85t238.5 85t78.5 273v814h236v-828q0 -165 -57.5 -285.5t-179.5 -185.5t-317 -65zM706 1379q-92 0 -151.5 55.5t-59.5 147.5q0 90 59.5 145.5t151.5 55.5t151.5 -55.5
t59.5 -145.5q0 -92 -59.5 -147.5t-151.5 -55.5zM706 1483q43 0 69.5 28t26.5 71t-26.5 70.5t-69.5 27.5q-42 0 -69 -27.5t-27 -70.5t27 -71t69 -28z" />
    <glyph glyph-name="uring" unicode="&#x16f;" horiz-adv-x="1167" 
d="M457 -14q-159 0 -237 93t-78 260v636h216v-609q0 -58 15 -103t53 -70.5t105 -25.5q94 0 159.5 40.5t109.5 96.5v671h216v-975h-209l-4 149q-48 -61 -133 -112t-213 -51zM579 1079q-92 0 -151.5 55.5t-59.5 147.5q0 90 59.5 145.5t151.5 55.5t151.5 -55.5t59.5 -145.5
q0 -92 -59.5 -147.5t-151.5 -55.5zM579 1183q43 0 69.5 28t26.5 71t-26.5 70.5t-69.5 27.5q-42 0 -69 -27.5t-27 -70.5t27 -71t69 -28z" />
    <glyph glyph-name="Uhungarumlaut" unicode="&#x170;" horiz-adv-x="1410" 
d="M705 -18q-194 0 -316.5 65t-179.5 185.5t-57 285.5v828h235v-814q0 -188 79.5 -273t239.5 -85t238.5 85t78.5 273v814h236v-828q0 -165 -57.5 -285.5t-179.5 -185.5t-317 -65zM741 1458l181 273h195l-234 -273h-142zM438 1458l179 273h196l-235 -273h-140z" />
    <glyph glyph-name="uhungarumlaut" unicode="&#x171;" horiz-adv-x="1167" 
d="M457 -14q-159 0 -237 93t-78 260v636h216v-609q0 -58 15 -103t53 -70.5t105 -25.5q94 0 159.5 40.5t109.5 96.5v671h216v-975h-209l-4 149q-48 -61 -133 -112t-213 -51zM614 1108l181 273h195l-234 -273h-142zM311 1108l179 273h196l-235 -273h-140z" />
    <glyph glyph-name="Uogonek" unicode="&#x172;" horiz-adv-x="1410" 
d="M705 -18q-194 0 -316.5 65t-179.5 185.5t-57 285.5v828h235v-814q0 -188 79.5 -273t239.5 -85t238.5 85t78.5 273v814h236v-828q0 -165 -57.5 -285.5t-179.5 -185.5t-317 -65zM845 -373q-82 0 -138.5 44.5t-56.5 123.5q0 51 31 100.5t85 87t120 52.5l78 -22
q-80 -46 -113.5 -95t-33.5 -87q0 -31 18 -48.5t50 -17.5t62.5 8.5t64.5 22.5v-130q-32 -18 -69.5 -28.5t-97.5 -10.5z" />
    <glyph glyph-name="uogonek" unicode="&#x173;" horiz-adv-x="1167" 
d="M457 -14q-159 0 -237 93t-78 260v636h216v-609q0 -58 15 -103t53 -70.5t105 -25.5q94 0 159.5 40.5t109.5 96.5v671h216v-975h-209l-4 149q-48 -61 -133 -112t-213 -51zM842 -373q-82 0 -138.5 44.5t-56.5 123.5q0 51 31 100.5t85 87t120 52.5l78 -22q-80 -46 -113.5 -95
t-33.5 -87q0 -31 18 -48.5t50 -17.5t62.5 8.5t64.5 22.5v-130q-32 -18 -69.5 -28.5t-97.5 -10.5z" />
    <glyph glyph-name="Wcircumflex" unicode="&#x174;" horiz-adv-x="1877" 
d="M401 0l-396 1346h239l280 -1067l296 1067h241l296 -1067l281 1067h234l-398 -1346h-240l-297 1072l-294 -1072h-242zM625 1458l214 274h204l213 -274h-169l-146 160l-148 -160h-168z" />
    <glyph glyph-name="wcircumflex" unicode="&#x175;" horiz-adv-x="1518" 
d="M317 0l-310 975h222l209 -738l211 738h232l214 -737l207 737h208l-309 -975h-224l-218 747l-218 -747h-224zM451 1108l213 273h204l214 -273h-169l-147 160l-147 -160h-168z" />
    <glyph glyph-name="Ycircumflex" unicode="&#x176;" horiz-adv-x="1152" 
d="M458 0v519l-458 827h255l322 -617l320 617h255l-459 -827v-519h-235zM261 1458l214 274h204l213 -274h-169l-146 160l-148 -160h-168z" />
    <glyph glyph-name="ycircumflex" unicode="&#x177;" horiz-adv-x="968" 
d="M109 -358v177h86q58 0 97 25.5t63 84.5l29 71l-384 975h226l274 -759l249 759h219l-358 -975l-41 -107q-36 -96 -80 -150.5t-108.5 -77.5t-161.5 -23h-110zM174 1108l213 273h204l214 -273h-169l-147 160l-147 -160h-168z" />
    <glyph glyph-name="Ydieresis" unicode="&#x178;" horiz-adv-x="1152" 
d="M458 0v519l-458 827h255l322 -617l320 617h255l-459 -827v-519h-235zM761 1486q-45 0 -76 29t-31 74q0 46 31 75.5t76 29.5q46 0 76.5 -29.5t30.5 -75.5q0 -45 -30.5 -74t-76.5 -29zM394 1486q-46 0 -77 29t-31 74q0 46 31 75.5t77 29.5q44 0 75 -29.5t31 -75.5
q0 -45 -31 -74t-75 -29z" />
    <glyph glyph-name="Zacute" unicode="&#x179;" horiz-adv-x="1089" 
d="M44 0v182l679 971h-631v193h911v-173l-686 -980h728v-193h-1001zM442 1458l190 273h239l-266 -273h-163z" />
    <glyph glyph-name="zacute" unicode="&#x17a;" horiz-adv-x="925" 
d="M71 0v160l497 645h-456v170h712v-152l-500 -653h531v-170h-784zM350 1108l200 273h240l-277 -273h-163z" />
    <glyph glyph-name="Zdotaccent" unicode="&#x17b;" horiz-adv-x="1089" 
d="M44 0v182l679 971h-631v193h911v-173l-686 -980h728v-193h-1001zM548 1477q-60 0 -93.5 32t-33.5 80q0 50 33.5 82t93.5 32t93.5 -32t33.5 -82q0 -48 -33.5 -80t-93.5 -32z" />
    <glyph glyph-name="zdotaccent" unicode="&#x17c;" horiz-adv-x="925" 
d="M71 0v160l497 645h-456v170h712v-152l-500 -653h531v-170h-784zM468 1131q-60 0 -93.5 32t-33.5 80q0 50 33.5 82t93.5 32t93.5 -32t33.5 -82q0 -48 -33.5 -80t-93.5 -32z" />
    <glyph glyph-name="Zcaron" unicode="&#x17d;" horiz-adv-x="1089" 
d="M44 0v182l679 971h-631v193h911v-173l-686 -980h728v-193h-1001zM446 1458l-214 274h168l147 -160l147 160h169l-213 -274h-204z" />
    <glyph glyph-name="zcaron" unicode="&#x17e;" horiz-adv-x="925" 
d="M71 0v160l497 645h-456v170h712v-152l-500 -653h531v-170h-784zM366 1108l-214 273h168l148 -160l146 160h169l-213 -273h-204z" />
    <glyph glyph-name="longs" unicode="&#x17f;" horiz-adv-x="591" 
d="M190 0v804h-163v171h163v43q0 109 27 182t99 109.5t206 36.5h100v-162h-89q-83 0 -105.5 -41.5t-22.5 -125.5v-1017h-215z" />
    <glyph glyph-name="uni0181" unicode="&#x181;" horiz-adv-x="1473" 
d="M389 0v1158q-90 -2 -134.5 -41t-44.5 -123v-65h-192v88q0 174 101.5 251.5t269.5 77.5h446q210 0 334.5 -82t124.5 -252q0 -107 -56.5 -185.5t-150.5 -107.5q140 -25 218.5 -112.5t78.5 -215.5t-58 -215.5t-170 -131.5t-274 -44h-493zM619 192h256q76 0 139 19
t100.5 66.5t37.5 131.5q0 102 -75.5 150t-201.5 48h-256v-415zM619 787h213q105 0 167.5 51t62.5 142q0 63 -28.5 102t-80 57.5t-121.5 18.5h-213v-371z" />
    <glyph glyph-name="uni0186" unicode="&#x186;" horiz-adv-x="1433" 
d="M680 -18q-163 0 -289.5 55t-202.5 164.5t-91 270.5h236q14 -146 105 -222.5t242 -76.5q148 0 238 68t131.5 181.5t41.5 249.5q0 137 -41.5 250.5t-131.5 182t-238 68.5q-86 0 -160 -29.5t-123 -89t-61 -151.5h-234q11 154 93 256.5t210 153.5t275 51q207 0 352 -87
t221 -242.5t76 -362.5t-76 -362t-221 -241.5t-352 -86.5z" />
    <glyph glyph-name="uni0189" unicode="&#x189;" horiz-adv-x="1426" 
d="M0 589v185h732v-185h-732zM169 0v1346h477q213 0 364 -79.5t231 -230t80 -361.5q0 -216 -80.5 -366.5t-231.5 -229.5t-363 -79h-477zM399 193h211q161 0 265.5 52.5t156.5 159.5t52 271q0 160 -54 266t-159.5 158.5t-260.5 52.5h-211v-960z" />
    <glyph glyph-name="uni018A" unicode="&#x18a;" horiz-adv-x="1646" 
d="M389 0v1158q-90 -2 -134.5 -41t-44.5 -123v-65h-192v88q0 174 101.5 251.5t269.5 77.5h477q213 0 364 -79.5t231 -230t80 -361.5q0 -216 -80.5 -366.5t-231.5 -229.5t-363 -79h-477zM619 193h212q240 0 356.5 118.5t116.5 364.5q0 239 -121 358t-352 119h-212v-960z" />
    <glyph glyph-name="uni018E" unicode="&#x18e;" horiz-adv-x="1157" 
d="M107 0v192h651v405h-594v186h594v371h-651v192h881v-1346h-881z" />
    <glyph glyph-name="uni018F" unicode="&#x18f;" horiz-adv-x="1475" 
d="M739 -18q-137 0 -251.5 39t-199 125t-132.5 225t-52 338l254 -165q9 -135 62.5 -216.5t137 -118.5t181.5 -37q140 0 226.5 65t126.5 178t40 259t-39.5 258t-126 176t-227.5 64q-171 0 -271 -67.5t-120 -202.5h-235q20 153 104 255.5t219.5 154.5t309.5 52
q202 0 341 -85.5t211 -240.5t72 -364q0 -207 -73.5 -362.5t-214.5 -242.5t-343 -87zM205 529l-101 180h1129v-180h-1028z" />
    <glyph glyph-name="uni0190" unicode="&#x190;" horiz-adv-x="1186" 
d="M599 -17q-154 0 -269 46.5t-178 137t-63 222.5q0 136 85.5 219.5t213.5 107.5q-119 30 -191 106t-72 194q0 119 64 196t170.5 115t232.5 38q140 0 248 -45.5t169.5 -134t61.5 -217.5h-225q2 97 -65 155t-190 58q-110 0 -176 -46t-66 -138t66.5 -145.5t183.5 -53.5h119
v-183h-113q-126 0 -202.5 -51.5t-76.5 -162.5q0 -121 71.5 -177.5t202.5 -56.5q135 0 208.5 65.5t73.5 178.5h226q0 -142 -61.5 -237t-175.5 -143t-272 -48z" />
    <glyph glyph-name="uni0191" unicode="&#x191;" horiz-adv-x="1086" 
d="M7 -358v196h46q65 0 90.5 40t25.5 112v1356h859v-192h-629v-372h566v-185h-566v-609q0 -177 -78 -261.5t-250 -84.5h-64z" />
    <glyph glyph-name="florin" unicode="&#x192;" horiz-adv-x="652" 
d="M0 -358v173h51q69 0 103.5 31.5t34.5 108.5l1 850h-163v170h163v43q0 109 27 182t99 109.5t206 36.5h100v-162h-89q-83 0 -105.5 -41.5t-22.5 -125.5v-42h218v-170h-218l-1 -853q0 -150 -77 -230t-247 -80h-80z" />
    <glyph glyph-name="uni0194" unicode="&#x194;" horiz-adv-x="1122" 
d="M563 -16q-91 0 -154 32t-95.5 90t-32.5 136q0 72 25.5 140.5t73.5 147t114 180.5l38 59l13 6l318 571h254l-493 -797q-30 -50 -61.5 -104.5t-53 -106t-21.5 -93.5q0 -45 19.5 -72t55.5 -27q32 0 53 27.5t21 73.5q0 61 -42 140t-94 163l-496 796h262l313 -567l17 -12
l39 -60q66 -102 113 -181.5t71 -147t24 -136.5q0 -77 -32.5 -135t-94.5 -90.5t-154 -32.5z" />
    <glyph glyph-name="uni0198" unicode="&#x198;" horiz-adv-x="1220" 
d="M169 0v1346h230v-645l244 11l572 -712h-265l-551 690v-690h-230zM1167 1346v-197h-38q-56 0 -100 -15.5t-89 -55.5t-103 -114l-194 -252l-244 -11l270 360q78 104 141.5 166.5t133.5 90.5t168 28h55z" />
    <glyph glyph-name="uni0199" unicode="&#x199;" horiz-adv-x="1045" 
d="M151 0v1021l217 8v-508l410 454h242l-416 -452l450 -523h-249l-437 511v-511h-217zM151 1021q0 158 71 241.5t226 83.5h100v-173h-51q-65 0 -98 -34.5t-31 -109.5z" />
    <glyph glyph-name="Ohorn" unicode="&#x1a0;" horiz-adv-x="1605" 
d="M1327 978l-35 93q79 27 129 68t58 103l12 -9q-59 0 -96 36t-37 89q0 58 38 93t100 35q65 0 106 -41.5t41 -124.5q0 -69 -25.5 -126t-70 -100t-101.5 -72.5t-119 -43.5zM753 -18q-212 0 -356.5 86.5t-218.5 241.5t-74 362t74 362.5t218.5 242.5t356.5 87q211 0 354.5 -87
t218 -242.5t74.5 -362.5t-74.5 -362t-218 -241.5t-354.5 -86.5zM753 172q146 0 236 68t132 181.5t42 250.5q0 139 -42 252.5t-132 181t-236 67.5q-147 0 -238 -67.5t-132 -181t-41 -252.5q0 -137 41 -250.5t132 -181.5t238 -68z" />
    <glyph glyph-name="ohorn" unicode="&#x1a1;" horiz-adv-x="1187" 
d="M937 701l-34 94q75 26 121.5 67.5t54.5 103.5l12 -10q-58 0 -95.5 36t-37.5 90q0 57 37 92t96 35q64 0 103 -41t39 -124q0 -92 -41 -162t-108.5 -115.5t-146.5 -65.5zM572 -16q-145 0 -251.5 59.5t-164 172t-57.5 269.5q0 160 57.5 274t164 174t251.5 60q149 0 256.5 -60
t166 -174t58.5 -274q0 -157 -58.5 -269.5t-166 -172t-256.5 -59.5zM572 152q98 0 155 44t81 119.5t24 169.5q0 96 -24 173t-81 121.5t-155 44.5q-94 0 -149 -44.5t-79 -121.5t-24 -173q0 -94 24 -169.5t79 -119.5t149 -44z" />
    <glyph glyph-name="Uhorn" unicode="&#x1af;" horiz-adv-x="1600" 
d="M1248 978l-34 93q111 27 181 68t82 103l12 -9q-58 0 -95.5 36t-37.5 89q0 58 39 93t99 35q67 0 107 -41.5t40 -124.5q0 -69 -31.5 -126t-86 -100t-125.5 -72.5t-150 -43.5zM705 -18q-194 0 -316.5 65t-179.5 185.5t-57 285.5v828h235v-814q0 -188 79.5 -273t239.5 -85
t238.5 85t78.5 273v814h236v-828q0 -165 -57.5 -285.5t-179.5 -185.5t-317 -65z" />
    <glyph glyph-name="uhorn" unicode="&#x1b0;" horiz-adv-x="1288" 
d="M998 679l-13 106q91 28 143.5 71t62.5 110l11 -10q-57 0 -94.5 36t-37.5 90q0 57 37 92t95 35q64 0 103.5 -41t39.5 -124q0 -71 -26 -130t-73 -105t-110.5 -78t-137.5 -52zM457 -14q-159 0 -237 93t-78 260v636h216v-609q0 -58 15 -103t53 -70.5t105 -25.5
q94 0 159.5 40.5t109.5 96.5v671h216v-975h-209l-4 149q-48 -61 -133 -112t-213 -51z" />
    <glyph glyph-name="uni01B2" unicode="&#x1b2;" horiz-adv-x="1410" 
d="M705 -17q-194 0 -316.5 66.5t-179.5 186.5t-57 282v828h235v-814q0 -183 79.5 -270t239.5 -87t238.5 87t78.5 270v373l236 4v-391q0 -162 -57.5 -282t-179.5 -186.5t-317 -66.5zM1023 905q0 134 -46.5 191.5t-158.5 57.5h-56v197h73q222 0 323 -106.5t101 -335.5z" />
    <glyph glyph-name="uni01B3" unicode="&#x1b3;" horiz-adv-x="1173" 
d="M458 0v519l-458 827h258l319 -621l116 -206v-519h-235zM693 519l-187 53l213 490q50 114 101 175.5t116 85t155 23.5h64v-197h-38q-52 0 -90.5 -16t-72.5 -61t-73 -132z" />
    <glyph glyph-name="uni01B4" unicode="&#x1b4;" horiz-adv-x="1177" 
d="M119 -358v177h85q57 0 92 25.5t59 84.5l29 71l-384 975h226l274 -747l283 848q32 97 76.5 150t107.5 74t151 21h59v-177h-35q-56 0 -93.5 -26.5t-64.5 -98.5l-408 -1136q-34 -91 -77.5 -143.5t-108 -75t-162.5 -22.5h-109z" />
    <glyph glyph-name="uni01B7" unicode="&#x1b7;" horiz-adv-x="1175" 
d="M583 -17q-157 0 -270 48t-174 143t-61 237h225q0 -113 73 -178.5t206 -65.5q127 0 197 61t70 193q0 122 -90 178.5t-241 56.5h-142v166l185 -7q153 0 271.5 -43t186 -130.5t67.5 -223.5q0 -141 -62.5 -238t-175 -147t-265.5 -50zM532 737l-156 85l373 331h-592v193h858
v-184z" />
    <glyph glyph-name="uni01DD" unicode="&#x1dd;" horiz-adv-x="1109" 
d="M531 993q160 0 266.5 -63.5t159.5 -178t53 -265.5q0 -152 -51.5 -264.5t-154 -175t-256.5 -62.5q-208 0 -328 124t-120 354q0 14 1.5 34.5t3.5 29.5h689q-1 83 -27.5 152.5t-84.5 111.5t-151 42q-100 0 -157 -44.5t-60 -131.5h-213q5 108 58.5 183.5t148 114.5t223.5 39z
M792 381h-477q3 -118 65.5 -179.5t167.5 -61.5q108 0 171.5 62t72.5 179z" />
    <glyph glyph-name="Gcaron" unicode="&#x1e6;" horiz-adv-x="1461" 
d="M757 -18q-209 0 -355 86.5t-222 241.5t-76 362q0 208 76 363.5t222 242t355 86.5q103 0 200.5 -26.5t178 -81.5t132 -139.5t62.5 -198.5h-234q-9 71 -51.5 129t-116 92t-175.5 34q-147 0 -238.5 -68t-133.5 -181.5t-42 -251.5q0 -137 42 -250.5t134 -180.5t242 -67
q120 0 200.5 42t122.5 118t46 175h-356v186h585v-120q0 -176 -68 -309.5t-201 -208.5t-329 -75zM651 1458l-214 274h168l147 -160l147 160h169l-213 -274h-204z" />
    <glyph glyph-name="gcaron" unicode="&#x1e7;" horiz-adv-x="1020" 
d="M513 -377q-166 0 -265 36t-142.5 95.5t-43.5 127.5q0 84 76 148.5t237 90.5l37 75h128q242 0 349 -65.5t107 -201.5t-123 -221t-360 -85zM509 -233q152 0 214.5 41t62.5 102q0 37 -21.5 63.5t-75 41t-149.5 14.5h-162q-54 -16 -84.5 -50.5t-30.5 -79.5q0 -51 57.5 -91.5
t188.5 -40.5zM375 39q-100 11 -159.5 41t-86 68.5t-26.5 74.5q0 56 43 98.5t135 72.5l110 -51q-53 -13 -86.5 -34t-33.5 -49q0 -20 20 -34t69 -22t136 -8zM498 313q-126 0 -214.5 46.5t-134 123t-45.5 165.5q0 93 46 169.5t135.5 122t218.5 45.5q132 0 219 -45.5t130.5 -122
t43.5 -169.5q0 -91 -44.5 -167.5t-132.5 -122t-222 -45.5zM497 449q86 0 142 50.5t56 148.5q0 102 -53 152t-138 50t-140.5 -51.5t-55.5 -150.5t57.5 -149t131.5 -50zM764 857l-72 82q40 99 116 135t188 37v-167q-74 0 -135.5 -14.5t-96.5 -72.5zM410 1108l-214 273h168
l148 -160l146 160h169l-213 -273h-204z" />
    <glyph glyph-name="uni01EA" unicode="&#x1ea;" horiz-adv-x="1505" 
d="M753 -18q-212 0 -356.5 86.5t-218.5 241.5t-74 362t74 362.5t218.5 242.5t356.5 87q211 0 354.5 -87t218 -242.5t74.5 -362.5t-74.5 -362t-218 -241.5t-354.5 -86.5zM753 172q146 0 236 68t132 181.5t42 250.5q0 139 -42 252.5t-132 181t-236 67.5q-147 0 -238 -67.5
t-132 -181t-41 -252.5q0 -137 41 -250.5t132 -181.5t238 -68zM862 -373q-82 0 -138.5 44.5t-56.5 123.5q0 51 31 100.5t85 87t120 52.5l78 -22q-80 -46 -113.5 -95t-33.5 -87q0 -31 18 -48.5t50 -17.5t62.5 8.5t64.5 22.5v-130q-32 -18 -69.5 -28.5t-97.5 -10.5z" />
    <glyph glyph-name="uni01EB" unicode="&#x1eb;" horiz-adv-x="1152" 
d="M572 -16q-145 0 -251.5 59.5t-164 172t-57.5 269.5q0 160 57.5 274t164 174t251.5 60q149 0 256.5 -60t166 -174t58.5 -274q0 -157 -58.5 -269.5t-166 -172t-256.5 -59.5zM572 152q98 0 155 44t81 119.5t24 169.5q0 96 -24 173t-81 121.5t-155 44.5q-94 0 -149 -44.5
t-79 -121.5t-24 -173q0 -94 24 -169.5t79 -119.5t149 -44zM640 -373q-82 0 -138.5 44.5t-56.5 123.5q0 51 31 100.5t85 87t120 52.5l78 -22q-80 -46 -113.5 -95t-33.5 -87q0 -31 18 -48.5t50 -17.5t62.5 8.5t64.5 22.5v-130q-32 -18 -69.5 -28.5t-97.5 -10.5z" />
    <glyph glyph-name="uni01F8" unicode="&#x1f8;" horiz-adv-x="1463" 
d="M169 0v1346h229l679 -989v989h217v-1346h-229l-680 993v-993h-216zM688 1458l-266 273h238l191 -273h-163z" />
    <glyph glyph-name="uni01F9" unicode="&#x1f9;" horiz-adv-x="1157" 
d="M151 0v975h208l5 -148q48 61 130 111.5t211 50.5q155 0 232.5 -92.5t77.5 -264.5v-632h-216v603q0 62 -15 109.5t-50.5 74t-97.5 26.5q-94 0 -159.5 -43.5t-108.5 -98.5v-671h-217zM543 1108l-276 273h238l200 -273h-162z" />
    <glyph glyph-name="Aringacute" unicode="&#x1fa;" horiz-adv-x="1239" 
d="M5 0l495 1346h242l491 -1346h-239l-112 336h-522l-117 -336h-238zM418 529h404l-202 589zM618 1379q-92 0 -151.5 55.5t-59.5 147.5q0 90 59.5 145.5t151.5 55.5t151.5 -55.5t59.5 -145.5q0 -92 -59.5 -147.5t-151.5 -55.5zM618 1483q43 0 69.5 28t26.5 71t-26.5 70.5
t-69.5 27.5q-42 0 -69 -27.5t-27 -70.5t27 -71t69 -28zM470 1684l190 273h239l-266 -273h-163z" />
    <glyph glyph-name="aringacute" unicode="&#x1fb;" horiz-adv-x="1109" 
d="M410 -17q-84 0 -154.5 31.5t-113.5 95t-43 158.5q0 133 81.5 201t229 93t345.5 28v60q0 109 -54 150t-137 41q-90 0 -150 -44t-60 -141h-205q0 122 52.5 195.5t146 106.5t216.5 33q83 0 156 -15t128.5 -52.5t87 -103t31.5 -167.5v-653h-202l-8 137q-64 -72 -149.5 -113
t-197.5 -41zM475 137q88 0 160 43t118 105v177q-238 -1 -338 -44t-100 -139q0 -68 42.5 -105t117.5 -37zM572 1079q-92 0 -151.5 55.5t-59.5 147.5q0 90 59.5 145.5t151.5 55.5t151.5 -55.5t59.5 -145.5q0 -92 -59.5 -147.5t-151.5 -55.5zM572 1183q43 0 69.5 28t26.5 71
t-26.5 70.5t-69.5 27.5q-42 0 -69 -27.5t-27 -70.5t27 -71t69 -28zM422 1385l200 273h240l-277 -273h-163z" />
    <glyph glyph-name="AEacute" unicode="&#x1fc;" horiz-adv-x="1939" 
d="M-36 0l850 1346h195l6 -222h-109l-414 -674v-14l-265 -436h-263zM383 336v193h692v-193h-692zM951 0v1346h881v-192h-651v-371h595v-186h-595v-405h651v-192h-881zM1029 1458l190 273h239l-266 -273h-163z" />
    <glyph glyph-name="aeacute" unicode="&#x1fd;" horiz-adv-x="1757" 
d="M1227 -18q-161 0 -267.5 63.5t-159.5 178t-53 265.5q0 152 51.5 264.5t154.5 175t257 62.5q208 0 327.5 -124t119.5 -354q0 -14 -1 -34.5t-3 -29.5h-689q1 -83 27.5 -152.5t84 -111.5t151.5 -42q99 0 156.5 44.5t59.5 131.5h213q-4 -108 -58 -183.5t-148.5 -114.5
t-222.5 -39zM441 -18q-160 0 -251 75.5t-91 208.5q0 132 79.5 200t225.5 93.5t343 27.5v68q0 70 -24.5 110t-66 57t-91.5 17q-90 0 -150.5 -43t-60.5 -139h-205q0 173 110.5 253.5t304.5 80.5q88 0 159.5 -21.5t119.5 -70t62 -129.5l-102 -308q-181 1 -288 -17t-153.5 -57.5
t-46.5 -102.5q0 -69 41.5 -108.5t120.5 -39.5q62 0 120 23.5t108.5 71t86.5 117.5l87 -78q-30 -83 -92.5 -148.5t-150.5 -103t-195 -37.5zM966 594h477q-3 118 -66 179.5t-167 61.5q-109 0 -172.5 -62t-71.5 -179zM758 1108l200 273h240l-277 -273h-163z" />
    <glyph glyph-name="Oslashacute" unicode="&#x1fe;" horiz-adv-x="1505" 
d="M217 -71l-113 96l1184 1391l112 -95zM753 -18q-212 0 -356.5 86.5t-218.5 241.5t-74 362t74 362.5t218.5 242.5t356.5 87q211 0 354.5 -87t218 -242.5t74.5 -362.5t-74.5 -362t-218 -241.5t-354.5 -86.5zM753 169q148 0 238.5 68t132 182.5t41.5 252.5q0 140 -41.5 254
t-132 182.5t-238.5 68.5t-240 -68.5t-133.5 -182.5t-41.5 -254q0 -138 41.5 -252.5t133.5 -182.5t240 -68zM647 1458l190 273h239l-266 -273h-163z" />
    <glyph glyph-name="oslashacute" unicode="&#x1ff;" horiz-adv-x="1152" 
d="M182 -82l-94 82l883 1050l93 -81zM572 -17q-145 0 -251.5 59.5t-164 172t-57.5 269.5q0 159 57.5 272.5t164 173.5t251.5 60q149 0 256.5 -60t166 -173.5t58.5 -272.5q0 -157 -58.5 -269.5t-166 -172t-256.5 -59.5zM572 144q98 0 156.5 45t84 122.5t25.5 172.5
q0 97 -25.5 175t-84 123.5t-156.5 45.5q-95 0 -151.5 -45.5t-81.5 -123.5t-25 -175q0 -95 25 -172.5t81.5 -122.5t151.5 -45zM458 1108l200 273h240l-277 -273h-163z" />
    <glyph glyph-name="uni0218" unicode="&#x218;" horiz-adv-x="1192" 
d="M604 -18q-149 0 -268.5 44t-189.5 138t-70 246h234q2 -92 42 -145t107.5 -75t149.5 -22q78 0 140.5 21t99 65t36.5 111q0 62 -30 102t-101 70.5t-195 64.5q-145 39 -245 87t-151.5 121.5t-51.5 188.5q0 123 59 203.5t165 120.5t248 40q135 0 246.5 -41.5t178.5 -126.5
t67 -214h-234q1 100 -74.5 150.5t-183.5 50.5q-109 0 -174.5 -42.5t-65.5 -127.5q0 -49 28 -84.5t100 -65.5t203 -67q154 -43 252 -92t145 -125.5t47 -201.5q0 -136 -68 -223t-184 -129t-262 -42zM503 -398l-20 71q40 11 71.5 33t41.5 51q-49 3 -75.5 29t-26.5 65
q0 37 28.5 63.5t81.5 26.5q52 0 85 -30.5t33 -88.5q0 -87 -64.5 -146.5t-154.5 -73.5z" />
    <glyph glyph-name="uni0219" unicode="&#x219;" horiz-adv-x="1026" 
d="M520 -18q-82 0 -157.5 16.5t-135 54.5t-94 101t-34.5 155h204q0 -98 64 -137t155 -39q86 0 138 30.5t52 101.5q0 63 -53 94t-185 61q-109 27 -188.5 62t-122 92.5t-42.5 147.5q0 70 31.5 121t85.5 84t124 49t148 16q75 0 145 -16.5t125 -53.5t87 -97t32 -147h-203
q0 89 -55 125.5t-131 36.5q-80 0 -127.5 -26t-47.5 -84q0 -33 25 -56.5t81.5 -43t151.5 -41.5q102 -24 177 -59.5t115.5 -93t40.5 -149.5q0 -82 -32.5 -140t-88.5 -94.5t-129.5 -53.5t-155.5 -17zM426 -398l-20 71q40 11 71.5 33t41.5 51q-49 3 -75.5 29t-26.5 65
q0 37 28.5 63.5t81.5 26.5q52 0 85 -30.5t33 -88.5q0 -87 -64.5 -146.5t-154.5 -73.5z" />
    <glyph glyph-name="uni021A" unicode="&#x21a;" horiz-adv-x="1007" 
d="M389 0v1153h-371v193h971v-193h-369v-1153h-231zM407 -398l-20 71q40 11 71.5 33t41.5 51q-49 3 -75.5 29t-26.5 65q0 37 28.5 63.5t81.5 26.5q52 0 85 -30.5t33 -88.5q0 -87 -64.5 -146.5t-154.5 -73.5z" />
    <glyph glyph-name="uni021B" unicode="&#x21b;" horiz-adv-x="695" 
d="M522 0q-133 0 -205 36.5t-99.5 109t-27.5 181.5v478h-163v170h163v227h215v-227h227v-170h-227v-465q0 -84 22.5 -127t105.5 -43h99v-170h-110zM311 -398l-20 71q40 11 71.5 33t41.5 51q-49 3 -75.5 29t-26.5 65q0 37 28.5 63.5t81.5 26.5q52 0 85 -30.5t33 -88.5
q0 -87 -64.5 -146.5t-154.5 -73.5z" />
    <glyph glyph-name="uni0232" unicode="&#x232;" horiz-adv-x="1152" 
d="M458 0v519l-458 827h255l322 -617l320 617h255l-459 -827v-519h-235zM300 1510v142h555v-142h-555z" />
    <glyph glyph-name="uni0233" unicode="&#x233;" horiz-adv-x="968" 
d="M109 -358v177h86q58 0 97 25.5t63 84.5l29 71l-384 975h226l274 -759l249 759h219l-358 -975l-41 -107q-36 -96 -80 -150.5t-108.5 -77.5t-161.5 -23h-110zM211 1164v142h555v-142h-555z" />
    <glyph glyph-name="uni0237" unicode="&#x237;" horiz-adv-x="519" 
d="M-36 -358v173h50q69 0 103.5 32.5t34.5 107.5v1020h216v-1003q0 -160 -77.5 -245t-246.5 -85h-80z" />
    <glyph glyph-name="uni0253" unicode="&#x253;" horiz-adv-x="1175" 
d="M666 -18q-108 0 -180.5 41.5t-120.5 113.5l-10 -137h-204v1023l217 9v-205q51 74 129.5 119.5t189.5 45.5q116 0 203.5 -56t136.5 -167.5t49 -281.5q0 -169 -52.5 -281.5t-145 -168t-212.5 -55.5zM617 152q115 0 176 86t61 246q0 168 -57.5 254t-164.5 86q-94 0 -161 -52
t-103 -125v-331q34 -68 96.5 -116t152.5 -48zM151 1023q0 171 73 247t233 76h99v-173h-51q-68 0 -102.5 -33t-34.5 -108z" />
    <glyph glyph-name="uni0254" unicode="&#x254;" horiz-adv-x="1100" 
d="M531 -19q-121 0 -218 42t-154 124.5t-60 204.5h211q3 -98 62 -149.5t157 -51.5q129 0 191 86.5t62 245.5q0 162 -62 251.5t-191 89.5q-96 0 -150.5 -49.5t-59.5 -134.5h-212q3 119 59.5 197.5t151.5 117.5t213 39q140 0 245.5 -56t165 -169.5t59.5 -285.5
q0 -171 -61.5 -282.5t-167.5 -165.5t-241 -54z" />
    <glyph glyph-name="uni0256" unicode="&#x256;" horiz-adv-x="1174" 
d="M486 -17q-114 0 -201.5 56t-136.5 169.5t-49 283.5q0 168 52.5 278.5t145 166t213.5 55.5q102 0 177 -44t120 -117v515h216v-1340l-215 6l-1 128q-52 -71 -131 -114t-190 -43zM1105 -310q-156 0 -226.5 82.5t-70.5 239.5l215 -6q-2 -75 31.5 -109t99.5 -34h51v-173h-100z
M542 152q96 0 162 48.5t103 115.5v331q-35 73 -96.5 124.5t-152.5 51.5q-116 0 -177 -85.5t-61 -244.5q0 -170 57.5 -255.5t164.5 -85.5z" />
    <glyph glyph-name="uni0257" unicode="&#x257;" horiz-adv-x="1211" 
d="M486 -17q-114 0 -201.5 56t-136.5 169.5t-49 283.5q0 168 52.5 278.5t145 166t213.5 55.5q102 0 177 -44t120 -117l1 190l216 8l-1 -1029h-205l-11 140q-52 -71 -131 -114t-190 -43zM542 152q96 0 162 48.5t103 115.5v331q-35 73 -96.5 124.5t-152.5 51.5
q-116 0 -177 -85.5t-61 -244.5q0 -170 57.5 -255.5t164.5 -85.5zM808 1021q0 158 72 241.5t231 83.5h100v-173h-51q-69 0 -103 -34.5t-33 -109.5z" />
    <glyph glyph-name="uni0259" unicode="&#x259;" horiz-adv-x="1109" 
d="M531 993q160 0 266.5 -63.5t159.5 -178t53 -265.5q0 -152 -51.5 -264.5t-154 -175t-256.5 -62.5q-208 0 -328 124t-120 354q0 14 1.5 34.5t3.5 29.5h689q-1 83 -27.5 152.5t-84.5 111.5t-151 42q-100 0 -157 -44.5t-60 -131.5h-213q5 108 58.5 183.5t148 114.5t223.5 39z
M792 381h-477q3 -118 65.5 -179.5t167.5 -61.5q108 0 171.5 62t72.5 179z" />
    <glyph glyph-name="uni025B" unicode="&#x25b;" horiz-adv-x="1043" 
d="M518 -16q-209 0 -319.5 74t-110.5 209q0 103 61.5 161t181.5 84q-111 25 -155.5 87t-44.5 131q0 62 36 121.5t120.5 98.5t230.5 39q185 0 292.5 -72.5t113.5 -218.5h-202q-1 59 -57 97.5t-147 38.5q-98 0 -141 -34t-43 -86q0 -60 57 -93.5t142 -33.5h107v-156h-83
q-133 0 -195.5 -36t-62.5 -108q0 -76 60.5 -109.5t160.5 -33.5q117 0 183.5 41.5t70.5 130.5h202q-6 -107 -58.5 -181.5t-152 -112.5t-247.5 -38z" />
    <glyph glyph-name="uni0263" unicode="&#x263;" horiz-adv-x="1008" 
d="M404 229l-404 746h226l279 -549l283 549h220l-401 -746h-203zM502 -204q38 0 55 27t17 72q0 41 -17 100t-55 114q-35 -55 -50 -114t-15 -100q0 -45 15 -72t50 -27zM502 -358q-124 0 -190 66.5t-66 180.5q0 65 30.5 151t88.5 182t140 191q86 -95 144 -190t87.5 -181
t29.5 -153q0 -114 -68 -180.5t-196 -66.5z" />
    <glyph glyph-name="uni0283" unicode="&#x283;" horiz-adv-x="564" 
d="M-5 -331v170h53q83 0 104.5 41t21.5 118v1020q0 109 28 181.5t100 109t206 36.5h62v-171h-53q-83 0 -105 -42t-22 -126v-1008q0 -110 -27.5 -183t-99.5 -109.5t-206 -36.5h-62z" />
    <glyph glyph-name="uni028B" unicode="&#x28b;" horiz-adv-x="1192" 
d="M585 -11q-147 0 -245.5 48t-148 138.5t-49.5 218.5v581h215v-554q0 -74 20 -131t69.5 -88.5t135.5 -31.5q99 0 153.5 29t76.5 85.5t22 137.5h216q0 -144 -54 -240.5t-157.5 -144.5t-253.5 -48zM834 422v225q0 85 -22 127t-105 42h-42v170h52q134 0 206 -36t99.5 -108.5
t27.5 -182.5v-237h-216z" />
    <glyph glyph-name="uni0292" unicode="&#x292;" horiz-adv-x="1014" 
d="M491 -379q-212 0 -333.5 95t-121.5 282h201q0 -101 68.5 -154.5t184.5 -53.5q121 0 187.5 62t66.5 191q0 84 -38.5 140.5t-109.5 85t-172 28.5h-145v151l357 357h-520v170h776v-152l-381 -379q137 0 237.5 -48.5t156 -138t55.5 -215.5q0 -200 -125 -310.5t-344 -110.5z
" />
    <glyph glyph-name="circumflex" unicode="&#x2c6;" horiz-adv-x="1130" 
d="M251 1108l213 273h204l214 -273h-169l-147 160l-147 -160h-168z" />
    <glyph glyph-name="caron" unicode="&#x2c7;" horiz-adv-x="1130" 
d="M463 1108l-214 273h168l148 -160l146 160h169l-213 -273h-204z" />
    <glyph glyph-name="breve" unicode="&#x2d8;" horiz-adv-x="1130" 
d="M564 1112q-125 0 -196 70.5t-83 193.5h122q9 -78 55.5 -108t101.5 -30q58 0 108 31t59 107h111q-11 -122 -82 -193t-196 -71z" />
    <glyph glyph-name="dotaccent" unicode="&#x2d9;" horiz-adv-x="1130" 
d="M565 1131q-60 0 -93.5 32t-33.5 80q0 50 33.5 82t93.5 32t93.5 -32t33.5 -82q0 -48 -33.5 -80t-93.5 -32z" />
    <glyph glyph-name="ring" unicode="&#x2da;" horiz-adv-x="1130" 
d="M565 1079q-92 0 -151.5 55.5t-59.5 147.5q0 90 59.5 145.5t151.5 55.5t151.5 -55.5t59.5 -145.5q0 -92 -59.5 -147.5t-151.5 -55.5zM565 1183q43 0 69.5 28t26.5 71t-26.5 70.5t-69.5 27.5q-42 0 -69 -27.5t-27 -70.5t27 -71t69 -28z" />
    <glyph glyph-name="ogonek" unicode="&#x2db;" horiz-adv-x="1130" 
d="M579 -377q-82 0 -138.5 44.5t-56.5 123.5q0 51 31 100.5t85 87t120 52.5l78 -22q-80 -46 -113.5 -95t-33.5 -87q0 -31 18 -48.5t50 -17.5t62.5 8.5t64.5 22.5v-130q-32 -18 -69.5 -28.5t-97.5 -10.5z" />
    <glyph glyph-name="tilde" unicode="&#x2dc;" horiz-adv-x="1130" 
d="M257 1127q10 103 53.5 160.5t123.5 57.5q44 0 84.5 -14t77.5 -30q32 -14 58.5 -23t48.5 -9t35 18.5t17 60.5h118q-10 -100 -48 -155t-117 -55q-46 0 -86.5 13.5t-75.5 27.5q-35 15 -61 24.5t-49 9.5q-25 0 -40 -20.5t-20 -65.5h-119z" />
    <glyph glyph-name="hungarumlaut" unicode="&#x2dd;" horiz-adv-x="1130" 
d="M600 1108l181 273h195l-234 -273h-142zM297 1108l179 273h196l-235 -273h-140z" />
    <glyph glyph-name="gravecomb" unicode="&#x300;" 
d="M517 1108l-276 273h238l200 -273h-162z" />
    <glyph glyph-name="acutecomb" unicode="&#x301;" 
d="M447 1108l200 273h240l-277 -273h-163z" />
    <glyph glyph-name="uni0302" unicode="&#x302;" 
d="M251 1108l213 273h204l214 -273h-169l-147 160l-147 -160h-168z" />
    <glyph glyph-name="tildecomb" unicode="&#x303;" 
d="M257 1127q10 103 53.5 160.5t123.5 57.5q44 0 84.5 -14t77.5 -30q32 -14 58.5 -23t48.5 -9t35 18.5t17 60.5h118q-10 -100 -48 -155t-117 -55q-46 0 -86.5 13.5t-75.5 27.5q-35 15 -61 24.5t-49 9.5q-25 0 -40 -20.5t-20 -65.5h-119z" />
    <glyph glyph-name="uni0304" unicode="&#x304;" 
d="M288 1164v142h555v-142h-555z" />
    <glyph glyph-name="uni0306" unicode="&#x306;" 
d="M564 1112q-125 0 -196 70.5t-83 193.5h122q9 -78 55.5 -108t101.5 -30q58 0 108 31t59 107h111q-11 -122 -82 -193t-196 -71z" />
    <glyph glyph-name="uni0307" unicode="&#x307;" 
d="M565 1131q-60 0 -93.5 32t-33.5 80q0 50 33.5 82t93.5 32t93.5 -32t33.5 -82q0 -48 -33.5 -80t-93.5 -32z" />
    <glyph glyph-name="uni0308" unicode="&#x308;" 
d="M749 1140q-45 0 -76 29t-31 74q0 46 31 75t76 29q46 0 76.5 -29t30.5 -75q0 -45 -30.5 -74t-76.5 -29zM382 1140q-46 0 -77 29t-31 74q0 46 31 75t77 29q44 0 75 -29t31 -75q0 -45 -31 -74t-75 -29z" />
    <glyph glyph-name="hookabovecomb" unicode="&#x309;" 
d="M517 1124l-50 72q36 10 65 32t29 56q0 37 -26 49t-74 12h-18v111h38q130 0 194 -36.5t64 -113.5q0 -50 -29 -88t-79 -61.5t-114 -32.5zM467 1196l130 -24v-94h-130v118z" />
    <glyph glyph-name="uni030A" unicode="&#x30a;" 
d="M565 1079q-92 0 -151.5 55.5t-59.5 147.5q0 90 59.5 145.5t151.5 55.5t151.5 -55.5t59.5 -145.5q0 -92 -59.5 -147.5t-151.5 -55.5zM565 1183q43 0 69.5 28t26.5 71t-26.5 70.5t-69.5 27.5q-42 0 -69 -27.5t-27 -70.5t27 -71t69 -28z" />
    <glyph glyph-name="uni030B" unicode="&#x30b;" 
d="M600 1108l181 273h195l-234 -273h-142zM297 1108l179 273h196l-235 -273h-140z" />
    <glyph glyph-name="uni030C" unicode="&#x30c;" 
d="M463 1108l-214 273h168l148 -160l146 160h169l-213 -273h-204z" />
    <glyph glyph-name="uni0312" unicode="&#x312;" 
d="M566 1138q-55 0 -89 32.5t-34 95.5q0 61 30.5 111t82 82.5t112.5 40.5l22 -77q-37 -13 -68 -36t-46 -56q49 -6 76.5 -31.5t27.5 -63.5q0 -42 -31.5 -70t-82.5 -28z" />
    <glyph glyph-name="uni031B" unicode="&#x31b;" 
d="M-100 679l-13 106q86 28 136 71t59 110l12 -10q-58 0 -95.5 36t-37.5 90q0 57 37 92t96 35q64 0 103 -41t39 -124q0 -71 -25 -130t-70.5 -105t-107 -78t-133.5 -52z" />
    <glyph glyph-name="dotbelowcomb" unicode="&#x323;" 
d="M0 -317q-60 0 -93.5 32t-33.5 80q0 50 33.5 82t93.5 32t93.5 -32t33.5 -82q0 -48 -33.5 -80t-93.5 -32z" />
    <glyph glyph-name="uni0326" unicode="&#x326;" 
d="M467 -398l-20 71q40 11 71.5 33t41.5 51q-49 3 -75.5 29t-26.5 65q0 37 28.5 63.5t81.5 26.5q52 0 85 -30.5t33 -88.5q0 -87 -64.5 -146.5t-154.5 -73.5z" />
    <glyph glyph-name="uni0327" unicode="&#x327;" 
d="M576 -380q-64 0 -109.5 10t-86.5 26l31 103q31 -13 72.5 -21.5t83.5 -8.5q37 0 60.5 16.5t23.5 46.5q0 31 -30.5 47.5t-111.5 26.5l-44 6l135 175l91 -37l-65 -84l-40 19q94 -3 150 -42t56 -114q0 -57 -29 -95t-78 -56t-109 -18z" />
    <glyph glyph-name="uni0328" unicode="&#x328;" 
d="M579 -377q-82 0 -138.5 44.5t-56.5 123.5q0 51 31 100.5t85 87t120 52.5l78 -22q-80 -46 -113.5 -95t-33.5 -87q0 -31 18 -48.5t50 -17.5t62.5 8.5t64.5 22.5v-130q-32 -18 -69.5 -28.5t-97.5 -10.5z" />
    <glyph glyph-name="uni0335" unicode="&#x335;" 
d="M25 377v125h572v-125h-572z" />
    <glyph glyph-name="uni0336" unicode="&#x336;" 
d="M0 589v185h732v-185h-732z" />
    <glyph glyph-name="uni0345" unicode="&#x345;" 
d="M61 -358q-106 0 -136.5 50t-30.5 130v123h148v-99q0 -40 10 -62t51 -22h29v-120h-71z" />
    <glyph glyph-name="uni0370" unicode="&#x370;" horiz-adv-x="869" 
d="M169 0v1346h230v-546h432v-202h-432v-598h-230z" />
    <glyph glyph-name="uni0371" unicode="&#x371;" horiz-adv-x="769" 
d="M151 0v975h217v-975h-217zM295 418v168h413v-168h-413z" />
    <glyph glyph-name="uni0372" unicode="&#x372;" horiz-adv-x="1217" 
d="M494 0v1153h-390v193h1054v-193h-434v-1153h-230zM59 916v430h216v-430h-216zM942 916v430h216v-430h-216z" />
    <glyph glyph-name="uni0373" unicode="&#x373;" horiz-adv-x="1066" 
d="M725 1q-133 0 -205 36t-99.5 108.5t-27.5 181.5v478h-183v-209h-183v379h978v-379h-183v209h-215v-465q0 -84 23 -126.5t106 -42.5h120v-170h-131z" />
    <glyph glyph-name="uni0374" unicode="&#x374;" horiz-adv-x="519" 
d="M39 1108l200 273h240l-277 -273h-163z" />
    <glyph glyph-name="uni0375" unicode="&#x375;" horiz-adv-x="519" 
d="M39 -137l200 273h240l-277 -273h-163z" />
    <glyph glyph-name="uni0376" unicode="&#x376;" horiz-adv-x="1463" 
d="M1294 0h-216v1021l-680 -1021h-229v1346h217v-1017l679 1017h229v-1346z" />
    <glyph glyph-name="uni0377" unicode="&#x377;" horiz-adv-x="1207" 
d="M151 0v975h202v-687l501 687h202v-975h-202v689l-501 -689h-202z" />
    <glyph glyph-name="uni037A" unicode="&#x37a;" horiz-adv-x="862" 
d="M472 -358q-106 0 -136.5 50t-30.5 130v123h148v-99q0 -40 10 -62t51 -22h29v-120h-71z" />
    <glyph glyph-name="uni037B" unicode="&#x37b;" horiz-adv-x="1100" 
d="M531 -15q-121 0 -218 41.5t-154 124.5t-60 205h211q3 -98 62 -150t157 -52q130 0 193 86.5t63 243.5q0 160 -63 248.5t-193 88.5q-96 0 -151 -49t-59 -134h-212q3 119 59.5 197t151.5 117t213 39q140 0 245.5 -55.5t165 -167.5t59.5 -284q0 -170 -61.5 -280.5
t-167.5 -164.5t-241 -54z" />
    <glyph glyph-name="uni037C" unicode="&#x37c;" horiz-adv-x="1100" 
d="M569 -15q-135 0 -241 53.5t-167.5 164.5t-61.5 281q0 171 59.5 283.5t165 168t245.5 55.5q118 0 213 -36.5t151.5 -110.5t59.5 -186h-211q-5 76 -60 119.5t-151 43.5q-130 0 -190.5 -88t-60.5 -249q0 -157 60.5 -243.5t190.5 -86.5q98 0 157 47t62 136h211
q-3 -116 -60 -194.5t-153.5 -118t-218.5 -39.5zM608 402q-55 0 -85 28.5t-30 71.5q0 44 30 72.5t85 28.5q54 0 84 -28.5t30 -72.5q0 -43 -30 -71.5t-84 -28.5z" />
    <glyph glyph-name="uni037D" unicode="&#x37d;" horiz-adv-x="1100" 
d="M531 -15q-121 0 -218 39.5t-154 118t-60 194.5h211q3 -89 62 -136t157 -47q129 0 189.5 86.5t60.5 243.5q0 160 -60.5 248.5t-189.5 88.5q-96 0 -151 -43.5t-59 -119.5h-212q3 112 59.5 186t151.5 110.5t213 36.5q140 0 245.5 -55.5t165 -167.5t59.5 -284
q0 -170 -61.5 -280.5t-167.5 -164.5t-241 -54zM495 402q-54 0 -84 28.5t-30 71.5q0 44 30 72.5t84 28.5t84 -28.5t30 -72.5q0 -43 -30 -71.5t-84 -28.5z" />
    <glyph glyph-name="uni037E" unicode="&#x37e;" horiz-adv-x="581" 
d="M165 -294l-39 113q65 23 108.5 68.5t53.5 112.5l13 -12q-66 0 -108 42t-42 103q0 64 42 104t108 40t107 -46t41 -138q0 -110 -40 -187.5t-104.5 -126t-139.5 -73.5zM301 686q-66 0 -108 42t-42 103q0 64 42 104t108 40t107 -40t41 -104q0 -61 -41 -103t-107 -42z" />
    <glyph glyph-name="uni037F" unicode="&#x37f;" horiz-adv-x="715" 
d="M37 -10v197h86q117 0 165.5 56.5t48.5 186.5v916h226v-919q0 -151 -44 -247.5t-137.5 -143t-241.5 -46.5h-103z" />
    <glyph glyph-name="tonos" unicode="&#x384;" horiz-adv-x="1130" 
d="M463 1108l58 323h220l-147 -323h-131z" />
    <glyph glyph-name="dieresistonos" unicode="&#x385;" horiz-adv-x="1130" 
d="M478 1108l58 333h181l-127 -333h-112zM341 1134q-43 0 -72 27.5t-29 70.5t29 70.5t72 27.5q44 0 72.5 -27.5t28.5 -70.5t-28.5 -70.5t-72.5 -27.5zM799 1134q-42 0 -71 27.5t-29 70.5t29 70.5t71 27.5q44 0 73 -27.5t29 -70.5t-29 -70.5t-73 -27.5z" />
    <glyph glyph-name="Alphatonos" unicode="&#x386;" horiz-adv-x="1239" 
d="M5 0l495 1346h242l491 -1346h-239l-112 336h-522l-117 -336h-238zM418 529h404l-202 589zM28 1022l58 323h220l-147 -323h-131z" />
    <glyph glyph-name="anoteleia" unicode="&#x387;" horiz-adv-x="601" 
d="M301 376q-66 0 -108 42t-42 103q0 64 42 104t108 40t107 -40t41 -104q0 -61 -41 -103t-107 -42z" />
    <glyph glyph-name="Epsilontonos" unicode="&#x388;" horiz-adv-x="1157" 
d="M169 0v1346h880v-192h-650v-371h594v-186h-594v-405h650v-192h-880zM-174 1022l58 323h220l-147 -323h-131z" />
    <glyph glyph-name="Etatonos" unicode="&#x389;" horiz-adv-x="1471" 
d="M169 0v1346h230v-546h673v546h230v-1346h-230v598h-673v-598h-230zM-174 1022l58 323h220l-147 -323h-131z" />
    <glyph glyph-name="Iotatonos" unicode="&#x38a;" horiz-adv-x="568" 
d="M169 0v1346h230v-1346h-230zM-174 1022l58 323h220l-147 -323h-131z" />
    <glyph glyph-name="Omicrontonos" unicode="&#x38c;" horiz-adv-x="1505" 
d="M753 -18q-212 0 -356.5 86.5t-218.5 241.5t-74 362t74 362.5t218.5 242.5t356.5 87q211 0 354.5 -87t218 -242.5t74.5 -362.5t-74.5 -362t-218 -241.5t-354.5 -86.5zM753 172q146 0 236 68t132 181.5t42 250.5q0 139 -42 252.5t-132 181t-236 67.5q-147 0 -238 -67.5
t-132 -181t-41 -252.5q0 -137 41 -250.5t132 -181.5t238 -68zM-113 1022l58 323h220l-147 -323h-131z" />
    <glyph glyph-name="Upsilontonos" unicode="&#x38e;" horiz-adv-x="1152" 
d="M458 0v519l-458 827h255l322 -617l320 617h255l-459 -827v-519h-235zM-297 1022l58 323h220l-147 -323h-131z" />
    <glyph glyph-name="Omegatonos" unicode="&#x38f;" horiz-adv-x="1513" 
d="M645 105q-253 49 -385 214t-132 423q0 186 72 326t212 218t345 78q204 0 343.5 -78t211.5 -218t72 -326q0 -261 -133.5 -425.5t-389.5 -211.5v117q152 69 218.5 193.5t66.5 307.5q0 125 -39.5 227t-125 162.5t-224.5 60.5q-140 0 -226 -60.5t-125.5 -162.5t-39.5 -227
q0 -179 65 -305t214 -196v-117zM102 0v192h543v-192h-543zM861 0v192h550v-192h-550zM-113 1022l58 323h220l-147 -323h-131z" />
    <glyph glyph-name="iotadieresistonos" unicode="&#x390;" horiz-adv-x="570" 
d="M476 0q-134 0 -206 36.5t-100 109t-28 181.5v648h215v-635q0 -84 22.5 -126.5t105.5 -42.5h53v-171h-62zM190 1120l58 333h181l-127 -333h-112zM53 1146q-43 0 -72 27.5t-29 70.5t29 70.5t72 27.5q44 0 72.5 -27.5t28.5 -70.5t-28.5 -70.5t-72.5 -27.5zM511 1146
q-42 0 -71 27.5t-29 70.5t29 70.5t71 27.5q44 0 73 -27.5t29 -70.5t-29 -70.5t-73 -27.5z" />
    <glyph glyph-name="Alpha" unicode="&#x391;" horiz-adv-x="1239" 
d="M5 0l495 1346h242l491 -1346h-239l-112 336h-522l-117 -336h-238zM418 529h404l-202 589z" />
    <glyph glyph-name="Beta" unicode="&#x392;" horiz-adv-x="1252" 
d="M169 0v1346h446q210 0 334 -82t124 -252q0 -107 -56.5 -185.5t-149.5 -107.5q140 -25 218 -112.5t78 -215.5t-57.5 -215.5t-169.5 -131.5t-274 -44h-493zM399 192h256q76 0 138.5 19t100 66.5t37.5 131.5q0 102 -75.5 150t-200.5 48h-256v-415zM399 787h213
q106 0 167.5 51t61.5 142q0 63 -28 102t-79.5 57.5t-121.5 18.5h-213v-371z" />
    <glyph glyph-name="Gamma" unicode="&#x393;" horiz-adv-x="972" 
d="M169 0v1346h766v-193h-536v-1153h-230z" />
    <glyph glyph-name="uni0394" unicode="&#x394;" horiz-adv-x="1246" 
d="M56 0v179l135 13h888l111 -13v-179h-1134zM56 179l433 1167h271l430 -1167l-192 -129l-375 1070l-378 -1070z" />
    <glyph glyph-name="Epsilon" unicode="&#x395;" horiz-adv-x="1157" 
d="M169 0v1346h880v-192h-650v-371h594v-186h-594v-405h650v-192h-880z" />
    <glyph glyph-name="Zeta" unicode="&#x396;" horiz-adv-x="1089" 
d="M44 0v182l679 971h-631v193h911v-173l-686 -980h728v-193h-1001z" />
    <glyph glyph-name="Eta" unicode="&#x397;" horiz-adv-x="1471" 
d="M169 0v1346h230v-546h673v546h230v-1346h-230v598h-673v-598h-230z" />
    <glyph glyph-name="Theta" unicode="&#x398;" horiz-adv-x="1505" 
d="M514 589v183h477v-183h-477zM753 -18q-212 0 -356.5 86.5t-218.5 241.5t-74 362t74 362.5t218.5 242.5t356.5 87q211 0 354.5 -87t218 -242.5t74.5 -362.5t-74.5 -362t-218 -241.5t-354.5 -86.5zM753 172q146 0 236 68t132 181.5t42 250.5q0 139 -42 252.5t-132 181
t-236 67.5q-147 0 -238 -67.5t-132 -181t-41 -252.5q0 -137 41 -250.5t132 -181.5t238 -68z" />
    <glyph glyph-name="Iota" unicode="&#x399;" horiz-adv-x="568" 
d="M169 0v1346h230v-1346h-230z" />
    <glyph glyph-name="Kappa" unicode="&#x39a;" horiz-adv-x="1220" 
d="M169 0v1346h230v-645l518 645h259l-529 -633l568 -713h-272l-544 690v-690h-230z" />
    <glyph glyph-name="Lambda" unicode="&#x39b;" horiz-adv-x="1231" 
d="M5 0l479 1346h271l471 -1346h-246l-363 1097l-365 -1097h-247z" />
    <glyph glyph-name="Mu" unicode="&#x39c;" horiz-adv-x="1649" 
d="M169 0v1346h259l451 -755h-92l443 755h251v-1346h-227v1196h92l-448 -769h-145l-458 769h95v-1196h-221z" />
    <glyph glyph-name="Nu" unicode="&#x39d;" horiz-adv-x="1463" 
d="M169 0v1346h229l679 -989v989h217v-1346h-229l-680 993v-993h-216z" />
    <glyph glyph-name="Xi" unicode="&#x39e;" horiz-adv-x="1178" 
d="M107 0v192h963v-192h-963zM251 597v186h676v-186h-676zM148 1154v193h881v-193h-881z" />
    <glyph glyph-name="Omicron" unicode="&#x39f;" horiz-adv-x="1505" 
d="M753 -18q-212 0 -356.5 86.5t-218.5 241.5t-74 362t74 362.5t218.5 242.5t356.5 87q211 0 354.5 -87t218 -242.5t74.5 -362.5t-74.5 -362t-218 -241.5t-354.5 -86.5zM753 172q146 0 236 68t132 181.5t42 250.5q0 139 -42 252.5t-132 181t-236 67.5q-147 0 -238 -67.5
t-132 -181t-41 -252.5q0 -137 41 -250.5t132 -181.5t238 -68z" />
    <glyph glyph-name="Pi" unicode="&#x3a0;" horiz-adv-x="1451" 
d="M169 0v1346h1113v-1346h-230v1152h-653v-1152h-230z" />
    <glyph glyph-name="Rho" unicode="&#x3a1;" horiz-adv-x="1211" 
d="M169 0v1346h507q129 0 233.5 -47.5t166 -141.5t61.5 -236q0 -138 -61.5 -230.5t-166 -139t-233.5 -46.5h-277v-505h-230zM399 692h257q109 0 177.5 57.5t68.5 171.5q0 121 -69 179t-177 58h-257v-466z" />
    <glyph glyph-name="Sigma" unicode="&#x3a3;" horiz-adv-x="1053" 
d="M44 0v181l492 530l-461 453v182h872v-192l-601 -1l407 -388v-100l-442 -472l698 -1v-192h-965z" />
    <glyph glyph-name="Tau" unicode="&#x3a4;" horiz-adv-x="1007" 
d="M389 0v1153h-371v193h971v-193h-369v-1153h-231z" />
    <glyph glyph-name="Upsilon" unicode="&#x3a5;" horiz-adv-x="1152" 
d="M458 0v519l-458 827h255l322 -617l320 617h255l-459 -827v-519h-235z" />
    <glyph glyph-name="Phi" unicode="&#x3a6;" horiz-adv-x="1565" 
d="M823 136v178h53q178 0 279 92.5t101 279.5q0 177 -103 264.5t-277 87.5h-53v177h64q174 0 310.5 -60.5t215 -178.5t78.5 -290q0 -179 -78.5 -301t-215 -185.5t-310.5 -63.5h-64zM667 -41v1427h231v-1427h-231zM742 136h-63q-173 0 -310 63.5t-216 185.5t-79 301
q0 172 79 290t216 178.5t310 60.5h63v-177h-53q-174 0 -276.5 -87.5t-102.5 -264.5q0 -187 101 -279.5t278 -92.5h53v-178z" />
    <glyph glyph-name="Chi" unicode="&#x3a7;" horiz-adv-x="1180" 
d="M9 0l451 700l-417 646h264l282 -484l294 484h253l-416 -648l450 -698h-272l-309 516l-323 -516h-257z" />
    <glyph glyph-name="Psi" unicode="&#x3a8;" horiz-adv-x="1641" 
d="M870 340v189h64q162 0 255 80t93 241v496h237l-2 -496q0 -169 -75 -282.5t-204 -170.5t-294 -57h-74zM695 340q-164 0 -294 57t-204.5 170.5t-74.5 282.5v496h234v-496q0 -161 94 -241t256 -80h64v-189h-75zM704 0v1346h230v-1346h-230z" />
    <glyph glyph-name="uni03A9" unicode="&#x3a9;" horiz-adv-x="1513" 
d="M645 105q-253 49 -385 214t-132 423q0 186 72 326t212 218t345 78q204 0 343.5 -78t211.5 -218t72 -326q0 -261 -133.5 -425.5t-389.5 -211.5v117q152 69 218.5 193.5t66.5 307.5q0 125 -39.5 227t-125 162.5t-224.5 60.5q-140 0 -226 -60.5t-125.5 -162.5t-39.5 -227
q0 -179 65 -305t214 -196v-117zM102 0v192h543v-192h-543zM861 0v192h550v-192h-550z" />
    <glyph glyph-name="Iotadieresis" unicode="&#x3aa;" horiz-adv-x="568" 
d="M169 0v1346h230v-1346h-230zM468 1486q-45 0 -76 29t-31 74q0 46 31 75.5t76 29.5q46 0 76.5 -29.5t30.5 -75.5q0 -45 -30.5 -74t-76.5 -29zM101 1486q-46 0 -77 29t-31 74q0 46 31 75.5t77 29.5q44 0 75 -29.5t31 -75.5q0 -45 -31 -74t-75 -29z" />
    <glyph glyph-name="Upsilondieresis" unicode="&#x3ab;" horiz-adv-x="1152" 
d="M458 0v519l-458 827h255l322 -617l320 617h255l-459 -827v-519h-235zM761 1486q-45 0 -76 29t-31 74q0 46 31 75.5t76 29.5q46 0 76.5 -29.5t30.5 -75.5q0 -45 -30.5 -74t-76.5 -29zM394 1486q-46 0 -77 29t-31 74q0 46 31 75.5t77 29.5q44 0 75 -29.5t31 -75.5
q0 -45 -31 -74t-75 -29z" />
    <glyph glyph-name="alphatonos" unicode="&#x3ac;" horiz-adv-x="1187" 
d="M488 -17q-179 0 -284 123t-105 376q0 170 52 283t146 169.5t219 56.5q104 0 178.5 -44t119.5 -114l5 142h205v-640q0 -87 22.5 -130.5t105.5 -43.5h19v-170h-52q-99 0 -158.5 20t-90 55.5t-46.5 80.5q-57 -75 -139.5 -119.5t-196.5 -44.5zM547 152q94 0 161.5 49
t105.5 119v331q-35 72 -99 121.5t-157 49.5q-115 0 -176.5 -88.5t-61.5 -251.5q0 -165 58.5 -247.5t168.5 -82.5zM513 1108l58 323h220l-147 -323h-131z" />
    <glyph glyph-name="epsilontonos" unicode="&#x3ad;" horiz-adv-x="1043" 
d="M518 -16q-209 0 -319.5 74t-110.5 209q0 103 61.5 161t181.5 84q-111 25 -155.5 87t-44.5 131q0 62 36 121.5t120.5 98.5t230.5 39q185 0 292.5 -72.5t113.5 -218.5h-202q-1 59 -57 97.5t-147 38.5q-98 0 -141 -34t-43 -86q0 -60 57 -93.5t142 -33.5h107v-156h-83
q-133 0 -195.5 -36t-62.5 -108q0 -76 60.5 -109.5t160.5 -33.5q117 0 183.5 41.5t70.5 130.5h202q-6 -107 -58.5 -181.5t-152 -112.5t-247.5 -38zM463 1108l58 323h220l-147 -323h-131z" />
    <glyph glyph-name="etatonos" unicode="&#x3ae;" horiz-adv-x="1157" 
d="M151 0v975h209l4 -148q48 62 130 112.5t211 50.5q155 0 232.5 -93t77.5 -265v-990h-216v961q0 62 -15 109.5t-50.5 74.5t-97.5 27q-94 0 -159.5 -43.5t-108.5 -99.5v-671h-217zM513 1108l58 323h220l-147 -323h-131z" />
    <glyph glyph-name="iotatonos" unicode="&#x3af;" horiz-adv-x="570" 
d="M476 0q-134 0 -206 36.5t-100 109t-28 181.5v648h215v-635q0 -84 22.5 -126.5t105.5 -42.5h53v-171h-62zM189 1108l58 323h220l-147 -323h-131z" />
    <glyph glyph-name="upsilondieresistonos" unicode="&#x3b0;" horiz-adv-x="1178" 
d="M585 -18q-147 0 -245.5 50.5t-148 145.5t-49.5 226v571h215v-544q0 -77 20 -137.5t69.5 -95.5t135.5 -35q99 0 153.5 41.5t76.5 113.5t22 165q0 122 -19 245.5t-62 246.5h214q45 -127 63.5 -255t18.5 -255q0 -150 -53.5 -258.5t-157 -166.5t-253.5 -58zM498 1120l58 333
h181l-127 -333h-112zM361 1146q-43 0 -72 27.5t-29 70.5t29 70.5t72 27.5q44 0 72.5 -27.5t28.5 -70.5t-28.5 -70.5t-72.5 -27.5zM819 1146q-42 0 -71 27.5t-29 70.5t29 70.5t71 27.5q44 0 73 -27.5t29 -70.5t-29 -70.5t-73 -27.5z" />
    <glyph glyph-name="alpha" unicode="&#x3b1;" horiz-adv-x="1187" 
d="M488 -17q-179 0 -284 123t-105 376q0 170 52 283t146 169.5t219 56.5q104 0 178.5 -44t119.5 -114l5 142h205v-640q0 -87 22.5 -130.5t105.5 -43.5h19v-170h-52q-99 0 -158.5 20t-90 55.5t-46.5 80.5q-57 -75 -139.5 -119.5t-196.5 -44.5zM547 152q94 0 161.5 49
t105.5 119v331q-35 72 -99 121.5t-157 49.5q-115 0 -176.5 -88.5t-61.5 -251.5q0 -165 58.5 -247.5t168.5 -82.5z" />
    <glyph glyph-name="beta" unicode="&#x3b2;" horiz-adv-x="1143" 
d="M141 -358v1237q0 170 56 277t155.5 157.5t230.5 50.5q180 0 287 -90.5t107 -242.5q0 -146 -96.5 -236t-272.5 -105l-71 57q249 0 378 -89t129 -274q0 -130 -56 -218t-152.5 -133t-219.5 -45q-62 0 -111 6.5t-93 19.5t-92 31v170q69 -30 133 -44.5t132 -14.5
q115 0 177.5 56t62.5 174q0 124 -82 183t-213 59h-60v156h66q107 0 172 59.5t65 165.5q0 91 -50.5 138t-139.5 47q-67 0 -118 -29.5t-80 -97t-29 -182.5v-1243h-215z" />
    <glyph glyph-name="gamma" unicode="&#x3b3;" horiz-adv-x="968" 
d="M395 -358l2 406h213v-406h-215zM397 30l-397 945h226l270 -725l253 725h219l-359 -949z" />
    <glyph glyph-name="delta" unicode="&#x3b4;" horiz-adv-x="1152" 
d="M572 -18q-140 0 -246.5 56t-166.5 160t-60 250q0 137 55.5 238t143.5 167.5t187 102.5l-281 236v154h794v-177h-497l244 -189q115 -88 182.5 -169.5t96.5 -167t29 -187.5q0 -149 -60 -255t-168 -162.5t-253 -56.5zM572 150q92 0 148.5 39t84 108t27.5 158q0 85 -26 151.5
t-74.5 122.5t-119.5 112q-83 -30 -149 -83.5t-104.5 -130.5t-38.5 -177q0 -84 27 -152t82.5 -108t142.5 -40z" />
    <glyph glyph-name="epsilon" unicode="&#x3b5;" horiz-adv-x="1043" 
d="M518 -16q-209 0 -319.5 74t-110.5 209q0 103 61.5 161t181.5 84q-111 25 -155.5 87t-44.5 131q0 62 36 121.5t120.5 98.5t230.5 39q185 0 292.5 -72.5t113.5 -218.5h-202q-1 59 -57 97.5t-147 38.5q-98 0 -141 -34t-43 -86q0 -60 57 -93.5t142 -33.5h107v-156h-83
q-133 0 -195.5 -36t-62.5 -108q0 -76 60.5 -109.5t160.5 -33.5q117 0 183.5 41.5t70.5 130.5h202q-6 -107 -58.5 -181.5t-152 -112.5t-247.5 -38z" />
    <glyph glyph-name="zeta" unicode="&#x3b6;" horiz-adv-x="892" 
d="M657 -254q16 87 12 137.5t-36 74.5t-103 30l-70 6q-104 10 -187 46t-131 112t-48 206q0 113 43.5 214t114 192t152.5 172l238 233h-458v177h692v-177l-294 -306q-67 -71 -129.5 -148.5t-103 -160.5t-40.5 -171q0 -107 51 -149t158 -52l70 -6q116 -12 186 -55.5
t92.5 -133.5t-4.5 -241h-205z" />
    <glyph glyph-name="eta" unicode="&#x3b7;" horiz-adv-x="1157" 
d="M151 0v975h209l4 -148q48 62 130 112.5t211 50.5q155 0 232.5 -93t77.5 -265v-990h-216v961q0 62 -15 109.5t-50.5 74.5t-97.5 27q-94 0 -159.5 -43.5t-108.5 -99.5v-671h-217z" />
    <glyph glyph-name="theta" unicode="&#x3b8;" horiz-adv-x="1158" 
d="M578 -18q-163 0 -266 82.5t-152 238t-49 374.5q0 218 49 371.5t152 235.5t266 82t266.5 -82t153 -235.5t49.5 -370.5q0 -220 -49.5 -375.5t-153 -238t-266.5 -82.5zM578 144q76 0 125.5 36.5t78.5 106.5t41 168.5t12 222.5q0 122 -12 219t-41 166.5t-78.5 106
t-125.5 36.5q-75 0 -125 -36.5t-78.5 -106t-41 -166.5t-12.5 -219q0 -124 12.5 -222.5t41 -168.5t78.5 -106.5t125 -36.5zM311 606v159h538v-159h-538z" />
    <glyph glyph-name="iota" unicode="&#x3b9;" horiz-adv-x="570" 
d="M476 0q-134 0 -206 36.5t-100 109t-28 181.5v648h215v-635q0 -84 22.5 -126.5t105.5 -42.5h53v-171h-62z" />
    <glyph glyph-name="kappa" unicode="&#x3ba;" horiz-adv-x="1045" 
d="M151 0v975h217v-444l410 444h242l-408 -440l442 -535h-257l-334 403l-95 -82v-321h-217z" />
    <glyph glyph-name="lambda" unicode="&#x3bb;" horiz-adv-x="968" 
d="M0 0l408 987h230l330 -987h-219l-235 758l-288 -758h-226zM408 987l-26 71q-21 59 -61.5 84.5t-97.5 25.5h-86v178h109q95 0 160.5 -21.5t110.5 -74t79 -146.5l42 -117h-230z" />
    <glyph glyph-name="uni03BC" unicode="&#x3bc;" horiz-adv-x="1176" 
d="M151 -360v1335h217v-604q0 -59 14.5 -104.5t52.5 -71t105 -25.5q96 0 160.5 40t108.5 94v671h215v-975h-208l-4 149q-50 -81 -127.5 -120.5t-158.5 -39.5q-80 0 -150 37t-113.5 107t-43.5 171h140v-664h-208z" />
    <glyph glyph-name="nu" unicode="&#x3bd;" horiz-adv-x="968" 
d="M364 0l-364 975h226l259 -769l264 769h219l-361 -975h-243z" />
    <glyph glyph-name="xi" unicode="&#x3be;" horiz-adv-x="885" 
d="M657 -259q17 93 10.5 143.5t-41.5 73t-104 28.5l-70 6q-112 11 -192 50.5t-123 116t-43 199.5q0 105 44 185t121.5 131.5t177.5 69.5q-108 35 -173 107.5t-65 174.5q0 59 20.5 116t73 103.5t148 73.5t245.5 27h178v-183h-178q-153 0 -213 -43.5t-60 -117.5q0 -75 70 -123
t187 -48h132v-183h-125q-171 0 -269.5 -72t-98.5 -193q0 -107 52 -150.5t157 -55.5l95 -10q103 -12 166.5 -54.5t85.5 -131t-3 -240.5h-205z" />
    <glyph glyph-name="omicron" unicode="&#x3bf;" horiz-adv-x="1152" 
d="M572 -16q-145 0 -251.5 59.5t-164 172t-57.5 269.5q0 160 57.5 274t164 174t251.5 60q149 0 256.5 -60t166 -174t58.5 -274q0 -157 -58.5 -269.5t-166 -172t-256.5 -59.5zM572 152q98 0 155 44t81 119.5t24 169.5q0 96 -24 173t-81 121.5t-155 44.5q-94 0 -149 -44.5
t-79 -121.5t-24 -173q0 -94 24 -169.5t79 -119.5t149 -44z" />
    <glyph glyph-name="pi" unicode="&#x3c0;" horiz-adv-x="1215" 
d="M1061 1q-133 0 -205 36t-100 108.5t-28 181.5v478h-701v170h1127v-170h-210v-465q0 -84 22 -126.5t105 -42.5h49v-170h-59zM202 0v877h217v-877h-217z" />
    <glyph glyph-name="rho" unicode="&#x3c1;" horiz-adv-x="1175" 
d="M353 118l1 185q38 -64 105.5 -106t168.5 -42q110 0 168 86.5t58 249.5q0 173 -60 253t-172 80q-121 0 -193 -72.5t-72 -245.5v-864h-215v858q0 130 34 223.5t98 154t152 89t196 28.5q211 0 332.5 -127t121.5 -378q0 -170 -51 -282t-142.5 -168t-215.5 -56
q-105 0 -184 34.5t-130 99.5z" />
    <glyph glyph-name="sigma1" unicode="&#x3c2;" horiz-adv-x="914" 
d="M661 -259q17 93 10.5 143.5t-41.5 73t-104 28.5l-70 6q-112 11 -191.5 59t-122.5 144t-43 252q0 169 47.5 290t145 186.5t247.5 65.5q109 0 193 -32t132 -96.5t50 -162.5h-211q-3 55 -41.5 88t-117.5 33q-83 0 -132 -46t-70.5 -127.5t-21.5 -187.5q0 -98 23.5 -157
t68.5 -87.5t110 -36.5l95 -10q103 -12 167 -54.5t85.5 -131t-3.5 -240.5h-205z" />
    <glyph glyph-name="sigma" unicode="&#x3c3;" horiz-adv-x="1207" 
d="M580 -18q-142 0 -250.5 55.5t-169.5 163t-61 262.5q0 254 143.5 383t420.5 129h510v-171h-501q-174 0 -263 -83.5t-89 -257.5q0 -83 27.5 -154.5t85.5 -114.5t151 -43q94 0 152 40.5t84.5 109t26.5 151.5q0 143 -46.5 230t-121.5 141l-59 71q120 0 221.5 -56.5t163 -158
t61.5 -236.5q0 -220 -130.5 -340.5t-355.5 -120.5z" />
    <glyph glyph-name="tau" unicode="&#x3c4;" horiz-adv-x="890" 
d="M625 0q-133 0 -204.5 36.5t-99.5 109t-28 181.5v478h-266v170h801v-170h-320v-465q0 -84 22.5 -127t105.5 -43h120v-170h-131z" />
    <glyph glyph-name="upsilon" unicode="&#x3c5;" horiz-adv-x="1178" 
d="M585 -18q-147 0 -245.5 50.5t-148 145.5t-49.5 226v571h215v-544q0 -77 20 -137.5t69.5 -95.5t135.5 -35q99 0 153.5 41.5t76.5 113.5t22 165q0 122 -19 245.5t-62 246.5h214q45 -127 63.5 -255t18.5 -255q0 -150 -53.5 -258.5t-157 -166.5t-253.5 -58z" />
    <glyph glyph-name="phi" unicode="&#x3c6;" horiz-adv-x="1436" 
d="M714 -22q-299 0 -457 133.5t-158 372.5q0 242 158 377.5t457 135.5q301 0 462 -135.5t161 -377.5q0 -239 -161 -372.5t-462 -133.5zM714 136q150 0 238 46t125.5 125t37.5 177q0 100 -37.5 180t-125.5 126.5t-238 46.5q-147 0 -233 -46.5t-123.5 -126.5t-37.5 -180
q0 -98 37.5 -177t123.5 -125t233 -46zM619 -358v1704h196v-1704h-196z" />
    <glyph glyph-name="chi" unicode="&#x3c7;" horiz-adv-x="992" 
d="M0 -358l420 752l62 38l259 543h227l-351 -652l-65 -53l-318 -628h-234zM765 -358l-504 1014q-30 63 -61.5 96t-66 45.5t-73.5 12.5h-25v177h69q81 0 137.5 -20.5t99.5 -69t85 -132.5l566 -1123h-227z" />
    <glyph glyph-name="psi" unicode="&#x3c8;" horiz-adv-x="1507" 
d="M688 -11q-183 0 -304.5 49t-181.5 142t-60 224v571h215v-544q0 -79 29 -139.5t100.5 -94.5t199.5 -34h135q128 0 199 34t100.5 94.5t29.5 139.5v544h214v-571q0 -131 -60 -224t-180.5 -142t-304.5 -49h-131zM655 -358v1704h197v-1704h-197z" />
    <glyph glyph-name="omega" unicode="&#x3c9;" horiz-adv-x="1691" 
d="M515 -15q-124 0 -210 55t-131 162t-45 263q0 127 18.5 251.5t63.5 258.5h215q-29 -87 -47 -168.5t-26.5 -161.5t-8.5 -162q0 -93 17 -164.5t59.5 -112t117.5 -40.5q72 0 115.5 43.5t63.5 115t20 155.5v249h216v-249q0 -84 22 -155.5t66.5 -115t110.5 -43.5q76 0 118 40.5
t59 112t17 164.5q0 122 -19.5 242t-62.5 250h216q43 -134 62.5 -258.5t19.5 -251.5q0 -156 -45 -263t-131.5 -162t-211.5 -55q-114 0 -197 56t-132 173q-48 -117 -130.5 -173t-199.5 -56z" />
    <glyph glyph-name="iotadieresis" unicode="&#x3ca;" horiz-adv-x="570" 
d="M476 0q-134 0 -206 36.5t-100 109t-28 181.5v648h215v-635q0 -84 22.5 -126.5t105.5 -42.5h53v-171h-62zM444 1140q-45 0 -76 29t-31 74q0 46 31 75t76 29q46 0 76.5 -29t30.5 -75q0 -45 -30.5 -74t-76.5 -29zM77 1140q-46 0 -77 29t-31 74q0 46 31 75t77 29q44 0 75 -29
t31 -75q0 -45 -31 -74t-75 -29z" />
    <glyph glyph-name="upsilondieresis" unicode="&#x3cb;" horiz-adv-x="1178" 
d="M585 -18q-147 0 -245.5 50.5t-148 145.5t-49.5 226v571h215v-544q0 -77 20 -137.5t69.5 -95.5t135.5 -35q99 0 153.5 41.5t76.5 113.5t22 165q0 122 -19 245.5t-62 246.5h214q45 -127 63.5 -255t18.5 -255q0 -150 -53.5 -258.5t-157 -166.5t-253.5 -58zM773 1140
q-45 0 -76 29t-31 74q0 46 31 75t76 29q46 0 76.5 -29t30.5 -75q0 -45 -30.5 -74t-76.5 -29zM406 1140q-46 0 -77 29t-31 74q0 46 31 75t77 29q44 0 75 -29t31 -75q0 -45 -31 -74t-75 -29z" />
    <glyph glyph-name="omicrontonos" unicode="&#x3cc;" horiz-adv-x="1152" 
d="M572 -16q-145 0 -251.5 59.5t-164 172t-57.5 269.5q0 160 57.5 274t164 174t251.5 60q149 0 256.5 -60t166 -174t58.5 -274q0 -157 -58.5 -269.5t-166 -172t-256.5 -59.5zM572 152q98 0 155 44t81 119.5t24 169.5q0 96 -24 173t-81 121.5t-155 44.5q-94 0 -149 -44.5
t-79 -121.5t-24 -173q0 -94 24 -169.5t79 -119.5t149 -44zM523 1108l58 323h220l-147 -323h-131z" />
    <glyph glyph-name="upsilontonos" unicode="&#x3cd;" horiz-adv-x="1178" 
d="M585 -18q-147 0 -245.5 50.5t-148 145.5t-49.5 226v571h215v-544q0 -77 20 -137.5t69.5 -95.5t135.5 -35q99 0 153.5 41.5t76.5 113.5t22 165q0 122 -19 245.5t-62 246.5h214q45 -127 63.5 -255t18.5 -255q0 -150 -53.5 -258.5t-157 -166.5t-253.5 -58zM505 1108l58 323
h220l-147 -323h-131z" />
    <glyph glyph-name="omegatonos" unicode="&#x3ce;" horiz-adv-x="1691" 
d="M515 -15q-124 0 -210 55t-131 162t-45 263q0 127 18.5 251.5t63.5 258.5h215q-29 -87 -47 -168.5t-26.5 -161.5t-8.5 -162q0 -93 17 -164.5t59.5 -112t117.5 -40.5q72 0 115.5 43.5t63.5 115t20 155.5v249h216v-249q0 -84 22 -155.5t66.5 -115t110.5 -43.5q76 0 118 40.5
t59 112t17 164.5q0 122 -19.5 242t-62.5 250h216q43 -134 62.5 -258.5t19.5 -251.5q0 -156 -45 -263t-131.5 -162t-211.5 -55q-114 0 -197 56t-132 173q-48 -117 -130.5 -173t-199.5 -56zM785 1108l58 323h220l-147 -323h-131z" />
    <glyph glyph-name="uni03CF" unicode="&#x3cf;" horiz-adv-x="1220" 
d="M960 -10l-561 700v-690h-230v1346h230v-645l518 645h259l-529 -633l568 -713zM567 -347v196h21q107 0 174.5 15t112.5 46t85 80l255 10q-57 -122 -134.5 -198.5t-195.5 -112.5t-298 -36h-20z" />
    <glyph glyph-name="uni03D0" unicode="&#x3d0;" horiz-adv-x="1143" 
d="M141 -358v1237q0 170 56 277t155.5 157.5t230.5 50.5q180 0 287 -90.5t107 -242.5q0 -146 -96.5 -236t-272.5 -105l-71 57q249 0 378 -89t129 -274q0 -130 -56 -218t-152.5 -133t-219.5 -45q-62 0 -111 6.5t-93 19.5t-92 31v170q69 -30 133 -44.5t132 -14.5
q115 0 177.5 56t62.5 174q0 124 -82 183t-213 59h-60v156h66q107 0 172 59.5t65 165.5q0 91 -50.5 138t-139.5 47q-67 0 -118 -29.5t-80 -97t-29 -182.5v-1243h-215z" />
    <glyph glyph-name="theta1" unicode="&#x3d1;" horiz-adv-x="1158" 
d="M578 -18q-163 0 -266 82.5t-152 238t-49 374.5q0 218 49 371.5t152 235.5t266 82t266.5 -82t153 -235.5t49.5 -370.5q0 -220 -49.5 -375.5t-153 -238t-266.5 -82.5zM578 144q76 0 125.5 36.5t78.5 106.5t41 168.5t12 222.5q0 122 -12 219t-41 166.5t-78.5 106
t-125.5 36.5q-75 0 -125 -36.5t-78.5 -106t-41 -166.5t-12.5 -219q0 -124 12.5 -222.5t41 -168.5t78.5 -106.5t125 -36.5zM311 606v159h538v-159h-538z" />
    <glyph glyph-name="Upsilon1" unicode="&#x3d2;" horiz-adv-x="1170" 
d="M458 0v519l-458 827h251l331 -624l154 324q57 119 106.5 184t113 90.5t159.5 25.5h55v-197h-16q-44 0 -83.5 -14.5t-79 -57.5t-83.5 -133l-215 -428v-516h-235z" />
    <glyph glyph-name="uni03D3" unicode="&#x3d3;" horiz-adv-x="1170" 
d="M458 0v519l-458 827h251l331 -624l154 324q57 119 106.5 184t113 90.5t159.5 25.5h55v-197h-16q-44 0 -83.5 -14.5t-79 -57.5t-83.5 -133l-215 -428v-516h-235zM-297 1022l58 323h220l-147 -323h-131z" />
    <glyph glyph-name="uni03D4" unicode="&#x3d4;" horiz-adv-x="1170" 
d="M458 0v519l-458 827h251l331 -624l154 324q57 119 106.5 184t113 90.5t159.5 25.5h55v-197h-16q-44 0 -83.5 -14.5t-79 -57.5t-83.5 -133l-215 -428v-516h-235zM772 1486q-45 0 -76 29t-31 74q0 46 31 75.5t76 29.5q46 0 76.5 -29.5t30.5 -75.5q0 -45 -30.5 -74
t-76.5 -29zM405 1486q-46 0 -77 29t-31 74q0 46 31 75.5t77 29.5q44 0 75 -29.5t31 -75.5q0 -45 -31 -74t-75 -29z" />
    <glyph glyph-name="phi1" unicode="&#x3d5;" horiz-adv-x="1436" 
d="M714 -22q-299 0 -457 133.5t-158 372.5q0 242 158 377.5t457 135.5q301 0 462 -135.5t161 -377.5q0 -239 -161 -372.5t-462 -133.5zM714 136q150 0 238 46t125.5 125t37.5 177q0 100 -37.5 180t-125.5 126.5t-238 46.5q-147 0 -233 -46.5t-123.5 -126.5t-37.5 -180
q0 -98 37.5 -177t123.5 -125t233 -46zM619 -358v1704h196v-1704h-196z" />
    <glyph glyph-name="omega1" unicode="&#x3d6;" horiz-adv-x="1215" 
d="M1061 1q-133 0 -205 36t-100 108.5t-28 181.5v478h-701v170h1127v-170h-210v-465q0 -84 22 -126.5t105 -42.5h49v-170h-59zM202 0v877h217v-877h-217z" />
    <glyph glyph-name="uni03D7" unicode="&#x3d7;" horiz-adv-x="1235" 
d="M1081 -10q-164 6 -238.5 81.5t-74.5 206.5q0 45 9.5 107t24.5 123t31 100l-538 -608h-209q37 71 72.5 167t58 211t22.5 243q0 98 -40 148.5t-113 50.5h-30v167h50q111 0 188.5 -28.5t118 -98.5t40.5 -193q0 -71 -12.5 -147.5t-42.5 -162.5l536 618h212
q-26 -55 -54.5 -127.5t-53.5 -155t-41 -170t-16 -172.5q0 -99 41 -146.5t131 -47.5h26v-75zM596 -372v203q124 1 210 24t129.5 72.5t43.5 132.5l200 21q0 -223 -148 -335t-435 -118z" />
    <glyph glyph-name="uni03D8" unicode="&#x3d8;" horiz-adv-x="1505" 
d="M639 -358v421h230v-421h-230zM753 -18q-212 0 -356.5 86.5t-218.5 241.5t-74 362t74 362.5t218.5 242.5t356.5 87q211 0 354.5 -87t218 -242.5t74.5 -362.5t-74.5 -362t-218 -241.5t-354.5 -86.5zM753 172q146 0 236 68t132 181.5t42 250.5q0 139 -42 252.5t-132 181
t-236 67.5q-147 0 -238 -67.5t-132 -181t-41 -252.5q0 -137 41 -250.5t132 -181.5t238 -68z" />
    <glyph glyph-name="uni03D9" unicode="&#x3d9;" horiz-adv-x="1152" 
d="M572 -17q-145 0 -251.5 59.5t-164 172t-57.5 269.5q0 159 57.5 272.5t164 173.5t251.5 60q149 0 256.5 -60t166 -173.5t58.5 -272.5q0 -157 -58.5 -269.5t-166 -172t-256.5 -59.5zM572 151q97 0 153.5 44t81.5 119.5t25 169.5q0 96 -25 172t-81.5 120t-153.5 44
q-93 0 -148 -44t-79.5 -120t-24.5 -172q0 -94 24.5 -169.5t79.5 -119.5t148 -44zM465 -358v404h217v-404h-217z" />
    <glyph glyph-name="uni03DA" unicode="&#x3da;" horiz-adv-x="1267" 
d="M907 -258q16 89 8.5 142t-47.5 76.5t-125 23.5h-91q-166 0 -289 78.5t-191 232.5t-68 377q0 207 72 362.5t210.5 242.5t334.5 87q136 0 252 -45.5t191 -137t85 -226.5h-234q-10 74 -52 122t-104.5 72t-137.5 24q-136 0 -219.5 -68.5t-121.5 -182t-38 -250.5
q0 -174 42.5 -283.5t135 -161t241.5 -51.5h101q173 0 244 -102.5t30 -331.5h-229z" />
    <glyph glyph-name="uni03DB" unicode="&#x3db;" horiz-adv-x="965" 
d="M661 -259q17 93 10.5 143.5t-41.5 73t-104 28.5l-70 6q-112 11 -191.5 58.5t-122.5 144t-43 252.5q0 126 28 224t86.5 166.5t148.5 107t214 45.5q88 7 130.5 35t46.5 86h212q-4 -147 -93.5 -214t-269.5 -77q-112 -7 -173.5 -54.5t-85 -127.5t-23.5 -187
q0 -97 23.5 -154.5t68.5 -84.5t110 -35l95 -10q103 -12 167 -54.5t85.5 -131t-3.5 -240.5h-205z" />
    <glyph glyph-name="uni03DC" unicode="&#x3dc;" horiz-adv-x="1086" 
d="M169 0v1346h859v-192h-629v-372h566v-429h-216v244h-350v-597h-230z" />
    <glyph glyph-name="uni03DD" unicode="&#x3dd;" horiz-adv-x="974" 
d="M151 -358v1333h217v-1333h-217zM295 359v169h577v-169h-577zM295 805v170h618v-170h-618z" />
    <glyph glyph-name="uni03DE" unicode="&#x3de;" horiz-adv-x="1094" 
d="M927 -20q-157 0 -229.5 61.5t-72.5 157.5q0 59 19 123t48 143l38 112h-631l105 306q19 54 35 110.5t16 98.5q0 47 -27 65.5t-62 18.5v190q115 0 181 -28.5t93.5 -77.5t27.5 -113q0 -60 -17.5 -123.5t-43.5 -142.5l-38 -111h625l-105 -307q-19 -54 -34.5 -111.5
t-15.5 -98.5q0 -46 26.5 -64.5t61.5 -18.5v-190z" />
    <glyph glyph-name="uni03DF" unicode="&#x3df;" horiz-adv-x="1051" 
d="M853 -225q-164 0 -236.5 65t-72.5 170q0 55 19.5 127t60.5 176l67 194h-592l110 364q17 55 34 117.5t17 103.5q0 47 -31.5 65.5t-72.5 18.5v190q119 0 186 -29.5t94.5 -79.5t27.5 -114q0 -57 -18.5 -127t-44.5 -157l-52 -173h603l-138 -390q-13 -36 -28 -80t-26.5 -87
t-11.5 -77q0 -48 32 -67.5t73 -19.5v-190z" />
    <glyph glyph-name="uni03E0" unicode="&#x3e0;" horiz-adv-x="1243" 
d="M978 0q0 185 -49 355.5t-137 316t-205 253.5t-253.5 168t-282.5 60v213q183 0 352 -70t312.5 -197t250 -298.5t166 -375t59.5 -425.5h-213zM528 246l-128 126l436 435l126 -127zM287 485l-124 127l446 446l125 -126z" />
    <glyph glyph-name="uni03E1" unicode="&#x3e1;" horiz-adv-x="1277" 
d="M978 -205q51 232 37 423.5t-77.5 342t-164 262t-221.5 185t-250.5 109.5t-250.5 36v213q153 0 309.5 -43t302 -129.5t264 -216.5t196 -304.5t98.5 -393.5t-30 -484h-213zM603 166l-128 126l435 435l126 -127zM362 405l-124 126l445 446l125 -125z" />
    <glyph glyph-name="uni03E2" unicode="&#x3e2;" horiz-adv-x="1904" 
d="M215 -368v188h1155q69 0 104 30.5t35 105.5v199q-30 -40 -79.5 -77t-120.5 -60t-167 -23q-106 0 -175.5 43.5t-103.5 126t-34 199.5v982h229v-954q0 -60 14.5 -107t49.5 -73t96 -26q67 0 121.5 19.5t97 51.5t69.5 68v1021h230v-1374q0 -164 -80.5 -252t-256.5 -88h-1184z
M466 -4q-105 0 -174.5 41.5t-104.5 120.5t-35 192v996h229v-954q0 -60 14.5 -107t49.5 -73t95 -26q68 0 121.5 18.5t96 49t74.5 66.5l48 -144q-79 -74 -179 -127t-235 -53z" />
    <glyph glyph-name="uni03E3" unicode="&#x3e3;" horiz-adv-x="1784" 
d="M205 -358v173h1075q68 0 103.5 29.5t35.5 104.5v199q-45 -60 -128.5 -110t-207.5 -50q-155 0 -230 94t-75 263v630h217v-603q0 -61 14.5 -107.5t50 -73t98.5 -26.5q90 0 153 42.5t105 96.5v671h217v-1003q0 -160 -77.5 -245t-246.5 -85h-1104zM446 -11q-102 0 -169.5 42
t-101 121t-33.5 191v632h216v-603q0 -61 14.5 -107.5t50 -73t97.5 -26.5q92 0 155.5 40t108.5 95l28 -144q-60 -64 -150.5 -115.5t-215.5 -51.5z" />
    <glyph glyph-name="uni03E4" unicode="&#x3e4;" horiz-adv-x="1252" 
d="M853 0v466q-67 -27 -151 -43.5t-190 -16.5q-138 0 -236 53.5t-150 157t-52 253.5q0 235 108 360t347 125h72v-198h-56q-83 0 -134.5 -34.5t-74.5 -99.5t-22 -157q1 -80 24 -138t73 -89t130 -31q71 0 155 13.5t157 43.5v674h230v-1339h-230z" />
    <glyph glyph-name="uni03E5" unicode="&#x3e5;" horiz-adv-x="1153" 
d="M786 290v685h216v-1333h-216v488q-46 -49 -130.5 -91t-198.5 -42q-110 0 -183 42t-109.5 121.5t-36.5 190.5v257q0 184 93 280t306 96h46v-182h-46q-71 0 -111 -25t-56.5 -70.5t-16.5 -104.5v-223q0 -59 15.5 -104t53 -70.5t105.5 -25.5q87 0 156 32.5t113 78.5z" />
    <glyph glyph-name="uni03E6" unicode="&#x3e6;" horiz-adv-x="1329" 
d="M294 -368v187h476q86 0 131.5 46t45.5 122v433q0 90 -50.5 133.5t-146.5 43.5q-78 0 -174 -12.5t-177 -36.5v-548h-230v1346h230v-608q93 25 185.5 43t207.5 18q111 0 198 -38.5t137 -119t50 -207.5v-441q0 -122 -50 -202.5t-137 -119.5t-198 -39h-498z" />
    <glyph glyph-name="uni03E7" unicode="&#x3e7;" horiz-adv-x="1168" 
d="M260 -358v181h367q71 0 110.5 25.5t56 71t16.5 103.5v273q0 59 -15.5 104t-53 70.5t-104.5 25.5q-86 0 -155.5 -33t-113.5 -78v-385h-217v975h217v-430q46 49 130.5 90.5t197.5 41.5q111 0 184 -42t109.5 -120.5t36.5 -191.5v-305q0 -184 -93 -280t-306 -96h-367z" />
    <glyph glyph-name="uni03E8" unicode="&#x3e8;" horiz-adv-x="1212" 
d="M588 -18q-153 0 -269 41t-180 124.5t-64 212.5q0 115 46 194.5t144 136t252 103.5q123 37 189.5 69t92 69.5t25.5 90.5q0 80 -55.5 119.5t-153.5 39.5q-97 0 -165.5 -41t-67.5 -130h-234q0 120 64 197.5t170.5 116t233.5 38.5q136 0 234.5 -39.5t152 -115.5t53.5 -185
q0 -110 -44.5 -183t-134.5 -122.5t-227 -90.5q-130 -39 -205 -75.5t-107 -81.5t-32 -110q0 -95 76.5 -143.5t200.5 -48.5q101 0 172.5 30t109 103.5t37.5 200.5h234q0 -150 -42 -250t-116.5 -159.5t-174 -85t-215.5 -25.5z" />
    <glyph glyph-name="uni03E9" unicode="&#x3e9;" horiz-adv-x="1077" 
d="M534 -15q-128 0 -226 30.5t-153 96.5t-55 171q0 93 40 151.5t119 95.5t193 64q136 31 193 62t57 81q0 55 -42.5 77.5t-106.5 22.5q-77 0 -127.5 -33t-53.5 -112h-203q2 82 33 138.5t85 91.5t122.5 51t145.5 16q71 0 135.5 -15t115 -46t80 -79.5t29.5 -116.5
q0 -81 -39.5 -135t-114 -88.5t-182.5 -60.5q-98 -22 -156 -46t-82.5 -55t-24.5 -76q0 -69 55 -101.5t163 -32.5q113 0 175 58t65 174h204q-2 -140 -59.5 -224t-157 -122t-227.5 -38z" />
    <glyph glyph-name="uni03EA" unicode="&#x3ea;" horiz-adv-x="1246" 
d="M998 50l-338 844q-39 97 -83 157.5t-112.5 89t-179.5 28.5h-95v197h102q122 0 211 -29t154.5 -84.5t115 -134t91.5 -176.5l326 -783zM56 0v159l135 33h888l111 -33v-159h-1134zM249 50l-193 109l328 784q41 98 90.5 176t115.5 133.5t154.5 84.5t208.5 29h93v-197h-85
q-111 0 -180 -30t-113.5 -91t-81.5 -154z" />
    <glyph glyph-name="uni03EB" unicode="&#x3eb;" horiz-adv-x="1110" 
d="M874 50l-278 523q-51 98 -99 150.5t-112.5 72.5t-167.5 20h-85v169h93q157 0 254 -39t161.5 -112t121.5 -178l278 -497zM71 0v159l130 10h730l109 -10v-159h-969zM237 50l-166 109l280 500q43 78 88.5 138t105 102t141.5 64t199 22h84v-169h-76q-102 0 -166.5 -20
t-112 -72t-99.5 -151z" />
    <glyph glyph-name="uni03EC" unicode="&#x3ec;" horiz-adv-x="1432" 
d="M750 -16q-307 0 -476.5 172.5t-169.5 513.5q0 336 178 506t566 170h398v-192h-398q-184 0 -295.5 -48t-161 -154.5t-49.5 -281.5q0 -246 104.5 -372t301.5 -126q177 0 259 84.5t82 213.5q0 132 -84 195.5t-237 63.5q-136 0 -259.5 -45.5t-234.5 -145.5v186
q100 82 234 137.5t298 55.5q159 0 275.5 -46.5t181 -145t64.5 -255.5q0 -147 -66.5 -256.5t-195 -169.5t-315.5 -60z" />
    <glyph glyph-name="uni03ED" unicode="&#x3ed;" horiz-adv-x="1140" 
d="M583 -16q-232 0 -358 123.5t-126 366.5q0 266 155.5 391t488.5 125h249v-161h-249q-157 0 -252.5 -34t-139 -111.5t-43.5 -209.5q0 -166 70 -249.5t205 -83.5q132 0 190 59t58 160q0 104 -68 151t-187 47h-121v149h150q208 0 322 -85t114 -262q0 -178 -118.5 -277
t-339.5 -99z" />
    <glyph glyph-name="uni03EE" unicode="&#x3ee;" horiz-adv-x="1181" 
d="M475 0v1346h230v-1346h-230zM18 578q0 224 101 328t323 104h103v-197h-86q-116 0 -163.5 -55.5t-47.5 -179.5h-230zM932 578q0 124 -47 179.5t-163 55.5h-86v197h103q222 0 323 -104t101 -328h-231z" />
    <glyph glyph-name="uni03EF" unicode="&#x3ef;" horiz-adv-x="985" 
d="M405 -358v1626h216v-1626h-216zM62 616v79q0 146 90.5 213t257.5 67v-171q-98 0 -136 -38.5t-38 -120.5v-29h-174zM586 804v171h338v-171h-338z" />
    <glyph glyph-name="uni03F0" unicode="&#x3f0;" horiz-adv-x="1235" 
d="M1128 -9q-133 0 -212 35.5t-113.5 100t-34.5 151.5q0 45 9.5 107t24.5 123t31 100l-538 -608h-209q37 71 72.5 167t58 211t22.5 243q0 98 -40 148.5t-113 50.5h-30v167h50q111 0 188.5 -28.5t118 -98.5t40.5 -193q0 -71 -12.5 -147.5t-42.5 -162.5l536 622h212
q-26 -55 -54.5 -128t-53.5 -156.5t-41 -171.5t-16 -173q0 -99 41 -145.5t131 -46.5h26v-167h-51z" />
    <glyph glyph-name="uni03F1" unicode="&#x3f1;" horiz-adv-x="1175" 
d="M667 -16q-105 0 -184 34.5t-130 99.5l1 185q38 -64 105.5 -106t168.5 -42q110 0 168 86.5t58 249.5q0 173 -59.5 253t-172.5 80q-121 0 -193 -72.5t-72 -245.5v-504l-215 12v486q0 130 34 223.5t98 154t152 89t196 28.5q211 0 332.5 -127t121.5 -378q0 -170 -51 -282
t-142.5 -168t-215.5 -56zM499 -358q-186 0 -271.5 93t-85.5 279l215 -12q0 -104 43.5 -145.5t128.5 -41.5h489v-173h-519z" />
    <glyph glyph-name="uni03F2" unicode="&#x3f2;" horiz-adv-x="1100" 
d="M569 -15q-135 0 -241 53.5t-167.5 164.5t-61.5 281q0 171 59.5 283.5t165 168t245.5 55.5q118 0 213 -39t151.5 -117t59.5 -197h-211q-5 85 -60 134t-151 49q-129 0 -190 -88.5t-61 -248.5q0 -104 27 -178t82.5 -113t141.5 -39q98 0 157 52t62 150h211q-3 -122 -60 -205
t-153.5 -124.5t-218.5 -41.5z" />
    <glyph glyph-name="uni03F3" unicode="&#x3f3;" horiz-adv-x="519" 
d="M-36 -358v173h50q69 0 103 32.5t34 107.5v1020h217v-1003q0 -160 -77.5 -245t-246.5 -85h-80zM260 1131q-61 0 -94 32t-33 80q0 50 33 82t94 32q60 0 93.5 -32t33.5 -82q0 -48 -33.5 -80t-93.5 -32z" />
    <glyph glyph-name="uni03F4" unicode="&#x3f4;" horiz-adv-x="1505" 
d="M514 589v183h477v-183h-477zM753 -18q-212 0 -356.5 86.5t-218.5 241.5t-74 362t74 362.5t218.5 242.5t356.5 87q211 0 354.5 -87t218 -242.5t74.5 -362.5t-74.5 -362t-218 -241.5t-354.5 -86.5zM753 172q146 0 236 68t132 181.5t42 250.5q0 139 -42 252.5t-132 181
t-236 67.5q-147 0 -238 -67.5t-132 -181t-41 -252.5q0 -137 41 -250.5t132 -181.5t238 -68z" />
    <glyph glyph-name="uni03F5" unicode="&#x3f5;" horiz-adv-x="812" 
d="M630 -16q-152 0 -272 54t-189.5 163.5t-69.5 279.5q0 172 67 284.5t186.5 168t277.5 55.5h93v-170h-91q-155 0 -236 -88.5t-81 -249.5q0 -156 81 -241.5t236 -85.5h109v-170h-111zM257 408v169h412v-169h-412z" />
    <glyph glyph-name="uni03F6" unicode="&#x3f6;" horiz-adv-x="1100" 
d="M418 408v169h414v-169h-414zM531 -15q-121 0 -218 41.5t-154 124.5t-60 205h211q3 -98 62 -150t157 -52q130 0 193 86.5t63 243.5q0 160 -63 248.5t-193 88.5q-96 0 -151 -49t-59 -134h-212q3 119 59.5 197t151.5 117t213 39q140 0 245.5 -55.5t165 -167.5t59.5 -284
q0 -170 -61.5 -280.5t-167.5 -164.5t-241 -54z" />
    <glyph glyph-name="uni03F7" unicode="&#x3f7;" horiz-adv-x="1211" 
d="M169 252v188h487q109 0 177.5 57t68.5 172q0 120 -69 178t-177 58h-487v187h507q129 0 233.5 -47t166 -140.5t61.5 -235.5q0 -139 -61.5 -231.5t-166 -139t-233.5 -46.5h-507zM169 0v1346h230v-1346h-230z" />
    <glyph glyph-name="uni03F8" unicode="&#x3f8;" horiz-adv-x="1175" 
d="M151 -358v1704h217v-525q53 79 132 123.5t186 44.5q122 0 209.5 -56.5t134 -170.5t46.5 -286q0 -165 -51 -274.5t-143 -164t-216 -54.5q-100 0 -173.5 38.5t-125.5 113.5v-493h-216zM617 152q115 0 176 84t61 242q0 170 -58 256.5t-168 86.5q-97 0 -161.5 -53.5
t-98.5 -123.5v-329q35 -70 96.5 -116.5t152.5 -46.5z" />
    <glyph glyph-name="uni03F9" unicode="&#x3f9;" horiz-adv-x="1432" 
d="M753 -18q-207 0 -352 86.5t-221 241.5t-76 362t76 362.5t221 242.5t352 87q147 0 275 -51t210 -153.5t93 -256.5h-234q-11 92 -60 151.5t-123 89t-161 29.5q-147 0 -238 -68.5t-132 -182t-41 -250.5q0 -136 41 -249.5t132 -181.5t238 -68q151 0 242.5 76.5t104.5 222.5
h235q-14 -161 -90 -270.5t-202 -164.5t-290 -55z" />
    <glyph glyph-name="uni03FA" unicode="&#x3fa;" horiz-adv-x="1649" 
d="M169 0v1346h259l451 -755h-92l443 755h251v-1346h-227v1196h92l-448 -769h-145l-458 769h95v-1196h-221z" />
    <glyph glyph-name="uni03FB" unicode="&#x3fb;" horiz-adv-x="1404" 
d="M151 -358v1335h228l324 -510l325 510h225v-977h-207v686l-281 -441h-127l-281 441v-1044h-206z" />
    <glyph glyph-name="uni03FC" unicode="&#x3fc;" horiz-adv-x="1175" 
d="M26 -219v124h568v-124h-568zM353 118l1 185q38 -64 105.5 -106t168.5 -42q110 0 168 86.5t58 249.5q0 173 -60 253t-172 80q-121 0 -193 -72.5t-72 -245.5v-864h-215v858q0 130 34 223.5t98 154t152 89t196 28.5q211 0 332.5 -127t121.5 -378q0 -170 -51 -282
t-142.5 -168t-215.5 -56q-105 0 -184 34.5t-130 99.5z" />
    <glyph glyph-name="uni03FD" unicode="&#x3fd;" horiz-adv-x="1434" 
d="M680 -18q-163 0 -289.5 55t-202.5 164.5t-91 270.5h236q14 -146 105 -222.5t242 -76.5q148 0 238 68t131.5 181.5t41.5 249.5q0 137 -41.5 250.5t-131.5 182t-238 68.5q-86 0 -160 -29.5t-123 -89t-61 -151.5h-234q11 154 93 256.5t210 153.5t275 51q207 0 352 -87
t221 -242.5t76 -362.5t-76 -362t-221 -241.5t-352 -86.5z" />
    <glyph glyph-name="uni03FE" unicode="&#x3fe;" horiz-adv-x="1432" 
d="M753 -18q-207 0 -352 86.5t-221 241.5t-76 362t76 362.5t221 242.5t352 87q147 0 275 -51t210 -153.5t93 -256.5h-234q-11 92 -60 151.5t-123 89t-161 29.5q-147 0 -238 -68.5t-132 -182t-41 -250.5q0 -136 41 -249.5t132 -181.5t238 -68q151 0 242.5 76.5t104.5 222.5
h235q-14 -161 -90 -270.5t-202 -164.5t-290 -55zM755 566q-60 0 -93.5 32t-33.5 80q0 50 33.5 82t93.5 32t93.5 -32t33.5 -82q0 -48 -33.5 -80t-93.5 -32z" />
    <glyph glyph-name="uni03FF" unicode="&#x3ff;" horiz-adv-x="1433" 
d="M680 -18q-163 0 -289.5 55t-202.5 164.5t-91 270.5h236q14 -146 105 -222.5t242 -76.5q148 0 238 68t131.5 181.5t41.5 249.5q0 137 -41.5 250.5t-131.5 182t-238 68.5q-86 0 -160 -29.5t-123 -89t-61 -151.5h-234q11 154 93 256.5t210 153.5t275 51q207 0 352 -87
t221 -242.5t76 -362.5t-76 -362t-221 -241.5t-352 -86.5zM692 557q-60 0 -93.5 32t-33.5 80q0 50 33.5 82t93.5 32t93.5 -32t33.5 -82q0 -48 -33.5 -80t-93.5 -32z" />
    <glyph glyph-name="uni0400" unicode="&#x400;" horiz-adv-x="1157" 
d="M169 0v1346h880v-192h-650v-371h594v-186h-594v-405h650v-192h-880zM552 1458l-266 273h238l191 -273h-163z" />
    <glyph glyph-name="uni0401" unicode="&#x401;" horiz-adv-x="1157" 
d="M169 0v1346h880v-192h-650v-371h594v-186h-594v-405h650v-192h-880zM793 1486q-45 0 -76 29t-31 74q0 46 31 75.5t76 29.5q46 0 76.5 -29.5t30.5 -75.5q0 -45 -30.5 -74t-76.5 -29zM426 1486q-46 0 -77 29t-31 74q0 46 31 75.5t77 29.5q44 0 75 -29.5t31 -75.5
q0 -45 -31 -74t-75 -29z" />
    <glyph glyph-name="uni0402" unicode="&#x402;" horiz-adv-x="1550" 
d="M389 0v1153h-371v193h970v-193h-368v-400q80 42 167.5 70t191.5 28q131 0 224.5 -43t144 -132.5t50.5 -230.5v-303l-230 1v289q0 118 -58.5 172t-174.5 54q-82 0 -159 -20.5t-156 -63.5v-574h-231zM871 -306v197h86q116 0 163.5 60t47.5 192l230 -1q0 -231 -100.5 -339.5
t-323.5 -108.5h-103z" />
    <glyph glyph-name="uni0403" unicode="&#x403;" horiz-adv-x="972" 
d="M169 0v1346h766v-193h-536v-1153h-230zM430 1457l190 273h239l-266 -273h-163z" />
    <glyph glyph-name="uni0404" unicode="&#x404;" horiz-adv-x="1432" 
d="M753 -18q-207 0 -352 86.5t-221 241.5t-76 362t76 362.5t221 242.5t352 87q147 0 275 -51t210 -153.5t93 -256.5h-234q-11 92 -60 151.5t-123 89t-161 29.5q-147 0 -238 -68.5t-132 -182t-41 -250.5q0 -136 41 -249.5t132 -181.5t238 -68q151 0 242.5 76.5t104.5 222.5
h235q-14 -161 -90 -270.5t-202 -164.5t-290 -55zM160 597v186h728v-186h-728z" />
    <glyph glyph-name="uni0405" unicode="&#x405;" horiz-adv-x="1192" 
d="M604 -18q-149 0 -268.5 44t-189.5 138t-70 246h234q2 -92 42 -145t107.5 -75t149.5 -22q78 0 140.5 21t99 65t36.5 111q0 62 -30 102t-101 70.5t-195 64.5q-145 39 -245 87t-151.5 121.5t-51.5 188.5q0 123 59 203.5t165 120.5t248 40q135 0 246.5 -41.5t178.5 -126.5
t67 -214h-234q1 100 -74.5 150.5t-183.5 50.5q-109 0 -174.5 -42.5t-65.5 -127.5q0 -49 28 -84.5t100 -65.5t203 -67q154 -43 252 -92t145 -125.5t47 -201.5q0 -136 -68 -223t-184 -129t-262 -42z" />
    <glyph glyph-name="uni0406" unicode="&#x406;" horiz-adv-x="568" 
d="M169 0v1346h230v-1346h-230z" />
    <glyph glyph-name="uni0407" unicode="&#x407;" horiz-adv-x="568" 
d="M169 0v1346h230v-1346h-230zM468 1486q-45 0 -76 29t-31 74q0 46 31 75.5t76 29.5q46 0 76.5 -29.5t30.5 -75.5q0 -45 -30.5 -74t-76.5 -29zM101 1486q-46 0 -77 29t-31 74q0 46 31 75.5t77 29.5q44 0 75 -29.5t31 -75.5q0 -45 -31 -74t-75 -29z" />
    <glyph glyph-name="uni0408" unicode="&#x408;" horiz-adv-x="715" 
d="M37 -10v197h86q117 0 165.5 56.5t48.5 186.5v916h226v-919q0 -151 -44 -247.5t-137.5 -143t-241.5 -46.5h-103z" />
    <glyph glyph-name="uni0409" unicode="&#x409;" horiz-adv-x="2020" 
d="M987 0v1152h-529l40 194h719v-1346h-230zM15 -15v197h27q61 0 104 26.5t76 99t61.5 207t59.5 348.5l70 483h221l-72 -521q-34 -247 -69.5 -410t-88 -257t-135 -133.5t-210.5 -39.5h-44zM1197 180h224q82 0 144.5 21t98 74t35.5 145q0 131 -78.5 180t-199.5 49h-224v-469z
M1070 0l82 828h278q162 0 273.5 -44.5t169.5 -135.5t58 -230q0 -146 -58 -238.5t-170 -136t-274 -43.5h-359z" />
    <glyph glyph-name="uni040A" unicode="&#x40a;" horiz-adv-x="1969" 
d="M1167 828h213q162 0 273.5 -44.5t169 -135.5t57.5 -230q0 -146 -57.5 -238.5t-169.5 -136t-274 -43.5h-442v598h-538v-598h-230v1346h230v-546h538v546h230v-518zM1167 180h204q82 0 144.5 21t97.5 74t35 145q0 131 -78 180t-199 49h-204v-469z" />
    <glyph glyph-name="uni040B" unicode="&#x40b;" horiz-adv-x="1550" 
d="M389 0v1153h-371v193h970v-193h-368v-400q81 42 169.5 70t194.5 28q129 0 222 -44t142.5 -136t49.5 -236v-435h-230v423q0 122 -57.5 178.5t-170.5 56.5q-84 0 -162 -20.5t-158 -63.5v-574h-231z" />
    <glyph glyph-name="uni040C" unicode="&#x40c;" horiz-adv-x="1220" 
d="M169 0v1346h230v-645l518 645h259l-529 -633l568 -713h-272l-544 690v-690h-230zM504 1458l190 273h239l-266 -273h-163z" />
    <glyph glyph-name="uni040D" unicode="&#x40d;" horiz-adv-x="1463" 
d="M1294 0h-216v1021l-680 -1021h-229v1346h217v-1017l679 1017h229v-1346zM682 1458l-266 273h238l191 -273h-163z" />
    <glyph glyph-name="uni040E" unicode="&#x40e;" horiz-adv-x="1172" 
d="M206 -10v191h75q77 0 125.5 21.5t79.5 81.5l9 18l-490 1044h250l360 -806l310 806h242l-452 -1101q-33 -77 -69.5 -126.5t-84 -77.5t-110 -39.5t-146.5 -11.5h-99zM591 1469q-163 0 -249.5 70.5t-100.5 193.5h178q10 -76 63 -107t114 -31q59 0 111 32t60 106h177
q-15 -122 -102.5 -193t-250.5 -71z" />
    <glyph glyph-name="uni040F" unicode="&#x40f;" horiz-adv-x="1451" 
d="M169 0v1346h230v-1152h653v1152h230v-1346h-1113zM617 -291v473h217v-473h-217z" />
    <glyph glyph-name="uni0410" unicode="&#x410;" horiz-adv-x="1239" 
d="M5 0l495 1346h242l491 -1346h-239l-112 336h-522l-117 -336h-238zM418 529h404l-202 589z" />
    <glyph glyph-name="uni0411" unicode="&#x411;" horiz-adv-x="1252" 
d="M169 0v1346h869v-193h-639v-1153h-230zM263 0l117 808h283q162 0 273.5 -43.5t169 -132.5t57.5 -224q0 -143 -57.5 -233t-169.5 -132.5t-274 -42.5h-399zM399 180h256q81 0 143.5 20.5t97.5 71t35 138.5q0 124 -78 171.5t-198 47.5h-256v-449z" />
    <glyph glyph-name="uni0412" unicode="&#x412;" horiz-adv-x="1252" 
d="M169 0v1346h446q210 0 334 -82t124 -252q0 -107 -56.5 -185.5t-149.5 -107.5q140 -25 218 -112.5t78 -215.5t-57.5 -215.5t-169.5 -131.5t-274 -44h-493zM399 192h256q76 0 138.5 19t100 66.5t37.5 131.5q0 102 -75.5 150t-200.5 48h-256v-415zM399 787h213
q106 0 167.5 51t61.5 142q0 63 -28 102t-79.5 57.5t-121.5 18.5h-213v-371z" />
    <glyph glyph-name="uni0413" unicode="&#x413;" horiz-adv-x="972" 
d="M169 0v1346h766v-193h-536v-1153h-230z" />
    <glyph glyph-name="uni0414" unicode="&#x414;" horiz-adv-x="1433" 
d="M15 -291v479h153q42 98 76 231t61 288t46.5 318t31.5 321h824v-1153h183v-484h-215v291h-943v-291h-217zM405 193h572v959h-401q-7 -85 -18 -185t-27 -206t-35.5 -209.5t-42 -195.5t-48.5 -163z" />
    <glyph glyph-name="uni0415" unicode="&#x415;" horiz-adv-x="1157" 
d="M169 0v1346h880v-192h-650v-371h594v-186h-594v-405h650v-192h-880z" />
    <glyph glyph-name="uni0416" unicode="&#x416;" horiz-adv-x="1846" 
d="M812 0v1346h222v-645l518 645h249l-528 -637l568 -709h-260l-547 690v-690h-222zM5 0l568 709l-529 637h250l518 -645v-11l-547 -690h-260z" />
    <glyph glyph-name="uni0417" unicode="&#x417;" horiz-adv-x="1186" 
d="M587 -17q-158 0 -272.5 48t-175.5 143t-61 237h225q0 -113 74.5 -178.5t208.5 -65.5q129 0 201.5 56.5t72.5 177.5q0 111 -76.5 162.5t-203.5 51.5h-112v183h118q117 0 183.5 53.5t66.5 145.5t-65.5 138t-176.5 46q-122 0 -189 -58t-65 -155h-225q0 129 61.5 217.5
t169.5 134t247 45.5q127 0 233.5 -38t170.5 -115t64 -196q0 -118 -72 -194t-191 -106q129 -24 214 -107.5t85 -219.5q0 -132 -63 -222.5t-177.5 -137t-269.5 -46.5z" />
    <glyph glyph-name="uni0418" unicode="&#x418;" horiz-adv-x="1463" 
d="M1294 0h-216v1021l-680 -1021h-229v1346h217v-1017l679 1017h229v-1346z" />
    <glyph glyph-name="uni0419" unicode="&#x419;" horiz-adv-x="1463" 
d="M1294 0h-216v1021l-680 -1021h-229v1346h217v-1017l679 1017h229v-1346zM737 1469q-163 0 -249.5 70.5t-100.5 193.5h178q10 -76 63 -107t114 -31q59 0 111 32t60 106h177q-15 -122 -102.5 -193t-250.5 -71z" />
    <glyph glyph-name="uni041A" unicode="&#x41a;" horiz-adv-x="1220" 
d="M169 0v1346h230v-645l518 645h259l-529 -633l568 -713h-272l-544 690v-690h-230z" />
    <glyph glyph-name="uni041B" unicode="&#x41b;" horiz-adv-x="1386" 
d="M987 0v1152h-529l40 194h719v-1346h-230zM15 -15v197h27q61 0 104 26.5t76 99t61.5 207t59.5 348.5l70 483h221l-72 -521q-34 -247 -69.5 -410t-88 -257t-135 -133.5t-210.5 -39.5h-44z" />
    <glyph glyph-name="uni041C" unicode="&#x41c;" horiz-adv-x="1649" 
d="M169 0v1346h259l451 -755h-92l443 755h251v-1346h-227v1196h92l-448 -769h-145l-458 769h95v-1196h-221z" />
    <glyph glyph-name="uni041D" unicode="&#x41d;" horiz-adv-x="1471" 
d="M169 0v1346h230v-546h673v546h230v-1346h-230v598h-673v-598h-230z" />
    <glyph glyph-name="uni041E" unicode="&#x41e;" horiz-adv-x="1505" 
d="M753 -18q-212 0 -356.5 86.5t-218.5 241.5t-74 362t74 362.5t218.5 242.5t356.5 87q211 0 354.5 -87t218 -242.5t74.5 -362.5t-74.5 -362t-218 -241.5t-354.5 -86.5zM753 172q146 0 236 68t132 181.5t42 250.5q0 139 -42 252.5t-132 181t-236 67.5q-147 0 -238 -67.5
t-132 -181t-41 -252.5q0 -137 41 -250.5t132 -181.5t238 -68z" />
    <glyph glyph-name="uni041F" unicode="&#x41f;" horiz-adv-x="1451" 
d="M169 0v1346h1113v-1346h-230v1152h-653v-1152h-230z" />
    <glyph glyph-name="uni0420" unicode="&#x420;" horiz-adv-x="1211" 
d="M169 0v1346h507q129 0 233.5 -47.5t166 -141.5t61.5 -236q0 -138 -61.5 -230.5t-166 -139t-233.5 -46.5h-277v-505h-230zM399 692h257q109 0 177.5 57.5t68.5 171.5q0 121 -69 179t-177 58h-257v-466z" />
    <glyph glyph-name="uni0421" unicode="&#x421;" horiz-adv-x="1432" 
d="M753 -18q-207 0 -352 86.5t-221 241.5t-76 362t76 362.5t221 242.5t352 87q147 0 275 -51t210 -153.5t93 -256.5h-234q-11 92 -60 151.5t-123 89t-161 29.5q-147 0 -238 -68.5t-132 -182t-41 -250.5q0 -136 41 -249.5t132 -181.5t238 -68q151 0 242.5 76.5t104.5 222.5
h235q-14 -161 -90 -270.5t-202 -164.5t-290 -55z" />
    <glyph glyph-name="uni0422" unicode="&#x422;" horiz-adv-x="1007" 
d="M389 0v1153h-371v193h971v-193h-369v-1153h-231z" />
    <glyph glyph-name="uni0423" unicode="&#x423;" horiz-adv-x="1172" 
d="M206 -10v191h75q77 0 125.5 21.5t79.5 81.5l9 18l-490 1044h250l360 -806l310 806h242l-452 -1101q-33 -77 -69.5 -126.5t-84 -77.5t-110 -39.5t-146.5 -11.5h-99z" />
    <glyph glyph-name="uni0424" unicode="&#x424;" horiz-adv-x="1565" 
d="M823 136v178h53q178 0 279 92.5t101 279.5q0 177 -103 264.5t-277 87.5h-53v177h64q174 0 310.5 -60.5t215 -178.5t78.5 -290q0 -179 -78.5 -301t-215 -185.5t-310.5 -63.5h-64zM667 -41v1427h231v-1427h-231zM742 136h-63q-173 0 -310 63.5t-216 185.5t-79 301
q0 172 79 290t216 178.5t310 60.5h63v-177h-53q-174 0 -276.5 -87.5t-102.5 -264.5q0 -187 101 -279.5t278 -92.5h53v-178z" />
    <glyph glyph-name="uni0425" unicode="&#x425;" horiz-adv-x="1180" 
d="M9 0l451 700l-417 646h264l282 -484l294 484h253l-416 -648l450 -698h-272l-309 516l-323 -516h-257z" />
    <glyph glyph-name="uni0426" unicode="&#x426;" horiz-adv-x="1508" 
d="M169 0v1346h230v-1152h653v1152h230v-1346h-1113zM1250 -291v291l-11 88l-8 105h234v-484h-215z" />
    <glyph glyph-name="uni0427" unicode="&#x427;" horiz-adv-x="1330" 
d="M931 0v573q-80 -42 -168 -70.5t-192 -28.5q-131 0 -224.5 44t-144 136.5t-50.5 236.5v455h230v-442q0 -123 58.5 -180t174.5 -57q82 0 159 21t157 64v594h230v-1346h-230z" />
    <glyph glyph-name="uni0428" unicode="&#x428;" horiz-adv-x="1932" 
d="M169 0v1346h230v-1152h1134v1152h231v-1346h-1595zM852 47v1299h229v-1299h-229z" />
    <glyph glyph-name="uni0429" unicode="&#x429;" horiz-adv-x="1990" 
d="M169 0v1346h230v-1152h1134v1152h231v-1346h-1595zM852 47v1299h229v-1299h-229zM1732 -291v291l-12 97l-7 96h234v-484h-215z" />
    <glyph glyph-name="uni042A" unicode="&#x42a;" horiz-adv-x="1470" 
d="M491 0l74 828h326q162 0 273.5 -44.5t169.5 -135.5t58 -230q0 -146 -58 -238.5t-169.5 -136t-274.5 -43.5h-399zM397 0v1346h230v-1346h-230zM627 180h256q82 0 144 21t97.5 74t35.5 145q0 131 -78.5 180t-198.5 49h-256v-469zM18 1153v193h576v-193h-576z" />
    <glyph glyph-name="uni042B" unicode="&#x42b;" horiz-adv-x="1677" 
d="M263 0l117 828h231q162 0 273.5 -45t169.5 -136t58 -230q0 -146 -58 -238.5t-169.5 -135.5t-274.5 -43h-347zM169 0v1346h230v-1346h-230zM399 180h205q81 0 143 21t97.5 73.5t35.5 145.5q0 131 -81 180t-217 49h-183v-469zM1278 0v1346h230v-1346h-230z" />
    <glyph glyph-name="uni042C" unicode="&#x42c;" horiz-adv-x="1252" 
d="M169 0v1346h230v-1346h-230zM263 0l117 828h283q162 0 273.5 -44.5t169 -135t57.5 -229.5q0 -146 -57.5 -239t-169.5 -136.5t-274 -43.5h-399zM399 180h256q81 0 143.5 21t97.5 74t35 147q0 129 -78 178t-198 49h-256v-469z" />
    <glyph glyph-name="uni042D" unicode="&#x42d;" horiz-adv-x="1441" 
d="M687 -18q-163 0 -289.5 55t-202.5 164.5t-91 270.5h235q14 -146 105.5 -222.5t242.5 -76.5q148 0 238 68t131 181.5t41 249.5q0 137 -41 250.5t-131 182t-238 68.5q-87 0 -161 -29.5t-123 -89t-61 -151.5h-234q11 154 93.5 256.5t210.5 153.5t275 51q207 0 351.5 -87
t220.5 -242.5t76 -362.5t-76 -362t-220.5 -241.5t-351.5 -86.5zM552 597v186h728v-186h-728z" />
    <glyph glyph-name="uni042E" unicode="&#x42e;" horiz-adv-x="1984" 
d="M169 0v1346h230v-546h394v-202h-394v-598h-230zM1251 -18q-204 0 -344 86.5t-212 241.5t-72 362t72 362.5t212 242.5t344 87q205 0 344.5 -87t211 -242.5t71.5 -362.5t-71.5 -362t-211 -241.5t-344.5 -86.5zM1251 172q140 0 225.5 68t125 181.5t39.5 250.5
q0 139 -39.5 252.5t-125 181t-225.5 67.5q-139 0 -225 -67.5t-125.5 -181t-39.5 -252.5q0 -137 39.5 -250.5t125.5 -181.5t225 -68z" />
    <glyph glyph-name="uni042F" unicode="&#x42f;" horiz-adv-x="1269" 
d="M52 0l104 326q32 98 69 163t90 102t131 49q-149 34 -224.5 124t-75.5 218q0 130 61 210t165.5 117t232.5 37h495v-1346h-230v543h-232q-66 0 -114 -25.5t-82.5 -81.5t-63.5 -151l-87 -285h-239zM639 733h231v421h-241q-119 0 -184 -54t-65 -155q0 -67 33 -114.5t92 -72.5
t134 -25z" />
    <glyph glyph-name="uni0430" unicode="&#x430;" horiz-adv-x="1109" 
d="M410 -17q-84 0 -154.5 31.5t-113.5 95t-43 158.5q0 133 81.5 201t229 93t345.5 28v60q0 109 -54 150t-137 41q-90 0 -150 -44t-60 -141h-205q0 122 52.5 195.5t146 106.5t216.5 33q83 0 156 -15t128.5 -52.5t87 -103t31.5 -167.5v-653h-202l-8 137q-64 -72 -149.5 -113
t-197.5 -41zM475 137q88 0 160 43t118 105v177q-238 -1 -338 -44t-100 -139q0 -68 42.5 -105t117.5 -37z" />
    <glyph glyph-name="uni0431" unicode="&#x431;" horiz-adv-x="1154" 
d="M104 608q0 156 22.5 273.5t71 201t125.5 136.5q106 70 277.5 105t394.5 60l20 2v-187l-20 -2q-239 -27 -377.5 -55t-195.5 -64q-34 -22 -55.5 -64.5t-32.5 -94.5t-15 -104t-4 -92zM588 -16q-236 0 -360 152t-124 472l145 115q17 58 70 116t137.5 96t196.5 38
q109 0 200 -49.5t146.5 -157t55.5 -281.5q0 -232 -120 -366.5t-347 -134.5zM588 151q134 0 190 93t56 241q0 165 -60.5 242.5t-173.5 77.5q-68 0 -123.5 -23t-95.5 -58.5t-66 -74.5v-82q0 -205 69 -310.5t204 -105.5z" />
    <glyph glyph-name="uni0432" unicode="&#x432;" horiz-adv-x="1064" 
d="M151 0v975h395q171 0 273 -60t102 -183q0 -76 -46.5 -133t-122.5 -78q115 -18 179 -81t64 -157q0 -92 -47.5 -155.5t-139 -95.5t-224.5 -32h-433zM369 154h204q57 0 103 12.5t72.5 43t26.5 83.5q0 73 -56 106.5t-151 33.5h-199v-279zM369 578h165q82 0 125 34t43 96
q0 61 -45.5 87.5t-122.5 26.5h-165v-244z" />
    <glyph glyph-name="uni0433" unicode="&#x433;" horiz-adv-x="786" 
d="M151 0v975h217v-975h-217zM246 805v170h513v-170h-513z" />
    <glyph glyph-name="uni0434" unicode="&#x434;" horiz-adv-x="1237" 
d="M18 -256v427h140q38 104 70.5 228t59 268t43.5 308h694v-804h168v-427h-201v256h-773v-256h-201zM378 171h431v631h-296q-12 -102 -32 -210.5t-46 -215t-57 -205.5z" />
    <glyph glyph-name="uni0435" unicode="&#x435;" horiz-adv-x="1109" 
d="M578 -18q-160 0 -266.5 63.5t-159.5 178t-53 265.5q0 152 51.5 264.5t154 175t256.5 62.5q208 0 328 -124t120 -354q0 -14 -1.5 -34.5t-3.5 -29.5h-689q1 -83 27.5 -152.5t84.5 -111.5t151 -42q100 0 157 44.5t60 131.5h213q-5 -108 -58.5 -183.5t-148 -114.5t-223.5 -39
zM317 594h477q-3 118 -65.5 179.5t-167.5 61.5q-108 0 -171.5 -62t-72.5 -179z" />
    <glyph glyph-name="uni0436" unicode="&#x436;" horiz-adv-x="1544" 
d="M-9 0l453 522l-419 453h233l410 -454v454h208v-454l410 454h233l-419 -453l453 -522h-241l-436 511v-511h-208v511l-435 -511h-242z" />
    <glyph glyph-name="uni0437" unicode="&#x437;" horiz-adv-x="1029" 
d="M507 -18q-211 0 -325.5 83t-114.5 248h202q0 -85 62 -127t175 -42q108 0 165 34.5t57 109.5t-58 110t-156 35h-97v156h105q85 0 131.5 37t46.5 94t-50.5 86.5t-137.5 29.5q-98 0 -152 -38.5t-52 -103.5h-203q0 97 52.5 163.5t144.5 100.5t209 34q110 0 199.5 -28
t143 -84.5t53.5 -143.5q0 -85 -58.5 -140.5t-155.5 -76.5q108 -17 178.5 -79t70.5 -161q0 -144 -118 -220.5t-317 -76.5z" />
    <glyph glyph-name="uni0438" unicode="&#x438;" horiz-adv-x="1207" 
d="M151 0v975h202v-687l501 687h202v-975h-202v689l-501 -689h-202z" />
    <glyph glyph-name="uni0439" unicode="&#x439;" horiz-adv-x="1207" 
d="M151 0v975h202v-687l501 687h202v-975h-202v689l-501 -689h-202zM613 1112q-147 0 -224 70.5t-91 193.5h168q9 -74 54 -103t98 -29q51 0 94.5 30t50.5 102h168q-14 -122 -92.5 -193t-225.5 -71z" />
    <glyph glyph-name="uni043A" unicode="&#x43a;" horiz-adv-x="1045" 
d="M151 0v975h217v-454l410 454h242l-413 -452l447 -523h-254l-432 511v-511h-217z" />
    <glyph glyph-name="uni043B" unicode="&#x43b;" horiz-adv-x="1116" 
d="M19 -15v173h14q35 0 60 15.5t44.5 59t37 124.5t36.5 211l63 407h690v-975h-216v805h-294l-39 -267q-24 -162 -48.5 -269.5t-60.5 -169.5t-93 -88t-146 -26h-48z" />
    <glyph glyph-name="uni043C" unicode="&#x43c;" horiz-adv-x="1404" 
d="M151 0v975h228l324 -508l325 508h225v-975h-207v684l-281 -439h-127l-281 439v-684h-206z" />
    <glyph glyph-name="uni043D" unicode="&#x43d;" horiz-adv-x="1186" 
d="M819 0v975h216v-975h-216zM151 0v975h217v-975h-217zM295 418v168h559v-168h-559z" />
    <glyph glyph-name="uni043E" unicode="&#x43e;" horiz-adv-x="1152" 
d="M572 -16q-145 0 -251.5 59.5t-164 172t-57.5 269.5q0 160 57.5 274t164 174t251.5 60q149 0 256.5 -60t166 -174t58.5 -274q0 -157 -58.5 -269.5t-166 -172t-256.5 -59.5zM572 152q98 0 155 44t81 119.5t24 169.5q0 96 -24 173t-81 121.5t-155 44.5q-94 0 -149 -44.5
t-79 -121.5t-24 -173q0 -94 24 -169.5t79 -119.5t149 -44z" />
    <glyph glyph-name="uni043F" unicode="&#x43f;" horiz-adv-x="1166" 
d="M798 0v975h217v-975h-217zM151 0v975h217v-975h-217zM295 805v170h559v-170h-559z" />
    <glyph glyph-name="uni0440" unicode="&#x440;" horiz-adv-x="1175" 
d="M151 -358v1333h207l10 -154q53 79 132 124.5t186 45.5q117 0 204.5 -56t136.5 -168t49 -283q0 -167 -52.5 -278t-145 -167t-212.5 -57q-100 0 -176 40.5t-123 112.5v-493h-216zM617 152q117 0 177 86t60 248q0 167 -56 252t-160 85q-99 0 -167.5 -53.5t-102.5 -121.5
v-333q35 -69 98 -116t151 -47z" />
    <glyph glyph-name="uni0441" unicode="&#x441;" horiz-adv-x="1100" 
d="M569 -15q-135 0 -241 53.5t-167.5 164.5t-61.5 281q0 171 59.5 283.5t165 168t245.5 55.5q118 0 213 -39t151.5 -117t59.5 -197h-211q-5 85 -60 134t-151 49q-129 0 -190 -88.5t-61 -248.5q0 -104 27 -178t82.5 -113t141.5 -39q98 0 157 52t62 150h211q-3 -122 -60 -205
t-153.5 -124.5t-218.5 -41.5z" />
    <glyph glyph-name="uni0442" unicode="&#x442;" horiz-adv-x="874" 
d="M329 0v975h216v-975h-216zM27 805v170h820v-170h-820z" />
    <glyph glyph-name="uni0443" unicode="&#x443;" horiz-adv-x="968" 
d="M109 -358v177h86q58 0 97 25.5t63 84.5l29 71l-384 975h226l274 -759l249 759h219l-358 -975l-41 -107q-36 -96 -80 -150.5t-108.5 -77.5t-161.5 -23h-110z" />
    <glyph glyph-name="uni0444" unicode="&#x444;" horiz-adv-x="1436" 
d="M714 -22q-299 0 -457 133.5t-158 372.5q0 242 158 377.5t457 135.5q301 0 462 -135.5t161 -377.5q0 -239 -161 -372.5t-462 -133.5zM714 136q150 0 238 46t125.5 125t37.5 177q0 100 -37.5 180t-125.5 126.5t-238 46.5q-147 0 -233 -46.5t-123.5 -126.5t-37.5 -180
q0 -98 37.5 -177t123.5 -125t233 -46zM619 -358v1704h196v-1704h-196z" />
    <glyph glyph-name="uni0445" unicode="&#x445;" horiz-adv-x="960" 
d="M6 0l368 546l90 60l228 369h231l-342 -508l-83 -59l-263 -408h-229zM724 0l-264 408l-80 57l-342 510h231l229 -368l84 -57l372 -550h-230z" />
    <glyph glyph-name="uni0446" unicode="&#x446;" horiz-adv-x="1225" 
d="M798 0v975h217v-975h-217zM151 0v975h217v-975h-217zM295 0v169h559v-169h-559zM980 -256v256l-5 29l-6 140h212v-425h-201z" />
    <glyph glyph-name="uni0447" unicode="&#x447;" horiz-adv-x="1144" 
d="M776 0v402q-56 -36 -136 -70t-191 -34q-158 0 -244.5 87.5t-86.5 246.5v343h216v-321q0 -78 40 -126.5t133 -48.5q84 0 149.5 25t119.5 58v413h217v-975h-217z" />
    <glyph glyph-name="uni0448" unicode="&#x448;" horiz-adv-x="1731" 
d="M757 0v975h217v-975h-217zM151 0v975h217v-975h-217zM295 0v169h518v-169h-518zM1363 0v975h217v-975h-217zM901 0v169h518v-169h-518z" />
    <glyph glyph-name="uni0449" unicode="&#x449;" horiz-adv-x="1791" 
d="M757 0v975h217v-975h-217zM151 0v975h217v-975h-217zM295 0v169h518v-169h-518zM1363 0v975h217v-975h-217zM901 0v169h518v-169h-518zM1546 -256v256l-11 52v117h212v-425h-201z" />
    <glyph glyph-name="uni044A" unicode="&#x44a;" horiz-adv-x="1216" 
d="M376 0v975h217v-352h129q124 0 217.5 -29.5t145.5 -97t52 -181.5q0 -165 -113 -240t-301 -75h-347zM593 159h124q94 0 147.5 36t53.5 120q0 86 -54 118t-147 32h-124v-306zM27 805v170h472v-170h-472z" />
    <glyph glyph-name="uni044B" unicode="&#x44b;" horiz-adv-x="1424" 
d="M151 0v975h218v-352h128q125 0 218 -29.5t145.5 -97t52.5 -181.5q0 -166 -113.5 -240.5t-301.5 -74.5h-347zM369 159h124q94 0 147 35.5t53 119.5q0 86 -54 118.5t-146 32.5h-124v-306zM1056 0v975h217v-975h-217z" />
    <glyph glyph-name="uni044C" unicode="&#x44c;" horiz-adv-x="1033" 
d="M151 0v975h218v-352h169q125 0 218 -29.5t145.5 -97t52.5 -181.5q0 -165 -113.5 -240t-301.5 -75h-388zM369 159h165q94 0 147 36t53 120q0 86 -54 118t-146 32h-165v-306z" />
    <glyph glyph-name="uni044D" unicode="&#x44d;" horiz-adv-x="1100" 
d="M524 -23q-120 0 -215 42t-151 124.5t-59 205.5h211q2 -99 60 -150.5t152 -51.5q133 0 198 85t65 247q0 173 -60 256.5t-185 83.5q-101 0 -157.5 -49t-63.5 -134h-212q8 119 65.5 197t153 117t216.5 39q137 0 240 -54.5t161 -167t58 -288.5q0 -174 -62.5 -285t-170 -164
t-244.5 -53zM441 408v169h413v-169h-413z" />
    <glyph glyph-name="uni044E" unicode="&#x44e;" horiz-adv-x="1629" 
d="M151 0v975h217v-975h-217zM295 413v169h462v-169h-462zM1057 -17q-142 0 -245.5 59.5t-159.5 172t-56 269.5q0 159 56 272.5t159.5 173.5t245.5 60q146 0 252 -60t163.5 -173.5t57.5 -272.5q0 -157 -57.5 -269.5t-163.5 -172t-252 -59.5zM1057 151q95 0 151.5 44
t81 119.5t24.5 169.5q0 96 -24.5 172t-81 120t-151.5 44q-90 0 -144 -44t-77.5 -120t-23.5 -172q0 -94 23.5 -169.5t77.5 -119.5t144 -44z" />
    <glyph glyph-name="uni044F" unicode="&#x44f;" horiz-adv-x="1060" 
d="M51 0l79 223q33 94 83 143t140 71q-117 11 -182 80.5t-65 175.5q0 148 111 215t295 67h397v-975h-218v375h-125q-71 0 -114 -22t-70 -68.5t-51 -121.5l-49 -163h-231zM549 525h142v289h-169q-93 0 -144.5 -30.5t-51.5 -112.5q0 -78 61.5 -112t161.5 -34z" />
    <glyph glyph-name="uni0450" unicode="&#x450;" horiz-adv-x="1109" 
d="M578 -18q-160 0 -266.5 63.5t-159.5 178t-53 265.5q0 152 51.5 264.5t154 175t256.5 62.5q208 0 328 -124t120 -354q0 -14 -1.5 -34.5t-3.5 -29.5h-689q1 -83 27.5 -152.5t84.5 -111.5t151 -42q100 0 157 44.5t60 131.5h213q-5 -108 -58.5 -183.5t-148 -114.5t-223.5 -39
zM317 594h477q-3 118 -65.5 179.5t-167.5 61.5q-108 0 -171.5 -62t-72.5 -179zM514 1108l-276 273h238l200 -273h-162z" />
    <glyph glyph-name="uni0451" unicode="&#x451;" horiz-adv-x="1109" 
d="M578 -18q-160 0 -266.5 63.5t-159.5 178t-53 265.5q0 152 51.5 264.5t154 175t256.5 62.5q208 0 328 -124t120 -354q0 -14 -1.5 -34.5t-3.5 -29.5h-689q1 -83 27.5 -152.5t84.5 -111.5t151 -42q100 0 157 44.5t60 131.5h213q-5 -108 -58.5 -183.5t-148 -114.5t-223.5 -39
zM317 594h477q-3 118 -65.5 179.5t-167.5 61.5q-108 0 -171.5 -62t-72.5 -179zM746 1140q-45 0 -76 29t-31 74q0 46 31 75t76 29q46 0 76.5 -29t30.5 -75q0 -45 -30.5 -74t-76.5 -29zM379 1140q-46 0 -77 29t-31 74q0 46 31 75t77 29q44 0 75 -29t31 -75q0 -45 -31 -74
t-75 -29z" />
    <glyph glyph-name="uni0452" unicode="&#x452;" horiz-adv-x="1157" 
d="M151 0v1348h213v-521q48 61 130 110t210 49q157 0 234 -91t77 -263v-660l-216 -17v648q0 61 -14.5 108t-50 73t-98.5 26q-94 0 -159.5 -42.5t-108.5 -96.5v-671h-217zM611 -358v173h51q69 0 103 32.5t34 107.5l216 17q0 -160 -77.5 -245t-246.5 -85h-80zM25 1105v125h571
v-125h-571z" />
    <glyph glyph-name="uni0453" unicode="&#x453;" horiz-adv-x="786" 
d="M151 0v975h217v-975h-217zM246 805v170h513v-170h-513zM295 1108l200 273h240l-277 -273h-163z" />
    <glyph glyph-name="uni0454" unicode="&#x454;" horiz-adv-x="1100" 
d="M246 408v169h412v-169h-412zM569 -15q-135 0 -241 53.5t-167.5 164.5t-61.5 281q0 171 59.5 283.5t165 168t245.5 55.5q118 0 213 -39t151.5 -117t59.5 -197h-211q-5 85 -60 134t-151 49q-129 0 -190 -88.5t-61 -248.5q0 -104 27 -178t82.5 -113t141.5 -39q98 0 157 52
t62 150h211q-3 -122 -60 -205t-153.5 -124.5t-218.5 -41.5z" />
    <glyph glyph-name="uni0455" unicode="&#x455;" horiz-adv-x="1026" 
d="M520 -18q-82 0 -157.5 16.5t-135 54.5t-94 101t-34.5 155h204q0 -98 64 -137t155 -39q86 0 138 30.5t52 101.5q0 63 -53 94t-185 61q-109 27 -188.5 62t-122 92.5t-42.5 147.5q0 70 31.5 121t85.5 84t124 49t148 16q75 0 145 -16.5t125 -53.5t87 -97t32 -147h-203
q0 89 -55 125.5t-131 36.5q-80 0 -127.5 -26t-47.5 -84q0 -33 25 -56.5t81.5 -43t151.5 -41.5q102 -24 177 -59.5t115.5 -93t40.5 -149.5q0 -82 -32.5 -140t-88.5 -94.5t-129.5 -53.5t-155.5 -17z" />
    <glyph glyph-name="uni0456" unicode="&#x456;" horiz-adv-x="519" 
d="M151 0v975h217v-975h-217zM260 1131q-61 0 -94 32t-33 80q0 50 33 82t94 32q60 0 93.5 -32t33.5 -81t-33.5 -81t-93.5 -32z" />
    <glyph glyph-name="uni0457" unicode="&#x457;" horiz-adv-x="519" 
d="M423 1140q-45 0 -75.5 29t-30.5 74q0 46 30.5 75t75.5 29q46 0 76.5 -29t30.5 -75q0 -45 -30.5 -74t-76.5 -29zM97 1140q-46 0 -77 29t-31 74q0 46 31 75t77 29q44 0 75 -29t31 -75q0 -45 -31 -74t-75 -29zM151 0v975h217v-975h-217z" />
    <glyph glyph-name="uni0458" unicode="&#x458;" horiz-adv-x="519" 
d="M-36 -358v173h50q69 0 103 32.5t34 107.5v1020h217v-1003q0 -160 -77.5 -245t-246.5 -85h-80zM260 1131q-61 0 -94 32t-33 80q0 50 33 82t94 32q60 0 93.5 -32t33.5 -82q0 -48 -33.5 -80t-93.5 -32z" />
    <glyph glyph-name="uni0459" unicode="&#x459;" horiz-adv-x="1538" 
d="M913 623h130q125 0 218 -29.5t145.5 -97t52.5 -181.5q0 -165 -113.5 -240t-301.5 -75h-347v805h-247l-72 -496q-13 -94 -40.5 -156.5t-67.5 -99.5t-91 -52.5t-112 -15.5h-48v173h14q29 0 52 7.5t41 28.5t31.5 59t22.5 99l95 623h638v-352zM913 159h125q95 0 148 36
t53 120q0 86 -54 118t-147 32h-125v-306z" />
    <glyph glyph-name="uni045A" unicode="&#x45a;" horiz-adv-x="1608" 
d="M767 0v975h216v-352h130q125 0 218.5 -29.5t145.5 -97t52 -181.5q0 -165 -113 -240t-301 -75h-348zM151 0v975h217v-975h-217zM295 439v169h507v-169h-507zM983 159h126q94 0 147.5 36t53.5 120q0 86 -54 118t-147 32h-126v-306z" />
    </font>
</defs>
</svg>
