<?xml version="1.0" standalone="no"?>
<!DOCTYPE svg PUBLIC "-//W3C//DTD SVG 1.1//EN" "http://www.w3.org/Graphics/SVG/1.1/DTD/svg11.dtd" >
<svg xmlns="http://www.w3.org/2000/svg" xmlns:xlink="http://www.w3.org/1999/xlink" version="1.1">
<metadata>
Created by FontForge 20201107 at Mon Jun 19 17:25:58 2023
 By 
(c) 2023 Microsoft Corporation. All Rights Reserved.
</metadata>
<defs>
<font id="Aptos-Light" horiz-adv-x="1094" >
  <font-face 
    font-family="Aptos Light"
    font-weight="300"
    font-stretch="normal"
    units-per-em="2048"
    panose-1="2 11 0 4 2 2 2 2 2 4"
    ascent="1638"
    descent="-410"
    x-height="973"
    cap-height="1346"
    bbox="-979 -563 2257 2068"
    underline-thickness="50"
    underline-position="-125"
    unicode-range="U+000D-FDFC"
  />
<missing-glyph horiz-adv-x="965" 
d="M0 0v1354h965v-1354h-965zM481 223q-29 0 -49 20.5t-20 51.5q0 29 20 49.5t49 20.5t50.5 -20.5t21.5 -49.5q0 -31 -21.5 -51.5t-50.5 -20.5zM59 59h846v1235h-846v-1235zM442 492q-3 81 29 137t90 102q59 47 87 86t28 98q0 67 -47.5 112.5t-145.5 45.5q-94 0 -149 -49.5
t-55 -140.5h-78q0 123 79.5 190.5t202.5 67.5q125 0 199 -61t74 -165q0 -79 -39.5 -129t-104.5 -104q-60 -49 -76.5 -90.5t-19.5 -99.5h-74z" />
    <glyph glyph-name="uniFB01" unicode="fi" horiz-adv-x="1041" 
d="M201 0v872h-164v101h164v69q0 67 10 123t36.5 96.5t75 62.5t126.5 22h104v-101h-92q-95 0 -119.5 -54.5t-24.5 -152.5v-65h236v-101h-236v-872h-116zM752 0v973h119v-973h-119zM811 1184q-35 0 -58.5 22.5t-23.5 57.5t23.5 58.5t58.5 23.5q34 0 58 -23.5t24 -58.5
t-24 -57.5t-58 -22.5z" />
    <glyph glyph-name="uniFB02" unicode="fl" horiz-adv-x="1078" 
d="M201 0v872h-164v101h164v69q0 67 10 123t36.5 96.5t75 62.5t126.5 22h104v-101h-92q-95 0 -119.5 -54.5t-24.5 -152.5v-65h236v-101h-236v-872h-116zM990 0q-104 0 -158 38.5t-73 107t-19 157.5v1043h118v-1039q0 -98 24.5 -152.5t119.5 -54.5h37v-100h-49z" />
    <glyph glyph-name="f_f.liga" unicode="ff" horiz-adv-x="1164" 
d="M201 0v872h-164v101h164v69q0 67 10 123t36.5 96.5t75 62.5t126.5 22h104v-101h-92q-95 0 -119.5 -54.5t-24.5 -152.5v-65h236v-101h-236v-872h-116zM783 0v872h-164v101h164v69q0 67 10 123t36.5 96.5t75 62.5t126.5 22h104v-101h-92q-95 0 -119.5 -54.5t-24.5 -152.5
v-65h236v-101h-236v-872h-116z" />
    <glyph glyph-name="uniFDFC" unicode="&#xfdfc;" horiz-adv-x="1672" arabic-form="isolated" 
d="M375 86q-130 0 -196 62t-66 186q0 35 6 76t18 86l107 -2q-13 -42 -19 -83.5t-6 -76.5q0 -76 39 -106.5t119 -30.5q128 0 196 58.5t68 221.5v678h107v-674q0 -204 -92 -299.5t-281 -95.5zM791 -2q-28 0 -47 19t-19 46q0 28 19 47t47 19q27 0 46 -19t19 -47q0 -27 -19 -46
t-46 -19zM995 -2q-28 0 -46.5 19t-18.5 46q0 28 18.5 47t46.5 19t47 -19t19 -47q0 -27 -19 -46t-47 -19zM1190 4v109h35q115 0 172 53.5t57 142.5q0 57 -15 120t-40 136h117q21 -79 32 -139.5t11 -120.5q0 -132 -75 -216.5t-257 -84.5h-37zM1079 221q-106 0 -161.5 59
t-55.5 189v686h107v-686q0 -73 28.5 -106t81.5 -33q60 0 92.5 26t32.5 76q0 37 -6.5 80t-21.5 104h108q12 -61 18.5 -105t6.5 -85q0 -95 -60 -150t-170 -55z" />
    <glyph glyph-name=".notdef" horiz-adv-x="965" 
d="M0 0v1354h965v-1354h-965zM481 223q-29 0 -49 20.5t-20 51.5q0 29 20 49.5t49 20.5t50.5 -20.5t21.5 -49.5q0 -31 -21.5 -51.5t-50.5 -20.5zM59 59h846v1235h-846v-1235zM442 492q-3 81 29 137t90 102q59 47 87 86t28 98q0 67 -47.5 112.5t-145.5 45.5q-94 0 -149 -49.5
t-55 -140.5h-78q0 123 79.5 190.5t202.5 67.5q125 0 199 -61t74 -165q0 -79 -39.5 -129t-104.5 -104q-60 -49 -76.5 -90.5t-19.5 -99.5h-74z" />
    <glyph glyph-name=".null" horiz-adv-x="0" 
 />
    <glyph glyph-name="uni000D" unicode="&#xd;" horiz-adv-x="0" 
 />
    <glyph glyph-name="space" unicode=" " horiz-adv-x="416" 
 />
    <glyph glyph-name="exclam" unicode="!" horiz-adv-x="600" 
d="M265 391q-14 122 -20.5 268.5t-6.5 284.5v402h127v-402q0 -138 -6.5 -285.5t-21.5 -267.5h-72zM302 -8q-45 0 -76 31t-31 77q0 44 31 74.5t76 30.5q43 0 73.5 -30.5t30.5 -74.5q0 -46 -30.5 -77t-73.5 -31z" />
    <glyph glyph-name="quotedbl" unicode="&#x22;" horiz-adv-x="706" 
d="M463 899q-10 95 -16.5 183t-6.5 194v70h125v-70q0 -107 -5.5 -193t-16.5 -184h-80zM164 899q-9 95 -16 183t-7 194v70h127v-70q0 -107 -6.5 -193t-15.5 -184h-82z" />
    <glyph glyph-name="numbersign" unicode="#" horiz-adv-x="1100" 
d="M207 0l60 420h-207v86h217l43 293h-209v84h219l60 420h94l-60 -420h322l59 420h94l-59 -420h199v-84h-209l-41 -293h197v-86h-209l-58 -420h-94l57 420h-321l-60 -420h-94zM371 506h324l41 293h-322z" />
    <glyph glyph-name="dollar" unicode="$" 
d="M551 -18q-125 0 -230 39.5t-168 129.5t-63 240h129q0 -118 47.5 -183.5t123.5 -91.5t163 -26q89 0 163 26.5t118.5 82.5t44.5 145q0 81 -35.5 135t-110.5 91t-196 65v-6q-148 34 -237.5 82t-129 115t-39.5 157q0 105 48 180.5t137.5 116.5t213.5 41q120 0 216.5 -40.5
t153 -120.5t56.5 -199h-129q2 127 -82 189t-215 62q-127 0 -200.5 -56t-73.5 -169q0 -95 70.5 -149t248.5 -99v4q108 -27 188 -59t133 -76.5t79 -106t26 -147.5q0 -117 -57 -200.5t-158.5 -127.5t-234.5 -44zM496 -217v1745h100v-1745h-100z" />
    <glyph glyph-name="percent" unicode="%" horiz-adv-x="1676" 
d="M387 0l793 1303h108l-792 -1303h-109zM383 514q-104 0 -165.5 54t-87.5 145.5t-26 204.5t26 204t87.5 145t165.5 54q105 0 166 -53.5t87 -144.5t26 -205q0 -113 -26 -204.5t-87 -145.5t-166 -54zM383 604q70 0 107.5 46.5t52 118.5t14.5 149t-14.5 148.5t-52 118
t-107.5 46.5q-69 0 -107 -46.5t-52.5 -118t-14.5 -148.5t14.5 -149t52.5 -118.5t107 -46.5zM1292 -18q-104 0 -165 53.5t-87 145t-26 204.5t26 204t87 145t165 54q105 0 166 -53.5t87 -144.5t26 -205q0 -113 -26 -204.5t-87 -145t-166 -53.5zM1292 72q70 0 107.5 46
t52 117.5t14.5 149.5q0 77 -14.5 148.5t-52 117t-107.5 45.5q-69 0 -106.5 -45.5t-51.5 -117t-14 -148.5q0 -78 14 -149.5t51.5 -117.5t106.5 -46z" />
    <glyph glyph-name="ampersand" unicode="&#x26;" horiz-adv-x="1282" 
d="M549 -14q-127 0 -225.5 47.5t-154.5 132.5t-56 196q0 120 54.5 201t138.5 137.5t173 104.5h13q69 39 126.5 79.5t92 91.5t34.5 122q0 75 -45.5 120.5t-119.5 45.5q-82 0 -131.5 -44.5t-49.5 -121.5q0 -67 41.5 -133t126.5 -164l697 -801h-150l-639 735
q-85 97 -137.5 183.5t-52.5 181.5q0 83 40.5 142t107.5 90.5t147 31.5q83 0 146 -35.5t98.5 -95.5t35.5 -135q0 -91 -39.5 -155t-102.5 -111.5t-134 -90.5h-15q-97 -52 -170 -101.5t-114 -114t-41 -163.5q0 -112 77 -192t228 -80q128 0 231 56t154 147q41 72 62.5 161
t21.5 199h129q0 -78 -16.5 -160t-47 -156.5t-71.5 -131.5q-76 -106 -196 -162.5t-267 -56.5z" />
    <glyph glyph-name="quotesingle" unicode="'" horiz-adv-x="409" 
d="M164 897q-9 95 -16 183.5t-7 195.5v70h127v-70q0 -109 -6.5 -195t-15.5 -184h-82z" />
    <glyph glyph-name="parenleft" unicode="(" horiz-adv-x="600" 
d="M419 -360q-83 137 -142 270t-90.5 275t-31.5 307q0 157 31.5 306t90.5 288.5t142 267.5h94q-124 -202 -181.5 -432.5t-57.5 -472.5q0 -209 66.5 -422.5t172.5 -386.5h-94z" />
    <glyph glyph-name="parenright" unicode=")" horiz-adv-x="600" 
d="M87 -360q126 203 183.5 433.5t57.5 473.5q0 209 -67.5 421t-173.5 386h94q84 -136 143.5 -268.5t91 -274.5t31.5 -307q0 -157 -32 -306.5t-91.5 -289.5t-142.5 -268h-94z" />
    <glyph glyph-name="asterisk" unicode="*" horiz-adv-x="936" 
d="M271 676l-66 47l192 243l-288 81l27 78l290 -86v294h82v-294l289 86l29 -78l-294 -81l190 -243l-68 -47l-190 247z" />
    <glyph glyph-name="plus" unicode="+" 
d="M131 727h830v-113h-830v113zM489 256v829h113v-829h-113z" />
    <glyph glyph-name="comma" unicode="," horiz-adv-x="571" 
d="M174 -262l-45 76q53 27 96.5 76t53.5 110l8 -8q-46 0 -77.5 31t-31.5 77q0 45 31.5 76t77.5 31q44 0 75 -32t31 -101q0 -82 -27 -143.5t-76 -108t-116 -84.5z" />
    <glyph glyph-name="hyphen" unicode="-" horiz-adv-x="697" 
d="M113 444v109h471v-109h-471z" />
    <glyph glyph-name="period" unicode="." horiz-adv-x="571" 
d="M287 -8q-46 0 -77.5 31t-31.5 77q0 45 31.5 76t77.5 31q44 0 75 -31t31 -76q0 -46 -31 -77t-75 -31z" />
    <glyph glyph-name="slash" unicode="/" horiz-adv-x="647" 
d="M18 0l490 1346h121l-490 -1346h-121z" />
    <glyph glyph-name="zero" unicode="0" 
d="M547 -18q-131 0 -217 55t-135.5 149.5t-70 214t-20.5 248.5q0 131 20.5 251.5t70 215t135.5 150t217 55.5t217 -55t135 -150t69.5 -215t20.5 -250t-20.5 -250t-69.5 -214.5t-135 -149.5t-217 -55zM547 86q97 0 158.5 50.5t95 133t46.5 182.5t13 199t-13 199t-46.5 183
t-95 133.5t-158.5 50.5t-159 -50.5t-96.5 -133.5t-47.5 -183t-13 -199t13 -199t47.5 -182.5t96.5 -133t159 -50.5z" />
    <glyph glyph-name="one" unicode="1" 
d="M555 0v1143q-24 -36 -75 -71.5t-120 -63t-149 -39.5v114q78 11 151 50t128.5 88t80.5 88h107v-1309h-123z" />
    <glyph glyph-name="two" unicode="2" 
d="M104 0v106l455 416q138 126 199 224t61 208q0 113 -63.5 185.5t-204.5 72.5q-158 0 -226.5 -77t-68.5 -193h-123q0 111 45 196t138 133t235 48q130 0 217.5 -46.5t131.5 -128.5t44 -190q0 -100 -40.5 -185.5t-108.5 -161.5t-150 -150l-385 -348h723v-109h-879z" />
    <glyph glyph-name="three" unicode="3" 
d="M557 -18q-196 0 -320 105.5t-124 295.5h123q0 -133 85 -214t234 -81q140 0 222.5 67.5t82.5 209.5q0 135 -88 200.5t-246 65.5h-75v108h77q142 0 213.5 70t71.5 186q0 108 -73 162.5t-189 54.5q-133 0 -207 -72t-74 -186h-123q0 106 49.5 188.5t139.5 130.5t213 48
q109 0 196.5 -38t139 -110.5t51.5 -177.5q0 -115 -67 -192.5t-175 -108.5q126 -22 208.5 -106.5t82.5 -222.5q0 -123 -55 -208.5t-151.5 -130t-221.5 -44.5z" />
    <glyph glyph-name="four" unicode="4" 
d="M719 0v276h-653v113l649 924h123v-926h182v-111h-182v-276h-119zM190 387h529v752z" />
    <glyph glyph-name="five" unicode="5" 
d="M545 -18q-124 0 -222.5 44.5t-156 125t-57.5 188.5h124q0 -115 86.5 -183.5t225.5 -68.5q150 0 231.5 83.5t81.5 240.5q0 160 -80.5 238.5t-220.5 78.5q-103 0 -171.5 -29t-115.5 -82h-108l57 685h680v-111h-586l-41 -471q39 46 108.5 80.5t182.5 34.5q118 0 213 -46.5
t151 -140.5t56 -237q0 -138 -55.5 -234t-154 -146t-228.5 -50z" />
    <glyph glyph-name="six" unicode="6" 
d="M580 -18q-135 0 -241.5 66t-168 211.5t-61.5 383.5q0 231 58 380.5t164 222.5t249 73q146 0 255.5 -75.5t141.5 -239.5h-125q-23 103 -92.5 155.5t-179.5 52.5q-160 0 -254.5 -135.5t-94.5 -433.5v-45q0 -187 48 -299t128 -161.5t175 -49.5q150 0 221 90.5t71 222.5
q0 137 -70 216t-198 79q-141 0 -247.5 -64.5t-159.5 -144.5l-19 97q42 62 107.5 112t149 79.5t179.5 29.5q110 0 196.5 -45.5t136.5 -133.5t50 -216q0 -126 -49 -222.5t-142.5 -151t-227.5 -54.5z" />
    <glyph glyph-name="seven" unicode="7" 
d="M285 0l581 1192h-764v111h885v-111l-571 -1192h-131z" />
    <glyph glyph-name="eight" unicode="8" 
d="M547 -18q-90 0 -169 23.5t-139 70.5t-94 118t-34 166q0 126 77 214t191 114q-100 32 -157.5 110.5t-57.5 190.5q0 114 56.5 187.5t144 109t180.5 35.5t181 -35.5t145 -109t57 -187.5q0 -115 -65.5 -193.5t-157.5 -107.5q118 -26 197 -112.5t79 -215.5q0 -95 -34 -166
t-93.5 -118t-138 -70.5t-168.5 -23.5zM547 88q86 0 157 29.5t113.5 90t42.5 152.5q0 91 -44 152.5t-115.5 92.5t-153.5 28q-79 3 -150 -27t-116 -91.5t-45 -154.5q0 -135 91 -203.5t220 -68.5zM547 741q66 -3 125 24.5t96 82.5t37 135q0 120 -75.5 174.5t-182.5 54.5
q-66 0 -125 -24t-96 -74.5t-37 -130.5q0 -79 37.5 -134t97 -83t123.5 -25z" />
    <glyph glyph-name="nine" unicode="9" 
d="M510 -18q-102 0 -187 35t-140.5 105.5t-71.5 174.5h125q17 -94 87 -151.5t187 -57.5q169 0 266.5 135.5t97.5 433.5v31q0 198 -46 313t-121.5 164t-165.5 49q-158 0 -234 -91.5t-76 -225.5q0 -135 73.5 -214t205.5 -79q99 0 172 30t125.5 76.5t87.5 94.5l23 -92
q-41 -59 -102 -108.5t-140.5 -79t-175.5 -29.5q-117 0 -205.5 46.5t-138.5 135t-50 213.5q0 124 53 221t150.5 153t229.5 56q133 0 236.5 -66.5t162.5 -212.5t59 -385q0 -228 -59.5 -377.5t-168.5 -223.5t-259 -74z" />
    <glyph glyph-name="colon" unicode=":" horiz-adv-x="571" 
d="M287 -8q-46 0 -77.5 31t-31.5 77q0 45 31.5 76t77.5 31q44 0 75 -31t31 -76q0 -46 -31 -77t-75 -31zM287 758q-46 0 -77.5 31t-31.5 77q0 45 31.5 76t77.5 31q44 0 75 -31t31 -76q0 -46 -31 -77t-75 -31z" />
    <glyph glyph-name="semicolon" unicode=";" horiz-adv-x="571" 
d="M174 -262l-45 76q53 27 96.5 76t53.5 110l8 -8q-46 0 -77.5 31t-31.5 77q0 45 31.5 76t77.5 31q44 0 75 -32t31 -101q0 -82 -27 -143.5t-76 -108t-116 -84.5zM287 758q-46 0 -77.5 31t-31.5 77q0 45 31.5 76t77.5 31q44 0 75 -31t31 -76q0 -46 -31 -77t-75 -31z" />
    <glyph glyph-name="less" unicode="&#x3c;" 
d="M133 741l830 396v-113l-830 -393v110zM133 600v111l830 -392v-114z" />
    <glyph glyph-name="equal" unicode="=" 
d="M131 463v115h830v-115h-830zM131 766v113h830v-113h-830z" />
    <glyph glyph-name="greater" unicode="&#x3e;" 
d="M961 741v-110l-830 393v113zM961 600l-830 -395v114l830 392v-111z" />
    <glyph glyph-name="question" unicode="?" horiz-adv-x="1010" 
d="M453 393v10v9q0 113 45 189t133 149q84 69 127 127.5t43 146.5q0 100 -70 168t-215 68q-141 0 -224 -74t-83 -211h-119q0 122 55.5 208t151.5 131.5t219 45.5q124 0 214.5 -41t140 -116t49.5 -179q0 -80 -26.5 -138t-74 -107.5t-112.5 -102.5q-59 -49 -89.5 -91.5
t-42 -88t-14.5 -103.5h-108zM510 -8q-43 0 -73.5 31t-30.5 77q0 44 30.5 74.5t73.5 30.5q44 0 75 -30.5t31 -74.5q0 -46 -31 -77t-75 -31z" />
    <glyph glyph-name="at" unicode="@" horiz-adv-x="1827" 
d="M926 -215q-240 0 -423.5 99t-286.5 277t-103 414q0 178 59.5 323t168 249.5t254.5 160.5t318 56q174 0 320 -56t254 -160t167.5 -247.5t59.5 -318.5q0 -157 -45 -248.5t-118 -130.5t-156 -39q-94 0 -154 41t-76 127q-34 -74 -109.5 -121t-172.5 -47q-116 0 -195 50.5
t-119.5 141t-40.5 209.5q0 120 43.5 210.5t126 141t197.5 50.5q94 0 160 -41.5t94 -94.5l6 125h113v-559q0 -76 33.5 -107.5t99.5 -31.5q71 0 116 41t67 114.5t22 168.5q0 210 -90.5 365.5t-247 241t-355.5 85.5q-200 0 -356 -86t-245 -243t-89 -370q0 -219 91.5 -375.5
t249.5 -240.5t358 -84q95 0 188.5 20t175.5 54v-101q-81 -31 -173 -47t-187 -16zM883 260q97 0 155.5 41.5t84.5 111t26 152.5t-25.5 152.5t-81.5 111t-147 41.5q-94 0 -149.5 -41.5t-80 -111t-24.5 -152.5t24 -152.5t77 -111t141 -41.5z" />
    <glyph glyph-name="A" unicode="A" horiz-adv-x="1176" 
d="M10 0l514 1346h138l503 -1346h-133l-143 418h-594l-152 -418h-133zM334 528h512l-254 689z" />
    <glyph glyph-name="B" unicode="B" horiz-adv-x="1221" 
d="M184 0v1346h418q195 0 313.5 -82t118.5 -248q0 -106 -62 -193t-165 -108q140 -20 227.5 -110t87.5 -222q0 -115 -50 -201.5t-156.5 -134t-274.5 -47.5h-457zM313 109h328q95 0 175.5 24t129.5 84.5t49 169.5q0 129 -92.5 195.5t-261.5 66.5h-328v-540zM313 760h289
q154 0 229.5 68.5t75.5 179.5q0 74 -34 125t-101.5 77.5t-169.5 26.5h-289v-477z" />
    <glyph glyph-name="C" unicode="C" horiz-adv-x="1403" 
d="M748 -18q-212 0 -353 89t-211.5 244.5t-70.5 356.5t70.5 357t211.5 245.5t353 89.5q128 0 245 -45t197.5 -139t97.5 -242h-127q-13 111 -74.5 182t-151 105.5t-187.5 34.5q-178 0 -288.5 -78.5t-161 -211.5t-50.5 -298q0 -164 50.5 -296.5t161 -210t288.5 -77.5
q176 0 288.5 86t130.5 262h129q-18 -156 -96 -256.5t-196 -149t-256 -48.5z" />
    <glyph glyph-name="D" unicode="D" horiz-adv-x="1383" 
d="M184 0v1346h428q209 0 355.5 -79.5t223.5 -230.5t77 -364q0 -212 -77 -362.5t-223.5 -230t-355.5 -79.5h-428zM313 109h254q194 0 319.5 61t187 186t61.5 316q0 193 -61.5 318t-187 186t-319.5 61h-254v-1128z" />
    <glyph glyph-name="E" unicode="E" horiz-adv-x="1122" 
d="M184 0v1346h836v-109h-707v-487h656v-109h-656v-532h707v-109h-836z" />
    <glyph glyph-name="F" unicode="F" horiz-adv-x="1061" 
d="M184 0v1346h817v-109h-688v-487h625v-109h-625v-641h-129z" />
    <glyph glyph-name="G" unicode="G" horiz-adv-x="1442" 
d="M748 -18q-212 0 -353 88t-211.5 243.5t-70.5 358.5q0 204 70.5 360t211.5 244t353 88q103 0 195.5 -26t167 -78t121.5 -130.5t58 -183.5h-127q-11 82 -63 153.5t-141 116t-211 44.5q-178 0 -290 -78t-164 -211t-52 -299q0 -165 52 -297t164 -208.5t290 -76.5
q161 0 261.5 59t147.5 164t47 242h-430v111h553v-88q0 -176 -63 -310.5t-191 -210t-325 -75.5z" />
    <glyph glyph-name="H" unicode="H" horiz-adv-x="1425" 
d="M184 0v1346h129v-584h799v584h127v-1346h-127v651h-799v-651h-129z" />
    <glyph glyph-name="I" unicode="I" horiz-adv-x="499" 
d="M184 0v1346h129v-1346h-129z" />
    <glyph glyph-name="J" unicode="J" horiz-adv-x="642" 
d="M37 -10v110h57q151 0 201.5 66.5t50.5 212.5v967h129v-971q0 -135 -36.5 -220t-118 -125t-216.5 -40h-67z" />
    <glyph glyph-name="K" unicode="K" horiz-adv-x="1108" 
d="M184 0v1346h129v-650l588 650h154l-590 -637l643 -709h-168l-627 692v-692h-129z" />
    <glyph glyph-name="L" unicode="L" horiz-adv-x="1010" 
d="M184 0v1346h129v-1237h660v-109h-789z" />
    <glyph glyph-name="M" unicode="M" horiz-adv-x="1587" 
d="M184 0v1346h133l508 -830h-53l496 830h133v-1346h-127v1196h31l-465 -776h-90l-471 776h30v-1196h-125z" />
    <glyph glyph-name="N" unicode="N" horiz-adv-x="1429" 
d="M184 0v1346h138l798 -1153v1153h123v-1346h-137l-799 1153v-1153h-123z" />
    <glyph glyph-name="O" unicode="O" horiz-adv-x="1495" 
d="M748 -18q-212 0 -353 89t-211.5 244.5t-70.5 356.5t70.5 357t211.5 245.5t353 89.5q211 0 351 -89.5t210.5 -245.5t70.5 -357t-70.5 -356.5t-210.5 -244.5t-351 -89zM748 86q177 0 287 78.5t161 211.5t51 296q0 164 -51 297t-161 212t-287 79q-178 0 -288.5 -79
t-161 -212t-50.5 -297q0 -163 50.5 -296t161 -211.5t288.5 -78.5z" />
    <glyph glyph-name="P" unicode="P" horiz-adv-x="1153" 
d="M184 0v1346h465q121 0 216 -48t149.5 -138.5t54.5 -217.5q0 -122 -54.5 -208t-149.5 -131.5t-216 -45.5h-336v-557h-129zM313 668h328q134 0 216.5 67.5t82.5 206.5q0 151 -82.5 223t-216.5 72h-328v-569z" />
    <glyph glyph-name="Q" unicode="Q" horiz-adv-x="1495" 
d="M1241 -274q-114 0 -190 21.5t-124.5 62t-80.5 96t-60 123.5l119 4q28 -50 53.5 -86t60.5 -58.5t91 -33.5t145 -11h54v-118h-68zM748 -18q-212 0 -353 89t-211.5 244.5t-70.5 356.5t70.5 357t211.5 245.5t353 89.5q211 0 351 -89.5t210.5 -245.5t70.5 -357t-70.5 -356.5
t-210.5 -244.5t-351 -89zM748 86q177 0 287 78.5t161 211.5t51 296q0 164 -51 297t-161 212t-287 79q-178 0 -288.5 -79t-161 -212t-50.5 -297q0 -163 50.5 -296t161 -211.5t288.5 -78.5z" />
    <glyph glyph-name="R" unicode="R" horiz-adv-x="1212" 
d="M184 0v1346h486q110 0 202.5 -37.5t148.5 -115t56 -198.5q0 -129 -73 -219t-211 -119q72 -11 120 -48.5t80.5 -102t55.5 -158.5l88 -348h-129l-84 334q-20 80 -48.5 139.5t-75 92t-122.5 32.5h-365v-598h-129zM313 707h346q78 0 144 31.5t106.5 90t40.5 140.5
q0 125 -72.5 196.5t-218.5 71.5h-346v-530z" />
    <glyph glyph-name="S" unicode="S" horiz-adv-x="1126" 
d="M575 -18q-140 0 -253 44t-179.5 138t-66.5 242h127q0 -122 52.5 -191t139 -97t187.5 -28q92 0 171 29.5t127 89.5t48 153q0 79 -37 129.5t-118.5 86.5t-215.5 69q-158 40 -254.5 87t-140 115.5t-43.5 170.5q0 107 49 184t144.5 118.5t232.5 41.5q125 0 229.5 -42
t167 -124.5t62.5 -204.5h-127q2 129 -93.5 195.5t-236.5 66.5q-149 0 -227 -61t-78 -174q0 -68 34 -112.5t114 -77.5t218 -68q157 -40 254.5 -87t143 -120.5t45.5 -192.5q0 -123 -63 -207.5t-170.5 -128.5t-242.5 -44z" />
    <glyph glyph-name="T" unicode="T" horiz-adv-x="952" 
d="M412 0v1237h-394v109h916v-109h-393v-1237h-129z" />
    <glyph glyph-name="U" unicode="U" horiz-adv-x="1379" 
d="M688 -18q-185 0 -300.5 68t-168.5 182t-53 251v863h129v-834q0 -232 103 -326t290 -94q188 0 291.5 94t103.5 326v834h129v-863q0 -137 -53 -251t-168 -182t-303 -68z" />
    <glyph glyph-name="V" unicode="V" horiz-adv-x="1167" 
d="M508 0l-498 1346h137l437 -1205l438 1205h135l-500 -1346h-149z" />
    <glyph glyph-name="W" unicode="W" horiz-adv-x="1778" 
d="M391 0l-391 1346h137l328 -1178l348 1178h160l348 -1178l330 1178h127l-389 -1346h-136l-364 1204l-359 -1204h-139z" />
    <glyph glyph-name="X" unicode="X" horiz-adv-x="1085" 
d="M18 0l447 694l-418 652h143l351 -570l364 570h135l-422 -656l449 -690h-147l-379 600l-385 -600h-138z" />
    <glyph glyph-name="Y" unicode="Y" horiz-adv-x="1057" 
d="M463 0v553l-463 793h141l389 -682l385 682h142l-465 -793v-553h-129z" />
    <glyph glyph-name="Z" unicode="Z" horiz-adv-x="1024" 
d="M35 0v102l778 1135h-733v109h874v-101l-778 -1136h813v-109h-954z" />
    <glyph glyph-name="bracketleft" unicode="[" horiz-adv-x="559" 
d="M143 -360v1714h340v-99h-221v-1515h221v-100h-340z" />
    <glyph glyph-name="backslash" unicode="\" horiz-adv-x="647" 
d="M508 0l-490 1346h121l490 -1346h-121z" />
    <glyph glyph-name="bracketright" unicode="]" horiz-adv-x="559" 
d="M76 -360v100h221v1515h-221v99h340v-1714h-340z" />
    <glyph glyph-name="asciicircum" unicode="^" 
d="M169 780l328 566h100l328 -566h-129l-248 432l-250 -432h-129z" />
    <glyph glyph-name="underscore" unicode="_" horiz-adv-x="942" 
d="M0 -236v95h942v-95h-942z" />
    <glyph glyph-name="grave" unicode="`" horiz-adv-x="1130" 
d="M541 1112l-258 266h147l207 -266h-96z" />
    <glyph glyph-name="a" unicode="a" horiz-adv-x="1067" 
d="M414 -18q-85 0 -153 31.5t-108 93t-40 151.5q0 129 82.5 196.5t234.5 92.5t358 26v76q0 139 -70.5 191.5t-176.5 52.5q-112 0 -190.5 -57.5t-78.5 -180.5h-118q0 117 50 191.5t137.5 109.5t199.5 35q65 0 129.5 -13.5t118 -50t86 -103.5t32.5 -175v-649h-110l-6 158
q-70 -76 -162 -126t-215 -50zM436 82q113 0 201.5 51t150.5 135v217q-295 -3 -426 -54.5t-131 -168.5q0 -79 50.5 -129.5t154.5 -50.5z" />
    <glyph glyph-name="b" unicode="b" horiz-adv-x="1123" 
d="M602 -18q-109 0 -188.5 42t-126.5 115l-8 -139h-109v1346h119v-537q50 80 136 131t198 51q122 0 208.5 -57.5t132.5 -170t46 -276.5q0 -163 -48.5 -276t-140 -171t-219.5 -58zM588 86q150 0 224.5 105.5t74.5 295.5q0 191 -69.5 296.5t-209.5 105.5q-116 0 -194 -59.5
t-125 -145.5v-420q43 -79 116.5 -128.5t182.5 -49.5z" />
    <glyph glyph-name="c" unicode="c" horiz-adv-x="1051" 
d="M545 -18q-130 0 -227 57t-151 169.5t-54 276.5q0 165 54 278t151 170.5t227 57.5q108 0 193.5 -35t137 -106t56.5 -180h-119q-9 104 -78 162.5t-186 58.5q-155 0 -234 -107t-79 -299q0 -128 35 -218t105 -137.5t173 -47.5q117 0 191.5 58.5t78.5 174.5h119
q-3 -113 -56 -187t-141 -110t-196 -36z" />
    <glyph glyph-name="d" unicode="d" horiz-adv-x="1122" 
d="M502 -18q-123 0 -210 58t-133 171t-46 276q0 164 48.5 276.5t140 170t220.5 57.5q105 0 184.5 -47.5t127.5 -130.5v533h118v-1346h-110l-8 143q-52 -70 -136 -115.5t-196 -45.5zM514 86q119 0 195 52t125 128v420q-45 89 -117 145t-182 56q-151 0 -225 -104.5t-74 -295.5
q0 -192 69.5 -296.5t208.5 -104.5z" />
    <glyph glyph-name="e" unicode="e" horiz-adv-x="1049" 
d="M553 -18q-156 0 -253 69.5t-142 184t-45 249.5q0 146 43.5 260t136 180t239.5 66q189 0 295.5 -116.5t106.5 -335.5q0 -17 -1 -37.5t-3 -28.5h-699q0 -107 32.5 -196.5t103.5 -143t186 -53.5q125 0 194 59.5t72 171.5h117q-2 -97 -48 -171t-131 -116t-204 -42zM231 573
h586q-3 152 -76 235t-209 83q-138 0 -212.5 -81.5t-88.5 -236.5z" />
    <glyph glyph-name="f" unicode="f" horiz-adv-x="582" 
d="M201 0v872h-164v101h164v69q0 67 10 123t36.5 96.5t75 62.5t126.5 22h104v-101h-92q-95 0 -119.5 -54.5t-24.5 -152.5v-65h236v-101h-236v-872h-116z" />
    <glyph glyph-name="g" unicode="g" horiz-adv-x="965" 
d="M487 -377q-149 0 -239.5 36t-131 96.5t-40.5 131.5q0 86 69 154t211 96l25 35h119q238 0 337 -61.5t99 -192.5q0 -127 -112.5 -211t-336.5 -84zM483 -279q188 0 265 54.5t77 136.5q0 47 -26.5 82t-99 54.5t-212.5 19.5h-133q-82 -19 -125 -66.5t-43 -110.5
q0 -69 68.5 -119.5t228.5 -50.5zM350 74q-89 10 -138.5 38.5t-69 63.5t-19.5 66q0 44 36 88t124 69l55 -53q-52 -15 -80.5 -41t-28.5 -57q0 -19 17 -36t57.5 -28t110.5 -12zM477 317q-113 0 -192 46t-119.5 121t-40.5 163q0 92 41 167.5t121 120t196 44.5q118 0 196.5 -44.5
t117.5 -120t39 -167.5q0 -90 -39.5 -165t-119.5 -120t-200 -45zM477 408q106 0 175 60t69 179q0 123 -65 182.5t-173 59.5q-106 0 -175.5 -61.5t-69.5 -180.5q0 -120 72 -179.5t167 -59.5zM719 893l-62 45q44 89 108 121t171 35v-115q-66 0 -121.5 -14.5t-95.5 -71.5z" />
    <glyph glyph-name="h" unicode="h" horiz-adv-x="1100" 
d="M170 0v1346h119v-525q44 57 130 111.5t218 54.5q169 0 236 -96.5t67 -265.5v-625h-119v606q0 80 -14.5 142.5t-56.5 98.5t-125 36q-124 0 -207 -56t-129 -118v-709h-119z" />
    <glyph glyph-name="i" unicode="i" horiz-adv-x="459" 
d="M170 0v973h119v-973h-119zM229 1184q-35 0 -58.5 22.5t-23.5 57.5t23.5 58.5t58.5 23.5q34 0 58 -23.5t24 -58.5t-24 -57.5t-58 -22.5z" />
    <glyph glyph-name="j" unicode="j" horiz-adv-x="459" 
d="M-20 -358v100h36q77 0 115.5 36t38.5 124v1071h119v-1061q0 -132 -58 -201t-196 -69h-55zM229 1184q-35 0 -58.5 22.5t-23.5 57.5t23.5 58.5t58.5 23.5q34 0 58 -23.5t24 -58.5t-24 -57.5t-58 -22.5z" />
    <glyph glyph-name="k" unicode="k" horiz-adv-x="948" 
d="M170 0v1346h119v-836l469 463h151l-467 -459l514 -514h-161l-506 502v-502h-119z" />
    <glyph glyph-name="l" unicode="l" horiz-adv-x="496" 
d="M408 0q-104 0 -158 38.5t-73 107t-19 157.5v1043h118v-1039q0 -98 24.5 -152.5t119.5 -54.5h37v-100h-49z" />
    <glyph glyph-name="m" unicode="m" horiz-adv-x="1710" 
d="M170 0v973h113l6 -152q41 57 123 111.5t206 54.5q170 0 237 -96.5t67 -265.5v-625h-119v606q0 80 -14.5 142.5t-57 98.5t-125.5 36q-116 0 -195 -56t-122 -118v-709h-119zM1432 0v606q0 80 -14.5 142.5t-56.5 98.5t-124 36q-118 0 -196.5 -56t-125.5 -118l-22 100
q56 63 143 120.5t211 57.5q170 0 236.5 -96.5t66.5 -265.5v-625h-118z" />
    <glyph glyph-name="n" unicode="n" horiz-adv-x="1100" 
d="M170 0v973h113l6 -152q44 57 130 111.5t218 54.5q166 0 234.5 -96.5t68.5 -265.5v-625h-119v606q0 80 -15 142.5t-57 98.5t-124 36q-124 0 -207 -56t-129 -118v-709h-119z" />
    <glyph glyph-name="o" unicode="o" horiz-adv-x="1108" 
d="M547 -16q-140 0 -237 61t-147 173.5t-50 266.5q0 157 50 271t147 175.5t237 61.5q145 0 244.5 -61.5t151.5 -175.5t52 -271q0 -154 -52 -266.5t-151.5 -173.5t-244.5 -61zM547 82q119 0 190 51.5t103 142.5t32 209q0 120 -32 212.5t-103 145t-190 52.5q-114 0 -182 -52.5
t-98.5 -145t-30.5 -212.5q0 -118 30.5 -209t98.5 -142.5t182 -51.5z" />
    <glyph glyph-name="p" unicode="p" horiz-adv-x="1123" 
d="M170 -358v1331h119v-164q50 78 136 130t198 52q122 0 208.5 -57.5t132.5 -169.5t46 -275t-48.5 -276.5t-140 -172t-219.5 -58.5q-109 0 -188.5 42.5t-126.5 114.5v-497h-117zM588 86q150 0 224.5 105t74.5 298q0 189 -69.5 294.5t-209.5 105.5q-116 0 -194 -60t-125 -145
v-420q43 -81 116.5 -129.5t182.5 -48.5z" />
    <glyph glyph-name="q" unicode="q" horiz-adv-x="1122" 
d="M834 -358v508q-52 -76 -137 -122t-195 -46q-123 0 -210 58t-133 171.5t-46 277.5q0 163 48.5 275t140 169.5t220.5 57.5q108 0 186 -48t126 -128l6 158h112v-1331h-118zM514 86q119 0 195 53.5t125 132.5v416q-45 86 -117 142.5t-182 56.5q-151 0 -227.5 -104.5
t-76.5 -293.5q0 -193 72 -298t211 -105z" />
    <glyph glyph-name="r" unicode="r" horiz-adv-x="649" 
d="M170 0v973h109l6 -164q43 69 114.5 122.5t192.5 53.5h20v-119h-22q-80 0 -135.5 -23t-94.5 -60.5t-71 -80.5v-702h-119z" />
    <glyph glyph-name="s" unicode="s" horiz-adv-x="965" 
d="M492 -18q-83 0 -154 19.5t-123.5 60t-81.5 104t-29 151.5h119q0 -130 77 -183.5t198 -53.5q104 0 175.5 42.5t71.5 139.5q0 80 -58.5 119t-207.5 74q-119 29 -195 64t-111.5 87t-35.5 129q0 59 24 106.5t69 81t108.5 51t142.5 17.5q77 0 142.5 -19.5t114 -59t75.5 -99.5
t27 -141h-119q0 118 -69.5 168.5t-170.5 50.5t-165 -38.5t-64 -117.5q0 -45 25 -75t85.5 -53.5t165.5 -49.5q117 -28 190.5 -64.5t107.5 -92t34 -140.5q0 -70 -26.5 -122.5t-75.5 -87t-116.5 -51.5t-149.5 -17z" />
    <glyph glyph-name="t" unicode="t" horiz-adv-x="629" 
d="M449 0q-103 0 -156.5 38.5t-72.5 107t-19 157.5v569h-164v101h164v219h116v-219h254v-101h-254v-565q0 -98 24.5 -152.5t119.5 -54.5h112v-100h-124z" />
    <glyph glyph-name="u" unicode="u" horiz-adv-x="1120" 
d="M483 -16q-179 0 -251 95.5t-72 258.5v635h119v-617q0 -74 15.5 -132.5t62 -92t137.5 -33.5q124 0 207 51t130 115v709h119v-973h-114l-5 152q-46 -57 -131.5 -112.5t-216.5 -55.5z" />
    <glyph glyph-name="v" unicode="v" horiz-adv-x="883" 
d="M383 0l-383 973h127l317 -850l318 850h121l-375 -973h-125z" />
    <glyph glyph-name="w" unicode="w" horiz-adv-x="1434" 
d="M328 0l-314 973h127l252 -834l256 834h139l259 -834l251 834h121l-313 -973h-129l-260 838l-258 -838h-131z" />
    <glyph glyph-name="x" unicode="x" horiz-adv-x="852" 
d="M12 0l348 512l52 49l268 412h127l-326 -473l-45 -47l-299 -453h-125zM715 0l-301 453l-52 47l-319 473h127l266 -412l51 -41l353 -520h-125z" />
    <glyph glyph-name="y" unicode="y" horiz-adv-x="883" 
d="M100 -358v100h80q56 0 95 35t73 117l45 106l-393 973h127l328 -834l307 834h121l-373 -973l-51 -129q-32 -79 -65 -129.5t-80.5 -75t-123.5 -24.5h-90z" />
    <glyph glyph-name="z" unicode="z" horiz-adv-x="868" 
d="M66 0v96l567 776h-524v101h667v-86l-575 -787h602v-100h-737z" />
    <glyph glyph-name="braceleft" unicode="{" horiz-adv-x="559" 
d="M422 -360q-70 0 -119.5 29t-75.5 82t-26 124v270q0 114 -15.5 180t-57 93.5t-120.5 27.5v101q79 0 120.5 28t57 94t15.5 179v270q0 72 26 125t75.5 82t119.5 29h61v-99h-43q-66 0 -94.5 -41t-28.5 -116v-293q0 -103 -20.5 -164t-54.5 -93t-74 -48q41 -18 75 -51t54 -94
t20 -165v-294q0 -76 28.5 -116t94.5 -40h43v-100h-61z" />
    <glyph glyph-name="bar" unicode="|" horiz-adv-x="553" 
d="M221 -358v1704h112v-1704h-112z" />
    <glyph glyph-name="braceright" unicode="}" horiz-adv-x="559" 
d="M76 -360v100h43q66 0 94.5 40t28.5 116v294q0 104 20 165t54 94t75 51q-40 16 -74 48t-54.5 93t-20.5 164v293q0 75 -28.5 116t-94.5 41h-43v99h61q71 0 121 -29t76 -82t26 -125v-270q0 -113 15 -179t56.5 -94t121.5 -28v-101q-80 0 -121.5 -27.5t-56.5 -93.5t-15 -180
v-270q0 -71 -26 -124t-76 -82t-121 -29h-61z" />
    <glyph glyph-name="asciitilde" unicode="~" 
d="M786 510q-100 0 -163.5 42t-112.5 83t-93 68.5t-110 27.5q-72 0 -112 -53t-43 -164h-115q8 155 78.5 242.5t191.5 87.5q98 0 162.5 -41t112.5 -82q49 -41 93 -68.5t111 -27.5q73 0 112.5 53t43.5 164h113q-6 -157 -76.5 -244.5t-192.5 -87.5z" />
    <glyph glyph-name="uni00A0" unicode="&#xa0;" horiz-adv-x="416" 
 />
    <glyph glyph-name="exclamdown" unicode="&#xa1;" horiz-adv-x="573" 
d="M223 -360v401q0 138 6.5 285t20.5 268h72q15 -120 21.5 -267.5t6.5 -285.5v-401h-127zM287 780q-45 0 -76 31t-31 74q0 46 31 77t76 31q43 0 73.5 -31t30.5 -77q0 -43 -30.5 -74t-73.5 -31z" />
    <glyph glyph-name="cent" unicode="&#xa2;" 
d="M518 -217v1393h100v-1393h-100zM567 -18q-130 0 -227 57t-151 169.5t-54 276.5q0 165 54 278t151 170.5t227 57.5q108 0 193.5 -35t137 -106t56.5 -180h-118q-10 104 -79 162.5t-186 58.5q-154 0 -235.5 -107t-81.5 -299t81.5 -297.5t235.5 -105.5q117 0 192 58.5
t79 174.5h119q-3 -113 -56.5 -187t-141.5 -110t-196 -36z" />
    <glyph glyph-name="sterling" unicode="&#xa3;" 
d="M129 0v102q137 68 186.5 142t49.5 149q0 57 -22.5 119.5t-70.5 151.5q-58 107 -82 175.5t-24 135.5q0 155 108.5 250.5t305.5 95.5q126 0 215.5 -42.5t137.5 -125t48 -203.5h-121q1 97 -37.5 154t-102.5 82.5t-140 25.5q-134 0 -213.5 -65t-79.5 -172q0 -54 22 -114
t68 -146q57 -105 82.5 -179.5t25.5 -142.5q0 -52 -21 -116.5t-84 -124t-190 -97.5v54h791v-109h-852zM94 530v105h744v-105h-744z" />
    <glyph glyph-name="currency" unicode="&#xa4;" 
d="M201 227l-78 80l126 126q-34 46 -53.5 101.5t-19.5 116.5q0 62 19.5 118t53.5 102l-126 126l78 78l126 -126q46 35 102 54t118 19t117.5 -19t101.5 -53l125 125l80 -78l-127 -127q34 -46 52.5 -101.5t18.5 -117.5q0 -61 -18.5 -116t-52.5 -101l127 -127l-80 -80l-127 127
q-46 -34 -101 -52.5t-116 -18.5t-117 18.5t-102 52.5zM547 393q72 0 130.5 34.5t93 93.5t34.5 130q0 72 -34.5 130.5t-93 93t-130.5 34.5t-130.5 -34.5t-93 -93t-34.5 -130.5q0 -71 34.5 -130t93 -93.5t130.5 -34.5z" />
    <glyph glyph-name="yen" unicode="&#xa5;" 
d="M154 535v104h786v-104h-786zM154 307v105h786v-105h-786zM485 0v539l-436 764h131l369 -664l369 664h126l-440 -764v-539h-119z" />
    <glyph glyph-name="brokenbar" unicode="&#xa6;" horiz-adv-x="553" 
d="M221 301h112v-659h-112v659zM221 1346h112v-660h-112v660z" />
    <glyph glyph-name="section" unicode="&#xa7;" horiz-adv-x="933" 
d="M477 -14q-81 0 -149 18.5t-118 57t-78 98.5t-28 143h113q0 -123 74 -172t190 -49q100 0 169 38.5t69 127.5q0 78 -56 114.5t-200 71.5q-84 21 -146 44.5t-102.5 54.5t-60 71t-19.5 94q0 91 68.5 155.5t185.5 64.5l76 -58q-92 -3 -155.5 -40t-63.5 -111q0 -77 70.5 -111.5
t193.5 -65.5q113 -28 183 -62.5t103 -87t33 -134.5q0 -67 -25.5 -116t-72 -81.5t-111.5 -48.5t-143 -16zM637 459l-100 45q80 8 131 47.5t51 116.5t-56 113t-200 71q-86 21 -148 45t-102 55t-59 72.5t-19 95.5q0 56 23 101t66.5 76.5t104.5 48t136 16.5q74 0 137 -18.5
t110 -55.5t73 -93.5t26 -131.5h-115q0 109 -66.5 156t-164.5 47q-95 0 -156 -36t-61 -110q0 -43 23.5 -70.5t81 -49.5t157.5 -48q113 -28 183 -63.5t103 -88t33 -134.5q0 -70 -33.5 -116t-78.5 -68.5t-80 -22.5z" />
    <glyph glyph-name="dieresis" unicode="&#xa8;" horiz-adv-x="1130" 
d="M733 1188q-34 0 -57 21t-23 55t23 55.5t57 21.5t57 -21.5t23 -55.5t-23 -55t-57 -21zM397 1188q-34 0 -57 21t-23 55t23 55.5t57 21.5t57 -21.5t23 -55.5t-23 -55t-57 -21z" />
    <glyph glyph-name="copyright" unicode="&#xa9;" horiz-adv-x="1534" 
d="M766 -18q-143 0 -268 53.5t-220 148.5t-148.5 220t-53.5 268q0 144 53.5 269.5t148.5 220.5t220 148.5t268 53.5q144 0 269.5 -53.5t220.5 -148.5t148.5 -220.5t53.5 -269.5q0 -143 -53.5 -268t-148.5 -220t-220.5 -148.5t-269.5 -53.5zM766 88q122 0 227.5 45.5t186 126
t125.5 186t45 226.5q0 122 -45.5 228t-126 186.5t-186.5 125.5t-226 45q-121 0 -226.5 -45.5t-185.5 -126t-125 -186.5t-45 -227t45.5 -227t125.5 -186.5t185.5 -125.5t225.5 -45zM786 262q-176 0 -277 110t-101 300q0 192 101 301.5t277 109.5q140 0 231 -77.5t97 -208.5
h-119q-1 83 -59 131.5t-150 48.5q-124 0 -191 -79t-67 -226q0 -146 67 -224.5t191 -78.5q101 0 155 49.5t58 144.5h119q-6 -139 -96.5 -220t-235.5 -81z" />
    <glyph glyph-name="ordfeminine" unicode="&#xaa;" horiz-adv-x="862" 
d="M332 557q-67 0 -122.5 25.5t-88.5 76.5t-33 125q0 106 66 159.5t186.5 73t284.5 21.5v60q0 100 -53.5 138t-133.5 38q-84 0 -142 -40.5t-58 -129.5h-113q0 137 88.5 198.5t224.5 61.5q74 0 143 -21t113.5 -78t44.5 -167v-520h-106l-6 116q-54 -61 -127 -99t-168 -38z
M358 647q86 0 155 41t112 107v168q-224 -4 -323 -45t-99 -130q0 -64 39.5 -102.5t115.5 -38.5z" />
    <glyph glyph-name="guillemotleft" unicode="&#xab;" horiz-adv-x="821" 
d="M729 209l-299 278v62l299 278v-133l-186 -176l186 -176v-133zM391 209l-299 278v62l299 278v-133l-186 -176l186 -176v-133z" />
    <glyph glyph-name="logicalnot" unicode="&#xac;" 
d="M131 961h830v-113h-830v113zM848 381v580h113v-580h-113z" />
    <glyph glyph-name="uni00AD" unicode="&#xad;" horiz-adv-x="697" 
d="M113 444v109h471v-109h-471z" />
    <glyph glyph-name="registered" unicode="&#xae;" horiz-adv-x="973" 
d="M485 602q-102 0 -186.5 51t-135 136.5t-50.5 187.5q0 104 50.5 189t135 135.5t186.5 50.5q104 0 189 -50.5t135.5 -135.5t50.5 -189q0 -102 -50.5 -187.5t-135.5 -136.5t-189 -51zM485 682q81 0 147.5 40t106 107t39.5 148q0 82 -39.5 149t-106 106.5t-147.5 39.5
q-78 0 -144 -39.5t-106 -106.5t-40 -149q0 -81 40 -148t106 -107t144 -40zM352 797v370h152q60 0 96.5 -27.5t36.5 -74.5q0 -43 -24.5 -67t-61.5 -33l2 14q28 -7 46 -26t28 -50l32 -106h-77l-29 94q-9 29 -19 41t-36 12h-72v-147h-74zM426 1006h76q28 0 43.5 13.5t15.5 35.5
q0 47 -59 47h-76v-96z" />
    <glyph glyph-name="macron" unicode="&#xaf;" horiz-adv-x="1130" 
d="M297 1192v104h537v-104h-537z" />
    <glyph glyph-name="degree" unicode="&#xb0;" horiz-adv-x="735" 
d="M367 698q-85 0 -155.5 42t-112.5 113t-42 157t42 156.5t112.5 112.5t155.5 42q86 0 156.5 -42t112.5 -112.5t42 -156.5t-42 -157t-112.5 -113t-156.5 -42zM367 813q83 0 140.5 57.5t57.5 139.5q0 81 -57.5 139.5t-140.5 58.5q-82 0 -139.5 -58.5t-57.5 -139.5
q0 -82 57.5 -139.5t139.5 -57.5z" />
    <glyph glyph-name="plusminus" unicode="&#xb1;" 
d="M131 801h830v-103h-830v103zM489 438v623h113v-623h-113zM131 383h830v-102h-830v102z" />
    <glyph glyph-name="uni00B2" unicode="&#xb2;" horiz-adv-x="678" 
d="M53 979v82l303 256q77 65 112.5 115t35.5 110t-38 101t-126 41q-95 0 -136.5 -45t-41.5 -111h-103q0 110 71 178t210 68q129 0 199.5 -61t70.5 -165q0 -67 -27.5 -118.5t-72.5 -95.5t-98 -87l-217 -176h436v-92h-578z" />
    <glyph glyph-name="uni00B3" unicode="&#xb3;" horiz-adv-x="678" 
d="M348 967q-133 0 -213 65t-80 183h103q0 -71 49.5 -114.5t138.5 -43.5q85 0 132.5 37t47.5 110q0 74 -52.5 108t-143.5 34h-51v90h53q80 0 124 35t44 96q0 59 -43.5 88t-112.5 29q-75 0 -119.5 -38t-44.5 -100h-102q0 71 33 122t92.5 78.5t138.5 27.5q72 0 131 -22.5
t94 -66.5t35 -110q0 -69 -41 -115.5t-110 -64.5q78 -14 130 -63.5t52 -131.5q0 -112 -79.5 -172.5t-205.5 -60.5z" />
    <glyph glyph-name="acute" unicode="&#xb4;" horiz-adv-x="1130" 
d="M494 1112l206 266h148l-258 -266h-96z" />
    <glyph glyph-name="mu" unicode="&#xb5;" horiz-adv-x="1128" 
d="M170 -362v1335h119v-608q0 -76 15 -135t61.5 -92.5t138.5 -33.5q125 0 207.5 49.5t128.5 110.5v709h118v-973h-114l-4 152q-67 -80 -158 -121t-180 -41q-82 0 -147.5 31t-103.5 93t-38 156h76v-632h-119z" />
    <glyph glyph-name="paragraph" unicode="&#xb6;" horiz-adv-x="1085" 
d="M508 -195v824h-74q-163 0 -260.5 97.5t-97.5 260.5t97.5 261t260.5 98h481v-1541h-114v1432h-178v-1432h-115z" />
    <glyph glyph-name="periodcentered" unicode="&#xb7;" horiz-adv-x="571" 
d="M287 416q-46 0 -77.5 31t-31.5 77q0 45 31.5 76t77.5 31q44 0 75 -31t31 -76q0 -46 -31 -77t-75 -31z" />
    <glyph glyph-name="cedilla" unicode="&#xb8;" horiz-adv-x="1130" 
d="M573 -383q-49 0 -89.5 8.5t-75.5 22.5l22 82q22 -11 61.5 -19t79.5 -8q35 0 61.5 18t26.5 50q0 37 -33.5 56t-111.5 26l-43 4l129 180l72 -37l-72 -102l-20 28q94 -6 141 -42.5t47 -104.5q0 -53 -24.5 -89.5t-68 -54.5t-102.5 -18z" />
    <glyph glyph-name="uni00B9" unicode="&#xb9;" horiz-adv-x="678" 
d="M346 979v653q-26 -31 -84.5 -61t-138.5 -41v98q51 11 97.5 34t82.5 52t55 56h95v-791h-107z" />
    <glyph glyph-name="ordmasculine" unicode="&#xba;" horiz-adv-x="897" 
d="M442 557q-112 0 -191.5 49t-121 139t-41.5 213q0 127 41.5 218t121 139.5t191.5 48.5q116 0 198 -49t125.5 -140t43.5 -217q0 -123 -43.5 -213t-125.5 -139t-198 -49zM442 649q137 0 194.5 87t57.5 222q0 93 -25 163.5t-80 110.5t-147 40q-129 0 -185 -87.5t-56 -226.5
q0 -135 56 -222t185 -87z" />
    <glyph glyph-name="guillemotright" unicode="&#xbb;" horiz-adv-x="821" 
d="M430 209v133l186 176l-186 176v133l299 -278v-62zM92 209v133l187 176l-187 176v133l299 -278v-62z" />
    <glyph glyph-name="onequarter" unicode="&#xbc;" horiz-adv-x="1401" 
d="M260 526v653q-26 -31 -84.5 -61t-138.5 -41v98q51 11 97.5 34t82.5 52t55 56h95v-791h-107zM229 0l793 1303h108l-793 -1303h-108zM1132 0v158h-407v92l405 538h107v-540h112v-90h-112v-158h-105zM827 248h305v395z" />
    <glyph glyph-name="onehalf" unicode="&#xbd;" horiz-adv-x="1528" 
d="M260 526v653q-26 -31 -84.5 -61t-138.5 -41v98q51 11 97.5 34t82.5 52t55 56h95v-791h-107zM250 0l793 1303h108l-793 -1303h-108zM903 0v82l303 256q77 65 112.5 115t35.5 110t-38 101t-126 41q-95 0 -136.5 -45t-41.5 -111h-103q0 110 71 178t210 68q129 0 199.5 -61
t70.5 -165q0 -67 -27.5 -118.5t-72.5 -95.5t-98 -87l-217 -176h436v-92h-578z" />
    <glyph glyph-name="threequarters" unicode="&#xbe;" horiz-adv-x="1565" 
d="M348 514q-133 0 -213 65t-80 183h103q0 -71 49.5 -114.5t138.5 -43.5q85 0 132.5 37t47.5 110q0 74 -52.5 108t-143.5 34h-51v90h53q80 0 124 35t44 96q0 59 -43.5 88t-112.5 29q-75 0 -119.5 -38t-44.5 -100h-102q0 71 33 122t92.5 78.5t138.5 27.5q72 0 131 -22.5
t94 -66.5t35 -110q0 -69 -41 -115.5t-110 -64.5q78 -14 130 -63.5t52 -131.5q0 -112 -79.5 -172.5t-205.5 -60.5zM377 0l793 1303h108l-793 -1303h-108zM1296 0v158h-407v92l405 538h107v-540h112v-90h-112v-158h-105zM991 248h305v395z" />
    <glyph glyph-name="questiondown" unicode="&#xbf;" horiz-adv-x="1010" 
d="M557 588v-10v-9q0 -113 -45 -189t-133 -149q-84 -69 -127 -127.5t-43 -146.5q0 -100 70 -168t215 -68q141 0 224 74t83 211h119q0 -122 -55.5 -208t-151.5 -131.5t-219 -45.5q-124 0 -214.5 41t-140 116t-49.5 179q0 80 26.5 138t74 107.5t112.5 102.5q59 49 89.5 91.5
t42 88t14.5 103.5h108zM500 989q43 0 73.5 -31t30.5 -77q0 -44 -30.5 -74.5t-73.5 -30.5q-44 0 -75 30.5t-31 74.5q0 46 31 77t75 31z" />
    <glyph glyph-name="Agrave" unicode="&#xc0;" horiz-adv-x="1176" 
d="M10 0l514 1346h138l503 -1346h-133l-143 418h-594l-152 -418h-133zM334 528h512l-254 689zM555 1466l-247 265h147l197 -265h-97z" />
    <glyph glyph-name="Aacute" unicode="&#xc1;" horiz-adv-x="1176" 
d="M10 0l514 1346h138l503 -1346h-133l-143 418h-594l-152 -418h-133zM334 528h512l-254 689zM525 1466l196 265h148l-248 -265h-96z" />
    <glyph glyph-name="Acircumflex" unicode="&#xc2;" horiz-adv-x="1176" 
d="M10 0l514 1346h138l503 -1346h-133l-143 418h-594l-152 -418h-133zM334 528h512l-254 689zM308 1466l215 267h129l215 -267h-109l-170 185l-172 -185h-108z" />
    <glyph glyph-name="Atilde" unicode="&#xc3;" horiz-adv-x="1176" 
d="M10 0l514 1346h138l503 -1346h-133l-143 418h-594l-152 -418h-133zM334 528h512l-254 689zM314 1495q9 80 41.5 131t101.5 51q38 0 76.5 -14t75.5 -31q34 -15 60 -24t48 -9q28 0 46 21.5t22 62.5h78q-10 -76 -42.5 -127t-101.5 -51q-41 0 -79 14t-72 29q-34 16 -60 25.5
t-49 9.5q-28 0 -45 -22t-22 -66h-78z" />
    <glyph glyph-name="Adieresis" unicode="&#xc4;" horiz-adv-x="1176" 
d="M10 0l514 1346h138l503 -1346h-133l-143 418h-594l-152 -418h-133zM334 528h512l-254 689zM756 1534q-34 0 -57 21t-23 55t23 56t57 22t57 -22t23 -56t-23 -55t-57 -21zM420 1534q-34 0 -57 21t-23 55t23 56t57 22t57 -22t23 -56t-23 -55t-57 -21z" />
    <glyph glyph-name="Aring" unicode="&#xc5;" horiz-adv-x="1176" 
d="M10 0l514 1346h138l503 -1346h-133l-143 418h-594l-152 -418h-133zM334 528h512l-254 689zM588 1376q-91 0 -148 56t-57 147q0 89 57 145t148 56t148 -56t57 -145q0 -91 -57 -147t-148 -56zM588 1462q51 0 82 32.5t31 84.5q0 51 -31 84t-82 33q-50 0 -81 -33t-31 -84
q0 -52 31 -84.5t81 -32.5z" />
    <glyph glyph-name="AE" unicode="&#xc6;" horiz-adv-x="1882" 
d="M-31 0l891 1346h96v-129h-51l-481 -736v-8l-305 -473h-150zM375 418v110h626v-110h-626zM944 0v1346h836v-109h-707v-487h656v-109h-656v-532h707v-109h-836z" />
    <glyph glyph-name="Ccedilla" unicode="&#xc7;" horiz-adv-x="1403" 
d="M748 -18q-212 0 -353 89t-211.5 244.5t-70.5 356.5t70.5 357t211.5 245.5t353 89.5q128 0 245 -45t197.5 -139t97.5 -242h-127q-13 111 -74.5 182t-151 105.5t-187.5 34.5q-178 0 -288.5 -78.5t-161 -211.5t-50.5 -298q0 -164 50.5 -296.5t161 -210t288.5 -77.5
q176 0 288.5 86t130.5 262h129q-18 -156 -96 -256.5t-196 -149t-256 -48.5zM713 -383q-49 0 -89.5 8.5t-75.5 22.5l22 82q22 -11 61.5 -19t79.5 -8q35 0 61.5 18t26.5 50q0 37 -33.5 56t-111.5 26l-43 4l129 180l72 -37l-72 -102l-20 28q94 -6 141 -42.5t47 -104.5
q0 -53 -24.5 -89.5t-68 -54.5t-102.5 -18z" />
    <glyph glyph-name="Egrave" unicode="&#xc8;" horiz-adv-x="1122" 
d="M184 0v1346h836v-109h-707v-487h656v-109h-656v-532h707v-109h-836zM569 1466l-247 265h147l197 -265h-97z" />
    <glyph glyph-name="Eacute" unicode="&#xc9;" horiz-adv-x="1122" 
d="M184 0v1346h836v-109h-707v-487h656v-109h-656v-532h707v-109h-836zM539 1466l196 265h148l-248 -265h-96z" />
    <glyph glyph-name="Ecircumflex" unicode="&#xca;" horiz-adv-x="1122" 
d="M184 0v1346h836v-109h-707v-487h656v-109h-656v-532h707v-109h-836zM322 1466l215 267h129l215 -267h-109l-170 185l-172 -185h-108z" />
    <glyph glyph-name="Edieresis" unicode="&#xcb;" horiz-adv-x="1122" 
d="M184 0v1346h836v-109h-707v-487h656v-109h-656v-532h707v-109h-836zM770 1534q-34 0 -57 21t-23 55t23 56t57 22t57 -22t23 -56t-23 -55t-57 -21zM434 1534q-34 0 -57 21t-23 55t23 56t57 22t57 -22t23 -56t-23 -55t-57 -21z" />
    <glyph glyph-name="Igrave" unicode="&#xcc;" horiz-adv-x="499" 
d="M184 0v1346h129v-1346h-129zM215 1466l-247 265h147l197 -265h-97z" />
    <glyph glyph-name="Iacute" unicode="&#xcd;" horiz-adv-x="499" 
d="M184 0v1346h129v-1346h-129zM185 1466l196 265h148l-248 -265h-96z" />
    <glyph glyph-name="Icircumflex" unicode="&#xce;" horiz-adv-x="499" 
d="M184 0v1346h129v-1346h-129zM-32 1466l215 267h129l215 -267h-109l-170 185l-172 -185h-108z" />
    <glyph glyph-name="Idieresis" unicode="&#xcf;" horiz-adv-x="499" 
d="M184 0v1346h129v-1346h-129zM416 1534q-34 0 -57 21t-23 55t23 56t57 22t57 -22t23 -56t-23 -55t-57 -21zM80 1534q-34 0 -57 21t-23 55t23 56t57 22t57 -22t23 -56t-23 -55t-57 -21z" />
    <glyph glyph-name="Eth" unicode="&#xd0;" horiz-adv-x="1383" 
d="M0 637v104h696v-104h-696zM184 0v1346h428q209 0 355.5 -79.5t223.5 -230.5t77 -364q0 -212 -77 -362.5t-223.5 -230t-355.5 -79.5h-428zM313 109h254q194 0 319.5 61t187 186t61.5 316q0 193 -61.5 318t-187 186t-319.5 61h-254v-1128z" />
    <glyph glyph-name="Ntilde" unicode="&#xd1;" horiz-adv-x="1429" 
d="M184 0v1346h138l798 -1153v1153h123v-1346h-137l-799 1153v-1153h-123zM471 1495q9 80 41.5 131t101.5 51q38 0 76.5 -14t75.5 -31q34 -15 60 -24t48 -9q28 0 46 21.5t22 62.5h78q-10 -76 -42.5 -127t-101.5 -51q-41 0 -79 14t-72 29q-34 16 -60 25.5t-49 9.5
q-28 0 -45 -22t-22 -66h-78z" />
    <glyph glyph-name="Ograve" unicode="&#xd2;" horiz-adv-x="1495" 
d="M748 -18q-212 0 -353 89t-211.5 244.5t-70.5 356.5t70.5 357t211.5 245.5t353 89.5q211 0 351 -89.5t210.5 -245.5t70.5 -357t-70.5 -356.5t-210.5 -244.5t-351 -89zM748 86q177 0 287 78.5t161 211.5t51 296q0 164 -51 297t-161 212t-287 79q-178 0 -288.5 -79
t-161 -212t-50.5 -297q0 -163 50.5 -296t161 -211.5t288.5 -78.5zM715 1466l-247 265h147l197 -265h-97z" />
    <glyph glyph-name="Oacute" unicode="&#xd3;" horiz-adv-x="1495" 
d="M748 -18q-212 0 -353 89t-211.5 244.5t-70.5 356.5t70.5 357t211.5 245.5t353 89.5q211 0 351 -89.5t210.5 -245.5t70.5 -357t-70.5 -356.5t-210.5 -244.5t-351 -89zM748 86q177 0 287 78.5t161 211.5t51 296q0 164 -51 297t-161 212t-287 79q-178 0 -288.5 -79
t-161 -212t-50.5 -297q0 -163 50.5 -296t161 -211.5t288.5 -78.5zM685 1466l196 265h148l-248 -265h-96z" />
    <glyph glyph-name="Ocircumflex" unicode="&#xd4;" horiz-adv-x="1495" 
d="M748 -18q-212 0 -353 89t-211.5 244.5t-70.5 356.5t70.5 357t211.5 245.5t353 89.5q211 0 351 -89.5t210.5 -245.5t70.5 -357t-70.5 -356.5t-210.5 -244.5t-351 -89zM748 86q177 0 287 78.5t161 211.5t51 296q0 164 -51 297t-161 212t-287 79q-178 0 -288.5 -79
t-161 -212t-50.5 -297q0 -163 50.5 -296t161 -211.5t288.5 -78.5zM468 1466l215 267h129l215 -267h-109l-170 185l-172 -185h-108z" />
    <glyph glyph-name="Otilde" unicode="&#xd5;" horiz-adv-x="1495" 
d="M748 -18q-212 0 -353 89t-211.5 244.5t-70.5 356.5t70.5 357t211.5 245.5t353 89.5q211 0 351 -89.5t210.5 -245.5t70.5 -357t-70.5 -356.5t-210.5 -244.5t-351 -89zM748 86q177 0 287 78.5t161 211.5t51 296q0 164 -51 297t-161 212t-287 79q-178 0 -288.5 -79
t-161 -212t-50.5 -297q0 -163 50.5 -296t161 -211.5t288.5 -78.5zM474 1495q9 80 41.5 131t101.5 51q38 0 76.5 -14t75.5 -31q34 -15 60 -24t48 -9q28 0 46 21.5t22 62.5h78q-10 -76 -42.5 -127t-101.5 -51q-41 0 -79 14t-72 29q-34 16 -60 25.5t-49 9.5q-28 0 -45 -22
t-22 -66h-78z" />
    <glyph glyph-name="Odieresis" unicode="&#xd6;" horiz-adv-x="1495" 
d="M748 -18q-212 0 -353 89t-211.5 244.5t-70.5 356.5t70.5 357t211.5 245.5t353 89.5q211 0 351 -89.5t210.5 -245.5t70.5 -357t-70.5 -356.5t-210.5 -244.5t-351 -89zM748 86q177 0 287 78.5t161 211.5t51 296q0 164 -51 297t-161 212t-287 79q-178 0 -288.5 -79
t-161 -212t-50.5 -297q0 -163 50.5 -296t161 -211.5t288.5 -78.5zM916 1534q-34 0 -57 21t-23 55t23 56t57 22t57 -22t23 -56t-23 -55t-57 -21zM580 1534q-34 0 -57 21t-23 55t23 56t57 22t57 -22t23 -56t-23 -55t-57 -21z" />
    <glyph glyph-name="multiply" unicode="&#xd7;" 
d="M213 416l586 585l82 -77l-586 -586zM293 1004l586 -586l-80 -80l-586 586z" />
    <glyph glyph-name="Oslash" unicode="&#xd8;" horiz-adv-x="1495" 
d="M190 -59l-77 67l1192 1395l75 -66zM748 -18q-212 0 -353 89t-211.5 244.5t-70.5 356.5t70.5 357t211.5 245.5t353 89.5q211 0 351 -89.5t210.5 -245.5t70.5 -357t-70.5 -356.5t-210.5 -244.5t-351 -89zM748 86q177 0 287 78.5t161 211.5t51 296q0 164 -51 297t-161 212
t-287 79q-178 0 -288.5 -79t-161 -212t-50.5 -297q0 -163 50.5 -296t161 -211.5t288.5 -78.5z" />
    <glyph glyph-name="Ugrave" unicode="&#xd9;" horiz-adv-x="1379" 
d="M688 -18q-185 0 -300.5 68t-168.5 182t-53 251v863h129v-834q0 -232 103 -326t290 -94q188 0 291.5 94t103.5 326v834h129v-863q0 -137 -53 -251t-168 -182t-303 -68zM657 1466l-247 265h147l197 -265h-97z" />
    <glyph glyph-name="Uacute" unicode="&#xda;" horiz-adv-x="1379" 
d="M688 -18q-185 0 -300.5 68t-168.5 182t-53 251v863h129v-834q0 -232 103 -326t290 -94q188 0 291.5 94t103.5 326v834h129v-863q0 -137 -53 -251t-168 -182t-303 -68zM627 1466l196 265h148l-248 -265h-96z" />
    <glyph glyph-name="Ucircumflex" unicode="&#xdb;" horiz-adv-x="1379" 
d="M688 -18q-185 0 -300.5 68t-168.5 182t-53 251v863h129v-834q0 -232 103 -326t290 -94q188 0 291.5 94t103.5 326v834h129v-863q0 -137 -53 -251t-168 -182t-303 -68zM410 1466l215 267h129l215 -267h-109l-170 185l-172 -185h-108z" />
    <glyph glyph-name="Udieresis" unicode="&#xdc;" horiz-adv-x="1379" 
d="M688 -18q-185 0 -300.5 68t-168.5 182t-53 251v863h129v-834q0 -232 103 -326t290 -94q188 0 291.5 94t103.5 326v834h129v-863q0 -137 -53 -251t-168 -182t-303 -68zM858 1534q-34 0 -57 21t-23 55t23 56t57 22t57 -22t23 -56t-23 -55t-57 -21zM522 1534q-34 0 -57 21
t-23 55t23 56t57 22t57 -22t23 -56t-23 -55t-57 -21z" />
    <glyph glyph-name="Yacute" unicode="&#xdd;" horiz-adv-x="1057" 
d="M463 0v553l-463 793h141l389 -682l385 682h142l-465 -793v-553h-129zM467 1466l196 265h148l-248 -265h-96z" />
    <glyph glyph-name="Thorn" unicode="&#xde;" horiz-adv-x="1153" 
d="M184 279v110h457q134 0 216.5 67.5t82.5 207.5q0 149 -82.5 220.5t-216.5 71.5h-457v111h465q121 0 216 -48t149.5 -138t54.5 -217q0 -122 -54.5 -208t-149.5 -131.5t-216 -45.5h-465zM184 0v1346h129v-1346h-129z" />
    <glyph glyph-name="germandbls" unicode="&#xdf;" horiz-adv-x="1085" 
d="M547 -12q-38 0 -70.5 3t-64.5 9v104q34 -9 66 -13.5t69 -4.5q163 0 245 76t82 211q0 157 -101.5 224t-262.5 67h-98v96h98q129 0 211 66t82 198q0 114 -66 178t-182 64q-129 0 -204 -84t-75 -269v-913h-118v913q0 145 46.5 245.5t135 153t215.5 52.5q111 0 193.5 -42
t128 -118t45.5 -180q0 -95 -36.5 -164.5t-105 -111t-164.5 -54.5l-106 66q151 0 259 -45.5t166 -132t58 -209.5q0 -131 -58.5 -216.5t-159.5 -127t-228 -41.5z" />
    <glyph glyph-name="agrave" unicode="&#xe0;" horiz-adv-x="1067" 
d="M414 -18q-85 0 -153 31.5t-108 93t-40 151.5q0 129 82.5 196.5t234.5 92.5t358 26v76q0 139 -70.5 191.5t-176.5 52.5q-112 0 -190.5 -57.5t-78.5 -180.5h-118q0 117 50 191.5t137.5 109.5t199.5 35q65 0 129.5 -13.5t118 -50t86 -103.5t32.5 -175v-649h-110l-6 158
q-70 -76 -162 -126t-215 -50zM436 82q113 0 201.5 51t150.5 135v217q-295 -3 -426 -54.5t-131 -168.5q0 -79 50.5 -129.5t154.5 -50.5zM521 1112l-258 266h147l207 -266h-96z" />
    <glyph glyph-name="aacute" unicode="&#xe1;" horiz-adv-x="1067" 
d="M414 -18q-85 0 -153 31.5t-108 93t-40 151.5q0 129 82.5 196.5t234.5 92.5t358 26v76q0 139 -70.5 191.5t-176.5 52.5q-112 0 -190.5 -57.5t-78.5 -180.5h-118q0 117 50 191.5t137.5 109.5t199.5 35q65 0 129.5 -13.5t118 -50t86 -103.5t32.5 -175v-649h-110l-6 158
q-70 -76 -162 -126t-215 -50zM436 82q113 0 201.5 51t150.5 135v217q-295 -3 -426 -54.5t-131 -168.5q0 -79 50.5 -129.5t154.5 -50.5zM474 1112l206 266h148l-258 -266h-96z" />
    <glyph glyph-name="acircumflex" unicode="&#xe2;" horiz-adv-x="1067" 
d="M414 -18q-85 0 -153 31.5t-108 93t-40 151.5q0 129 82.5 196.5t234.5 92.5t358 26v76q0 139 -70.5 191.5t-176.5 52.5q-112 0 -190.5 -57.5t-78.5 -180.5h-118q0 117 50 191.5t137.5 109.5t199.5 35q65 0 129.5 -13.5t118 -50t86 -103.5t32.5 -175v-649h-110l-6 158
q-70 -76 -162 -126t-215 -50zM436 82q113 0 201.5 51t150.5 135v217q-295 -3 -426 -54.5t-131 -168.5q0 -79 50.5 -129.5t154.5 -50.5zM267 1112l215 266h129l215 -266h-109l-170 184l-172 -184h-108z" />
    <glyph glyph-name="atilde" unicode="&#xe3;" horiz-adv-x="1067" 
d="M414 -18q-85 0 -153 31.5t-108 93t-40 151.5q0 129 82.5 196.5t234.5 92.5t358 26v76q0 139 -70.5 191.5t-176.5 52.5q-112 0 -190.5 -57.5t-78.5 -180.5h-118q0 117 50 191.5t137.5 109.5t199.5 35q65 0 129.5 -13.5t118 -50t86 -103.5t32.5 -175v-649h-110l-6 158
q-70 -76 -162 -126t-215 -50zM436 82q113 0 201.5 51t150.5 135v217q-295 -3 -426 -54.5t-131 -168.5q0 -79 50.5 -129.5t154.5 -50.5zM271 1149q9 80 41.5 131t101.5 51q38 0 76.5 -14t75.5 -31q34 -15 60 -24t48 -9q28 0 46 21.5t22 62.5h78q-10 -76 -42.5 -127
t-101.5 -51q-41 0 -79 14t-72 29q-34 16 -60 25.5t-49 9.5q-28 0 -45 -22t-22 -66h-78z" />
    <glyph glyph-name="adieresis" unicode="&#xe4;" horiz-adv-x="1067" 
d="M414 -18q-85 0 -153 31.5t-108 93t-40 151.5q0 129 82.5 196.5t234.5 92.5t358 26v76q0 139 -70.5 191.5t-176.5 52.5q-112 0 -190.5 -57.5t-78.5 -180.5h-118q0 117 50 191.5t137.5 109.5t199.5 35q65 0 129.5 -13.5t118 -50t86 -103.5t32.5 -175v-649h-110l-6 158
q-70 -76 -162 -126t-215 -50zM436 82q113 0 201.5 51t150.5 135v217q-295 -3 -426 -54.5t-131 -168.5q0 -79 50.5 -129.5t154.5 -50.5zM713 1188q-34 0 -57 21t-23 55t23 55.5t57 21.5t57 -21.5t23 -55.5t-23 -55t-57 -21zM377 1188q-34 0 -57 21t-23 55t23 55.5t57 21.5
t57 -21.5t23 -55.5t-23 -55t-57 -21z" />
    <glyph glyph-name="aring" unicode="&#xe5;" horiz-adv-x="1067" 
d="M414 -18q-85 0 -153 31.5t-108 93t-40 151.5q0 129 82.5 196.5t234.5 92.5t358 26v76q0 139 -70.5 191.5t-176.5 52.5q-112 0 -190.5 -57.5t-78.5 -180.5h-118q0 117 50 191.5t137.5 109.5t199.5 35q65 0 129.5 -13.5t118 -50t86 -103.5t32.5 -175v-649h-110l-6 158
q-70 -76 -162 -126t-215 -50zM436 82q113 0 201.5 51t150.5 135v217q-295 -3 -426 -54.5t-131 -168.5q0 -79 50.5 -129.5t154.5 -50.5zM545 1079q-91 0 -148 56t-57 147q0 89 57 145t148 56t148 -56t57 -145q0 -91 -57 -147t-148 -56zM545 1165q51 0 82 32.5t31 84.5
q0 51 -31 84t-82 33q-50 0 -81 -33t-31 -84q0 -52 31 -84.5t81 -32.5z" />
    <glyph glyph-name="ae" unicode="&#xe6;" horiz-adv-x="1702" 
d="M1206 -18q-156 0 -253 69.5t-142 184t-45 249.5q0 146 43.5 260t136.5 180t240 66q189 0 295 -116.5t106 -335.5q0 -17 -1 -37.5t-3 -28.5h-698q0 -107 32 -196.5t103 -143t186 -53.5q125 0 194 59.5t73 171.5h116q-2 -97 -48 -171t-131 -116t-204 -42zM428 -18
q-138 0 -226.5 71.5t-88.5 204.5q0 130 81.5 197t228.5 91.5t343 26.5v86q0 89 -31.5 140t-83 72.5t-110.5 21.5q-112 0 -190.5 -56.5t-78.5 -179.5h-118q0 176 109.5 255t277.5 79q64 0 133.5 -19t123.5 -70t70 -148l-47 -269q-214 -2 -343.5 -24.5t-188 -69.5t-58.5 -123
q0 -82 51.5 -134t155.5 -52q75 0 140 25.5t122 78t107 131.5l53 -59q-34 -66 -95 -129.5t-145.5 -105t-191.5 -41.5zM885 573h585q-3 152 -76 235t-208 83q-139 0 -213 -81.5t-88 -236.5z" />
    <glyph glyph-name="ccedilla" unicode="&#xe7;" horiz-adv-x="1051" 
d="M545 -18q-130 0 -227 57t-151 169.5t-54 276.5q0 165 54 278t151 170.5t227 57.5q108 0 193.5 -35t137 -106t56.5 -180h-119q-9 104 -78 162.5t-186 58.5q-155 0 -234 -107t-79 -299q0 -128 35 -218t105 -137.5t173 -47.5q117 0 191.5 58.5t78.5 174.5h119
q-3 -113 -56 -187t-141 -110t-196 -36zM534 -383q-49 0 -89.5 8.5t-75.5 22.5l22 82q22 -11 61.5 -19t79.5 -8q35 0 61.5 18t26.5 50q0 37 -33.5 56t-111.5 26l-43 4l129 180l72 -37l-72 -102l-20 28q94 -6 141 -42.5t47 -104.5q0 -53 -24.5 -89.5t-68 -54.5t-102.5 -18z
" />
    <glyph glyph-name="egrave" unicode="&#xe8;" horiz-adv-x="1049" 
d="M553 -18q-156 0 -253 69.5t-142 184t-45 249.5q0 146 43.5 260t136 180t239.5 66q189 0 295.5 -116.5t106.5 -335.5q0 -17 -1 -37.5t-3 -28.5h-699q0 -107 32.5 -196.5t103.5 -143t186 -53.5q125 0 194 59.5t72 171.5h117q-2 -97 -48 -171t-131 -116t-204 -42zM231 573
h586q-3 152 -76 235t-209 83q-138 0 -212.5 -81.5t-88.5 -236.5zM513 1112l-258 266h147l207 -266h-96z" />
    <glyph glyph-name="eacute" unicode="&#xe9;" horiz-adv-x="1049" 
d="M553 -18q-156 0 -253 69.5t-142 184t-45 249.5q0 146 43.5 260t136 180t239.5 66q189 0 295.5 -116.5t106.5 -335.5q0 -17 -1 -37.5t-3 -28.5h-699q0 -107 32.5 -196.5t103.5 -143t186 -53.5q125 0 194 59.5t72 171.5h117q-2 -97 -48 -171t-131 -116t-204 -42zM231 573
h586q-3 152 -76 235t-209 83q-138 0 -212.5 -81.5t-88.5 -236.5zM466 1112l206 266h148l-258 -266h-96z" />
    <glyph glyph-name="ecircumflex" unicode="&#xea;" horiz-adv-x="1049" 
d="M553 -18q-156 0 -253 69.5t-142 184t-45 249.5q0 146 43.5 260t136 180t239.5 66q189 0 295.5 -116.5t106.5 -335.5q0 -17 -1 -37.5t-3 -28.5h-699q0 -107 32.5 -196.5t103.5 -143t186 -53.5q125 0 194 59.5t72 171.5h117q-2 -97 -48 -171t-131 -116t-204 -42zM231 573
h586q-3 152 -76 235t-209 83q-138 0 -212.5 -81.5t-88.5 -236.5zM259 1112l215 266h129l215 -266h-109l-170 184l-172 -184h-108z" />
    <glyph glyph-name="edieresis" unicode="&#xeb;" horiz-adv-x="1049" 
d="M553 -18q-156 0 -253 69.5t-142 184t-45 249.5q0 146 43.5 260t136 180t239.5 66q189 0 295.5 -116.5t106.5 -335.5q0 -17 -1 -37.5t-3 -28.5h-699q0 -107 32.5 -196.5t103.5 -143t186 -53.5q125 0 194 59.5t72 171.5h117q-2 -97 -48 -171t-131 -116t-204 -42zM231 573
h586q-3 152 -76 235t-209 83q-138 0 -212.5 -81.5t-88.5 -236.5zM705 1188q-34 0 -57 21t-23 55t23 55.5t57 21.5t57 -21.5t23 -55.5t-23 -55t-57 -21zM369 1188q-34 0 -57 21t-23 55t23 55.5t57 21.5t57 -21.5t23 -55.5t-23 -55t-57 -21z" />
    <glyph glyph-name="igrave" unicode="&#xec;" horiz-adv-x="459" 
d="M170 0v973h119v-973h-119zM205 1112l-258 266h147l207 -266h-96z" />
    <glyph glyph-name="iacute" unicode="&#xed;" horiz-adv-x="459" 
d="M170 0v973h119v-973h-119zM158 1112l206 266h148l-258 -266h-96z" />
    <glyph glyph-name="icircumflex" unicode="&#xee;" horiz-adv-x="459" 
d="M170 0v973h119v-973h-119zM-49 1112l215 266h129l215 -266h-109l-170 184l-172 -184h-108z" />
    <glyph glyph-name="idieresis" unicode="&#xef;" horiz-adv-x="459" 
d="M170 0v973h119v-973h-119zM371 1188q-34 0 -57 21t-23 55t23 55.5t57 21.5t56.5 -21.5t22.5 -55.5t-22.5 -55t-56.5 -21zM88 1188q-34 0 -57 21t-23 55t23 55.5t57 21.5t57 -21.5t23 -55.5t-23 -55t-57 -21z" />
    <glyph glyph-name="eth" unicode="&#xf0;" horiz-adv-x="1108" 
d="M551 -16q-142 0 -240 60.5t-148 171.5t-50 261q0 152 49.5 263.5t145.5 173t233 61.5q135 0 211 -60.5t116 -164.5h-20q-29 59 -55 103t-60 85t-86.5 91t-136.5 120l-234 197h168l150 -125q147 -122 235 -238t127 -235t39 -250q0 -160 -51 -275t-149.5 -177t-243.5 -62z
M547 82q119 0 190 51t103 140.5t32 203.5q0 115 -32 204.5t-103 141t-190 51.5q-114 0 -182 -51.5t-98.5 -141t-30.5 -204.5q0 -114 30.5 -203.5t98.5 -140.5t182 -51zM258 1034v107l270 108v-4l269 109v-105l-269 -108v2z" />
    <glyph glyph-name="ntilde" unicode="&#xf1;" horiz-adv-x="1100" 
d="M170 0v973h113l6 -152q44 57 130 111.5t218 54.5q166 0 234.5 -96.5t68.5 -265.5v-625h-119v606q0 80 -15 142.5t-57 98.5t-124 36q-124 0 -207 -56t-129 -118v-709h-119zM279 1149q9 80 41.5 131t101.5 51q38 0 76.5 -14t75.5 -31q34 -15 60 -24t48 -9q28 0 46 21.5
t22 62.5h78q-10 -76 -42.5 -127t-101.5 -51q-41 0 -79 14t-72 29q-34 16 -60 25.5t-49 9.5q-28 0 -45 -22t-22 -66h-78z" />
    <glyph glyph-name="ograve" unicode="&#xf2;" horiz-adv-x="1108" 
d="M547 -16q-140 0 -237 61t-147 173.5t-50 266.5q0 157 50 271t147 175.5t237 61.5q145 0 244.5 -61.5t151.5 -175.5t52 -271q0 -154 -52 -266.5t-151.5 -173.5t-244.5 -61zM547 82q119 0 190 51.5t103 142.5t32 209q0 120 -32 212.5t-103 145t-190 52.5q-114 0 -182 -52.5
t-98.5 -145t-30.5 -212.5q0 -118 30.5 -209t98.5 -142.5t182 -51.5zM529 1112l-258 266h147l207 -266h-96z" />
    <glyph glyph-name="oacute" unicode="&#xf3;" horiz-adv-x="1108" 
d="M547 -16q-140 0 -237 61t-147 173.5t-50 266.5q0 157 50 271t147 175.5t237 61.5q145 0 244.5 -61.5t151.5 -175.5t52 -271q0 -154 -52 -266.5t-151.5 -173.5t-244.5 -61zM547 82q119 0 190 51.5t103 142.5t32 209q0 120 -32 212.5t-103 145t-190 52.5q-114 0 -182 -52.5
t-98.5 -145t-30.5 -212.5q0 -118 30.5 -209t98.5 -142.5t182 -51.5zM482 1112l206 266h148l-258 -266h-96z" />
    <glyph glyph-name="ocircumflex" unicode="&#xf4;" horiz-adv-x="1108" 
d="M547 -16q-140 0 -237 61t-147 173.5t-50 266.5q0 157 50 271t147 175.5t237 61.5q145 0 244.5 -61.5t151.5 -175.5t52 -271q0 -154 -52 -266.5t-151.5 -173.5t-244.5 -61zM547 82q119 0 190 51.5t103 142.5t32 209q0 120 -32 212.5t-103 145t-190 52.5q-114 0 -182 -52.5
t-98.5 -145t-30.5 -212.5q0 -118 30.5 -209t98.5 -142.5t182 -51.5zM275 1112l215 266h129l215 -266h-109l-170 184l-172 -184h-108z" />
    <glyph glyph-name="otilde" unicode="&#xf5;" horiz-adv-x="1108" 
d="M547 -16q-140 0 -237 61t-147 173.5t-50 266.5q0 157 50 271t147 175.5t237 61.5q145 0 244.5 -61.5t151.5 -175.5t52 -271q0 -154 -52 -266.5t-151.5 -173.5t-244.5 -61zM547 82q119 0 190 51.5t103 142.5t32 209q0 120 -32 212.5t-103 145t-190 52.5q-114 0 -182 -52.5
t-98.5 -145t-30.5 -212.5q0 -118 30.5 -209t98.5 -142.5t182 -51.5zM279 1149q9 80 41.5 131t101.5 51q38 0 76.5 -14t75.5 -31q34 -15 60 -24t48 -9q28 0 46 21.5t22 62.5h78q-10 -76 -42.5 -127t-101.5 -51q-41 0 -79 14t-72 29q-34 16 -60 25.5t-49 9.5q-28 0 -45 -22
t-22 -66h-78z" />
    <glyph glyph-name="odieresis" unicode="&#xf6;" horiz-adv-x="1108" 
d="M547 -16q-140 0 -237 61t-147 173.5t-50 266.5q0 157 50 271t147 175.5t237 61.5q145 0 244.5 -61.5t151.5 -175.5t52 -271q0 -154 -52 -266.5t-151.5 -173.5t-244.5 -61zM547 82q119 0 190 51.5t103 142.5t32 209q0 120 -32 212.5t-103 145t-190 52.5q-114 0 -182 -52.5
t-98.5 -145t-30.5 -212.5q0 -118 30.5 -209t98.5 -142.5t182 -51.5zM721 1188q-34 0 -57 21t-23 55t23 55.5t57 21.5t57 -21.5t23 -55.5t-23 -55t-57 -21zM385 1188q-34 0 -57 21t-23 55t23 55.5t57 21.5t57 -21.5t23 -55.5t-23 -55t-57 -21z" />
    <glyph glyph-name="divide" unicode="&#xf7;" 
d="M131 727h830v-113h-830v113zM547 250q-45 0 -76 31t-31 77q0 44 31 74.5t76 30.5q43 0 73.5 -30.5t30.5 -74.5q0 -46 -30.5 -77t-73.5 -31zM547 879q-45 0 -76 31t-31 75t31 75.5t76 31.5q43 0 73.5 -31.5t30.5 -75.5t-30.5 -75t-73.5 -31z" />
    <glyph glyph-name="oslash" unicode="&#xf8;" horiz-adv-x="1108" 
d="M160 -59l-68 59l856 1026l68 -57zM547 -16q-140 0 -237 61t-147 173.5t-50 266.5q0 157 50 271t147 175.5t237 61.5q145 0 244.5 -61.5t151.5 -175.5t52 -271q0 -154 -52 -266.5t-151.5 -173.5t-244.5 -61zM547 82q119 0 191.5 51.5t105.5 142.5t33 209q0 120 -33 212
t-105.5 144t-191.5 52q-114 0 -183.5 -52t-101 -144t-31.5 -212q0 -118 31.5 -209t101 -142.5t183.5 -51.5z" />
    <glyph glyph-name="ugrave" unicode="&#xf9;" horiz-adv-x="1120" 
d="M483 -16q-179 0 -251 95.5t-72 258.5v635h119v-617q0 -74 15.5 -132.5t62 -92t137.5 -33.5q124 0 207 51t130 115v709h119v-973h-114l-5 152q-46 -57 -131.5 -112.5t-216.5 -55.5zM531 1112l-258 266h147l207 -266h-96z" />
    <glyph glyph-name="uacute" unicode="&#xfa;" horiz-adv-x="1120" 
d="M483 -16q-179 0 -251 95.5t-72 258.5v635h119v-617q0 -74 15.5 -132.5t62 -92t137.5 -33.5q124 0 207 51t130 115v709h119v-973h-114l-5 152q-46 -57 -131.5 -112.5t-216.5 -55.5zM484 1112l206 266h148l-258 -266h-96z" />
    <glyph glyph-name="ucircumflex" unicode="&#xfb;" horiz-adv-x="1120" 
d="M483 -16q-179 0 -251 95.5t-72 258.5v635h119v-617q0 -74 15.5 -132.5t62 -92t137.5 -33.5q124 0 207 51t130 115v709h119v-973h-114l-5 152q-46 -57 -131.5 -112.5t-216.5 -55.5zM277 1112l215 266h129l215 -266h-109l-170 184l-172 -184h-108z" />
    <glyph glyph-name="udieresis" unicode="&#xfc;" horiz-adv-x="1120" 
d="M483 -16q-179 0 -251 95.5t-72 258.5v635h119v-617q0 -74 15.5 -132.5t62 -92t137.5 -33.5q124 0 207 51t130 115v709h119v-973h-114l-5 152q-46 -57 -131.5 -112.5t-216.5 -55.5zM723 1188q-34 0 -57 21t-23 55t23 55.5t57 21.5t57 -21.5t23 -55.5t-23 -55t-57 -21z
M387 1188q-34 0 -57 21t-23 55t23 55.5t57 21.5t57 -21.5t23 -55.5t-23 -55t-57 -21z" />
    <glyph glyph-name="yacute" unicode="&#xfd;" horiz-adv-x="883" 
d="M100 -358v100h80q56 0 95 35t73 117l45 106l-393 973h127l328 -834l307 834h121l-373 -973l-51 -129q-32 -79 -65 -129.5t-80.5 -75t-123.5 -24.5h-90zM373 1112l206 266h148l-258 -266h-96z" />
    <glyph glyph-name="thorn" unicode="&#xfe;" horiz-adv-x="1123" 
d="M170 -358v1704h119v-537q50 80 136 131t198 51q122 0 208.5 -59t132.5 -173.5t46 -281.5q0 -159 -48.5 -269t-140 -167t-219.5 -57q-109 0 -188.5 41.5t-126.5 113.5v-497h-117zM588 86q150 0 224.5 102.5t74.5 288.5q0 195 -69.5 303.5t-209.5 108.5q-116 0 -194 -59.5
t-125 -145.5v-420q43 -81 116.5 -129.5t182.5 -48.5z" />
    <glyph glyph-name="ydieresis" unicode="&#xff;" horiz-adv-x="883" 
d="M100 -358v100h80q56 0 95 35t73 117l45 106l-393 973h127l328 -834l307 834h121l-373 -973l-51 -129q-32 -79 -65 -129.5t-80.5 -75t-123.5 -24.5h-90zM612 1188q-34 0 -57 21t-23 55t23 55.5t57 21.5t57 -21.5t23 -55.5t-23 -55t-57 -21zM276 1188q-34 0 -57 21t-23 55
t23 55.5t57 21.5t57 -21.5t23 -55.5t-23 -55t-57 -21z" />
    <glyph glyph-name="Amacron" unicode="&#x100;" horiz-adv-x="1176" 
d="M10 0l514 1346h138l503 -1346h-133l-143 418h-594l-152 -418h-133zM334 528h512l-254 689zM320 1538v104h537v-104h-537z" />
    <glyph glyph-name="amacron" unicode="&#x101;" horiz-adv-x="1067" 
d="M414 -18q-85 0 -153 31.5t-108 93t-40 151.5q0 129 82.5 196.5t234.5 92.5t358 26v76q0 139 -70.5 191.5t-176.5 52.5q-112 0 -190.5 -57.5t-78.5 -180.5h-118q0 117 50 191.5t137.5 109.5t199.5 35q65 0 129.5 -13.5t118 -50t86 -103.5t32.5 -175v-649h-110l-6 158
q-70 -76 -162 -126t-215 -50zM436 82q113 0 201.5 51t150.5 135v217q-295 -3 -426 -54.5t-131 -168.5q0 -79 50.5 -129.5t154.5 -50.5zM277 1192v104h537v-104h-537z" />
    <glyph glyph-name="Abreve" unicode="&#x102;" horiz-adv-x="1176" 
d="M10 0l514 1346h138l503 -1346h-133l-143 418h-594l-152 -418h-133zM334 528h512l-254 689zM584 1493q-75 0 -133 28t-92.5 81t-40.5 129h86q3 -50 29.5 -84.5t66.5 -52t84 -17.5q45 0 85 18.5t67.5 53t34.5 82.5h88q-11 -74 -47.5 -127.5t-94 -82t-133.5 -28.5z" />
    <glyph glyph-name="abreve" unicode="&#x103;" horiz-adv-x="1067" 
d="M414 -18q-85 0 -153 31.5t-108 93t-40 151.5q0 129 82.5 196.5t234.5 92.5t358 26v76q0 139 -70.5 191.5t-176.5 52.5q-112 0 -190.5 -57.5t-78.5 -180.5h-118q0 117 50 191.5t137.5 109.5t199.5 35q65 0 129.5 -13.5t118 -50t86 -103.5t32.5 -175v-649h-110l-6 158
q-70 -76 -162 -126t-215 -50zM436 82q113 0 201.5 51t150.5 135v217q-295 -3 -426 -54.5t-131 -168.5q0 -79 50.5 -129.5t154.5 -50.5zM543 1124q-104 0 -171 63t-83 177h84q10 -76 58.5 -111.5t111.5 -35.5q62 0 111.5 37t58.5 110h82q-13 -112 -80.5 -176t-171.5 -64z" />
    <glyph glyph-name="Aogonek" unicode="&#x104;" horiz-adv-x="1176" 
d="M10 0l514 1346h138l503 -1346h-133l-143 418h-594l-152 -418h-133zM334 528h512l-254 689zM1028 -377q-71 0 -121.5 41.5t-50.5 114.5q0 50 32 101t85 92t116 61l49 -15q-95 -67 -129.5 -123.5t-34.5 -101.5q0 -38 22.5 -58t53.5 -20q34 0 63 9t60 22v-92
q-26 -14 -58 -22.5t-87 -8.5z" />
    <glyph glyph-name="aogonek" unicode="&#x105;" horiz-adv-x="1067" 
d="M414 -18q-85 0 -153 31.5t-108 93t-40 151.5q0 129 82.5 196.5t234.5 92.5t358 26v76q0 139 -70.5 191.5t-176.5 52.5q-112 0 -190.5 -57.5t-78.5 -180.5h-118q0 117 50 191.5t137.5 109.5t199.5 35q65 0 129.5 -13.5t118 -50t86 -103.5t32.5 -175v-649h-110l-6 158
q-70 -76 -162 -126t-215 -50zM436 82q113 0 201.5 51t150.5 135v217q-295 -3 -426 -54.5t-131 -168.5q0 -79 50.5 -129.5t154.5 -50.5zM768 -377q-71 0 -121.5 41.5t-50.5 114.5q0 50 32 101t85 92t116 61l49 -15q-95 -67 -129.5 -123.5t-34.5 -101.5q0 -38 22.5 -58
t53.5 -20q34 0 63 9t60 22v-92q-26 -14 -58 -22.5t-87 -8.5z" />
    <glyph glyph-name="Cacute" unicode="&#x106;" horiz-adv-x="1403" 
d="M748 -18q-212 0 -353 89t-211.5 244.5t-70.5 356.5t70.5 357t211.5 245.5t353 89.5q128 0 245 -45t197.5 -139t97.5 -242h-127q-13 111 -74.5 182t-151 105.5t-187.5 34.5q-178 0 -288.5 -78.5t-161 -211.5t-50.5 -298q0 -164 50.5 -296.5t161 -210t288.5 -77.5
q176 0 288.5 86t130.5 262h129q-18 -156 -96 -256.5t-196 -149t-256 -48.5zM674 1466l196 265h148l-248 -265h-96z" />
    <glyph glyph-name="cacute" unicode="&#x107;" horiz-adv-x="1051" 
d="M545 -18q-130 0 -227 57t-151 169.5t-54 276.5q0 165 54 278t151 170.5t227 57.5q108 0 193.5 -35t137 -106t56.5 -180h-119q-9 104 -78 162.5t-186 58.5q-155 0 -234 -107t-79 -299q0 -128 35 -218t105 -137.5t173 -47.5q117 0 191.5 58.5t78.5 174.5h119
q-3 -113 -56 -187t-141 -110t-196 -36zM459 1112l206 266h148l-258 -266h-96z" />
    <glyph glyph-name="Ccircumflex" unicode="&#x108;" horiz-adv-x="1403" 
d="M748 -18q-212 0 -353 89t-211.5 244.5t-70.5 356.5t70.5 357t211.5 245.5t353 89.5q128 0 245 -45t197.5 -139t97.5 -242h-127q-13 111 -74.5 182t-151 105.5t-187.5 34.5q-178 0 -288.5 -78.5t-161 -211.5t-50.5 -298q0 -164 50.5 -296.5t161 -210t288.5 -77.5
q176 0 288.5 86t130.5 262h129q-18 -156 -96 -256.5t-196 -149t-256 -48.5zM457 1466l215 267h129l215 -267h-109l-170 185l-172 -185h-108z" />
    <glyph glyph-name="ccircumflex" unicode="&#x109;" horiz-adv-x="1051" 
d="M545 -18q-130 0 -227 57t-151 169.5t-54 276.5q0 165 54 278t151 170.5t227 57.5q108 0 193.5 -35t137 -106t56.5 -180h-119q-9 104 -78 162.5t-186 58.5q-155 0 -234 -107t-79 -299q0 -128 35 -218t105 -137.5t173 -47.5q117 0 191.5 58.5t78.5 174.5h119
q-3 -113 -56 -187t-141 -110t-196 -36zM252 1112l215 266h129l215 -266h-109l-170 184l-172 -184h-108z" />
    <glyph glyph-name="Cdotaccent" unicode="&#x10a;" horiz-adv-x="1403" 
d="M748 -18q-212 0 -353 89t-211.5 244.5t-70.5 356.5t70.5 357t211.5 245.5t353 89.5q128 0 245 -45t197.5 -139t97.5 -242h-127q-13 111 -74.5 182t-151 105.5t-187.5 34.5q-178 0 -288.5 -78.5t-161 -211.5t-50.5 -298q0 -164 50.5 -296.5t161 -210t288.5 -77.5
q176 0 288.5 86t130.5 262h129q-18 -156 -96 -256.5t-196 -149t-256 -48.5zM737 1530q-35 0 -58.5 22.5t-23.5 57.5t23.5 58.5t58.5 23.5q34 0 58 -23.5t24 -58.5t-24 -57.5t-58 -22.5z" />
    <glyph glyph-name="cdotaccent" unicode="&#x10b;" horiz-adv-x="1051" 
d="M545 -18q-130 0 -227 57t-151 169.5t-54 276.5q0 165 54 278t151 170.5t227 57.5q108 0 193.5 -35t137 -106t56.5 -180h-119q-9 104 -78 162.5t-186 58.5q-155 0 -234 -107t-79 -299q0 -128 35 -218t105 -137.5t173 -47.5q117 0 191.5 58.5t78.5 174.5h119
q-3 -113 -56 -187t-141 -110t-196 -36zM530 1184q-35 0 -58.5 22.5t-23.5 57.5t23.5 58.5t58.5 23.5q34 0 58 -23.5t24 -58.5t-24 -57.5t-58 -22.5z" />
    <glyph glyph-name="Ccaron" unicode="&#x10c;" horiz-adv-x="1403" 
d="M748 -18q-212 0 -353 89t-211.5 244.5t-70.5 356.5t70.5 357t211.5 245.5t353 89.5q128 0 245 -45t197.5 -139t97.5 -242h-127q-13 111 -74.5 182t-151 105.5t-187.5 34.5q-178 0 -288.5 -78.5t-161 -211.5t-50.5 -298q0 -164 50.5 -296.5t161 -210t288.5 -77.5
q176 0 288.5 86t130.5 262h129q-18 -156 -96 -256.5t-196 -149t-256 -48.5zM672 1466l-215 267h108l170 -185l172 185h109l-215 -267h-129z" />
    <glyph glyph-name="ccaron" unicode="&#x10d;" horiz-adv-x="1051" 
d="M545 -18q-130 0 -227 57t-151 169.5t-54 276.5q0 165 54 278t151 170.5t227 57.5q108 0 193.5 -35t137 -106t56.5 -180h-119q-9 104 -78 162.5t-186 58.5q-155 0 -234 -107t-79 -299q0 -128 35 -218t105 -137.5t173 -47.5q117 0 191.5 58.5t78.5 174.5h119
q-3 -113 -56 -187t-141 -110t-196 -36zM465 1112l-215 266h108l172 -186l170 186h109l-215 -266h-129z" />
    <glyph glyph-name="Dcaron" unicode="&#x10e;" horiz-adv-x="1383" 
d="M184 0v1346h428q209 0 355.5 -79.5t223.5 -230.5t77 -364q0 -212 -77 -362.5t-223.5 -230t-355.5 -79.5h-428zM313 109h254q194 0 319.5 61t187 186t61.5 316q0 193 -61.5 318t-187 186t-319.5 61h-254v-1128zM627 1466l-215 267h108l170 -185l172 185h109l-215 -267
h-129z" />
    <glyph glyph-name="dcaron" unicode="&#x10f;" horiz-adv-x="1122" 
d="M502 -18q-123 0 -210 58t-133 171t-46 276q0 164 48.5 276.5t140 170t220.5 57.5q105 0 184.5 -47.5t127.5 -130.5v533h118v-1346h-110l-8 143q-52 -70 -136 -115.5t-196 -45.5zM514 86q119 0 195 52t125 128v420q-45 89 -117 145t-182 56q-151 0 -225 -104.5t-74 -295.5
q0 -192 69.5 -296.5t208.5 -104.5zM1029 1028l65 318h125l-106 -318h-84z" />
    <glyph glyph-name="Dcroat" unicode="&#x110;" horiz-adv-x="1383" 
d="M0 637v104h696v-104h-696zM184 0v1346h428q209 0 355.5 -79.5t223.5 -230.5t77 -364q0 -212 -77 -362.5t-223.5 -230t-355.5 -79.5h-428zM313 109h254q194 0 319.5 61t187 186t61.5 316q0 193 -61.5 318t-187 186t-319.5 61h-254v-1128z" />
    <glyph glyph-name="dcroat" unicode="&#x111;" horiz-adv-x="1122" 
d="M604 1130v91h475v-91h-475zM502 -18q-123 0 -210 58t-133 171t-46 276q0 164 48.5 276.5t140 170t220.5 57.5q105 0 184.5 -47.5t127.5 -130.5v533h118v-1346h-110l-8 143q-52 -70 -136 -115.5t-196 -45.5zM514 86q119 0 195 52t125 128v420q-45 89 -117 145t-182 56
q-151 0 -225 -104.5t-74 -295.5q0 -192 69.5 -296.5t208.5 -104.5z" />
    <glyph glyph-name="Emacron" unicode="&#x112;" horiz-adv-x="1122" 
d="M184 0v1346h836v-109h-707v-487h656v-109h-656v-532h707v-109h-836zM334 1538v104h537v-104h-537z" />
    <glyph glyph-name="emacron" unicode="&#x113;" horiz-adv-x="1049" 
d="M553 -18q-156 0 -253 69.5t-142 184t-45 249.5q0 146 43.5 260t136 180t239.5 66q189 0 295.5 -116.5t106.5 -335.5q0 -17 -1 -37.5t-3 -28.5h-699q0 -107 32.5 -196.5t103.5 -143t186 -53.5q125 0 194 59.5t72 171.5h117q-2 -97 -48 -171t-131 -116t-204 -42zM231 573
h586q-3 152 -76 235t-209 83q-138 0 -212.5 -81.5t-88.5 -236.5zM269 1192v104h537v-104h-537z" />
    <glyph glyph-name="Ebreve" unicode="&#x114;" horiz-adv-x="1122" 
d="M184 0v1346h836v-109h-707v-487h656v-109h-656v-532h707v-109h-836zM598 1493q-75 0 -133 28t-92.5 81t-40.5 129h86q3 -50 29.5 -84.5t66.5 -52t84 -17.5q45 0 85 18.5t67.5 53t34.5 82.5h88q-11 -74 -47.5 -127.5t-94 -82t-133.5 -28.5z" />
    <glyph glyph-name="ebreve" unicode="&#x115;" horiz-adv-x="1049" 
d="M553 -18q-156 0 -253 69.5t-142 184t-45 249.5q0 146 43.5 260t136 180t239.5 66q189 0 295.5 -116.5t106.5 -335.5q0 -17 -1 -37.5t-3 -28.5h-699q0 -107 32.5 -196.5t103.5 -143t186 -53.5q125 0 194 59.5t72 171.5h117q-2 -97 -48 -171t-131 -116t-204 -42zM231 573
h586q-3 152 -76 235t-209 83q-138 0 -212.5 -81.5t-88.5 -236.5zM535 1124q-104 0 -171 63t-83 177h84q10 -76 58.5 -111.5t111.5 -35.5q62 0 111.5 37t58.5 110h82q-13 -112 -80.5 -176t-171.5 -64z" />
    <glyph glyph-name="Edotaccent" unicode="&#x116;" horiz-adv-x="1122" 
d="M184 0v1346h836v-109h-707v-487h656v-109h-656v-532h707v-109h-836zM602 1530q-35 0 -58.5 22.5t-23.5 57.5t23.5 58.5t58.5 23.5q34 0 58 -23.5t24 -58.5t-24 -57.5t-58 -22.5z" />
    <glyph glyph-name="edotaccent" unicode="&#x117;" horiz-adv-x="1049" 
d="M553 -18q-156 0 -253 69.5t-142 184t-45 249.5q0 146 43.5 260t136 180t239.5 66q189 0 295.5 -116.5t106.5 -335.5q0 -17 -1 -37.5t-3 -28.5h-699q0 -107 32.5 -196.5t103.5 -143t186 -53.5q125 0 194 59.5t72 171.5h117q-2 -97 -48 -171t-131 -116t-204 -42zM231 573
h586q-3 152 -76 235t-209 83q-138 0 -212.5 -81.5t-88.5 -236.5zM537 1184q-35 0 -58.5 22.5t-23.5 57.5t23.5 58.5t58.5 23.5q34 0 58 -23.5t24 -58.5t-24 -57.5t-58 -22.5z" />
    <glyph glyph-name="Eogonek" unicode="&#x118;" horiz-adv-x="1122" 
d="M184 0v1346h836v-109h-707v-487h656v-109h-656v-532h707v-109h-836zM822 -377q-71 0 -121.5 41.5t-50.5 114.5q0 50 32 101t85 92t116 61l49 -15q-95 -67 -129.5 -123.5t-34.5 -101.5q0 -38 22.5 -58t53.5 -20q34 0 63 9t60 22v-92q-26 -14 -58 -22.5t-87 -8.5z" />
    <glyph glyph-name="eogonek" unicode="&#x119;" horiz-adv-x="1049" 
d="M553 -18q-156 0 -253 69.5t-142 184t-45 249.5q0 146 43.5 260t136 180t239.5 66q189 0 295.5 -116.5t106.5 -335.5q0 -17 -1 -37.5t-3 -28.5h-699q0 -107 32.5 -196.5t103.5 -143t186 -53.5q125 0 194 59.5t72 171.5h117q-2 -97 -48 -171t-131 -116t-204 -42zM231 573
h586q-3 152 -76 235t-209 83q-138 0 -212.5 -81.5t-88.5 -236.5zM625 -377q-71 0 -121.5 41.5t-50.5 114.5q0 50 32 101t85 92t116 61l49 -15q-95 -67 -129.5 -123.5t-34.5 -101.5q0 -38 22.5 -58t53.5 -20q34 0 63 9t60 22v-92q-26 -14 -58 -22.5t-87 -8.5z" />
    <glyph glyph-name="Ecaron" unicode="&#x11a;" horiz-adv-x="1122" 
d="M184 0v1346h836v-109h-707v-487h656v-109h-656v-532h707v-109h-836zM537 1466l-215 267h108l170 -185l172 185h109l-215 -267h-129z" />
    <glyph glyph-name="ecaron" unicode="&#x11b;" horiz-adv-x="1049" 
d="M553 -18q-156 0 -253 69.5t-142 184t-45 249.5q0 146 43.5 260t136 180t239.5 66q189 0 295.5 -116.5t106.5 -335.5q0 -17 -1 -37.5t-3 -28.5h-699q0 -107 32.5 -196.5t103.5 -143t186 -53.5q125 0 194 59.5t72 171.5h117q-2 -97 -48 -171t-131 -116t-204 -42zM231 573
h586q-3 152 -76 235t-209 83q-138 0 -212.5 -81.5t-88.5 -236.5zM472 1112l-215 266h108l172 -186l170 186h109l-215 -266h-129z" />
    <glyph glyph-name="Gcircumflex" unicode="&#x11c;" horiz-adv-x="1442" 
d="M748 -18q-212 0 -353 88t-211.5 243.5t-70.5 358.5q0 204 70.5 360t211.5 244t353 88q103 0 195.5 -26t167 -78t121.5 -130.5t58 -183.5h-127q-11 82 -63 153.5t-141 116t-211 44.5q-178 0 -290 -78t-164 -211t-52 -299q0 -165 52 -297t164 -208.5t290 -76.5
q161 0 261.5 59t147.5 164t47 242h-430v111h553v-88q0 -176 -63 -310.5t-191 -210t-325 -75.5zM468 1466l215 267h129l215 -267h-109l-170 185l-172 -185h-108z" />
    <glyph glyph-name="gcircumflex" unicode="&#x11d;" horiz-adv-x="965" 
d="M487 -377q-149 0 -239.5 36t-131 96.5t-40.5 131.5q0 86 69 154t211 96l25 35h119q238 0 337 -61.5t99 -192.5q0 -127 -112.5 -211t-336.5 -84zM483 -279q188 0 265 54.5t77 136.5q0 47 -26.5 82t-99 54.5t-212.5 19.5h-133q-82 -19 -125 -66.5t-43 -110.5
q0 -69 68.5 -119.5t228.5 -50.5zM350 74q-89 10 -138.5 38.5t-69 63.5t-19.5 66q0 44 36 88t124 69l55 -53q-52 -15 -80.5 -41t-28.5 -57q0 -19 17 -36t57.5 -28t110.5 -12zM477 317q-113 0 -192 46t-119.5 121t-40.5 163q0 92 41 167.5t121 120t196 44.5q118 0 196.5 -44.5
t117.5 -120t39 -167.5q0 -90 -39.5 -165t-119.5 -120t-200 -45zM477 408q106 0 175 60t69 179q0 123 -65 182.5t-173 59.5q-106 0 -175.5 -61.5t-69.5 -180.5q0 -120 72 -179.5t167 -59.5zM719 893l-62 45q44 89 108 121t171 35v-115q-66 0 -121.5 -14.5t-95.5 -71.5z
M207 1112l215 266h129l215 -266h-109l-170 184l-172 -184h-108z" />
    <glyph glyph-name="Gbreve" unicode="&#x11e;" horiz-adv-x="1442" 
d="M748 -18q-212 0 -353 88t-211.5 243.5t-70.5 358.5q0 204 70.5 360t211.5 244t353 88q103 0 195.5 -26t167 -78t121.5 -130.5t58 -183.5h-127q-11 82 -63 153.5t-141 116t-211 44.5q-178 0 -290 -78t-164 -211t-52 -299q0 -165 52 -297t164 -208.5t290 -76.5
q161 0 261.5 59t147.5 164t47 242h-430v111h553v-88q0 -176 -63 -310.5t-191 -210t-325 -75.5zM744 1493q-75 0 -133 28t-92.5 81t-40.5 129h86q3 -50 29.5 -84.5t66.5 -52t84 -17.5q45 0 85 18.5t67.5 53t34.5 82.5h88q-11 -74 -47.5 -127.5t-94 -82t-133.5 -28.5z" />
    <glyph glyph-name="gbreve" unicode="&#x11f;" horiz-adv-x="965" 
d="M487 -377q-149 0 -239.5 36t-131 96.5t-40.5 131.5q0 86 69 154t211 96l25 35h119q238 0 337 -61.5t99 -192.5q0 -127 -112.5 -211t-336.5 -84zM483 -279q188 0 265 54.5t77 136.5q0 47 -26.5 82t-99 54.5t-212.5 19.5h-133q-82 -19 -125 -66.5t-43 -110.5
q0 -69 68.5 -119.5t228.5 -50.5zM350 74q-89 10 -138.5 38.5t-69 63.5t-19.5 66q0 44 36 88t124 69l55 -53q-52 -15 -80.5 -41t-28.5 -57q0 -19 17 -36t57.5 -28t110.5 -12zM477 317q-113 0 -192 46t-119.5 121t-40.5 163q0 92 41 167.5t121 120t196 44.5q118 0 196.5 -44.5
t117.5 -120t39 -167.5q0 -90 -39.5 -165t-119.5 -120t-200 -45zM477 408q106 0 175 60t69 179q0 123 -65 182.5t-173 59.5q-106 0 -175.5 -61.5t-69.5 -180.5q0 -120 72 -179.5t167 -59.5zM719 893l-62 45q44 89 108 121t171 35v-115q-66 0 -121.5 -14.5t-95.5 -71.5z
M483 1124q-104 0 -171 63t-83 177h84q10 -76 58.5 -111.5t111.5 -35.5q62 0 111.5 37t58.5 110h82q-13 -112 -80.5 -176t-171.5 -64z" />
    <glyph glyph-name="Gdotaccent" unicode="&#x120;" horiz-adv-x="1442" 
d="M748 -18q-212 0 -353 88t-211.5 243.5t-70.5 358.5q0 204 70.5 360t211.5 244t353 88q103 0 195.5 -26t167 -78t121.5 -130.5t58 -183.5h-127q-11 82 -63 153.5t-141 116t-211 44.5q-178 0 -290 -78t-164 -211t-52 -299q0 -165 52 -297t164 -208.5t290 -76.5
q161 0 261.5 59t147.5 164t47 242h-430v111h553v-88q0 -176 -63 -310.5t-191 -210t-325 -75.5zM748 1530q-35 0 -58.5 22.5t-23.5 57.5t23.5 58.5t58.5 23.5q34 0 58 -23.5t24 -58.5t-24 -57.5t-58 -22.5z" />
    <glyph glyph-name="gdotaccent" unicode="&#x121;" horiz-adv-x="965" 
d="M487 -377q-149 0 -239.5 36t-131 96.5t-40.5 131.5q0 86 69 154t211 96l25 35h119q238 0 337 -61.5t99 -192.5q0 -127 -112.5 -211t-336.5 -84zM483 -279q188 0 265 54.5t77 136.5q0 47 -26.5 82t-99 54.5t-212.5 19.5h-133q-82 -19 -125 -66.5t-43 -110.5
q0 -69 68.5 -119.5t228.5 -50.5zM350 74q-89 10 -138.5 38.5t-69 63.5t-19.5 66q0 44 36 88t124 69l55 -53q-52 -15 -80.5 -41t-28.5 -57q0 -19 17 -36t57.5 -28t110.5 -12zM477 317q-113 0 -192 46t-119.5 121t-40.5 163q0 92 41 167.5t121 120t196 44.5q118 0 196.5 -44.5
t117.5 -120t39 -167.5q0 -90 -39.5 -165t-119.5 -120t-200 -45zM477 408q106 0 175 60t69 179q0 123 -65 182.5t-173 59.5q-106 0 -175.5 -61.5t-69.5 -180.5q0 -120 72 -179.5t167 -59.5zM719 893l-62 45q44 89 108 121t171 35v-115q-66 0 -121.5 -14.5t-95.5 -71.5z
M485 1184q-35 0 -58.5 22.5t-23.5 57.5t23.5 58.5t58.5 23.5q34 0 58 -23.5t24 -58.5t-24 -57.5t-58 -22.5z" />
    <glyph glyph-name="uni0122" unicode="&#x122;" horiz-adv-x="1442" 
d="M748 -18q-212 0 -353 88t-211.5 243.5t-70.5 358.5q0 204 70.5 360t211.5 244t353 88q103 0 195.5 -26t167 -78t121.5 -130.5t58 -183.5h-127q-11 82 -63 153.5t-141 116t-211 44.5q-178 0 -290 -78t-164 -211t-52 -299q0 -165 52 -297t164 -208.5t290 -76.5
q161 0 261.5 59t147.5 164t47 242h-430v111h553v-88q0 -176 -63 -310.5t-191 -210t-325 -75.5zM670 -365l-20 58q25 14 53 35t37 53q-29 6 -49.5 28.5t-20.5 51.5q0 34 24 57t62 23t65.5 -24.5t27.5 -72.5q0 -75 -54 -132t-125 -77z" />
    <glyph glyph-name="uni0123" unicode="&#x123;" horiz-adv-x="965" 
d="M487 -377q-149 0 -239.5 36t-131 96.5t-40.5 131.5q0 86 69 154t211 96l25 35h119q238 0 337 -61.5t99 -192.5q0 -127 -112.5 -211t-336.5 -84zM483 -279q188 0 265 54.5t77 136.5q0 47 -26.5 82t-99 54.5t-212.5 19.5h-133q-82 -19 -125 -66.5t-43 -110.5
q0 -69 68.5 -119.5t228.5 -50.5zM350 74q-89 10 -138.5 38.5t-69 63.5t-19.5 66q0 44 36 88t124 69l55 -53q-52 -15 -80.5 -41t-28.5 -57q0 -19 17 -36t57.5 -28t110.5 -12zM477 317q-113 0 -192 46t-119.5 121t-40.5 163q0 92 41 167.5t121 120t196 44.5q118 0 196.5 -44.5
t117.5 -120t39 -167.5q0 -90 -39.5 -165t-119.5 -120t-200 -45zM477 408q106 0 175 60t69 179q0 123 -65 182.5t-173 59.5q-106 0 -175.5 -61.5t-69.5 -180.5q0 -120 72 -179.5t167 -59.5zM719 893l-62 45q44 89 108 121t171 35v-115q-66 0 -121.5 -14.5t-95.5 -71.5z
M477 1087q-37 0 -64.5 24.5t-27.5 72.5q0 50 25 92.5t65.5 73t87.5 43.5l21 -58q-25 -13 -53 -34.5t-38 -53.5q29 -6 49.5 -28.5t20.5 -51.5q0 -34 -24 -57t-62 -23z" />
    <glyph glyph-name="Hcircumflex" unicode="&#x124;" horiz-adv-x="1425" 
d="M184 0v1346h129v-584h799v584h127v-1346h-127v651h-799v-651h-129zM433 1466l215 267h129l215 -267h-109l-170 185l-172 -185h-108z" />
    <glyph glyph-name="hcircumflex" unicode="&#x125;" horiz-adv-x="1100" 
d="M170 0v1346h119v-525q44 57 130 111.5t218 54.5q169 0 236 -96.5t67 -265.5v-625h-119v606q0 80 -14.5 142.5t-56.5 98.5t-125 36q-124 0 -207 -56t-129 -118v-709h-119zM273 1485l215 266h129l215 -266h-109l-170 184l-172 -184h-108z" />
    <glyph glyph-name="Hbar" unicode="&#x126;" horiz-adv-x="1425" 
d="M18 997v99h1387v-99h-1387zM184 0v1346h129v-584h799v584h127v-1346h-127v651h-799v-651h-129z" />
    <glyph glyph-name="hbar" unicode="&#x127;" horiz-adv-x="1100" 
d="M43 1130v91h477v-91h-477zM170 0v1346h119v-525q44 57 130 111.5t218 54.5q169 0 236 -96.5t67 -265.5v-625h-119v606q0 80 -14.5 142.5t-56.5 98.5t-125 36q-124 0 -207 -56t-129 -118v-709h-119z" />
    <glyph glyph-name="Itilde" unicode="&#x128;" horiz-adv-x="499" 
d="M184 0v1346h129v-1346h-129zM-26 1495q9 80 41.5 131t101.5 51q38 0 76.5 -14t75.5 -31q34 -15 60 -24t48 -9q28 0 46 21.5t22 62.5h78q-10 -76 -42.5 -127t-101.5 -51q-41 0 -79 14t-72 29q-34 16 -60 25.5t-49 9.5q-28 0 -45 -22t-22 -66h-78z" />
    <glyph glyph-name="itilde" unicode="&#x129;" horiz-adv-x="459" 
d="M170 0v973h119v-973h-119zM-45 1149q9 80 41.5 131t101.5 51q38 0 76.5 -14t75.5 -31q34 -15 60 -24t48 -9q28 0 46 21.5t22 62.5h78q-10 -76 -42.5 -127t-101.5 -51q-41 0 -79 14t-72 29q-34 16 -60 25.5t-49 9.5q-28 0 -45 -22t-22 -66h-78z" />
    <glyph glyph-name="Imacron" unicode="&#x12a;" horiz-adv-x="499" 
d="M184 0v1346h129v-1346h-129zM-20 1538v104h537v-104h-537z" />
    <glyph glyph-name="imacron" unicode="&#x12b;" horiz-adv-x="459" 
d="M170 0v973h119v-973h-119zM33 1202v84h393v-84h-393z" />
    <glyph glyph-name="Ibreve" unicode="&#x12c;" horiz-adv-x="499" 
d="M184 0v1346h129v-1346h-129zM244 1493q-75 0 -133 28t-92.5 81t-40.5 129h86q3 -50 29.5 -84.5t66.5 -52t84 -17.5q45 0 85 18.5t67.5 53t34.5 82.5h88q-11 -74 -47.5 -127.5t-94 -82t-133.5 -28.5z" />
    <glyph glyph-name="ibreve" unicode="&#x12d;" horiz-adv-x="459" 
d="M170 0v973h119v-973h-119zM227 1124q-104 0 -171 63t-83 177h84q10 -76 58.5 -111.5t111.5 -35.5q62 0 111.5 37t58.5 110h82q-13 -112 -80.5 -176t-171.5 -64z" />
    <glyph glyph-name="Iogonek" unicode="&#x12e;" horiz-adv-x="499" 
d="M184 0v1346h129v-1346h-129zM201 -377q-71 0 -121.5 41.5t-50.5 114.5q0 50 32 101t85 92t116 61l49 -15q-95 -67 -129.5 -123.5t-34.5 -101.5q0 -38 22.5 -58t53.5 -20q34 0 63 9t60 22v-92q-26 -14 -58 -22.5t-87 -8.5z" />
    <glyph glyph-name="iogonek" unicode="&#x12f;" horiz-adv-x="459" 
d="M170 0v973h119v-973h-119zM229 1184q-35 0 -58.5 22.5t-23.5 57.5t23.5 58.5t58.5 23.5q34 0 58 -23.5t24 -58.5t-24 -57.5t-58 -22.5zM174 -377q-71 0 -121.5 41.5t-50.5 114.5q0 50 32 101t85 92t116 61l49 -15q-95 -67 -129.5 -123.5t-34.5 -101.5q0 -38 22.5 -58
t53.5 -20q34 0 63 9t60 22v-92q-26 -14 -58 -22.5t-87 -8.5z" />
    <glyph glyph-name="Idotaccent" unicode="&#x130;" horiz-adv-x="499" 
d="M184 0v1346h129v-1346h-129zM248 1530q-35 0 -58.5 22.5t-23.5 57.5t23.5 58.5t58.5 23.5q34 0 58 -23.5t24 -58.5t-24 -57.5t-58 -22.5z" />
    <glyph glyph-name="dotlessi" unicode="&#x131;" horiz-adv-x="459" 
d="M170 0v973h119v-973h-119z" />
    <glyph glyph-name="IJ" unicode="&#x132;" horiz-adv-x="1141" 
d="M184 0v1346h129v-1346h-129zM536 -10v110h57q151 0 201.5 66.5t50.5 212.5v967h129v-971q0 -135 -36.5 -220t-118 -125t-216.5 -40h-67z" />
    <glyph glyph-name="ij" unicode="&#x133;" horiz-adv-x="918" 
d="M170 0v973h119v-973h-119zM229 1184q-35 0 -58.5 22.5t-23.5 57.5t23.5 58.5t58.5 23.5q34 0 58 -23.5t24 -58.5t-24 -57.5t-58 -22.5zM439 -358v100h36q77 0 115.5 36t38.5 124v1071h119v-1061q0 -132 -58 -201t-196 -69h-55zM688 1184q-35 0 -58.5 22.5t-23.5 57.5
t23.5 58.5t58.5 23.5q34 0 58 -23.5t24 -58.5t-24 -57.5t-58 -22.5z" />
    <glyph glyph-name="Jcircumflex" unicode="&#x134;" horiz-adv-x="642" 
d="M37 -10v110h57q151 0 201.5 66.5t50.5 212.5v967h129v-971q0 -135 -36.5 -220t-118 -125t-216.5 -40h-67zM136 1466l215 267h129l215 -267h-109l-170 185l-172 -185h-108z" />
    <glyph glyph-name="jcircumflex" unicode="&#x135;" horiz-adv-x="459" 
d="M-20 -358v100h36q77 0 115.5 36t38.5 124v1071h119v-1061q0 -132 -58 -201t-196 -69h-55zM-49 1112l215 266h129l215 -266h-109l-170 184l-172 -184h-108z" />
    <glyph glyph-name="uni0136" unicode="&#x136;" horiz-adv-x="1108" 
d="M184 0v1346h129v-650l588 650h154l-590 -637l643 -709h-168l-627 692v-692h-129zM555 -365l-20 58q25 14 53 35t37 53q-29 6 -49.5 28.5t-20.5 51.5q0 34 24 57t62 23t65.5 -24.5t27.5 -72.5q0 -75 -54 -132t-125 -77z" />
    <glyph glyph-name="uni0137" unicode="&#x137;" horiz-adv-x="948" 
d="M170 0v1346h119v-836l469 463h151l-467 -459l514 -514h-161l-506 502v-502h-119zM448 -365l-20 58q25 14 53 35t37 53q-29 6 -49.5 28.5t-20.5 51.5q0 34 24 57t62 23t65.5 -24.5t27.5 -72.5q0 -75 -54 -132t-125 -77z" />
    <glyph glyph-name="kgreenlandic" unicode="&#x138;" horiz-adv-x="948" 
d="M170 0v973h119v-463l469 463h151l-467 -459l514 -514h-161l-506 502v-502h-119z" />
    <glyph glyph-name="Lacute" unicode="&#x139;" horiz-adv-x="1010" 
d="M184 0v1346h129v-1237h660v-109h-789zM185 1466l196 265h148l-248 -265h-96z" />
    <glyph glyph-name="lacute" unicode="&#x13a;" horiz-adv-x="496" 
d="M408 0q-104 0 -158 38.5t-73 107t-19 157.5v1043h118v-1039q0 -98 24.5 -152.5t119.5 -54.5h37v-100h-49zM150 1485l206 266h148l-258 -266h-96z" />
    <glyph glyph-name="uni013B" unicode="&#x13b;" horiz-adv-x="1010" 
d="M184 0v1346h129v-1237h660v-109h-789zM520 -365l-20 58q25 14 53 35t37 53q-29 6 -49.5 28.5t-20.5 51.5q0 34 24 57t62 23t65.5 -24.5t27.5 -72.5q0 -75 -54 -132t-125 -77z" />
    <glyph glyph-name="uni013C" unicode="&#x13c;" horiz-adv-x="496" 
d="M408 0q-104 0 -158 38.5t-73 107t-19 157.5v1043h118v-1039q0 -98 24.5 -152.5t119.5 -54.5h37v-100h-49zM225 -365l-20 58q25 14 53 35t37 53q-29 6 -49.5 28.5t-20.5 51.5q0 34 24 57t62 23t65.5 -24.5t27.5 -72.5q0 -75 -54 -132t-125 -77z" />
    <glyph glyph-name="Lcaron" unicode="&#x13d;" horiz-adv-x="1010" 
d="M184 0v1346h129v-1237h660v-109h-789zM621 1028l65 318h125l-106 -318h-84z" />
    <glyph glyph-name="lcaron" unicode="&#x13e;" horiz-adv-x="496" 
d="M408 0q-104 0 -158 38.5t-73 107t-19 157.5v1043h118v-1039q0 -98 24.5 -152.5t119.5 -54.5h37v-100h-49zM336 1028l65 318h125l-106 -318h-84z" />
    <glyph glyph-name="Ldot" unicode="&#x13f;" horiz-adv-x="1010" 
d="M184 0v1346h129v-1237h660v-109h-789zM746 645q-46 0 -77.5 31t-31.5 77q0 45 31.5 76t77.5 31q44 0 75 -31t31 -76q0 -46 -31 -77t-75 -31z" />
    <glyph glyph-name="ldot" unicode="&#x140;" horiz-adv-x="496" 
d="M408 0q-104 0 -158 38.5t-73 107t-19 157.5v1043h118v-1039q0 -98 24.5 -152.5t119.5 -54.5h37v-100h-49zM465 606q-46 0 -77.5 31t-31.5 77q0 45 31.5 76t77.5 31q44 0 75 -31t31 -76q0 -46 -31 -77t-75 -31z" />
    <glyph glyph-name="Lslash" unicode="&#x141;" horiz-adv-x="1010" 
d="M0 401v105l602 377v-105zM184 0v1346h129v-1237h660v-109h-789z" />
    <glyph glyph-name="lslash" unicode="&#x142;" horiz-adv-x="496" 
d="M207 702v107l227 184v-106zM0 545v104l207 168v-104zM408 0q-104 0 -158 38.5t-73 107t-19 157.5v1043h118v-1039q0 -98 24.5 -152.5t119.5 -54.5h37v-100h-49z" />
    <glyph glyph-name="Nacute" unicode="&#x143;" horiz-adv-x="1429" 
d="M184 0v1346h138l798 -1153v1153h123v-1346h-137l-799 1153v-1153h-123zM682 1466l196 265h148l-248 -265h-96z" />
    <glyph glyph-name="nacute" unicode="&#x144;" horiz-adv-x="1100" 
d="M170 0v973h113l6 -152q44 57 130 111.5t218 54.5q166 0 234.5 -96.5t68.5 -265.5v-625h-119v606q0 80 -15 142.5t-57 98.5t-124 36q-124 0 -207 -56t-129 -118v-709h-119zM482 1112l206 266h148l-258 -266h-96z" />
    <glyph glyph-name="uni0145" unicode="&#x145;" horiz-adv-x="1429" 
d="M184 0v1346h138l798 -1153v1153h123v-1346h-137l-799 1153v-1153h-123zM629 -365l-20 58q25 14 53 35t37 53q-29 6 -49.5 28.5t-20.5 51.5q0 34 24 57t62 23t65.5 -24.5t27.5 -72.5q0 -75 -54 -132t-125 -77z" />
    <glyph glyph-name="uni0146" unicode="&#x146;" horiz-adv-x="1100" 
d="M170 0v973h113l6 -152q44 57 130 111.5t218 54.5q166 0 234.5 -96.5t68.5 -265.5v-625h-119v606q0 80 -15 142.5t-57 98.5t-124 36q-124 0 -207 -56t-129 -118v-709h-119zM477 -365l-20 58q25 14 53 35t37 53q-29 6 -49.5 28.5t-20.5 51.5q0 34 24 57t62 23t65.5 -24.5
t27.5 -72.5q0 -75 -54 -132t-125 -77z" />
    <glyph glyph-name="Ncaron" unicode="&#x147;" horiz-adv-x="1429" 
d="M184 0v1346h138l798 -1153v1153h123v-1346h-137l-799 1153v-1153h-123zM680 1466l-215 267h108l170 -185l172 185h109l-215 -267h-129z" />
    <glyph glyph-name="ncaron" unicode="&#x148;" horiz-adv-x="1100" 
d="M170 0v973h113l6 -152q44 57 130 111.5t218 54.5q166 0 234.5 -96.5t68.5 -265.5v-625h-119v606q0 80 -15 142.5t-57 98.5t-124 36q-124 0 -207 -56t-129 -118v-709h-119zM488 1112l-215 266h108l172 -186l170 186h109l-215 -266h-129z" />
    <glyph glyph-name="napostrophe" unicode="&#x149;" horiz-adv-x="1161" 
d="M231 0v973h113l6 -152q44 57 130 111.5t218 54.5q166 0 234.5 -96.5t68.5 -265.5v-625h-119v606q0 80 -15 142.5t-57 98.5t-124 36q-124 0 -207 -56t-129 -118v-709h-119zM-29 907l-41 66q60 35 100.5 83t46.5 111l9 -6q-45 0 -76 28t-31 73q0 46 30.5 75t76.5 29
t76 -32.5t30 -100.5q0 -73 -26.5 -135t-76 -110.5t-118.5 -80.5z" />
    <glyph glyph-name="Eng" unicode="&#x14a;" horiz-adv-x="1429" 
d="M184 0v1346h138l798 -1110v1110h123v-1317l-129 4l-807 1120v-1153h-123zM805 -358v110h57q151 0 201.5 66.5t50.5 214.5l129 -4q0 -205 -84.5 -296t-286.5 -91h-67z" />
    <glyph glyph-name="eng" unicode="&#x14b;" horiz-adv-x="1100" 
d="M631 -358v100h37q77 0 115 36t38 124v159h119v-149q0 -132 -58 -201t-196 -69h-55zM170 0v973h113l6 -152q44 57 130 111.5t218 54.5q166 0 234.5 -96.5t68.5 -265.5v-625h-119v606q0 80 -15 142.5t-57 98.5t-124 36q-124 0 -207 -56t-129 -118v-709h-119z" />
    <glyph glyph-name="Omacron" unicode="&#x14c;" horiz-adv-x="1495" 
d="M748 -18q-212 0 -353 89t-211.5 244.5t-70.5 356.5t70.5 357t211.5 245.5t353 89.5q211 0 351 -89.5t210.5 -245.5t70.5 -357t-70.5 -356.5t-210.5 -244.5t-351 -89zM748 86q177 0 287 78.5t161 211.5t51 296q0 164 -51 297t-161 212t-287 79q-178 0 -288.5 -79
t-161 -212t-50.5 -297q0 -163 50.5 -296t161 -211.5t288.5 -78.5zM480 1538v104h537v-104h-537z" />
    <glyph glyph-name="omacron" unicode="&#x14d;" horiz-adv-x="1108" 
d="M547 -16q-140 0 -237 61t-147 173.5t-50 266.5q0 157 50 271t147 175.5t237 61.5q145 0 244.5 -61.5t151.5 -175.5t52 -271q0 -154 -52 -266.5t-151.5 -173.5t-244.5 -61zM547 82q119 0 190 51.5t103 142.5t32 209q0 120 -32 212.5t-103 145t-190 52.5q-114 0 -182 -52.5
t-98.5 -145t-30.5 -212.5q0 -118 30.5 -209t98.5 -142.5t182 -51.5zM285 1192v104h537v-104h-537z" />
    <glyph glyph-name="Obreve" unicode="&#x14e;" horiz-adv-x="1495" 
d="M748 -18q-212 0 -353 89t-211.5 244.5t-70.5 356.5t70.5 357t211.5 245.5t353 89.5q211 0 351 -89.5t210.5 -245.5t70.5 -357t-70.5 -356.5t-210.5 -244.5t-351 -89zM748 86q177 0 287 78.5t161 211.5t51 296q0 164 -51 297t-161 212t-287 79q-178 0 -288.5 -79
t-161 -212t-50.5 -297q0 -163 50.5 -296t161 -211.5t288.5 -78.5zM744 1493q-75 0 -133 28t-92.5 81t-40.5 129h86q3 -50 29.5 -84.5t66.5 -52t84 -17.5q45 0 85 18.5t67.5 53t34.5 82.5h88q-11 -74 -47.5 -127.5t-94 -82t-133.5 -28.5z" />
    <glyph glyph-name="obreve" unicode="&#x14f;" horiz-adv-x="1108" 
d="M547 -16q-140 0 -237 61t-147 173.5t-50 266.5q0 157 50 271t147 175.5t237 61.5q145 0 244.5 -61.5t151.5 -175.5t52 -271q0 -154 -52 -266.5t-151.5 -173.5t-244.5 -61zM547 82q119 0 190 51.5t103 142.5t32 209q0 120 -32 212.5t-103 145t-190 52.5q-114 0 -182 -52.5
t-98.5 -145t-30.5 -212.5q0 -118 30.5 -209t98.5 -142.5t182 -51.5zM551 1124q-104 0 -171 63t-83 177h84q10 -76 58.5 -111.5t111.5 -35.5q62 0 111.5 37t58.5 110h82q-13 -112 -80.5 -176t-171.5 -64z" />
    <glyph glyph-name="Ohungarumlaut" unicode="&#x150;" horiz-adv-x="1495" 
d="M748 -18q-212 0 -353 89t-211.5 244.5t-70.5 356.5t70.5 357t211.5 245.5t353 89.5q211 0 351 -89.5t210.5 -245.5t70.5 -357t-70.5 -356.5t-210.5 -244.5t-351 -89zM748 86q177 0 287 78.5t161 211.5t51 296q0 164 -51 297t-161 212t-287 79q-178 0 -288.5 -79
t-161 -212t-50.5 -297q0 -163 50.5 -296t161 -211.5t288.5 -78.5zM793 1466l170 266h148l-221 -266h-97zM525 1466l170 266h147l-221 -266h-96z" />
    <glyph glyph-name="ohungarumlaut" unicode="&#x151;" horiz-adv-x="1108" 
d="M547 -16q-140 0 -237 61t-147 173.5t-50 266.5q0 157 50 271t147 175.5t237 61.5q145 0 244.5 -61.5t151.5 -175.5t52 -271q0 -154 -52 -266.5t-151.5 -173.5t-244.5 -61zM547 82q119 0 190 51.5t103 142.5t32 209q0 120 -32 212.5t-103 145t-190 52.5q-114 0 -182 -52.5
t-98.5 -145t-30.5 -212.5q0 -118 30.5 -209t98.5 -142.5t182 -51.5zM598 1112l170 266h148l-221 -266h-97zM330 1112l170 266h147l-221 -266h-96z" />
    <glyph glyph-name="OE" unicode="&#x152;" horiz-adv-x="2189" 
d="M748 -18q-212 0 -353 89t-211.5 244.5t-70.5 356.5t70.5 357t211.5 245.5t353 89.5q156 0 269 -49.5t185 -141.5t106.5 -219t34.5 -282q0 -154 -34.5 -281t-106.5 -218.5t-185 -141t-269 -49.5zM752 86q177 0 287 78.5t161 211.5t51 296q0 164 -51 297t-161 212t-287 79
q-178 0 -289 -79t-162 -212t-51 -297q0 -163 51 -296t162 -211.5t289 -78.5zM1251 0v1346h836v-109h-707v-487h656v-109h-656v-532h707v-109h-836z" />
    <glyph glyph-name="oe" unicode="&#x153;" horiz-adv-x="1813" 
d="M547 -16q-140 0 -237 61t-147 173.5t-50 266.5q0 157 50 271t147 175.5t237 61.5q148 0 242.5 -61.5t140 -175.5t45.5 -271q0 -154 -47 -266.5t-141.5 -173.5t-239.5 -61zM547 82q119 0 191.5 51.5t105.5 142.5t33 209q0 120 -33 212t-105.5 144t-191.5 52
q-114 0 -183.5 -52t-101 -144t-31.5 -212q0 -118 31.5 -209t101 -142.5t183.5 -51.5zM1317 -18q-156 0 -248 69.5t-132 184t-40 249.5q0 146 38.5 260t126 180t234.5 66q189 0 295.5 -116.5t106.5 -335.5q0 -17 -1 -37.5t-3 -28.5h-699q0 -107 32 -196.5t103 -143t187 -53.5
q125 0 194 59.5t72 171.5h117q-2 -97 -48 -171t-131 -116t-204 -42zM995 573h586q-3 152 -76 235t-209 83q-138 0 -212.5 -81.5t-88.5 -236.5z" />
    <glyph glyph-name="Racute" unicode="&#x154;" horiz-adv-x="1212" 
d="M184 0v1346h486q110 0 202.5 -37.5t148.5 -115t56 -198.5q0 -129 -73 -219t-211 -119q72 -11 120 -48.5t80.5 -102t55.5 -158.5l88 -348h-129l-84 334q-20 80 -48.5 139.5t-75 92t-122.5 32.5h-365v-598h-129zM313 707h346q78 0 144 31.5t106.5 90t40.5 140.5
q0 125 -72.5 196.5t-218.5 71.5h-346v-530zM543 1466l196 265h148l-248 -265h-96z" />
    <glyph glyph-name="racute" unicode="&#x155;" horiz-adv-x="649" 
d="M170 0v973h109l6 -164q43 69 114.5 122.5t192.5 53.5h20v-119h-22q-80 0 -135.5 -23t-94.5 -60.5t-71 -80.5v-702h-119zM316 1112l206 266h148l-258 -266h-96z" />
    <glyph glyph-name="uni0156" unicode="&#x156;" horiz-adv-x="1212" 
d="M184 0v1346h486q110 0 202.5 -37.5t148.5 -115t56 -198.5q0 -129 -73 -219t-211 -119q72 -11 120 -48.5t80.5 -102t55.5 -158.5l88 -348h-129l-84 334q-20 80 -48.5 139.5t-75 92t-122.5 32.5h-365v-598h-129zM313 707h346q78 0 144 31.5t106.5 90t40.5 140.5
q0 125 -72.5 196.5t-218.5 71.5h-346v-530zM584 -365l-20 58q25 14 53 35t37 53q-29 6 -49.5 28.5t-20.5 51.5q0 34 24 57t62 23t65.5 -24.5t27.5 -72.5q0 -75 -54 -132t-125 -77z" />
    <glyph glyph-name="uni0157" unicode="&#x157;" horiz-adv-x="649" 
d="M170 0v973h109l6 -164q43 69 114.5 122.5t192.5 53.5h20v-119h-22q-80 0 -135.5 -23t-94.5 -60.5t-71 -80.5v-702h-119zM151 -365l-20 58q25 14 53 35t37 53q-29 6 -49.5 28.5t-20.5 51.5q0 34 24 57t62 23t65.5 -24.5t27.5 -72.5q0 -75 -54 -132t-125 -77z" />
    <glyph glyph-name="Rcaron" unicode="&#x158;" horiz-adv-x="1212" 
d="M184 0v1346h486q110 0 202.5 -37.5t148.5 -115t56 -198.5q0 -129 -73 -219t-211 -119q72 -11 120 -48.5t80.5 -102t55.5 -158.5l88 -348h-129l-84 334q-20 80 -48.5 139.5t-75 92t-122.5 32.5h-365v-598h-129zM313 707h346q78 0 144 31.5t106.5 90t40.5 140.5
q0 125 -72.5 196.5t-218.5 71.5h-346v-530zM541 1466l-215 267h108l170 -185l172 185h109l-215 -267h-129z" />
    <glyph glyph-name="rcaron" unicode="&#x159;" horiz-adv-x="649" 
d="M170 0v973h109l6 -164q43 69 114.5 122.5t192.5 53.5h20v-119h-22q-80 0 -135.5 -23t-94.5 -60.5t-71 -80.5v-702h-119zM322 1112l-215 266h108l172 -186l170 186h109l-215 -266h-129z" />
    <glyph glyph-name="Sacute" unicode="&#x15a;" horiz-adv-x="1126" 
d="M575 -18q-140 0 -253 44t-179.5 138t-66.5 242h127q0 -122 52.5 -191t139 -97t187.5 -28q92 0 171 29.5t127 89.5t48 153q0 79 -37 129.5t-118.5 86.5t-215.5 69q-158 40 -254.5 87t-140 115.5t-43.5 170.5q0 107 49 184t144.5 118.5t232.5 41.5q125 0 229.5 -42
t167 -124.5t62.5 -204.5h-127q2 129 -93.5 195.5t-236.5 66.5q-149 0 -227 -61t-78 -174q0 -68 34 -112.5t114 -77.5t218 -68q157 -40 254.5 -87t143 -120.5t45.5 -192.5q0 -123 -63 -207.5t-170.5 -128.5t-242.5 -44zM500 1466l196 265h148l-248 -265h-96z" />
    <glyph glyph-name="sacute" unicode="&#x15b;" horiz-adv-x="965" 
d="M492 -18q-83 0 -154 19.5t-123.5 60t-81.5 104t-29 151.5h119q0 -130 77 -183.5t198 -53.5q104 0 175.5 42.5t71.5 139.5q0 80 -58.5 119t-207.5 74q-119 29 -195 64t-111.5 87t-35.5 129q0 59 24 106.5t69 81t108.5 51t142.5 17.5q77 0 142.5 -19.5t114 -59t75.5 -99.5
t27 -141h-119q0 118 -69.5 168.5t-170.5 50.5t-165 -38.5t-64 -117.5q0 -45 25 -75t85.5 -53.5t165.5 -49.5q117 -28 190.5 -64.5t107.5 -92t34 -140.5q0 -70 -26.5 -122.5t-75.5 -87t-116.5 -51.5t-149.5 -17zM418 1112l206 266h148l-258 -266h-96z" />
    <glyph glyph-name="Scircumflex" unicode="&#x15c;" horiz-adv-x="1126" 
d="M575 -18q-140 0 -253 44t-179.5 138t-66.5 242h127q0 -122 52.5 -191t139 -97t187.5 -28q92 0 171 29.5t127 89.5t48 153q0 79 -37 129.5t-118.5 86.5t-215.5 69q-158 40 -254.5 87t-140 115.5t-43.5 170.5q0 107 49 184t144.5 118.5t232.5 41.5q125 0 229.5 -42
t167 -124.5t62.5 -204.5h-127q2 129 -93.5 195.5t-236.5 66.5q-149 0 -227 -61t-78 -174q0 -68 34 -112.5t114 -77.5t218 -68q157 -40 254.5 -87t143 -120.5t45.5 -192.5q0 -123 -63 -207.5t-170.5 -128.5t-242.5 -44zM283 1466l215 267h129l215 -267h-109l-170 185
l-172 -185h-108z" />
    <glyph glyph-name="scircumflex" unicode="&#x15d;" horiz-adv-x="965" 
d="M492 -18q-83 0 -154 19.5t-123.5 60t-81.5 104t-29 151.5h119q0 -130 77 -183.5t198 -53.5q104 0 175.5 42.5t71.5 139.5q0 80 -58.5 119t-207.5 74q-119 29 -195 64t-111.5 87t-35.5 129q0 59 24 106.5t69 81t108.5 51t142.5 17.5q77 0 142.5 -19.5t114 -59t75.5 -99.5
t27 -141h-119q0 118 -69.5 168.5t-170.5 50.5t-165 -38.5t-64 -117.5q0 -45 25 -75t85.5 -53.5t165.5 -49.5q117 -28 190.5 -64.5t107.5 -92t34 -140.5q0 -70 -26.5 -122.5t-75.5 -87t-116.5 -51.5t-149.5 -17zM211 1112l215 266h129l215 -266h-109l-170 184l-172 -184h-108
z" />
    <glyph glyph-name="Scedilla" unicode="&#x15e;" horiz-adv-x="1126" 
d="M575 -18q-140 0 -253 44t-179.5 138t-66.5 242h127q0 -122 52.5 -191t139 -97t187.5 -28q92 0 171 29.5t127 89.5t48 153q0 79 -37 129.5t-118.5 86.5t-215.5 69q-158 40 -254.5 87t-140 115.5t-43.5 170.5q0 107 49 184t144.5 118.5t232.5 41.5q125 0 229.5 -42
t167 -124.5t62.5 -204.5h-127q2 129 -93.5 195.5t-236.5 66.5q-149 0 -227 -61t-78 -174q0 -68 34 -112.5t114 -77.5t218 -68q157 -40 254.5 -87t143 -120.5t45.5 -192.5q0 -123 -63 -207.5t-170.5 -128.5t-242.5 -44zM573 -383q-49 0 -89.5 8.5t-75.5 22.5l22 82
q22 -11 61.5 -19t79.5 -8q35 0 61.5 18t26.5 50q0 37 -33.5 56t-111.5 26l-43 4l129 180l72 -37l-72 -102l-20 28q94 -6 141 -42.5t47 -104.5q0 -53 -24.5 -89.5t-68 -54.5t-102.5 -18z" />
    <glyph glyph-name="scedilla" unicode="&#x15f;" horiz-adv-x="965" 
d="M492 -18q-83 0 -154 19.5t-123.5 60t-81.5 104t-29 151.5h119q0 -130 77 -183.5t198 -53.5q104 0 175.5 42.5t71.5 139.5q0 80 -58.5 119t-207.5 74q-119 29 -195 64t-111.5 87t-35.5 129q0 59 24 106.5t69 81t108.5 51t142.5 17.5q77 0 142.5 -19.5t114 -59t75.5 -99.5
t27 -141h-119q0 118 -69.5 168.5t-170.5 50.5t-165 -38.5t-64 -117.5q0 -45 25 -75t85.5 -53.5t165.5 -49.5q117 -28 190.5 -64.5t107.5 -92t34 -140.5q0 -70 -26.5 -122.5t-75.5 -87t-116.5 -51.5t-149.5 -17zM469 -383q-49 0 -89.5 8.5t-75.5 22.5l22 82q22 -11 61.5 -19
t79.5 -8q35 0 61.5 18t26.5 50q0 37 -33.5 56t-111.5 26l-43 4l129 180l72 -37l-72 -102l-20 28q94 -6 141 -42.5t47 -104.5q0 -53 -24.5 -89.5t-68 -54.5t-102.5 -18z" />
    <glyph glyph-name="Scaron" unicode="&#x160;" horiz-adv-x="1126" 
d="M575 -18q-140 0 -253 44t-179.5 138t-66.5 242h127q0 -122 52.5 -191t139 -97t187.5 -28q92 0 171 29.5t127 89.5t48 153q0 79 -37 129.5t-118.5 86.5t-215.5 69q-158 40 -254.5 87t-140 115.5t-43.5 170.5q0 107 49 184t144.5 118.5t232.5 41.5q125 0 229.5 -42
t167 -124.5t62.5 -204.5h-127q2 129 -93.5 195.5t-236.5 66.5q-149 0 -227 -61t-78 -174q0 -68 34 -112.5t114 -77.5t218 -68q157 -40 254.5 -87t143 -120.5t45.5 -192.5q0 -123 -63 -207.5t-170.5 -128.5t-242.5 -44zM498 1466l-215 267h108l170 -185l172 185h109
l-215 -267h-129z" />
    <glyph glyph-name="scaron" unicode="&#x161;" horiz-adv-x="965" 
d="M492 -18q-83 0 -154 19.5t-123.5 60t-81.5 104t-29 151.5h119q0 -130 77 -183.5t198 -53.5q104 0 175.5 42.5t71.5 139.5q0 80 -58.5 119t-207.5 74q-119 29 -195 64t-111.5 87t-35.5 129q0 59 24 106.5t69 81t108.5 51t142.5 17.5q77 0 142.5 -19.5t114 -59t75.5 -99.5
t27 -141h-119q0 118 -69.5 168.5t-170.5 50.5t-165 -38.5t-64 -117.5q0 -45 25 -75t85.5 -53.5t165.5 -49.5q117 -28 190.5 -64.5t107.5 -92t34 -140.5q0 -70 -26.5 -122.5t-75.5 -87t-116.5 -51.5t-149.5 -17zM424 1112l-215 266h108l172 -186l170 186h109l-215 -266h-129z
" />
    <glyph glyph-name="uni0162" unicode="&#x162;" horiz-adv-x="952" 
d="M412 0v1237h-394v109h916v-109h-393v-1237h-129zM442 -383q-49 0 -89.5 8.5t-75.5 22.5l22 82q22 -11 61.5 -19t79.5 -8q35 0 61.5 18t26.5 50q0 37 -33.5 56t-111.5 26l-43 4l129 180l72 -37l-72 -102l-20 28q94 -6 141 -42.5t47 -104.5q0 -53 -24.5 -89.5t-68 -54.5
t-102.5 -18z" />
    <glyph glyph-name="uni0163" unicode="&#x163;" horiz-adv-x="629" 
d="M449 0q-103 0 -156.5 38.5t-72.5 107t-19 157.5v569h-164v101h164v219h116v-219h254v-101h-254v-565q0 -98 24.5 -152.5t119.5 -54.5h112v-100h-124zM319 -383q-49 0 -89.5 8.5t-75.5 22.5l22 82q22 -11 61.5 -19t79.5 -8q35 0 61.5 18t26.5 50q0 37 -33.5 56t-111.5 26
l-43 4l129 180l72 -37l-72 -102l-20 28q94 -6 141 -42.5t47 -104.5q0 -53 -24.5 -89.5t-68 -54.5t-102.5 -18z" />
    <glyph glyph-name="Tcaron" unicode="&#x164;" horiz-adv-x="952" 
d="M412 0v1237h-394v109h916v-109h-393v-1237h-129zM412 1466l-215 267h108l170 -185l172 185h109l-215 -267h-129z" />
    <glyph glyph-name="tcaron" unicode="&#x165;" horiz-adv-x="629" 
d="M449 0q-103 0 -156.5 38.5t-72.5 107t-19 157.5v569h-164v101h164v219h116v-219h254v-101h-254v-565q0 -98 24.5 -152.5t119.5 -54.5h112v-100h-124zM412 1060l65 318h125l-106 -318h-84z" />
    <glyph glyph-name="Tbar" unicode="&#x166;" horiz-adv-x="952" 
d="M186 623v96h580v-96h-580zM412 0v1237h-394v109h916v-109h-393v-1237h-129z" />
    <glyph glyph-name="tbar" unicode="&#x167;" horiz-adv-x="629" 
d="M37 469v90h534v-90h-534zM449 0q-103 0 -156.5 38.5t-72.5 107t-19 157.5v569h-164v101h164v219h116v-219h254v-101h-254v-565q0 -98 24.5 -152.5t119.5 -54.5h112v-100h-124z" />
    <glyph glyph-name="Utilde" unicode="&#x168;" horiz-adv-x="1379" 
d="M688 -18q-185 0 -300.5 68t-168.5 182t-53 251v863h129v-834q0 -232 103 -326t290 -94q188 0 291.5 94t103.5 326v834h129v-863q0 -137 -53 -251t-168 -182t-303 -68zM416 1495q9 80 41.5 131t101.5 51q38 0 76.5 -14t75.5 -31q34 -15 60 -24t48 -9q28 0 46 21.5t22 62.5
h78q-10 -76 -42.5 -127t-101.5 -51q-41 0 -79 14t-72 29q-34 16 -60 25.5t-49 9.5q-28 0 -45 -22t-22 -66h-78z" />
    <glyph glyph-name="utilde" unicode="&#x169;" horiz-adv-x="1120" 
d="M483 -16q-179 0 -251 95.5t-72 258.5v635h119v-617q0 -74 15.5 -132.5t62 -92t137.5 -33.5q124 0 207 51t130 115v709h119v-973h-114l-5 152q-46 -57 -131.5 -112.5t-216.5 -55.5zM281 1149q9 80 41.5 131t101.5 51q38 0 76.5 -14t75.5 -31q34 -15 60 -24t48 -9
q28 0 46 21.5t22 62.5h78q-10 -76 -42.5 -127t-101.5 -51q-41 0 -79 14t-72 29q-34 16 -60 25.5t-49 9.5q-28 0 -45 -22t-22 -66h-78z" />
    <glyph glyph-name="Umacron" unicode="&#x16a;" horiz-adv-x="1379" 
d="M688 -18q-185 0 -300.5 68t-168.5 182t-53 251v863h129v-834q0 -232 103 -326t290 -94q188 0 291.5 94t103.5 326v834h129v-863q0 -137 -53 -251t-168 -182t-303 -68zM422 1538v104h537v-104h-537z" />
    <glyph glyph-name="umacron" unicode="&#x16b;" horiz-adv-x="1120" 
d="M483 -16q-179 0 -251 95.5t-72 258.5v635h119v-617q0 -74 15.5 -132.5t62 -92t137.5 -33.5q124 0 207 51t130 115v709h119v-973h-114l-5 152q-46 -57 -131.5 -112.5t-216.5 -55.5zM287 1192v104h537v-104h-537z" />
    <glyph glyph-name="Ubreve" unicode="&#x16c;" horiz-adv-x="1379" 
d="M688 -18q-185 0 -300.5 68t-168.5 182t-53 251v863h129v-834q0 -232 103 -326t290 -94q188 0 291.5 94t103.5 326v834h129v-863q0 -137 -53 -251t-168 -182t-303 -68zM686 1493q-75 0 -133 28t-92.5 81t-40.5 129h86q3 -50 29.5 -84.5t66.5 -52t84 -17.5q45 0 85 18.5
t67.5 53t34.5 82.5h88q-11 -74 -47.5 -127.5t-94 -82t-133.5 -28.5z" />
    <glyph glyph-name="ubreve" unicode="&#x16d;" horiz-adv-x="1120" 
d="M483 -16q-179 0 -251 95.5t-72 258.5v635h119v-617q0 -74 15.5 -132.5t62 -92t137.5 -33.5q124 0 207 51t130 115v709h119v-973h-114l-5 152q-46 -57 -131.5 -112.5t-216.5 -55.5zM553 1124q-104 0 -171 63t-83 177h84q10 -76 58.5 -111.5t111.5 -35.5q62 0 111.5 37
t58.5 110h82q-13 -112 -80.5 -176t-171.5 -64z" />
    <glyph glyph-name="Uring" unicode="&#x16e;" horiz-adv-x="1379" 
d="M688 -18q-185 0 -300.5 68t-168.5 182t-53 251v863h129v-834q0 -232 103 -326t290 -94q188 0 291.5 94t103.5 326v834h129v-863q0 -137 -53 -251t-168 -182t-303 -68zM690 1376q-91 0 -148 56t-57 147q0 89 57 145t148 56t148 -56t57 -145q0 -91 -57 -147t-148 -56z
M690 1462q51 0 82 32.5t31 84.5q0 51 -31 84t-82 33q-50 0 -81 -33t-31 -84q0 -52 31 -84.5t81 -32.5z" />
    <glyph glyph-name="uring" unicode="&#x16f;" horiz-adv-x="1120" 
d="M483 -16q-179 0 -251 95.5t-72 258.5v635h119v-617q0 -74 15.5 -132.5t62 -92t137.5 -33.5q124 0 207 51t130 115v709h119v-973h-114l-5 152q-46 -57 -131.5 -112.5t-216.5 -55.5zM555 1079q-91 0 -148 56t-57 147q0 89 57 145t148 56t148 -56t57 -145q0 -91 -57 -147
t-148 -56zM555 1165q51 0 82 32.5t31 84.5q0 51 -31 84t-82 33q-50 0 -81 -33t-31 -84q0 -52 31 -84.5t81 -32.5z" />
    <glyph glyph-name="Uhungarumlaut" unicode="&#x170;" horiz-adv-x="1379" 
d="M688 -18q-185 0 -300.5 68t-168.5 182t-53 251v863h129v-834q0 -232 103 -326t290 -94q188 0 291.5 94t103.5 326v834h129v-863q0 -137 -53 -251t-168 -182t-303 -68zM735 1466l170 266h148l-221 -266h-97zM467 1466l170 266h147l-221 -266h-96z" />
    <glyph glyph-name="uhungarumlaut" unicode="&#x171;" horiz-adv-x="1120" 
d="M483 -16q-179 0 -251 95.5t-72 258.5v635h119v-617q0 -74 15.5 -132.5t62 -92t137.5 -33.5q124 0 207 51t130 115v709h119v-973h-114l-5 152q-46 -57 -131.5 -112.5t-216.5 -55.5zM600 1112l170 266h148l-221 -266h-97zM332 1112l170 266h147l-221 -266h-96z" />
    <glyph glyph-name="Uogonek" unicode="&#x172;" horiz-adv-x="1379" 
d="M688 -18q-185 0 -300.5 68t-168.5 182t-53 251v863h129v-834q0 -232 103 -326t290 -94q188 0 291.5 94t103.5 326v834h129v-863q0 -137 -53 -251t-168 -182t-303 -68zM832 -377q-71 0 -121.5 41.5t-50.5 114.5q0 50 32 101t85 92t116 61l49 -15q-95 -67 -129.5 -123.5
t-34.5 -101.5q0 -38 22.5 -58t53.5 -20q34 0 63 9t60 22v-92q-26 -14 -58 -22.5t-87 -8.5z" />
    <glyph glyph-name="uogonek" unicode="&#x173;" horiz-adv-x="1120" 
d="M483 -16q-179 0 -251 95.5t-72 258.5v635h119v-617q0 -74 15.5 -132.5t62 -92t137.5 -33.5q124 0 207 51t130 115v709h119v-973h-114l-5 152q-46 -57 -131.5 -112.5t-216.5 -55.5zM811 -377q-71 0 -121.5 41.5t-50.5 114.5q0 50 32 101t85 92t116 61l49 -15
q-95 -67 -129.5 -123.5t-34.5 -101.5q0 -38 22.5 -58t53.5 -20q34 0 63 9t60 22v-92q-26 -14 -58 -22.5t-87 -8.5z" />
    <glyph glyph-name="Wcircumflex" unicode="&#x174;" horiz-adv-x="1778" 
d="M391 0l-391 1346h137l328 -1178l348 1178h160l348 -1178l330 1178h127l-389 -1346h-136l-364 1204l-359 -1204h-139zM613 1466l215 267h129l215 -267h-109l-170 185l-172 -185h-108z" />
    <glyph glyph-name="wcircumflex" unicode="&#x175;" horiz-adv-x="1434" 
d="M328 0l-314 973h127l252 -834l256 834h139l259 -834l251 834h121l-313 -973h-129l-260 838l-258 -838h-131zM441 1112l215 266h129l215 -266h-109l-170 184l-172 -184h-108z" />
    <glyph glyph-name="Ycircumflex" unicode="&#x176;" horiz-adv-x="1057" 
d="M463 0v553l-463 793h141l389 -682l385 682h142l-465 -793v-553h-129zM250 1466l215 267h129l215 -267h-109l-170 185l-172 -185h-108z" />
    <glyph glyph-name="ycircumflex" unicode="&#x177;" horiz-adv-x="883" 
d="M100 -358v100h80q56 0 95 35t73 117l45 106l-393 973h127l328 -834l307 834h121l-373 -973l-51 -129q-32 -79 -65 -129.5t-80.5 -75t-123.5 -24.5h-90zM166 1112l215 266h129l215 -266h-109l-170 184l-172 -184h-108z" />
    <glyph glyph-name="Ydieresis" unicode="&#x178;" horiz-adv-x="1057" 
d="M463 0v553l-463 793h141l389 -682l385 682h142l-465 -793v-553h-129zM698 1534q-34 0 -57 21t-23 55t23 56t57 22t57 -22t23 -56t-23 -55t-57 -21zM362 1534q-34 0 -57 21t-23 55t23 56t57 22t57 -22t23 -56t-23 -55t-57 -21z" />
    <glyph glyph-name="Zacute" unicode="&#x179;" horiz-adv-x="1024" 
d="M35 0v102l778 1135h-733v109h874v-101l-778 -1136h813v-109h-954zM453 1466l196 265h148l-248 -265h-96z" />
    <glyph glyph-name="zacute" unicode="&#x17a;" horiz-adv-x="868" 
d="M66 0v96l567 776h-524v101h667v-86l-575 -787h602v-100h-737zM371 1112l206 266h148l-258 -266h-96z" />
    <glyph glyph-name="Zdotaccent" unicode="&#x17b;" horiz-adv-x="1024" 
d="M35 0v102l778 1135h-733v109h874v-101l-778 -1136h813v-109h-954zM516 1530q-35 0 -58.5 22.5t-23.5 57.5t23.5 58.5t58.5 23.5q34 0 58 -23.5t24 -58.5t-24 -57.5t-58 -22.5z" />
    <glyph glyph-name="zdotaccent" unicode="&#x17c;" horiz-adv-x="868" 
d="M66 0v96l567 776h-524v101h667v-86l-575 -787h602v-100h-737zM442 1184q-35 0 -58.5 22.5t-23.5 57.5t23.5 58.5t58.5 23.5q34 0 58 -23.5t24 -58.5t-24 -57.5t-58 -22.5z" />
    <glyph glyph-name="Zcaron" unicode="&#x17d;" horiz-adv-x="1024" 
d="M35 0v102l778 1135h-733v109h874v-101l-778 -1136h813v-109h-954zM451 1466l-215 267h108l170 -185l172 185h109l-215 -267h-129z" />
    <glyph glyph-name="zcaron" unicode="&#x17e;" horiz-adv-x="868" 
d="M66 0v96l567 776h-524v101h667v-86l-575 -787h602v-100h-737zM377 1112l-215 266h108l172 -186l170 186h109l-215 -266h-129z" />
    <glyph glyph-name="longs" unicode="&#x17f;" horiz-adv-x="524" 
d="M201 0v872h-164v101h164v69q0 90 19 158.5t72.5 107t156.5 38.5h104v-101h-92q-95 0 -119.5 -54.5t-24.5 -152.5v-1038h-116z" />
    <glyph glyph-name="uni0181" unicode="&#x181;" horiz-adv-x="1367" 
d="M330 0v1237q-88 -1 -138.5 -38t-50.5 -116v-77h-123v73q0 142 89.5 204.5t222.5 62.5h418q195 0 313.5 -82t118.5 -248q0 -106 -62 -193t-166 -108q140 -20 228 -110t88 -222q0 -115 -50.5 -201.5t-157 -134t-274.5 -47.5h-456zM459 109h327q96 0 176.5 24t129.5 84.5
t49 169.5q0 129 -92.5 195.5t-262.5 66.5h-327v-540zM459 760h289q153 0 229 68.5t76 179.5q0 74 -34 125t-102 77.5t-169 26.5h-289v-477z" />
    <glyph glyph-name="uni0186" unicode="&#x186;" horiz-adv-x="1404" 
d="M656 -18q-138 0 -256 48.5t-196 149t-97 256.5h130q18 -176 130.5 -262t288.5 -86q179 0 289 77.5t160.5 210t50.5 296.5q0 165 -50.5 298t-160.5 211.5t-289 78.5q-98 0 -187.5 -34.5t-151 -105.5t-74.5 -182h-127q18 148 98 242t197 139t245 45q212 0 353 -89.5
t211.5 -245.5t70.5 -357t-70.5 -356.5t-211.5 -244.5t-353 -89z" />
    <glyph glyph-name="uni0189" unicode="&#x189;" horiz-adv-x="1383" 
d="M0 637v104h696v-104h-696zM184 0v1346h428q209 0 355.5 -79.5t223.5 -230.5t77 -364q0 -212 -77 -362.5t-223.5 -230t-355.5 -79.5h-428zM313 109h254q194 0 319.5 61t187 186t61.5 316q0 193 -61.5 318t-187 186t-319.5 61h-254v-1128z" />
    <glyph glyph-name="uni018A" unicode="&#x18a;" horiz-adv-x="1528" 
d="M330 0v1237q-88 -1 -138.5 -38t-50.5 -116v-77h-123v73q0 142 89.5 204.5t222.5 62.5h428q209 0 355.5 -79.5t223 -230.5t76.5 -364q0 -212 -76.5 -362.5t-223 -230t-355.5 -79.5h-428zM459 109h254q290 0 428.5 138t138.5 425q0 289 -138.5 427t-428.5 138h-254v-1128z
" />
    <glyph glyph-name="uni018E" unicode="&#x18e;" horiz-adv-x="1124" 
d="M102 0v109h707v532h-655v109h655v487h-707v109h836v-1346h-836z" />
    <glyph glyph-name="uni018F" unicode="&#x18f;" horiz-adv-x="1432" 
d="M715 -18q-115 0 -220 32.5t-188 109.5t-134.5 209.5t-59.5 332.5l139 -82q8 -188 76 -297t171 -155t216 -46q165 0 268 78.5t151 211.5t48 298q0 164 -48 296t-151 209.5t-268 77.5q-203 0 -328 -85.5t-145 -262.5h-129q20 157 104.5 257.5t214 149t283.5 48.5
q199 0 332.5 -89t201.5 -244.5t68 -356.5t-68 -357t-201.5 -245.5t-332.5 -89.5zM176 557l-63 109h1128v-109h-1065z" />
    <glyph glyph-name="uni0190" unicode="&#x190;" horiz-adv-x="1152" 
d="M579 -18q-140 0 -248.5 46t-170 134t-61.5 215q0 143 92.5 230t231.5 112q-126 31 -205.5 111t-79.5 200q0 108 58.5 183t158 114t221.5 39q139 0 240 -49.5t156 -135t55 -194.5h-131q5 122 -81.5 198.5t-240.5 76.5q-133 0 -219 -58t-86 -174q0 -121 82.5 -193.5
t243.5 -72.5h121v-105h-119q-173 0 -269 -69.5t-96 -212.5q0 -149 94.5 -220t254.5 -71q166 0 260 85t94 226h131q0 -132 -62 -224.5t-172 -141.5t-253 -49z" />
    <glyph glyph-name="uni0191" unicode="&#x191;" horiz-adv-x="1061" 
d="M-2 -358v110h57q77 0 103 48t26 143v1403h817v-109h-688v-487h625v-109h-625v-702q0 -152 -56 -224.5t-191 -72.5h-68z" />
    <glyph glyph-name="florin" unicode="&#x192;" horiz-adv-x="582" 
d="M8 -358v100h37q77 0 115.5 39t38.5 133l2 958h-164v101h164v69q0 90 19 158.5t72.5 107t156.5 38.5h104v-101h-92q-95 0 -119.5 -54.5t-24.5 -152.5v-65h236v-101h-236v-960q0 -132 -57.5 -201t-196.5 -69h-55z" />
    <glyph glyph-name="uni0194" unicode="&#x194;" horiz-adv-x="1014" 
d="M510 -16q-57 0 -105.5 22.5t-78 71t-29.5 125.5q0 58 21 121t57 131t80 141l32 55l7 6l374 689h136l-445 -795q-38 -67 -70.5 -128.5t-52.5 -116t-20 -101.5q0 -58 25.5 -91.5t68.5 -33.5q41 0 66.5 34t25.5 91q0 71 -48.5 159.5t-107.5 192.5l-436 789h144l362 -684
l8 -7l37 -61q45 -76 81.5 -142.5t57.5 -127.5t21 -121q0 -75 -26.5 -123.5t-74 -72t-110.5 -23.5z" />
    <glyph glyph-name="uni0198" unicode="&#x198;" horiz-adv-x="1108" 
d="M184 0v1346h129v-650l144 11l651 -707h-154l-641 692v-692h-129zM1075 1346v-111h-55q-59 0 -106 -20.5t-98.5 -71.5t-125.5 -144l-233 -292l-144 -11l291 363q87 109 145.5 171.5t113 89t128.5 26.5h84z" />
    <glyph glyph-name="uni0199" unicode="&#x199;" horiz-adv-x="948" 
d="M170 0v1067l119 12v-569l469 463h151l-473 -459l520 -514h-157l-510 502v-502h-119zM170 1067q0 137 57 208t193 71h55v-101h-37q-76 0 -114 -39t-35 -127z" />
    <glyph glyph-name="Ohorn" unicode="&#x1a0;" horiz-adv-x="1536" 
d="M1309 1016l-41 65q77 35 129 83.5t59 111.5l8 -6q-44 0 -75 28t-31 72q0 47 30 76t76 29q47 0 77 -33t30 -101q0 -54 -18 -103t-52.5 -90.5t-83 -74.5t-108.5 -57zM748 -18q-212 0 -353 89t-211.5 244.5t-70.5 356.5t70.5 357t211.5 245.5t353 89.5q211 0 351 -89.5
t210.5 -245.5t70.5 -357t-70.5 -356.5t-210.5 -244.5t-351 -89zM748 86q177 0 287 78.5t161 211.5t51 296q0 164 -51 297t-161 212t-287 79q-178 0 -288.5 -79t-161 -212t-50.5 -297q0 -163 50.5 -296t161 -211.5t288.5 -78.5z" />
    <glyph glyph-name="ohorn" unicode="&#x1a1;" horiz-adv-x="1102" 
d="M901 737l-41 66q68 35 114.5 83t53.5 111l8 -6q-44 0 -75 28t-31 73q0 46 30 75t76 29q47 0 77 -32.5t30 -100.5q0 -72 -29 -134.5t-83.5 -111t-129.5 -80.5zM547 -16q-140 0 -237 61t-147 173.5t-50 266.5q0 157 50 271t147 175.5t237 61.5q145 0 244.5 -61.5
t151.5 -175.5t52 -271q0 -154 -52 -266.5t-151.5 -173.5t-244.5 -61zM547 82q119 0 190 51.5t103 142.5t32 209q0 120 -32 212.5t-103 145t-190 52.5q-114 0 -182 -52.5t-98.5 -145t-30.5 -212.5q0 -118 30.5 -209t98.5 -142.5t182 -51.5z" />
    <glyph glyph-name="Uhorn" unicode="&#x1af;" horiz-adv-x="1489" 
d="M1200 1016l-41 65q104 35 175 83.5t81 111.5l8 -6q-44 0 -75 28t-31 72q0 47 30 76t76 29q47 0 77 -33t30 -101q0 -54 -22.5 -103t-65.5 -90.5t-104 -74.5t-138 -57zM688 -18q-185 0 -300.5 68t-168.5 182t-53 251v863h129v-834q0 -232 103 -326t290 -94q188 0 291.5 94
t103.5 326v834h129v-863q0 -137 -53 -251t-168 -182t-303 -68z" />
    <glyph glyph-name="uhorn" unicode="&#x1b0;" horiz-adv-x="1163" 
d="M932 715v88q80 35 126 83t52 111l8 -6q-44 0 -75 28t-31 73q0 46 30 75t76 29q47 0 77 -32.5t30 -100.5q0 -54 -17 -103.5t-52.5 -93t-91 -81.5t-132.5 -70zM483 -16q-179 0 -251 95.5t-72 258.5v635h119v-617q0 -74 15.5 -132.5t62 -92t137.5 -33.5q124 0 207 51
t130 115v709h119v-973h-114l-5 152q-46 -57 -131.5 -112.5t-216.5 -55.5z" />
    <glyph glyph-name="uni01B2" unicode="&#x1b2;" horiz-adv-x="1379" 
d="M688 -18q-185 0 -300.5 69t-168.5 183t-53 249v863h129v-834q0 -227 103 -323.5t290 -96.5q188 0 291.5 96.5t103.5 323.5v446l129 5v-480q0 -135 -53 -249t-168 -183t-303 -69zM1083 958q0 148 -50.5 214.5t-201.5 66.5h-57v111h68q201 0 285.5 -91.5t84.5 -295.5z" />
    <glyph glyph-name="uni01B3" unicode="&#x1b3;" horiz-adv-x="1108" 
d="M463 0v553l-463 793h147l383 -689l62 -104v-553h-129zM592 553l-90 63l190 426q59 131 106 196t96 86.5t112 21.5h84v-111h-56q-48 0 -85 -17t-73.5 -68t-82.5 -153z" />
    <glyph glyph-name="uni01B4" unicode="&#x1b4;" horiz-adv-x="1122" 
d="M100 -358v100h80q59 0 96.5 35t71.5 117l45 106l-393 973h127l328 -834l346 940q31 84 66.5 134.5t84.5 73t121 22.5h49v-101h-39q-58 0 -99.5 -35t-72.5 -116l-452 -1186q-32 -79 -65 -129.5t-80.5 -75t-123.5 -24.5h-90z" />
    <glyph glyph-name="uni01B7" unicode="&#x1b7;" horiz-adv-x="1131" 
d="M565 -18q-141 0 -249 49t-169 141.5t-61 224.5h131q0 -141 91.5 -226t254.5 -85q154 0 245 75.5t91 235.5q0 154 -111.5 228.5t-314.5 74.5h-108v105h143q149 0 267.5 -46.5t187.5 -137t69 -224.5q0 -133 -60 -225.5t-165 -141t-242 -48.5zM473 770l-108 35l438 432h-637
v109h792v-101z" />
    <glyph glyph-name="uni01DD" unicode="&#x1dd;" horiz-adv-x="1049" 
d="M496 991q156 0 253 -69.5t142 -184t45 -249.5q0 -146 -43.5 -260t-136 -180t-239.5 -66q-189 0 -295.5 116.5t-106.5 335.5q0 17 1 37.5t3 28.5h699q0 107 -32.5 196.5t-103.5 143t-186 53.5q-125 0 -194 -59.5t-72 -171.5h-117q2 97 48 171t131 116t204 42zM818 400
h-586q3 -152 76 -235t209 -83q138 0 212.5 81.5t88.5 236.5z" />
    <glyph glyph-name="Gcaron" unicode="&#x1e6;" horiz-adv-x="1442" 
d="M748 -18q-212 0 -353 88t-211.5 243.5t-70.5 358.5q0 204 70.5 360t211.5 244t353 88q103 0 195.5 -26t167 -78t121.5 -130.5t58 -183.5h-127q-11 82 -63 153.5t-141 116t-211 44.5q-178 0 -290 -78t-164 -211t-52 -299q0 -165 52 -297t164 -208.5t290 -76.5
q161 0 261.5 59t147.5 164t47 242h-430v111h553v-88q0 -176 -63 -310.5t-191 -210t-325 -75.5zM683 1466l-215 267h108l170 -185l172 185h109l-215 -267h-129z" />
    <glyph glyph-name="gcaron" unicode="&#x1e7;" horiz-adv-x="965" 
d="M487 -377q-149 0 -239.5 36t-131 96.5t-40.5 131.5q0 86 69 154t211 96l25 35h119q238 0 337 -61.5t99 -192.5q0 -127 -112.5 -211t-336.5 -84zM483 -279q188 0 265 54.5t77 136.5q0 47 -26.5 82t-99 54.5t-212.5 19.5h-133q-82 -19 -125 -66.5t-43 -110.5
q0 -69 68.5 -119.5t228.5 -50.5zM350 74q-89 10 -138.5 38.5t-69 63.5t-19.5 66q0 44 36 88t124 69l55 -53q-52 -15 -80.5 -41t-28.5 -57q0 -19 17 -36t57.5 -28t110.5 -12zM477 317q-113 0 -192 46t-119.5 121t-40.5 163q0 92 41 167.5t121 120t196 44.5q118 0 196.5 -44.5
t117.5 -120t39 -167.5q0 -90 -39.5 -165t-119.5 -120t-200 -45zM477 408q106 0 175 60t69 179q0 123 -65 182.5t-173 59.5q-106 0 -175.5 -61.5t-69.5 -180.5q0 -120 72 -179.5t167 -59.5zM719 893l-62 45q44 89 108 121t171 35v-115q-66 0 -121.5 -14.5t-95.5 -71.5z
M420 1112l-215 266h108l172 -186l170 186h109l-215 -266h-129z" />
    <glyph glyph-name="uni01EA" unicode="&#x1ea;" horiz-adv-x="1495" 
d="M748 -18q-212 0 -353 89t-211.5 244.5t-70.5 356.5t70.5 357t211.5 245.5t353 89.5q211 0 351 -89.5t210.5 -245.5t70.5 -357t-70.5 -356.5t-210.5 -244.5t-351 -89zM748 86q177 0 287 78.5t161 211.5t51 296q0 164 -51 297t-161 212t-287 79q-178 0 -288.5 -79
t-161 -212t-50.5 -297q0 -163 50.5 -296t161 -211.5t288.5 -78.5zM883 -377q-71 0 -121.5 41.5t-50.5 114.5q0 50 32 101t85 92t116 61l49 -15q-95 -67 -129.5 -123.5t-34.5 -101.5q0 -38 22.5 -58t53.5 -20q34 0 63 9t60 22v-92q-26 -14 -58 -22.5t-87 -8.5z" />
    <glyph glyph-name="uni01EB" unicode="&#x1eb;" horiz-adv-x="1108" 
d="M547 -16q-140 0 -237 61t-147 173.5t-50 266.5q0 157 50 271t147 175.5t237 61.5q145 0 244.5 -61.5t151.5 -175.5t52 -271q0 -154 -52 -266.5t-151.5 -173.5t-244.5 -61zM547 82q119 0 190 51.5t103 142.5t32 209q0 120 -32 212.5t-103 145t-190 52.5q-114 0 -182 -52.5
t-98.5 -145t-30.5 -212.5q0 -118 30.5 -209t98.5 -142.5t182 -51.5zM621 -377q-71 0 -121.5 41.5t-50.5 114.5q0 50 32 101t85 92t116 61l49 -15q-95 -67 -129.5 -123.5t-34.5 -101.5q0 -38 22.5 -58t53.5 -20q34 0 63 9t60 22v-92q-26 -14 -58 -22.5t-87 -8.5z" />
    <glyph glyph-name="uni01F8" unicode="&#x1f8;" horiz-adv-x="1429" 
d="M184 0v1346h138l798 -1153v1153h123v-1346h-137l-799 1153v-1153h-123zM712 1466l-247 265h147l197 -265h-97z" />
    <glyph glyph-name="uni01F9" unicode="&#x1f9;" horiz-adv-x="1100" 
d="M170 0v973h113l6 -152q44 57 130 111.5t218 54.5q166 0 234.5 -96.5t68.5 -265.5v-625h-119v606q0 80 -15 142.5t-57 98.5t-124 36q-124 0 -207 -56t-129 -118v-709h-119zM529 1112l-258 266h147l207 -266h-96z" />
    <glyph glyph-name="Aringacute" unicode="&#x1fa;" horiz-adv-x="1176" 
d="M10 0l514 1346h138l503 -1346h-133l-143 418h-594l-152 -418h-133zM334 528h512l-254 689zM588 1376q-91 0 -148 56t-57 147q0 89 57 145t148 56t148 -56t57 -145q0 -91 -57 -147t-148 -56zM588 1462q51 0 82 32.5t31 84.5q0 51 -31 84t-82 33q-50 0 -81 -33t-31 -84
q0 -52 31 -84.5t81 -32.5zM463 1697l196 265h148l-248 -265h-96z" />
    <glyph glyph-name="aringacute" unicode="&#x1fb;" horiz-adv-x="1067" 
d="M414 -18q-85 0 -153 31.5t-108 93t-40 151.5q0 129 82.5 196.5t234.5 92.5t358 26v76q0 139 -70.5 191.5t-176.5 52.5q-112 0 -190.5 -57.5t-78.5 -180.5h-118q0 117 50 191.5t137.5 109.5t199.5 35q65 0 129.5 -13.5t118 -50t86 -103.5t32.5 -175v-649h-110l-6 158
q-70 -76 -162 -126t-215 -50zM436 82q113 0 201.5 51t150.5 135v217q-295 -3 -426 -54.5t-131 -168.5q0 -79 50.5 -129.5t154.5 -50.5zM545 1079q-91 0 -148 56t-57 147q0 89 57 145t148 56t148 -56t57 -145q0 -91 -57 -147t-148 -56zM545 1165q51 0 82 32.5t31 84.5
q0 51 -31 84t-82 33q-50 0 -81 -33t-31 -84q0 -52 31 -84.5t81 -32.5zM412 1403l206 266h148l-258 -266h-96z" />
    <glyph glyph-name="AEacute" unicode="&#x1fc;" horiz-adv-x="1882" 
d="M-31 0l891 1346h96v-129h-51l-481 -736v-8l-305 -473h-150zM375 418v110h626v-110h-626zM944 0v1346h836v-109h-707v-487h656v-109h-656v-532h707v-109h-836zM1067 1466l196 265h148l-248 -265h-96z" />
    <glyph glyph-name="aeacute" unicode="&#x1fd;" horiz-adv-x="1702" 
d="M1206 -18q-156 0 -253 69.5t-142 184t-45 249.5q0 146 43.5 260t136.5 180t240 66q189 0 295 -116.5t106 -335.5q0 -17 -1 -37.5t-3 -28.5h-698q0 -107 32 -196.5t103 -143t186 -53.5q125 0 194 59.5t73 171.5h116q-2 -97 -48 -171t-131 -116t-204 -42zM428 -18
q-138 0 -226.5 71.5t-88.5 204.5q0 130 81.5 197t228.5 91.5t343 26.5v86q0 89 -31.5 140t-83 72.5t-110.5 21.5q-112 0 -190.5 -56.5t-78.5 -179.5h-118q0 176 109.5 255t277.5 79q64 0 133.5 -19t123.5 -70t70 -148l-47 -269q-214 -2 -343.5 -24.5t-188 -69.5t-58.5 -123
q0 -82 51.5 -134t155.5 -52q75 0 140 25.5t122 78t107 131.5l53 -59q-34 -66 -95 -129.5t-145.5 -105t-191.5 -41.5zM885 573h585q-3 152 -76 235t-208 83q-139 0 -213 -81.5t-88 -236.5zM783 1112l206 266h148l-258 -266h-96z" />
    <glyph glyph-name="Oslashacute" unicode="&#x1fe;" horiz-adv-x="1495" 
d="M190 -59l-77 67l1192 1395l75 -66zM748 -18q-212 0 -353 89t-211.5 244.5t-70.5 356.5t70.5 357t211.5 245.5t353 89.5q211 0 351 -89.5t210.5 -245.5t70.5 -357t-70.5 -356.5t-210.5 -244.5t-351 -89zM748 86q177 0 287 78.5t161 211.5t51 296q0 164 -51 297t-161 212
t-287 79q-178 0 -288.5 -79t-161 -212t-50.5 -297q0 -163 50.5 -296t161 -211.5t288.5 -78.5zM685 1466l196 265h148l-248 -265h-96z" />
    <glyph glyph-name="oslashacute" unicode="&#x1ff;" horiz-adv-x="1108" 
d="M160 -59l-68 59l856 1026l68 -57zM547 -16q-140 0 -237 61t-147 173.5t-50 266.5q0 157 50 271t147 175.5t237 61.5q145 0 244.5 -61.5t151.5 -175.5t52 -271q0 -154 -52 -266.5t-151.5 -173.5t-244.5 -61zM547 82q119 0 191.5 51.5t105.5 142.5t33 209q0 120 -33 212
t-105.5 144t-191.5 52q-114 0 -183.5 -52t-101 -144t-31.5 -212q0 -118 31.5 -209t101 -142.5t183.5 -51.5zM482 1112l206 266h148l-258 -266h-96z" />
    <glyph glyph-name="uni0218" unicode="&#x218;" horiz-adv-x="1126" 
d="M575 -18q-140 0 -253 44t-179.5 138t-66.5 242h127q0 -122 52.5 -191t139 -97t187.5 -28q92 0 171 29.5t127 89.5t48 153q0 79 -37 129.5t-118.5 86.5t-215.5 69q-158 40 -254.5 87t-140 115.5t-43.5 170.5q0 107 49 184t144.5 118.5t232.5 41.5q125 0 229.5 -42
t167 -124.5t62.5 -204.5h-127q2 129 -93.5 195.5t-236.5 66.5q-149 0 -227 -61t-78 -174q0 -68 34 -112.5t114 -77.5t218 -68q157 -40 254.5 -87t143 -120.5t45.5 -192.5q0 -123 -63 -207.5t-170.5 -128.5t-242.5 -44zM487 -365l-20 58q25 14 53 35t37 53q-29 6 -49.5 28.5
t-20.5 51.5q0 34 24 57t62 23t65.5 -24.5t27.5 -72.5q0 -75 -54 -132t-125 -77z" />
    <glyph glyph-name="uni0219" unicode="&#x219;" horiz-adv-x="965" 
d="M492 -18q-83 0 -154 19.5t-123.5 60t-81.5 104t-29 151.5h119q0 -130 77 -183.5t198 -53.5q104 0 175.5 42.5t71.5 139.5q0 80 -58.5 119t-207.5 74q-119 29 -195 64t-111.5 87t-35.5 129q0 59 24 106.5t69 81t108.5 51t142.5 17.5q77 0 142.5 -19.5t114 -59t75.5 -99.5
t27 -141h-119q0 118 -69.5 168.5t-170.5 50.5t-165 -38.5t-64 -117.5q0 -45 25 -75t85.5 -53.5t165.5 -49.5q117 -28 190.5 -64.5t107.5 -92t34 -140.5q0 -70 -26.5 -122.5t-75.5 -87t-116.5 -51.5t-149.5 -17zM424 -365l-20 58q25 14 53 35t37 53q-29 6 -49.5 28.5
t-20.5 51.5q0 34 24 57t62 23t65.5 -24.5t27.5 -72.5q0 -75 -54 -132t-125 -77z" />
    <glyph glyph-name="uni021A" unicode="&#x21a;" horiz-adv-x="952" 
d="M412 0v1237h-394v109h916v-109h-393v-1237h-129zM399 -365l-20 58q25 14 53 35t37 53q-29 6 -49.5 28.5t-20.5 51.5q0 34 24 57t62 23t65.5 -24.5t27.5 -72.5q0 -75 -54 -132t-125 -77z" />
    <glyph glyph-name="uni021B" unicode="&#x21b;" horiz-adv-x="629" 
d="M449 0q-103 0 -156.5 38.5t-72.5 107t-19 157.5v569h-164v101h164v219h116v-219h254v-101h-254v-565q0 -98 24.5 -152.5t119.5 -54.5h112v-100h-124zM284 -365l-20 58q25 14 53 35t37 53q-29 6 -49.5 28.5t-20.5 51.5q0 34 24 57t62 23t65.5 -24.5t27.5 -72.5
q0 -75 -54 -132t-125 -77z" />
    <glyph glyph-name="uni0232" unicode="&#x232;" horiz-adv-x="1057" 
d="M463 0v553l-463 793h141l389 -682l385 682h142l-465 -793v-553h-129zM262 1538v104h537v-104h-537z" />
    <glyph glyph-name="uni0233" unicode="&#x233;" horiz-adv-x="883" 
d="M100 -358v100h80q56 0 95 35t73 117l45 106l-393 973h127l328 -834l307 834h121l-373 -973l-51 -129q-32 -79 -65 -129.5t-80.5 -75t-123.5 -24.5h-90zM176 1192v104h537v-104h-537z" />
    <glyph glyph-name="uni0237" unicode="&#x237;" horiz-adv-x="459" 
d="M-20 -358v100h36q77 0 115.5 36t38.5 124v1071h119v-1061q0 -132 -58 -201t-196 -69h-55z" />
    <glyph glyph-name="uni0253" unicode="&#x253;" horiz-adv-x="1123" 
d="M602 -18q-109 0 -188.5 42t-126.5 115l-8 -139h-109v1075l119 10v-276q50 80 136 131t198 51q122 0 208.5 -57.5t132.5 -170t46 -276.5q0 -163 -48.5 -276t-140 -171t-219.5 -58zM588 86q150 0 224.5 105.5t74.5 295.5q0 191 -69.5 296.5t-209.5 105.5q-116 0 -194 -59.5
t-125 -145.5v-420q43 -79 116.5 -128.5t182.5 -49.5zM170 1075q0 132 58 201.5t196 69.5h55v-101h-37q-76 0 -114.5 -36t-38.5 -124z" />
    <glyph glyph-name="uni0254" unicode="&#x254;" horiz-adv-x="1051" 
d="M506 -18q-107 0 -195.5 36t-141.5 110t-56 187h118q5 -116 79.5 -174.5t191.5 -58.5q155 0 236 105.5t81 297.5t-81 300t-236 108q-117 0 -186 -59.5t-78 -163.5h-119q5 109 56.5 180.5t137.5 107t193 35.5q130 0 227 -58.5t151 -171.5t54 -278q0 -164 -54 -276.5
t-151 -169.5t-227 -57z" />
    <glyph glyph-name="uni0256" unicode="&#x256;" horiz-adv-x="1122" 
d="M502 -18q-123 0 -210 58t-133 171t-46 276q0 164 48.5 276.5t140 170t220.5 57.5q105 0 184.5 -47.5t127.5 -130.5v533h118v-1346l-116 12l-2 131q-52 -70 -136 -115.5t-196 -45.5zM1085 -266q-136 0 -192.5 71t-56.5 207l116 -12q-3 -88 36 -127t116 -39h37v-100h-56z
M514 86q119 0 195 52t125 128v420q-45 89 -117 145t-182 56q-151 0 -225 -104.5t-74 -295.5q0 -192 69.5 -296.5t208.5 -104.5z" />
    <glyph glyph-name="uni0257" unicode="&#x257;" horiz-adv-x="1141" 
d="M502 -18q-123 0 -210 58t-133 171t-46 276q0 164 48.5 276.5t140 170t220.5 57.5q105 0 184.5 -47.5t127.5 -130.5l2 254l118 12l-2 -1079h-110l-8 143q-52 -70 -136 -115.5t-196 -45.5zM514 86q119 0 195 52t125 128v420q-45 89 -117 145t-182 56q-151 0 -225 -104.5
t-74 -295.5q0 -192 69.5 -296.5t208.5 -104.5zM836 1067q0 137 56.5 208t192.5 71h56v-101h-37q-77 0 -115 -39t-35 -127z" />
    <glyph glyph-name="uni0259" unicode="&#x259;" horiz-adv-x="1049" 
d="M496 991q156 0 253 -69.5t142 -184t45 -249.5q0 -146 -43.5 -260t-136 -180t-239.5 -66q-189 0 -295.5 116.5t-106.5 335.5q0 17 1 37.5t3 28.5h699q0 107 -32.5 196.5t-103.5 143t-186 53.5q-125 0 -194 -59.5t-72 -171.5h-117q2 97 48 171t131 116t204 42zM818 400
h-586q3 -152 76 -235t209 -83q138 0 212.5 81.5t88.5 236.5z" />
    <glyph glyph-name="uni025B" unicode="&#x25b;" horiz-adv-x="987" 
d="M483 -16q-169 0 -275 69t-106 211q0 110 70 166t197 82q-121 25 -172.5 90.5t-51.5 138.5q0 59 31.5 116t105.5 94.5t201 37.5q168 0 265.5 -68t103.5 -194h-117q-1 71 -69.5 117.5t-182.5 46.5q-121 0 -173 -45.5t-52 -110.5q0 -84 76 -128t182 -44h119v-102h-90
q-174 0 -252 -47.5t-78 -141.5q0 -100 75 -145t193 -45q148 0 224.5 48.5t80.5 156.5h117q-6 -98 -53.5 -166t-139 -102.5t-229.5 -34.5z" />
    <glyph glyph-name="uni0263" unicode="&#x263;" horiz-adv-x="883" 
d="M383 213l-383 760h127l317 -645l318 645h121l-375 -760h-125zM442 -260q47 0 66.5 32t19.5 89q0 50 -19.5 123.5t-66.5 142.5q-43 -69 -61.5 -142.5t-18.5 -123.5q0 -57 18.5 -89t61.5 -32zM442 -358q-95 0 -145.5 57.5t-50.5 155.5q0 54 23 129.5t67.5 161.5t107.5 171
q66 -85 110.5 -169.5t67.5 -160t23 -132.5q0 -98 -52.5 -155.5t-150.5 -57.5z" />
    <glyph glyph-name="uni0283" unicode="&#x283;" horiz-adv-x="479" 
d="M0 -307v100h37q95 0 119 54.5t24 152.5v1042q0 90 19 158.5t73 107t158 38.5h49v-101h-37q-95 0 -119 -54.5t-24 -152.5v-1038q0 -91 -19 -160t-72.5 -108t-158.5 -39h-49z" />
    <glyph glyph-name="uni028B" unicode="&#x28b;" horiz-adv-x="1151" 
d="M555 -10q-147 0 -233.5 48.5t-124 137.5t-37.5 211v586h119v-567q0 -88 20.5 -156.5t80 -107t175.5 -38.5q134 0 202 36t91.5 104t23.5 164h119q0 -132 -46 -225.5t-142 -143t-248 -49.5zM872 408v270q0 98 -24 152.5t-119 54.5h-37v100h49q105 0 158.5 -38.5t72.5 -107
t19 -157.5v-274h-119z" />
    <glyph glyph-name="uni0292" unicode="&#x292;" horiz-adv-x="967" 
d="M469 -379q-199 0 -313.5 95.5t-114.5 267.5h113q0 -120 83.5 -192.5t229.5 -72.5q148 0 233.5 74.5t85.5 237.5q0 107 -47 176.5t-136 104t-216 34.5h-102v100l417 426h-585v101h729v-86l-440 -449q158 0 269.5 -46.5t170.5 -137.5t59 -223q0 -198 -122 -304t-314 -106z
" />
    <glyph glyph-name="circumflex" unicode="&#x2c6;" horiz-adv-x="1130" 
d="M287 1112l215 266h129l215 -266h-109l-170 184l-172 -184h-108z" />
    <glyph glyph-name="caron" unicode="&#x2c7;" horiz-adv-x="1130" 
d="M500 1112l-215 266h108l172 -186l170 186h109l-215 -266h-129z" />
    <glyph glyph-name="breve" unicode="&#x2d8;" horiz-adv-x="1130" 
d="M563 1124q-104 0 -171 63t-83 177h84q10 -76 58.5 -111.5t111.5 -35.5q62 0 111.5 37t58.5 110h82q-13 -112 -80.5 -176t-171.5 -64z" />
    <glyph glyph-name="dotaccent" unicode="&#x2d9;" horiz-adv-x="1130" 
d="M565 1184q-35 0 -58.5 22.5t-23.5 57.5t23.5 58.5t58.5 23.5q34 0 58 -23.5t24 -58.5t-24 -57.5t-58 -22.5z" />
    <glyph glyph-name="ring" unicode="&#x2da;" horiz-adv-x="1130" 
d="M565 1079q-91 0 -148 56t-57 147q0 89 57 145t148 56t148 -56t57 -145q0 -91 -57 -147t-148 -56zM565 1165q51 0 82 32.5t31 84.5q0 51 -31 84t-82 33q-50 0 -81 -33t-31 -84q0 -52 31 -84.5t81 -32.5z" />
    <glyph glyph-name="ogonek" unicode="&#x2db;" horiz-adv-x="1130" 
d="M578 -377q-71 0 -121.5 41.5t-50.5 114.5q0 50 32 101t85 92t116 61l49 -15q-95 -67 -129.5 -123.5t-34.5 -101.5q0 -38 22.5 -58t53.5 -20q34 0 63 9t60 22v-92q-26 -14 -58 -22.5t-87 -8.5z" />
    <glyph glyph-name="tilde" unicode="&#x2dc;" horiz-adv-x="1130" 
d="M291 1149q9 80 41.5 131t101.5 51q38 0 76.5 -14t75.5 -31q34 -15 60 -24t48 -9q28 0 46 21.5t22 62.5h78q-10 -76 -42.5 -127t-101.5 -51q-41 0 -79 14t-72 29q-34 16 -60 25.5t-49 9.5q-28 0 -45 -22t-22 -66h-78z" />
    <glyph glyph-name="hungarumlaut" unicode="&#x2dd;" horiz-adv-x="1130" 
d="M610 1112l170 266h148l-221 -266h-97zM342 1112l170 266h147l-221 -266h-96z" />
    <glyph glyph-name="gravecomb" unicode="&#x300;" horiz-adv-x="0" 
d="M541 1112l-258 266h147l207 -266h-96z" />
    <glyph glyph-name="acutecomb" unicode="&#x301;" horiz-adv-x="0" 
d="M494 1112l206 266h148l-258 -266h-96z" />
    <glyph glyph-name="uni0302" unicode="&#x302;" horiz-adv-x="0" 
d="M287 1112l215 266h129l215 -266h-109l-170 184l-172 -184h-108z" />
    <glyph glyph-name="tildecomb" unicode="&#x303;" horiz-adv-x="0" 
d="M291 1149q9 80 41.5 131t101.5 51q38 0 76.5 -14t75.5 -31q34 -15 60 -24t48 -9q28 0 46 21.5t22 62.5h78q-10 -76 -42.5 -127t-101.5 -51q-41 0 -79 14t-72 29q-34 16 -60 25.5t-49 9.5q-28 0 -45 -22t-22 -66h-78z" />
    <glyph glyph-name="uni0304" unicode="&#x304;" horiz-adv-x="0" 
d="M297 1192v104h537v-104h-537z" />
    <glyph glyph-name="uni0306" unicode="&#x306;" horiz-adv-x="0" 
d="M563 1124q-104 0 -171 63t-83 177h84q10 -76 58.5 -111.5t111.5 -35.5q62 0 111.5 37t58.5 110h82q-13 -112 -80.5 -176t-171.5 -64z" />
    <glyph glyph-name="uni0307" unicode="&#x307;" horiz-adv-x="0" 
d="M565 1184q-35 0 -58.5 22.5t-23.5 57.5t23.5 58.5t58.5 23.5q34 0 58 -23.5t24 -58.5t-24 -57.5t-58 -22.5z" />
    <glyph glyph-name="uni0308" unicode="&#x308;" horiz-adv-x="0" 
d="M733 1188q-34 0 -57 21t-23 55t23 55.5t57 21.5t57 -21.5t23 -55.5t-23 -55t-57 -21zM397 1188q-34 0 -57 21t-23 55t23 55.5t57 21.5t57 -21.5t23 -55.5t-23 -55t-57 -21z" />
    <glyph glyph-name="hookabovecomb" unicode="&#x309;" horiz-adv-x="0" 
d="M514 1141l-35 51q34 11 62 36t28 62q0 38 -25 51t-75 13h-8v92h28q107 0 160 -35t53 -106q0 -46 -23 -80.5t-65 -55.5t-100 -28zM479 1192h94v-94h-94v94z" />
    <glyph glyph-name="uni030A" unicode="&#x30a;" horiz-adv-x="0" 
d="M565 1079q-91 0 -148 56t-57 147q0 89 57 145t148 56t148 -56t57 -145q0 -91 -57 -147t-148 -56zM565 1165q51 0 82 32.5t31 84.5q0 51 -31 84t-82 33q-50 0 -81 -33t-31 -84q0 -52 31 -84.5t81 -32.5z" />
    <glyph glyph-name="uni030B" unicode="&#x30b;" horiz-adv-x="0" 
d="M610 1112l170 266h148l-221 -266h-97zM342 1112l170 266h147l-221 -266h-96z" />
    <glyph glyph-name="uni030C" unicode="&#x30c;" horiz-adv-x="0" 
d="M500 1112l-215 266h108l172 -186l170 186h109l-215 -266h-129z" />
    <glyph glyph-name="uni0312" unicode="&#x312;" horiz-adv-x="0" 
d="M559 1167q-37 0 -64.5 24.5t-27.5 72.5q0 50 25 92.5t65.5 73t87.5 43.5l21 -58q-25 -13 -53 -34.5t-38 -53.5q29 -6 49.5 -28.5t20.5 -51.5q0 -34 -24 -57t-62 -23z" />
    <glyph glyph-name="uni031B" unicode="&#x31b;" horiz-adv-x="0" 
d="M-74 715v88q76 35 119 83t49 111l8 -6q-44 0 -75 28t-31 73q0 46 30 75t76 29q47 0 77 -32.5t30 -100.5q0 -54 -16.5 -103.5t-50.5 -93t-87.5 -81.5t-128.5 -70z" />
    <glyph glyph-name="dotbelowcomb" unicode="&#x323;" horiz-adv-x="0" 
d="M0 -264q-35 0 -58.5 22.5t-23.5 57.5t23.5 58.5t58.5 23.5q34 0 58 -23.5t24 -58.5t-24 -57.5t-58 -22.5z" />
    <glyph glyph-name="uni0326" unicode="&#x326;" horiz-adv-x="0" 
d="M487 -365l-20 58q25 14 53 35t37 53q-29 6 -49.5 28.5t-20.5 51.5q0 34 24 57t62 23t65.5 -24.5t27.5 -72.5q0 -75 -54 -132t-125 -77z" />
    <glyph glyph-name="uni0327" unicode="&#x327;" horiz-adv-x="0" 
d="M573 -383q-49 0 -89.5 8.5t-75.5 22.5l22 82q22 -11 61.5 -19t79.5 -8q35 0 61.5 18t26.5 50q0 37 -33.5 56t-111.5 26l-43 4l129 180l72 -37l-72 -102l-20 28q94 -6 141 -42.5t47 -104.5q0 -53 -24.5 -89.5t-68 -54.5t-102.5 -18z" />
    <glyph glyph-name="uni0328" unicode="&#x328;" horiz-adv-x="0" 
d="M578 -377q-71 0 -121.5 41.5t-50.5 114.5q0 50 32 101t85 92t116 61l49 -15q-95 -67 -129.5 -123.5t-34.5 -101.5q0 -38 22.5 -58t53.5 -20q34 0 63 9t60 22v-92q-26 -14 -58 -22.5t-87 -8.5z" />
    <glyph glyph-name="uni0335" unicode="&#x335;" horiz-adv-x="0" 
d="M43 393v90h498v-90h-498z" />
    <glyph glyph-name="uni0336" unicode="&#x336;" horiz-adv-x="0" 
d="M0 637v104h696v-104h-696z" />
    <glyph glyph-name="uni0345" unicode="&#x345;" horiz-adv-x="0" 
d="M61 -358q-106 0 -136.5 50t-30.5 130v123h118v-119q0 -40 10 -62t52 -22h37v-100h-50z" />
    <glyph glyph-name="uni0370" unicode="&#x370;" horiz-adv-x="830" 
d="M184 0v1346h129v-584h480v-111h-480v-651h-129z" />
    <glyph glyph-name="uni0371" unicode="&#x371;" horiz-adv-x="695" 
d="M170 0v973h119v-973h-119zM264 457v100h375v-100h-375z" />
    <glyph glyph-name="uni0372" unicode="&#x372;" horiz-adv-x="1036" 
d="M454 0v1237h-394v109h916v-109h-393v-1237h-129zM60 985v361h125v-361h-125zM851 985v361h125v-361h-125z" />
    <glyph glyph-name="uni0373" unicode="&#x373;" horiz-adv-x="982" 
d="M653 0q-103 0 -156.5 38.5t-72 107t-18.5 157.5v569h-252v-219h-117v320h889v-320h-117v219h-287v-565q0 -98 24.5 -152.5t119.5 -54.5h133v-100h-146z" />
    <glyph glyph-name="uni0374" unicode="&#x374;" horiz-adv-x="469" 
d="M58 1112l206 266h148l-258 -266h-96z" />
    <glyph glyph-name="uni0375" unicode="&#x375;" horiz-adv-x="469" 
d="M58 -133l206 266h148l-258 -266h-96z" />
    <glyph glyph-name="uni0376" unicode="&#x376;" horiz-adv-x="1429" 
d="M1243 0h-123v1176l-798 -1176h-138v1346h123v-1176l799 1176h137v-1346z" />
    <glyph glyph-name="uni0377" unicode="&#x377;" horiz-adv-x="1149" 
d="M170 0v973h119v-795l571 795h119v-973h-119v799l-571 -799h-119z" />
    <glyph glyph-name="uni037A" unicode="&#x37a;" horiz-adv-x="567" 
d="M303 -358q-106 0 -136.5 50t-30.5 130v123h118v-119q0 -40 10 -62t52 -22h37v-100h-50z" />
    <glyph glyph-name="uni037B" unicode="&#x37b;" horiz-adv-x="1051" 
d="M506 -18q-107 0 -195.5 36t-141.5 110t-56 187h118q5 -116 79.5 -174.5t191.5 -58.5q155 0 236 105.5t81 297.5t-81 299t-236 107q-117 0 -186 -58.5t-78 -162.5h-119q5 109 56.5 180t137.5 106t193 35q130 0 227 -57.5t151 -170.5t54 -278q0 -164 -54 -276.5
t-151 -169.5t-227 -57z" />
    <glyph glyph-name="uni037C" unicode="&#x37c;" horiz-adv-x="1051" 
d="M545 -18q-130 0 -227 57t-151 169.5t-54 276.5q0 165 54 278t151 170.5t227 57.5q108 0 193.5 -35t137 -106t56.5 -180h-119q-9 104 -78 162.5t-186 58.5q-155 0 -234 -107t-79 -299t79 -297.5t234 -105.5q117 0 191.5 58.5t78.5 174.5h119q-3 -113 -56 -187t-141 -110
t-196 -36zM551 428q-35 0 -58.5 22.5t-23.5 57.5t23.5 58.5t58.5 23.5q34 0 58 -23.5t24 -58.5t-24 -57.5t-58 -22.5z" />
    <glyph glyph-name="uni037D" unicode="&#x37d;" horiz-adv-x="1051" 
d="M506 -18q-107 0 -195.5 36t-141.5 110t-56 187h118q5 -116 79.5 -174.5t191.5 -58.5q155 0 234 105.5t79 297.5t-79 299t-234 107q-117 0 -186 -58.5t-78 -162.5h-119q5 109 56.5 180t137.5 106t193 35q130 0 227 -57.5t151 -170.5t54 -278q0 -164 -54 -276.5
t-151 -169.5t-227 -57zM500 428q-35 0 -58.5 22.5t-23.5 57.5t23.5 58.5t58.5 23.5q34 0 58 -23.5t24 -58.5t-24 -57.5t-58 -22.5z" />
    <glyph glyph-name="uni037E" unicode="&#x37e;" horiz-adv-x="524" 
d="M174 -262l-45 76q53 27 96.5 76t53.5 110l8 -8q-46 0 -77.5 31t-31.5 77q0 45 31.5 76t77.5 31q44 0 75 -32t31 -101q0 -82 -27 -143.5t-76 -108t-116 -84.5zM287 758q-46 0 -77.5 31t-31.5 77q0 45 31.5 76t77.5 31q44 0 75 -31t31 -76q0 -46 -31 -77t-75 -31z" />
    <glyph glyph-name="uni037F" unicode="&#x37f;" horiz-adv-x="642" 
d="M37 -10v110h57q151 0 201.5 66.5t50.5 212.5v967h129v-971q0 -135 -36.5 -220t-118 -125t-216.5 -40h-67z" />
    <glyph glyph-name="tonos" unicode="&#x384;" horiz-adv-x="1130" 
d="M504 1112l49 287h147l-120 -287h-76z" />
    <glyph glyph-name="dieresistonos" unicode="&#x385;" horiz-adv-x="1130" 
d="M504 1112l49 287h147l-120 -287h-76zM377 1147q-34 0 -57 21t-23 55t23 55.5t57 21.5t57 -21.5t23 -55.5t-23 -55t-57 -21zM774 1147q-34 0 -57 21t-23 55t23 55.5t57 21.5t57 -21.5t23 -55.5t-23 -55t-57 -21z" />
    <glyph glyph-name="Alphatonos" unicode="&#x386;" horiz-adv-x="1176" 
d="M10 0l514 1346h138l503 -1346h-133l-143 418h-594l-152 -418h-133zM334 528h512l-254 689zM98 1059l49 287h147l-120 -287h-76z" />
    <glyph glyph-name="anoteleia" unicode="&#x387;" horiz-adv-x="573" 
d="M287 416q-46 0 -77.5 31t-31.5 77q0 45 31.5 76t77.5 31q44 0 75 -31t31 -76q0 -46 -31 -77t-75 -31z" />
    <glyph glyph-name="Epsilontonos" unicode="&#x388;" horiz-adv-x="1122" 
d="M184 0v1346h836v-109h-707v-487h656v-109h-656v-532h707v-109h-836zM-84 1059l49 287h147l-120 -287h-76z" />
    <glyph glyph-name="Etatonos" unicode="&#x389;" horiz-adv-x="1425" 
d="M184 0v1346h129v-584h799v584h127v-1346h-127v651h-799v-651h-129zM-84 1059l49 287h147l-120 -287h-76z" />
    <glyph glyph-name="Iotatonos" unicode="&#x38a;" horiz-adv-x="499" 
d="M184 0v1346h129v-1346h-129zM-84 1059l49 287h147l-120 -287h-76z" />
    <glyph glyph-name="Omicrontonos" unicode="&#x38c;" horiz-adv-x="1495" 
d="M748 -18q-212 0 -353 89t-211.5 244.5t-70.5 356.5t70.5 357t211.5 245.5t353 89.5q211 0 351 -89.5t210.5 -245.5t70.5 -357t-70.5 -356.5t-210.5 -244.5t-351 -89zM748 86q177 0 287 78.5t161 211.5t51 296q0 164 -51 297t-161 212t-287 79q-178 0 -288.5 -79
t-161 -212t-50.5 -297q0 -163 50.5 -296t161 -211.5t288.5 -78.5zM-43 1059l49 287h147l-120 -287h-76z" />
    <glyph glyph-name="Upsilontonos" unicode="&#x38e;" horiz-adv-x="1057" 
d="M463 0v553l-463 793h141l389 -682l385 682h142l-465 -793v-553h-129zM-207 1059l49 287h147l-120 -287h-76z" />
    <glyph glyph-name="Omegatonos" unicode="&#x38f;" horiz-adv-x="1493" 
d="M623 27q-244 71 -367 245.5t-123 440.5q0 189 68.5 336t205 231t341.5 84q204 0 340 -84t204 -231t68 -336q0 -268 -121.5 -442.5t-366.5 -243.5v84q188 74 271.5 228t83.5 374q0 153 -49 277t-154.5 197t-275.5 73q-171 0 -276.5 -73t-154.5 -197t-49 -277
q0 -217 83 -372.5t272 -229.5v-84zM102 0v109h521v-109h-521zM872 0v109h519v-109h-519zM-43 1059l49 287h147l-120 -287h-76z" />
    <glyph glyph-name="iotadieresistonos" unicode="&#x390;" horiz-adv-x="498" 
d="M410 0q-104 0 -158 38.5t-73 107t-19 157.5v670h119v-666q0 -98 24 -152.5t119 -54.5h37v-100h-49zM195 1153l49 287h147l-120 -287h-76zM68 1188q-34 0 -57 21t-23 55t23 55.5t57 21.5t57 -21.5t23 -55.5t-23 -55t-57 -21zM465 1188q-34 0 -57 21t-23 55t23 55.5
t57 21.5t57 -21.5t23 -55.5t-23 -55t-57 -21z" />
    <glyph glyph-name="Alpha" unicode="&#x391;" horiz-adv-x="1176" 
d="M10 0l514 1346h138l503 -1346h-133l-143 418h-594l-152 -418h-133zM334 528h512l-254 689z" />
    <glyph glyph-name="Beta" unicode="&#x392;" horiz-adv-x="1221" 
d="M184 0v1346h418q195 0 313.5 -82t118.5 -248q0 -106 -62 -193t-165 -108q140 -20 227.5 -110t87.5 -222q0 -115 -50 -201.5t-156.5 -134t-274.5 -47.5h-457zM313 109h328q95 0 175.5 24t129.5 84.5t49 169.5q0 129 -92.5 195.5t-261.5 66.5h-328v-540zM313 760h289
q154 0 229.5 68.5t75.5 179.5q0 74 -34 125t-101.5 77.5t-169.5 26.5h-289v-477z" />
    <glyph glyph-name="Gamma" unicode="&#x393;" horiz-adv-x="928" 
d="M184 0v1346h707v-109h-578v-1237h-129z" />
    <glyph glyph-name="uni0394" unicode="&#x394;" horiz-adv-x="1171" 
d="M61 0v104l113 5h825l111 -5v-104h-1049zM61 104l449 1242h149l451 -1242l-104 -65l-422 1175l-424 -1175z" />
    <glyph glyph-name="Epsilon" unicode="&#x395;" horiz-adv-x="1122" 
d="M184 0v1346h836v-109h-707v-487h656v-109h-656v-532h707v-109h-836z" />
    <glyph glyph-name="Zeta" unicode="&#x396;" horiz-adv-x="1024" 
d="M35 0v102l778 1135h-733v109h874v-101l-778 -1136h813v-109h-954z" />
    <glyph glyph-name="Eta" unicode="&#x397;" horiz-adv-x="1425" 
d="M184 0v1346h129v-584h799v584h127v-1346h-127v651h-799v-651h-129z" />
    <glyph glyph-name="Theta" unicode="&#x398;" horiz-adv-x="1495" 
d="M459 627v108h577v-108h-577zM748 -18q-212 0 -353 89t-211.5 244.5t-70.5 356.5t70.5 357t211.5 245.5t353 89.5q211 0 351 -89.5t210.5 -245.5t70.5 -357t-70.5 -356.5t-210.5 -244.5t-351 -89zM748 86q177 0 287 78.5t161 211.5t51 296q0 164 -51 297t-161 212t-287 79
q-178 0 -288.5 -79t-161 -212t-50.5 -297q0 -163 50.5 -296t161 -211.5t288.5 -78.5z" />
    <glyph glyph-name="Iota" unicode="&#x399;" horiz-adv-x="499" 
d="M184 0v1346h129v-1346h-129z" />
    <glyph glyph-name="Kappa" unicode="&#x39a;" horiz-adv-x="1108" 
d="M184 0v1346h129v-650l588 650h154l-590 -637l643 -709h-168l-627 692v-692h-129z" />
    <glyph glyph-name="Lambda" unicode="&#x39b;" horiz-adv-x="1167" 
d="M10 0l500 1346h149l498 -1346h-137l-436 1204l-439 -1204h-135z" />
    <glyph glyph-name="Mu" unicode="&#x39c;" horiz-adv-x="1587" 
d="M184 0v1346h133l508 -830h-53l496 830h133v-1346h-127v1196h31l-465 -776h-90l-471 776h30v-1196h-125z" />
    <glyph glyph-name="Nu" unicode="&#x39d;" horiz-adv-x="1429" 
d="M184 0v1346h138l798 -1153v1153h123v-1346h-137l-799 1153v-1153h-123z" />
    <glyph glyph-name="Xi" unicode="&#x39e;" horiz-adv-x="1130" 
d="M102 0v109h926v-109h-926zM246 641v109h639v-109h-639zM143 1237v109h844v-109h-844z" />
    <glyph glyph-name="Omicron" unicode="&#x39f;" horiz-adv-x="1495" 
d="M748 -18q-212 0 -353 89t-211.5 244.5t-70.5 356.5t70.5 357t211.5 245.5t353 89.5q211 0 351 -89.5t210.5 -245.5t70.5 -357t-70.5 -356.5t-210.5 -244.5t-351 -89zM748 86q177 0 287 78.5t161 211.5t51 296q0 164 -51 297t-161 212t-287 79q-178 0 -288.5 -79
t-161 -212t-50.5 -297q0 -163 50.5 -296t161 -211.5t288.5 -78.5z" />
    <glyph glyph-name="Pi" unicode="&#x3a0;" horiz-adv-x="1405" 
d="M184 0v1346h1035v-1346h-127v1235h-779v-1235h-129z" />
    <glyph glyph-name="Rho" unicode="&#x3a1;" horiz-adv-x="1153" 
d="M184 0v1346h465q121 0 216 -48t149.5 -138.5t54.5 -217.5q0 -122 -54.5 -208t-149.5 -131.5t-216 -45.5h-336v-557h-129zM313 668h328q134 0 216.5 67.5t82.5 206.5q0 151 -82.5 223t-216.5 72h-328v-569z" />
    <glyph glyph-name="Sigma" unicode="&#x3a3;" horiz-adv-x="996" 
d="M35 0v109l561 602l-530 526v109h843v-109h-700l506 -485v-80l-531 -563h777v-109h-926z" />
    <glyph glyph-name="Tau" unicode="&#x3a4;" horiz-adv-x="952" 
d="M412 0v1237h-394v109h916v-109h-393v-1237h-129z" />
    <glyph glyph-name="Upsilon" unicode="&#x3a5;" horiz-adv-x="1057" 
d="M463 0v553l-463 793h141l389 -682l385 682h142l-465 -793v-553h-129z" />
    <glyph glyph-name="Phi" unicode="&#x3a6;" horiz-adv-x="1440" 
d="M758 156v110h26q199 0 321 102t122 316q0 201 -122 298t-321 97h-26v111h35q162 0 289 -60t200.5 -173t73.5 -273q0 -168 -73.5 -286t-200.5 -180t-289 -62h-35zM655 -41v1427h129v-1427h-129zM682 156h-35q-161 0 -288.5 62t-201 180t-73.5 286q0 160 73.5 273t201 173
t288.5 60h35v-111h-27q-198 0 -320 -97t-122 -298q0 -214 122 -316t320 -102h27v-110z" />
    <glyph glyph-name="Chi" unicode="&#x3a7;" horiz-adv-x="1085" 
d="M18 0l447 694l-418 652h143l351 -570l364 570h135l-422 -656l449 -690h-147l-379 600l-385 -600h-138z" />
    <glyph glyph-name="Psi" unicode="&#x3a8;" horiz-adv-x="1502" 
d="M786 360v111h48q179 0 290 92.5t111 284.5v498h133l-4 -498q-1 -154 -69.5 -263.5t-186 -167t-266.5 -57.5h-56zM655 360q-149 0 -267.5 57.5t-186.5 167t-68 263.5v498h127v-498q0 -192 112 -284.5t292 -92.5h47v-111h-56zM682 0v1346h129v-1346h-129z" />
    <glyph glyph-name="uni03A9" unicode="&#x3a9;" horiz-adv-x="1493" 
d="M623 27q-244 71 -367 245.5t-123 440.5q0 189 68.5 336t205 231t341.5 84q204 0 340 -84t204 -231t68 -336q0 -268 -121.5 -442.5t-366.5 -243.5v84q188 74 271.5 228t83.5 374q0 153 -49 277t-154.5 197t-275.5 73q-171 0 -276.5 -73t-154.5 -197t-49 -277
q0 -217 83 -372.5t272 -229.5v-84zM102 0v109h521v-109h-521zM872 0v109h519v-109h-519z" />
    <glyph glyph-name="Iotadieresis" unicode="&#x3aa;" horiz-adv-x="499" 
d="M184 0v1346h129v-1346h-129zM416 1534q-34 0 -57 21t-23 55t23 56t57 22t57 -22t23 -56t-23 -55t-57 -21zM80 1534q-34 0 -57 21t-23 55t23 56t57 22t57 -22t23 -56t-23 -55t-57 -21z" />
    <glyph glyph-name="Upsilondieresis" unicode="&#x3ab;" horiz-adv-x="1057" 
d="M463 0v553l-463 793h141l389 -682l385 682h142l-465 -793v-553h-129zM698 1534q-34 0 -57 21t-23 55t23 56t57 22t57 -22t23 -56t-23 -55t-57 -21zM362 1534q-34 0 -57 21t-23 55t23 56t57 22t57 -22t23 -56t-23 -55t-57 -21z" />
    <glyph glyph-name="alphatonos" unicode="&#x3ac;" horiz-adv-x="1124" 
d="M502 -18q-184 0 -286.5 127t-102.5 372q0 164 48.5 277.5t140 172t220.5 58.5q108 0 187 -46.5t127 -125.5l8 156h110v-674q0 -98 24.5 -152.5t119.5 -54.5h10v-100h-23q-82 0 -133 21t-76.5 58.5t-33.5 84.5q-57 -77 -143.5 -125.5t-196.5 -48.5zM514 86q119 0 196 52.5
t126 133.5v414q-45 85 -118 142t-183 57q-149 0 -224 -106.5t-75 -297.5q0 -192 70 -293.5t208 -101.5zM517 1112l49 287h147l-120 -287h-76z" />
    <glyph glyph-name="epsilontonos" unicode="&#x3ad;" horiz-adv-x="987" 
d="M483 -16q-169 0 -275 69t-106 211q0 110 70 166t197 82q-121 25 -172.5 90.5t-51.5 138.5q0 59 31.5 116t105.5 94.5t201 37.5q168 0 265.5 -68t103.5 -194h-117q-1 71 -69.5 117.5t-182.5 46.5q-121 0 -173 -45.5t-52 -110.5q0 -84 76 -128t182 -44h119v-102h-90
q-174 0 -252 -47.5t-78 -141.5q0 -100 75 -145t193 -45q148 0 224.5 48.5t80.5 156.5h117q-6 -98 -53.5 -166t-139 -102.5t-229.5 -34.5zM459 1112l49 287h147l-120 -287h-76z" />
    <glyph glyph-name="etatonos" unicode="&#x3ae;" horiz-adv-x="1100" 
d="M170 0v973h115l4 -152q44 59 130 113.5t218 54.5q166 0 234.5 -97.5t68.5 -266.5v-983h-119v964q0 80 -15 143t-57 99.5t-124 36.5q-124 0 -207 -56.5t-129 -119.5v-709h-119zM517 1112l49 287h147l-120 -287h-76z" />
    <glyph glyph-name="iotatonos" unicode="&#x3af;" horiz-adv-x="498" 
d="M410 0q-104 0 -158 38.5t-73 107t-19 157.5v670h119v-666q0 -98 24 -152.5t119 -54.5h37v-100h-49zM193 1112l49 287h147l-120 -287h-76z" />
    <glyph glyph-name="upsilondieresistonos" unicode="&#x3b0;" horiz-adv-x="1135" 
d="M555 -18q-147 0 -233.5 50.5t-124 141.5t-37.5 213v586h119v-567q0 -88 20.5 -158.5t80 -111t175.5 -40.5q134 0 202 49t91.5 133t23.5 189q0 126 -22 253t-59 253h118q37 -130 59.5 -261.5t22.5 -262.5q0 -141 -46 -246t-142 -163t-248 -58zM494 1153l49 287h147
l-120 -287h-76zM367 1188q-34 0 -57 21t-23 55t23 55.5t57 21.5t57 -21.5t23 -55.5t-23 -55t-57 -21zM764 1188q-34 0 -57 21t-23 55t23 55.5t57 21.5t57 -21.5t23 -55.5t-23 -55t-57 -21z" />
    <glyph glyph-name="alpha" unicode="&#x3b1;" horiz-adv-x="1124" 
d="M502 -18q-184 0 -286.5 127t-102.5 372q0 164 48.5 277.5t140 172t220.5 58.5q108 0 187 -46.5t127 -125.5l8 156h110v-674q0 -98 24.5 -152.5t119.5 -54.5h10v-100h-23q-82 0 -133 21t-76.5 58.5t-33.5 84.5q-57 -77 -143.5 -125.5t-196.5 -48.5zM514 86q119 0 196 52.5
t126 133.5v414q-45 85 -118 142t-183 57q-149 0 -224 -106.5t-75 -297.5q0 -192 70 -293.5t208 -101.5z" />
    <glyph glyph-name="beta" unicode="&#x3b2;" 
d="M158 -358v1251q0 151 46.5 256t135 160t215.5 55q161 0 258.5 -88t97.5 -242q0 -144 -86.5 -228.5t-224.5 -103.5l-90 31q220 0 345.5 -86t125.5 -272q0 -130 -54.5 -216t-148 -128.5t-211.5 -42.5q-61 0 -114 7.5t-103.5 22.5t-101.5 37v105q80 -37 156 -55.5t163 -18.5
q143 0 219 73t76 216q0 152 -100 220.5t-260 68.5h-90v96h98q125 0 204 72.5t79 201.5q0 114 -64 170t-174 56q-86 0 -148.5 -37.5t-96.5 -118.5t-34 -211v-1251h-118z" />
    <glyph glyph-name="gamma" unicode="&#x3b3;" horiz-adv-x="883" 
d="M391 -358v399h119v-399h-119zM391 6l-391 967h127l324 -834l311 834h121l-375 -973z" />
    <glyph glyph-name="delta" unicode="&#x3b4;" horiz-adv-x="1108" 
d="M547 -18q-130 0 -227.5 56.5t-152 161.5t-54.5 249q0 146 62.5 254.5t158.5 179.5t198 104l-307 254v105h701v-111h-541l301 -238q119 -93 186.5 -178t95 -171t27.5 -183q0 -148 -56 -256.5t-157 -167.5t-235 -59zM547 80q108 0 180 49.5t108.5 136.5t36.5 199
q0 102 -28 179t-85.5 144t-148.5 138q-103 -34 -188 -97t-135.5 -157.5t-50.5 -222.5q0 -109 35.5 -192t105 -130t170.5 -47z" />
    <glyph glyph-name="epsilon" unicode="&#x3b5;" horiz-adv-x="987" 
d="M483 -16q-169 0 -275 69t-106 211q0 110 70 166t197 82q-121 25 -172.5 90.5t-51.5 138.5q0 59 31.5 116t105.5 94.5t201 37.5q168 0 265.5 -68t103.5 -194h-117q-1 71 -69.5 117.5t-182.5 46.5q-121 0 -173 -45.5t-52 -110.5q0 -84 76 -128t182 -44h119v-102h-90
q-174 0 -252 -47.5t-78 -141.5q0 -100 75 -145t193 -45q148 0 224.5 48.5t80.5 156.5h117q-6 -98 -53.5 -166t-139 -102.5t-229.5 -34.5z" />
    <glyph glyph-name="zeta" unicode="&#x3b6;" horiz-adv-x="813" 
d="M674 -244q13 84 7 132.5t-43 71.5t-118 28l-90 6q-93 6 -167 42.5t-116.5 114t-42.5 207.5q0 120 51 230t128 208.5t155 182.5l240 256h-494v111h619v-111l-283 -313q-83 -92 -150.5 -183t-107 -185t-39.5 -196q0 -147 62.5 -198.5t173.5 -59.5l90 -6q101 -7 162 -41.5
t82 -106t0 -190.5h-119z" />
    <glyph glyph-name="eta" unicode="&#x3b7;" horiz-adv-x="1100" 
d="M170 0v973h115l4 -152q44 59 130 113.5t218 54.5q166 0 234.5 -97.5t68.5 -266.5v-983h-119v964q0 80 -15 143t-57 99.5t-124 36.5q-124 0 -207 -56.5t-129 -119.5v-709h-119z" />
    <glyph glyph-name="theta" unicode="&#x3b8;" horiz-adv-x="1090" 
d="M545 -18q-167 0 -258.5 90t-127.5 246t-36 354q0 200 36 356.5t127.5 247t258.5 90.5t258.5 -90.5t127.5 -246.5t36 -355t-36 -355.5t-127.5 -246.5t-258.5 -90zM545 82q90 0 148 47.5t90.5 130.5t45.5 189.5t13 224.5q0 117 -13 223.5t-45.5 189.5t-90.5 131t-148 48
q-91 0 -150 -48t-91 -131t-45 -189.5t-13 -223.5q0 -118 13 -224.5t45 -189.5t91 -130.5t150 -47.5zM233 635v96h619v-96h-619z" />
    <glyph glyph-name="iota" unicode="&#x3b9;" horiz-adv-x="498" 
d="M410 0q-104 0 -158 38.5t-73 107t-19 157.5v670h119v-666q0 -98 24 -152.5t119 -54.5h37v-100h-49z" />
    <glyph glyph-name="kappa" unicode="&#x3ba;" horiz-adv-x="948" 
d="M170 0v973h119v-463l469 463h151l-458 -447l505 -526h-157l-434 449l-76 -62v-387h-119z" />
    <glyph glyph-name="lambda" unicode="&#x3bb;" horiz-adv-x="883" 
d="M0 0l422 987h117l344 -987h-121l-287 858l-348 -858h-127zM422 987l-39 107q-29 81 -72 116t-102 35h-80v101h90q72 0 121 -22.5t85 -73t67 -134.5l47 -129h-117z" />
    <glyph glyph-name="uni03BC" unicode="&#x3bc;" horiz-adv-x="1128" 
d="M170 -362v1335h119v-608q0 -76 15 -135t61.5 -92.5t138.5 -33.5q125 0 207.5 49.5t128.5 110.5v709h118v-973h-114l-4 152q-67 -80 -158 -121t-180 -41q-82 0 -147.5 31t-103.5 93t-38 156h76v-632h-119z" />
    <glyph glyph-name="nu" unicode="&#x3bd;" horiz-adv-x="883" 
d="M383 0l-383 973h127l317 -850l318 850h121l-375 -973h-125z" />
    <glyph glyph-name="xi" unicode="&#x3be;" horiz-adv-x="813" 
d="M674 -254q13 83 7 133t-43.5 74t-117.5 29l-90 6q-106 7 -179 48t-110 120t-37 202q0 106 45 189t120.5 137t168.5 72q-91 28 -163 97.5t-72 176.5q0 61 21 117.5t70.5 101.5t133.5 71t211 26h164v-111h-162q-169 0 -244 -55.5t-75 -149.5q0 -91 80 -154t216 -63h121
v-111h-108q-181 0 -294.5 -93t-113.5 -251q0 -148 62 -203t174 -63l90 -6q100 -7 161 -42.5t82.5 -107.5t0.5 -190h-119z" />
    <glyph glyph-name="omicron" unicode="&#x3bf;" horiz-adv-x="1108" 
d="M547 -16q-140 0 -237 61t-147 173.5t-50 266.5q0 157 50 271t147 175.5t237 61.5q145 0 244.5 -61.5t151.5 -175.5t52 -271q0 -154 -52 -266.5t-151.5 -173.5t-244.5 -61zM547 82q119 0 190 51.5t103 142.5t32 209q0 120 -32 212.5t-103 145t-190 52.5q-114 0 -182 -52.5
t-98.5 -145t-30.5 -212.5q0 -118 30.5 -209t98.5 -142.5t182 -51.5z" />
    <glyph glyph-name="pi" unicode="&#x3c0;" horiz-adv-x="1176" 
d="M1008 0q-103 0 -156.5 38.5t-72.5 107t-19 157.5v569h-723v101h1083v-101h-243v-565q0 -98 24 -152.5t119 -54.5h72v-100h-84zM225 0v952h119v-952h-119z" />
    <glyph glyph-name="rho" unicode="&#x3c1;" horiz-adv-x="1123" 
d="M272 154l2 125q48 -85 130.5 -136t203.5 -51q139 0 209 105.5t70 298.5q0 215 -77 304t-212 89q-148 0 -233.5 -86t-85.5 -281v-880h-119v880q0 113 29 200.5t85.5 148t137.5 91.5t186 31q186 0 299 -123.5t113 -371.5q0 -166 -46 -280t-132.5 -173t-208.5 -59
q-121 0 -209.5 44.5t-141.5 123.5z" />
    <glyph glyph-name="sigma1" unicode="&#x3c2;" horiz-adv-x="838" 
d="M682 -254q14 83 7.5 133t-44 74t-117.5 29l-90 6q-106 7 -178.5 57t-109.5 148t-37 247q0 185 50.5 307t141 183t211.5 61q98 0 168.5 -26.5t110 -79.5t43.5 -135h-119q-6 66 -53.5 103.5t-145.5 37.5q-100 0 -163 -55t-92 -156t-29 -240q0 -130 27 -204t78.5 -106.5
t125.5 -37.5l90 -6q100 -7 161 -42.5t82.5 -107.5t0.5 -190h-119z" />
    <glyph glyph-name="sigma" unicode="&#x3c3;" horiz-adv-x="1167" 
d="M561 -18q-133 0 -234 55.5t-157.5 163t-56.5 262.5q0 254 141 382t399 128h471v-101h-462q-208 0 -317 -100t-109 -309q0 -101 34.5 -188t108 -140t190.5 -53q119 0 190.5 48t103.5 129.5t32 182.5q0 174 -68 282.5t-178 174.5l-20 31q94 0 184 -62t148.5 -169.5
t58.5 -243.5q0 -229 -123.5 -351t-335.5 -122z" />
    <glyph glyph-name="tau" unicode="&#x3c4;" horiz-adv-x="853" 
d="M571 0q-103 0 -156 38.5t-72 107t-19 157.5v569h-287v101h760v-101h-357v-565q0 -98 24.5 -152.5t119.5 -54.5h133v-100h-146z" />
    <glyph glyph-name="upsilon" unicode="&#x3c5;" horiz-adv-x="1135" 
d="M555 -18q-147 0 -233.5 50.5t-124 141.5t-37.5 213v586h119v-567q0 -88 20.5 -158.5t80 -111t175.5 -40.5q134 0 202 49t91.5 133t23.5 189q0 126 -22 253t-59 253h118q37 -130 59.5 -261.5t22.5 -262.5q0 -141 -46 -246t-142 -163t-248 -58z" />
    <glyph glyph-name="phi" unicode="&#x3c6;" horiz-adv-x="1313" 
d="M649 -16q-259 0 -397.5 134.5t-138.5 366.5q0 236 138.5 372t397.5 136q266 0 408.5 -136t142.5 -372q0 -232 -142.5 -366.5t-408.5 -134.5zM649 82q156 0 250 51.5t136 142.5t42 209q0 120 -42 212t-136 144t-250 52q-151 0 -241.5 -52t-131 -144t-40.5 -212
q0 -118 40.5 -209t131 -142.5t241.5 -51.5zM596 -358v1704h119v-1704h-119z" />
    <glyph glyph-name="chi" unicode="&#x3c7;" horiz-adv-x="891" 
d="M0 -358l430 761l37 29l287 541h116l-350 -639l-45 -53l-354 -639h-121zM774 -358l-549 1093q-27 56 -53 89t-56 48t-69 15h-18v100h28q67 0 111 -18t80.5 -65t79.5 -134l563 -1128h-117z" />
    <glyph glyph-name="psi" unicode="&#x3c8;" horiz-adv-x="1368" 
d="M678 -10q-193 0 -306.5 48.5t-162.5 137.5t-49 211v586h119v-567q0 -92 29.5 -163.5t115 -112t254.5 -40.5h12q169 0 255 40.5t115.5 112t29.5 163.5v567h118v-586q0 -122 -49 -211t-162 -137.5t-307 -48.5h-12zM625 -358v1704h118v-1704h-118z" />
    <glyph glyph-name="omega" unicode="&#x3c9;" horiz-adv-x="1587" 
d="M507 -18q-126 0 -206 53.5t-118.5 157.5t-38.5 256q0 131 22.5 262.5t59.5 261.5h119q-24 -84 -42.5 -168.5t-29 -169t-10.5 -168.5q0 -105 18.5 -189t71 -133t154.5 -49q87 0 136.5 46.5t70 117.5t20.5 146v321h119v-321q0 -75 24.5 -146t74.5 -117.5t128 -46.5
q102 0 154.5 49t71 133t18.5 189q0 126 -23.5 253t-58.5 253h119q35 -130 58.5 -261.5t23.5 -262.5q0 -152 -38.5 -256t-119 -157.5t-207.5 -53.5q-91 0 -167.5 54t-116.5 171q-40 -117 -117.5 -171t-169.5 -54z" />
    <glyph glyph-name="iotadieresis" unicode="&#x3ca;" horiz-adv-x="498" 
d="M410 0q-104 0 -158 38.5t-73 107t-19 157.5v670h119v-666q0 -98 24 -152.5t119 -54.5h37v-100h-49zM404 1188q-34 0 -57 21t-23 55t23 55.5t57 21.5t57 -21.5t23 -55.5t-23 -55t-57 -21zM68 1188q-34 0 -57 21t-23 55t23 55.5t57 21.5t57 -21.5t23 -55.5t-23 -55t-57 -21
z" />
    <glyph glyph-name="upsilondieresis" unicode="&#x3cb;" horiz-adv-x="1135" 
d="M555 -18q-147 0 -233.5 50.5t-124 141.5t-37.5 213v586h119v-567q0 -88 20.5 -158.5t80 -111t175.5 -40.5q134 0 202 49t91.5 133t23.5 189q0 126 -22 253t-59 253h118q37 -130 59.5 -261.5t22.5 -262.5q0 -141 -46 -246t-142 -163t-248 -58zM735 1188q-34 0 -57 21
t-23 55t23 55.5t57 21.5t57 -21.5t23 -55.5t-23 -55t-57 -21zM399 1188q-34 0 -57 21t-23 55t23 55.5t57 21.5t57 -21.5t23 -55.5t-23 -55t-57 -21z" />
    <glyph glyph-name="omicrontonos" unicode="&#x3cc;" horiz-adv-x="1108" 
d="M547 -16q-140 0 -237 61t-147 173.5t-50 266.5q0 157 50 271t147 175.5t237 61.5q145 0 244.5 -61.5t151.5 -175.5t52 -271q0 -154 -52 -266.5t-151.5 -173.5t-244.5 -61zM547 82q119 0 190 51.5t103 142.5t32 209q0 120 -32 212.5t-103 145t-190 52.5q-114 0 -182 -52.5
t-98.5 -145t-30.5 -212.5q0 -118 30.5 -209t98.5 -142.5t182 -51.5zM527 1112l49 287h147l-120 -287h-76z" />
    <glyph glyph-name="upsilontonos" unicode="&#x3cd;" horiz-adv-x="1135" 
d="M555 -18q-147 0 -233.5 50.5t-124 141.5t-37.5 213v586h119v-567q0 -88 20.5 -158.5t80 -111t175.5 -40.5q134 0 202 49t91.5 133t23.5 189q0 126 -22 253t-59 253h118q37 -130 59.5 -261.5t22.5 -262.5q0 -141 -46 -246t-142 -163t-248 -58zM513 1112l49 287h147
l-120 -287h-76z" />
    <glyph glyph-name="omegatonos" unicode="&#x3ce;" horiz-adv-x="1587" 
d="M507 -18q-126 0 -206 53.5t-118.5 157.5t-38.5 256q0 131 22.5 262.5t59.5 261.5h119q-24 -84 -42.5 -168.5t-29 -169t-10.5 -168.5q0 -105 18.5 -189t71 -133t154.5 -49q87 0 136.5 46.5t70 117.5t20.5 146v321h119v-321q0 -75 24.5 -146t74.5 -117.5t128 -46.5
q102 0 154.5 49t71 133t18.5 189q0 126 -23.5 253t-58.5 253h119q35 -130 58.5 -261.5t23.5 -262.5q0 -152 -38.5 -256t-119 -157.5t-207.5 -53.5q-91 0 -167.5 54t-116.5 171q-40 -117 -117.5 -171t-169.5 -54zM756 1112l49 287h147l-120 -287h-76z" />
    <glyph glyph-name="uni03CF" unicode="&#x3cf;" horiz-adv-x="1108" 
d="M969 -14l-656 706v-692h-129v1346h129v-650l588 650h154l-590 -637l643 -709zM524 -317v108h21q111 0 187 20t132 63t105 112l139 14q-72 -120 -148.5 -189t-175.5 -98.5t-241 -29.5h-19z" />
    <glyph glyph-name="uni03D0" unicode="&#x3d0;" 
d="M158 -358v1251q0 151 46.5 256t135 160t215.5 55q161 0 258.5 -88t97.5 -242q0 -144 -86.5 -228.5t-224.5 -103.5l-90 31q220 0 345.5 -86t125.5 -272q0 -130 -54.5 -216t-148 -128.5t-211.5 -42.5q-61 0 -114 7.5t-103.5 22.5t-101.5 37v105q80 -37 156 -55.5t163 -18.5
q143 0 219 73t76 216q0 152 -100 220.5t-260 68.5h-90v96h98q125 0 204 72.5t79 201.5q0 114 -64 170t-174 56q-86 0 -148.5 -37.5t-96.5 -118.5t-34 -211v-1251h-118z" />
    <glyph glyph-name="theta1" unicode="&#x3d1;" horiz-adv-x="1090" 
d="M545 -18q-167 0 -258.5 90t-127.5 246t-36 354q0 200 36 356.5t127.5 247t258.5 90.5t258.5 -90.5t127.5 -246.5t36 -355t-36 -355.5t-127.5 -246.5t-258.5 -90zM545 82q90 0 148 47.5t90.5 130.5t45.5 189.5t13 224.5q0 117 -13 223.5t-45.5 189.5t-90.5 131t-148 48
q-91 0 -150 -48t-91 -131t-45 -189.5t-13 -223.5q0 -118 13 -224.5t45 -189.5t91 -130.5t150 -47.5zM233 635v96h619v-96h-619z" />
    <glyph glyph-name="Upsilon1" unicode="&#x3d2;" horiz-adv-x="1069" 
d="M463 0v553l-463 793h133l395 -687l174 383q58 126 101.5 191.5t94 89t128.5 23.5h43v-111h-14q-43 0 -77.5 -9.5t-72.5 -55.5t-92 -158l-221 -465v-547h-129z" />
    <glyph glyph-name="uni03D3" unicode="&#x3d3;" horiz-adv-x="1069" 
d="M463 0v553l-463 793h133l395 -687l174 383q58 126 101.5 191.5t94 89t128.5 23.5h43v-111h-14q-43 0 -77.5 -9.5t-72.5 -55.5t-92 -158l-221 -465v-547h-129zM-207 1059l49 287h147l-120 -287h-76z" />
    <glyph glyph-name="uni03D4" unicode="&#x3d4;" horiz-adv-x="1069" 
d="M463 0v553l-463 793h133l395 -687l174 383q58 126 101.5 191.5t94 89t128.5 23.5h43v-111h-14q-43 0 -77.5 -9.5t-72.5 -55.5t-92 -158l-221 -465v-547h-129zM698 1534q-34 0 -57 21t-23 55t23 56t57 22t57 -22t23 -56t-23 -55t-57 -21zM362 1534q-34 0 -57 21t-23 55
t23 56t57 22t57 -22t23 -56t-23 -55t-57 -21z" />
    <glyph glyph-name="phi1" unicode="&#x3d5;" horiz-adv-x="1313" 
d="M649 -16q-259 0 -397.5 134.5t-138.5 366.5q0 236 138.5 372t397.5 136q266 0 408.5 -136t142.5 -372q0 -232 -142.5 -366.5t-408.5 -134.5zM649 82q156 0 250 51.5t136 142.5t42 209q0 120 -42 212t-136 144t-250 52q-151 0 -241.5 -52t-131 -144t-40.5 -212
q0 -118 40.5 -209t131 -142.5t241.5 -51.5zM596 -358v1704h119v-1704h-119z" />
    <glyph glyph-name="omega1" unicode="&#x3d6;" horiz-adv-x="1176" 
d="M1008 0q-103 0 -156.5 38.5t-72.5 107t-19 157.5v569h-723v101h1083v-101h-243v-565q0 -98 24 -152.5t119 -54.5h72v-100h-84zM225 0v952h119v-952h-119z" />
    <glyph glyph-name="uni03D7" unicode="&#x3d7;" horiz-adv-x="1147" 
d="M963 -14q-120 11 -169 96.5t-49 202.5q0 65 15 150.5t37.5 167.5t44.5 134l-621 -737h-123q39 75 75 177.5t58.5 227.5t22.5 267q0 107 -49 159t-115 52h-29v100h29q82 0 146 -26.5t100.5 -93.5t36.5 -189q0 -98 -16.5 -201t-59.5 -223l616 723h127q-24 -60 -54.5 -142
t-58 -175.5t-45.5 -188.5t-18 -182q0 -109 51.5 -155t149.5 -46h20v-37zM588 -369v121q125 3 209 34.5t126 91t42 145.5l120 24q0 -215 -121.5 -312t-375.5 -104z" />
    <glyph glyph-name="uni03D8" unicode="&#x3d8;" horiz-adv-x="1495" 
d="M686 -358v393h129v-393h-129zM748 -18q-212 0 -353 89t-211.5 244.5t-70.5 356.5t70.5 357t211.5 245.5t353 89.5q211 0 351 -89.5t210.5 -245.5t70.5 -357t-70.5 -356.5t-210.5 -244.5t-351 -89zM748 86q177 0 287 78.5t161 211.5t51 296q0 164 -51 297t-161 212
t-287 79q-178 0 -288.5 -79t-161 -212t-50.5 -297q0 -163 50.5 -296t161 -211.5t288.5 -78.5z" />
    <glyph glyph-name="uni03D9" unicode="&#x3d9;" horiz-adv-x="1108" 
d="M547 -16q-140 0 -237 61t-147 173.5t-50 266.5q0 157 50 271t147 175.5t237 61.5q145 0 244.5 -61.5t151.5 -175.5t52 -271q0 -154 -52 -266.5t-151.5 -173.5t-244.5 -61zM547 82q119 0 190 51.5t103 142.5t32 209q0 120 -32 212t-103 144t-190 52q-114 0 -182 -52
t-98.5 -144t-30.5 -212q0 -118 30.5 -209t98.5 -142.5t182 -51.5zM489 -358v401h119v-401h-119z" />
    <glyph glyph-name="uni03DA" unicode="&#x3da;" horiz-adv-x="1204" 
d="M981 -252q14 85 7.5 136t-47 73.5t-128.5 22.5h-156q-160 0 -282.5 80.5t-192 235.5t-69.5 376q0 201 65.5 357t197.5 245.5t331 89.5q114 0 217.5 -38.5t175 -119.5t86.5 -207h-127q-11 90 -63.5 147.5t-128.5 85.5t-160 28q-164 0 -265 -78.5t-147.5 -211.5t-46.5 -298
q0 -200 52 -330t153 -193t247 -63h156q151 0 213 -79.5t31 -258.5h-119z" />
    <glyph glyph-name="uni03DB" unicode="&#x3db;" horiz-adv-x="881" 
d="M682 -254q14 83 7.5 133t-44 74t-117.5 29l-90 6q-106 7 -178.5 57t-109.5 148t-37 247q0 138 30.5 238.5t86.5 166.5t134 101.5t173 44.5q113 11 166 41.5t59 100.5h119q-7 -123 -90.5 -177t-231.5 -65q-116 -9 -187.5 -63.5t-103.5 -151.5t-32 -236q0 -130 27 -204
t78.5 -106.5t125.5 -37.5l90 -6q100 -7 161 -42.5t82.5 -107.5t0.5 -190h-119z" />
    <glyph glyph-name="uni03DC" unicode="&#x3dc;" horiz-adv-x="1061" 
d="M184 0v1346h817v-109h-688v-487h625v-361h-125v252h-500v-641h-129z" />
    <glyph glyph-name="uni03DD" unicode="&#x3dd;" horiz-adv-x="900" 
d="M170 -358v1331h119v-1331h-119zM264 457v100h539v-100h-539zM264 872v101h580v-101h-580z" />
    <glyph glyph-name="uni03DE" unicode="&#x3de;" horiz-adv-x="1035" 
d="M868 -20q-116 0 -169.5 55.5t-53.5 146.5q0 51 15.5 112t37.5 128l66 196h-651l108 322q19 56 34 112.5t15 102.5q0 57 -31.5 78.5t-72.5 21.5v111q78 0 127.5 -25.5t72.5 -71t23 -106.5q0 -52 -15 -111.5t-38 -127.5l-66 -195h652l-109 -323q-19 -55 -34 -112t-15 -104
q0 -56 31.5 -78t72.5 -22v-110z" />
    <glyph glyph-name="uni03DF" unicode="&#x3df;" horiz-adv-x="953" 
d="M745 -225q-116 0 -166.5 56t-50.5 146q0 56 14.5 113.5t37.5 126.5l110 326h-577l108 383q16 55 32.5 118.5t16.5 110.5q0 57 -31.5 78.5t-72.5 21.5v111q78 0 125.5 -25.5t69.5 -71t22 -106.5q0 -49 -15 -109t-38 -139l-78 -268h588l-150 -446q-12 -38 -23 -75
t-18.5 -72t-7.5 -68q0 -57 31.5 -79t72.5 -22v-110z" />
    <glyph glyph-name="uni03E0" unicode="&#x3e0;" horiz-adv-x="1223" 
d="M1057 0q0 200 -53.5 385.5t-148.5 343t-222 275t-275.5 182.5t-306.5 65v115q174 0 338.5 -72t306 -201t248.5 -301t167 -374t60 -418h-114zM440 231l-82 80l478 477l79 -81zM225 444l-78 80l498 498l80 -78z" />
    <glyph glyph-name="uni03E1" unicode="&#x3e1;" horiz-adv-x="1257" 
d="M1057 -205q51 245 34 448.5t-86 365t-176.5 282.5t-237.5 200.5t-269 119.5t-271 40v115q145 0 297.5 -44.5t295.5 -133t261 -220.5t196 -306.5t99.5 -391t-29.5 -475.5h-114zM584 190l-82 80l477 478l80 -82zM369 403l-78 80l497 498l80 -78z" />
    <glyph glyph-name="uni03E2" unicode="&#x3e2;" horiz-adv-x="1779" 
d="M213 -358v110h1102q77 0 115 31t38 119v250q-27 -37 -76 -74.5t-117.5 -62.5t-156.5 -25q-114 0 -180 43.5t-94.5 123.5t-28.5 191v998h125v-979q0 -78 14.5 -139.5t55.5 -96.5t120 -35q83 0 148.5 25.5t113.5 64t76 78.5v1082h125v-1434q0 -132 -59 -201t-201 -69h-1120
zM469 -8q-112 0 -178.5 43t-95.5 122.5t-29 190.5v998h125v-979q0 -78 14.5 -139.5t55 -96.5t118.5 -35q84 0 150 25.5t114 64t78 78.5l23 -100q-55 -61 -149 -116.5t-226 -55.5z" />
    <glyph glyph-name="uni03E3" unicode="&#x3e3;" horiz-adv-x="1710" 
d="M207 -358v100h1061q77 0 115 36t38 124v250q-41 -55 -123 -108.5t-206 -53.5q-171 0 -237.5 96t-66.5 262v625h119v-606q0 -78 14.5 -139.5t57 -96.5t125.5 -35q117 0 195.5 54t121.5 114v709h119v-1061q0 -132 -58 -201t-196 -69h-1079zM463 -8q-112 0 -178.5 43
t-95.5 122.5t-29 190.5v625h119v-606q0 -78 14.5 -139.5t56 -96.5t123.5 -35q119 0 198.5 54t125.5 114l20 -100q-55 -61 -142 -116.5t-212 -55.5z" />
    <glyph glyph-name="uni03E4" unicode="&#x3e4;" horiz-adv-x="1161" 
d="M848 0v475q-85 -31 -166.5 -46t-173.5 -15q-154 0 -247.5 58t-135 162.5t-41.5 242.5q0 219 90 347t301 128h47v-111h-37q-108 0 -167 -47t-82 -130t-23 -192q0 -101 25 -179.5t89 -123.5t181 -45q77 0 170 15.5t170 46.5v747h127v-1333h-127z" />
    <glyph glyph-name="uni03E5" unicode="&#x3e5;" horiz-adv-x="1105" 
d="M816 260v713h119v-1331h-119v505q-46 -47 -139 -94t-209 -47q-120 0 -191 43.5t-102 123.5t-31 189v265q0 164 72 260t262 96h53v-115h-53q-91 0 -137 -33.5t-62 -92t-16 -134.5v-227q0 -76 16 -134.5t62 -92t137 -33.5q110 0 200.5 42.5t137.5 96.5z" />
    <glyph glyph-name="uni03E6" unicode="&#x3e6;" horiz-adv-x="1241" 
d="M258 -358v110h455q115 0 174 50.5t59 154.5v483q0 105 -59 155t-174 50q-91 0 -201 -15t-201 -46v-584h-127v1346h127v-652q91 23 189.5 42.5t212.5 19.5q111 0 192 -33t125.5 -101.5t44.5 -175.5v-495q0 -106 -44.5 -174.5t-125.5 -101.5t-192 -33h-455z" />
    <glyph glyph-name="uni03E7" unicode="&#x3e7;" horiz-adv-x="1121" 
d="M246 -358v114h381q91 0 137 33.5t62 92.5t16 134v244q0 76 -16 134.5t-62 92t-137 33.5q-109 0 -200 -42.5t-138 -96.5v-381h-119v973h119v-479q46 47 139.5 94t208.5 47q120 0 191 -43.5t102 -123t31 -189.5v-281q0 -164 -71.5 -260t-262.5 -96h-381z" />
    <glyph glyph-name="uni03E8" unicode="&#x3e8;" horiz-adv-x="1146" 
d="M550 -18q-146 0 -253 41.5t-164.5 121.5t-57.5 197q0 109 44.5 185.5t142 132t255.5 100.5q128 36 202 72t105 85.5t31 122.5q0 105 -71 160t-205 55t-222.5 -55.5t-87.5 -165.5h-127q0 109 60 182t159.5 110.5t219.5 37.5q128 0 216.5 -39t134.5 -111.5t46 -173.5
q0 -98 -39 -166t-126 -117t-232 -91q-138 -40 -223 -82t-123.5 -99.5t-38.5 -142.5q0 -120 98.5 -186t249.5 -66q130 0 219 39t134.5 130.5t45.5 248.5h127q0 -146 -40 -246.5t-111 -162t-165.5 -89.5t-203.5 -28z" />
    <glyph glyph-name="uni03E9" unicode="&#x3e9;" horiz-adv-x="1006" 
d="M488 -12q-116 0 -202.5 30t-133.5 91t-47 155q0 87 36.5 143.5t114.5 94.5t202 67q147 35 201.5 75t54.5 104q0 74 -57 105.5t-140 31.5q-101 0 -166 -46t-65 -155h-119q0 76 25.5 132.5t72.5 94t111.5 56t142.5 18.5q69 0 125.5 -15t98 -45t63.5 -74t22 -101
q0 -71 -34 -120.5t-104.5 -84.5t-182.5 -62q-109 -25 -171.5 -53t-88 -67t-25.5 -99q0 -94 71 -136t195 -42q131 0 213 66t82 227h119q0 -138 -54.5 -224t-148 -126.5t-211.5 -40.5z" />
    <glyph glyph-name="uni03EA" unicode="&#x3ea;" horiz-adv-x="1171" 
d="M1006 39l-359 922q-46 118 -95 181.5t-118 88t-176 24.5h-57v111h67q102 0 178 -21.5t134 -67t103 -118t85 -174.5l342 -881zM61 0v104l113 5h825l111 -5v-104h-1049zM166 39l-105 65l345 883q39 101 84.5 173t103.5 117.5t133.5 67t175.5 21.5h68v-111h-58
q-106 0 -175.5 -24.5t-118.5 -88t-95 -181.5z" />
    <glyph glyph-name="uni03EB" unicode="&#x3eb;" horiz-adv-x="1015" 
d="M858 39l-280 555q-57 113 -107.5 176.5t-117 90t-173.5 26.5h-57v98h67q135 0 220.5 -38t147.5 -116.5t124 -201.5l268 -525zM66 0v104l106 -6h672l106 6v-104h-884zM158 39l-92 65l272 531q46 90 91 155.5t99 109t125.5 64.5t171.5 21h68v-98h-57q-106 0 -172.5 -26.5
t-116 -90t-107.5 -176.5z" />
    <glyph glyph-name="uni03EC" unicode="&#x3ec;" horiz-adv-x="1387" 
d="M729 -16q-293 0 -454.5 172.5t-161.5 513.5q0 336 168.5 506t535.5 170h379v-109h-379q-209 0 -334.5 -58t-181 -182.5t-55.5 -326.5q0 -286 123 -434t356 -148q214 0 314 106.5t100 276.5q0 169 -98.5 250.5t-274.5 81.5q-157 0 -309.5 -64.5t-278.5 -189.5v129
q116 91 257.5 160t330.5 69q151 0 264.5 -45t177.5 -141t64 -250q0 -149 -62.5 -258.5t-183.5 -169t-297 -59.5z" />
    <glyph glyph-name="uni03ED" unicode="&#x3ed;" horiz-adv-x="1108" 
d="M567 -16q-218 0 -336 121.5t-118 359.5q0 281 164 404.5t509 123.5h164v-108h-164q-199 0 -320 -40t-175.5 -132t-54.5 -248q0 -190 83.5 -286.5t247.5 -96.5q166 0 235.5 73.5t69.5 209.5q0 140 -83 201t-246 61h-158v100h158q204 0 328 -90t124 -272
q0 -184 -110 -282.5t-318 -98.5z" />
    <glyph glyph-name="uni03EE" unicode="&#x3ee;" horiz-adv-x="989" 
d="M430 0v1346h129v-1346h-129zM18 584q0 204 85 295.5t286 91.5h68v-111h-58q-150 0 -201 -65t-51 -211h-129zM842 584q0 146 -50.5 211t-201.5 65h-58v111h68q201 0 286 -91.5t85 -295.5h-129z" />
    <glyph glyph-name="uni03EF" unicode="&#x3ef;" horiz-adv-x="817" 
d="M349 -358v1611h119v-1611h-119zM56 676v55q0 129 76 185.5t217 56.5v-101q-104 0 -147 -39t-43 -120v-37h-103zM466 872v101h295v-101h-295z" />
    <glyph glyph-name="uni03F0" unicode="&#x3f0;" horiz-adv-x="1147" 
d="M1055 -12q-126 0 -193 42t-92 109.5t-25 145.5q0 65 15 150.5t37.5 167.5t44.5 134l-621 -737h-123q39 75 75 177.5t58.5 227.5t22.5 267q0 107 -49 159t-115 52h-29v100h29q82 0 146 -26.5t100.5 -93.5t36.5 -189q0 -98 -16.5 -201t-59.5 -223l616 723h127
q-24 -60 -54.5 -142t-58 -175.5t-45.5 -188.5t-18 -182q0 -109 51.5 -153t149.5 -44h20v-100h-30z" />
    <glyph glyph-name="uni03F1" unicode="&#x3f1;" horiz-adv-x="1123" 
d="M623 -14q-121 0 -209.5 44.5t-141.5 123.5l2 125q48 -85 130.5 -136t203.5 -51q139 0 209 105.5t70 298.5q0 215 -77 304t-212 89q-148 0 -233.5 -86t-85.5 -281v-518l-119 10v508q0 113 29 200.5t85.5 148t137.5 91.5t186 31q186 0 299 -123.5t113 -371.5
q0 -166 -46 -280t-132.5 -173t-208.5 -59zM475 -358q-172 0 -243.5 95t-71.5 277l119 -10q0 -144 53.5 -203t161.5 -59h444v-100h-463z" />
    <glyph glyph-name="uni03F2" unicode="&#x3f2;" horiz-adv-x="1051" 
d="M545 -18q-130 0 -227 57t-151 169.5t-54 276.5q0 165 54 278t151 170.5t227 57.5q108 0 193.5 -35t137 -106t56.5 -180h-119q-9 104 -78 162.5t-186 58.5q-155 0 -234 -107t-79 -299q0 -128 35 -218t105 -137.5t173 -47.5q117 0 191.5 58.5t78.5 174.5h119
q-3 -113 -56 -187t-141 -110t-196 -36z" />
    <glyph glyph-name="uni03F3" unicode="&#x3f3;" horiz-adv-x="459" 
d="M-20 -358v100h36q77 0 115.5 36t38.5 124v1071h119v-1061q0 -132 -58 -201t-196 -69h-55zM229 1184q-35 0 -58.5 22.5t-23.5 57.5t23.5 58.5t58.5 23.5q34 0 58 -23.5t24 -58.5t-24 -57.5t-58 -22.5z" />
    <glyph glyph-name="uni03F4" unicode="&#x3f4;" horiz-adv-x="1495" 
d="M459 627v108h577v-108h-577zM748 -18q-212 0 -353 89t-211.5 244.5t-70.5 356.5t70.5 357t211.5 245.5t353 89.5q211 0 351 -89.5t210.5 -245.5t70.5 -357t-70.5 -356.5t-210.5 -244.5t-351 -89zM748 86q177 0 287 78.5t161 211.5t51 296q0 164 -51 297t-161 212t-287 79
q-178 0 -288.5 -79t-161 -212t-50.5 -297q0 -163 50.5 -296t161 -211.5t288.5 -78.5z" />
    <glyph glyph-name="uni03F5" unicode="&#x3f5;" horiz-adv-x="753" 
d="M606 -18q-148 0 -259 57t-172.5 169.5t-61.5 276.5q0 165 61.5 278t172.5 170.5t259 57.5h66v-100h-62q-186 0 -282.5 -107t-96.5 -299t96.5 -297.5t282.5 -105.5h78v-100h-82zM158 444v101h487v-101h-487z" />
    <glyph glyph-name="uni03F6" unicode="&#x3f6;" horiz-adv-x="1051" 
d="M334 444v101h491v-101h-491zM506 -18q-107 0 -195.5 36t-141.5 110t-56 187h118q5 -116 79.5 -174.5t191.5 -58.5q155 0 236 105.5t81 297.5t-81 299t-236 107q-117 0 -186 -58.5t-78 -162.5h-119q5 109 56.5 180t137.5 106t193 35q130 0 227 -57.5t151 -170.5t54 -278
q0 -164 -54 -276.5t-151 -169.5t-227 -57z" />
    <glyph glyph-name="uni03F7" unicode="&#x3f7;" horiz-adv-x="1153" 
d="M184 279v110h457q134 0 216.5 67.5t82.5 207.5q0 149 -82.5 220.5t-216.5 71.5h-457v111h465q121 0 216 -48t149.5 -138t54.5 -217q0 -122 -54.5 -208t-149.5 -131.5t-216 -45.5h-465zM184 0v1346h129v-1346h-129z" />
    <glyph glyph-name="uni03F8" unicode="&#x3f8;" horiz-adv-x="1123" 
d="M170 -358v1704h119v-537q50 80 136 131t198 51q122 0 208.5 -59t132.5 -173.5t46 -281.5q0 -159 -48.5 -269t-140 -167t-219.5 -57q-109 0 -188.5 41.5t-126.5 113.5v-497h-117zM588 86q150 0 224.5 102.5t74.5 288.5q0 195 -69.5 303.5t-209.5 108.5q-116 0 -194 -59.5
t-125 -145.5v-420q43 -81 116.5 -129.5t182.5 -48.5z" />
    <glyph glyph-name="uni03F9" unicode="&#x3f9;" horiz-adv-x="1403" 
d="M748 -18q-212 0 -353 89t-211.5 244.5t-70.5 356.5t70.5 357t211.5 245.5t353 89.5q128 0 245 -45t197.5 -139t97.5 -242h-127q-13 111 -74.5 182t-151 105.5t-187.5 34.5q-178 0 -288.5 -78.5t-161 -211.5t-50.5 -298q0 -164 50.5 -296.5t161 -210t288.5 -77.5
q176 0 288.5 86t130.5 262h129q-18 -156 -96 -256.5t-196 -149t-256 -48.5z" />
    <glyph glyph-name="uni03FA" unicode="&#x3fa;" horiz-adv-x="1587" 
d="M184 0v1346h133l508 -830h-53l496 830h133v-1346h-127v1196h31l-465 -776h-90l-471 776h30v-1196h-125z" />
    <glyph glyph-name="uni03FB" unicode="&#x3fb;" horiz-adv-x="1305" 
d="M170 -358v1335h141l344 -569l344 569h136v-977h-119v797l-311 -510h-107l-311 510v-1155h-117z" />
    <glyph glyph-name="uni03FC" unicode="&#x3fc;" horiz-adv-x="1123" 
d="M45 -209v90h475v-90h-475zM272 154l2 125q48 -85 130.5 -136t203.5 -51q139 0 209 105.5t70 298.5q0 215 -77 304t-212 89q-148 0 -233.5 -86t-85.5 -281v-880h-119v880q0 113 29 200.5t85.5 148t137.5 91.5t186 31q186 0 299 -123.5t113 -371.5q0 -166 -46 -280
t-132.5 -173t-208.5 -59q-121 0 -209.5 44.5t-141.5 123.5z" />
    <glyph glyph-name="uni03FD" unicode="&#x3fd;" horiz-adv-x="1406" 
d="M656 -18q-138 0 -256 48.5t-196 149t-97 256.5h130q18 -176 130.5 -262t288.5 -86q179 0 289 77.5t160.5 210t50.5 296.5q0 165 -50.5 298t-160.5 211.5t-289 78.5q-98 0 -187.5 -34.5t-151 -105.5t-74.5 -182h-127q18 148 98 242t197 139t245 45q212 0 353 -89.5
t211.5 -245.5t70.5 -357t-70.5 -356.5t-211.5 -244.5t-353 -89z" />
    <glyph glyph-name="uni03FE" unicode="&#x3fe;" horiz-adv-x="1403" 
d="M748 -18q-212 0 -353 89t-211.5 244.5t-70.5 356.5t70.5 357t211.5 245.5t353 89.5q128 0 245 -45t197.5 -139t97.5 -242h-127q-13 111 -74.5 182t-151 105.5t-187.5 34.5q-178 0 -288.5 -78.5t-161 -211.5t-50.5 -298q0 -164 50.5 -296.5t161 -210t288.5 -77.5
q176 0 288.5 86t130.5 262h129q-18 -156 -96 -256.5t-196 -149t-256 -48.5zM737 598q-35 0 -58.5 22.5t-23.5 57.5t23.5 58.5t58.5 23.5q34 0 58 -23.5t24 -58.5t-24 -57.5t-58 -22.5z" />
    <glyph glyph-name="uni03FF" unicode="&#x3ff;" horiz-adv-x="1404" 
d="M656 -18q-138 0 -256 48.5t-196 149t-97 256.5h130q18 -176 130.5 -262t288.5 -86q179 0 289 77.5t160.5 210t50.5 296.5q0 165 -50.5 298t-160.5 211.5t-289 78.5q-98 0 -187.5 -34.5t-151 -105.5t-74.5 -182h-127q18 148 98 242t197 139t245 45q212 0 353 -89.5
t211.5 -245.5t70.5 -357t-70.5 -356.5t-211.5 -244.5t-353 -89zM688 586q-35 0 -58.5 22.5t-23.5 57.5t23.5 58.5t58.5 23.5q34 0 58 -23.5t24 -58.5t-24 -57.5t-58 -22.5z" />
    <glyph glyph-name="uni0400" unicode="&#x400;" horiz-adv-x="1122" 
d="M184 0v1346h836v-109h-707v-487h656v-109h-656v-532h707v-109h-836zM569 1466l-247 265h147l197 -265h-97z" />
    <glyph glyph-name="uni0401" unicode="&#x401;" horiz-adv-x="1122" 
d="M184 0v1346h836v-109h-707v-487h656v-109h-656v-532h707v-109h-836zM770 1534q-34 0 -57 21t-23 55t23 56t57 22t57 -22t23 -56t-23 -55t-57 -21zM434 1534q-34 0 -57 21t-23 55t23 56t57 22t57 -22t23 -56t-23 -55t-57 -21z" />
    <glyph glyph-name="uni0402" unicode="&#x402;" horiz-adv-x="1470" 
d="M412 0v1237h-394v109h914v-109h-393v-506q86 45 176.5 76t193.5 31q126 0 214 -38.5t134 -120.5t46 -212v-317l-129 4v307q0 137 -66.5 201.5t-198.5 64.5q-100 0 -186.5 -24.5t-183.5 -77.5v-625h-127zM864 -258v111h58q150 0 201 71.5t51 229.5l129 -4
q0 -215 -85 -311.5t-286 -96.5h-68z" />
    <glyph glyph-name="uni0403" unicode="&#x403;" horiz-adv-x="928" 
d="M184 0v1346h707v-109h-578v-1237h-129zM435 1466l196 265h148l-248 -265h-96z" />
    <glyph glyph-name="uni0404" unicode="&#x404;" horiz-adv-x="1403" 
d="M748 -18q-212 0 -353 89t-211.5 244.5t-70.5 356.5t70.5 357t211.5 245.5t353 89.5q128 0 245 -45t197.5 -139t97.5 -242h-127q-13 111 -74.5 182t-151 105.5t-187.5 34.5q-178 0 -288.5 -78.5t-161 -211.5t-50.5 -298q0 -164 50.5 -296.5t161 -210t288.5 -77.5
q176 0 288.5 86t130.5 262h129q-18 -156 -96 -256.5t-196 -149t-256 -48.5zM184 641v109h701v-109h-701z" />
    <glyph glyph-name="uni0405" unicode="&#x405;" horiz-adv-x="1126" 
d="M575 -18q-140 0 -253 44t-179.5 138t-66.5 242h127q0 -122 52.5 -191t139 -97t187.5 -28q92 0 171 29.5t127 89.5t48 153q0 79 -37 129.5t-118.5 86.5t-215.5 69q-158 40 -254.5 87t-140 115.5t-43.5 170.5q0 107 49 184t144.5 118.5t232.5 41.5q125 0 229.5 -42
t167 -124.5t62.5 -204.5h-127q2 129 -93.5 195.5t-236.5 66.5q-149 0 -227 -61t-78 -174q0 -68 34 -112.5t114 -77.5t218 -68q157 -40 254.5 -87t143 -120.5t45.5 -192.5q0 -123 -63 -207.5t-170.5 -128.5t-242.5 -44z" />
    <glyph glyph-name="uni0406" unicode="&#x406;" horiz-adv-x="499" 
d="M184 0v1346h129v-1346h-129z" />
    <glyph glyph-name="uni0407" unicode="&#x407;" horiz-adv-x="499" 
d="M184 0v1346h129v-1346h-129zM416 1534q-34 0 -57 21t-23 55t23 56t57 22t57 -22t23 -56t-23 -55t-57 -21zM80 1534q-34 0 -57 21t-23 55t23 56t57 22t57 -22t23 -56t-23 -55t-57 -21z" />
    <glyph glyph-name="uni0408" unicode="&#x408;" horiz-adv-x="642" 
d="M37 -10v110h57q151 0 201.5 66.5t50.5 212.5v967h129v-971q0 -135 -36.5 -220t-118 -125t-216.5 -40h-67z" />
    <glyph glyph-name="uni0409" unicode="&#x409;" horiz-adv-x="1965" 
d="M989 0v1235h-522l76 111h573v-1346h-127zM18 -12v110h15q70 0 117.5 34.5t82 120.5t64 238.5t63.5 387.5l68 467h125l-68 -494q-33 -239 -65.5 -404.5t-78 -266.5t-116.5 -147t-182 -46h-25zM1098 109h286q106 0 185.5 25.5t124.5 90.5t45 183q0 160 -98.5 222t-256.5 62
h-286v-583zM1028 0l33 801h325q167 0 273 -47.5t156.5 -136.5t50.5 -214q0 -132 -50.5 -222t-157 -135.5t-274.5 -45.5h-356z" />
    <glyph glyph-name="uni040A" unicode="&#x40a;" horiz-adv-x="1938" 
d="M1092 801h268q167 0 273 -47.5t156 -136.5t50 -214q0 -132 -50 -222t-156.5 -135.5t-274.5 -45.5h-395v651h-650v-651h-129v1346h129v-584h650v584h129v-545zM1092 109h266q106 0 185.5 25.5t124 90.5t44.5 183q0 160 -98 222t-256 62h-266v-583z" />
    <glyph glyph-name="uni040B" unicode="&#x40b;" horiz-adv-x="1470" 
d="M412 0v1237h-394v109h914v-109h-393v-506q86 45 176.5 76t193.5 31q126 0 214 -38.5t134 -120.5t46 -212v-467h-129v461q0 137 -66.5 201.5t-198.5 64.5q-100 0 -186.5 -24.5t-183.5 -77.5v-625h-127z" />
    <glyph glyph-name="uni040C" unicode="&#x40c;" horiz-adv-x="1108" 
d="M184 0v1346h129v-650l588 650h154l-590 -637l643 -709h-168l-627 692v-692h-129zM490 1466l196 265h148l-248 -265h-96z" />
    <glyph glyph-name="uni040D" unicode="&#x40d;" horiz-adv-x="1429" 
d="M1243 0h-123v1176l-798 -1176h-138v1346h123v-1176l799 1176h137v-1346zM696 1466l-247 265h147l197 -265h-97z" />
    <glyph glyph-name="uni040E" unicode="&#x40e;" horiz-adv-x="1067" 
d="M193 -10v108h59q77 0 130 34.5t97 123.5l10 20l-479 1070h135l406 -932l379 932h127l-471 -1121q-28 -66 -59 -111t-69 -72.5t-86 -39.5t-110 -12h-69zM530 1493q-139 0 -214 63t-95 177h115q11 -76 67.5 -114t126.5 -38q72 0 131.5 39.5t69.5 112.5h112
q-18 -112 -96.5 -176t-216.5 -64z" />
    <glyph glyph-name="uni040F" unicode="&#x40f;" horiz-adv-x="1405" 
d="M184 0v1346h129v-1235h779v1235h127v-1346h-1035zM641 -285v394h125v-394h-125z" />
    <glyph glyph-name="uni0410" unicode="&#x410;" horiz-adv-x="1176" 
d="M10 0l514 1346h138l503 -1346h-133l-143 418h-594l-152 -418h-133zM334 528h512l-254 689z" />
    <glyph glyph-name="uni0411" unicode="&#x411;" horiz-adv-x="1221" 
d="M184 0v1346h830v-109h-701v-1237h-129zM244 0l32 780h367q167 0 273 -46t156 -132.5t50 -208.5q0 -129 -50 -216.5t-156.5 -132t-274.5 -44.5h-397zM313 109h328q106 0 185.5 24.5t124 87.5t44.5 176q0 154 -98 214.5t-256 60.5h-328v-563z" />
    <glyph glyph-name="uni0412" unicode="&#x412;" horiz-adv-x="1221" 
d="M184 0v1346h418q195 0 313.5 -82t118.5 -248q0 -106 -62 -193t-165 -108q140 -20 227.5 -110t87.5 -222q0 -115 -50 -201.5t-156.5 -134t-274.5 -47.5h-457zM313 109h328q95 0 175.5 24t129.5 84.5t49 169.5q0 129 -92.5 195.5t-261.5 66.5h-328v-540zM313 760h289
q154 0 229.5 68.5t75.5 179.5q0 74 -34 125t-101.5 77.5t-169.5 26.5h-289v-477z" />
    <glyph glyph-name="uni0413" unicode="&#x413;" horiz-adv-x="928" 
d="M184 0v1346h707v-109h-578v-1237h-129z" />
    <glyph glyph-name="uni0414" unicode="&#x414;" horiz-adv-x="1300" 
d="M18 -285v394h125q46 81 84.5 221.5t68.5 313.5t51.5 355t33.5 347h715v-1237h145v-394h-123v285h-975v-285h-125zM276 109h693v1126h-482q-6 -100 -19.5 -223t-33.5 -254t-45 -255t-53.5 -226.5t-59.5 -167.5z" />
    <glyph glyph-name="uni0415" unicode="&#x415;" horiz-adv-x="1122" 
d="M184 0v1346h836v-109h-707v-487h656v-109h-656v-532h707v-109h-836z" />
    <glyph glyph-name="uni0416" unicode="&#x416;" horiz-adv-x="1696" 
d="M786 0v1346h123v-650l588 650h145l-589 -644l643 -702h-154l-633 692v-692h-123zM0 0l643 702l-590 644h146l587 -650v-4l-632 -692h-154z" />
    <glyph glyph-name="uni0417" unicode="&#x417;" horiz-adv-x="1152" 
d="M573 -18q-144 0 -254 49t-171.5 141.5t-61.5 224.5h131q0 -141 94 -226t260 -85q158 0 253.5 71t95.5 220q0 143 -96 212.5t-269 69.5h-119v105h121q160 0 243 72.5t83 193.5q0 116 -85.5 174t-219.5 58q-154 0 -240 -76.5t-82 -198.5h-131q0 109 55 194.5t156 135
t239 49.5q123 0 222.5 -39t158 -114t58.5 -183q0 -120 -80 -200t-205 -111q140 -25 232 -112t92 -230q0 -127 -61.5 -215t-169.5 -134t-249 -46z" />
    <glyph glyph-name="uni0418" unicode="&#x418;" horiz-adv-x="1429" 
d="M1243 0h-123v1176l-798 -1176h-138v1346h123v-1176l799 1176h137v-1346z" />
    <glyph glyph-name="uni0419" unicode="&#x419;" horiz-adv-x="1429" 
d="M1243 0h-123v1176l-798 -1176h-138v1346h123v-1176l799 1176h137v-1346zM725 1493q-139 0 -214 63t-95 177h115q11 -76 67.5 -114t126.5 -38q72 0 131.5 39.5t69.5 112.5h112q-18 -112 -96.5 -176t-216.5 -64z" />
    <glyph glyph-name="uni041A" unicode="&#x41a;" horiz-adv-x="1108" 
d="M184 0v1346h129v-650l588 650h154l-590 -637l643 -709h-168l-627 692v-692h-129z" />
    <glyph glyph-name="uni041B" unicode="&#x41b;" horiz-adv-x="1302" 
d="M989 0v1235h-522l76 111h573v-1346h-127zM18 -12v110h15q70 0 117.5 34.5t82 120.5t64 238.5t63.5 387.5l68 467h125l-68 -494q-33 -239 -65.5 -404.5t-78 -266.5t-116.5 -147t-182 -46h-25z" />
    <glyph glyph-name="uni041C" unicode="&#x41c;" horiz-adv-x="1587" 
d="M184 0v1346h133l508 -830h-53l496 830h133v-1346h-127v1196h31l-465 -776h-90l-471 776h30v-1196h-125z" />
    <glyph glyph-name="uni041D" unicode="&#x41d;" horiz-adv-x="1425" 
d="M184 0v1346h129v-584h799v584h127v-1346h-127v651h-799v-651h-129z" />
    <glyph glyph-name="uni041E" unicode="&#x41e;" horiz-adv-x="1495" 
d="M748 -18q-212 0 -353 89t-211.5 244.5t-70.5 356.5t70.5 357t211.5 245.5t353 89.5q211 0 351 -89.5t210.5 -245.5t70.5 -357t-70.5 -356.5t-210.5 -244.5t-351 -89zM748 86q177 0 287 78.5t161 211.5t51 296q0 164 -51 297t-161 212t-287 79q-178 0 -288.5 -79
t-161 -212t-50.5 -297q0 -163 50.5 -296t161 -211.5t288.5 -78.5z" />
    <glyph glyph-name="uni041F" unicode="&#x41f;" horiz-adv-x="1405" 
d="M184 0v1346h1035v-1346h-127v1235h-779v-1235h-129z" />
    <glyph glyph-name="uni0420" unicode="&#x420;" horiz-adv-x="1153" 
d="M184 0v1346h465q121 0 216 -48t149.5 -138.5t54.5 -217.5q0 -122 -54.5 -208t-149.5 -131.5t-216 -45.5h-336v-557h-129zM313 668h328q134 0 216.5 67.5t82.5 206.5q0 151 -82.5 223t-216.5 72h-328v-569z" />
    <glyph glyph-name="uni0421" unicode="&#x421;" horiz-adv-x="1403" 
d="M748 -18q-212 0 -353 89t-211.5 244.5t-70.5 356.5t70.5 357t211.5 245.5t353 89.5q128 0 245 -45t197.5 -139t97.5 -242h-127q-13 111 -74.5 182t-151 105.5t-187.5 34.5q-178 0 -288.5 -78.5t-161 -211.5t-50.5 -298q0 -164 50.5 -296.5t161 -210t288.5 -77.5
q176 0 288.5 86t130.5 262h129q-18 -156 -96 -256.5t-196 -149t-256 -48.5z" />
    <glyph glyph-name="uni0422" unicode="&#x422;" horiz-adv-x="952" 
d="M412 0v1237h-394v109h916v-109h-393v-1237h-129z" />
    <glyph glyph-name="uni0423" unicode="&#x423;" horiz-adv-x="1067" 
d="M193 -10v108h59q77 0 130 34.5t97 123.5l10 20l-479 1070h135l406 -932l379 932h127l-471 -1121q-28 -66 -59 -111t-69 -72.5t-86 -39.5t-110 -12h-69z" />
    <glyph glyph-name="uni0424" unicode="&#x424;" horiz-adv-x="1440" 
d="M758 156v110h26q199 0 321 102t122 316q0 201 -122 298t-321 97h-26v111h35q162 0 289 -60t200.5 -173t73.5 -273q0 -168 -73.5 -286t-200.5 -180t-289 -62h-35zM655 -41v1427h129v-1427h-129zM682 156h-35q-161 0 -288.5 62t-201 180t-73.5 286q0 160 73.5 273t201 173
t288.5 60h35v-111h-27q-198 0 -320 -97t-122 -298q0 -214 122 -316t320 -102h27v-110z" />
    <glyph glyph-name="uni0425" unicode="&#x425;" horiz-adv-x="1085" 
d="M18 0l447 694l-418 652h143l351 -570l364 570h135l-422 -656l449 -690h-147l-379 600l-385 -600h-138z" />
    <glyph glyph-name="uni0426" unicode="&#x426;" horiz-adv-x="1423" 
d="M184 0v1346h129v-1235h779v1235h127v-1346h-1035zM1241 -285v285h-22l-15 109h160v-394h-123z" />
    <glyph glyph-name="uni0427" unicode="&#x427;" horiz-adv-x="1243" 
d="M930 0v614q-86 -44 -177 -75t-194 -31q-126 0 -213.5 38.5t-133.5 120.5t-46 212v467h129v-461q0 -137 66 -202t198 -65q100 0 187 24.5t184 78.5v625h127v-1346h-127z" />
    <glyph glyph-name="uni0428" unicode="&#x428;" horiz-adv-x="1810" 
d="M184 0v1346h129v-1235h1184v1235h127v-1346h-1440zM842 47v1299h127v-1299h-127z" />
    <glyph glyph-name="uni0429" unicode="&#x429;" horiz-adv-x="1828" 
d="M184 0v1346h129v-1235h1184v1235h127v-1346h-1440zM842 47v1299h127v-1299h-127zM1647 -285v285h-23l-14 109h159v-394h-122z" />
    <glyph glyph-name="uni042A" unicode="&#x42a;" horiz-adv-x="1423" 
d="M467 0l33 801h366q167 0 273 -47.5t156.5 -136.5t50.5 -214q0 -132 -50.5 -222t-157 -135.5t-274.5 -45.5h-397zM408 0v1346h129v-1346h-129zM537 109h327q106 0 185.5 25.5t124.5 90.5t45 183q0 160 -98.5 222t-256.5 62h-327v-583zM18 1237v109h484v-109h-484z" />
    <glyph glyph-name="uni042B" unicode="&#x42b;" horiz-adv-x="1564" 
d="M244 0l32 801h306q167 0 272.5 -47.5t156 -136.5t50.5 -214q0 -132 -50.5 -222t-156.5 -135.5t-274 -45.5h-336zM184 0v1346h129v-1346h-129zM313 109h267q106 0 185.5 25.5t124 90.5t44.5 183q0 160 -103 222t-292 62h-226v-583zM1249 0v1346h129v-1346h-129z" />
    <glyph glyph-name="uni042C" unicode="&#x42c;" horiz-adv-x="1221" 
d="M184 0v1346h129v-1346h-129zM244 0l32 801h367q167 0 273 -47t156 -135t50 -213q0 -133 -50 -223.5t-156.5 -136.5t-274.5 -46h-397zM313 109h328q106 0 185.5 25.5t124 91t44.5 184.5q0 158 -98 220t-256 62h-328v-583z" />
    <glyph glyph-name="uni042D" unicode="&#x42d;" horiz-adv-x="1411" 
d="M662 -18q-138 0 -256 48.5t-196 149t-97 256.5h129q18 -176 130.5 -262t289.5 -86q178 0 288 77.5t160.5 210t50.5 296.5q0 165 -50.5 298t-160.5 211.5t-288 78.5q-98 0 -188 -34.5t-151.5 -105.5t-74.5 -182h-127q18 148 98 242t197.5 139t245.5 45q212 0 352.5 -89.5
t211 -245.5t70.5 -357t-70.5 -356.5t-211 -244.5t-352.5 -89zM524 641v109h701v-109h-701z" />
    <glyph glyph-name="uni042E" unicode="&#x42e;" horiz-adv-x="1905" 
d="M184 0v1346h129v-584h301v-111h-301v-651h-129zM1178 -18q-205 0 -341.5 89t-205 244.5t-68.5 356.5t68.5 357t205 245.5t341.5 89.5q204 0 340 -89.5t204 -245.5t68 -357t-68 -356.5t-204 -244.5t-340 -89zM1178 86q170 0 275.5 78.5t154.5 211.5t49 296q0 164 -49 297
t-154.5 212t-275.5 79q-171 0 -276.5 -79t-154.5 -212t-49 -297q0 -163 49 -296t154.5 -211.5t276.5 -78.5z" />
    <glyph glyph-name="uni042F" unicode="&#x42f;" horiz-adv-x="1213" 
d="M75 0l104 348q30 100 71.5 164.5t94.5 99.5t115 45q-148 29 -226.5 119t-78.5 219q0 121 59 198.5t156.5 115t212.5 37.5h444v-1346h-129v598h-324q-62 0 -113.5 -29.5t-90.5 -88t-66 -146.5l-100 -334h-129zM593 707h305v530h-305q-157 0 -234 -71.5t-77 -196.5
q0 -82 43 -140.5t114 -90t154 -31.5z" />
    <glyph glyph-name="uni0430" unicode="&#x430;" horiz-adv-x="1067" 
d="M414 -18q-85 0 -153 31.5t-108 93t-40 151.5q0 129 82.5 196.5t234.5 92.5t358 26v76q0 139 -70.5 191.5t-176.5 52.5q-112 0 -190.5 -57.5t-78.5 -180.5h-118q0 117 50 191.5t137.5 109.5t199.5 35q65 0 129.5 -13.5t118 -50t86 -103.5t32.5 -175v-649h-110l-6 158
q-70 -76 -162 -126t-215 -50zM436 82q113 0 201.5 51t150.5 135v217q-295 -3 -426 -54.5t-131 -168.5q0 -79 50.5 -129.5t154.5 -50.5z" />
    <glyph glyph-name="uni0431" unicode="&#x431;" horiz-adv-x="1108" 
d="M113 598q0 145 18.5 265.5t62.5 211t119 142.5q85 58 248 96.5t389 70.5l15 2v-108l-15 -2q-236 -34 -372 -65.5t-201 -71.5q-43 -26 -70.5 -76t-43 -110.5t-21.5 -121t-6 -108.5zM567 -16q-220 0 -337 152.5t-117 461.5l82 125q18 63 68 125t134 103.5t203 41.5
q112 0 201 -52t141.5 -163.5t52.5 -292.5q0 -232 -110 -366.5t-318 -134.5zM567 82q166 0 235.5 112.5t69.5 290.5q0 211 -74.5 309.5t-211.5 98.5q-97 0 -167 -33t-114.5 -83.5t-68.5 -102.5v-107q0 -241 83.5 -363t247.5 -122z" />
    <glyph glyph-name="uni0432" unicode="&#x432;" horiz-adv-x="1011" 
d="M170 0v973h340q157 0 253.5 -60t96.5 -180q0 -75 -51 -137t-135 -78q115 -15 186.5 -79.5t71.5 -162.5q0 -83 -41 -145.5t-127.5 -96.5t-222.5 -34h-371zM291 100h250q73 0 134 15t98.5 54t37.5 110q0 89 -70.5 136.5t-199.5 47.5h-250v-363zM291 561h219q116 0 172.5 46
t56.5 122q0 69 -57.5 106t-171.5 37h-219v-311z" />
    <glyph glyph-name="uni0433" unicode="&#x433;" horiz-adv-x="756" 
d="M170 0v973h119v-973h-119zM170 872v101h549v-101h-549z" />
    <glyph glyph-name="uni0434" unicode="&#x434;" horiz-adv-x="1106" 
d="M18 -256v360h125q43 113 80.5 248t67 290.5t47.5 330.5h577v-869h125v-360h-114v256h-793v-256h-115zM262 104h535v762h-363q-15 -133 -41 -267t-59.5 -260t-71.5 -235z" />
    <glyph glyph-name="uni0435" unicode="&#x435;" horiz-adv-x="1049" 
d="M553 -18q-156 0 -253 69.5t-142 184t-45 249.5q0 146 43.5 260t136 180t239.5 66q189 0 295.5 -116.5t106.5 -335.5q0 -17 -1 -37.5t-3 -28.5h-699q0 -107 32.5 -196.5t103.5 -143t186 -53.5q125 0 194 59.5t72 171.5h117q-2 -97 -48 -171t-131 -116t-204 -42zM231 573
h586q-3 152 -76 235t-209 83q-138 0 -212.5 -81.5t-88.5 -236.5z" />
    <glyph glyph-name="uni0436" unicode="&#x436;" horiz-adv-x="1417" 
d="M-8 0l518 512l-471 461h143l469 -463v463h115v-463l469 463h143l-471 -461l518 -512h-147l-512 502v-502h-115v502l-512 -502h-147z" />
    <glyph glyph-name="uni0437" unicode="&#x437;" horiz-adv-x="966" 
d="M479 -18q-186 0 -291.5 79t-105.5 222h113q0 -92 75 -147.5t207 -55.5q125 0 196.5 45t71.5 143t-66.5 146.5t-191.5 48.5h-102v100h104q113 0 168.5 50.5t55.5 125.5q0 80 -63.5 118t-168.5 38q-119 0 -187.5 -49t-64.5 -127h-114q0 79 45 141t127 97.5t192 35.5
q104 0 183 -29t124 -85t45 -138q0 -85 -59 -142t-151 -79q106 -18 174.5 -83t68.5 -169q0 -138 -107.5 -212t-277.5 -74z" />
    <glyph glyph-name="uni0438" unicode="&#x438;" horiz-adv-x="1149" 
d="M170 0v973h119v-795l571 795h119v-973h-119v799l-571 -799h-119z" />
    <glyph glyph-name="uni0439" unicode="&#x439;" horiz-adv-x="1149" 
d="M170 0v973h119v-795l571 795h119v-973h-119v799l-571 -799h-119zM583 1124q-126 0 -193 63t-85 177h114q10 -75 57 -110t107 -35q62 0 111.5 36.5t58.5 108.5h113q-17 -112 -87.5 -176t-195.5 -64z" />
    <glyph glyph-name="uni043A" unicode="&#x43a;" horiz-adv-x="948" 
d="M170 0v973h119v-463l469 463h151l-467 -459l514 -514h-161l-506 502v-502h-119z" />
    <glyph glyph-name="uni043B" unicode="&#x43b;" horiz-adv-x="1061" 
d="M25 -12v100h12q39 0 66 18.5t48 70t40 147.5t42 251l60 398h598v-973h-119v872h-379l-47 -325q-23 -158 -43.5 -265.5t-50.5 -172t-80 -93t-131 -28.5h-16z" />
    <glyph glyph-name="uni043C" unicode="&#x43c;" horiz-adv-x="1305" 
d="M170 0v973h141l344 -565l344 565h136v-973h-119v793l-311 -506h-107l-311 506v-793h-117z" />
    <glyph glyph-name="uni043D" unicode="&#x43d;" horiz-adv-x="1128" 
d="M840 0v973h118v-973h-118zM170 0v973h119v-973h-119zM264 457v100h580v-100h-580z" />
    <glyph glyph-name="uni043E" unicode="&#x43e;" horiz-adv-x="1108" 
d="M547 -16q-140 0 -237 61t-147 173.5t-50 266.5q0 157 50 271t147 175.5t237 61.5q145 0 244.5 -61.5t151.5 -175.5t52 -271q0 -154 -52 -266.5t-151.5 -173.5t-244.5 -61zM547 82q119 0 190 51.5t103 142.5t32 209q0 120 -32 212.5t-103 145t-190 52.5q-114 0 -182 -52.5
t-98.5 -145t-30.5 -212.5q0 -118 30.5 -209t98.5 -142.5t182 -51.5z" />
    <glyph glyph-name="uni043F" unicode="&#x43f;" horiz-adv-x="1108" 
d="M819 0v973h119v-973h-119zM170 0v973h119v-973h-119zM264 872v101h580v-101h-580z" />
    <glyph glyph-name="uni0440" unicode="&#x440;" horiz-adv-x="1123" 
d="M170 -358v1331h119v-164q50 78 136 130t198 52q122 0 208.5 -57.5t132.5 -169.5t46 -275t-48.5 -276.5t-140 -172t-219.5 -58.5q-109 0 -188.5 42.5t-126.5 114.5v-497h-117zM588 86q150 0 224.5 105t74.5 298q0 189 -69.5 294.5t-209.5 105.5q-116 0 -194 -60t-125 -145
v-420q43 -81 116.5 -129.5t182.5 -48.5z" />
    <glyph glyph-name="uni0441" unicode="&#x441;" horiz-adv-x="1051" 
d="M545 -18q-130 0 -227 57t-151 169.5t-54 276.5q0 165 54 278t151 170.5t227 57.5q108 0 193.5 -35t137 -106t56.5 -180h-119q-9 104 -78 162.5t-186 58.5q-155 0 -234 -107t-79 -299q0 -128 35 -218t105 -137.5t173 -47.5q117 0 191.5 58.5t78.5 174.5h119
q-3 -113 -56 -187t-141 -110t-196 -36z" />
    <glyph glyph-name="uni0442" unicode="&#x442;" horiz-adv-x="787" 
d="M334 0v973h119v-973h-119zM37 872v101h713v-101h-713z" />
    <glyph glyph-name="uni0443" unicode="&#x443;" horiz-adv-x="883" 
d="M100 -358v100h80q56 0 95 35t73 117l45 106l-393 973h127l328 -834l307 834h121l-373 -973l-51 -129q-32 -79 -65 -129.5t-80.5 -75t-123.5 -24.5h-90z" />
    <glyph glyph-name="uni0444" unicode="&#x444;" horiz-adv-x="1313" 
d="M649 -16q-259 0 -397.5 134.5t-138.5 366.5q0 236 138.5 372t397.5 136q266 0 408.5 -136t142.5 -372q0 -232 -142.5 -366.5t-408.5 -134.5zM649 82q156 0 250 51.5t136 142.5t42 209q0 120 -42 212t-136 144t-250 52q-151 0 -241.5 -52t-131 -144t-40.5 -212
q0 -118 40.5 -209t131 -142.5t241.5 -51.5zM596 -358v1704h119v-1704h-119z" />
    <glyph glyph-name="uni0445" unicode="&#x445;" horiz-adv-x="852" 
d="M12 0l348 512l52 49l268 412h127l-326 -473l-45 -47l-299 -453h-125zM715 0l-301 453l-52 47l-319 473h127l266 -412l51 -41l353 -520h-125z" />
    <glyph glyph-name="uni0446" unicode="&#x446;" horiz-adv-x="1127" 
d="M819 0v973h119v-973h-119zM170 0v973h119v-973h-119zM264 0v100h580v-100h-580zM946 -256v256h-8l-12 100h135v-356h-115z" />
    <glyph glyph-name="uni0447" unicode="&#x447;" 
d="M805 0v455q-61 -40 -147 -78.5t-201 -38.5q-164 0 -244 85t-80 230v320h119v-301q0 -95 47 -157t168 -62q109 0 192 33t146 73v414h119v-973h-119z" />
    <glyph glyph-name="uni0448" unicode="&#x448;" horiz-adv-x="1675" 
d="M778 0v973h119v-973h-119zM170 0v973h119v-973h-119zM264 0v100h539v-100h-539zM1386 0v973h119v-973h-119zM872 0v100h539v-100h-539z" />
    <glyph glyph-name="uni0449" unicode="&#x449;" horiz-adv-x="1696" 
d="M778 0v973h119v-973h-119zM170 0v973h119v-973h-119zM264 0v100h539v-100h-539zM1386 0v973h119v-973h-119zM872 0v100h539v-100h-539zM1516 -256v256h-21v100h135v-356h-114z" />
    <glyph glyph-name="uni044A" unicode="&#x44a;" horiz-adv-x="1173" 
d="M403 0v973h121v-371h178q114 0 200 -29t133.5 -94t47.5 -174q0 -161 -104.5 -233t-273.5 -72h-302zM524 100h181q125 0 191.5 46.5t66.5 158.5q0 114 -66.5 156.5t-191.5 42.5h-181v-404zM37 872v101h487v-101h-487z" />
    <glyph glyph-name="uni044B" unicode="&#x44b;" horiz-adv-x="1303" 
d="M170 0v973h121v-371h178q114 0 199.5 -29t133.5 -94t48 -174q0 -161 -105 -233t-274 -72h-301zM291 100h180q126 0 192 46.5t66 158.5q0 114 -66 156.5t-192 42.5h-180v-404zM1014 0v973h119v-973h-119z" />
    <glyph glyph-name="uni044C" unicode="&#x44c;" horiz-adv-x="981" 
d="M170 0v973h121v-371h219q114 0 199.5 -29t133.5 -94t48 -174q0 -161 -105 -233t-274 -72h-342zM291 100h221q126 0 192 46.5t66 158.5q0 114 -66 156.5t-192 42.5h-221v-404z" />
    <glyph glyph-name="uni044D" unicode="&#x44d;" horiz-adv-x="1051" 
d="M496 -18q-104 0 -190 36t-138 110t-55 187h118q5 -116 77 -174.5t184 -58.5q160 0 243.5 105.5t83.5 297.5q0 206 -78 306t-229 100q-121 0 -193 -58.5t-81 -162.5h-119q10 109 62.5 180t138.5 106t196 35q127 0 222 -55.5t147.5 -168t52.5 -282.5q0 -164 -55 -276.5
t-154.5 -169.5t-232.5 -57zM393 444v101h488v-101h-488z" />
    <glyph glyph-name="uni044E" unicode="&#x44e;" horiz-adv-x="1549" 
d="M170 0v973h119v-973h-119zM264 449v100h395v-100h-395zM995 -16q-136 0 -230 61t-143 173.5t-49 266.5q0 157 49 271t143 175.5t230 61.5q142 0 240 -61.5t149.5 -175.5t51.5 -271q0 -154 -51.5 -266.5t-149.5 -173.5t-240 -61zM995 82q116 0 187 51.5t103 142.5t32 209
q0 120 -32 212t-103 144t-187 52q-109 0 -176 -52t-97 -144t-30 -212q0 -118 30 -209t97 -142.5t176 -51.5z" />
    <glyph glyph-name="uni044F" unicode="&#x44f;" horiz-adv-x="989" 
d="M61 0l76 221q35 103 85.5 157.5t144.5 82.5q-117 9 -183.5 76.5t-66.5 169.5q0 141 102.5 203.5t259.5 62.5h340v-973h-121v414h-178q-80 0 -130.5 -22.5t-83 -75t-60.5 -142.5l-53 -174h-132zM520 512h178v358h-200q-127 0 -192.5 -35t-65.5 -139q0 -94 74 -139t206 -45
z" />
    <glyph glyph-name="uni0450" unicode="&#x450;" horiz-adv-x="1049" 
d="M553 -18q-156 0 -253 69.5t-142 184t-45 249.5q0 146 43.5 260t136 180t239.5 66q189 0 295.5 -116.5t106.5 -335.5q0 -17 -1 -37.5t-3 -28.5h-699q0 -107 32.5 -196.5t103.5 -143t186 -53.5q125 0 194 59.5t72 171.5h117q-2 -97 -48 -171t-131 -116t-204 -42zM231 573
h586q-3 152 -76 235t-209 83q-138 0 -212.5 -81.5t-88.5 -236.5zM513 1112l-258 266h147l207 -266h-96z" />
    <glyph glyph-name="uni0451" unicode="&#x451;" horiz-adv-x="1049" 
d="M553 -18q-156 0 -253 69.5t-142 184t-45 249.5q0 146 43.5 260t136 180t239.5 66q189 0 295.5 -116.5t106.5 -335.5q0 -17 -1 -37.5t-3 -28.5h-699q0 -107 32.5 -196.5t103.5 -143t186 -53.5q125 0 194 59.5t72 171.5h117q-2 -97 -48 -171t-131 -116t-204 -42zM231 573
h586q-3 152 -76 235t-209 83q-138 0 -212.5 -81.5t-88.5 -236.5zM705 1188q-34 0 -57 21t-23 55t23 55.5t57 21.5t57 -21.5t23 -55.5t-23 -55t-57 -21zM369 1188q-34 0 -57 21t-23 55t23 55.5t57 21.5t57 -21.5t23 -55.5t-23 -55t-57 -21z" />
    <glyph glyph-name="uni0452" unicode="&#x452;" horiz-adv-x="1100" 
d="M170 0v1348h119v-527q44 56 130 108t218 52q169 0 236 -95t67 -261v-713l-119 -10v704q0 78 -14.5 139.5t-56.5 96.5t-125 35q-124 0 -207 -54.5t-129 -113.5v-709h-119zM631 -358v100h37q77 0 115 36t38 124l119 10q0 -132 -58 -201t-196 -69h-55zM43 1130v91h477v-91
h-477z" />
    <glyph glyph-name="uni0453" unicode="&#x453;" horiz-adv-x="756" 
d="M170 0v973h119v-973h-119zM170 872v101h549v-101h-549zM298 1112l206 266h148l-258 -266h-96z" />
    <glyph glyph-name="uni0454" unicode="&#x454;" horiz-adv-x="1051" 
d="M170 444v101h487v-101h-487zM545 -18q-130 0 -227 57t-151 169.5t-54 276.5q0 165 54 278t151 170.5t227 57.5q108 0 193.5 -35t137 -106t56.5 -180h-119q-9 104 -78 162.5t-186 58.5q-155 0 -234 -107t-79 -299q0 -128 35 -218t105 -137.5t173 -47.5q117 0 191.5 58.5
t78.5 174.5h119q-3 -113 -56 -187t-141 -110t-196 -36z" />
    <glyph glyph-name="uni0455" unicode="&#x455;" horiz-adv-x="965" 
d="M492 -18q-83 0 -154 19.5t-123.5 60t-81.5 104t-29 151.5h119q0 -130 77 -183.5t198 -53.5q104 0 175.5 42.5t71.5 139.5q0 80 -58.5 119t-207.5 74q-119 29 -195 64t-111.5 87t-35.5 129q0 59 24 106.5t69 81t108.5 51t142.5 17.5q77 0 142.5 -19.5t114 -59t75.5 -99.5
t27 -141h-119q0 118 -69.5 168.5t-170.5 50.5t-165 -38.5t-64 -117.5q0 -45 25 -75t85.5 -53.5t165.5 -49.5q117 -28 190.5 -64.5t107.5 -92t34 -140.5q0 -70 -26.5 -122.5t-75.5 -87t-116.5 -51.5t-149.5 -17z" />
    <glyph glyph-name="uni0456" unicode="&#x456;" horiz-adv-x="459" 
d="M170 0v973h119v-973h-119zM229 1184q-35 0 -58.5 22.5t-23.5 57.5t23.5 58.5t58.5 23.5q34 0 58 -23.5t24 -58.5t-24 -57.5t-58 -22.5z" />
    <glyph glyph-name="uni0457" unicode="&#x457;" horiz-adv-x="459" 
d="M377 1188q-34 0 -57 21t-23 55t23 55.5t57 21.5t57 -21.5t23 -55.5t-23 -55t-57 -21zM82 1188q-34 0 -57 21t-23 55t23 55.5t57 21.5t57 -21.5t23 -55.5t-23 -55t-57 -21zM170 0v973h119v-973h-119z" />
    <glyph glyph-name="uni0458" unicode="&#x458;" horiz-adv-x="459" 
d="M-20 -358v100h36q77 0 115.5 36t38.5 124v1071h119v-1061q0 -132 -58 -201t-196 -69h-55zM229 1184q-35 0 -58.5 22.5t-23.5 57.5t23.5 58.5t58.5 23.5q34 0 58 -23.5t24 -58.5t-24 -57.5t-58 -22.5z" />
    <glyph glyph-name="uni0459" unicode="&#x459;" horiz-adv-x="1481" 
d="M829 602h181q114 0 199.5 -29t133.5 -94t48 -174q0 -161 -105 -233t-274 -72h-301v872h-318l-80 -561q-13 -92 -35 -154t-54.5 -99.5t-78 -53.5t-104.5 -16h-16v100h12q33 0 58 9.5t44.5 36t34.5 76t27 130.5l94 633h534v-371zM829 100h183q126 0 192 46.5t66 158.5
q0 114 -66 156.5t-192 42.5h-183v-404z" />
    <glyph glyph-name="uni045A" unicode="&#x45a;" horiz-adv-x="1548" 
d="M778 0v973h119v-371h180q114 0 200 -29t133.5 -94t47.5 -174q0 -161 -104.5 -233t-274.5 -72h-301zM170 0v973h119v-973h-119zM264 498v100h518v-100h-518zM897 100h182q126 0 192 46.5t66 158.5q0 114 -66 156.5t-192 42.5h-182v-404z" />
    <glyph glyph-name="uni045B" unicode="&#x45b;" horiz-adv-x="1100" 
d="M43 1130v91h477v-91h-477zM170 0v1346h119v-525q44 57 130 111.5t218 54.5q169 0 236 -96.5t67 -265.5v-625h-119v606q0 80 -14.5 142.5t-56.5 98.5t-125 36q-124 0 -207 -56t-129 -118v-709h-119z" />
    <glyph glyph-name="uni045C" unicode="&#x45c;" horiz-adv-x="948" 
d="M170 0v973h119v-463l469 463h151l-467 -459l514 -514h-161l-506 502v-502h-119zM410 1112l206 266h148l-258 -266h-96z" />
    <glyph glyph-name="uni045D" unicode="&#x45d;" horiz-adv-x="1149" 
d="M170 0v973h119v-795l571 795h119v-973h-119v799l-571 -799h-119zM602 1112l-258 266h147l207 -266h-96z" />
    <glyph glyph-name="uni045E" unicode="&#x45e;" horiz-adv-x="883" 
d="M100 -358v100h80q56 0 95 35t73 117l45 106l-393 973h127l328 -834l307 834h121l-373 -973l-51 -129q-32 -79 -65 -129.5t-80.5 -75t-123.5 -24.5h-90zM450 1124q-126 0 -193 63t-85 177h114q10 -75 57 -110t107 -35q62 0 111.5 36.5t58.5 108.5h113q-17 -112 -87.5 -176
t-195.5 -64z" />
    <glyph glyph-name="uni045F" unicode="&#x45f;" horiz-adv-x="1108" 
d="M819 0v973h119v-973h-119zM170 0v973h119v-973h-119zM264 0v100h580v-100h-580zM498 -256v283h114v-283h-114z" />
    <glyph glyph-name="uni0460" unicode="&#x460;" horiz-adv-x="1860" 
d="M561 -18q-218 0 -318 165t-100 478q0 179 31 360t82 361h131q-51 -174 -82 -348.5t-31 -348.5q0 -163 22.5 -288t86.5 -196t186 -71q108 0 173 68.5t94.5 176.5t29.5 226v477h127v-477q0 -118 29.5 -226t95 -176.5t172.5 -68.5q123 0 186.5 71t86 196t22.5 288
q0 174 -31 348.5t-81 348.5h131q50 -180 81 -361t31 -360q0 -313 -100 -478t-318 -165q-118 0 -217 73.5t-151 225.5q-52 -152 -151 -225.5t-218 -73.5z" />
    </font>
</defs>
</svg>
